<svg xmlns="http://www.w3.org/2000/svg" width="94" height="94" fill="none"><path d="M0 0h94v94H0z"/><path fill="#2592FA" d="M46.99 33.828c-9.88 0-18.447 5.079-22.68 12.505l45.5.182c-4.08-7.817-12.62-12.687-22.82-12.687Z"/><path fill="#00E489" d="M73.25 71a8.75 8.75 0 1 0 0-17.5 8.75 8.75 0 0 0 0 17.5ZM20.75 71a8.75 8.75 0 1 0 0-17.5 8.75 8.75 0 0 0 0 17.5Z"/><path stroke="#000" stroke-width="2.5" d="M75.317 46.401c6.603.83 11.795 6.175 12.378 12.845l-28.382-.08v-.003h-.969a1.25 1.25 0 0 0-.57 0H35.938l-29.632.083c.583-6.666 5.775-12.012 12.37-12.845l.617-.078.31-.539a30.721 30.721 0 0 1 11.954-11.672l1.986-.991c4.047-1.84 8.594-2.871 13.454-2.871 4.863 0 9.41 1.03 13.453 2.87l1.986.992A30.75 30.75 0 0 1 74.39 45.785l.31.539.618.078Z"/></svg>