<svg xmlns="http://www.w3.org/2000/svg" width="94" height="94" fill="none"><g clip-path="url(#a)"><path d="M0 0h94v94H0z"/><path fill="#2592FA" d="M85.46 29H66.54C64.585 29 63 30.552 63 32.466v42.068C63 76.448 64.585 78 66.54 78h18.92c1.955 0 3.54-1.552 3.54-3.466V32.466C89 30.552 87.415 29 85.46 29Z"/><path stroke="#000" stroke-linecap="round" stroke-linejoin="round" stroke-width="2.5" d="M48 13.753h6.097M28 45l46-30"/><path fill="#000" d="M31 47.61 23 48l3.663-7L31 47.61ZM73.344 20 77 13l-8 .391L73.344 20Z"/><path stroke="#000" stroke-linecap="round" stroke-linejoin="round" stroke-width="2.5" d="M79.416 8H22.584A2.582 2.582 0 0 0 20 10.58v39.84A2.582 2.582 0 0 0 22.584 53h56.832A2.582 2.582 0 0 0 82 50.42V10.58A2.582 2.582 0 0 0 79.416 8Z"/><circle cx="9.5" cy="26.5" r="6.5" fill="#00E489"/><circle cx="44" cy="72" r="12.75" stroke="#000" stroke-width="2.5"/><path stroke="#000" stroke-linecap="round" stroke-width="2.5" d="m40.5 69.375 3.5 3.5M50.125 66.75 44 72.875"/></g><defs><clipPath id="a"><path d="M0 0h94v94H0z"/></clipPath></defs></svg>