<svg xmlns="http://www.w3.org/2000/svg" width="240" height="241" fill="none"><path fill="#174EA6" d="M104 112.5v-20h32v20z"/><path fill="#174EA6" d="M56.493 70.252A27.647 27.647 0 0 1 81.45 54.5c16.357 0 29.138 14.122 27.51 30.397L104 134.5H25.875l30.618-64.248ZM130.987 84.37c-1.599-15.993 10.96-29.87 27.033-29.87a27.17 27.17 0 0 1 24.421 15.262L214 134.5h-78l-5.013-50.13Z"/><path fill="#4285F4" d="M97.334 163.08V132.5h45.333v30.58z"/><rect width="24" height="12" x="108" y="141.79" fill="#174EA6" rx="6"/><path fill="#4285F4" d="M176 186.5c-22.091 0-40-17.909-40-40 0-22.092 17.909-40 40-40s40 17.909 40 40c0 22.092-17.909 40-40 40Z"/><circle cx="33.334" cy="33.334" r="33.334" fill="#D2E3FC" transform="matrix(0 -1 -1 0 209.334 179.834)"/><path stroke="#fff" stroke-linecap="round" stroke-width="13.334" d="M197.781 146.501c-1.438-6.936-5.491-13.922-12.986-18.581"/><path fill="#4285F4" d="M64 186.499c-22.091 0-40-17.909-40-40 0-22.092 17.909-40 40-40s40 17.909 40 40c0 22.092-17.909 40-40 40Z"/><circle cx="33.334" cy="33.334" r="33.334" fill="#D2E3FC" transform="matrix(0 -1 -1 0 97.334 179.833)"/><path stroke="#fff" stroke-linecap="round" stroke-width="13.334" d="M85.781 146.5c-1.438-6.936-5.49-13.922-12.986-18.581"/></svg>