<svg xmlns="http://www.w3.org/2000/svg" width="241" height="240" fill="none"><path fill="#164590" d="M104.5 112V92h32v20z"/><path fill="#164590" d="M56.993 69.753A27.647 27.647 0 0 1 81.95 54c16.357 0 29.138 14.123 27.51 30.398L104.5 134H26.375l30.618-64.247ZM131.487 83.871C129.888 67.878 142.447 54 158.52 54a27.169 27.169 0 0 1 24.421 15.263L214.5 134h-78l-5.013-50.129Z"/><path fill="#356AC3" d="M97.834 162.58V132h45.333v30.58z"/><rect width="24" height="12" x="108.5" y="141.291" fill="#164590" rx="6"/><path fill="#356AC3" d="M176.5 186.002c-22.091 0-40-17.909-40-40 0-22.092 17.909-40 40-40s40 17.909 40 40c0 22.092-17.909 40-40 40Z"/><circle cx="33.334" cy="33.334" r="33.334" fill="#132137" transform="matrix(0 -1 -1 0 209.834 179.336)"/><path stroke="#AECBFA" stroke-linecap="round" stroke-width="8" d="M198.281 146.002c-1.438-6.937-5.49-13.922-12.986-18.581"/><path fill="#356AC3" d="M64.5 186c-22.091 0-40-17.909-40-40 0-22.092 17.909-40 40-40s40 17.909 40 40c0 22.092-17.909 40-40 40Z"/><circle cx="33.334" cy="33.334" r="33.334" fill="#132137" transform="matrix(0 -1 -1 0 97.834 179.334)"/><path stroke="#AECBFA" stroke-linecap="round" stroke-width="8" d="M86.282 146c-1.439-6.937-5.492-13.922-12.987-18.581"/></svg>