<svg xmlns="http://www.w3.org/2000/svg" width="241" height="240" fill="none"><rect width="141" height="189" x="26" y="25.738" fill="#132137" stroke="#356AC3" stroke-width="3" rx="14.5"/><rect width="88" height="16" x="40.5" y="40.238" fill="#164590" rx="8"/><rect width="64" height="16" x="40.5" y="88.238" fill="#164590" rx="8"/><rect width="104" height="16" x="40.5" y="64.238" fill="#164590" rx="8"/><rect width="72" height="64" x="112.5" y="136" fill="#A2D004" rx="9"/><path fill="#356AC3" fill-rule="evenodd" d="M195.281 184.885c1.488-.859 1.5-3.003.022-3.879l-39.999-23.72c-1.508-.894-3.414.206-3.393 1.959l.542 46.5c.02 1.719 1.883 2.779 3.371 1.92l9.797-5.656a2.245 2.245 0 0 1 3.069.822l7.227 12.518a2.248 2.248 0 0 0 3.07.822l12.08-6.974a2.248 2.248 0 0 0 .823-3.07l-7.227-12.517a2.248 2.248 0 0 1 .822-3.07l9.796-5.655Z" clip-rule="evenodd"/></svg>