<svg xmlns="http://www.w3.org/2000/svg" width="240" height="241" fill="none"><rect width="141" height="189" x="25.5" y="26.238" fill="#E8F0FE" stroke="#4285F4" stroke-width="3" rx="14.5"/><rect width="88" height="16" x="40" y="40.738" fill="#AECBFA" rx="8"/><rect width="64" height="16" x="40" y="88.738" fill="#AECBFA" rx="8"/><rect width="104" height="16" x="40" y="64.738" fill="#AECBFA" rx="8"/><rect width="72" height="64" x="112" y="136.5" fill="#C6FF00" rx="9"/><path fill="#174EA6" fill-rule="evenodd" d="M194.78 185.385c1.488-.859 1.501-3.003.023-3.879l-39.999-23.72c-1.508-.894-3.414.206-3.393 1.959l.542 46.5c.02 1.719 1.882 2.779 3.37 1.92l9.798-5.656a2.245 2.245 0 0 1 3.069.822l7.227 12.518a2.248 2.248 0 0 0 3.07.822l12.08-6.974a2.248 2.248 0 0 0 .823-3.07l-7.227-12.517a2.247 2.247 0 0 1 .822-3.07l9.795-5.655Z" clip-rule="evenodd"/></svg>