<svg xmlns="http://www.w3.org/2000/svg" width="240" height="241" fill="none"><path fill="#34A853" d="M36 76.33c0-8.743 7.087-15.83 15.83-15.83h137.34c8.743 0 15.83 7.087 15.83 15.83v73.34c0 8.743-7.087 15.83-15.83 15.83H51.83c-8.743 0-15.83-7.087-15.83-15.83V76.33Z"/><path fill="#fff" d="M44 79.053C44 73.225 48.725 68.5 54.553 68.5h131.894c5.828 0 10.553 4.725 10.553 10.553v67.894c0 5.828-4.725 10.553-10.553 10.553H54.553C48.725 157.5 44 152.775 44 146.947V79.053Z"/><path fill="#34A853" d="M16 172.5a7 7 0 0 1 7-7h194a7 7 0 1 1 0 14H23a7 7 0 0 1-7-7Z"/><path fill="#C6FF00" d="M94 165.5h52a6 6 0 0 1-6 6h-40a6 6 0 0 1-6-6Z"/><path stroke="#0D652D" stroke-linecap="round" stroke-linejoin="round" stroke-width="3" d="M45.14 164.543h149"/><circle cx="75.5" cy="103.4" r="6.4" fill="#4285F4"/><path fill="#4285F4" d="M59.5 125.8c0-7.069 5.73-12.8 12.8-12.8h6.4c7.07 0 12.8 5.731 12.8 12.8v3.2h-32v-3.2Z"/><circle cx="115.5" cy="103.4" r="6.4" fill="#4285F4"/><path fill="#4285F4" d="M99.5 125.8c0-7.069 5.731-12.8 12.8-12.8h6.4c7.069 0 12.8 5.731 12.8 12.8v3.2h-32v-3.2Z"/><circle cx="155.5" cy="103.4" r="6.4" fill="#34A853"/><path fill="#34A853" d="M139.5 125.8c0-7.069 5.731-12.8 12.8-12.8h6.4c7.069 0 12.8 5.731 12.8 12.8v3.2h-32v-3.2Z"/><rect width="2.667" height="13.333" x="172.167" y="100.333" fill="#34A853" rx="1.333"/><rect width="2.667" height="13.333" x="166.833" y="108.333" fill="#34A853" rx="1.333" transform="rotate(-90 166.833 108.333)"/></svg>