<svg xmlns="http://www.w3.org/2000/svg" width="241" height="240" fill="none"><path fill="#2A8642" d="M36.5 75.83C36.5 67.087 43.587 60 52.33 60h137.34c8.743 0 15.83 7.087 15.83 15.83v73.34c0 8.743-7.087 15.83-15.83 15.83H52.33c-8.743 0-15.83-7.087-15.83-15.83V75.83Z"/><path fill="#121212" d="M44.5 78.553C44.5 72.725 49.225 68 55.053 68h131.894c5.828 0 10.553 4.725 10.553 10.553v67.894c0 5.828-4.725 10.553-10.553 10.553H55.053c-5.828 0-10.553-4.725-10.553-10.553V78.553Z"/><path fill="#2A8642" d="M16.5 172a7 7 0 0 1 7-7h194a7 7 0 1 1 0 14h-194a7 7 0 0 1-7-7Z"/><path fill="#A2D004" d="M94.5 165h52a6 6 0 0 1-6 6h-40a6 6 0 0 1-6-6Z"/><path stroke="#A8DAB5" stroke-linecap="round" stroke-linejoin="round" stroke-width="3" d="M45.64 164.043h149"/><circle cx="76" cy="102.9" r="6.4" fill="#356AC3"/><path fill="#356AC3" d="M60 125.3c0-7.069 5.73-12.8 12.8-12.8h6.4c7.07 0 12.8 5.731 12.8 12.8v3.2H60v-3.2Z"/><circle cx="116" cy="102.9" r="6.4" fill="#356AC3"/><path fill="#356AC3" d="M100 125.3c0-7.069 5.731-12.8 12.8-12.8h6.4c7.069 0 12.8 5.731 12.8 12.8v3.2h-32v-3.2Z"/><circle cx="156" cy="102.9" r="6.4" fill="#2A8642"/><path fill="#2A8642" d="M140 125.3c0-7.069 5.731-12.8 12.8-12.8h6.4c7.069 0 12.8 5.731 12.8 12.8v3.2h-32v-3.2Z"/><rect width="2.667" height="13.333" x="172.667" y="99.834" fill="#2A8642" rx="1.333"/><rect width="2.667" height="13.333" x="167.333" y="107.834" fill="#2A8642" rx="1.333" transform="rotate(-90 167.333 107.834)"/></svg>