<svg xmlns="http://www.w3.org/2000/svg" width="241" height="240" fill="none"><path fill="url(#a)" d="M49.28 170.282a15.985 15.985 0 0 1 22.75 0c6.282 6.339 6.282 16.616 0 22.955l-6.398 6.456a6.994 6.994 0 0 1-9.953 0l-6.399-6.456c-6.282-6.339-6.282-16.616 0-22.955Z"/><ellipse cx="14.909" cy="19.531" fill="url(#b)" fill-opacity=".8" rx="14.909" ry="19.531" transform="matrix(1 0 0 -1 45.574 199.479)"/><g filter="url(#c)" opacity=".5" style="mix-blend-mode:multiply"><ellipse cx="4.714" cy="15.087" fill="#34A853" rx="4.714" ry="15.087" transform="matrix(0 -1 -1 0 75.393 179.99)"/></g><path fill="url(#d)" d="M191.867 170.578c-6.283-6.284-16.468-6.284-22.75 0-6.283 6.285-6.283 16.474 0 22.758l6.398 6.401a7.037 7.037 0 0 0 9.953 0l6.399-6.401c6.282-6.284 6.282-16.473 0-22.758Z"/><ellipse cx="180.664" cy="180.16" fill="url(#e)" fill-opacity=".8" rx="14.909" ry="19.364" transform="rotate(-180 180.664 180.16)"/><g filter="url(#f)" opacity=".5" style="mix-blend-mode:multiply"><ellipse cx="180.841" cy="175.529" fill="#34A853" rx="4.674" ry="15.087" transform="rotate(-90 180.841 175.529)"/></g><mask id="j" width="55" height="94" x="34" y="81" maskUnits="userSpaceOnUse" style="mask-type:alpha"><path fill="url(#g)" d="M34 106.39c0-18.752 20.134-30.616 36.538-21.53a24.612 24.612 0 0 1 12.6 19.47l5.446 64.839a4.57 4.57 0 0 1-4.553 4.952H38.569A4.57 4.57 0 0 1 34 169.552V106.39Z"/><path fill="url(#h)" fill-opacity=".5" d="M34 106.39c0-18.752 20.134-30.616 36.538-21.53a24.612 24.612 0 0 1 12.6 19.47l5.446 64.839a4.57 4.57 0 0 1-4.553 4.952H38.569A4.57 4.57 0 0 1 34 169.552V106.39Z"/><path fill="url(#i)" d="M34 106.39c0-18.752 20.134-30.616 36.538-21.53a24.612 24.612 0 0 1 12.6 19.47l5.446 64.839a4.57 4.57 0 0 1-4.553 4.952H38.569A4.57 4.57 0 0 1 34 169.552V106.39Z"/></mask><g mask="url(#j)"><path fill="url(#k)" d="M34 106.39c0-18.752 20.134-30.616 36.538-21.53a24.612 24.612 0 0 1 12.6 19.47l5.619 66.893a2.674 2.674 0 0 1-2.665 2.898H36.674A2.674 2.674 0 0 1 34 171.447V106.39Z"/><path fill="#4285F4" d="M34 106.39c0-18.752 20.134-30.616 36.538-21.53a24.612 24.612 0 0 1 12.6 19.47l5.619 66.893a2.674 2.674 0 0 1-2.665 2.898H36.674A2.674 2.674 0 0 1 34 171.447V106.39Z"/><path fill="url(#l)" fill-opacity=".5" d="M34 106.39c0-18.752 20.134-30.616 36.538-21.53a24.612 24.612 0 0 1 12.6 19.47l5.619 66.893a2.674 2.674 0 0 1-2.665 2.898H36.674A2.674 2.674 0 0 1 34 171.447V106.39Z" style="mix-blend-mode:screen"/><g filter="url(#m)" opacity=".5"><ellipse cx="7.479" cy="41.865" fill="#174EA6" rx="7.479" ry="41.865" transform="matrix(-1 0 0 1 42.088 94.375)"/></g><ellipse cx="20.453" cy="24.382" fill="url(#n)" fill-opacity=".9" opacity=".5" rx="20.453" ry="24.382" transform="matrix(.50982 .86028 -.87159 .49024 58.519 59.324)"/><ellipse cx="5.314" cy="6.335" fill="url(#o)" fill-opacity=".9" opacity=".5" rx="5.314" ry="6.335" transform="matrix(.50982 .86028 -.87159 .49024 50.508 81.195)"/><g filter="url(#p)"><ellipse cx="14.678" cy="71.9" fill="#004FD2" rx="14.678" ry="71.9" transform="matrix(-.98943 -.14498 -.0956 .99542 96.588 58.574)"/></g><g filter="url(#q)"><ellipse cx="9.669" cy="47.363" fill="#000" fill-opacity=".8" rx="9.669" ry="47.363" transform="matrix(-.98943 -.14498 -.0956 .99542 90.736 85.963)"/></g></g><mask id="u" width="55" height="94" x="152" y="81" maskUnits="userSpaceOnUse" style="mask-type:alpha"><path fill="url(#r)" d="M206.815 106.39c0-18.752-20.134-30.616-36.538-21.53a24.613 24.613 0 0 0-12.6 19.47l-5.446 64.839a4.57 4.57 0 0 0 4.553 4.952h45.462a4.57 4.57 0 0 0 4.569-4.569V106.39Z"/><path fill="url(#s)" fill-opacity=".5" d="M206.815 106.39c0-18.752-20.134-30.616-36.538-21.53a24.613 24.613 0 0 0-12.6 19.47l-5.446 64.839a4.57 4.57 0 0 0 4.553 4.952h45.462a4.57 4.57 0 0 0 4.569-4.569V106.39Z"/><path fill="url(#t)" d="M206.815 106.39c0-18.752-20.134-30.616-36.538-21.53a24.613 24.613 0 0 0-12.6 19.47l-5.446 64.839a4.57 4.57 0 0 0 4.553 4.952h45.462a4.57 4.57 0 0 0 4.569-4.569V106.39Z"/></mask><g mask="url(#u)"><path fill="url(#v)" d="M206.815 106.39c0-18.752-20.134-30.616-36.538-21.53a24.613 24.613 0 0 0-12.6 19.47l-5.618 66.893a2.674 2.674 0 0 0 2.664 2.898h49.418a2.674 2.674 0 0 0 2.674-2.674V106.39Z"/><path fill="#4285F4" d="M206.815 106.39c0-18.752-20.134-30.616-36.538-21.53a24.613 24.613 0 0 0-12.6 19.47l-5.618 66.893a2.674 2.674 0 0 0 2.664 2.898h49.418a2.674 2.674 0 0 0 2.674-2.674V106.39Z"/><path fill="url(#w)" fill-opacity=".5" d="M206.815 106.39c0-18.752-20.134-30.616-36.538-21.53a24.613 24.613 0 0 0-12.6 19.47l-5.618 66.893a2.674 2.674 0 0 0 2.664 2.898h49.418a2.674 2.674 0 0 0 2.674-2.674V106.39Z" style="mix-blend-mode:screen"/><g filter="url(#x)"><ellipse cx="14.678" cy="71.9" fill="#004FD2" rx="14.678" ry="71.9" transform="matrix(.98943 -.14498 .0956 .99542 145.89 58.613)"/></g><g filter="url(#y)"><ellipse cx="10.205" cy="49.989" fill="#000" fill-opacity=".6" rx="10.205" ry="49.989" transform="matrix(.98943 -.14498 .0956 .99542 147.986 86.12)"/></g><g filter="url(#z)" opacity=".5"><ellipse cx="206.206" cy="136.24" fill="#174EA6" rx="7.479" ry="41.865"/></g><ellipse cx="20.453" cy="24.382" fill="url(#A)" fill-opacity=".9" opacity=".5" rx="20.453" ry="24.382" transform="matrix(-.50982 .86028 .87159 .49024 181.669 59.324)"/><ellipse cx="5.324" cy="6.347" fill="url(#B)" fill-opacity=".9" opacity=".5" rx="5.324" ry="6.347" transform="matrix(-.50982 .86028 .87159 .49024 189.676 81.182)"/></g><path fill="url(#C)" d="M64.315 97.407c0-1.066.649-1.894 1.709-2.009 3.826-.416 16.043-1.156 54.541-1.156s50.715.74 54.542 1.156c1.06.115 1.708.943 1.708 2.01v48.584c0 31.066-25.184 56.25-56.25 56.25s-56.25-25.184-56.25-56.25V97.407Z"/><g filter="url(#D)"><path fill="url(#E)" d="M120.5 100.242c-32.578 0-50.828-2.636-55.685-3.682l56.075-2.318 55.425 2.318c-5.334 1.046-23.237 3.682-55.815 3.682Z"/></g><mask id="F" width="113" height="104" x="64" y="99" maskUnits="userSpaceOnUse" style="mask-type:alpha"><path fill="#D9D9D9" d="M64.315 99.229h112.331v46.641c0 31.019-25.146 56.165-56.166 56.165-31.019 0-56.165-25.146-56.165-56.165V99.228Z"/></mask><g mask="url(#F)"><g filter="url(#G)"><ellipse cx="47.33" cy="18.362" fill="url(#H)" rx="47.33" ry="18.362" transform="matrix(.86557 .50078 -.49644 .86807 65.047 149.168)"/></g><g filter="url(#I)" opacity=".2"><ellipse cx="146.567" cy="123.525" fill="url(#J)" fill-opacity=".9" rx="50.943" ry="26.201" transform="rotate(90 146.567 123.525)"/></g><g filter="url(#K)" opacity=".2"><ellipse cx="89.212" cy="123.525" fill="url(#L)" fill-opacity=".9" rx="50.943" ry="15.773" transform="rotate(90 89.212 123.525)"/></g><g filter="url(#M)" opacity=".7"><path fill="#429945" d="M67.688 118.917c0 18.097-1.366 32.768-3.051 32.768s-3.052-14.671-3.052-32.768 1.367-16.85 3.052-16.85 3.051-1.247 3.051 16.85Z"/></g><g filter="url(#N)" opacity=".7"><path fill="#429945" d="M173.766 118.193c0 18.497 1.366 33.492 3.051 33.492s3.051-14.995 3.051-33.492c0-18.498-1.366-17.223-3.051-17.223s-3.051-1.275-3.051 17.223Z"/></g><g filter="url(#O)"><path fill="url(#P)" d="M67.688 135.464c0 47.037 15.654 57.576 13.968 57.576-1.685 0-20.07-8.179-20.07-57.576 0-31.799 1.366-29.608 3.05-29.608 1.686 0 3.052-2.191 3.052 29.608Z"/></g><g filter="url(#Q)"><path fill="url(#R)" d="M172.462 135.464c0 47.037-15.654 57.576-13.968 57.576 1.685 0 20.071-8.179 20.071-57.576 0-31.799-1.366-29.608-3.052-29.608-1.685 0-3.051-2.191-3.051 29.608Z"/></g></g><g filter="url(#S)"><ellipse cx="120.565" cy="95.742" fill="url(#T)" rx="55.25" ry="2"/></g><mask id="U" width="113" height="66" x="64" y="29" maskUnits="userSpaceOnUse" style="mask-type:alpha"><path fill="#34A853" d="M175.665 87.142a56.214 56.214 0 0 0-4.763-12.633 57.014 57.014 0 0 0-4.106-6.693 56.468 56.468 0 0 0-6.2-7.299 56.686 56.686 0 0 0-9.875-7.84.13.13 0 0 1-.044-.177c1.135-1.96 2.272-3.917 3.407-5.876l3.33-5.74 2.39-4.122a5.167 5.167 0 0 0 .29-4.605 5.126 5.126 0 0 0-2.118-2.431 5.214 5.214 0 0 0-3.174-.7 5.16 5.16 0 0 0-3.942 2.546 4374.26 4374.26 0 0 0-2.39 4.124l-3.33 5.739c-1.135 1.96-2.272 3.917-3.407 5.876l-.095.165a.649.649 0 0 1-.793.277 56.44 56.44 0 0 0-20.143-3.69 56.471 56.471 0 0 0-18.608 3.13c-.435.152-.867.309-1.296.471a.815.815 0 0 1-.995-.35c-1.135-1.96-2.272-3.917-3.407-5.876l-3.33-5.74c-.798-1.373-1.595-2.749-2.39-4.122a5.163 5.163 0 0 0-4.915-2.555 5.14 5.14 0 0 0-2.2.708 5.148 5.148 0 0 0-2.352 3.113 5.175 5.175 0 0 0 .523 3.922 169687.266 169687.266 0 0 0 5.72 9.862c1.135 1.96 2.273 3.917 3.407 5.877a.06.06 0 0 1-.02.079 56.833 56.833 0 0 0-16.23 15.24 56.108 56.108 0 0 0-4.106 6.693 56.293 56.293 0 0 0-5.77 17.764c-.175 1.178.755 2.211 1.945 2.211h108.041c1.19 0 2.12-1.033 1.947-2.211a55.427 55.427 0 0 0-1.001-5.137Z"/></mask><g mask="url(#U)"><path fill="#4FAF53" d="M64.448 28.9h112.593v65.679H64.448z"/><g filter="url(#V)" opacity=".8"><path fill="url(#W)" fill-opacity=".3" d="M124.819 48.609c11.903 8.395-21.597 9.316-34.538 27.663-12.94 18.348-2.567 50.214-14.47 41.819-7.348-10.078-8.467-30.522 4.474-48.87 12.941-18.347 34.439-24.375 44.534-20.612Z"/></g><g filter="url(#X)" opacity=".7"><path fill="url(#Y)" fill-opacity=".4" d="M116.653 48.609c-11.902 8.395 21.597 9.316 34.538 27.663 12.941 18.348 2.568 50.214 14.47 41.819 7.348-10.078 8.467-30.522-4.474-48.87-12.941-18.347-34.439-24.375-44.534-20.612Z"/></g><g filter="url(#Z)" opacity=".6"><path fill="#8BD8A0" d="M62.931 78.63c-4.572 14.383-6.926 26.472-5.258 27.002 1.668.531 6.726-10.699 11.298-25.082 4.572-14.382 23.43-30.064 21.763-30.594-1.668-.53-23.23 14.292-27.803 28.674Z"/></g><g filter="url(#aa)" opacity=".5"><path fill="#8BD8A0" d="M177.806 78.63c4.572 14.383 6.927 26.472 5.259 27.002-1.668.531-6.727-10.699-11.299-25.082-4.572-14.382-23.43-30.064-21.762-30.594 1.668-.53 23.23 14.292 27.802 28.674Z"/></g><g filter="url(#ab)" opacity=".7"><path fill="#0D652D" d="M85.845 40.272c4.527 7.437 6.51 10.98 5.852 11.381-.657.4-3.706-2.495-8.233-9.931-6.84-6.011.395-14.153 1.052-14.553.658-.4-5.4 3.25 1.329 13.103Z"/></g><g filter="url(#ac)" opacity=".1"><ellipse cx="83.442" cy="41.184" fill="#000" rx="1.17" ry="13.462" transform="rotate(-33.176 83.442 41.184)"/></g><g filter="url(#ad)" opacity=".3"><path fill="#fff" d="M91.49 36.487c4.737 7.78 7.047 11.343 7.573 11.023.526-.32-.931-4.404-5.668-12.183-4.566-10.39-12.802-4.194-11.99-3.058 1.584 3.047 4.03-6.688 10.085 4.218Z"/></g><ellipse cx="82.222" cy="31.977" fill="url(#ae)" fill-opacity=".9" opacity=".15" rx="5.565" ry="6.548" transform="rotate(73.858 82.222 31.977)"/><ellipse cx="154.057" cy="31.125" fill="url(#af)" fill-opacity=".9" opacity=".15" rx="5.565" ry="6.548" transform="rotate(73.858 154.057 31.125)"/><g filter="url(#ag)" opacity=".1"><ellipse cx="1.17" cy="13.462" fill="#000" rx="1.17" ry="13.462" transform="matrix(-.84574 -.5336 -.5336 .84574 165.619 30.695)"/></g><mask id="ah" width="20" height="14" x="139" y="40" maskUnits="userSpaceOnUse" style="mask-type:alpha"><path fill="#000" d="M151.141 52.94c-2.665-1.661-8.75-4.514-11.459-5.733l1.79-6.336 17.495 7.04c-1.498 2.368-5.162 6.691-7.826 5.03Z"/></mask><g mask="url(#ah)"><g filter="url(#ai)" opacity=".3" style="mix-blend-mode:multiply"><path fill="#0D652D" d="M152.91 51.984c-4.766-2.015-8.834-3.166-9.086-2.57-.252.595 3.363 2.27 8.129 4.284 4.767 2.015 8.879 3.608 9.131 3.013.251-.596-3.408-2.712-8.174-4.727Z"/></g><g filter="url(#aj)" opacity=".3" style="mix-blend-mode:screen"><path fill="#81C995" d="M143.157 48.18c-1.328-.652-2.507-.97-2.635-.711-.127.26.868.815 2.196 1.467 1.328.653 2.485 1.155 2.613.895.127-.26-.846-.998-2.174-1.65Z"/></g></g><mask id="ak" width="20" height="13" x="81" y="41" maskUnits="userSpaceOnUse" style="mask-type:alpha"><path fill="#000" d="M89.638 53.464c2.63-1.717 8.655-4.695 11.339-5.969l-1.92-6.297-17.347 7.398c1.547 2.337 5.299 6.584 7.928 4.868Z"/></mask><g mask="url(#ak)"><g filter="url(#al)" opacity=".3" style="mix-blend-mode:multiply"><path fill="#0D652D" d="M87.85 52.544c4.724-2.113 8.768-3.348 9.032-2.758.263.59-3.316 2.339-8.04 4.452-4.723 2.112-8.802 3.79-9.066 3.2-.264-.59 3.351-2.782 8.075-4.895Z"/></g><g filter="url(#am)" opacity=".3" style="mix-blend-mode:screen"><path fill="#81C995" d="M97.525 48.542c1.314-.68 2.487-1.023 2.62-.766.132.256-.851.833-2.165 1.512-1.314.68-2.462 1.206-2.594.949-.133-.257.825-1.016 2.139-1.696Z"/></g></g><g filter="url(#an)" opacity=".7"><path fill="#0D652D" d="M155.818 40.59c-4.353 7.54-6.252 11.129-5.586 11.514.667.385 3.647-2.581 8-10.12 6.698-6.17-.724-14.14-1.391-14.525-.667-.385 5.474 3.124-1.023 13.13Z"/></g><g filter="url(#ao)" opacity=".3"><path fill="#fff" d="M149.848 36.906c-4.43 7.673-6.604 11.186-7.164 10.863-.56-.323.707-4.36 5.137-12.034 5.049-13.33 15.057-11.569 13.416-4.283-1.295 2.995-5.78-5.309-11.389 5.454Z"/></g></g><ellipse cx="96.65" cy="70.318" fill="url(#ap)" fill-opacity=".7" rx="3.407" ry="1.871" transform="rotate(41.704 96.65 70.318)"/><ellipse cx="3.406" cy="1.87" fill="url(#aq)" fill-opacity=".7" rx="3.406" ry="1.87" transform="matrix(-.74659 .66529 .66528 .74659 145.92 66.727)"/><g filter="url(#ar)" opacity=".09" style="mix-blend-mode:multiply"><path fill="#011B04" d="M98.642 77.739c1.694-4.199-.088-6.807-1.19-7.586-3.176-3.925-7.454-.882-8.733.794-1.278 1.676-3.13 4.63-1.323 8.688 1.809 4.057 9.13 3.352 11.246-1.897Z"/></g><g filter="url(#as)" opacity=".09" style="mix-blend-mode:multiply"><path fill="#011B04" d="M142.638 77.798c-1.694-4.177.089-6.77 1.191-7.546 3.177-3.904 7.456-.877 8.735.79 1.279 1.667 3.132 4.606 1.324 8.642-1.809 4.036-9.132 3.334-11.25-1.886Z"/></g><path fill="#000" d="M152.246 80.684c2.639-1.757 3.063-5.758.947-8.939-2.117-3.18-5.972-4.335-8.611-2.579-2.639 1.756-3.063 5.758-.946 8.939 2.116 3.18 5.971 4.335 8.61 2.578Z"/><g filter="url(#at)"><path fill="#000" d="M97.64 77.956c2.117-3.18 1.742-7.15-.837-8.865-2.578-1.716-6.384-.528-8.5 2.652-2.117 3.18-1.742 7.15.837 8.866 2.578 1.715 6.384.528 8.5-2.653Z"/></g><g filter="url(#au)"><path fill="#000" d="M143.636 78.023c-2.115-3.18-1.741-7.147.837-8.862 2.577-1.715 6.381-.528 8.497 2.65 2.115 3.18 1.741 7.148-.837 8.863-2.577 1.715-6.381.528-8.497-2.651Z"/></g><mask id="av" width="14" height="14" x="86" y="68" maskUnits="userSpaceOnUse" style="mask-type:alpha"><path fill="#202124" d="M97.636 77.956c2.117-3.18 1.742-7.15-.837-8.865-2.578-1.716-6.384-.528-8.5 2.652-2.117 3.18-1.742 7.15.837 8.866 2.578 1.715 6.384.528 8.5-2.653Z"/></mask><g mask="url(#av)"><g filter="url(#aw)"><path fill="#D8D8D8" fill-opacity=".29" d="M89.06 71.349c-2.025 2.481-2.252 5.374-2.004 6.606-.512-2.402-.326-4.758 1.63-7.115 1.08-1.3 2.723-2.022 3.923-2.37.191-.063.366-.105.528-.136.304-.07.556-.11.732-.125-.206.045-.448.069-.733.124-.162.038-.339.083-.527.137-.838.276-1.977.95-3.55 2.879Z"/></g><g filter="url(#ax)" opacity=".8"><path fill="url(#ay)" d="M98.193 71.96c-.841-3.51-3.702-3.875-5.028-3.618 1.143-.498 3.2.135 4.068 1.13.695.797.93 1.991.96 2.489Z"/></g></g><mask id="az" width="13" height="14" x="142" y="68" maskUnits="userSpaceOnUse" style="mask-type:alpha"><path fill="#202124" d="M143.636 78.02c-2.116-3.179-1.741-7.146.836-8.861 2.578-1.715 6.382-.528 8.497 2.65 2.116 3.18 1.741 7.148-.836 8.863-2.577 1.715-6.382.528-8.497-2.651Z"/></mask><g mask="url(#az)"><path fill="url(#aA)" d="M146.95 68.975c-3.014.188-3.999 2.538-4.115 3.69.305-.713 1.39-2.225 3.292-2.573 1.902-.348 4.422 1.835 5.444 2.97l.949-1.06c-.601-1.087-2.557-3.216-5.57-3.027Z"/><g filter="url(#aB)"><path fill="#D8D8D8" fill-opacity=".29" d="M152.208 71.418c2.023 2.48 2.251 5.372 2.002 6.604.512-2.402.327-4.757-1.629-7.112-1.079-1.3-2.721-2.022-3.921-2.37a4.369 4.369 0 0 0-.527-.136 5.783 5.783 0 0 0-.732-.125c.206.046.447.069.732.125.162.037.339.082.527.136.838.276 1.977.95 3.548 2.878Z"/></g></g><g filter="url(#aC)" opacity=".8"><path fill="#E2DCE1" d="M91.74 70.4c-1.177.236-2.06 1.472-2.355 2.06l.589.884c.098-.196.412-.707.883-1.177.47-.472 1.177-.982 1.472-1.178l-.589-.589Z"/></g><g filter="url(#aD)" opacity=".8"><path fill="#E2DCE1" d="M149.579 70.459c1.165.226 2.038 1.411 2.329 1.976l-.582.846a4.979 4.979 0 0 0-.873-1.129c-.466-.451-1.165-.94-1.456-1.129l.582-.564Z"/></g><g fill="#E2DCE1" filter="url(#aE)" opacity=".8"><path d="M96.568 76.768c-.564.317-1.44.72-1.808.882l-.353 1.014c.882-.282 1.544-.794 1.764-1.014l.397-.882ZM98.332 72.314c-.07-.283-.264-.706-.353-.882v.397c.177.317.31.867.353 1.102.03-.088.07-.335 0-.617Z"/></g><g fill="#E2DCE1" filter="url(#aF)" opacity=".8"><path d="M144.629 76.854c.565.317 1.443.72 1.811.882l.353 1.014c-.883-.282-1.546-.794-1.766-1.014l-.398-.882ZM142.863 72.4c.071-.283.265-.706.353-.882v.397c-.176.317-.309.867-.353 1.102a1.21 1.21 0 0 1 0-.617Z"/></g><g filter="url(#aG)" opacity=".3"><path fill="url(#aH)" fill-opacity=".4" d="M163.194 72.478c0 14.565-20.061-12.279-42.513-12.279-22.452 0-42.514 26.844-42.514 12.28 4-11.815 20.062-24.512 42.514-24.512s39.769 14.093 42.513 24.511Z"/></g><g filter="url(#aI)" opacity=".2"><path fill="url(#aJ)" fill-opacity=".4" d="M163.194 72.478c0 14.565-20.061-12.279-42.513-12.279-22.452 0-42.514 26.844-42.514 12.28 4-11.815 20.062-24.512 42.514-24.512s39.769 14.093 42.513 24.511Z"/></g><defs><filter id="c" width="39.312" height="18.567" x="40.651" y="165.992" color-interpolation-filters="sRGB" filterUnits="userSpaceOnUse"><feFlood flood-opacity="0" result="BackgroundImageFix"/><feBlend in="SourceGraphic" in2="BackgroundImageFix" result="shape"/><feGaussianBlur result="effect1_foregroundBlur_18030_7425" stdDeviation="2.285"/></filter><filter id="f" width="39.312" height="18.486" x="161.185" y="166.286" color-interpolation-filters="sRGB" filterUnits="userSpaceOnUse"><feFlood flood-opacity="0" result="BackgroundImageFix"/><feBlend in="SourceGraphic" in2="BackgroundImageFix" result="shape"/><feGaussianBlur result="effect1_foregroundBlur_18030_7425" stdDeviation="2.285"/></filter><filter id="m" width="33.234" height="102.006" x="17.992" y="85.237" color-interpolation-filters="sRGB" filterUnits="userSpaceOnUse"><feFlood flood-opacity="0" result="BackgroundImageFix"/><feBlend in="SourceGraphic" in2="BackgroundImageFix" result="shape"/><feGaussianBlur result="effect1_foregroundBlur_18030_7425" stdDeviation="4.569"/></filter><filter id="p" width="50.419" height="161.484" x="49.983" y="47.276" color-interpolation-filters="sRGB" filterUnits="userSpaceOnUse"><feFlood flood-opacity="0" result="BackgroundImageFix"/><feBlend in="SourceGraphic" in2="BackgroundImageFix" result="shape"/><feGaussianBlur result="effect1_foregroundBlur_18030_7425" stdDeviation="4.569"/></filter><filter id="q" width="39.45" height="112.612" x="56.917" y="75.402" color-interpolation-filters="sRGB" filterUnits="userSpaceOnUse"><feFlood flood-opacity="0" result="BackgroundImageFix"/><feBlend in="SourceGraphic" in2="BackgroundImageFix" result="shape"/><feGaussianBlur result="effect1_foregroundBlur_18030_7425" stdDeviation="4.569"/></filter><filter id="x" width="50.419" height="161.484" x="142.077" y="47.315" color-interpolation-filters="sRGB" filterUnits="userSpaceOnUse"><feFlood flood-opacity="0" result="BackgroundImageFix"/><feBlend in="SourceGraphic" in2="BackgroundImageFix" result="shape"/><feGaussianBlur result="effect1_foregroundBlur_18030_7425" stdDeviation="4.569"/></filter><filter id="y" width="40.624" height="117.842" x="142.55" y="75.479" color-interpolation-filters="sRGB" filterUnits="userSpaceOnUse"><feFlood flood-opacity="0" result="BackgroundImageFix"/><feBlend in="SourceGraphic" in2="BackgroundImageFix" result="shape"/><feGaussianBlur result="effect1_foregroundBlur_18030_7425" stdDeviation="4.569"/></filter><filter id="z" width="33.234" height="102.006" x="189.589" y="85.237" color-interpolation-filters="sRGB" filterUnits="userSpaceOnUse"><feFlood flood-opacity="0" result="BackgroundImageFix"/><feBlend in="SourceGraphic" in2="BackgroundImageFix" result="shape"/><feGaussianBlur result="effect1_foregroundBlur_18030_7425" stdDeviation="4.569"/></filter><filter id="D" width="112.022" height="6.522" x="64.554" y="93.981" color-interpolation-filters="sRGB" filterUnits="userSpaceOnUse"><feFlood flood-opacity="0" result="BackgroundImageFix"/><feBlend in="SourceGraphic" in2="BackgroundImageFix" result="shape"/><feGaussianBlur result="effect1_foregroundBlur_18030_7425" stdDeviation=".131"/></filter><filter id="G" width="99.632" height="72.807" x="47.084" y="152.406" color-interpolation-filters="sRGB" filterUnits="userSpaceOnUse"><feFlood flood-opacity="0" result="BackgroundImageFix"/><feBlend in="SourceGraphic" in2="BackgroundImageFix" result="shape"/><feGaussianBlur result="effect1_foregroundBlur_18030_7425" stdDeviation="3.919"/></filter><filter id="I" width="68.076" height="117.562" x="112.529" y="64.745" color-interpolation-filters="sRGB" filterUnits="userSpaceOnUse"><feFlood flood-opacity="0" result="BackgroundImageFix"/><feBlend in="SourceGraphic" in2="BackgroundImageFix" result="shape"/><feGaussianBlur result="effect1_foregroundBlur_18030_7425" stdDeviation="3.919"/></filter><filter id="K" width="47.22" height="117.562" x="65.602" y="64.745" color-interpolation-filters="sRGB" filterUnits="userSpaceOnUse"><feFlood flood-opacity="0" result="BackgroundImageFix"/><feBlend in="SourceGraphic" in2="BackgroundImageFix" result="shape"/><feGaussianBlur result="effect1_foregroundBlur_18030_7425" stdDeviation="3.919"/></filter><filter id="M" width="12.066" height="55.599" x="58.604" y="99.067" color-interpolation-filters="sRGB" filterUnits="userSpaceOnUse"><feFlood flood-opacity="0" result="BackgroundImageFix"/><feBlend in="SourceGraphic" in2="BackgroundImageFix" result="shape"/><feGaussianBlur result="effect1_foregroundBlur_18030_7425" stdDeviation="1.491"/></filter><filter id="N" width="12.066" height="56.697" x="170.784" y="97.97" color-interpolation-filters="sRGB" filterUnits="userSpaceOnUse"><feFlood flood-opacity="0" result="BackgroundImageFix"/><feBlend in="SourceGraphic" in2="BackgroundImageFix" result="shape"/><feGaussianBlur result="effect1_foregroundBlur_18030_7425" stdDeviation="1.491"/></filter><filter id="O" width="43.044" height="110.062" x="50.163" y="94.401" color-interpolation-filters="sRGB" filterUnits="userSpaceOnUse"><feFlood flood-opacity="0" result="BackgroundImageFix"/><feBlend in="SourceGraphic" in2="BackgroundImageFix" result="shape"/><feGaussianBlur result="effect1_foregroundBlur_18030_7425" stdDeviation="5.711"/></filter><filter id="Q" width="43.044" height="110.062" x="146.944" y="94.401" color-interpolation-filters="sRGB" filterUnits="userSpaceOnUse"><feFlood flood-opacity="0" result="BackgroundImageFix"/><feBlend in="SourceGraphic" in2="BackgroundImageFix" result="shape"/><feGaussianBlur result="effect1_foregroundBlur_18030_7425" stdDeviation="5.711"/></filter><filter id="S" width="111.545" height="5.045" x="64.793" y="93.481" color-interpolation-filters="sRGB" filterUnits="userSpaceOnUse"><feFlood flood-opacity="0" result="BackgroundImageFix"/><feColorMatrix in="SourceAlpha" result="hardAlpha" values="0 0 0 0 0 0 0 0 0 0 0 0 0 0 0 0 0 0 127 0"/><feOffset dy=".261"/><feGaussianBlur stdDeviation=".261"/><feComposite in2="hardAlpha" operator="out"/><feColorMatrix values="0 0 0 0 0 0 0 0 0 0.0627451 0 0 0 0 0 0 0 0 1 0"/><feBlend in2="BackgroundImageFix" result="effect1_dropShadow_18030_7425"/><feBlend in="SourceGraphic" in2="effect1_dropShadow_18030_7425" result="shape"/></filter><filter id="V" width="63.824" height="78.808" x="66.949" y="44.103" color-interpolation-filters="sRGB" filterUnits="userSpaceOnUse"><feFlood flood-opacity="0" result="BackgroundImageFix"/><feBlend in="SourceGraphic" in2="BackgroundImageFix" result="shape"/><feGaussianBlur result="effect1_foregroundBlur_18030_7425" stdDeviation="1.719"/></filter><filter id="X" width="67.261" height="82.246" x="108.98" y="42.384" color-interpolation-filters="sRGB" filterUnits="userSpaceOnUse"><feFlood flood-opacity="0" result="BackgroundImageFix"/><feBlend in="SourceGraphic" in2="BackgroundImageFix" result="shape"/><feGaussianBlur result="effect1_foregroundBlur_18030_7425" stdDeviation="2.578"/></filter><filter id="Z" width="38.858" height="60.866" x="54.558" y="47.363" color-interpolation-filters="sRGB" filterUnits="userSpaceOnUse"><feFlood flood-opacity="0" result="BackgroundImageFix"/><feBlend in="SourceGraphic" in2="BackgroundImageFix" result="shape"/><feGaussianBlur result="effect1_foregroundBlur_18030_7425" stdDeviation="1.289"/></filter><filter id="aa" width="38.858" height="60.866" x="147.321" y="47.363" color-interpolation-filters="sRGB" filterUnits="userSpaceOnUse"><feFlood flood-opacity="0" result="BackgroundImageFix"/><feBlend in="SourceGraphic" in2="BackgroundImageFix" result="shape"/><feGaussianBlur result="effect1_foregroundBlur_18030_7425" stdDeviation="1.289"/></filter><filter id="ab" width="18.152" height="31.426" x="77.106" y="23.702" color-interpolation-filters="sRGB" filterUnits="userSpaceOnUse"><feFlood flood-opacity="0" result="BackgroundImageFix"/><feBlend in="SourceGraphic" in2="BackgroundImageFix" result="shape"/><feGaussianBlur result="effect1_foregroundBlur_18030_7425" stdDeviation="1.719"/></filter><filter id="ac" width="16.584" height="24.291" x="75.151" y="29.038" color-interpolation-filters="sRGB" filterUnits="userSpaceOnUse"><feFlood flood-opacity="0" result="BackgroundImageFix"/><feBlend in="SourceGraphic" in2="BackgroundImageFix" result="shape"/><feGaussianBlur result="effect1_foregroundBlur_18030_7425" stdDeviation=".43"/></filter><filter id="ad" width="22.972" height="23.285" x="78.771" y="26.823" color-interpolation-filters="sRGB" filterUnits="userSpaceOnUse"><feFlood flood-opacity="0" result="BackgroundImageFix"/><feBlend in="SourceGraphic" in2="BackgroundImageFix" result="shape"/><feGaussianBlur result="effect1_foregroundBlur_18030_7425" stdDeviation="1.289"/></filter><filter id="ag" width="16.223" height="24.524" x="149.334" y="29.194" color-interpolation-filters="sRGB" filterUnits="userSpaceOnUse"><feFlood flood-opacity="0" result="BackgroundImageFix"/><feBlend in="SourceGraphic" in2="BackgroundImageFix" result="shape"/><feGaussianBlur result="effect1_foregroundBlur_18030_7425" stdDeviation=".43"/></filter><filter id="ai" width="20.722" height="11.018" x="142.093" y="47.538" color-interpolation-filters="sRGB" filterUnits="userSpaceOnUse"><feFlood flood-opacity="0" result="BackgroundImageFix"/><feBlend in="SourceGraphic" in2="BackgroundImageFix" result="shape"/><feGaussianBlur result="effect1_foregroundBlur_18030_7425" stdDeviation=".859"/></filter><filter id="aj" width="6.893" height="4.585" x="139.48" y="46.347" color-interpolation-filters="sRGB" filterUnits="userSpaceOnUse"><feFlood flood-opacity="0" result="BackgroundImageFix"/><feBlend in="SourceGraphic" in2="BackgroundImageFix" result="shape"/><feGaussianBlur result="effect1_foregroundBlur_18030_7425" stdDeviation=".516"/></filter><filter id="al" width="20.571" height="11.357" x="78.043" y="47.92" color-interpolation-filters="sRGB" filterUnits="userSpaceOnUse"><feFlood flood-opacity="0" result="BackgroundImageFix"/><feBlend in="SourceGraphic" in2="BackgroundImageFix" result="shape"/><feGaussianBlur result="effect1_foregroundBlur_18030_7425" stdDeviation=".859"/></filter><filter id="am" width="6.846" height="4.675" x="94.342" y="46.659" color-interpolation-filters="sRGB" filterUnits="userSpaceOnUse"><feFlood flood-opacity="0" result="BackgroundImageFix"/><feBlend in="SourceGraphic" in2="BackgroundImageFix" result="shape"/><feGaussianBlur result="effect1_foregroundBlur_18030_7425" stdDeviation=".516"/></filter><filter id="an" width="17.786" height="31.582" x="146.664" y="23.993" color-interpolation-filters="sRGB" filterUnits="userSpaceOnUse"><feFlood flood-opacity="0" result="BackgroundImageFix"/><feBlend in="SourceGraphic" in2="BackgroundImageFix" result="shape"/><feGaussianBlur result="effect1_foregroundBlur_18030_7425" stdDeviation="1.719"/></filter><filter id="ao" width="24.014" height="27.113" x="139.981" y="23.255" color-interpolation-filters="sRGB" filterUnits="userSpaceOnUse"><feFlood flood-opacity="0" result="BackgroundImageFix"/><feBlend in="SourceGraphic" in2="BackgroundImageFix" result="shape"/><feGaussianBlur result="effect1_foregroundBlur_18030_7425" stdDeviation="1.289"/></filter><filter id="ar" width="13.729" height="15.041" x="86.127" y="67.719" color-interpolation-filters="sRGB" filterUnits="userSpaceOnUse"><feFlood flood-opacity="0" result="BackgroundImageFix"/><feBlend in="SourceGraphic" in2="BackgroundImageFix" result="shape"/><feGaussianBlur result="effect1_foregroundBlur_18030_7425" stdDeviation=".258"/></filter><filter id="as" width="13.733" height="14.967" x="141.424" y="67.828" color-interpolation-filters="sRGB" filterUnits="userSpaceOnUse"><feFlood flood-opacity="0" result="BackgroundImageFix"/><feBlend in="SourceGraphic" in2="BackgroundImageFix" result="shape"/><feGaussianBlur result="effect1_foregroundBlur_18030_7425" stdDeviation=".258"/></filter><filter id="at" width="12.424" height="13.434" x="86.674" y="68.305" color-interpolation-filters="sRGB" filterUnits="userSpaceOnUse"><feFlood flood-opacity="0" result="BackgroundImageFix"/><feColorMatrix in="SourceAlpha" result="hardAlpha" values="0 0 0 0 0 0 0 0 0 0 0 0 0 0 0 0 0 0 127 0"/><feOffset dx="-.086" dy=".172"/><feGaussianBlur stdDeviation=".086"/><feComposite in2="hardAlpha" operator="out"/><feColorMatrix values="0 0 0 0 0.0156863 0 0 0 0 0.231373 0 0 0 0 0.0666667 0 0 0 0.7 0"/><feBlend in2="BackgroundImageFix" result="effect1_dropShadow_18030_7425"/><feBlend in="SourceGraphic" in2="effect1_dropShadow_18030_7425" result="shape"/></filter><filter id="au" width="12.419" height="13.428" x="142.008" y="68.375" color-interpolation-filters="sRGB" filterUnits="userSpaceOnUse"><feFlood flood-opacity="0" result="BackgroundImageFix"/><feColorMatrix in="SourceAlpha" result="hardAlpha" values="0 0 0 0 0 0 0 0 0 0 0 0 0 0 0 0 0 0 127 0"/><feOffset dx="-.086" dy=".172"/><feGaussianBlur stdDeviation=".086"/><feComposite in2="hardAlpha" operator="out"/><feColorMatrix values="0 0 0 0 0.0156863 0 0 0 0 0.231373 0 0 0 0 0.0666667 0 0 0 0.7 0"/><feBlend in2="BackgroundImageFix" result="effect1_dropShadow_18030_7425"/><feBlend in="SourceGraphic" in2="effect1_dropShadow_18030_7425" result="shape"/></filter><filter id="aw" width="7.4" height="10.09" x="86.641" y="68.037" color-interpolation-filters="sRGB" filterUnits="userSpaceOnUse"><feFlood flood-opacity="0" result="BackgroundImageFix"/><feBlend in="SourceGraphic" in2="BackgroundImageFix" result="shape"/><feGaussianBlur result="effect1_foregroundBlur_18030_7425" stdDeviation=".086"/></filter><filter id="ax" width="5.114" height="3.879" x="93.122" y="68.125" color-interpolation-filters="sRGB" filterUnits="userSpaceOnUse"><feFlood flood-opacity="0" result="BackgroundImageFix"/><feBlend in="SourceGraphic" in2="BackgroundImageFix" result="shape"/><feGaussianBlur result="effect1_foregroundBlur_18030_7425" stdDeviation=".021"/></filter><filter id="aB" width="7.397" height="10.086" x="147.229" y="68.107" color-interpolation-filters="sRGB" filterUnits="userSpaceOnUse"><feFlood flood-opacity="0" result="BackgroundImageFix"/><feBlend in="SourceGraphic" in2="BackgroundImageFix" result="shape"/><feGaussianBlur result="effect1_foregroundBlur_18030_7425" stdDeviation=".086"/></filter><filter id="aC" width="3.287" height="3.287" x="89.213" y="70.228" color-interpolation-filters="sRGB" filterUnits="userSpaceOnUse"><feFlood flood-opacity="0" result="BackgroundImageFix"/><feBlend in="SourceGraphic" in2="BackgroundImageFix" result="shape"/><feGaussianBlur result="effect1_foregroundBlur_18030_7425" stdDeviation=".086"/></filter><filter id="aD" width="3.254" height="3.166" x="148.825" y="70.287" color-interpolation-filters="sRGB" filterUnits="userSpaceOnUse"><feFlood flood-opacity="0" result="BackgroundImageFix"/><feBlend in="SourceGraphic" in2="BackgroundImageFix" result="shape"/><feGaussianBlur result="effect1_foregroundBlur_18030_7425" stdDeviation=".086"/></filter><filter id="aE" width="4.136" height="7.404" x="94.321" y="71.346" color-interpolation-filters="sRGB" filterUnits="userSpaceOnUse"><feFlood flood-opacity="0" result="BackgroundImageFix"/><feBlend in="SourceGraphic" in2="BackgroundImageFix" result="shape"/><feGaussianBlur result="effect1_foregroundBlur_18030_7425" stdDeviation=".043"/></filter><filter id="aF" width="4.141" height="7.404" x="142.738" y="71.432" color-interpolation-filters="sRGB" filterUnits="userSpaceOnUse"><feFlood flood-opacity="0" result="BackgroundImageFix"/><feBlend in="SourceGraphic" in2="BackgroundImageFix" result="shape"/><feGaussianBlur result="effect1_foregroundBlur_18030_7425" stdDeviation=".043"/></filter><filter id="aG" width="91.903" height="35.718" x="74.729" y="44.529" color-interpolation-filters="sRGB" filterUnits="userSpaceOnUse"><feFlood flood-opacity="0" result="BackgroundImageFix"/><feBlend in="SourceGraphic" in2="BackgroundImageFix" result="shape"/><feGaussianBlur result="effect1_foregroundBlur_18030_7425" stdDeviation="1.719"/></filter><filter id="aI" width="91.903" height="35.718" x="74.729" y="44.529" color-interpolation-filters="sRGB" filterUnits="userSpaceOnUse"><feFlood flood-opacity="0" result="BackgroundImageFix"/><feBlend in="SourceGraphic" in2="BackgroundImageFix" result="shape"/><feGaussianBlur result="effect1_foregroundBlur_18030_7425" stdDeviation="1.719"/></filter><linearGradient id="a" x1="60.655" x2="60.655" y1="166.328" y2="204.715" gradientUnits="userSpaceOnUse"><stop stop-color="#34A853"/><stop offset=".589" stop-color="#C6FF00"/></linearGradient><linearGradient id="d" x1="180.492" x2="180.492" y1="166.658" y2="204.715" gradientUnits="userSpaceOnUse"><stop stop-color="#34A853"/><stop offset=".589" stop-color="#C6FF00"/></linearGradient><linearGradient id="g" x1="61.5" x2="83.316" y1="152.615" y2="152.615" gradientUnits="userSpaceOnUse"><stop stop-color="#4285F4"/><stop offset="1" stop-color="#1755BC"/></linearGradient><linearGradient id="h" x1="61.5" x2="61.5" y1="91.231" y2="174.121" gradientUnits="userSpaceOnUse"><stop offset=".063" stop-color="#97BEFF"/><stop offset=".829"/></linearGradient><linearGradient id="k" x1="61.5" x2="83.316" y1="152.615" y2="152.615" gradientUnits="userSpaceOnUse"><stop stop-color="#4285F4"/><stop offset="1" stop-color="#1755BC"/></linearGradient><linearGradient id="l" x1="61.5" x2="61.5" y1="91.231" y2="174.121" gradientUnits="userSpaceOnUse"><stop offset=".063" stop-color="#97BEFF"/><stop offset=".829"/></linearGradient><linearGradient id="r" x1="179.315" x2="157.499" y1="152.615" y2="152.615" gradientUnits="userSpaceOnUse"><stop stop-color="#4285F4"/><stop offset="1" stop-color="#1755BC"/></linearGradient><linearGradient id="s" x1="179.315" x2="179.315" y1="91.231" y2="174.121" gradientUnits="userSpaceOnUse"><stop offset=".063" stop-color="#97BEFF"/><stop offset=".829"/></linearGradient><linearGradient id="v" x1="179.315" x2="157.499" y1="152.615" y2="152.615" gradientUnits="userSpaceOnUse"><stop stop-color="#4285F4"/><stop offset="1" stop-color="#1755BC"/></linearGradient><linearGradient id="w" x1="179.315" x2="179.315" y1="91.231" y2="174.121" gradientUnits="userSpaceOnUse"><stop offset=".063" stop-color="#97BEFF"/><stop offset=".829"/></linearGradient><linearGradient id="C" x1="64.315" x2="176.815" y1="139.09" y2="138.699" gradientUnits="userSpaceOnUse"><stop stop-color="#53B258"/><stop offset=".162" stop-color="#40AA57"/><stop offset=".356" stop-color="#4FAF53"/><stop offset=".646" stop-color="#4FAF53"/><stop offset=".949" stop-color="#6DCA73"/><stop offset="1" stop-color="#55B35A"/></linearGradient><linearGradient id="E" x1="68.068" x2="176.316" y1="98.469" y2="99.09" gradientUnits="userSpaceOnUse"><stop stop-color="#71D789"/><stop offset=".216" stop-color="#50AF54"/><stop offset=".794" stop-color="#71D789"/><stop offset=".901" stop-color="#50AF54"/><stop offset="1" stop-color="#71D789"/></linearGradient><linearGradient id="H" x1="44.208" x2="43.42" y1="31.029" y2="8.338" gradientUnits="userSpaceOnUse"><stop stop-color="#155C24"/><stop offset="1" stop-color="#155C24" stop-opacity="0"/></linearGradient><linearGradient id="P" x1="71.684" x2="71.684" y1="105.824" y2="193.04" gradientUnits="userSpaceOnUse"><stop stop-opacity="0"/><stop offset=".802"/></linearGradient><linearGradient id="R" x1="168.466" x2="168.466" y1="105.824" y2="193.04" gradientUnits="userSpaceOnUse"><stop stop-opacity="0"/><stop offset=".802"/></linearGradient><linearGradient id="T" x1="65.315" x2="175.815" y1="95.742" y2="95.742" gradientUnits="userSpaceOnUse"><stop stop-color="#002D02"/><stop offset=".521" stop-color="#001201"/><stop offset="1" stop-color="#002D02"/></linearGradient><linearGradient id="W" x1="79.647" x2="96.274" y1="68.772" y2="80.499" gradientUnits="userSpaceOnUse"><stop stop-color="#A8F0B9"/><stop offset="1" stop-color="#ADEEBC" stop-opacity="0"/></linearGradient><linearGradient id="Y" x1="161.825" x2="145.198" y1="68.772" y2="80.499" gradientUnits="userSpaceOnUse"><stop stop-color="#A8F0B9"/><stop offset="1" stop-color="#ADEEBC" stop-opacity="0"/></linearGradient><linearGradient id="ay" x1="93.521" x2="93.745" y1="66.939" y2="71.916" gradientUnits="userSpaceOnUse"><stop stop-color="#E2DDE2"/><stop offset="1" stop-color="#E2DDE2" stop-opacity="0"/></linearGradient><linearGradient id="aA" x1="147.678" x2="147.678" y1="68.963" y2="73.061" gradientUnits="userSpaceOnUse"><stop stop-color="#373637"/><stop offset="1" stop-color="#373637" stop-opacity="0"/></linearGradient><linearGradient id="aH" x1="120.681" x2="120.681" y1="47.186" y2="67.533" gradientUnits="userSpaceOnUse"><stop stop-color="#A8F0B9"/><stop offset="1" stop-color="#ADEEBC" stop-opacity="0"/></linearGradient><linearGradient id="aJ" x1="120.681" x2="120.681" y1="47.186" y2="67.533" gradientUnits="userSpaceOnUse"><stop stop-color="#A8F0B9"/><stop offset="1" stop-color="#ADEEBC" stop-opacity="0"/></linearGradient><radialGradient id="b" cx="0" cy="0" r="1" gradientTransform="matrix(.0997 12.2771 -7.99102 .0649 14.909 19.531)" gradientUnits="userSpaceOnUse"><stop offset=".323" stop-color="#DCFF62"/><stop offset="1" stop-color="#DCFF62" stop-opacity="0"/></radialGradient><radialGradient id="e" cx="0" cy="0" r="1" gradientTransform="matrix(.0997 12.1718 -7.99101 .06545 180.664 180.16)" gradientUnits="userSpaceOnUse"><stop offset=".323" stop-color="#DCFF62"/><stop offset="1" stop-color="#DCFF62" stop-opacity="0"/></radialGradient><radialGradient id="i" cx="0" cy="0" r="1" gradientTransform="matrix(24.69603 71.15358 -68.85065 23.89673 46.556 102.968)" gradientUnits="userSpaceOnUse"><stop offset=".231" stop-color="#fff"/><stop offset=".807" stop-color="#7DA0DA" stop-opacity=".608"/><stop offset="1" stop-color="#1755BC" stop-opacity=".3"/></radialGradient><radialGradient id="n" cx="0" cy="0" r="1" gradientTransform="matrix(.13678 15.32649 -10.96236 .09783 20.453 24.382)" gradientUnits="userSpaceOnUse"><stop stop-color="#fff"/><stop offset=".948" stop-color="#fff" stop-opacity="0"/></radialGradient><radialGradient id="o" cx="0" cy="0" r="1" gradientTransform="rotate(89.489 -.539 5.848)scale(3.98224 2.84833)" gradientUnits="userSpaceOnUse"><stop stop-color="#fff"/><stop offset=".948" stop-color="#fff" stop-opacity="0"/></radialGradient><radialGradient id="t" cx="0" cy="0" r="1" gradientTransform="matrix(-24.69616 71.15354 -68.8506 -23.89685 194.259 102.968)" gradientUnits="userSpaceOnUse"><stop offset=".231" stop-color="#fff"/><stop offset=".807" stop-color="#7DA0DA" stop-opacity=".608"/><stop offset="1" stop-color="#1755BC" stop-opacity=".3"/></radialGradient><radialGradient id="A" cx="0" cy="0" r="1" gradientTransform="matrix(.13678 15.32649 -10.96236 .09783 20.453 24.382)" gradientUnits="userSpaceOnUse"><stop stop-color="#fff"/><stop offset=".948" stop-color="#fff" stop-opacity="0"/></radialGradient><radialGradient id="B" cx="0" cy="0" r="1" gradientTransform="matrix(.0356 3.9899 -2.8538 .02547 5.324 6.347)" gradientUnits="userSpaceOnUse"><stop stop-color="#fff"/><stop offset=".948" stop-color="#fff" stop-opacity="0"/></radialGradient><radialGradient id="J" cx="0" cy="0" r="1" gradientTransform="matrix(-.4845 -25.0036 62.78451 -1.2166 144.721 125.901)" gradientUnits="userSpaceOnUse"><stop stop-color="#AFFFBE"/><stop offset="1" stop-color="#BCFFCA" stop-opacity="0"/></radialGradient><radialGradient id="L" cx="0" cy="0" r="1" gradientTransform="rotate(-91.844 104.182 20.178)scale(15.0597 62.7756)" gradientUnits="userSpaceOnUse"><stop stop-color="#AFFFBE"/><stop offset="1" stop-color="#BCFFCA" stop-opacity="0"/></radialGradient><radialGradient id="ae" cx="0" cy="0" r="1" gradientTransform="rotate(89.482 24.977 57.473)scale(4.11614 2.98278)" gradientUnits="userSpaceOnUse"><stop stop-color="#fff"/><stop offset=".948" stop-color="#fff" stop-opacity="0"/></radialGradient><radialGradient id="af" cx="0" cy="0" r="1" gradientTransform="rotate(89.482 61.325 93.29)scale(4.11614 2.98278)" gradientUnits="userSpaceOnUse"><stop stop-color="#fff"/><stop offset=".948" stop-color="#fff" stop-opacity="0"/></radialGradient><radialGradient id="ap" cx="0" cy="0" r="1" gradientTransform="rotate(91.532 14.094 82.209)scale(1.60588 2.92482)" gradientUnits="userSpaceOnUse"><stop stop-color="#93E19F"/><stop offset="1" stop-color="#93E19F" stop-opacity="0"/></radialGradient><radialGradient id="aq" cx="0" cy="0" r="1" gradientTransform="rotate(91.532 .792 2.593)scale(1.60522 2.92362)" gradientUnits="userSpaceOnUse"><stop stop-color="#93E19F"/><stop offset="1" stop-color="#93E19F" stop-opacity="0"/></radialGradient></defs></svg>