<svg xmlns="http://www.w3.org/2000/svg" width="241" height="240" fill="none"><path fill="#2A8642" d="M36.5 75.83C36.5 67.087 43.587 60 52.33 60h137.34c8.743 0 15.83 7.087 15.83 15.83v73.34c0 8.743-7.087 15.83-15.83 15.83H52.33c-8.743 0-15.83-7.087-15.83-15.83V75.83Z"/><path fill="#121212" d="M44.5 78.553C44.5 72.725 49.225 68 55.053 68h131.894c5.828 0 10.553 4.725 10.553 10.553v67.894c0 5.828-4.725 10.553-10.553 10.553H55.053c-5.828 0-10.553-4.725-10.553-10.553V78.553Z"/><path fill="#2A8642" d="M16.5 172a7 7 0 0 1 7-7h194a7 7 0 1 1 0 14h-194a7 7 0 0 1-7-7Z"/><path fill="#A2D004" d="M94.5 165h52a6 6 0 0 1-6 6h-40a6 6 0 0 1-6-6Z"/><path stroke="#A8DAB5" stroke-linecap="round" stroke-linejoin="round" stroke-width="3" d="M45.64 164.043h149"/></svg>