<svg xmlns="http://www.w3.org/2000/svg" width="240" height="240" fill="none"><path fill="#34A853" d="M36 75.83C36 67.087 43.087 60 51.83 60h137.34c8.743 0 15.83 7.087 15.83 15.83v73.34c0 8.743-7.087 15.83-15.83 15.83H51.83C43.087 165 36 157.913 36 149.17V75.83Z"/><path fill="#fff" d="M44 78.553C44 72.725 48.725 68 54.553 68h131.894C192.275 68 197 72.725 197 78.553v67.894c0 5.828-4.725 10.553-10.553 10.553H54.553C48.725 157 44 152.275 44 146.447V78.553Z"/><path fill="#34A853" d="M16 172a7 7 0 0 1 7-7h194a7 7 0 1 1 0 14H23a7 7 0 0 1-7-7Z"/><path fill="#C6FF00" d="M94 165h52a6 6 0 0 1-6 6h-40a6 6 0 0 1-6-6Z"/><path stroke="#0D652D" stroke-linecap="round" stroke-linejoin="round" stroke-width="3" d="M45.14 164.043h149"/></svg>