<svg width="41" height="41" viewBox="0 0 41 41" fill="none" xmlns="http://www.w3.org/2000/svg">
<path d="M3.66699 27.5885C3.66699 26.6681 4.41318 25.9219 5.33366 25.9219H14.7781V35.3663C14.7781 36.2868 14.0319 37.033 13.1114 37.033H5.33366C4.41318 37.033 3.66699 36.2868 3.66699 35.3663V27.5885Z" fill="#766a9d"/>
<path d="M14.7769 16.4948C14.7769 15.5743 15.523 14.8281 16.4435 14.8281H25.888V24.2726C25.888 25.193 25.1418 25.9392 24.2213 25.9392H14.7769V16.4948Z" fill="#EE8677"/>
<path d="M25.8892 5.37565C25.8892 4.45518 26.6354 3.70898 27.5558 3.70898H35.3336C36.2541 3.70898 37.0003 4.45518 37.0003 5.37565V13.1534C37.0003 14.0739 36.2541 14.8201 35.3336 14.8201H25.8892V5.37565Z" fill="#DADCE0"/>
</svg>
