<svg xmlns="http://www.w3.org/2000/svg" width="400" height="400" fill="none"><g clip-path="url(#a)"><g clip-path="url(#b)"><path fill="#6E774B" d="M0 0h400v400H0z"/><rect width="340.484" height="387.543" x="30.45" y="-27.682" fill="#4F4E42" rx="38.754"/><rect width="340.484" height="303.114" x="30.45" y="56.747" fill="#DEDCCD" rx="38.754"/><rect width="60.9" height="8.305" x="170.242" y="65.052" fill="#666" opacity=".5" rx="4.152"/><path fill="#A16938" d="M150.265 207.058c-20.423-20.423-20.423-53.535 0-73.959l26.894-26.894c20.423-20.423 53.536-20.423 73.959 0 20.423 20.424 20.423 53.536 0 73.959l-26.894 26.894c-20.423 20.424-53.536 20.424-73.959 0"/><rect width="254.671" height="35.986" x="73.356" y="239.908" fill="#676661" opacity=".2" rx="17.993"/><rect width="92" height="38.754" x="103.848" y="293.426" fill="#757A5A" rx="19.377"/><rect width="92" height="38.754" x="205.536" y="293.426" fill="#708C48" rx="19.377"/></g></g><defs><clipPath id="a"><path fill="#fff" d="M0 0h400v400H0z"/></clipPath><clipPath id="b"><path fill="#fff" d="M0 0h400v400H0z"/></clipPath></defs></svg>