<svg xmlns="http://www.w3.org/2000/svg" width="854" height="480" fill="none"><mask id="a" fill="#fff"><path fill-rule="evenodd" d="M554.543 110.035V110c0-16.568 13.432-30 30-30 16.569 0 30 13.432 30 30l-.002.41c11.345 2.018 19.959 11.931 19.959 23.856 0 13.382-10.849 24.231-24.231 24.231h-71.538c-13.382 0-24.231-10.849-24.231-24.231 0-13.382 10.849-24.231 24.231-24.231h15.812Z" clip-rule="evenodd"/></mask><path fill="#121212" fill-rule="evenodd" d="M554.543 110.035V110c0-16.568 13.432-30 30-30 16.569 0 30 13.432 30 30l-.002.41c11.345 2.018 19.959 11.931 19.959 23.856 0 13.382-10.849 24.231-24.231 24.231h-71.538c-13.382 0-24.231-10.849-24.231-24.231 0-13.382 10.849-24.231 24.231-24.231h15.812Z" clip-rule="evenodd"/><path fill="#356AC3" d="m554.543 110.035 4-.005.006 4.005h-4.006v-4Zm59.998.375-.701 3.939-3.345-.595.046-3.397 4 .053Zm-55.998-.41v.03l-8 .01V110h8Zm26-26c-14.359 0-26 11.64-26 26h-8c0-18.778 15.223-34 34-34v8Zm26 26c0-14.36-11.64-26-26-26v-8c18.778 0 34 15.222 34 34h-8Zm-.002.357c.002-.119.002-.238.002-.357h8c0 .155-.001.31-.003.464l-7.999-.107Zm19.959 23.909c0-9.952-7.19-18.233-16.66-19.917l1.401-7.877c13.221 2.352 23.259 13.896 23.259 27.794h-8Zm-20.231 20.231c11.173 0 20.231-9.058 20.231-20.231h8c0 15.592-12.639 28.231-28.231 28.231v-8Zm-71.538 0h71.538v8h-71.538v-8ZM518.5 134.266c0 11.173 9.058 20.231 20.231 20.231v8c-15.592 0-28.231-12.639-28.231-28.231h8Zm20.231-20.231c-11.173 0-20.231 9.058-20.231 20.231h-8c0-15.591 12.639-28.231 28.231-28.231v8Zm15.812 0h-15.812v-8h15.812v8Z" mask="url(#a)"/><mask id="b" fill="#fff"><path fill-rule="evenodd" d="M235.761 135.23v-.058c0-27.614-22.386-50-50-50s-50 22.386-50 50c0 .228.002.456.005.684-18.909 3.363-33.266 19.884-33.266 39.759 0 22.304 18.081 40.385 40.385 40.385h119.23c22.304 0 40.385-18.081 40.385-40.385s-18.081-40.385-40.385-40.385h-26.354Z" clip-rule="evenodd"/></mask><path fill="#121212" fill-rule="evenodd" d="M235.761 135.23v-.058c0-27.614-22.386-50-50-50s-50 22.386-50 50c0 .228.002.456.005.684-18.909 3.363-33.266 19.884-33.266 39.759 0 22.304 18.081 40.385 40.385 40.385h119.23c22.304 0 40.385-18.081 40.385-40.385s-18.081-40.385-40.385-40.385h-26.354Z" clip-rule="evenodd"/><path fill="#356AC3" d="M235.761 135.23h-4v4h4v-4Zm-99.995.626.7 3.938 3.345-.595-.046-3.397-3.999.054Zm95.995-.684V135.23h8V135.172h-8Zm-46-46c25.405 0 46 20.595 46 46h8c0-29.823-24.176-54-54-54v8Zm-46 46c0-25.405 20.595-46 46-46v-8c-29.823 0-54 24.177-54 54h8Zm.004.63a65.737 65.737 0 0 1-.004-.63h-8c0 .246.002.492.005.738l7.999-.108ZM106.5 175.615c0-17.902 12.933-32.791 29.966-35.821l-1.401-7.876c-20.784 3.696-36.565 21.85-36.565 43.697h8ZM142.885 212c-20.095 0-36.385-16.29-36.385-36.385h-8c0 24.513 19.872 44.385 44.385 44.385v-8Zm119.23 0h-119.23v8h119.23v-8Zm36.385-36.385c0 20.095-16.29 36.385-36.385 36.385v8c24.513 0 44.385-19.872 44.385-44.385h-8Zm-36.385-36.385c20.095 0 36.385 16.291 36.385 36.385h8c0-24.513-19.872-44.385-44.385-44.385v8Zm-26.354 0h26.354v-8h-26.354v8Z" mask="url(#b)"/><path fill="#121212" d="M536.102 256c-22.497 0-40.735 18.238-40.735 40.736 0 3.172.362 6.26 1.048 9.223h-28.441c-22.629 0-40.974 18.345-40.974 40.975 0 22.629 18.345 40.974 40.974 40.974h158.043c22.629 0 40.974-18.345 40.974-40.974 0-22.63-18.344-40.975-40.974-40.975h-7.552a40.854 40.854 0 0 0 1.049-9.223c0-22.498-18.238-40.736-40.736-40.736h-42.676Z"/><path stroke="#356AC3" stroke-linecap="round" stroke-width="4" d="M435.049 370.74c5.723 10.492 20.03 17.17 40.061 17.17h150.916c22.629 0 40.974-18.345 40.974-40.975 0-22.629-18.345-40.974-40.974-40.974h-7.552a40.86 40.86 0 0 0 1.049-9.223c0-16.101-9.341-30.02-22.898-36.634-5.334-2.602-11.392-3.002-17.327-3.002h-24.065"/><path fill="#A2D004" d="M344.813 302.42c6.913-6.913 18.121-6.913 25.034 0s6.913 18.121 0 25.035l-7.041 7.041a7.745 7.745 0 0 1-10.952 0l-7.041-7.041c-6.913-6.914-6.913-18.122 0-25.035ZM508.377 302.42c-6.913-6.913-18.121-6.913-25.034 0s-6.913 18.121 0 25.035l7.041 7.041a7.746 7.746 0 0 0 10.953 0l7.04-7.041c6.913-6.914 6.913-18.122 0-25.035Z"/><mask id="c" width="63" height="108" x="327" y="202" maskUnits="userSpaceOnUse" style="mask-type:alpha"><path fill="#4285F4" d="M327.003 230.736c0-21.577 23.225-35.178 42.044-24.62a28.23 28.23 0 0 1 14.321 22.287l6.203 74.802a6.089 6.089 0 0 1-6.068 6.592h-50.411a6.089 6.089 0 0 1-6.089-6.089v-72.972Z"/></mask><g mask="url(#c)"><path fill="#356AC3" d="M327.003 230.736c0-21.577 23.225-35.178 42.044-24.62a28.23 28.23 0 0 1 14.321 22.287l6.203 74.802a6.089 6.089 0 0 1-6.068 6.592h-50.411a6.089 6.089 0 0 1-6.089-6.089v-72.972Z"/></g><mask id="d" width="64" height="108" x="464" y="202" maskUnits="userSpaceOnUse" style="mask-type:alpha"><path fill="#4285F4" d="M527.001 230.736c0-21.577-23.226-35.178-42.044-24.62a28.23 28.23 0 0 0-14.321 22.287l-6.203 74.802a6.088 6.088 0 0 0 6.068 6.592h50.411a6.089 6.089 0 0 0 6.089-6.089v-72.972Z"/></mask><g mask="url(#d)"><path fill="#356AC3" d="M527.001 230.736c0-21.577-23.226-35.178-42.044-24.62a28.23 28.23 0 0 0-14.321 22.287l-6.203 74.802a6.088 6.088 0 0 0 6.068 6.592h50.411a6.089 6.089 0 0 0 6.089-6.089v-72.972Z"/></g><path fill="#121212" d="M362.576 228.466s25.091 16.925 64.532 16.925c39.441 0 64.532-16.925 64.532-16.925v-13.634l-17.347-18.169-47.185 17.441-47.185-17.441-17.347 18.169v13.634Z"/><path fill="#2A8642" d="M491.323 212.461a63.759 63.759 0 0 0-1.113-5.595 64.672 64.672 0 0 0-5.476-14.522 65.036 65.036 0 0 0-15.24-19.225 65.201 65.201 0 0 0-8.081-5.948c.025-.041.047-.086.072-.126 1.305-2.253 2.612-4.503 3.917-6.756l3.828-6.597c.917-1.579 1.834-3.16 2.747-4.739a5.946 5.946 0 0 0 .334-5.293 5.881 5.881 0 0 0-2.435-2.794 5.985 5.985 0 0 0-3.649-.804 5.944 5.944 0 0 0-4.53 2.927c-.917 1.579-1.834 3.16-2.748 4.739l-3.828 6.597c-1.304 2.253-2.612 4.503-3.916 6.755-.142.246-.287.492-.429.741-.198-.079-.394-.158-.592-.233a64.867 64.867 0 0 0-23.823-4.238 64.902 64.902 0 0 0-20.722 3.595c-.753.261-1.496.539-2.234.828-.132-.23-.267-.46-.4-.69-1.304-2.252-2.612-4.502-3.916-6.755l-3.828-6.597c-.917-1.579-1.834-3.16-2.748-4.739a5.935 5.935 0 0 0-5.649-2.936 5.903 5.903 0 0 0-2.53.813 5.915 5.915 0 0 0-2.703 3.579 5.946 5.946 0 0 0 .602 4.509l2.747 4.738 3.828 6.598c1.305 2.252 2.612 4.502 3.916 6.755l.032.056a65.396 65.396 0 0 0-7.499 5.429 65.355 65.355 0 0 0-4.086 3.734 65.3 65.3 0 0 0-7.127 8.39 64.396 64.396 0 0 0-4.72 7.694 64.676 64.676 0 0 0-6.462 19.329c-.044.262-.085.526-.126.788a64.82 64.82 0 0 0-.372 2.845h129.321a64.82 64.82 0 0 0-.372-2.845l.01-.007Z"/><path fill="#121212" d="M460.657 197.44c2.588-1.722 2.964-5.705.84-8.896-2.124-3.191-5.943-4.383-8.53-2.661-2.587 1.721-2.963 5.704-.84 8.896 2.124 3.191 5.943 4.382 8.53 2.661ZM402.034 194.772c2.124-3.191 1.748-7.174-.84-8.895-2.587-1.722-6.406-.531-8.53 2.661-2.123 3.191-1.747 7.174.84 8.896 2.587 1.721 6.406.53 8.53-2.662Z"/><path fill="#2A8642" d="M362.576 220.363H491.64v51.361c0 35.64-28.892 64.532-64.532 64.532s-64.532-28.892-64.532-64.532v-51.361Z"/><path fill="#A2D004" d="M270.933 337.519c1.386-3.796 6.756-3.796 8.142 0l5.421 14.853a28.889 28.889 0 0 0 16.989 17.142l14.706 5.518c3.748 1.406 3.748 6.708 0 8.114l-14.706 5.518a28.889 28.889 0 0 0-16.989 17.142l-5.421 14.853c-1.386 3.797-6.756 3.797-8.142 0l-5.421-14.853a28.891 28.891 0 0 0-16.989-17.142l-14.706-5.518c-3.748-1.406-3.748-6.708 0-8.114l14.706-5.518a28.891 28.891 0 0 0 16.989-17.142l5.421-14.853ZM640.781 183.435c.96-3.238 5.546-3.238 6.505 0l4.036 13.622a6.785 6.785 0 0 0 4.578 4.578l13.622 4.036c3.238.959 3.238 5.546 0 6.505l-13.622 4.036a6.783 6.783 0 0 0-4.578 4.578l-4.036 13.622c-.959 3.238-5.545 3.238-6.505 0l-4.036-13.622a6.782 6.782 0 0 0-4.577-4.578l-13.623-4.036c-3.238-.959-3.238-5.546 0-6.505l13.623-4.036a6.784 6.784 0 0 0 4.577-4.578l4.036-13.622ZM154.716 294.021c.526-1.776 3.042-1.776 3.568 0l2.213 7.472a3.722 3.722 0 0 0 2.511 2.511l7.471 2.213c1.776.526 1.776 3.042 0 3.568l-7.471 2.214a3.72 3.72 0 0 0-2.511 2.51l-2.213 7.472c-.526 1.776-3.042 1.776-3.568 0l-2.213-7.472a3.72 3.72 0 0 0-2.511-2.51l-7.471-2.214c-1.776-.526-1.776-3.042 0-3.568l7.471-2.213a3.722 3.722 0 0 0 2.511-2.511l2.213-7.472ZM479.913 73.985c.421-1.42 2.433-1.42 2.854 0l1.771 5.977a2.976 2.976 0 0 0 2.008 2.009l5.977 1.77c1.421.422 1.421 2.434 0 2.855l-5.977 1.77a2.976 2.976 0 0 0-2.008 2.01l-1.771 5.977c-.421 1.42-2.433 1.42-2.854 0l-1.771-5.977a2.976 2.976 0 0 0-2.009-2.01l-5.977-1.77c-1.42-.421-1.42-2.433 0-2.854l5.977-1.771a2.976 2.976 0 0 0 2.009-2.009l1.771-5.977Z"/></svg>