<svg xmlns="http://www.w3.org/2000/svg" width="854" height="480" fill="none"><rect width="278.154" height="182.508" x="169.5" y="46" fill="#121212" stroke="#164590" stroke-width="4" rx="15.417"/><path fill="#356AC3" d="M167.5 61.417c0-9.62 7.798-17.417 17.417-17.417h247.166c9.619 0 17.417 7.798 17.417 17.417V76h-282V61.417Z"/><circle cx="186.5" cy="60" r="7" fill="#A2D004"/><circle cx="206.5" cy="60" r="7" fill="#fff"/><rect width="102" height="8" x="184.5" y="91" fill="#103C20" rx="4"/><rect width="75" height="8" x="184.5" y="109" fill="#103C20" rx="4"/><rect width="207.409" height="300.762" x="470.171" y="95.773" fill="#A2D004" rx="103.705" transform="rotate(45 470.171 95.773)"/><path fill="#103C20" d="M192.191 262.138a10.893 10.893 0 0 1 9.694 0l9.285 4.617a10.892 10.892 0 0 0 4.197 1.118l11.745.701a10.85 10.85 0 0 1 8.395 4.82l6.219 9.368a10.825 10.825 0 0 0 3.073 3.055l7.856 5.158a10.766 10.766 0 0 1 4.846 8.348l.706 11.691c.088 1.452.47 2.872 1.125 4.174l4.1 8.154a10.726 10.726 0 0 1 0 9.639l-3.493 6.947a10.74 10.74 0 0 0-1.125 4.174l-.778 12.897c-.204 3.386-2 6.479-4.847 8.348l-9.745 6.398a10.803 10.803 0 0 0-3.073 3.056l-5.397 8.129a10.852 10.852 0 0 1-8.395 4.819l-11.139.665a10.871 10.871 0 0 0-4.197 1.119l-9.358 4.653a10.9 10.9 0 0 1-9.694 0l-9.578-4.763a10.899 10.899 0 0 0-4.198-1.119l-9.301-.555a10.848 10.848 0 0 1-8.394-4.819l-5.396-8.127a10.81 10.81 0 0 0-3.072-3.055l-9.747-6.4a10.765 10.765 0 0 1-4.847-8.347l-.558-9.242a10.725 10.725 0 0 0-1.124-4.174l-5.332-10.604a10.726 10.726 0 0 1 0-9.639l5.937-11.807a10.748 10.748 0 0 0 1.125-4.174l.485-8.037c.204-3.386 2-6.478 4.846-8.347l7.854-5.157a10.79 10.79 0 0 0 3.073-3.056l6.222-9.37a10.847 10.847 0 0 1 8.394-4.82l9.908-.591a10.899 10.899 0 0 0 4.198-1.119l9.505-4.726Z"/><rect width="14.716" height="38.298" fill="#2A8642" rx="7.358" transform="rotate(120 8.382 222.632)skewX(-.001)"/><rect width="14.715" height="52.322" x="189.382" y="322.258" fill="#2A8642" rx="7.358"/><path fill="#2A8642" d="M496.67 435.531h-44.846l61.786-334h18.018c24.385 0 43.155 21.535 39.825 45.692l-34.958 253.596c-2.743 19.893-19.744 34.712-39.825 34.712Z"/><path fill="#121212" d="M388.969 135.953c2.669-19.967 19.703-34.875 39.847-34.875h81.852c24.319 0 43.07 21.424 39.847 45.529l-34.023 254.492c-2.669 19.966-19.703 34.874-39.847 34.874h-81.852c-24.319 0-43.069-21.424-39.847-45.528l34.023-254.492Z"/><path stroke="#164590" stroke-linecap="round" stroke-width="4" d="M510.241 102.977h-81.697c-20.109 0-37.124 14.857-39.835 34.782l-34.108 250.696c-3.283 24.134 15.478 45.621 39.835 45.621h84.091"/><circle cx="468.431" cy="119.782" r="5.169" fill="#356AC3"/><rect width="8.853" height="38.564" x="552.545" y="203.297" stroke="#A8DAB5" stroke-width="4" rx="4.426" transform="rotate(7.835 552.545 203.297)"/><rect width="8.853" height="71.268" x="545.291" y="255.848" stroke="#A8DAB5" stroke-width="4" rx="4.426" transform="rotate(7.835 545.291 255.848)"/><circle cx="390.101" cy="398.569" r="18.378" fill="#103C20"/><circle cx="433.749" cy="398.569" r="18.378" fill="#103C20"/><circle cx="477.394" cy="398.569" r="18.378" fill="#103C20"/><path fill="#356AC3" fill-rule="evenodd" d="M573.904 247c-28.942 0-52.404 23.462-52.404 52.404v2.326c0 28.941 23.462 52.403 52.404 52.403h8.207v14.575c0 3.776 4.599 5.628 7.215 2.905l16.794-17.48h41.532c28.942 0 52.403-23.462 52.403-52.403v-2.326c0-28.942-23.461-52.404-52.403-52.404h-73.748Z" clip-rule="evenodd"/><circle cx="590.513" cy="300.651" r="5.589" fill="#AECBFA"/><circle cx="590.513" cy="300.651" r="5.589" stroke="#F8F9FA"/><circle cx="610.628" cy="300.651" r="5.589" fill="#AECBFA"/><circle cx="610.628" cy="300.651" r="5.589" stroke="#F8F9FA"/><circle cx="630.756" cy="300.651" r="5.589" fill="#AECBFA"/><circle cx="630.756" cy="300.651" r="5.589" stroke="#F8F9FA"/></svg>