<svg xmlns="http://www.w3.org/2000/svg" width="360" height="364" fill="none"><path fill="#fff" d="M0 3.584h360v360H0z"/><rect width="159" height="159" x="59.891" y="41.084" stroke="#C6FF00" stroke-width="3" rx="28.5"/><path fill="#34A853" d="M163.391 161.582a3.652 3.652 0 0 1 3.652-3.652v17.652a3.652 3.652 0 0 1-3.652-3.652v-10.348ZM163.391 189.582a3.652 3.652 0 0 1 3.653-3.652v29.217a3.652 3.652 0 0 1-3.653-3.652v-21.913Z"/><rect width="108.683" height="225.553" x="-1.05" y="1.05" fill="#34A853" stroke="#34A853" stroke-width="2.1" rx="30.45" transform="matrix(-1 0 0 1 287.291 87.931)"/><rect width="110.783" height="227.653" fill="#fff" rx="31.5" transform="matrix(-1 0 0 1 277.217 87.93)"/><path stroke="#A0C2F9" stroke-linecap="round" stroke-width="3" d="M246.782 314.975h-48.847c-17.397 0-31.501-14.103-31.501-31.5V120.039c0-17.397 14.104-31.5 31.5-31.5h47.022"/><circle cx="3.348" cy="3.348" r="3.348" fill="#4285F4" transform="matrix(-1 0 0 1 225.478 95.845)"/><rect width="39" height="39" x="1.5" y="1.5" stroke="#C6FF00" stroke-width="3" rx="10.5" transform="matrix(0 1 1 0 186 255.584)"/><rect width="90" height="90" x="234" y="155.539" fill="#D2E3FC" rx="18"/><circle cx="35.355" cy="35.355" r="35.355" fill="#4285F4" transform="matrix(0 1 1 0 104.681 85.229)"/><circle cx="21.213" cy="21.213" r="21.213" fill="#fff" transform="matrix(0 1 1 0 118.927 99.475)"/><rect width="14.142" height="84.853" fill="#4285F4" rx="7.071" transform="matrix(0 1 1 0 161.353 113.617)"/><rect width="14.142" height="28.284" fill="#4285F4" rx="7.071" transform="matrix(-1 0 0 1 203.78 113.617)"/><rect width="14.142" height="35.355" fill="#4285F4" rx="7.071" transform="matrix(-1 0 0 1 224.993 113.617)"/><path fill="#CEEAD6" d="M144 262.453c0-18.153-14.716-32.869-32.87-32.869H68.87C50.716 229.584 36 244.3 36 262.453c0 18.154 14.716 32.87 32.87 32.87h42.26c18.154 0 32.87-14.716 32.87-32.87Z"/><circle cx="90" cy="250.453" r="8" fill="#34A853"/><path fill="#34A853" d="M70 278.453c0-8.836 7.163-16 16-16h8c8.837 0 16 7.164 16 16v4H70v-4Z"/><path fill="#4285F4" d="M296.892 186.882a2.73 2.73 0 0 0-1.626-2.397l-10.443-4.572-4.808-2.127a2.381 2.381 0 0 0-1.918 0l-4.808 2.127-10.533 4.548a2.74 2.74 0 0 0-1.627 2.367c-.179 3.611-.256 12.028.346 15.26 2.066 11.048 12.617 19.811 16.305 22.579a2.133 2.133 0 0 0 2.562.017c3.781-2.759 14.698-11.589 16.295-22.596.47-3.244.398-11.589.255-15.206Z"/><rect width="10.286" height="36" x="54.857" y="105.584" fill="#AECBFA" rx="5.143"/><rect width="10.286" height="36" x="78" y="118.441" fill="#AECBFA" rx="5.143" transform="rotate(90 78 118.441)"/><path fill="#34A853" fill-rule="evenodd" d="M323.996 67.816c.002.006.004.012.004.019-.002-.758-.486-1.524-1.447-2.123a7.025 7.025 0 0 0-.207-.123l-5.778-3.261-1.847-1.043-7.738-4.365v.001l-15.025-8.474a4.78 4.78 0 0 0-.228-.12l-.069-.033a4.457 4.457 0 0 0-.395-.166l-.058-.021a3.274 3.274 0 0 0-.664-.156l-.009-.001c-.672-.08-1.255.094-1.691.49h-.001l-.007.007a2.405 2.405 0 0 0-.102.1l-.007.007-.005.005a1.486 1.486 0 0 0-.065.074l-.038.046c-.015.02-.032.039-.046.06a1.967 1.967 0 0 0-.083.117l-.01.015c-.025.04-.05.08-.073.122l-.014.027a2.104 2.104 0 0 0-.066.13l-.008.016c-.05.108-.093.22-.129.334l-.001.002a3.397 3.397 0 0 0-.05.171l-.005.021a4.303 4.303 0 0 0-.04.18l-.001.005a3.029 3.029 0 0 0-.034.2l-.001.01-.013.111s-.045.462-.045.533l.001.228.024 21.129.008 8.121.066 4.696.044.728c.078.727.322 1.298.696 1.695l.103.1.014.012v-.001c.032.028.065.055.099.08a1.75 1.75 0 0 0 .187.128c.095.057.194.105.298.144l.027.011a1.844 1.844 0 0 0 .351.093c.62.108 1.353-.043 2.138-.493l14.63-8.362h.03l8.057-4.605 1.686-.964.005-.002 1.918-1.098 3.991-2.282c.543-.31.949-.67 1.22-1.053.258-.365.393-.751.405-1.139l.002-.062-.002.016-.002-.037Z" clip-rule="evenodd"/></svg>