<svg xmlns="http://www.w3.org/2000/svg" viewBox="0 0 755 596.55"><defs><style>.cls-1,.cls-12,.cls-14,.cls-2,.cls-6,.cls-7{fill:none;stroke-miterlimit:10}.cls-1{stroke:#546e7a}.cls-1,.cls-14,.cls-2,.cls-6,.cls-7{stroke-width:1.3px}.cls-2{stroke:#b0bec5}.cls-6{stroke:#76bf5e}.cls-7{stroke:#2196f3}.cls-8{fill:#4b7d2f}.cls-8,.cls-9{fill-rule:evenodd}.cls-11,.cls-9{fill:#77c159}.cls-12{stroke:#fff;stroke-width:1.63px}.cls-14{stroke:#00e5ff}.cls-15{fill:#00e5ff}.cls-16{fill:#fff}</style></defs><g id="Layer_2" data-name="Layer 2"><g id="Layer_1-2" data-name="Layer 1"><path class="cls-1" d="M573.49 38.59v436M669.49 106.59v468.25M93.49 87.59v376M189.49 71.59v417M285.49 36.59v517M381.49 70.09v358M477.49 195.59v379.25M626 348.34H20M755 444.34H5M731 540.34H238M738 60.67H484.5M738 156.67H118M699 252.67H0"/></g><g id="Layer_4" data-name="Layer 4"><path class="cls-2" d="M285.5 157.09l-2.53-2.53"/><path stroke-dasharray="6.99 3.49" stroke="#b0bec5" stroke-width="1.3" fill="none" stroke-miterlimit="10" d="M280.5 152.09l-87.73-87.73"/><path class="cls-2" d="M191.53 63.13L189 60.59M726.5 596.09l-2.53-2.53"/><path stroke-dasharray="7.43 3.72" stroke="#b0bec5" stroke-width="1.3" fill="none" stroke-miterlimit="10" d="M721.34 590.93l-45.99-45.99"/><path class="cls-2" d="M674.03 543.63l-2.53-2.54M574.51 60.1l-2.53 2.53"/><path stroke-dasharray="7.06 3.53" stroke="#b0bec5" stroke-width="1.3" fill="none" stroke-miterlimit="10" d="M569.48 65.13l-88.64 88.64"/><path class="cls-2" d="M479.6 155.02l-2.54 2.53"/><path class="cls-6" d="M573.51 516.03v48.63M548.81 540.73h48.63"/><circle class="cls-7" cx="573.37" cy="539.97" r="48.63"/><path class="cls-7" d="M381.81 60.78l95.42 96.81"/></g><g id="Layer_3" data-name="Layer 3"><path class="cls-7" d="M689 204.09l-39.5-22.8v45.61l39.5-22.81z"/><path class="cls-8" d="M472.48 388.59h-183a18 18 0 0 1-12.64-5.18l-27.33-26.92h262.95l-27.33 26.92a18 18 0 0 1-12.65 5.18"/><path class="cls-9" d="M572.46 357.93H189.54a1.85 1.85 0 0 1-1.85-1.85V158.44a1.85 1.85 0 0 1 1.85-1.85h382.92a1.85 1.85 0 0 1 1.85 1.85v197.64a1.85 1.85 0 0 1-1.85 1.85"/><path stroke="#fff" stroke-width="1.3" fill="none" stroke-miterlimit="10" d="M199.69 243.75v-75.56h362.46v174.92H430.7"/><path class="cls-11" transform="rotate(-45 662.678 440.42)" d="M634.47 366.56h56.42v147.72h-56.42z"/><path class="cls-8" d="M639.37 410.43a6.68 6.68 0 1 1-4.73 1.95 6.64 6.64 0 0 1 4.73-1.95m0-14.9a21.58 21.58 0 1 0 15.26 6.32 21.47 21.47 0 0 0-15.26-6.32"/><path class="cls-9" d="M262.56 540.58a25.7 25.7 0 0 1-25.95-25.44l-.52-52.34a25.69 25.69 0 0 1 25.43-25.95 25.7 25.7 0 0 1 26 25.44l.53 52.34a25.7 25.7 0 0 1-25.44 26M189.85 416.44a25.7 25.7 0 0 0-35.46 7.95l-28 44.21a25.7 25.7 0 0 0 43.41 27.51l28-44.21a25.69 25.69 0 0 0-8-35.46"/><path class="cls-11" transform="rotate(-74.1 214.94 460.379)" d="M178.19 413.27h73.45v94.2h-73.45z"/><path class="cls-8" d="M184.7 452.38a13.25 13.25 0 1 1-18.73 0 13.26 13.26 0 0 1 18.73 0z"/><path class="cls-12" d="M255.94 457.31l-5.98 21.24M243.44 464.8l18.98 5.34"/><path d="M274.38 474.2a22.65 22.65 0 1 1-15.67-27.95 22.65 22.65 0 0 1 15.67 27.95z" stroke="#00e5ff" stroke-width="1.63" fill="none" stroke-miterlimit="10"/><path class="cls-14" d="M81 539.75h28.86v18.33H81zM121.21 539.75h28.86v18.33h-28.86zM161.42 539.75h28.86v18.33h-28.86z"/><path class="cls-15" d="M27 90.59h13.03v13.03H27zM53.99 90.59h13.03v13.03H53.99zM80.97 90.59H94v13.03H80.97zM27 117.58h13.03v13.03H27zM53.99 117.58h13.03v13.03H53.99zM80.97 117.58H94v13.03H80.97zM27 144.57h13.03v13.03H27zM53.99 144.57h13.03v13.03H53.99zM80.97 144.57H94v13.03H80.97z"/><path class="cls-16" d="M604.39 282.98h10.94v10.94h-10.94zM627.06 282.98H638v10.94h-10.94zM604.39 305.65h10.94v10.94h-10.94zM627.06 305.65H638v10.94h-10.94z"/><path class="cls-15" d="M54.47 308.12a17.28 17.28 0 0 0 17.29-17.35l.06-34.69a17.35 17.35 0 0 0-34.69 0v34.69a17.33 17.33 0 0 0 17.34 17.35z"/><path d="M85.12 290.77c0 17.35-14.69 29.49-30.65 29.49s-30.64-12.14-30.64-29.49H14c0 19.72 15.73 36 34.69 38.86v19h11.57v-19c19-2.78 34.69-19.08 34.69-38.86z" fill="#03a9f4"/></g><g id="Layer_2-2" data-name="Layer 2"><rect class="cls-14" x="257.04" y="-12.89" width="27.64" height="172.6" rx="13.82" ry="13.82" transform="rotate(45 270.864 73.406)"/><path stroke="#03a9f4" stroke-width="1.3" fill="none" stroke-miterlimit="10" d="M109.94 39.57l27.33-30.05L97.58.88l12.36 38.69z"/><circle class="cls-6" cx="143.29" cy="204.76" r="16.21"/><circle class="cls-14" cx="649.25" cy="80.26" r="20.17"/><path class="cls-7" transform="rotate(-90 403.98 528.34)" d="M391.73 454.82h24.51v147.03h-24.51z"/><path class="cls-7" transform="rotate(-90 404 488.35)" d="M391.74 414.82h24.51v147.06h-24.51z"/><path d="M5.85 445.23h25.53c147.93.21 73.09-143.19 212.17-143H300" stroke-width=".91" stroke="#00e5ff" fill="none" stroke-miterlimit="10"/></g></g></svg>