<svg xmlns="http://www.w3.org/2000/svg" width="96" height="96" fill="none"><path fill="#AECBFA" stroke="#4285F4" stroke-width="2" d="M64 35H32a5 5 0 0 0-5 5v44a5 5 0 0 0 5 5h32a5 5 0 0 0 5-5V40a5 5 0 0 0-5-5Z"/><rect width="20" height="8" x="38" y="40" fill="#fff" rx="4"/><path fill="#202124" d="M42 32.178h12v8a4 4 0 0 1-4 4h-4a4 4 0 0 1-4-4v-8Z"/><circle cx="47.998" cy="38" r="2" fill="#fff"/><path fill="#174EA6" d="m41.996 8.178 10.412 24H41.996l-10.088-24h10.088Z"/><path fill="#4285F4" d="m50.842 8.178-8.842 24h12.035l8.465-24H50.842Z"/><g clip-path="url(#a)"><path fill="#34A853" d="M63.909 87.295a15.917 15.917 0 0 0-.276-1.386 16.012 16.012 0 0 0-2.523-5.501 16.09 16.09 0 0 0-2.603-2.856 16.14 16.14 0 0 0-2-1.473l.018-.03.97-1.674c.315-.544.63-1.089.947-1.633l.68-1.174a1.475 1.475 0 0 0-.52-2.003 1.483 1.483 0 0 0-1.13-.157 1.47 1.47 0 0 0-.894.683l-.68 1.174-.948 1.634-.969 1.672-.106.184c-.049-.02-.097-.04-.146-.058a16.047 16.047 0 0 0-5.73-1.05h-.165a16.05 16.05 0 0 0-5.68 1.096l-.1-.17c-.322-.559-.646-1.116-.969-1.674l-.947-1.633-.68-1.174a1.47 1.47 0 0 0-2.693.36 1.474 1.474 0 0 0 .15 1.117l.679 1.174.947 1.633.97 1.673.007.014a16.18 16.18 0 0 0-5.798 6.252 16.035 16.035 0 0 0-1.6 4.786l-.03.195c-.036.233-.067.468-.092.705h32a16.003 16.003 0 0 0-.092-.705l.003-.001Z"/><path fill="#202124" d="M56.322 83.575c.64-.427.733-1.413.208-2.203-.526-.79-1.47-1.086-2.111-.66-.64.427-.733 1.413-.208 2.203.526.79 1.47 1.086 2.11.66ZM41.813 82.918c.525-.79.432-1.776-.208-2.203-.64-.426-1.585-.13-2.11.66-.526.79-.433 1.776.207 2.202.64.427 1.585.132 2.11-.659Z"/></g><defs><clipPath id="a"><path fill="#fff" d="M32 69.36h32.001V88H32z"/></clipPath></defs></svg>