<svg xmlns="http://www.w3.org/2000/svg" width="97" height="96" fill="none"><path fill="#164590" stroke="#356AC3" stroke-width="2" d="M32.5 35a5 5 0 0 0-5 5v44a5 5 0 0 0 5 5h32a5 5 0 0 0 5-5V40a5 5 0 0 0-5-5h-32Z"/><rect width="20" height="8" x="38.5" y="40" fill="#121212" rx="4"/><path fill="#15305C" d="M42.5 32.178h12v8a4 4 0 0 1-4 4h-4a4 4 0 0 1-4-4v-8Z"/><circle cx="48.498" cy="38" r="2" fill="#121212"/><path fill="#164590" d="m42.496 8.178 10.412 24H42.496l-10.088-24h10.088Z"/><path fill="#356AC3" d="m51.342 8.178-8.842 24h12.035l8.465-24H51.342Z"/><g clip-path="url(#a)"><path fill="#2A8642" d="M64.409 87.294a15.917 15.917 0 0 0-.276-1.386 16.012 16.012 0 0 0-2.523-5.5 16.09 16.09 0 0 0-2.603-2.856 16.12 16.12 0 0 0-2-1.473c.007-.01.012-.021.018-.031l.97-1.673c.315-.545.63-1.09.947-1.634l.68-1.173a1.474 1.474 0 0 0-1.146-2.204 1.488 1.488 0 0 0-.504.043 1.47 1.47 0 0 0-.894.684l-.68 1.173-.948 1.634c-.322.558-.646 1.115-.969 1.673l-.106.183-.146-.058a16.047 16.047 0 0 0-5.73-1.05l-.165.001a16.05 16.05 0 0 0-5.68 1.095l-.1-.17c-.322-.558-.646-1.115-.969-1.673l-.947-1.634-.68-1.173a1.47 1.47 0 0 0-2.693.36 1.474 1.474 0 0 0 .15 1.117l.679 1.173.947 1.634.97 1.672.007.014a16.18 16.18 0 0 0-5.798 6.252 16.035 16.035 0 0 0-1.6 4.787l-.03.195c-.036.233-.067.468-.092.704h32a16.003 16.003 0 0 0-.092-.704l.003-.002Z"/><path fill="#121212" d="M56.822 83.574c.64-.426.733-1.412.207-2.203-.525-.79-1.47-1.085-2.11-.658-.64.426-.733 1.412-.208 2.202.526.79 1.47 1.086 2.11.66ZM42.313 82.918c.525-.79.432-1.777-.208-2.203-.64-.427-1.585-.132-2.11.659-.526.79-.433 1.776.207 2.203.64.426 1.585.13 2.11-.66Z"/></g><defs><clipPath id="a"><path fill="#fff" d="M32.5 69.36h32.001V88H32.5z"/></clipPath></defs></svg>