<svg xmlns="http://www.w3.org/2000/svg" width="96" height="96" fill="none"><path fill="#CEEAD6" stroke="#34A853" stroke-width="3" d="M67.67 41.797c0 10.476-8.493 18.969-18.969 18.969s-18.968-8.493-18.968-18.97c0-10.475 8.492-18.968 18.968-18.968 10.476 0 18.969 8.493 18.969 18.969Z"/><path fill="#34A853" fill-rule="evenodd" d="M48.979 8c.943 0 1.706.764 1.706 1.706v6.702a1.706 1.706 0 1 1-3.412 0V9.706c0-.942.763-1.706 1.706-1.706Zm0 69.14a1.705 1.705 0 0 1-1.706-1.706v-6.702a1.706 1.706 0 1 1 3.412 0v6.702a1.706 1.706 0 0 1-1.706 1.706Zm23.764-35.145c0-.942.762-1.706 1.705-1.706h6.765a1.706 1.706 0 0 1 0 3.412h-6.765a1.706 1.706 0 0 1-1.704-1.706Zm-49.568.08a1.706 1.706 0 0 1-1.706 1.706h-6.763a1.706 1.706 0 0 1 0-3.412h6.763c.943 0 1.706.763 1.706 1.706Zm49.683-24.083a1.705 1.705 0 0 1 0 2.413l-4.4 4.398a1.706 1.706 0 0 1-2.413-2.41l4.398-4.4a1.703 1.703 0 0 1 2.415 0Zm.767 50.633a1.706 1.706 0 0 1-2.41 0l-4.403-4.398a1.707 1.707 0 1 1 2.413-2.415l4.4 4.403a1.703 1.703 0 0 1 0 2.41ZM21.115 18.02a1.706 1.706 0 0 1 2.413 0l4.4 4.4a1.708 1.708 0 0 1-.526 2.826 1.704 1.704 0 0 1-1.885-.413l-4.402-4.399a1.705 1.705 0 0 1 0-2.414Zm1.944 48.058a1.706 1.706 0 0 1 0-2.412l4.402-4.398a1.707 1.707 0 0 1 2.413 2.41l-4.402 4.4a1.706 1.706 0 0 1-2.413 0Z" clip-rule="evenodd"/><rect width="22.182" height="10.546" x="36.909" y="42" stroke="#174EA6" stroke-width="4" rx="5.273"/><path fill="#4285F4" d="M18.91 57.273c0-5.523 4.476-10 10-10h38.18c5.524 0 10 4.477 10 10V78c0 5.523-4.476 10-10 10H28.91c-5.524 0-10-4.477-10-10V57.273Z"/><path stroke="#174EA6" stroke-width="2" d="M18.909 63.727h58.182"/><path fill="#174EA6" d="M30.545 62.11c0-.965.782-1.746 1.746-1.746h2.327c.964 0 1.746.781 1.746 1.745v4.073a2.91 2.91 0 0 1-5.819 0v-4.073ZM59.636 62.11c0-.965.782-1.746 1.746-1.746h2.327c.964 0 1.745.781 1.745 1.745v4.073a2.909 2.909 0 1 1-5.818 0v-4.073Z"/></svg>