<svg xmlns="http://www.w3.org/2000/svg" width="97" height="96" fill="none"><g clip-path="url(#a)"><path fill="#fff" d="M76.917 74.667H58.583a37.54 37.54 0 0 0-.333-5h18.667V26.333H20.25v5a38.112 38.112 0 0 0-5-.333v-4.667c0-1.389.472-2.555 1.417-3.5 1-1 2.194-1.5 3.583-1.5h56.667c1.389 0 2.555.5 3.5 1.5 1 .945 1.5 2.111 1.5 3.5v43.334c0 1.389-.5 2.583-1.5 3.583-.945.944-2.111 1.417-3.5 1.417Zm-61.667 0V66c2.333 0 4.306.861 5.917 2.583 1.61 1.667 2.416 3.695 2.416 6.084H15.25Zm16.667 0c0-4.723-1.611-8.723-4.834-12-3.222-3.334-7.166-5-11.833-5v-5c6.056 0 11.167 2.166 15.333 6.5 4.223 4.277 6.334 9.444 6.334 15.5h-5Zm13.333 0c0-4.167-.778-8.084-2.333-11.75-1.556-3.723-3.695-6.945-6.417-9.667-2.722-2.778-5.917-4.944-9.583-6.5-3.611-1.611-7.5-2.417-11.667-2.417v-5c4.833 0 9.361.945 13.583 2.834 4.278 1.833 8 4.36 11.167 7.583 3.167 3.167 5.667 6.917 7.5 11.25 1.833 4.278 2.75 8.833 2.75 13.667h-5Z"/></g><defs><clipPath id="a"><path fill="#fff" d="M8.5 8h80v80h-80z"/></clipPath></defs></svg>