<svg xmlns="http://www.w3.org/2000/svg" width="97" height="96" fill="none"><path fill="#2A8642" fill-rule="evenodd" d="M42.1 21c7.953 0 14.4 6.447 14.4 14.4s-6.447 14.4-14.4 14.4H30.987l-5.348 5.55c-.747.774-2.056.246-2.056-.83V49.8H22.9c-7.953 0-14.4-6.447-14.4-14.4S14.947 21 22.9 21h19.2Z" clip-rule="evenodd"/><path fill="#356AC3" fill-rule="evenodd" d="M54.9 39.719c-7.953 0-14.4 6.447-14.4 14.4s6.447 14.4 14.4 14.4h11.113l5.348 5.55c.747.774 2.056.246 2.056-.83v-4.72h.683c7.953 0 14.4-6.447 14.4-14.4s-6.447-14.4-14.4-14.4H54.9Z" clip-rule="evenodd"/></svg>