<svg xmlns="http://www.w3.org/2000/svg" width="97" height="96" fill="none"><path fill="#356AC3" fill-rule="evenodd" d="M56.786 22.112a4.392 4.392 0 0 0 0 6.21L76.454 47.99l.01.01-.01.01-19.668 19.668a4.392 4.392 0 1 0 6.211 6.21L88.876 48.01l-.01-.01.01-.01-25.879-25.879a4.392 4.392 0 0 0-6.21 0Z" clip-rule="evenodd"/><path fill="#2A8642" fill-rule="evenodd" d="M41.04 74.4a4.453 4.453 0 0 0 0-6.297L21.096 48.159l-.011-.012.011-.011L41.04 28.192a4.453 4.453 0 1 0-6.298-6.298L8.5 48.136l.012.011-.012.012L34.742 74.4a4.453 4.453 0 0 0 6.298 0Z" clip-rule="evenodd"/></svg>