<svg xmlns="http://www.w3.org/2000/svg" width="96" height="96" fill="none"><path fill="#4285F4" fill-rule="evenodd" d="M56.286 22.11a4.392 4.392 0 0 0 0 6.212l19.668 19.667.01.011-.01.011-19.668 19.668a4.392 4.392 0 1 0 6.211 6.21l25.879-25.878-.011-.01.01-.012-25.878-25.878a4.392 4.392 0 0 0-6.21 0Z" clip-rule="evenodd"/><path fill="#34A853" fill-rule="evenodd" d="M40.54 74.4a4.453 4.453 0 0 0 0-6.297L20.596 48.159a.57.57 0 0 0-.01-.011l.01-.012L40.54 28.192a4.453 4.453 0 1 0-6.298-6.298L8 48.136l.011.011-.01.011 26.241 26.243a4.454 4.454 0 0 0 6.298 0Z" clip-rule="evenodd"/></svg>