<svg xmlns="http://www.w3.org/2000/svg" width="96" height="96" fill="none"><path fill="#34A853" fill-rule="evenodd" d="M88 43H8v30h.103c.185.495.619.941 1.302 1.202l35.378 13.563a9 9 0 0 0 6.443 0l35.37-13.56c.684-.262 1.117-.709 1.302-1.205H88V43Z" clip-rule="evenodd"/><g filter="url(#a)"><path fill="#0D652D" d="M51.226 58.765a9 9 0 0 1-6.443 0L9.405 45.202c-1.88-.72-1.87-2.836.014-3.544L43.71 28.767A12.212 12.212 0 0 1 48.002 28c1.486 0 2.953.262 4.292.767L86.58 41.661c1.885.708 1.895 2.824.015 3.544l-35.37 13.56Z"/></g><path fill="#4285F4" d="M45.23 10.775A2.772 2.772 0 0 1 48 8c1.53 0 2.77 1.242 2.77 2.775v31.45A2.772 2.772 0 0 1 48 45a2.772 2.772 0 0 1-2.77-2.775v-31.45Z"/><path fill="#4285F4" d="M36.817 21.982a2.79 2.79 0 0 0 3.947 0L48 14.742l7.236 7.24a2.79 2.79 0 0 0 3.947 0 2.794 2.794 0 0 0 0-3.95l-9.2-9.205a2.79 2.79 0 0 0-3.956-.009l-9.21 9.215a2.794 2.794 0 0 0 0 3.949Z"/><path fill="#CEEAD6" fill-rule="evenodd" d="m8 61.73 37.141 14.24a8 8 0 0 0 5.728 0L88 61.733v-5.526L50.869 70.443a8 8 0 0 1-5.728 0L8 56.204v5.527Z" clip-rule="evenodd"/><defs><filter id="a" width="80" height="31.361" x="8" y="28" color-interpolation-filters="sRGB" filterUnits="userSpaceOnUse"><feFlood flood-opacity="0" result="BackgroundImageFix"/><feColorMatrix in="SourceAlpha" result="hardAlpha" values="0 0 0 0 0 0 0 0 0 0 0 0 0 0 0 0 0 0 127 0"/><feOffset/><feComposite in2="hardAlpha" operator="out"/><feColorMatrix values="0 0 0 0 0.258824 0 0 0 0 0.521569 0 0 0 0 0.956863 0 0 0 1 0"/><feBlend in2="BackgroundImageFix" result="effect1_dropShadow_152_11792"/><feBlend in="SourceGraphic" in2="effect1_dropShadow_152_11792" result="shape"/></filter></defs></svg>