<svg xmlns="http://www.w3.org/2000/svg" width="97" height="96" fill="none"><path fill="#AECBFA" d="M81.372 31.5a1.129 1.129 0 0 0-1.316-.903l.893 4.808a1.129 1.129 0 0 0 .904-1.316l-.481-2.589ZM82.265 36.309a1.129 1.129 0 0 0-1.315-.904l1.477 7.952a1.128 1.128 0 0 0 .903-1.315l-1.065-5.733Z"/><path fill="#356AC3" fill-rule="evenodd" d="M49.54 79.526c-.411-.615-1.676-.617-2.088-.002-1.732 2.584-4.84 4.142-8.19 3.683l-20.56-2.819c-5.942-.814-9.949-6.496-8.72-12.367l8.87-42.393a8.464 8.464 0 0 1 9.395-6.657l13.276 1.757a8.455 8.455 0 0 1 5.938 3.705c.41.616 1.674.617 2.085.001a8.455 8.455 0 0 1 5.944-3.697l13.614-1.782a8.464 8.464 0 0 1 9.38 6.64l8.97 42.39c1.245 5.883-2.773 11.585-8.732 12.392l-20.997 2.846c-3.35.454-6.458-1.11-8.185-3.697Z" clip-rule="evenodd"/><path fill="#132137" stroke="#356AC3" stroke-width="2" d="M48 23.892a7.464 7.464 0 0 1 6.525-7.404l14.391-1.825a7.464 7.464 0 0 1 8.27 5.996l8.525 44.367a7.464 7.464 0 0 1-6.321 8.804l-22.917 3.126C51.99 77.566 48 74.083 48 69.56V23.892ZM48 23.857a7.464 7.464 0 0 0-6.49-7.4L28.244 14.71a7.464 7.464 0 0 0-8.313 6.042l-8.215 44.359a7.464 7.464 0 0 0 6.294 8.75L39.49 76.9c4.494.636 8.51-2.852 8.51-7.39V23.856Z"/><rect width="9.705" height="2.185" x="64.861" y="78.469" fill="#AECBFA" rx="1.092" transform="rotate(-7.74 64.861 78.469)"/><circle cx="22.427" cy="78.418" r=".564" fill="#AECBFA" transform="rotate(8.12 22.427 78.418)"/><circle cx="24.476" cy="78.71" r=".564" fill="#AECBFA" transform="rotate(8.12 24.476 78.71)"/><circle cx="26.524" cy="79.003" r=".564" fill="#AECBFA" transform="rotate(8.12 26.524 79.003)"/><circle cx="28.572" cy="79.295" r=".564" fill="#AECBFA" transform="rotate(8.12 28.572 79.295)"/><circle cx="30.62" cy="79.587" r=".564" fill="#AECBFA" transform="rotate(8.12 30.62 79.587)"/><circle cx="32.669" cy="79.879" r=".564" fill="#AECBFA" transform="rotate(8.12 32.669 79.879)"/><circle cx="34.717" cy="80.171" r=".564" fill="#AECBFA" transform="rotate(8.12 34.717 80.171)"/></svg>