<svg xmlns="http://www.w3.org/2000/svg" width="96" height="96" fill="none"><path fill="#174EA6" d="M80.872 31.5a1.129 1.129 0 0 0-1.316-.904l.893 4.808a1.129 1.129 0 0 0 .904-1.315l-.481-2.59ZM81.765 36.309a1.129 1.129 0 0 0-1.316-.904l1.478 7.952a1.128 1.128 0 0 0 .903-1.316l-1.065-5.732Z"/><path fill="#4285F4" fill-rule="evenodd" d="M49.04 79.525c-.411-.615-1.676-.616-2.088-.002-1.732 2.584-4.84 4.142-8.19 3.683l-20.56-2.818c-5.943-.815-9.949-6.497-8.72-12.368l8.87-42.393a8.464 8.464 0 0 1 9.395-6.657l13.276 1.757a8.455 8.455 0 0 1 5.938 3.705c.41.616 1.674.617 2.084.001a8.455 8.455 0 0 1 5.944-3.697l13.615-1.782a8.464 8.464 0 0 1 9.38 6.64l8.97 42.39c1.245 5.883-2.773 11.585-8.732 12.393l-20.997 2.845c-3.35.454-6.458-1.109-8.185-3.697Z" clip-rule="evenodd"/><path fill="#E8F0FE" stroke="#4285F4" stroke-width="2" d="M47.5 23.892a7.464 7.464 0 0 1 6.525-7.404l14.391-1.825a7.464 7.464 0 0 1 8.27 5.996l8.525 44.367a7.464 7.464 0 0 1-6.321 8.804l-22.917 3.126c-4.482.61-8.473-2.873-8.473-7.396V23.892ZM47.5 23.857a7.464 7.464 0 0 0-6.49-7.4L27.744 14.71a7.464 7.464 0 0 0-8.313 6.042l-8.215 44.359a7.464 7.464 0 0 0 6.294 8.75L38.99 76.9c4.494.636 8.51-2.852 8.51-7.39V23.856Z"/><rect width="9.705" height="2.185" x="64.361" y="78.469" fill="#174EA6" rx="1.092" transform="rotate(-7.74 64.361 78.47)"/><circle cx="21.927" cy="78.418" r=".564" fill="#174EA6" transform="rotate(8.12 21.927 78.418)"/><circle cx="23.976" cy="78.71" r=".564" fill="#174EA6" transform="rotate(8.12 23.976 78.71)"/><circle cx="26.024" cy="79.002" r=".564" fill="#174EA6" transform="rotate(8.12 26.024 79.002)"/><circle cx="28.072" cy="79.295" r=".564" fill="#174EA6" transform="rotate(8.12 28.072 79.295)"/><circle cx="30.12" cy="79.587" r=".564" fill="#174EA6" transform="rotate(8.12 30.12 79.587)"/><circle cx="32.169" cy="79.879" r=".564" fill="#174EA6" transform="rotate(8.12 32.169 79.88)"/><circle cx="34.217" cy="80.171" r=".564" fill="#174EA6" transform="rotate(8.12 34.217 80.171)"/></svg>