<svg xmlns="http://www.w3.org/2000/svg" width="96" height="96" fill="none"><rect width="78" height="50.881" x="9" y="28.119" fill="#fff" stroke="#4285F4" stroke-width="2" rx="3.938"/><path fill="#4285F4" d="M8 32.057a4.938 4.938 0 0 1 4.938-4.938h70.08a4.938 4.938 0 0 1 4.938 4.938v4.135H8v-4.135Z"/><circle cx="13.387" cy="31.655" r="1.985" fill="#CEEAD6"/><circle cx="19.058" cy="31.655" r="1.985" fill="#fff"/><path fill="#34A853" d="M68.572 34.913a.78.78 0 0 0 .78-.78v-5.14a.78.78 0 0 0-.78-.78h-3.19a.813.813 0 0 1-.764-.562 12.23 12.23 0 0 0-.634-1.53.813.813 0 0 1 .142-.937l2.256-2.257a.78.78 0 0 0 0-1.101L62.75 18.19a.78.78 0 0 0-1.104.002l-2.237 2.252a.814.814 0 0 1-.94.143 11.982 11.982 0 0 0-1.527-.632.814.814 0 0 1-.563-.764v-3.186a.78.78 0 0 0-.78-.779h-5.14a.78.78 0 0 0-.78.78v3.185a.814.814 0 0 1-.564.764c-.523.176-1.034.388-1.528.634a.814.814 0 0 1-.939-.14l-2.266-2.26a.779.779 0 0 0-1.1.001l-3.641 3.636a.78.78 0 0 0 0 1.102l2.251 2.252a.813.813 0 0 1 .142.937 12.238 12.238 0 0 0-.634 1.53.813.813 0 0 1-.763.563h-3.191a.78.78 0 0 0-.78.779v5.14c0 .431.35.78.78.78h3.19c.35 0 .653.232.764.563.177.524.389 1.037.635 1.533a.813.813 0 0 1-.143.937l-2.252 2.252a.78.78 0 0 0 0 1.103l3.64 3.631a.78.78 0 0 0 1.102 0l2.256-2.256a.814.814 0 0 1 .939-.141c.494.245 1.004.457 1.528.633.33.11.563.414.563.764v3.186c0 .43.35.779.78.779h5.14a.78.78 0 0 0 .78-.78v-3.175c0-.349.233-.653.564-.764a11.981 11.981 0 0 0 1.527-.633.814.814 0 0 1 .94.142l2.254 2.254a.78.78 0 0 0 1.102 0l3.628-3.637a.78.78 0 0 0 0-1.1l-2.254-2.254a.813.813 0 0 1-.142-.937c.246-.496.458-1.009.635-1.534a.813.813 0 0 1 .763-.562h3.187Z"/><path fill="#fff" d="M53.01 39.329a7.76 7.76 0 1 0 0-15.522 7.76 7.76 0 0 0 0 15.522Z"/><path fill="#CEEAD6" d="M81.533 57.667a.445.445 0 0 0 .58-.246l1.1-2.724a.445.445 0 0 0-.246-.58l-1.69-.682a.465.465 0 0 1-.285-.461 6.985 6.985 0 0 0-.008-.947.465.465 0 0 1 .276-.466l1.678-.712a.445.445 0 0 0 .236-.584l-1.146-2.704a.445.445 0 0 0-.585-.235l-1.668.714a.465.465 0 0 1-.529-.125 6.836 6.836 0 0 0-.673-.662.465.465 0 0 1-.135-.525l.682-1.688a.445.445 0 0 0-.246-.58l-2.724-1.1a.445.445 0 0 0-.58.245l-.682 1.689a.465.465 0 0 1-.462.284 6.845 6.845 0 0 0-.945.008.465.465 0 0 1-.467-.275l-.718-1.682a.445.445 0 0 0-.583-.235l-2.707 1.146a.445.445 0 0 0-.236.584l.71 1.676a.465.465 0 0 1-.125.527 6.99 6.99 0 0 0-.663.675.464.464 0 0 1-.525.134l-1.69-.683a.445.445 0 0 0-.58.246l-1.1 2.724a.445.445 0 0 0 .245.58l1.691.682a.464.464 0 0 1 .284.462 7 7 0 0 0 .008.948.464.464 0 0 1-.276.466l-1.675.711a.445.445 0 0 0-.236.585l1.151 2.703a.445.445 0 0 0 .584.235l1.678-.712a.465.465 0 0 1 .527.126c.21.236.435.457.674.662.152.13.21.341.136.526l-.682 1.688a.445.445 0 0 0 .246.58l2.724 1.1a.445.445 0 0 0 .58-.246l.679-1.682a.465.465 0 0 1 .462-.284c.315.019.63.016.945-.009a.465.465 0 0 1 .467.276l.712 1.677a.445.445 0 0 0 .584.236l2.7-1.15a.445.445 0 0 0 .236-.584l-.711-1.676a.465.465 0 0 1 .125-.527c.237-.21.459-.436.665-.676.13-.151.34-.21.524-.135l1.689.682Z"/><path fill="#fff" d="M72.343 56.675a4.435 4.435 0 1 0 3.322-8.223 4.435 4.435 0 0 0-3.322 8.223Z"/></svg>