<svg xmlns="http://www.w3.org/2000/svg" width="96" height="96" fill="none"><path fill="#4285F4" d="M62.695 41.748c.738 0 1.336-.597 1.336-1.335V31.6c0-.738-.598-1.336-1.336-1.336h-5.47a1.394 1.394 0 0 1-1.308-.964 20.964 20.964 0 0 0-1.087-2.623 1.394 1.394 0 0 1 .243-1.607l3.868-3.868a1.336 1.336 0 0 0 0-1.888l-6.227-6.232a1.336 1.336 0 0 0-1.892.003l-3.835 3.86a1.395 1.395 0 0 1-1.613.246 20.537 20.537 0 0 0-2.616-1.084 1.395 1.395 0 0 1-.966-1.31V9.336c0-.738-.598-1.336-1.336-1.336h-8.813c-.738 0-1.336.598-1.336 1.336v5.461c0 .599-.4 1.12-.966 1.31-.898.301-1.774.664-2.621 1.086a1.395 1.395 0 0 1-1.608-.24l-3.885-3.873a1.336 1.336 0 0 0-1.887.001l-6.242 6.233a1.336 1.336 0 0 0 0 1.89l3.86 3.86c.422.422.509 1.072.243 1.607a20.96 20.96 0 0 0-1.087 2.623c-.19.566-.71.964-1.308.964h-5.47c-.738 0-1.336.598-1.336 1.335v8.814c0 .737.598 1.335 1.336 1.335h5.47c.597 0 1.118.398 1.308.964.303.9.666 1.779 1.088 2.63a1.393 1.393 0 0 1-.244 1.606l-3.86 3.86a1.336 1.336 0 0 0 0 1.89l6.24 6.226c.522.52 1.367.52 1.888-.001l3.867-3.867a1.395 1.395 0 0 1 1.61-.242c.847.421 1.722.784 2.62 1.085.566.19.966.711.966 1.31v5.461c0 .738.598 1.336 1.335 1.336h8.814c.737 0 1.335-.598 1.335-1.336v-5.443c0-.598.4-1.12.967-1.31a20.526 20.526 0 0 0 2.619-1.085 1.395 1.395 0 0 1 1.61.243l3.864 3.864a1.336 1.336 0 0 0 1.89 0l6.22-6.234c.52-.522.52-1.367-.001-1.888l-3.863-3.863a1.393 1.393 0 0 1-.244-1.606c.422-.85.785-1.73 1.088-2.63.19-.566.711-.964 1.308-.964h5.464Z"/><path fill="#fff" d="M36.017 49.318c7.348 0 13.304-5.956 13.304-13.304 0-7.347-5.956-13.304-13.304-13.304-7.347 0-13.304 5.957-13.304 13.304 0 7.348 5.957 13.304 13.304 13.304Z"/><path fill="#174EA6" d="M84.914 80.757c.39.158.835-.031.993-.422l1.887-4.67a.763.763 0 0 0-.422-.993L84.474 73.5a.797.797 0 0 1-.487-.79c.032-.541.027-1.083-.014-1.623a.796.796 0 0 1 .473-.8l2.877-1.22a.763.763 0 0 0 .404-1.001l-1.965-4.635a.763.763 0 0 0-1.003-.404L81.9 64.253a.797.797 0 0 1-.907-.215 11.733 11.733 0 0 0-1.154-1.134.797.797 0 0 1-.232-.901l1.17-2.894a.763.763 0 0 0-.423-.993l-4.67-1.887a.763.763 0 0 0-.993.422l-1.169 2.893a.797.797 0 0 1-.792.487 11.74 11.74 0 0 0-1.621.015.797.797 0 0 1-.8-.472l-1.23-2.883a.763.763 0 0 0-1-.404l-4.641 1.966a.763.763 0 0 0-.405 1.002l1.219 2.871a.796.796 0 0 1-.215.904c-.405.36-.785.746-1.138 1.157a.796.796 0 0 1-.899.23l-2.898-1.17a.763.763 0 0 0-.994.421l-1.887 4.67a.763.763 0 0 0 .422.993l2.898 1.171c.317.128.507.45.487.791-.032.542-.028 1.085.014 1.626a.797.797 0 0 1-.473.799l-2.872 1.219a.763.763 0 0 0-.404 1.001l1.973 4.634a.763.763 0 0 0 1 .404l2.877-1.221a.797.797 0 0 1 .905.216c.358.405.745.784 1.155 1.136.26.222.36.584.232.9l-1.17 2.894c-.157.391.032.836.423.994l4.67 1.886a.763.763 0 0 0 .993-.421l1.165-2.884a.797.797 0 0 1 .792-.487c.54.032 1.081.028 1.62-.014a.797.797 0 0 1 .801.473l1.22 2.874a.763.763 0 0 0 1.002.404l4.63-1.97a.763.763 0 0 0 .403-1.001l-1.22-2.874a.797.797 0 0 1 .215-.903c.406-.36.786-.748 1.14-1.16a.796.796 0 0 1 .899-.23l2.895 1.169Z"/><path fill="#fff" d="M69.159 79.056a7.602 7.602 0 1 0 5.696-14.097 7.602 7.602 0 0 0-5.696 14.097Z"/></svg>