<svg xmlns="http://www.w3.org/2000/svg" width="96" height="96" fill="none"><circle cx="48.5" cy="64.5" r="23.5" fill="#174EA6"/><mask id="a" width="47" height="47" x="25" y="41" maskUnits="userSpaceOnUse" style="mask-type:alpha"><rect width="47" height="47" fill="#4285F4" rx="23.5" transform="matrix(1 0 0 -1 25 88)"/></mask><g fill="#34A853" mask="url(#a)"><circle cx="10.956" cy="10.956" r="10.956" transform="scale(-1 1) rotate(30 -88.65 -93.066)"/><rect width="10.797" height="16.446" rx="5.398" transform="scale(-1 1) rotate(30 -125.264 -74.058)"/><rect width="11.854" height="18.057" rx="5.927" transform="scale(-1 1) rotate(30 -141.736 -28.197)"/><circle cx="8.851" cy="8.851" r="8.851" transform="matrix(-1 0 0 1 72.059 72.406)"/><circle cx="8.851" cy="8.851" r="8.851" transform="matrix(-1 0 0 1 60.76 80.441)"/><circle cx="8.521" cy="8.521" r="8.521" transform="matrix(-1 0 0 1 40.878 57.424)"/></g><path fill="#0D652D" fill-rule="evenodd" d="M60.47 42.224C56.68 41.432 52.597 41 48.34 41c-1.186 0-2.359.033-3.516.1l6.59 8.786a2 2 0 0 0 3.19.015l5.866-7.677Z" clip-rule="evenodd"/><path fill="#4285F4" fill-rule="evenodd" d="M69.4 21.7c0 2.69-.776 5.2-2.116 7.317L57.326 50.13c-.724 1.535-2.91 1.528-3.624-.013L43 27l.063.001A13.658 13.658 0 0 1 42 21.7C42 14.134 48.134 8 55.7 8c7.566 0 13.7 6.134 13.7 13.7ZM55.5 32C61.299 32 66 27.299 66 21.5S61.299 11 55.5 11 45 15.701 45 21.5 49.701 32 55.5 32Z" clip-rule="evenodd"/><circle cx="55.5" cy="21.5" r="5" fill="#AECBFA" stroke="#4285F4" stroke-width="5"/></svg>