<svg width="96" height="96" viewBox="0 0 96 96" fill="none" xmlns="http://www.w3.org/2000/svg">
<path d="M24 53.6102C24 66.8569 34.7531 77.6101 47.9996 77.6101C61.2462 77.6101 72.1032 66.8569 71.9993 53.6102C71.9473 48.3115 71.0123 38.2336 60.3111 33.1427" stroke="#4285F4" stroke-width="4" stroke-miterlimit="10" stroke-linecap="round" stroke-linejoin="round"/>
<path d="M50.0007 78H46.0007V86H50.0007V78Z" fill="#4285F4"/>
<path d="M33.3516 23.0128V29.1427V51.4803C33.3516 59.7919 39.8969 66.4932 48.0007 66.4932C56.1045 66.4932 62.6498 59.74 62.6498 51.4803V29.1427V23.0128C62.5979 14.7531 56.0525 7.99988 48.0007 7.99988C39.8969 7.99988 33.3516 14.7531 33.3516 23.0128Z" fill="#174EA6"/>
<path d="M33.3047 42.1483H62.6506" stroke="#34A853" stroke-width="4"/>
<rect x="37.0303" y="84" width="21.8947" height="4" rx="2" fill="#4285F4"/>
</svg>
