<svg xmlns="http://www.w3.org/2000/svg" width="97" height="96" fill="none"><path stroke="#356AC3" stroke-linecap="round" stroke-linejoin="round" stroke-miterlimit="10" stroke-width="4" d="M24.5 53.61c0 13.247 10.753 24 24 24 13.246 0 24.103-10.753 24-24-.053-5.299-.988-15.376-11.689-20.467"/><path fill="#356AC3" d="M50.5 78h-4v8h4v-8Z"/><path fill="#AECBFA" d="M33.852 23.013V51.48c0 8.312 6.545 15.013 14.649 15.013S63.15 59.74 63.15 51.48V23.013C63.098 14.753 56.553 8 48.5 8c-8.103 0-14.648 6.753-14.648 15.013Z"/><path stroke="#2A8642" stroke-width="4" d="M33.805 42.148H63.15"/><rect width="21.895" height="4" x="37.53" y="84" fill="#356AC3" rx="2"/></svg>