<svg xmlns="http://www.w3.org/2000/svg" width="96" height="96" fill="none"><path fill="#4285F4" d="M72.001 88c-6.627 0-12-5.372-12-12V28.477h24v47.525C84 82.628 78.627 88 72 88Z"/><path fill="#E6F4EA" fill-rule="evenodd" d="M75.986 28.477c0 2.17 1.794 3.93 4.007 3.93 2.213 0 4.007-1.76 4.007-3.93 0-.876-.292-1.686-.786-2.34l-7.1-11.485c-1.89-3.055-6.334-3.055-8.223 0l-7.086 11.46a3.865 3.865 0 0 0-.804 2.364c0 2.17 1.794 3.93 4.007 3.93 2.191 0 3.972-1.725 4.006-3.867.035 2.141 1.806 3.867 3.985 3.867 2.2 0 3.984-1.759 3.985-3.929h.002Z" clip-rule="evenodd"/><path fill="#202124" d="M70.466 10.478a1.798 1.798 0 0 1 3.06.002l3.712 6.03s-1.453 2.16-5.251 2.16-5.251-2.16-5.251-2.16l3.73-6.032Z"/><path stroke="#202124" stroke-linecap="round" stroke-width="2" d="M67.968 28.992v40.043M76.027 28.993v40.042"/><path fill="#E6F4EA" d="M83.999 73.875h-24v-4.838h24z"/><path fill="#34A853" d="M48 88c-6.626 0-11.998-5.372-11.998-12V28.477H60v47.525C60 82.628 54.628 88 48 88Z"/><path fill="#E8F0FE" fill-rule="evenodd" d="M51.986 28.477c0 2.17 1.794 3.93 4.007 3.93 2.213 0 4.007-1.76 4.007-3.93 0-.876-.292-1.686-.786-2.34l-7.101-11.485c-1.89-3.055-6.333-3.055-8.222 0l-7.086 11.46A3.865 3.865 0 0 0 36 28.477c0 2.17 1.794 3.93 4.008 3.93 2.191 0 3.972-1.725 4.006-3.867.035 2.141 1.805 3.867 3.985 3.867 2.2 0 3.984-1.759 3.985-3.929h.002Z" clip-rule="evenodd"/><path fill="#202124" d="M46.465 10.478a1.798 1.798 0 0 1 3.06.002l3.713 6.03s-1.453 2.16-5.251 2.16-5.252-2.16-5.252-2.16l3.73-6.032Z"/><path stroke="#202124" stroke-linecap="round" stroke-width="2" d="M43.968 28.992v40.043M52.027 28.993v40.042"/><path fill="#E8F0FE" d="M59.998 73.875H36v-4.838h24z"/><path fill="#4285F4" d="M24 88c-6.626 0-11.999-5.372-11.999-12V28.477H36v47.525C36 82.628 30.628 88 24 88Z"/><path fill="#E6F4EA" fill-rule="evenodd" d="M27.985 28.477c0 2.17 1.795 3.93 4.008 3.93S36 30.647 36 28.477c0-.876-.292-1.686-.786-2.34l-7.101-11.485c-1.89-3.055-6.334-3.055-8.223 0l-7.085 11.46A3.865 3.865 0 0 0 12 28.477c0 2.17 1.794 3.93 4.007 3.93 2.192 0 3.973-1.725 4.007-3.867.035 2.141 1.805 3.867 3.985 3.867 2.2 0 3.983-1.759 3.985-3.929h.001Z" clip-rule="evenodd"/><path fill="#202124" d="M22.465 10.478a1.797 1.797 0 0 1 3.06.002l3.712 6.03s-1.453 2.16-5.25 2.16c-3.799 0-5.252-2.16-5.252-2.16l3.73-6.032Z"/><path stroke="#202124" stroke-linecap="round" stroke-width="2" d="M19.968 28.992v40.043M28.027 28.993v40.042"/><path fill="#E6F4EA" d="M35.999 73.875h-24v-4.838h24z"/></svg>