<svg xmlns="http://www.w3.org/2000/svg" width="97" height="96" fill="none"><path stroke="#fff" stroke-linecap="round" stroke-linejoin="round" stroke-miterlimit="10" stroke-width="5.414" d="M59.996 12C69.657 19.493 76.1 32.796 76.1 47.99c0 14.636-5.952 27.45-14.984 35.081"/><path stroke="#fff" stroke-linecap="round" stroke-linejoin="round" stroke-miterlimit="10" stroke-width="5.414" d="M50.402 21.104c8.123 5.532 13.514 15.474 13.514 26.817 0 10.853-4.971 20.446-12.534 26.118"/><path stroke="#fff" stroke-linecap="round" stroke-linejoin="round" stroke-miterlimit="10" stroke-width="5.414" d="M42.98 30.205c5.112 3.64 8.543 10.152 8.543 17.575 0 7.143-3.151 13.444-7.913 17.156"/><path fill="#fff" d="M31.94 58.92c6.097 0 11.04-4.943 11.04-11.04 0-6.097-4.943-11.04-11.04-11.04-6.097 0-11.04 4.943-11.04 11.04 0 6.097 4.943 11.04 11.04 11.04Z"/></svg>