<svg xmlns="http://www.w3.org/2000/svg" width="96" height="96" fill="none"><path fill="#34A853" fill-rule="evenodd" d="M25.628 20C15.893 20 8 27.892 8 37.629c0 9.736 7.893 17.628 17.628 17.628h.855c.24 0 .373.275.222.461-2.998 3.697-6.855 6.654-11.24 8.66-2.932 1.343-4.821 4.516-3.942 7.62.845 2.985 3.932 4.79 6.822 3.664 7.053-2.749 13.25-7.219 17.933-12.994 5.825-7.183 8.983-15.985 8.983-25.04C45.26 27.892 37.368 20 27.632 20h-2.004ZM68.368 20c-9.736 0-17.629 7.892-17.629 17.629 0 9.736 7.893 17.628 17.629 17.628h.854c.24 0 .373.275.222.461-2.998 3.697-6.854 6.654-11.239 8.66-2.933 1.343-4.822 4.516-3.943 7.62.845 2.985 3.932 4.79 6.822 3.664 7.053-2.749 13.25-7.219 17.933-12.994C84.842 55.486 88 46.684 88 37.629 88 27.892 80.107 20 70.37 20h-2.003Z" clip-rule="evenodd"/></svg>