<svg xmlns="http://www.w3.org/2000/svg" width="97" height="96" fill="none"><path fill="#2A8642" fill-rule="evenodd" d="M26.129 20C16.393 20 8.5 27.892 8.5 37.629c0 9.736 7.893 17.628 17.629 17.628h.854c.24 0 .373.275.222.46-2.998 3.697-6.855 6.654-11.24 8.66-2.932 1.344-4.821 4.516-3.942 7.62.845 2.985 3.932 4.79 6.822 3.664 7.053-2.749 13.25-7.218 17.933-12.993 5.825-7.184 8.983-15.986 8.983-25.04C45.76 27.891 37.868 20 28.132 20h-2.004ZM68.868 20c-9.736 0-17.629 7.892-17.629 17.629 0 9.736 7.893 17.628 17.629 17.628h.854c.24 0 .373.275.222.46-2.998 3.697-6.854 6.654-11.239 8.66-2.933 1.344-4.822 4.516-3.943 7.62.845 2.985 3.932 4.79 6.822 3.664 7.053-2.749 13.25-7.218 17.933-12.993 5.825-7.184 8.983-15.986 8.983-25.04C88.5 27.891 80.607 20 70.87 20h-2.003Z" clip-rule="evenodd"/></svg>