<svg xmlns="http://www.w3.org/2000/svg" width="96" height="96" fill="none"><path fill="#34A853" d="M59.202 24a4 4 0 0 1 4-4h8.8a4 4 0 0 1 4 4v52h-16.8V24ZM20 46.4a4 4 0 0 1 4-4h8.8a4 4 0 0 1 4 4V76H20V46.4Z"/><path fill="#4285F4" d="M39.6 35.2a4 4 0 0 1 4-4h8.8a4 4 0 0 1 4 4V76H39.6V35.2Z"/><path stroke="#174EA6" stroke-width="6" d="m76 35.5-9.811 10.678a4 4 0 0 1-2.946 1.294H34.455a4 4 0 0 0-2.835 1.178L11 69.376m0 0h19m-19 0V52"/><path stroke="#174EA6" stroke-linecap="round" stroke-width="6" d="M11 50.5V55M29.5 69.4H25"/><path fill="#174EA6" d="M86.178 29.063a3 3 0 1 0-4.356-4.126l4.356 4.126Zm-18 19 18-19-4.356-4.126-18 19 4.356 4.126Z"/></svg>