<svg xmlns="http://www.w3.org/2000/svg" width="97" height="96" fill="none"><path fill="#2A8642" d="M59.702 24a4 4 0 0 1 4-4h8.8a4 4 0 0 1 4 4v52h-16.8V24ZM20.5 46.398a4 4 0 0 1 4-4h8.8a4 4 0 0 1 4 4v29.6H20.5v-29.6Z"/><path fill="#356AC3" d="M40.101 35.2a4 4 0 0 1 4-4h8.8a4 4 0 0 1 4 4V76h-16.8V35.2Z"/><path stroke="#AECBFA" stroke-width="6" d="m76.5 35.5-9.811 10.678a4 4 0 0 1-2.946 1.294H34.955a4 4 0 0 0-2.835 1.178L11.5 69.377m0 0h19m-19 0V52"/><path stroke="#AECBFA" stroke-linecap="round" stroke-width="6" d="M11.5 50.5V55M30 69.4h-4.5"/><path fill="#AECBFA" d="M86.678 29.063a3 3 0 1 0-4.356-4.126l4.356 4.126Zm-18 19 18-19-4.356-4.126-18 19 4.356 4.126Z"/></svg>