<svg xmlns="http://www.w3.org/2000/svg" width="97" height="96" fill="none"><rect width="56" height="56" x="32.5" y="8" fill="#AECBFA" rx="8"/><rect width="40" height="40" x="8.5" y="48" fill="#356AC3" rx="8"/><path fill="#132137" d="M61.7 32.928a1.5 1.5 0 1 1 2.121 2.122l-12.02 12.02a1.5 1.5 0 0 1-2.122-2.121l12.02-12.02Z"/><path fill="#132137" d="M54.194 33.99c0 .834.677 1.51 1.511 1.511l5.54.004.003 5.539c0 .834.678 1.511 1.512 1.512.834 0 1.51-.676 1.51-1.51l-.006-7.042v-.007c0-.835-.677-1.511-1.511-1.512l-7.05-.005c-.834 0-1.51.675-1.51 1.51Z"/></svg>