<svg xmlns="http://www.w3.org/2000/svg" width="96" height="96" fill="none"><rect width="56" height="56" x="32" y="8" fill="#174EA6" rx="8"/><rect width="40" height="40" x="8" y="48" fill="#4285F4" rx="8"/><path fill="#E8F0FE" d="M61.2 32.929a1.5 1.5 0 1 1 2.121 2.121l-12.02 12.021a1.5 1.5 0 1 1-2.122-2.121l12.02-12.021Z"/><path fill="#E8F0FE" d="M53.694 33.99c0 .834.677 1.511 1.511 1.512l5.54.004.003 5.539c0 .834.678 1.51 1.512 1.511.834 0 1.51-.675 1.51-1.51l-.006-7.042v-.007c0-.834-.677-1.51-1.511-1.511l-7.05-.005c-.834-.001-1.51.675-1.51 1.51Z"/></svg>