<svg xmlns="http://www.w3.org/2000/svg" width="97" height="96" fill="none"><path fill="#356AC3" fill-rule="evenodd" d="M9.41 43.016a3.789 3.789 0 0 0 5.175 1.387l1.815-1.048a32.202 32.202 0 0 0 36.607 36.26 32.203 32.203 0 0 0 15.703-6.946c1.651-1.353 1.587-3.82.046-5.298-1.54-1.477-3.971-1.396-5.672-.107a24.475 24.475 0 0 1-39.148-21.818l1 1.731a3.789 3.789 0 0 0 6.562-3.788l-5.667-9.817-.016-.027a3.789 3.789 0 0 0-5.175-1.387l-9.844 5.682a3.789 3.789 0 0 0-1.386 5.176Z" clip-rule="evenodd"/><path fill="#2A8642" fill-rule="evenodd" d="M87.59 51.762a3.789 3.789 0 0 0-5.175-1.387L80.6 51.423a32.202 32.202 0 0 0-36.607-36.26 32.204 32.204 0 0 0-15.703 6.946c-1.651 1.352-1.587 3.82-.046 5.297 1.54 1.477 3.971 1.397 5.672.108a24.475 24.475 0 0 1 39.148 21.818l-1-1.732a3.789 3.789 0 0 0-6.562 3.789l5.668 9.816.015.028a3.789 3.789 0 0 0 5.175 1.386l9.844-5.682a3.789 3.789 0 0 0 1.387-5.175Z" clip-rule="evenodd"/></svg>