<svg xmlns="http://www.w3.org/2000/svg" width="97" height="96" fill="none"><path fill="#356AC3" fill-rule="evenodd" d="M65.282 21c13.367 0 24.204 10.837 24.204 24.204v1.075c0 13.367-10.837 24.204-24.204 24.204H45.65l-9.39 9.745c-1.21 1.255-3.331.4-3.331-1.343v-8.402h-1.71c-13.368 0-24.205-10.837-24.205-24.204v-1.075C7.014 31.837 17.851 21 31.22 21h34.063Z" clip-rule="evenodd"/><circle cx="2.581" cy="2.581" r="2.581" fill="#121212" transform="matrix(-1 0 0 1 60.19 43.2)"/><circle cx="2.581" cy="2.581" r="2.581" fill="#121212" transform="matrix(-1 0 0 1 50.9 43.2)"/><circle cx="2.581" cy="2.581" r="2.581" fill="#121212" transform="matrix(-1 0 0 1 41.603 43.2)"/></svg>