<svg xmlns="http://www.w3.org/2000/svg" width="96" height="96" fill="none"><path fill="#4285F4" fill-rule="evenodd" d="M64.782 21c13.367 0 24.204 10.837 24.204 24.204v1.075c0 13.367-10.837 24.204-24.204 24.204h-19.63l-9.393 9.746c-1.209 1.255-3.33.399-3.33-1.344v-8.402h-1.71c-13.368 0-24.205-10.837-24.205-24.204v-1.075C6.514 31.837 17.351 21 30.718 21h34.064Z" clip-rule="evenodd"/><circle cx="2.581" cy="2.581" r="2.581" fill="#fff" transform="matrix(-1 0 0 1 59.69 43.2)"/><circle cx="2.581" cy="2.581" r="2.581" fill="#fff" transform="matrix(-1 0 0 1 50.4 43.2)"/><circle cx="2.581" cy="2.581" r="2.581" fill="#fff" transform="matrix(-1 0 0 1 41.103 43.2)"/></svg>