<svg xmlns="http://www.w3.org/2000/svg" width="96" height="96" fill="none"><path fill="#202124" fill-rule="evenodd" d="M62.742 30.63a1.76 1.76 0 0 1 2.45-.195c1.83 1.529 5.66 5.838 6.687 11.3.175.929-.449 1.82-1.393 1.991-.944.172-1.85-.441-2.025-1.369-.833-4.428-4.056-8.095-5.52-9.318a1.688 1.688 0 0 1-.2-2.408ZM70.653 52.186a1.707 1.707 0 0 1 1.29 2.056c-.554 2.296-2.72 7.608-7.205 10.99a1.759 1.759 0 0 1-2.437-.316 1.689 1.689 0 0 1 .321-2.395c3.636-2.742 5.495-7.229 5.939-9.067.221-.918 1.158-1.486 2.092-1.268Z" clip-rule="evenodd"/><rect width="21.256" height="80" x="37.594" y="8" fill="#34A853" rx="10.628"/><circle cx="48.029" cy="47.42" r="22.029" fill="#4285F4"/><ellipse cx="48.222" cy="47.807" fill="#174EA6" rx="17.971" ry="17.778"/><path fill="#CEEAD6" fill-rule="evenodd" d="M50.614 42.37a1.648 1.648 0 0 1 0-3.295h8.433v8.432a1.648 1.648 0 1 1-3.295 0v-2.43l-2.588 2.587-2.25 2.25-.586.586h-7l-3.914 3.914a2 2 0 0 1-2.828-2.828l4.5-4.5.586-.586h7l1.664-1.664L52.8 42.37h-2.187Z" clip-rule="evenodd"/></svg>