<svg xmlns="http://www.w3.org/2000/svg" width="97" height="96" fill="none"><path fill="#F8F9FA" fill-rule="evenodd" d="M63.242 30.631a1.76 1.76 0 0 1 2.45-.195c1.83 1.528 5.66 5.837 6.687 11.3.175.928-.449 1.82-1.393 1.99-.944.172-1.85-.44-2.025-1.368-.833-4.429-4.056-8.095-5.52-9.319a1.688 1.688 0 0 1-.2-2.408ZM71.153 52.186a1.707 1.707 0 0 1 1.29 2.057c-.554 2.296-2.72 7.607-7.205 10.989a1.759 1.759 0 0 1-2.437-.316 1.689 1.689 0 0 1 .321-2.395c3.636-2.741 5.495-7.229 5.939-9.066.221-.919 1.158-1.486 2.092-1.269Z" clip-rule="evenodd"/><rect width="21.256" height="80" x="38.094" y="8" fill="#2A8642" rx="10.628"/><circle cx="48.529" cy="47.42" r="22.029" fill="#356AC3"/><ellipse cx="48.722" cy="47.807" fill="#AECBFA" rx="17.971" ry="17.778"/><path fill="#103C20" fill-rule="evenodd" d="M51.115 42.37a1.648 1.648 0 1 1 0-3.296h8.432v8.433a1.648 1.648 0 1 1-3.295 0v-2.43l-2.588 2.588-2.25 2.25-.586.586h-7l-3.914 3.914a2 2 0 0 1-2.828-2.829l4.5-4.5.586-.585h7l1.664-1.665 2.467-2.466h-2.188Z" clip-rule="evenodd"/></svg>