<svg xmlns="http://www.w3.org/2000/svg" width="97" height="96" fill="none"><path fill="#F8F9FA" fill-rule="evenodd" d="M62.847 29.494a1.836 1.836 0 0 1 2.557-.204c1.91 1.595 5.907 6.092 6.98 11.794.182.968-.469 1.898-1.454 2.077-.985.18-1.931-.46-2.114-1.429-.869-4.622-4.233-8.448-5.761-9.725a1.762 1.762 0 0 1-.208-2.513ZM71.104 51.99c.975.228 1.578 1.189 1.347 2.147-.578 2.397-2.839 7.94-7.52 11.47-.795.599-1.934.451-2.544-.33-.61-.781-.46-1.9.336-2.5 3.794-2.86 5.735-7.544 6.197-9.463.232-.958 1.21-1.55 2.184-1.323Z" clip-rule="evenodd"/><rect width="23" height="83" x="36.5" y="6" fill="#2A8642" rx="11.5"/><circle cx="47.492" cy="47.017" r="22.992" fill="#356AC3"/><ellipse cx="47.693" cy="47.42" fill="#103C20" rx="18.757" ry="18.555"/><path fill="#121212" d="M66.45 47.42c0-2.437-.485-4.85-1.428-7.1a18.543 18.543 0 0 0-4.066-6.02 18.773 18.773 0 0 0-6.085-4.022 18.935 18.935 0 0 0-7.178-1.413V47.42H66.45Z"/></svg>