<svg width="520" height="208" viewBox="0 0 520 208" fill="none" xmlns="http://www.w3.org/2000/svg">
<rect width="520" height="208" rx="24" fill="#2B2B2B"/>
<path d="M24.27 35.14C23.7847 35.14 23.3413 35.07 22.94 34.93C22.548 34.7807 22.212 34.5753 21.932 34.314C21.652 34.0433 21.4327 33.7213 21.274 33.348C21.1247 32.9653 21.05 32.5453 21.05 32.088V27.832C21.05 27.3653 21.1247 26.9453 21.274 26.572C21.4327 26.1987 21.652 25.8813 21.932 25.62C22.212 25.3493 22.548 25.144 22.94 25.004C23.3413 24.8547 23.7893 24.78 24.284 24.78C25.2173 24.78 25.9687 25.0367 26.538 25.55C27.1073 26.0633 27.4293 26.7633 27.504 27.65H25.964C25.9173 27.174 25.7447 26.8053 25.446 26.544C25.1567 26.2827 24.7693 26.152 24.284 26.152C23.7613 26.152 23.346 26.3013 23.038 26.6C22.7393 26.8987 22.59 27.3093 22.59 27.832V32.088C22.59 32.6107 22.7347 33.0213 23.024 33.32C23.3227 33.6187 23.738 33.768 24.27 33.768C24.7647 33.768 25.1567 33.6373 25.446 33.376C25.7447 33.1053 25.9173 32.7367 25.964 32.27H27.504C27.4667 32.7087 27.364 33.1053 27.196 33.46C27.0373 33.8147 26.818 34.118 26.538 34.37C26.258 34.6127 25.9267 34.804 25.544 34.944C25.1613 35.0747 24.7367 35.14 24.27 35.14ZM32.5945 35.14C32.0999 35.14 31.6519 35.07 31.2505 34.93C30.8585 34.7807 30.5225 34.5753 30.2425 34.314C29.9625 34.0433 29.7432 33.7213 29.5845 33.348C29.4352 32.9747 29.3605 32.5593 29.3605 32.102V30.184C29.3605 29.7267 29.4352 29.3113 29.5845 28.938C29.7432 28.5647 29.9625 28.2473 30.2425 27.986C30.5225 27.7153 30.8585 27.51 31.2505 27.37C31.6519 27.2207 32.0999 27.146 32.5945 27.146C33.0892 27.146 33.5325 27.216 33.9245 27.356C34.3259 27.496 34.6665 27.7013 34.9465 27.972C35.2265 28.2333 35.4412 28.5507 35.5905 28.924C35.7492 29.288 35.8285 29.7033 35.8285 30.17V32.102C35.8285 32.5593 35.7539 32.9793 35.6045 33.362C35.4552 33.7353 35.2405 34.0527 34.9605 34.314C34.6805 34.5753 34.3399 34.7807 33.9385 34.93C33.5372 35.07 33.0892 35.14 32.5945 35.14ZM30.9005 32.102C30.9005 32.6247 31.0499 33.0353 31.3485 33.334C31.6472 33.6327 32.0625 33.782 32.5945 33.782C33.1172 33.782 33.5279 33.6327 33.8265 33.334C34.1345 33.0353 34.2885 32.6247 34.2885 32.102V30.184C34.2885 29.6613 34.1345 29.2507 33.8265 28.952C33.5279 28.6533 33.1172 28.504 32.5945 28.504C32.0719 28.504 31.6565 28.6533 31.3485 28.952C31.0499 29.2507 30.9005 29.6613 30.9005 30.184V32.102ZM37.5591 35V27.3H38.8331V28.434H38.9451C38.9731 28.0327 39.0944 27.72 39.3091 27.496C39.5331 27.272 39.8317 27.16 40.2051 27.16C40.5597 27.16 40.8397 27.2673 41.0451 27.482C41.2504 27.6967 41.3997 28.014 41.4931 28.434H41.5911C41.6191 28.0327 41.7451 27.72 41.9691 27.496C42.1931 27.272 42.4964 27.16 42.8791 27.16C43.3457 27.16 43.7191 27.3373 43.9991 27.692C44.2884 28.0373 44.4331 28.518 44.4331 29.134V35H43.0191V29.204C43.0191 28.9053 42.9584 28.6767 42.8371 28.518C42.7157 28.3593 42.5384 28.28 42.3051 28.28C41.8104 28.28 41.5631 28.6067 41.5631 29.26V35H40.4291V29.204C40.4291 28.9053 40.3637 28.6767 40.2331 28.518C40.1024 28.3593 39.9157 28.28 39.6731 28.28C39.1877 28.28 38.9451 28.6067 38.9451 29.26V35H37.5591ZM46.3036 27.3H47.7736V28.63H47.8856C47.9883 28.1633 48.2216 27.804 48.5856 27.552C48.9589 27.2907 49.4256 27.16 49.9856 27.16C50.3776 27.16 50.7369 27.23 51.0636 27.37C51.3903 27.51 51.6656 27.7107 51.8896 27.972C52.1229 28.2333 52.3003 28.5507 52.4216 28.924C52.5523 29.288 52.6176 29.7033 52.6176 30.17V32.102C52.6176 32.5687 52.5523 32.9933 52.4216 33.376C52.3003 33.7493 52.1229 34.0667 51.8896 34.328C51.6656 34.5893 51.3903 34.79 51.0636 34.93C50.7369 35.07 50.3776 35.14 49.9856 35.14C49.4256 35.14 48.9589 35.014 48.5856 34.762C48.2216 34.5007 47.9883 34.1367 47.8856 33.67H47.7736C47.7736 33.6793 47.7783 33.7307 47.7876 33.824C47.7969 33.9173 47.8016 34.0293 47.8016 34.16C47.8109 34.2907 47.8203 34.4307 47.8296 34.58C47.8389 34.7293 47.8436 34.8693 47.8436 35V37.38H46.3036V27.3ZM47.8436 30.198V32.102C47.8436 32.6153 47.9836 33.026 48.2636 33.334C48.5529 33.642 48.9403 33.796 49.4256 33.796C49.9389 33.796 50.3403 33.642 50.6296 33.334C50.9283 33.026 51.0776 32.6107 51.0776 32.088V30.198C51.0776 29.666 50.9283 29.2507 50.6296 28.952C50.3403 28.644 49.9389 28.49 49.4256 28.49C48.9496 28.49 48.5669 28.644 48.2776 28.952C47.9883 29.26 47.8436 29.6753 47.8436 30.198ZM57.7781 35.14C57.2835 35.14 56.8355 35.07 56.4341 34.93C56.0421 34.7807 55.7061 34.5753 55.4261 34.314C55.1461 34.0433 54.9268 33.7213 54.7681 33.348C54.6188 32.9747 54.5441 32.5593 54.5441 32.102V30.184C54.5441 29.7267 54.6188 29.3113 54.7681 28.938C54.9268 28.5647 55.1461 28.2473 55.4261 27.986C55.7061 27.7153 56.0421 27.51 56.4341 27.37C56.8355 27.2207 57.2835 27.146 57.7781 27.146C58.2728 27.146 58.7161 27.216 59.1081 27.356C59.5095 27.496 59.8501 27.7013 60.1301 27.972C60.4101 28.2333 60.6248 28.5507 60.7741 28.924C60.9328 29.288 61.0121 29.7033 61.0121 30.17V32.102C61.0121 32.5593 60.9375 32.9793 60.7881 33.362C60.6388 33.7353 60.4241 34.0527 60.1441 34.314C59.8641 34.5753 59.5235 34.7807 59.1221 34.93C58.7208 35.07 58.2728 35.14 57.7781 35.14ZM56.0841 32.102C56.0841 32.6247 56.2335 33.0353 56.5321 33.334C56.8308 33.6327 57.2461 33.782 57.7781 33.782C58.3008 33.782 58.7115 33.6327 59.0101 33.334C59.3181 33.0353 59.4721 32.6247 59.4721 32.102V30.184C59.4721 29.6613 59.3181 29.2507 59.0101 28.952C58.7115 28.6533 58.3008 28.504 57.7781 28.504C57.2555 28.504 56.8401 28.6533 56.5321 28.952C56.2335 29.2507 56.0841 29.6613 56.0841 30.184V32.102ZM62.8967 33.068H64.4927C64.5487 33.32 64.7027 33.5207 64.9547 33.67C65.216 33.8193 65.5333 33.894 65.9067 33.894H66.4107C66.868 33.894 67.2227 33.8007 67.4747 33.614C67.736 33.4273 67.8667 33.1707 67.8667 32.844C67.8667 32.284 67.456 31.948 66.6347 31.836L65.5147 31.682C64.684 31.57 64.068 31.332 63.6667 30.968C63.2747 30.5947 63.0787 30.072 63.0787 29.4C63.0787 28.6907 63.326 28.14 63.8207 27.748C64.3247 27.356 65.0387 27.16 65.9627 27.16H66.4527C67.2647 27.16 67.9227 27.342 68.4267 27.706C68.94 28.0607 69.2433 28.546 69.3367 29.162H67.7547C67.6987 28.9287 67.554 28.7467 67.3207 28.616C67.0873 28.476 66.798 28.406 66.4527 28.406H65.9627C65.524 28.406 65.188 28.49 64.9547 28.658C64.7213 28.8167 64.6047 29.0593 64.6047 29.386C64.6047 29.6567 64.6887 29.8667 64.8567 30.016C65.034 30.1653 65.314 30.2633 65.6967 30.31L66.8447 30.464C67.722 30.5853 68.366 30.8327 68.7767 31.206C69.1873 31.5793 69.3927 32.1113 69.3927 32.802C69.3927 33.5487 69.136 34.1273 68.6227 34.538C68.1093 34.9393 67.372 35.14 66.4107 35.14H65.9067C65.048 35.14 64.348 34.958 63.8067 34.594C63.2747 34.2207 62.9713 33.712 62.8967 33.068ZM71.3332 30.142C71.3332 29.6847 71.4079 29.274 71.5572 28.91C71.7065 28.5367 71.9212 28.224 72.2012 27.972C72.4812 27.7107 72.8219 27.51 73.2232 27.37C73.6245 27.23 74.0725 27.16 74.5672 27.16C75.0619 27.16 75.5052 27.23 75.8972 27.37C76.2985 27.51 76.6392 27.7107 76.9192 27.972C77.1992 28.224 77.4139 28.5367 77.5632 28.91C77.7125 29.274 77.7872 29.6847 77.7872 30.142V31.556H72.8592V32.102C72.8592 32.6527 73.0085 33.082 73.3072 33.39C73.6152 33.698 74.0352 33.852 74.5672 33.852C74.9592 33.852 75.2999 33.7913 75.5892 33.67C75.8785 33.5487 76.0885 33.3667 76.2192 33.124H77.7312C77.6472 33.432 77.5119 33.712 77.3252 33.964C77.1385 34.2067 76.9052 34.4167 76.6252 34.594C76.3545 34.7713 76.0419 34.9067 75.6872 35C75.3419 35.0933 74.9685 35.14 74.5672 35.14C74.0725 35.14 73.6245 35.07 73.2232 34.93C72.8312 34.79 72.4952 34.5893 72.2152 34.328C71.9352 34.0667 71.7159 33.754 71.5572 33.39C71.4079 33.0167 71.3332 32.6013 71.3332 32.144V30.142ZM72.8592 30.436H76.2752V30.142C76.2752 29.61 76.1259 29.1947 75.8272 28.896C75.5285 28.5973 75.1085 28.448 74.5672 28.448C74.0259 28.448 73.6059 28.5973 73.3072 28.896C73.0085 29.1947 72.8592 29.61 72.8592 30.142V30.436ZM79.2237 24.92H80.8197L82.6817 32.592C82.7284 32.7693 82.7657 32.942 82.7937 33.11C82.8217 33.278 82.8451 33.4273 82.8637 33.558C82.8824 33.7073 82.9011 33.8473 82.9197 33.978H82.9897C83.0084 33.8473 83.0317 33.7073 83.0597 33.558C83.1064 33.2687 83.1717 32.9467 83.2557 32.592L85.1177 24.92H86.6997L83.9837 35H81.8697L79.2237 24.92ZM88.4023 33.6H91.1743V28.686H88.7523V27.3H92.6723V33.6H94.9263V35H88.4023V33.6ZM90.6143 25.186C90.6143 24.9153 90.6983 24.7007 90.8663 24.542C91.0436 24.374 91.2769 24.29 91.5663 24.29H91.9023C92.1916 24.29 92.4203 24.374 92.5883 24.542C92.7656 24.7007 92.8543 24.9153 92.8543 25.186C92.8543 25.4567 92.7656 25.6713 92.5883 25.83C92.4203 25.9887 92.1869 26.068 91.8883 26.068H91.5663C91.2769 26.068 91.0436 25.9887 90.8663 25.83C90.6983 25.6713 90.6143 25.4567 90.6143 25.186ZM96.5168 30.142C96.5168 29.6847 96.5914 29.274 96.7408 28.91C96.8901 28.5367 97.1048 28.224 97.3848 27.972C97.6648 27.7107 98.0054 27.51 98.4068 27.37C98.8081 27.23 99.2561 27.16 99.7508 27.16C100.245 27.16 100.689 27.23 101.081 27.37C101.482 27.51 101.823 27.7107 102.103 27.972C102.383 28.224 102.597 28.5367 102.747 28.91C102.896 29.274 102.971 29.6847 102.971 30.142V31.556H98.0428V32.102C98.0428 32.6527 98.1921 33.082 98.4908 33.39C98.7988 33.698 99.2188 33.852 99.7508 33.852C100.143 33.852 100.483 33.7913 100.773 33.67C101.062 33.5487 101.272 33.3667 101.403 33.124H102.915C102.831 33.432 102.695 33.712 102.509 33.964C102.322 34.2067 102.089 34.4167 101.809 34.594C101.538 34.7713 101.225 34.9067 100.871 35C100.525 35.0933 100.152 35.14 99.7508 35.14C99.2561 35.14 98.8081 35.07 98.4068 34.93C98.0148 34.79 97.6788 34.5893 97.3988 34.328C97.1188 34.0667 96.8994 33.754 96.7408 33.39C96.5914 33.0167 96.5168 32.6013 96.5168 32.144V30.142ZM98.0428 30.436H101.459V30.142C101.459 29.61 101.309 29.1947 101.011 28.896C100.712 28.5973 100.292 28.448 99.7508 28.448C99.2094 28.448 98.7894 28.5973 98.4908 28.896C98.1921 29.1947 98.0428 29.61 98.0428 30.142V30.436ZM105.541 27.3L106.185 32.298C106.204 32.4567 106.218 32.6433 106.227 32.858C106.246 33.0727 106.265 33.278 106.283 33.474C106.302 33.7073 106.321 33.9407 106.339 34.174H106.493C106.521 33.9407 106.549 33.7073 106.577 33.474C106.596 33.278 106.619 33.0727 106.647 32.858C106.675 32.6433 106.703 32.4567 106.731 32.298L107.515 27.3H108.761L109.559 32.298C109.587 32.466 109.611 32.6573 109.629 32.872C109.657 33.0867 109.681 33.292 109.699 33.488C109.727 33.712 109.751 33.9407 109.769 34.174H109.937C109.956 33.9407 109.975 33.712 109.993 33.488C110.012 33.292 110.031 33.0867 110.049 32.872C110.077 32.648 110.101 32.4567 110.119 32.298L110.763 27.3H112.023L110.945 35H109.083L108.327 29.82C108.309 29.6707 108.29 29.5027 108.271 29.316C108.262 29.1293 108.253 28.9567 108.243 28.798C108.243 28.6113 108.243 28.42 108.243 28.224H108.061C108.061 28.42 108.057 28.6113 108.047 28.798C108.038 28.9567 108.024 29.1293 108.005 29.316C107.996 29.5027 107.982 29.6707 107.963 29.82L107.165 35H105.331L104.267 27.3H105.541ZM114.79 28.63C114.79 27.958 114.888 27.328 115.084 26.74C115.289 26.1427 115.579 25.6107 115.952 25.144C116.325 24.6773 116.778 24.276 117.31 23.94C117.851 23.5947 118.458 23.338 119.13 23.17V24.654C118.701 24.7567 118.313 24.9293 117.968 25.172C117.623 25.4053 117.329 25.6947 117.086 26.04C116.843 26.376 116.657 26.7633 116.526 27.202C116.395 27.6407 116.33 28.1167 116.33 28.63V31.29C116.33 32.3073 116.577 33.166 117.072 33.866C117.576 34.5567 118.262 35.0047 119.13 35.21V36.75C117.739 36.3953 116.666 35.7467 115.91 34.804C115.163 33.852 114.79 32.6807 114.79 31.29V28.63ZM123.618 27.3V28.63H123.744C123.847 28.1633 124.085 27.804 124.458 27.552C124.841 27.2907 125.317 27.16 125.886 27.16C126.708 27.16 127.352 27.4167 127.818 27.93C128.285 28.434 128.518 29.1387 128.518 30.044V30.548H126.936V30.198C126.936 29.6567 126.792 29.2367 126.502 28.938C126.213 28.63 125.816 28.476 125.312 28.476C124.818 28.476 124.426 28.63 124.136 28.938C123.847 29.246 123.702 29.666 123.702 30.198V35H122.162V27.3H123.618ZM130.095 30.142C130.095 29.6847 130.17 29.274 130.319 28.91C130.468 28.5367 130.683 28.224 130.963 27.972C131.243 27.7107 131.584 27.51 131.985 27.37C132.386 27.23 132.834 27.16 133.329 27.16C133.824 27.16 134.267 27.23 134.659 27.37C135.06 27.51 135.401 27.7107 135.681 27.972C135.961 28.224 136.176 28.5367 136.325 28.91C136.474 29.274 136.549 29.6847 136.549 30.142V31.556H131.621V32.102C131.621 32.6527 131.77 33.082 132.069 33.39C132.377 33.698 132.797 33.852 133.329 33.852C133.721 33.852 134.062 33.7913 134.351 33.67C134.64 33.5487 134.85 33.3667 134.981 33.124H136.493C136.409 33.432 136.274 33.712 136.087 33.964C135.9 34.2067 135.667 34.4167 135.387 34.594C135.116 34.7713 134.804 34.9067 134.449 35C134.104 35.0933 133.73 35.14 133.329 35.14C132.834 35.14 132.386 35.07 131.985 34.93C131.593 34.79 131.257 34.5893 130.977 34.328C130.697 34.0667 130.478 33.754 130.319 33.39C130.17 33.0167 130.095 32.6013 130.095 32.144V30.142ZM131.621 30.436H135.037V30.142C135.037 29.61 134.888 29.1947 134.589 28.896C134.29 28.5973 133.87 28.448 133.329 28.448C132.788 28.448 132.368 28.5973 132.069 28.896C131.77 29.1947 131.621 29.61 131.621 30.142V30.436ZM138.573 30.072C138.573 29.6333 138.634 29.2367 138.755 28.882C138.886 28.518 139.063 28.21 139.287 27.958C139.521 27.706 139.796 27.51 140.113 27.37C140.44 27.23 140.799 27.16 141.191 27.16C141.751 27.16 142.213 27.2907 142.577 27.552C142.951 27.804 143.189 28.1633 143.291 28.63H143.417V27.3H144.887V37.38H143.347V35C143.347 34.8693 143.352 34.7293 143.361 34.58C143.371 34.4307 143.375 34.2907 143.375 34.16C143.385 34.0293 143.394 33.9173 143.403 33.824C143.413 33.7307 143.417 33.6793 143.417 33.67H143.291C143.189 34.1367 142.951 34.5007 142.577 34.762C142.213 35.014 141.751 35.14 141.191 35.14C140.799 35.14 140.44 35.07 140.113 34.93C139.796 34.79 139.521 34.594 139.287 34.342C139.063 34.0807 138.886 33.7727 138.755 33.418C138.634 33.054 138.573 32.648 138.573 32.2V30.072ZM140.113 32.088C140.113 32.6107 140.258 33.026 140.547 33.334C140.837 33.642 141.238 33.796 141.751 33.796C142.237 33.796 142.624 33.642 142.913 33.334C143.203 33.026 143.347 32.6153 143.347 32.102V30.198C143.347 29.6753 143.198 29.26 142.899 28.952C142.61 28.644 142.227 28.49 141.751 28.49C141.238 28.49 140.837 28.644 140.547 28.952C140.258 29.2507 140.113 29.666 140.113 30.198V32.088ZM148.606 27.3V32.186C148.606 33.2593 149.105 33.796 150.104 33.796C151.121 33.796 151.63 33.2593 151.63 32.186V27.3H153.17V32.186C153.17 33.1287 152.904 33.8567 152.372 34.37C151.84 34.8833 151.084 35.14 150.104 35.14C149.143 35.14 148.396 34.8833 147.864 34.37C147.332 33.8473 147.066 33.1193 147.066 32.186V27.3H148.606ZM155.559 33.6H158.331V28.686H155.909V27.3H159.829V33.6H162.083V35H155.559V33.6ZM157.771 25.186C157.771 24.9153 157.855 24.7007 158.023 24.542C158.2 24.374 158.433 24.29 158.723 24.29H159.059C159.348 24.29 159.577 24.374 159.745 24.542C159.922 24.7007 160.011 24.9153 160.011 25.186C160.011 25.4567 159.922 25.6713 159.745 25.83C159.577 25.9887 159.343 26.068 159.045 26.068H158.723C158.433 26.068 158.2 25.9887 158.023 25.83C157.855 25.6713 157.771 25.4567 157.771 25.186ZM165.591 27.3V28.63H165.717C165.82 28.1633 166.058 27.804 166.431 27.552C166.814 27.2907 167.29 27.16 167.859 27.16C168.68 27.16 169.324 27.4167 169.791 27.93C170.258 28.434 170.491 29.1387 170.491 30.044V30.548H168.909V30.198C168.909 29.6567 168.764 29.2367 168.475 28.938C168.186 28.63 167.789 28.476 167.285 28.476C166.79 28.476 166.398 28.63 166.109 28.938C165.82 29.246 165.675 29.666 165.675 30.198V35H164.135V27.3H165.591ZM172.068 30.142C172.068 29.6847 172.142 29.274 172.292 28.91C172.441 28.5367 172.656 28.224 172.936 27.972C173.216 27.7107 173.556 27.51 173.958 27.37C174.359 27.23 174.807 27.16 175.302 27.16C175.796 27.16 176.24 27.23 176.632 27.37C177.033 27.51 177.374 27.7107 177.654 27.972C177.934 28.224 178.148 28.5367 178.298 28.91C178.447 29.274 178.522 29.6847 178.522 30.142V31.556H173.594V32.102C173.594 32.6527 173.743 33.082 174.042 33.39C174.35 33.698 174.77 33.852 175.302 33.852C175.694 33.852 176.034 33.7913 176.324 33.67C176.613 33.5487 176.823 33.3667 176.954 33.124H178.466C178.382 33.432 178.246 33.712 178.06 33.964C177.873 34.2067 177.64 34.4167 177.36 34.594C177.089 34.7713 176.776 34.9067 176.422 35C176.076 35.0933 175.703 35.14 175.302 35.14C174.807 35.14 174.359 35.07 173.958 34.93C173.566 34.79 173.23 34.5893 172.95 34.328C172.67 34.0667 172.45 33.754 172.292 33.39C172.142 33.0167 172.068 32.6013 172.068 32.144V30.142ZM173.594 30.436H177.01V30.142C177.01 29.61 176.86 29.1947 176.562 28.896C176.263 28.5973 175.843 28.448 175.302 28.448C174.76 28.448 174.34 28.5973 174.042 28.896C173.743 29.1947 173.594 29.61 173.594 30.142V30.436ZM183.766 35.14C183.281 35.14 182.837 35.07 182.436 34.93C182.044 34.7807 181.708 34.5753 181.428 34.314C181.148 34.0433 180.929 33.7213 180.77 33.348C180.621 32.9653 180.546 32.5453 180.546 32.088V27.832C180.546 27.3653 180.621 26.9453 180.77 26.572C180.929 26.1987 181.148 25.8813 181.428 25.62C181.708 25.3493 182.044 25.144 182.436 25.004C182.837 24.8547 183.285 24.78 183.78 24.78C184.713 24.78 185.465 25.0367 186.034 25.55C186.603 26.0633 186.925 26.7633 187 27.65H185.46C185.413 27.174 185.241 26.8053 184.942 26.544C184.653 26.2827 184.265 26.152 183.78 26.152C183.257 26.152 182.842 26.3013 182.534 26.6C182.235 26.8987 182.086 27.3093 182.086 27.832V32.088C182.086 32.6107 182.231 33.0213 182.52 33.32C182.819 33.6187 183.234 33.768 183.766 33.768C184.261 33.768 184.653 33.6373 184.942 33.376C185.241 33.1053 185.413 32.7367 185.46 32.27H187C186.963 32.7087 186.86 33.1053 186.692 33.46C186.533 33.8147 186.314 34.118 186.034 34.37C185.754 34.6127 185.423 34.804 185.04 34.944C184.657 35.0747 184.233 35.14 183.766 35.14ZM192.091 35.14C191.596 35.14 191.148 35.07 190.747 34.93C190.355 34.7807 190.019 34.5753 189.739 34.314C189.459 34.0433 189.239 33.7213 189.081 33.348C188.931 32.9747 188.857 32.5593 188.857 32.102V30.184C188.857 29.7267 188.931 29.3113 189.081 28.938C189.239 28.5647 189.459 28.2473 189.739 27.986C190.019 27.7153 190.355 27.51 190.747 27.37C191.148 27.2207 191.596 27.146 192.091 27.146C192.585 27.146 193.029 27.216 193.421 27.356C193.822 27.496 194.163 27.7013 194.443 27.972C194.723 28.2333 194.937 28.5507 195.087 28.924C195.245 29.288 195.325 29.7033 195.325 30.17V32.102C195.325 32.5593 195.25 32.9793 195.101 33.362C194.951 33.7353 194.737 34.0527 194.457 34.314C194.177 34.5753 193.836 34.7807 193.435 34.93C193.033 35.07 192.585 35.14 192.091 35.14ZM190.397 32.102C190.397 32.6247 190.546 33.0353 190.845 33.334C191.143 33.6327 191.559 33.782 192.091 33.782C192.613 33.782 193.024 33.6327 193.323 33.334C193.631 33.0353 193.785 32.6247 193.785 32.102V30.184C193.785 29.6613 193.631 29.2507 193.323 28.952C193.024 28.6533 192.613 28.504 192.091 28.504C191.568 28.504 191.153 28.6533 190.845 28.952C190.546 29.2507 190.397 29.6613 190.397 30.184V32.102ZM197.391 27.3H198.847V28.63H198.973C199.076 28.154 199.304 27.79 199.659 27.538C200.014 27.286 200.471 27.16 201.031 27.16C201.432 27.16 201.787 27.23 202.095 27.37C202.412 27.5007 202.678 27.6873 202.893 27.93C203.117 28.1727 203.285 28.4667 203.397 28.812C203.509 29.148 203.565 29.5213 203.565 29.932V35H202.025V30.142C202.025 29.61 201.89 29.1993 201.619 28.91C201.348 28.6207 200.975 28.476 200.499 28.476C200.014 28.476 199.631 28.63 199.351 28.938C199.071 29.246 198.931 29.666 198.931 30.198V35H197.391V27.3ZM205.408 27.3H207.578V24.92H209.118V27.3H212.072V28.686H209.118V32.788C209.118 33.04 209.192 33.2407 209.342 33.39C209.491 33.53 209.701 33.6 209.972 33.6H211.932V35H209.902C209.183 35 208.614 34.7993 208.194 34.398C207.783 33.9967 207.578 33.46 207.578 32.788V28.686H205.408V27.3ZM214.04 30.142C214.04 29.6847 214.115 29.274 214.264 28.91C214.414 28.5367 214.628 28.224 214.908 27.972C215.188 27.7107 215.529 27.51 215.93 27.37C216.332 27.23 216.78 27.16 217.274 27.16C217.769 27.16 218.212 27.23 218.604 27.37C219.006 27.51 219.346 27.7107 219.626 27.972C219.906 28.224 220.121 28.5367 220.27 28.91C220.42 29.274 220.494 29.6847 220.494 30.142V31.556H215.566V32.102C215.566 32.6527 215.716 33.082 216.014 33.39C216.322 33.698 216.742 33.852 217.274 33.852C217.666 33.852 218.007 33.7913 218.296 33.67C218.586 33.5487 218.796 33.3667 218.926 33.124H220.438C220.354 33.432 220.219 33.712 220.032 33.964C219.846 34.2067 219.612 34.4167 219.332 34.594C219.062 34.7713 218.749 34.9067 218.394 35C218.049 35.0933 217.676 35.14 217.274 35.14C216.78 35.14 216.332 35.07 215.93 34.93C215.538 34.79 215.202 34.5893 214.922 34.328C214.642 34.0667 214.423 33.754 214.264 33.39C214.115 33.0167 214.04 32.6013 214.04 32.144V30.142ZM215.566 30.436H218.982V30.142C218.982 29.61 218.833 29.1947 218.534 28.896C218.236 28.5973 217.816 28.448 217.274 28.448C216.733 28.448 216.313 28.5973 216.014 28.896C215.716 29.1947 215.566 29.61 215.566 30.142V30.436ZM224.787 31.038L222.183 27.3H223.975L225.403 29.47C225.487 29.582 225.547 29.6987 225.585 29.82C225.613 29.876 225.631 29.9273 225.641 29.974H225.711C225.72 29.9273 225.739 29.876 225.767 29.82C225.795 29.7267 225.855 29.61 225.949 29.47L227.391 27.3H229.155L226.565 31.024L229.323 35H227.531L225.977 32.634C225.93 32.5687 225.888 32.5033 225.851 32.438C225.823 32.3727 225.799 32.3167 225.781 32.27C225.753 32.214 225.729 32.158 225.711 32.102H225.627C225.608 32.158 225.585 32.2187 225.557 32.284C225.538 32.3307 225.515 32.3867 225.487 32.452C225.459 32.508 225.421 32.5687 225.375 32.634L223.793 35H222.015L224.787 31.038ZM230.591 27.3H232.761V24.92H234.301V27.3H237.255V28.686H234.301V32.788C234.301 33.04 234.376 33.2407 234.525 33.39C234.675 33.53 234.885 33.6 235.155 33.6H237.115V35H235.085C234.367 35 233.797 34.7993 233.377 34.398C232.967 33.9967 232.761 33.46 232.761 32.788V28.686H230.591V27.3ZM240.708 28.63C240.708 27.958 240.806 27.328 241.002 26.74C241.207 26.1427 241.496 25.6107 241.87 25.144C242.243 24.6773 242.696 24.276 243.228 23.94C243.769 23.5947 244.376 23.338 245.048 23.17V24.654C244.618 24.7567 244.231 24.9293 243.886 25.172C243.54 25.4053 243.246 25.6947 243.004 26.04C242.761 26.376 242.574 26.7633 242.444 27.202C242.313 27.6407 242.248 28.1167 242.248 28.63V31.29C242.248 32.3073 242.495 33.166 242.99 33.866C243.494 34.5567 244.18 35.0047 245.048 35.21V36.75C243.657 36.3953 242.584 35.7467 241.828 34.804C241.081 33.852 240.708 32.6807 240.708 31.29V28.63ZM248.262 23.17C248.934 23.338 249.536 23.5947 250.068 23.94C250.61 24.276 251.067 24.6773 251.44 25.144C251.814 25.6107 252.098 26.1427 252.294 26.74C252.5 27.328 252.602 27.958 252.602 28.63V31.29C252.602 32.6807 252.224 33.852 251.468 34.804C250.722 35.7467 249.653 36.3953 248.262 36.75V35.21C249.13 35.0047 249.812 34.5567 250.306 33.866C250.81 33.166 251.062 32.3073 251.062 31.29V28.63C251.062 28.1167 250.997 27.6407 250.866 27.202C250.736 26.7633 250.549 26.376 250.306 26.04C250.064 25.6947 249.77 25.4053 249.424 25.172C249.079 24.9293 248.692 24.7567 248.262 24.654V23.17ZM256.657 23.17C257.329 23.338 257.931 23.5947 258.463 23.94C259.004 24.276 259.462 24.6773 259.835 25.144C260.208 25.6107 260.493 26.1427 260.689 26.74C260.894 27.328 260.997 27.958 260.997 28.63V31.29C260.997 32.6807 260.619 33.852 259.863 34.804C259.116 35.7467 258.048 36.3953 256.657 36.75V35.21C257.525 35.0047 258.206 34.5567 258.701 33.866C259.205 33.166 259.457 32.3073 259.457 31.29V28.63C259.457 28.1167 259.392 27.6407 259.261 27.202C259.13 26.7633 258.944 26.376 258.701 26.04C258.458 25.6947 258.164 25.4053 257.819 25.172C257.474 24.9293 257.086 24.7567 256.657 24.654V23.17ZM266.353 33.824C266.353 33.432 266.47 33.1193 266.703 32.886C266.937 32.6433 267.249 32.522 267.641 32.522C268.033 32.522 268.346 32.6433 268.579 32.886C268.813 33.1193 268.929 33.432 268.929 33.824C268.929 34.216 268.813 34.5333 268.579 34.776C268.346 35.0187 268.033 35.14 267.641 35.14C267.249 35.14 266.937 35.0187 266.703 34.776C266.47 34.5333 266.353 34.216 266.353 33.824ZM324.961 29.274C325.465 29.274 325.806 29.1713 325.983 28.966C326.16 28.7607 326.24 28.4433 326.221 28.014L326.081 25.774C326.034 25.018 326.244 24.43 326.711 24.01C327.187 23.59 327.831 23.38 328.643 23.38H329.455V24.78H328.783C328.391 24.78 328.092 24.8687 327.887 25.046C327.691 25.2233 327.602 25.494 327.621 25.858L327.761 28.112C327.798 28.6253 327.658 29.05 327.341 29.386C327.033 29.722 326.604 29.8993 326.053 29.918V29.988C326.613 30.0067 327.047 30.1933 327.355 30.548C327.663 30.8933 327.798 31.3227 327.761 31.836L327.621 34.062C327.602 34.4167 327.696 34.6873 327.901 34.874C328.106 35.0607 328.4 35.154 328.783 35.154H329.455V36.54H328.643C327.831 36.54 327.187 36.3253 326.711 35.896C326.244 35.476 326.034 34.888 326.081 34.132L326.221 31.934C326.24 31.5047 326.16 31.1873 325.983 30.982C325.806 30.7767 325.465 30.674 324.961 30.674H323.351V29.274H324.961ZM54.5021 54.068H56.0981C56.1541 54.32 56.3081 54.5207 56.5601 54.67C56.8215 54.8193 57.1388 54.894 57.5121 54.894H58.0161C58.4735 54.894 58.8281 54.8007 59.0801 54.614C59.3415 54.4273 59.4721 54.1707 59.4721 53.844C59.4721 53.284 59.0615 52.948 58.2401 52.836L57.1201 52.682C56.2895 52.57 55.6735 52.332 55.2721 51.968C54.8801 51.5947 54.6841 51.072 54.6841 50.4C54.6841 49.6907 54.9315 49.14 55.4261 48.748C55.9301 48.356 56.6441 48.16 57.5681 48.16H58.0581C58.8701 48.16 59.5281 48.342 60.0321 48.706C60.5455 49.0607 60.8488 49.546 60.9421 50.162H59.3601C59.3041 49.9287 59.1595 49.7467 58.9261 49.616C58.6928 49.476 58.4035 49.406 58.0581 49.406H57.5681C57.1295 49.406 56.7935 49.49 56.5601 49.658C56.3268 49.8167 56.2101 50.0593 56.2101 50.386C56.2101 50.6567 56.2941 50.8667 56.4621 51.016C56.6395 51.1653 56.9195 51.2633 57.3021 51.31L58.4501 51.464C59.3275 51.5853 59.9715 51.8327 60.3821 52.206C60.7928 52.5793 60.9981 53.1113 60.9981 53.802C60.9981 54.5487 60.7415 55.1273 60.2281 55.538C59.7148 55.9393 58.9775 56.14 58.0161 56.14H57.5121C56.6535 56.14 55.9535 55.958 55.4121 55.594C54.8801 55.2207 54.5768 54.712 54.5021 54.068ZM62.9387 51.142C62.9387 50.6847 63.0133 50.274 63.1627 49.91C63.312 49.5367 63.5267 49.224 63.8067 48.972C64.0867 48.7107 64.4273 48.51 64.8287 48.37C65.23 48.23 65.678 48.16 66.1727 48.16C66.6673 48.16 67.1107 48.23 67.5027 48.37C67.904 48.51 68.2447 48.7107 68.5247 48.972C68.8047 49.224 69.0193 49.5367 69.1687 49.91C69.318 50.274 69.3927 50.6847 69.3927 51.142V52.556H64.4647V53.102C64.4647 53.6527 64.614 54.082 64.9127 54.39C65.2207 54.698 65.6407 54.852 66.1727 54.852C66.5647 54.852 66.9053 54.7913 67.1947 54.67C67.484 54.5487 67.694 54.3667 67.8247 54.124H69.3367C69.2527 54.432 69.1173 54.712 68.9307 54.964C68.744 55.2067 68.5107 55.4167 68.2307 55.594C67.96 55.7713 67.6473 55.9067 67.2927 56C66.9473 56.0933 66.574 56.14 66.1727 56.14C65.678 56.14 65.23 56.07 64.8287 55.93C64.4367 55.79 64.1007 55.5893 63.8207 55.328C63.5407 55.0667 63.3213 54.754 63.1627 54.39C63.0133 54.0167 62.9387 53.6013 62.9387 53.144V51.142ZM64.4647 51.436H67.8807V51.142C67.8807 50.61 67.7313 50.1947 67.4327 49.896C67.134 49.5973 66.714 49.448 66.1727 49.448C65.6313 49.448 65.2113 49.5973 64.9127 49.896C64.614 50.1947 64.4647 50.61 64.4647 51.142V51.436ZM71.0952 48.3H73.2652V45.92H74.8052V48.3H77.7592V49.686H74.8052V53.788C74.8052 54.04 74.8799 54.2407 75.0292 54.39C75.1785 54.53 75.3885 54.6 75.6592 54.6H77.6192V56H75.5892C74.8705 56 74.3012 55.7993 73.8812 55.398C73.4705 54.9967 73.2652 54.46 73.2652 53.788V49.686H71.0952V48.3ZM83.0317 56.14C82.5464 56.14 82.1031 56.07 81.7017 55.93C81.3097 55.7807 80.9737 55.5753 80.6937 55.314C80.4137 55.0433 80.1944 54.7213 80.0357 54.348C79.8864 53.9653 79.8117 53.5453 79.8117 53.088V48.832C79.8117 48.3653 79.8864 47.9453 80.0357 47.572C80.1944 47.1987 80.4137 46.8813 80.6937 46.62C80.9737 46.3493 81.3097 46.144 81.7017 46.004C82.1031 45.8547 82.5511 45.78 83.0457 45.78C83.9791 45.78 84.7304 46.0367 85.2997 46.55C85.8691 47.0633 86.1911 47.7633 86.2657 48.65H84.7257C84.6791 48.174 84.5064 47.8053 84.2077 47.544C83.9184 47.2827 83.5311 47.152 83.0457 47.152C82.5231 47.152 82.1077 47.3013 81.7997 47.6C81.5011 47.8987 81.3517 48.3093 81.3517 48.832V53.088C81.3517 53.6107 81.4964 54.0213 81.7857 54.32C82.0844 54.6187 82.4997 54.768 83.0317 54.768C83.5264 54.768 83.9184 54.6373 84.2077 54.376C84.5064 54.1053 84.6791 53.7367 84.7257 53.27H86.2657C86.2284 53.7087 86.1257 54.1053 85.9577 54.46C85.7991 54.8147 85.5797 55.118 85.2997 55.37C85.0197 55.6127 84.6884 55.804 84.3057 55.944C83.9231 56.0747 83.4984 56.14 83.0317 56.14ZM91.3563 56.14C90.8616 56.14 90.4136 56.07 90.0123 55.93C89.6203 55.7807 89.2843 55.5753 89.0042 55.314C88.7243 55.0433 88.5049 54.7213 88.3463 54.348C88.1969 53.9747 88.1223 53.5593 88.1223 53.102V51.184C88.1223 50.7267 88.1969 50.3113 88.3463 49.938C88.5049 49.5647 88.7243 49.2473 89.0042 48.986C89.2843 48.7153 89.6203 48.51 90.0123 48.37C90.4136 48.2207 90.8616 48.146 91.3563 48.146C91.8509 48.146 92.2943 48.216 92.6863 48.356C93.0876 48.496 93.4283 48.7013 93.7083 48.972C93.9883 49.2333 94.2029 49.5507 94.3522 49.924C94.5109 50.288 94.5903 50.7033 94.5903 51.17V53.102C94.5903 53.5593 94.5156 53.9793 94.3663 54.362C94.2169 54.7353 94.0023 55.0527 93.7223 55.314C93.4423 55.5753 93.1016 55.7807 92.7003 55.93C92.2989 56.07 91.8509 56.14 91.3563 56.14ZM89.6623 53.102C89.6623 53.6247 89.8116 54.0353 90.1103 54.334C90.4089 54.6327 90.8243 54.782 91.3563 54.782C91.8789 54.782 92.2896 54.6327 92.5883 54.334C92.8963 54.0353 93.0503 53.6247 93.0503 53.102V51.184C93.0503 50.6613 92.8963 50.2507 92.5883 49.952C92.2896 49.6533 91.8789 49.504 91.3563 49.504C90.8336 49.504 90.4183 49.6533 90.1103 49.952C89.8116 50.2507 89.6623 50.6613 89.6623 51.184V53.102ZM96.6568 48.3H98.1128V49.63H98.2388C98.3414 49.154 98.5701 48.79 98.9248 48.538C99.2794 48.286 99.7368 48.16 100.297 48.16C100.698 48.16 101.053 48.23 101.361 48.37C101.678 48.5007 101.944 48.6873 102.159 48.93C102.383 49.1727 102.551 49.4667 102.663 49.812C102.775 50.148 102.831 50.5213 102.831 50.932V56H101.291V51.142C101.291 50.61 101.155 50.1993 100.885 49.91C100.614 49.6207 100.241 49.476 99.7648 49.476C99.2794 49.476 98.8968 49.63 98.6168 49.938C98.3368 50.246 98.1968 50.666 98.1968 51.198V56H96.6568V48.3ZM104.673 48.3H106.843V45.92H108.383V48.3H111.337V49.686H108.383V53.788C108.383 54.04 108.458 54.2407 108.607 54.39C108.757 54.53 108.967 54.6 109.237 54.6H111.197V56H109.167C108.449 56 107.879 55.7993 107.459 55.398C107.049 54.9967 106.843 54.46 106.843 53.788V49.686H104.673V48.3ZM113.306 51.142C113.306 50.6847 113.381 50.274 113.53 49.91C113.679 49.5367 113.894 49.224 114.174 48.972C114.454 48.7107 114.795 48.51 115.196 48.37C115.597 48.23 116.045 48.16 116.54 48.16C117.035 48.16 117.478 48.23 117.87 48.37C118.271 48.51 118.612 48.7107 118.892 48.972C119.172 49.224 119.387 49.5367 119.536 49.91C119.685 50.274 119.76 50.6847 119.76 51.142V52.556H114.832V53.102C114.832 53.6527 114.981 54.082 115.28 54.39C115.588 54.698 116.008 54.852 116.54 54.852C116.932 54.852 117.273 54.7913 117.562 54.67C117.851 54.5487 118.061 54.3667 118.192 54.124H119.704C119.62 54.432 119.485 54.712 119.298 54.964C119.111 55.2067 118.878 55.4167 118.598 55.594C118.327 55.7713 118.015 55.9067 117.66 56C117.315 56.0933 116.941 56.14 116.54 56.14C116.045 56.14 115.597 56.07 115.196 55.93C114.804 55.79 114.468 55.5893 114.188 55.328C113.908 55.0667 113.689 54.754 113.53 54.39C113.381 54.0167 113.306 53.6013 113.306 53.144V51.142ZM114.832 51.436H118.248V51.142C118.248 50.61 118.099 50.1947 117.8 49.896C117.501 49.5973 117.081 49.448 116.54 49.448C115.999 49.448 115.579 49.5973 115.28 49.896C114.981 50.1947 114.832 50.61 114.832 51.142V51.436ZM121.84 48.3H123.296V49.63H123.422C123.525 49.154 123.754 48.79 124.108 48.538C124.463 48.286 124.92 48.16 125.48 48.16C125.882 48.16 126.236 48.23 126.544 48.37C126.862 48.5007 127.128 48.6873 127.342 48.93C127.566 49.1727 127.734 49.4667 127.846 49.812C127.958 50.148 128.014 50.5213 128.014 50.932V56H126.474V51.142C126.474 50.61 126.339 50.1993 126.068 49.91C125.798 49.6207 125.424 49.476 124.948 49.476C124.463 49.476 124.08 49.63 123.8 49.938C123.52 50.246 123.38 50.666 123.38 51.198V56H121.84V48.3ZM129.857 48.3H132.027V45.92H133.567V48.3H136.521V49.686H133.567V53.788C133.567 54.04 133.642 54.2407 133.791 54.39C133.94 54.53 134.15 54.6 134.421 54.6H136.381V56H134.351C133.632 56 133.063 55.7993 132.643 55.398C132.232 54.9967 132.027 54.46 132.027 53.788V49.686H129.857V48.3ZM148.676 50.274C149.18 50.274 149.521 50.1713 149.698 49.966C149.875 49.7607 149.955 49.4433 149.936 49.014L149.796 46.774C149.749 46.018 149.959 45.43 150.426 45.01C150.902 44.59 151.546 44.38 152.358 44.38H153.17V45.78H152.498C152.106 45.78 151.807 45.8687 151.602 46.046C151.406 46.2233 151.317 46.494 151.336 46.858L151.476 49.112C151.513 49.6253 151.373 50.05 151.056 50.386C150.748 50.722 150.319 50.8993 149.768 50.918V50.988C150.328 51.0067 150.762 51.1933 151.07 51.548C151.378 51.8933 151.513 52.3227 151.476 52.836L151.336 55.062C151.317 55.4167 151.411 55.6873 151.616 55.874C151.821 56.0607 152.115 56.154 152.498 56.154H153.17V57.54H152.358C151.546 57.54 150.902 57.3253 150.426 56.896C149.959 56.476 149.749 55.888 149.796 55.132L149.936 52.934C149.955 52.5047 149.875 52.1873 149.698 51.982C149.521 51.7767 149.18 51.674 148.676 51.674H147.066V50.274H148.676ZM87.3523 98L88.9483 87.92H90.7542L91.3423 91.21C91.3703 91.35 91.3889 91.504 91.3983 91.672C91.4076 91.8307 91.4169 91.98 91.4263 92.12C91.4356 92.288 91.4403 92.4513 91.4403 92.61H91.5523C91.6083 92.4513 91.6643 92.288 91.7203 92.12C91.7763 91.98 91.8323 91.8307 91.8883 91.672C91.9536 91.504 92.0189 91.35 92.0843 91.21L93.6383 87.92H95.5703L93.9743 98H92.5883L93.6523 91.224C93.6989 90.972 93.7503 90.72 93.8063 90.468C93.8623 90.216 93.9183 89.9827 93.9743 89.768C94.0303 89.5253 94.0909 89.292 94.1562 89.068H94.0023C93.9183 89.2827 93.8249 89.502 93.7223 89.726C93.6476 89.922 93.5543 90.1413 93.4423 90.384C93.3396 90.6173 93.2369 90.846 93.1343 91.07L91.9723 93.548H90.7823L90.3763 91.07C90.3296 90.818 90.2923 90.5753 90.2643 90.342C90.2363 90.0993 90.2129 89.8847 90.1943 89.698C90.1663 89.474 90.1429 89.264 90.1243 89.068H89.9983C89.9889 89.292 89.9749 89.5253 89.9563 89.768C89.9376 89.9827 89.9189 90.216 89.9003 90.468C89.8816 90.72 89.8489 90.972 89.8023 91.224L88.7243 98H87.3523ZM96.2508 95.102L96.5588 93.17C96.6334 92.7127 96.7594 92.302 96.9368 91.938C97.1141 91.5647 97.3334 91.2473 97.5948 90.986C97.8654 90.7247 98.1688 90.524 98.5048 90.384C98.8408 90.2347 99.2048 90.16 99.5968 90.16C100.147 90.16 100.563 90.2907 100.843 90.552C101.132 90.804 101.291 91.1633 101.319 91.63H101.445L101.669 90.3H103.111L102.173 96.208C102.145 96.3853 102.173 96.5253 102.257 96.628C102.35 96.7307 102.481 96.782 102.649 96.782H103.167L102.971 98.056H101.977C101.529 98.056 101.183 97.93 100.941 97.678C100.707 97.4167 100.614 97.0807 100.661 96.67H100.535C100.357 97.1273 100.082 97.4867 99.7088 97.748C99.3354 98.0093 98.8781 98.14 98.3368 98.14C97.6648 98.14 97.1374 97.9347 96.7548 97.524C96.3814 97.104 96.1948 96.53 96.1948 95.802C96.1948 95.69 96.1994 95.578 96.2088 95.466C96.2181 95.354 96.2321 95.2327 96.2508 95.102ZM99.0648 96.796C99.5034 96.796 99.8721 96.6653 100.171 96.404C100.479 96.1333 100.689 95.76 100.801 95.284L101.151 92.946C101.179 92.4887 101.085 92.134 100.871 91.882C100.656 91.6207 100.334 91.49 99.9048 91.49C99.4101 91.49 98.9994 91.644 98.6728 91.952C98.3554 92.2507 98.1548 92.666 98.0708 93.198L97.7768 95.088C97.6928 95.62 97.7581 96.04 97.9728 96.348C98.1968 96.6467 98.5608 96.796 99.0648 96.796ZM105.191 90.3H107.361L107.739 87.92H109.279L108.901 90.3H111.855L111.645 91.686H108.677L108.033 95.788C107.987 96.04 108.029 96.2407 108.159 96.39C108.29 96.53 108.491 96.6 108.761 96.6H110.721L110.497 98H108.467C107.749 98 107.212 97.7993 106.857 97.398C106.512 96.9967 106.391 96.46 106.493 95.788L107.137 91.686H104.967L105.191 90.3ZM115.812 98.14C115.327 98.14 114.897 98.07 114.524 97.93C114.151 97.79 113.843 97.5893 113.6 97.328C113.367 97.0667 113.203 96.754 113.11 96.39C113.017 96.026 113.007 95.6153 113.082 95.158L113.404 93.142C113.479 92.6847 113.619 92.274 113.824 91.91C114.029 91.5367 114.291 91.224 114.608 90.972C114.935 90.7107 115.303 90.51 115.714 90.37C116.134 90.23 116.591 90.16 117.086 90.16C117.571 90.16 117.996 90.23 118.36 90.37C118.733 90.51 119.037 90.7107 119.27 90.972C119.513 91.2333 119.681 91.5507 119.774 91.924C119.877 92.288 119.891 92.694 119.816 93.142L119.592 94.556H114.678L114.594 95.102C114.51 95.662 114.594 96.1007 114.846 96.418C115.098 96.726 115.49 96.88 116.022 96.88C116.414 96.88 116.764 96.8147 117.072 96.684C117.38 96.5533 117.618 96.3713 117.786 96.138H119.284C119.153 96.4367 118.971 96.712 118.738 96.964C118.514 97.2067 118.253 97.4167 117.954 97.594C117.655 97.762 117.324 97.8973 116.96 98C116.596 98.0933 116.213 98.14 115.812 98.14ZM118.262 93.45L118.318 93.142C118.421 92.6007 118.341 92.1807 118.08 91.882C117.819 91.574 117.417 91.42 116.876 91.42C116.344 91.42 115.91 91.574 115.574 91.882C115.238 92.1807 115.019 92.6007 114.916 93.142L114.86 93.45H118.262ZM121.462 98L122.68 90.3H124.122L123.912 91.63H124.024C124.202 91.1633 124.5 90.804 124.92 90.552C125.34 90.2907 125.835 90.16 126.404 90.16C127.226 90.16 127.823 90.4213 128.196 90.944C128.57 91.4573 128.691 92.1573 128.56 93.044L128.476 93.59H126.908L126.978 93.198C127.081 92.6567 127.006 92.232 126.754 91.924C126.502 91.616 126.124 91.462 125.62 91.462C125.135 91.462 124.724 91.616 124.388 91.924C124.062 92.2227 123.852 92.6287 123.758 93.142L122.988 98H121.462ZM129.661 98L129.885 96.6H132.671L133.441 91.686H131.019L131.243 90.3H135.149L134.155 96.6H136.423L136.199 98H129.661ZM133.441 88.2C133.488 87.9293 133.609 87.71 133.805 87.542C134.001 87.374 134.244 87.29 134.533 87.29H134.869C135.158 87.29 135.378 87.374 135.527 87.542C135.676 87.7007 135.728 87.9153 135.681 88.186C135.634 88.4567 135.508 88.6713 135.303 88.83C135.107 88.9887 134.864 89.068 134.575 89.068H134.253C133.964 89.068 133.744 88.9933 133.595 88.844C133.446 88.6853 133.394 88.4707 133.441 88.2ZM138.223 95.102L138.531 93.17C138.606 92.7127 138.732 92.302 138.909 91.938C139.087 91.5647 139.306 91.2473 139.567 90.986C139.838 90.7247 140.141 90.524 140.477 90.384C140.813 90.2347 141.177 90.16 141.569 90.16C142.12 90.16 142.535 90.2907 142.815 90.552C143.105 90.804 143.263 91.1633 143.291 91.63H143.417L143.641 90.3H145.083L144.145 96.208C144.117 96.3853 144.145 96.5253 144.229 96.628C144.323 96.7307 144.453 96.782 144.621 96.782H145.139L144.943 98.056H143.949C143.501 98.056 143.156 97.93 142.913 97.678C142.68 97.4167 142.587 97.0807 142.633 96.67H142.507C142.33 97.1273 142.055 97.4867 141.681 97.748C141.308 98.0093 140.851 98.14 140.309 98.14C139.637 98.14 139.11 97.9347 138.727 97.524C138.354 97.104 138.167 96.53 138.167 95.802C138.167 95.69 138.172 95.578 138.181 95.466C138.191 95.354 138.205 95.2327 138.223 95.102ZM141.037 96.796C141.476 96.796 141.845 96.6653 142.143 96.404C142.451 96.1333 142.661 95.76 142.773 95.284L143.123 92.946C143.151 92.4887 143.058 92.134 142.843 91.882C142.629 91.6207 142.307 91.49 141.877 91.49C141.383 91.49 140.972 91.644 140.645 91.952C140.328 92.2507 140.127 92.666 140.043 93.198L139.749 95.088C139.665 95.62 139.731 96.04 139.945 96.348C140.169 96.6467 140.533 96.796 141.037 96.796ZM147.304 87.92H151.336L150.118 95.62C150.071 95.928 150.118 96.1707 150.258 96.348C150.398 96.516 150.617 96.6 150.916 96.6H153.212L152.988 98H150.622C149.866 98 149.306 97.79 148.942 97.37C148.578 96.9407 148.457 96.3573 148.578 95.62L149.572 89.306H147.08L147.304 87.92ZM155.797 87.92H163.021L162.811 89.306H159.969L158.597 98H157.029L158.415 89.306H155.573L155.797 87.92ZM163.113 98L164.709 87.92H166.249L165.871 90.3C165.852 90.4307 165.824 90.5753 165.787 90.734C165.75 90.8833 165.712 91.028 165.675 91.168C165.647 91.2987 165.624 91.4107 165.605 91.504C165.586 91.588 165.577 91.63 165.577 91.63H165.703C165.871 91.1633 166.156 90.804 166.557 90.552C166.958 90.2907 167.439 90.16 167.999 90.16C168.382 90.16 168.718 90.23 169.007 90.37C169.296 90.5007 169.53 90.6873 169.707 90.93C169.894 91.1727 170.02 91.4667 170.085 91.812C170.16 92.148 170.164 92.5213 170.099 92.932L169.287 98H167.761L168.531 93.142C168.606 92.6193 168.531 92.2133 168.307 91.924C168.083 91.6253 167.733 91.476 167.257 91.476C166.772 91.476 166.361 91.63 166.025 91.938C165.698 92.246 165.493 92.666 165.409 93.198L164.653 98H163.113ZM174.574 98.14C174.088 98.14 173.659 98.07 173.286 97.93C172.912 97.79 172.604 97.5893 172.362 97.328C172.128 97.0667 171.965 96.754 171.872 96.39C171.778 96.026 171.769 95.6153 171.844 95.158L172.166 93.142C172.24 92.6847 172.38 92.274 172.586 91.91C172.791 91.5367 173.052 91.224 173.37 90.972C173.696 90.7107 174.065 90.51 174.476 90.37C174.896 90.23 175.353 90.16 175.848 90.16C176.333 90.16 176.758 90.23 177.122 90.37C177.495 90.51 177.798 90.7107 178.032 90.972C178.274 91.2333 178.442 91.5507 178.536 91.924C178.638 92.288 178.652 92.694 178.578 93.142L178.354 94.556H173.44L173.356 95.102C173.272 95.662 173.356 96.1007 173.608 96.418C173.86 96.726 174.252 96.88 174.784 96.88C175.176 96.88 175.526 96.8147 175.834 96.684C176.142 96.5533 176.38 96.3713 176.548 96.138H178.046C177.915 96.4367 177.733 96.712 177.5 96.964C177.276 97.2067 177.014 97.4167 176.716 97.594C176.417 97.762 176.086 97.8973 175.722 98C175.358 98.0933 174.975 98.14 174.574 98.14ZM177.024 93.45L177.08 93.142C177.182 92.6007 177.103 92.1807 176.842 91.882C176.58 91.574 176.179 91.42 175.638 91.42C175.106 91.42 174.672 91.574 174.336 91.882C174 92.1807 173.78 92.6007 173.678 93.142L173.622 93.45H177.024ZM179.566 98L180.784 90.3H182.058L181.876 91.434H181.988C182.081 91.0327 182.254 90.72 182.506 90.496C182.758 90.272 183.075 90.16 183.458 90.16C183.813 90.16 184.074 90.2673 184.242 90.482C184.41 90.6967 184.508 91.014 184.536 91.434H184.634C184.727 91.0327 184.905 90.72 185.166 90.496C185.427 90.272 185.745 90.16 186.118 90.16C186.594 90.16 186.944 90.3373 187.168 90.692C187.401 91.0373 187.467 91.518 187.364 92.134L186.44 98H185.04L185.95 92.204C185.997 91.9053 185.969 91.6767 185.866 91.518C185.773 91.3593 185.609 91.28 185.376 91.28C184.881 91.28 184.583 91.6067 184.48 92.26L183.57 98H182.436L183.346 92.204C183.393 91.9053 183.36 91.6767 183.248 91.518C183.145 91.3593 182.977 91.28 182.744 91.28C182.259 91.28 181.965 91.6067 181.862 92.26L180.952 98H179.566ZM191.363 98.14C190.877 98.14 190.448 98.07 190.075 97.93C189.701 97.79 189.393 97.5893 189.151 97.328C188.917 97.0667 188.754 96.754 188.661 96.39C188.567 96.026 188.558 95.6153 188.633 95.158L188.955 93.142C189.029 92.6847 189.169 92.274 189.375 91.91C189.58 91.5367 189.841 91.224 190.159 90.972C190.485 90.7107 190.854 90.51 191.265 90.37C191.685 90.23 192.142 90.16 192.637 90.16C193.122 90.16 193.547 90.23 193.911 90.37C194.284 90.51 194.587 90.7107 194.821 90.972C195.063 91.2333 195.231 91.5507 195.325 91.924C195.427 92.288 195.441 92.694 195.367 93.142L195.143 94.556H190.229L190.145 95.102C190.061 95.662 190.145 96.1007 190.397 96.418C190.649 96.726 191.041 96.88 191.573 96.88C191.965 96.88 192.315 96.8147 192.623 96.684C192.931 96.5533 193.169 96.3713 193.337 96.138H194.835C194.704 96.4367 194.522 96.712 194.289 96.964C194.065 97.2067 193.803 97.4167 193.505 97.594C193.206 97.762 192.875 97.8973 192.511 98C192.147 98.0933 191.764 98.14 191.363 98.14ZM193.813 93.45L193.869 93.142C193.971 92.6007 193.892 92.1807 193.631 91.882C193.369 91.574 192.968 91.42 192.427 91.42C191.895 91.42 191.461 91.574 191.125 91.882C190.789 92.1807 190.569 92.6007 190.467 93.142L190.411 93.45H193.813ZM207.438 92.274C207.942 92.274 208.282 92.1713 208.46 91.966C208.637 91.7607 208.716 91.4433 208.698 91.014L208.558 88.774C208.511 88.018 208.721 87.43 209.188 87.01C209.664 86.59 210.308 86.38 211.12 86.38H211.932V87.78H211.26C210.868 87.78 210.569 87.8687 210.364 88.046C210.168 88.2233 210.079 88.494 210.098 88.858L210.238 91.112C210.275 91.6253 210.135 92.05 209.818 92.386C209.51 92.722 209.08 92.8993 208.53 92.918V92.988C209.09 93.0067 209.524 93.1933 209.832 93.548C210.14 93.8933 210.275 94.3227 210.238 94.836L210.098 97.062C210.079 97.4167 210.172 97.6873 210.378 97.874C210.583 98.0607 210.877 98.154 211.26 98.154H211.932V99.54H211.12C210.308 99.54 209.664 99.3253 209.188 98.896C208.721 98.476 208.511 97.888 208.558 97.132L208.698 94.934C208.716 94.5047 208.637 94.1873 208.46 93.982C208.282 93.7767 207.942 93.674 207.438 93.674H205.828V92.274H207.438ZM122.218 108.92H129.442L129.232 110.306H126.39L125.018 119H123.45L124.836 110.306H121.994L122.218 108.92ZM132.601 119.14C132.116 119.14 131.686 119.07 131.313 118.93C130.94 118.79 130.632 118.589 130.389 118.328C130.156 118.067 129.992 117.754 129.899 117.39C129.806 117.026 129.796 116.615 129.871 116.158L130.193 114.142C130.268 113.685 130.408 113.274 130.613 112.91C130.818 112.537 131.08 112.224 131.397 111.972C131.724 111.711 132.092 111.51 132.503 111.37C132.923 111.23 133.38 111.16 133.875 111.16C134.36 111.16 134.785 111.23 135.149 111.37C135.522 111.51 135.826 111.711 136.059 111.972C136.302 112.233 136.47 112.551 136.563 112.924C136.666 113.288 136.68 113.694 136.605 114.142L136.381 115.556H131.467L131.383 116.102C131.299 116.662 131.383 117.101 131.635 117.418C131.887 117.726 132.279 117.88 132.811 117.88C133.203 117.88 133.553 117.815 133.861 117.684C134.169 117.553 134.407 117.371 134.575 117.138H136.073C135.942 117.437 135.76 117.712 135.527 117.964C135.303 118.207 135.042 118.417 134.743 118.594C134.444 118.762 134.113 118.897 133.749 119C133.385 119.093 133.002 119.14 132.601 119.14ZM135.051 114.45L135.107 114.142C135.21 113.601 135.13 113.181 134.869 112.882C134.608 112.574 134.206 112.42 133.665 112.42C133.133 112.42 132.699 112.574 132.363 112.882C132.027 113.181 131.808 113.601 131.705 114.142L131.649 114.45H135.051ZM137.383 119L140.771 115.01L138.769 111.3H140.435L141.541 113.484C141.579 113.549 141.607 113.615 141.625 113.68C141.644 113.736 141.663 113.787 141.681 113.834C141.7 113.89 141.714 113.941 141.723 113.988H141.807C141.835 113.941 141.868 113.89 141.905 113.834C141.961 113.741 142.05 113.624 142.171 113.484L143.935 111.3H145.727L142.549 115.052L144.677 119H143.011L141.793 116.634C141.728 116.494 141.672 116.368 141.625 116.256C141.607 116.2 141.588 116.144 141.569 116.088H141.485C141.457 116.144 141.425 116.205 141.387 116.27C141.35 116.317 141.308 116.373 141.261 116.438C141.224 116.494 141.182 116.555 141.135 116.62L139.175 119H137.383ZM147.164 111.3H149.334L149.712 108.92H151.252L150.874 111.3H153.828L153.618 112.686H150.65L150.006 116.788C149.959 117.04 150.001 117.241 150.132 117.39C150.263 117.53 150.463 117.6 150.734 117.6H152.694L152.47 119H150.44C149.721 119 149.185 118.799 148.83 118.398C148.485 117.997 148.363 117.46 148.466 116.788L149.11 112.686H146.94L147.164 111.3ZM156.763 112.63C156.763 111.958 156.861 111.328 157.057 110.74C157.262 110.143 157.551 109.611 157.925 109.144C158.298 108.677 158.751 108.276 159.283 107.94C159.824 107.595 160.431 107.338 161.103 107.17V108.654C160.673 108.757 160.286 108.929 159.941 109.172C159.595 109.405 159.301 109.695 159.059 110.04C158.816 110.376 158.629 110.763 158.499 111.202C158.368 111.641 158.303 112.117 158.303 112.63V115.29C158.303 116.307 158.55 117.166 159.045 117.866C159.549 118.557 160.235 119.005 161.103 119.21V120.75C159.712 120.395 158.639 119.747 157.883 118.804C157.136 117.852 156.763 116.681 156.763 115.29V112.63ZM298.63 107.17C299.302 107.338 299.904 107.595 300.436 107.94C300.977 108.276 301.434 108.677 301.808 109.144C302.181 109.611 302.466 110.143 302.662 110.74C302.867 111.328 302.97 111.958 302.97 112.63V115.29C302.97 116.681 302.592 117.852 301.836 118.804C301.089 119.747 300.02 120.395 298.63 120.75V119.21C299.498 119.005 300.179 118.557 300.674 117.866C301.178 117.166 301.43 116.307 301.43 115.29V112.63C301.43 112.117 301.364 111.641 301.234 111.202C301.103 110.763 300.916 110.376 300.674 110.04C300.431 109.695 300.137 109.405 299.792 109.172C299.446 108.929 299.059 108.757 298.63 108.654V107.17ZM89.1443 128.38C89.9563 128.38 90.5956 128.595 91.0623 129.024C91.5383 129.444 91.7529 130.032 91.7063 130.788L91.5663 133C91.5383 133.429 91.6129 133.747 91.7903 133.952C91.9769 134.157 92.3223 134.26 92.8263 134.26H94.4363V135.66H92.8263C92.3223 135.66 91.9769 135.763 91.7903 135.968C91.6129 136.173 91.5383 136.491 91.5663 136.92L91.7063 139.16C91.7529 139.907 91.5383 140.49 91.0623 140.91C90.5956 141.33 89.9563 141.54 89.1443 141.54H88.3183V140.154H89.0042C89.3869 140.154 89.6809 140.065 89.8863 139.888C90.0916 139.701 90.1849 139.426 90.1663 139.062L90.0263 136.822C89.9889 136.309 90.1243 135.884 90.4323 135.548C90.7403 135.212 91.1743 135.035 91.7343 135.016V134.946C91.4543 134.937 91.2023 134.885 90.9783 134.792C90.7636 134.689 90.5816 134.559 90.4323 134.4C90.2829 134.232 90.1709 134.036 90.0963 133.812C90.0309 133.588 90.0076 133.35 90.0263 133.098L90.1663 130.858C90.1849 130.503 90.0916 130.237 89.8863 130.06C89.6809 129.873 89.3869 129.78 89.0042 129.78H88.3183V128.38H89.1443ZM55.5661 149.38C56.3781 149.38 57.0175 149.595 57.4841 150.024C57.9601 150.444 58.1748 151.032 58.1281 151.788L57.9881 154C57.9601 154.429 58.0348 154.747 58.2121 154.952C58.3988 155.157 58.7441 155.26 59.2481 155.26H60.8581V156.66H59.2481C58.7441 156.66 58.3988 156.763 58.2121 156.968C58.0348 157.173 57.9601 157.491 57.9881 157.92L58.1281 160.16C58.1748 160.907 57.9601 161.49 57.4841 161.91C57.0175 162.33 56.3781 162.54 55.5661 162.54H54.7401V161.154H55.4261C55.8088 161.154 56.1028 161.065 56.3081 160.888C56.5135 160.701 56.6068 160.426 56.5881 160.062L56.4481 157.822C56.4108 157.309 56.5461 156.884 56.8541 156.548C57.1621 156.212 57.5961 156.035 58.1561 156.016V155.946C57.8761 155.937 57.6241 155.885 57.4001 155.792C57.1855 155.689 57.0035 155.559 56.8541 155.4C56.7048 155.232 56.5928 155.036 56.5181 154.812C56.4528 154.588 56.4295 154.35 56.4481 154.098L56.5881 151.858C56.6068 151.503 56.5135 151.237 56.3081 151.06C56.1028 150.873 55.8088 150.78 55.4261 150.78H54.7401V149.38H55.5661ZM21.988 170.38C22.8 170.38 23.4393 170.595 23.906 171.024C24.382 171.444 24.5967 172.032 24.55 172.788L24.41 175C24.382 175.429 24.4567 175.747 24.634 175.952C24.8207 176.157 25.166 176.26 25.67 176.26H27.28V177.66H25.67C25.166 177.66 24.8207 177.763 24.634 177.968C24.4567 178.173 24.382 178.491 24.41 178.92L24.55 181.16C24.5967 181.907 24.382 182.49 23.906 182.91C23.4393 183.33 22.8 183.54 21.988 183.54H21.162V182.154H21.848C22.2307 182.154 22.5247 182.065 22.73 181.888C22.9353 181.701 23.0287 181.426 23.01 181.062L22.87 178.822C22.8327 178.309 22.968 177.884 23.276 177.548C23.584 177.212 24.018 177.035 24.578 177.016V176.946C24.298 176.937 24.046 176.885 23.822 176.792C23.6073 176.689 23.4253 176.559 23.276 176.4C23.1267 176.232 23.0147 176.036 22.94 175.812C22.8747 175.588 22.8513 175.35 22.87 175.098L23.01 172.858C23.0287 172.503 22.9353 172.237 22.73 172.06C22.5247 171.873 22.2307 171.78 21.848 171.78H21.162V170.38H21.988Z" fill="#BBBBBB"/>
<path d="M272.536 32.102L272.844 30.17C272.919 29.7127 273.045 29.302 273.222 28.938C273.399 28.5647 273.619 28.2473 273.88 27.986C274.151 27.7247 274.454 27.524 274.79 27.384C275.126 27.2347 275.49 27.16 275.882 27.16C276.433 27.16 276.848 27.2907 277.128 27.552C277.417 27.804 277.576 28.1633 277.604 28.63H277.73L277.954 27.3H279.396L278.458 33.208C278.43 33.3853 278.458 33.5253 278.542 33.628C278.635 33.7307 278.766 33.782 278.934 33.782H279.452L279.256 35.056H278.262C277.814 35.056 277.469 34.93 277.226 34.678C276.993 34.4167 276.899 34.0807 276.946 33.67H276.82C276.643 34.1273 276.367 34.4867 275.994 34.748C275.621 35.0093 275.163 35.14 274.622 35.14C273.95 35.14 273.423 34.9347 273.04 34.524C272.667 34.104 272.48 33.53 272.48 32.802C272.48 32.69 272.485 32.578 272.494 32.466C272.503 32.354 272.517 32.2327 272.536 32.102ZM275.35 33.796C275.789 33.796 276.157 33.6653 276.456 33.404C276.764 33.1333 276.974 32.76 277.086 32.284L277.436 29.946C277.464 29.4887 277.371 29.134 277.156 28.882C276.941 28.6207 276.619 28.49 276.19 28.49C275.695 28.49 275.285 28.644 274.958 28.952C274.641 29.2507 274.44 29.666 274.356 30.198L274.062 32.088C273.978 32.62 274.043 33.04 274.258 33.348C274.482 33.6467 274.846 33.796 275.35 33.796ZM280.272 37.38L281.868 27.3H283.338L283.128 28.63H283.24C283.418 28.1633 283.712 27.804 284.122 27.552C284.533 27.2907 285.018 27.16 285.578 27.16C285.97 27.16 286.316 27.2347 286.614 27.384C286.913 27.524 287.156 27.7293 287.342 28C287.529 28.2613 287.655 28.5787 287.72 28.952C287.795 29.316 287.795 29.722 287.72 30.17L287.412 32.102C287.254 33.054 286.899 33.8007 286.348 34.342C285.807 34.874 285.13 35.14 284.318 35.14C283.758 35.14 283.315 35.014 282.988 34.762C282.662 34.5007 282.48 34.1367 282.442 33.67H282.33C282.33 33.6793 282.326 33.7307 282.316 33.824C282.307 33.9173 282.298 34.0293 282.288 34.16C282.279 34.2907 282.265 34.4307 282.246 34.58C282.228 34.7293 282.209 34.8693 282.19 35L281.812 37.38H280.272ZM283.968 33.796C284.482 33.796 284.906 33.642 285.242 33.334C285.588 33.026 285.802 32.6107 285.886 32.088L286.18 30.198C286.264 29.666 286.185 29.2507 285.942 28.952C285.7 28.644 285.322 28.49 284.808 28.49C284.332 28.49 283.922 28.644 283.576 28.952C283.24 29.26 283.03 29.6753 282.946 30.198L282.638 32.102C282.554 32.6153 282.634 33.026 282.876 33.334C283.119 33.642 283.483 33.796 283.968 33.796ZM288.667 37.38L290.263 27.3H291.733L291.523 28.63H291.635C291.812 28.1633 292.106 27.804 292.517 27.552C292.928 27.2907 293.413 27.16 293.973 27.16C294.365 27.16 294.71 27.2347 295.009 27.384C295.308 27.524 295.55 27.7293 295.737 28C295.924 28.2613 296.05 28.5787 296.115 28.952C296.19 29.316 296.19 29.722 296.115 30.17L295.807 32.102C295.648 33.054 295.294 33.8007 294.743 34.342C294.202 34.874 293.525 35.14 292.713 35.14C292.153 35.14 291.71 35.014 291.383 34.762C291.056 34.5007 290.874 34.1367 290.837 33.67H290.725C290.725 33.6793 290.72 33.7307 290.711 33.824C290.702 33.9173 290.692 34.0293 290.683 34.16C290.674 34.2907 290.66 34.4307 290.641 34.58C290.622 34.7293 290.604 34.8693 290.585 35L290.207 37.38H288.667ZM292.363 33.796C292.876 33.796 293.301 33.642 293.637 33.334C293.982 33.026 294.197 32.6107 294.281 32.088L294.575 30.198C294.659 29.666 294.58 29.2507 294.337 28.952C294.094 28.644 293.716 28.49 293.203 28.49C292.727 28.49 292.316 28.644 291.971 28.952C291.635 29.26 291.425 29.6753 291.341 30.198L291.033 32.102C290.949 32.6153 291.028 33.026 291.271 33.334C291.514 33.642 291.878 33.796 292.363 33.796ZM298.406 24.92H302.438L301.22 32.62C301.173 32.928 301.22 33.1707 301.36 33.348C301.5 33.516 301.719 33.6 302.018 33.6H304.314L304.09 35H301.724C300.968 35 300.408 34.79 300.044 34.37C299.68 33.9407 299.558 33.3573 299.68 32.62L300.674 26.306H298.182L298.406 24.92ZM306.38 31.626L307.066 27.3H308.578L307.934 31.36C307.85 31.8827 307.92 32.2933 308.144 32.592C308.377 32.8907 308.732 33.04 309.208 33.04C309.684 33.04 310.085 32.8953 310.412 32.606C310.739 32.3073 310.944 31.906 311.028 31.402L311.686 27.3H313.198L311.98 34.79C311.849 35.602 311.504 36.2367 310.944 36.694C310.384 37.1513 309.665 37.38 308.788 37.38H306.576L306.786 36.05H308.914C309.343 36.05 309.693 35.938 309.964 35.714C310.235 35.4993 310.403 35.1913 310.468 34.79L310.566 34.188L310.846 32.9H310.734C310.557 33.3667 310.272 33.726 309.88 33.978C309.488 34.2207 309.017 34.342 308.466 34.342C307.701 34.342 307.127 34.0993 306.744 33.614C306.371 33.1193 306.249 32.4567 306.38 31.626Z" fill="#FFC66D"/>
<path d="M93.0223 65.38H94.6183L89.7043 78.54H88.0943L93.0223 65.38ZM101.417 65.38H103.013L98.0988 78.54H96.4888L101.417 65.38ZM113.572 68.264V66.92H119.508V68.264H117.324V75.656H119.508V77H113.572V75.656H115.756V68.264H113.572ZM121.84 69.3H123.296V70.63H123.422C123.525 70.154 123.754 69.79 124.108 69.538C124.463 69.286 124.92 69.16 125.48 69.16C125.882 69.16 126.236 69.23 126.544 69.37C126.862 69.5007 127.128 69.6873 127.342 69.93C127.566 70.1727 127.734 70.4667 127.846 70.812C127.958 71.148 128.014 71.5213 128.014 71.932V77H126.474V72.142C126.474 71.61 126.339 71.1993 126.068 70.91C125.798 70.6207 125.424 70.476 124.948 70.476C124.463 70.476 124.08 70.63 123.8 70.938C123.52 71.246 123.38 71.666 123.38 72.198V77H121.84V69.3ZM141.793 77.14C141.308 77.14 140.865 77.07 140.463 76.93C140.071 76.7807 139.735 76.5753 139.455 76.314C139.175 76.0433 138.956 75.7213 138.797 75.348C138.648 74.9653 138.573 74.5453 138.573 74.088V69.832C138.573 69.3653 138.648 68.9453 138.797 68.572C138.956 68.1987 139.175 67.8813 139.455 67.62C139.735 67.3493 140.071 67.144 140.463 67.004C140.865 66.8547 141.313 66.78 141.807 66.78C142.741 66.78 143.492 67.0367 144.061 67.55C144.631 68.0633 144.953 68.7633 145.027 69.65H143.487C143.441 69.174 143.268 68.8053 142.969 68.544C142.68 68.2827 142.293 68.152 141.807 68.152C141.285 68.152 140.869 68.3013 140.561 68.6C140.263 68.8987 140.113 69.3093 140.113 69.832V74.088C140.113 74.6107 140.258 75.0213 140.547 75.32C140.846 75.6187 141.261 75.768 141.793 75.768C142.288 75.768 142.68 75.6373 142.969 75.376C143.268 75.1053 143.441 74.7367 143.487 74.27H145.027C144.99 74.7087 144.887 75.1053 144.719 75.46C144.561 75.8147 144.341 76.118 144.061 76.37C143.781 76.6127 143.45 76.804 143.067 76.944C142.685 77.0747 142.26 77.14 141.793 77.14ZM150.118 77.14C149.623 77.14 149.175 77.07 148.774 76.93C148.382 76.7807 148.046 76.5753 147.766 76.314C147.486 76.0433 147.267 75.7213 147.108 75.348C146.959 74.9747 146.884 74.5593 146.884 74.102V72.184C146.884 71.7267 146.959 71.3113 147.108 70.938C147.267 70.5647 147.486 70.2473 147.766 69.986C148.046 69.7153 148.382 69.51 148.774 69.37C149.175 69.2207 149.623 69.146 150.118 69.146C150.613 69.146 151.056 69.216 151.448 69.356C151.849 69.496 152.19 69.7013 152.47 69.972C152.75 70.2333 152.965 70.5507 153.114 70.924C153.273 71.288 153.352 71.7033 153.352 72.17V74.102C153.352 74.5593 153.277 74.9793 153.128 75.362C152.979 75.7353 152.764 76.0527 152.484 76.314C152.204 76.5753 151.863 76.7807 151.462 76.93C151.061 77.07 150.613 77.14 150.118 77.14ZM148.424 74.102C148.424 74.6247 148.573 75.0353 148.872 75.334C149.171 75.6327 149.586 75.782 150.118 75.782C150.641 75.782 151.051 75.6327 151.35 75.334C151.658 75.0353 151.812 74.6247 151.812 74.102V72.184C151.812 71.6613 151.658 71.2507 151.35 70.952C151.051 70.6533 150.641 70.504 150.118 70.504C149.595 70.504 149.18 70.6533 148.872 70.952C148.573 71.2507 148.424 71.6613 148.424 72.184V74.102ZM155.083 77V69.3H156.357V70.434H156.469C156.497 70.0327 156.618 69.72 156.833 69.496C157.057 69.272 157.355 69.16 157.729 69.16C158.083 69.16 158.363 69.2673 158.569 69.482C158.774 69.6967 158.923 70.014 159.017 70.434H159.115C159.143 70.0327 159.269 69.72 159.493 69.496C159.717 69.272 160.02 69.16 160.403 69.16C160.869 69.16 161.243 69.3373 161.523 69.692C161.812 70.0373 161.957 70.518 161.957 71.134V77H160.543V71.204C160.543 70.9053 160.482 70.6767 160.361 70.518C160.239 70.3593 160.062 70.28 159.829 70.28C159.334 70.28 159.087 70.6067 159.087 71.26V77H157.953V71.204C157.953 70.9053 157.887 70.6767 157.757 70.518C157.626 70.3593 157.439 70.28 157.197 70.28C156.711 70.28 156.469 70.6067 156.469 71.26V77H155.083ZM163.827 69.3H165.297V70.63H165.409C165.512 70.1633 165.745 69.804 166.109 69.552C166.482 69.2907 166.949 69.16 167.509 69.16C167.901 69.16 168.26 69.23 168.587 69.37C168.914 69.51 169.189 69.7107 169.413 69.972C169.646 70.2333 169.824 70.5507 169.945 70.924C170.076 71.288 170.141 71.7033 170.141 72.17V74.102C170.141 74.5687 170.076 74.9933 169.945 75.376C169.824 75.7493 169.646 76.0667 169.413 76.328C169.189 76.5893 168.914 76.79 168.587 76.93C168.26 77.07 167.901 77.14 167.509 77.14C166.949 77.14 166.482 77.014 166.109 76.762C165.745 76.5007 165.512 76.1367 165.409 75.67H165.297C165.297 75.6793 165.302 75.7307 165.311 75.824C165.32 75.9173 165.325 76.0293 165.325 76.16C165.334 76.2907 165.344 76.4307 165.353 76.58C165.362 76.7293 165.367 76.8693 165.367 77V79.38H163.827V69.3ZM165.367 72.198V74.102C165.367 74.6153 165.507 75.026 165.787 75.334C166.076 75.642 166.464 75.796 166.949 75.796C167.462 75.796 167.864 75.642 168.153 75.334C168.452 75.026 168.601 74.6107 168.601 74.088V72.198C168.601 71.666 168.452 71.2507 168.153 70.952C167.864 70.644 167.462 70.49 166.949 70.49C166.473 70.49 166.09 70.644 165.801 70.952C165.512 71.26 165.367 71.6753 165.367 72.198ZM175.302 77.14C174.807 77.14 174.359 77.07 173.958 76.93C173.566 76.7807 173.23 76.5753 172.95 76.314C172.67 76.0433 172.45 75.7213 172.292 75.348C172.142 74.9747 172.068 74.5593 172.068 74.102V72.184C172.068 71.7267 172.142 71.3113 172.292 70.938C172.45 70.5647 172.67 70.2473 172.95 69.986C173.23 69.7153 173.566 69.51 173.958 69.37C174.359 69.2207 174.807 69.146 175.302 69.146C175.796 69.146 176.24 69.216 176.632 69.356C177.033 69.496 177.374 69.7013 177.654 69.972C177.934 70.2333 178.148 70.5507 178.298 70.924C178.456 71.288 178.536 71.7033 178.536 72.17V74.102C178.536 74.5593 178.461 74.9793 178.312 75.362C178.162 75.7353 177.948 76.0527 177.668 76.314C177.388 76.5753 177.047 76.7807 176.646 76.93C176.244 77.07 175.796 77.14 175.302 77.14ZM173.608 74.102C173.608 74.6247 173.757 75.0353 174.056 75.334C174.354 75.6327 174.77 75.782 175.302 75.782C175.824 75.782 176.235 75.6327 176.534 75.334C176.842 75.0353 176.996 74.6247 176.996 74.102V72.184C176.996 71.6613 176.842 71.2507 176.534 70.952C176.235 70.6533 175.824 70.504 175.302 70.504C174.779 70.504 174.364 70.6533 174.056 70.952C173.757 71.2507 173.608 71.6613 173.608 72.184V74.102ZM180.42 75.068H182.016C182.072 75.32 182.226 75.5207 182.478 75.67C182.739 75.8193 183.057 75.894 183.43 75.894H183.934C184.391 75.894 184.746 75.8007 184.998 75.614C185.259 75.4273 185.39 75.1707 185.39 74.844C185.39 74.284 184.979 73.948 184.158 73.836L183.038 73.682C182.207 73.57 181.591 73.332 181.19 72.968C180.798 72.5947 180.602 72.072 180.602 71.4C180.602 70.6907 180.849 70.14 181.344 69.748C181.848 69.356 182.562 69.16 183.486 69.16H183.976C184.788 69.16 185.446 69.342 185.95 69.706C186.463 70.0607 186.767 70.546 186.86 71.162H185.278C185.222 70.9287 185.077 70.7467 184.844 70.616C184.611 70.476 184.321 70.406 183.976 70.406H183.486C183.047 70.406 182.711 70.49 182.478 70.658C182.245 70.8167 182.128 71.0593 182.128 71.386C182.128 71.6567 182.212 71.8667 182.38 72.016C182.557 72.1653 182.837 72.2633 183.22 72.31L184.368 72.464C185.245 72.5853 185.889 72.8327 186.3 73.206C186.711 73.5793 186.916 74.1113 186.916 74.802C186.916 75.5487 186.659 76.1273 186.146 76.538C185.633 76.9393 184.895 77.14 183.934 77.14H183.43C182.571 77.14 181.871 76.958 181.33 76.594C180.798 76.2207 180.495 75.712 180.42 75.068ZM188.857 72.142C188.857 71.6847 188.931 71.274 189.081 70.91C189.23 70.5367 189.445 70.224 189.725 69.972C190.005 69.7107 190.345 69.51 190.747 69.37C191.148 69.23 191.596 69.16 192.091 69.16C192.585 69.16 193.029 69.23 193.421 69.37C193.822 69.51 194.163 69.7107 194.443 69.972C194.723 70.224 194.937 70.5367 195.087 70.91C195.236 71.274 195.311 71.6847 195.311 72.142V73.556H190.383V74.102C190.383 74.6527 190.532 75.082 190.831 75.39C191.139 75.698 191.559 75.852 192.091 75.852C192.483 75.852 192.823 75.7913 193.113 75.67C193.402 75.5487 193.612 75.3667 193.743 75.124H195.255C195.171 75.432 195.035 75.712 194.849 75.964C194.662 76.2067 194.429 76.4167 194.149 76.594C193.878 76.7713 193.565 76.9067 193.211 77C192.865 77.0933 192.492 77.14 192.091 77.14C191.596 77.14 191.148 77.07 190.747 76.93C190.355 76.79 190.019 76.5893 189.739 76.328C189.459 76.0667 189.239 75.754 189.081 75.39C188.931 75.0167 188.857 74.6013 188.857 74.144V72.142ZM190.383 72.436H193.799V72.142C193.799 71.61 193.649 71.1947 193.351 70.896C193.052 70.5973 192.632 70.448 192.091 70.448C191.549 70.448 191.129 70.5973 190.831 70.896C190.532 71.1947 190.383 71.61 190.383 72.142V72.436ZM206.276 69.3L206.92 74.298C206.938 74.4567 206.952 74.6433 206.962 74.858C206.98 75.0727 206.999 75.278 207.018 75.474C207.036 75.7073 207.055 75.9407 207.074 76.174H207.228C207.256 75.9407 207.284 75.7073 207.312 75.474C207.33 75.278 207.354 75.0727 207.382 74.858C207.41 74.6433 207.438 74.4567 207.466 74.298L208.25 69.3H209.496L210.294 74.298C210.322 74.466 210.345 74.6573 210.364 74.872C210.392 75.0867 210.415 75.292 210.434 75.488C210.462 75.712 210.485 75.9407 210.504 76.174H210.672C210.69 75.9407 210.709 75.712 210.728 75.488C210.746 75.292 210.765 75.0867 210.784 74.872C210.812 74.648 210.835 74.4567 210.854 74.298L211.498 69.3H212.758L211.68 77H209.818L209.062 71.82C209.043 71.6707 209.024 71.5027 209.006 71.316C208.996 71.1293 208.987 70.9567 208.978 70.798C208.978 70.6113 208.978 70.42 208.978 70.224H208.796C208.796 70.42 208.791 70.6113 208.782 70.798C208.772 70.9567 208.758 71.1293 208.74 71.316C208.73 71.5027 208.716 71.6707 208.698 71.82L207.9 77H206.066L205.002 69.3H206.276ZM217.274 77.14C216.78 77.14 216.332 77.07 215.93 76.93C215.538 76.7807 215.202 76.5753 214.922 76.314C214.642 76.0433 214.423 75.7213 214.264 75.348C214.115 74.9747 214.04 74.5593 214.04 74.102V72.184C214.04 71.7267 214.115 71.3113 214.264 70.938C214.423 70.5647 214.642 70.2473 214.922 69.986C215.202 69.7153 215.538 69.51 215.93 69.37C216.332 69.2207 216.78 69.146 217.274 69.146C217.769 69.146 218.212 69.216 218.604 69.356C219.006 69.496 219.346 69.7013 219.626 69.972C219.906 70.2333 220.121 70.5507 220.27 70.924C220.429 71.288 220.508 71.7033 220.508 72.17V74.102C220.508 74.5593 220.434 74.9793 220.284 75.362C220.135 75.7353 219.92 76.0527 219.64 76.314C219.36 76.5753 219.02 76.7807 218.618 76.93C218.217 77.07 217.769 77.14 217.274 77.14ZM215.58 74.102C215.58 74.6247 215.73 75.0353 216.028 75.334C216.327 75.6327 216.742 75.782 217.274 75.782C217.797 75.782 218.208 75.6327 218.506 75.334C218.814 75.0353 218.968 74.6247 218.968 74.102V72.184C218.968 71.6613 218.814 71.2507 218.506 70.952C218.208 70.6533 217.797 70.504 217.274 70.504C216.752 70.504 216.336 70.6533 216.028 70.952C215.73 71.2507 215.58 71.6613 215.58 72.184V74.102ZM224.353 69.3V70.63H224.479C224.581 70.1633 224.819 69.804 225.193 69.552C225.575 69.2907 226.051 69.16 226.621 69.16C227.442 69.16 228.086 69.4167 228.553 69.93C229.019 70.434 229.253 71.1387 229.253 72.044V72.548H227.671V72.198C227.671 71.6567 227.526 71.2367 227.237 70.938C226.947 70.63 226.551 70.476 226.047 70.476C225.552 70.476 225.16 70.63 224.871 70.938C224.581 71.246 224.437 71.666 224.437 72.198V77H222.897V69.3H224.353ZM230.353 68.222V66.822H234.385V74.62C234.385 74.928 234.469 75.1707 234.637 75.348C234.805 75.516 235.039 75.6 235.337 75.6H237.633V77H235.267C234.511 77 233.919 76.79 233.489 76.37C233.06 75.9407 232.845 75.3573 232.845 74.62V68.222H230.353ZM239.224 72.17C239.224 71.7033 239.284 71.288 239.406 70.924C239.536 70.5507 239.714 70.2333 239.938 69.972C240.171 69.7107 240.451 69.51 240.778 69.37C241.104 69.23 241.464 69.16 241.856 69.16C242.416 69.16 242.878 69.2907 243.242 69.552C243.615 69.804 243.853 70.1633 243.956 70.63H244.082C244.072 70.4713 244.063 70.3127 244.054 70.154C244.035 70.014 244.021 69.8693 244.012 69.72C244.012 69.5613 244.012 69.4213 244.012 69.3V66.92H245.538V77H244.082V75.67H243.956C243.853 76.1367 243.615 76.5007 243.242 76.762C242.878 77.014 242.416 77.14 241.856 77.14C241.464 77.14 241.104 77.07 240.778 76.93C240.451 76.79 240.171 76.5893 239.938 76.328C239.714 76.0667 239.536 75.7493 239.406 75.376C239.284 74.9933 239.224 74.5687 239.224 74.102V72.17ZM240.764 72.198V74.088C240.764 74.6107 240.908 75.026 241.198 75.334C241.496 75.642 241.902 75.796 242.416 75.796C242.901 75.796 243.288 75.642 243.578 75.334C243.867 75.026 244.012 74.6153 244.012 74.102V72.198C244.012 71.6753 243.862 71.26 243.564 70.952C243.274 70.644 242.892 70.49 242.416 70.49C241.902 70.49 241.496 70.644 241.198 70.952C240.908 71.2507 240.764 71.666 240.764 72.198Z" fill="#808080"/>
<path d="M167.593 108.78H169.189V110.922L169.035 112.98H167.775L167.593 110.922V108.78ZM164.625 110.922V108.78H166.221V110.922L166.053 112.98H164.807L164.625 110.922ZM172.25 119V108.92H173.79V113.05H176.828V108.92H178.368V119H176.828V114.464H173.79V119H172.25ZM180.462 114.142C180.462 113.685 180.537 113.274 180.686 112.91C180.835 112.537 181.05 112.224 181.33 111.972C181.61 111.711 181.951 111.51 182.352 111.37C182.753 111.23 183.201 111.16 183.696 111.16C184.191 111.16 184.634 111.23 185.026 111.37C185.427 111.51 185.768 111.711 186.048 111.972C186.328 112.224 186.543 112.537 186.692 112.91C186.841 113.274 186.916 113.685 186.916 114.142V115.556H181.988V116.102C181.988 116.653 182.137 117.082 182.436 117.39C182.744 117.698 183.164 117.852 183.696 117.852C184.088 117.852 184.429 117.791 184.718 117.67C185.007 117.549 185.217 117.367 185.348 117.124H186.86C186.776 117.432 186.641 117.712 186.454 117.964C186.267 118.207 186.034 118.417 185.754 118.594C185.483 118.771 185.171 118.907 184.816 119C184.471 119.093 184.097 119.14 183.696 119.14C183.201 119.14 182.753 119.07 182.352 118.93C181.96 118.79 181.624 118.589 181.344 118.328C181.064 118.067 180.845 117.754 180.686 117.39C180.537 117.017 180.462 116.601 180.462 116.144V114.142ZM181.988 114.436H185.404V114.142C185.404 113.61 185.255 113.195 184.956 112.896C184.657 112.597 184.237 112.448 183.696 112.448C183.155 112.448 182.735 112.597 182.436 112.896C182.137 113.195 181.988 113.61 181.988 114.142V114.436ZM188.381 110.222V108.822H192.413V116.62C192.413 116.928 192.497 117.171 192.665 117.348C192.833 117.516 193.066 117.6 193.365 117.6H195.661V119H193.295C192.539 119 191.946 118.79 191.517 118.37C191.087 117.941 190.873 117.357 190.873 116.62V110.222H188.381ZM196.775 110.222V108.822H200.807V116.62C200.807 116.928 200.891 117.171 201.059 117.348C201.227 117.516 201.46 117.6 201.759 117.6H204.055V119H201.689C200.933 119 200.34 118.79 199.911 118.37C199.482 117.941 199.267 117.357 199.267 116.62V110.222H196.775ZM208.88 119.14C208.385 119.14 207.937 119.07 207.536 118.93C207.144 118.781 206.808 118.575 206.528 118.314C206.248 118.043 206.028 117.721 205.87 117.348C205.72 116.975 205.646 116.559 205.646 116.102V114.184C205.646 113.727 205.72 113.311 205.87 112.938C206.028 112.565 206.248 112.247 206.528 111.986C206.808 111.715 207.144 111.51 207.536 111.37C207.937 111.221 208.385 111.146 208.88 111.146C209.374 111.146 209.818 111.216 210.21 111.356C210.611 111.496 210.952 111.701 211.232 111.972C211.512 112.233 211.726 112.551 211.876 112.924C212.034 113.288 212.114 113.703 212.114 114.17V116.102C212.114 116.559 212.039 116.979 211.89 117.362C211.74 117.735 211.526 118.053 211.246 118.314C210.966 118.575 210.625 118.781 210.224 118.93C209.822 119.07 209.374 119.14 208.88 119.14ZM207.186 116.102C207.186 116.625 207.335 117.035 207.634 117.334C207.932 117.633 208.348 117.782 208.88 117.782C209.402 117.782 209.813 117.633 210.112 117.334C210.42 117.035 210.574 116.625 210.574 116.102V114.184C210.574 113.661 210.42 113.251 210.112 112.952C209.813 112.653 209.402 112.504 208.88 112.504C208.357 112.504 207.942 112.653 207.634 112.952C207.335 113.251 207.186 113.661 207.186 114.184V116.102ZM225.739 119.14C225.253 119.14 224.81 119.07 224.409 118.93C224.017 118.781 223.681 118.575 223.401 118.314C223.121 118.043 222.901 117.721 222.743 117.348C222.593 116.965 222.519 116.545 222.519 116.088V111.832C222.519 111.365 222.593 110.945 222.743 110.572C222.901 110.199 223.121 109.881 223.401 109.62C223.681 109.349 224.017 109.144 224.409 109.004C224.81 108.855 225.258 108.78 225.753 108.78C226.686 108.78 227.437 109.037 228.007 109.55C228.576 110.063 228.898 110.763 228.973 111.65H227.433C227.386 111.174 227.213 110.805 226.915 110.544C226.625 110.283 226.238 110.152 225.753 110.152C225.23 110.152 224.815 110.301 224.507 110.6C224.208 110.899 224.059 111.309 224.059 111.832V116.088C224.059 116.611 224.203 117.021 224.493 117.32C224.791 117.619 225.207 117.768 225.739 117.768C226.233 117.768 226.625 117.637 226.915 117.376C227.213 117.105 227.386 116.737 227.433 116.27H228.973C228.935 116.709 228.833 117.105 228.665 117.46C228.506 117.815 228.287 118.118 228.007 118.37C227.727 118.613 227.395 118.804 227.013 118.944C226.63 119.075 226.205 119.14 225.739 119.14ZM234.063 119.14C233.569 119.14 233.121 119.07 232.719 118.93C232.327 118.781 231.991 118.575 231.711 118.314C231.431 118.043 231.212 117.721 231.053 117.348C230.904 116.975 230.829 116.559 230.829 116.102V114.184C230.829 113.727 230.904 113.311 231.053 112.938C231.212 112.565 231.431 112.247 231.711 111.986C231.991 111.715 232.327 111.51 232.719 111.37C233.121 111.221 233.569 111.146 234.063 111.146C234.558 111.146 235.001 111.216 235.393 111.356C235.795 111.496 236.135 111.701 236.415 111.972C236.695 112.233 236.91 112.551 237.059 112.924C237.218 113.288 237.297 113.703 237.297 114.17V116.102C237.297 116.559 237.223 116.979 237.073 117.362C236.924 117.735 236.709 118.053 236.429 118.314C236.149 118.575 235.809 118.781 235.407 118.93C235.006 119.07 234.558 119.14 234.063 119.14ZM232.369 116.102C232.369 116.625 232.519 117.035 232.817 117.334C233.116 117.633 233.531 117.782 234.063 117.782C234.586 117.782 234.997 117.633 235.295 117.334C235.603 117.035 235.757 116.625 235.757 116.102V114.184C235.757 113.661 235.603 113.251 235.295 112.952C234.997 112.653 234.586 112.504 234.063 112.504C233.541 112.504 233.125 112.653 232.817 112.952C232.519 113.251 232.369 113.661 232.369 114.184V116.102ZM239.028 119V111.3H240.302V112.434H240.414C240.442 112.033 240.563 111.72 240.778 111.496C241.002 111.272 241.3 111.16 241.674 111.16C242.028 111.16 242.308 111.267 242.514 111.482C242.719 111.697 242.868 112.014 242.962 112.434H243.06C243.088 112.033 243.214 111.72 243.438 111.496C243.662 111.272 243.965 111.16 244.348 111.16C244.814 111.16 245.188 111.337 245.468 111.692C245.757 112.037 245.902 112.518 245.902 113.134V119H244.488V113.204C244.488 112.905 244.427 112.677 244.306 112.518C244.184 112.359 244.007 112.28 243.774 112.28C243.279 112.28 243.032 112.607 243.032 113.26V119H241.898V113.204C241.898 112.905 241.832 112.677 241.702 112.518C241.571 112.359 241.384 112.28 241.142 112.28C240.656 112.28 240.414 112.607 240.414 113.26V119H239.028ZM247.772 111.3H249.242V112.63H249.354C249.457 112.163 249.69 111.804 250.054 111.552C250.428 111.291 250.894 111.16 251.454 111.16C251.846 111.16 252.206 111.23 252.532 111.37C252.859 111.51 253.134 111.711 253.358 111.972C253.592 112.233 253.769 112.551 253.89 112.924C254.021 113.288 254.086 113.703 254.086 114.17V116.102C254.086 116.569 254.021 116.993 253.89 117.376C253.769 117.749 253.592 118.067 253.358 118.328C253.134 118.589 252.859 118.79 252.532 118.93C252.206 119.07 251.846 119.14 251.454 119.14C250.894 119.14 250.428 119.014 250.054 118.762C249.69 118.501 249.457 118.137 249.354 117.67H249.242C249.242 117.679 249.247 117.731 249.256 117.824C249.266 117.917 249.27 118.029 249.27 118.16C249.28 118.291 249.289 118.431 249.298 118.58C249.308 118.729 249.312 118.869 249.312 119V121.38H247.772V111.3ZM249.312 114.198V116.102C249.312 116.615 249.452 117.026 249.732 117.334C250.022 117.642 250.409 117.796 250.894 117.796C251.408 117.796 251.809 117.642 252.098 117.334C252.397 117.026 252.546 116.611 252.546 116.088V114.198C252.546 113.666 252.397 113.251 252.098 112.952C251.809 112.644 251.408 112.49 250.894 112.49C250.418 112.49 250.036 112.644 249.746 112.952C249.457 113.26 249.312 113.675 249.312 114.198ZM259.247 119.14C258.752 119.14 258.304 119.07 257.903 118.93C257.511 118.781 257.175 118.575 256.895 118.314C256.615 118.043 256.396 117.721 256.237 117.348C256.088 116.975 256.013 116.559 256.013 116.102V114.184C256.013 113.727 256.088 113.311 256.237 112.938C256.396 112.565 256.615 112.247 256.895 111.986C257.175 111.715 257.511 111.51 257.903 111.37C258.304 111.221 258.752 111.146 259.247 111.146C259.742 111.146 260.185 111.216 260.577 111.356C260.978 111.496 261.319 111.701 261.599 111.972C261.879 112.233 262.094 112.551 262.243 112.924C262.402 113.288 262.481 113.703 262.481 114.17V116.102C262.481 116.559 262.406 116.979 262.257 117.362C262.108 117.735 261.893 118.053 261.613 118.314C261.333 118.575 260.992 118.781 260.591 118.93C260.19 119.07 259.742 119.14 259.247 119.14ZM257.553 116.102C257.553 116.625 257.702 117.035 258.001 117.334C258.3 117.633 258.715 117.782 259.247 117.782C259.77 117.782 260.18 117.633 260.479 117.334C260.787 117.035 260.941 116.625 260.941 116.102V114.184C260.941 113.661 260.787 113.251 260.479 112.952C260.18 112.653 259.77 112.504 259.247 112.504C258.724 112.504 258.309 112.653 258.001 112.952C257.702 113.251 257.553 113.661 257.553 114.184V116.102ZM264.365 117.068H265.961C266.017 117.32 266.171 117.521 266.423 117.67C266.685 117.819 267.002 117.894 267.375 117.894H267.879C268.337 117.894 268.691 117.801 268.943 117.614C269.205 117.427 269.335 117.171 269.335 116.844C269.335 116.284 268.925 115.948 268.103 115.836L266.983 115.682C266.153 115.57 265.537 115.332 265.135 114.968C264.743 114.595 264.547 114.072 264.547 113.4C264.547 112.691 264.795 112.14 265.289 111.748C265.793 111.356 266.507 111.16 267.431 111.16H267.921C268.733 111.16 269.391 111.342 269.895 111.706C270.409 112.061 270.712 112.546 270.805 113.162H269.223C269.167 112.929 269.023 112.747 268.789 112.616C268.556 112.476 268.267 112.406 267.921 112.406H267.431C266.993 112.406 266.657 112.49 266.423 112.658C266.19 112.817 266.073 113.059 266.073 113.386C266.073 113.657 266.157 113.867 266.325 114.016C266.503 114.165 266.783 114.263 267.165 114.31L268.313 114.464C269.191 114.585 269.835 114.833 270.245 115.206C270.656 115.579 270.861 116.111 270.861 116.802C270.861 117.549 270.605 118.127 270.091 118.538C269.578 118.939 268.841 119.14 267.879 119.14H267.375C266.517 119.14 265.817 118.958 265.275 118.594C264.743 118.221 264.44 117.712 264.365 117.068ZM272.802 114.142C272.802 113.685 272.877 113.274 273.026 112.91C273.175 112.537 273.39 112.224 273.67 111.972C273.95 111.711 274.291 111.51 274.692 111.37C275.093 111.23 275.541 111.16 276.036 111.16C276.531 111.16 276.974 111.23 277.366 111.37C277.767 111.51 278.108 111.711 278.388 111.972C278.668 112.224 278.883 112.537 279.032 112.91C279.181 113.274 279.256 113.685 279.256 114.142V115.556H274.328V116.102C274.328 116.653 274.477 117.082 274.776 117.39C275.084 117.698 275.504 117.852 276.036 117.852C276.428 117.852 276.769 117.791 277.058 117.67C277.347 117.549 277.557 117.367 277.688 117.124H279.2C279.116 117.432 278.981 117.712 278.794 117.964C278.607 118.207 278.374 118.417 278.094 118.594C277.823 118.771 277.511 118.907 277.156 119C276.811 119.093 276.437 119.14 276.036 119.14C275.541 119.14 275.093 119.07 274.692 118.93C274.3 118.79 273.964 118.589 273.684 118.328C273.404 118.067 273.185 117.754 273.026 117.39C272.877 117.017 272.802 116.601 272.802 116.144V114.142ZM274.328 114.436H277.744V114.142C277.744 113.61 277.595 113.195 277.296 112.896C276.997 112.597 276.577 112.448 276.036 112.448C275.495 112.448 275.075 112.597 274.776 112.896C274.477 113.195 274.328 113.61 274.328 114.142V114.436ZM283.562 108.92H285.298V110.74L284.99 115.85H283.87L283.562 110.74V108.92ZM283.31 118.188C283.31 117.917 283.394 117.703 283.562 117.544C283.74 117.376 283.973 117.292 284.262 117.292H284.598C284.888 117.292 285.116 117.376 285.284 117.544C285.462 117.703 285.55 117.917 285.55 118.188C285.55 118.459 285.462 118.673 285.284 118.832C285.116 118.991 284.883 119.07 284.584 119.07H284.262C283.973 119.07 283.74 118.991 283.562 118.832C283.394 118.673 283.31 118.459 283.31 118.188ZM293.511 108.78H295.107V110.922L294.953 112.98H293.693L293.511 110.922V108.78ZM290.543 110.922V108.78H292.139V110.922L291.971 112.98H290.725L290.543 110.922Z" fill="#6A8759"/>
</svg>
