<svg xmlns="http://www.w3.org/2000/svg" width="80" height="80" fill="none"><path fill="#4285F4" d="M9.164 22.392c0-3.53 2.601-6.392 5.81-6.392h50.418c3.21 0 5.812 2.862 5.812 6.392v29.612c0 3.53-2.602 6.391-5.812 6.391H14.975c-3.21 0-5.811-2.861-5.811-6.391V22.392Z"/><path fill="#E8F0FE" d="M12.321 23.491c0-2.353 1.735-4.26 3.874-4.26h48.418c2.14 0 3.874 1.907 3.874 4.26v27.413c0 2.354-1.734 4.261-3.874 4.261H16.195c-2.14 0-3.874-1.907-3.874-4.26V23.49Z"/><path fill="#4285F4" d="M1.822 61.222c0-1.561 1.15-2.826 2.57-2.826h71.217c1.419 0 2.57 1.265 2.57 2.826 0 1.56-1.151 2.826-2.57 2.826H4.39c-1.419 0-2.57-1.265-2.57-2.826Z"/><path fill="#AECBFA" d="M30.455 58.396h19.09c0 1.337-.986 2.422-2.203 2.422H32.658c-1.216 0-2.203-1.084-2.203-2.422Z"/><path fill="#174EA6" fill-rule="evenodd" d="M11.968 58.009c0-.334.247-.606.55-.606h54.699c.304 0 .55.272.55.606 0 .334-.246.606-.55.606H12.519c-.304 0-.55-.272-.55-.606Z" clip-rule="evenodd"/><mask id="a" width="31" height="33" x="24" y="21" maskUnits="userSpaceOnUse" style="mask-type:alpha"><path fill="#1D1D1B" d="M53.031 27.865a2.764 2.764 0 0 1 1.521 2.468v13.878c0 1.044-.588 2-1.521 2.469l-12.148 6.113a2.764 2.764 0 0 1-2.485 0L26.25 46.68a2.764 2.764 0 0 1-1.521-2.47V30.334c0-1.044.588-1.999 1.52-2.468l12.149-6.116a2.763 2.763 0 0 1 2.485 0l12.148 6.116Z"/></mask><g mask="url(#a)"><path fill="#1967D2" d="m54.515 28.53-14.837 7.544-.044 17.298 13.51-6.768a2.483 2.483 0 0 0 1.37-2.22V28.53Z"/><g filter="url(#b)"><path fill="#4285F4" d="M53.599 28.951 39.314 36.14v16.624l12.918-6.5a2.483 2.483 0 0 0 1.367-2.219V28.951Z"/></g><path fill="#34A853" d="M38.522 21.644c.7-.35 1.524-.35 2.224 0l13.769 6.896-14.881 7.522-14.881-7.522 13.769-6.896Z"/><g filter="url(#c)" opacity=".5"><path fill="#5DD17C" d="M38.532 22.393a2.483 2.483 0 0 1 2.217 0l11.89 5.93-12.998 6.543-12.998-6.543 11.89-5.93Z"/></g><path fill="#000" d="m24.729 28.53 14.912 7.527V53.41l-13.545-6.816a2.483 2.483 0 0 1-1.367-2.218V28.53Z"/><path fill="#4285F4" d="m24.753 28.53 14.925 7.544v17.342L26.12 46.605a2.483 2.483 0 0 1-1.368-2.22V28.53Z" opacity=".2"/><path fill="#1D1D1B" d="M46.097 30.517a3.973 3.973 0 0 1 2.187 3.549v5.122a3.973 3.973 0 0 1-2.187 3.549l-4.67 2.35a3.973 3.973 0 0 1-3.572 0l-4.671-2.35a3.973 3.973 0 0 1-2.187-3.55v-5.121c0-1.501.846-2.874 2.187-3.55l4.67-2.35a3.973 3.973 0 0 1 3.573 0l4.67 2.35Z" opacity=".2" style="mix-blend-mode:multiply"/><path fill="#202124" d="M39.64 45.509v-9.453l-8.064-4.059a3.956 3.956 0 0 0-.58 2.061v5.136c0 1.497.846 2.867 2.186 3.541l4.667 2.349a3.982 3.982 0 0 0 1.792.425Z"/></g><mask id="d" width="13" height="13" x="33" y="30" maskUnits="userSpaceOnUse" style="mask-type:alpha"><path fill="#E6F4EA" d="M44.3 32.744a1.986 1.986 0 0 1 1.093 1.774v4.219c0 .75-.423 1.437-1.094 1.774l-3.765 1.895a1.986 1.986 0 0 1-1.786 0l-3.766-1.895a1.987 1.987 0 0 1-1.093-1.774v-4.219c0-.75.422-1.437 1.093-1.774l3.766-1.896a1.986 1.986 0 0 1 1.786 0l3.766 1.896Z"/></mask><g mask="url(#d)"><path fill="#E6F4EA" d="M44.3 32.744a1.986 1.986 0 0 1 1.093 1.774v4.219c0 .75-.423 1.437-1.094 1.774l-3.765 1.895a1.986 1.986 0 0 1-1.786 0l-3.766-1.895a1.987 1.987 0 0 1-1.093-1.774v-4.219c0-.75.422-1.437 1.093-1.774l3.766-1.896a1.986 1.986 0 0 1 1.786 0l3.766 1.896Z"/><g filter="url(#e)" opacity=".4"><path fill="#000" d="m24.701 28.449 14.912 7.503v17.354L26.068 46.49a2.483 2.483 0 0 1-1.367-2.218V28.449Z"/></g><g filter="url(#f)" opacity=".15"><path fill="#000" d="M54.553 28.383 39.64 35.887V53.24l13.545-6.816a2.483 2.483 0 0 0 1.367-2.218V28.383Z"/></g></g><defs><filter id="b" width="27.336" height="36.863" x="32.789" y="22.426" color-interpolation-filters="sRGB" filterUnits="userSpaceOnUse"><feFlood flood-opacity="0" result="BackgroundImageFix"/><feBlend in="SourceGraphic" in2="BackgroundImageFix" result="shape"/><feGaussianBlur result="effect1_foregroundBlur_2462_5477" stdDeviation="3.263"/></filter><filter id="c" width="32.521" height="19.259" x="23.38" y="18.869" color-interpolation-filters="sRGB" filterUnits="userSpaceOnUse"><feFlood flood-opacity="0" result="BackgroundImageFix"/><feBlend in="SourceGraphic" in2="BackgroundImageFix" result="shape"/><feGaussianBlur result="effect1_foregroundBlur_2462_5477" stdDeviation="1.631"/></filter><filter id="e" width="27.963" height="37.908" x="18.176" y="21.923" color-interpolation-filters="sRGB" filterUnits="userSpaceOnUse"><feFlood flood-opacity="0" result="BackgroundImageFix"/><feBlend in="SourceGraphic" in2="BackgroundImageFix" result="shape"/><feGaussianBlur result="effect1_foregroundBlur_2462_5477" stdDeviation="3.263"/></filter><filter id="f" width="27.963" height="37.908" x="33.115" y="21.858" color-interpolation-filters="sRGB" filterUnits="userSpaceOnUse"><feFlood flood-opacity="0" result="BackgroundImageFix"/><feBlend in="SourceGraphic" in2="BackgroundImageFix" result="shape"/><feGaussianBlur result="effect1_foregroundBlur_2462_5477" stdDeviation="3.263"/></filter></defs></svg>