<svg xmlns="http://www.w3.org/2000/svg" width="80" height="80" fill="none"><path fill="#0D652D" d="M43.915 28.719c0-.567-.46-1.027-1.027-1.027v4.965c.567 0 1.027-.46 1.027-1.027v-2.911ZM43.915 36.595c0-.567-.46-1.027-1.027-1.027v8.219c.567 0 1.027-.46 1.027-1.027v-6.165Z"/><path fill="#34A853" d="M8 16.96A8.96 8.96 0 0 1 16.96 8H30.4a8.96 8.96 0 0 1 8.96 8.96v46.08A8.96 8.96 0 0 1 30.4 72H16.96A8.96 8.96 0 0 1 8 63.04V16.96Z"/><path fill="#34A853" fill-rule="evenodd" d="M30.4 8.614H16.96a8.346 8.346 0 0 0-8.346 8.346v46.08a8.346 8.346 0 0 0 8.346 8.346H30.4a8.346 8.346 0 0 0 8.346-8.346V16.96A8.346 8.346 0 0 0 30.4 8.614ZM16.96 8A8.96 8.96 0 0 0 8 16.96v46.08A8.96 8.96 0 0 0 16.96 72H30.4a8.96 8.96 0 0 0 8.96-8.96V16.96A8.96 8.96 0 0 0 30.4 8H16.96Z" clip-rule="evenodd"/><path fill="#fff" d="M11.84 16.96A8.96 8.96 0 0 1 20.8 8h12.8a8.96 8.96 0 0 1 8.96 8.96v46.08A8.96 8.96 0 0 1 33.6 72H20.8a8.96 8.96 0 0 1-8.96-8.96V16.96Z"/><path fill="#4285F4" fill-rule="evenodd" d="M20.19 8.32a.41.41 0 0 1 .41-.41h13a9.37 9.37 0 0 1 9.37 9.37v45.76a9.37 9.37 0 0 1-9.37 9.37H20.48a.41.41 0 1 1 0-.82H33.6a8.55 8.55 0 0 0 8.55-8.55V17.28a8.55 8.55 0 0 0-8.55-8.55h-13a.41.41 0 0 1-.41-.41Z" clip-rule="evenodd"/><path fill="#4285F4" d="M27.84 11.2a.96.96 0 1 1-1.92 0 .96.96 0 0 1 1.92 0ZM18.06 18.333a4 4 0 0 1 4-4h10.667a4 4 0 0 1 4 4V29a4 4 0 0 1-4 4H22.06a4 4 0 0 1-4-4V18.333Z"/><path fill="#34A853" d="M32 39.568a4 4 0 0 1 4-4h10.667a4 4 0 0 1 4 4v10.666a4 4 0 0 1-4 4H36a4 4 0 0 1-4-4V39.569ZM39.393 18.333a4 4 0 0 1 4-4H54.06a4 4 0 0 1 4 4V29a4 4 0 0 1-4 4H43.393a4 4 0 0 1-4-4V18.333ZM53.333 39.568a4 4 0 0 1 4-4H68a4 4 0 0 1 4 4v10.666a4 4 0 0 1-4 4H57.333a4 4 0 0 1-4-4V39.569Z"/></svg>