<svg xmlns="http://www.w3.org/2000/svg" width="80" height="80" fill="none"><path fill="#4285F4" d="M52.023 34.79c.738 0 1.336-.598 1.336-1.335v-6.9c0-.737-.598-1.335-1.336-1.335h-4.168c-.597 0-1.116-.398-1.312-.962a17.455 17.455 0 0 0-.778-1.876c-.26-.538-.174-1.187.248-1.61l2.947-2.946a1.336 1.336 0 0 0 0-1.889l-4.873-4.877a1.336 1.336 0 0 0-1.893.002l-2.919 2.939c-.422.426-1.075.512-1.615.25a17.12 17.12 0 0 0-1.868-.774c-.566-.196-.965-.716-.965-1.314v-4.16c0-.738-.599-1.336-1.336-1.336h-6.9c-.737 0-1.335.598-1.335 1.335v4.16c0 .599-.4 1.12-.965 1.315-.64.221-1.265.48-1.873.776-.538.261-1.188.177-1.61-.245l-2.962-2.951a1.336 1.336 0 0 0-1.887 0l-4.886 4.88a1.336 1.336 0 0 0-.001 1.89l2.94 2.94c.423.423.509 1.072.248 1.61-.295.61-.554 1.236-.777 1.876-.196.564-.716.962-1.313.962H8.002c-.737 0-1.335.598-1.335 1.335v6.9c0 .737.598 1.335 1.335 1.335h4.168c.597 0 1.117.399 1.313.963.223.641.482 1.27.778 1.88.26.538.174 1.187-.248 1.609l-2.94 2.94a1.336 1.336 0 0 0 0 1.89l4.885 4.874c.522.52 1.367.52 1.888 0l2.946-2.947c.423-.423 1.073-.508 1.612-.247.608.296 1.233.555 1.872.776.565.196.965.716.965 1.314v4.16c0 .738.598 1.336 1.335 1.336h6.9c.737 0 1.335-.598 1.335-1.335v-4.145c0-.599.4-1.119.965-1.315.639-.22 1.264-.48 1.872-.775.538-.261 1.189-.176 1.612.247l2.944 2.944a1.336 1.336 0 0 0 1.89-.002l4.868-4.879c.52-.522.52-1.367-.001-1.888l-2.943-2.943c-.422-.422-.508-1.07-.248-1.608.295-.611.555-1.24.778-1.881.196-.564.716-.963 1.313-.963h4.162Z"/><path fill="#fff" d="M30.014 41.098c6.123 0 11.087-4.963 11.087-11.086s-4.964-11.087-11.087-11.087c-6.122 0-11.086 4.964-11.086 11.087 0 6.123 4.963 11.086 11.086 11.086Z"/><path fill="#174EA6" d="M70.644 67.25c.39.157.835-.031.993-.422l1.477-3.656a.763.763 0 0 0-.422-.993l-2.208-.892a.803.803 0 0 1-.49-.791c.02-.387.016-.774-.01-1.16a.803.803 0 0 1 .476-.8l2.192-.93a.763.763 0 0 0 .404-1l-1.538-3.629a.763.763 0 0 0-1.003-.403l-2.175.932a.804.804 0 0 1-.91-.213 9.786 9.786 0 0 0-.824-.81.804.804 0 0 1-.23-.903l.89-2.204a.763.763 0 0 0-.421-.994l-3.655-1.477a.763.763 0 0 0-.994.422l-.89 2.204a.804.804 0 0 1-.793.49 9.78 9.78 0 0 0-1.159.01.804.804 0 0 1-.8-.474l-.938-2.198a.763.763 0 0 0-1-.403l-3.633 1.539a.763.763 0 0 0-.405 1l.928 2.188a.803.803 0 0 1-.213.906c-.287.26-.558.536-.813.827a.803.803 0 0 1-.902.23l-2.208-.893a.763.763 0 0 0-.993.422L46.9 56.83a.763.763 0 0 0 .421.994l2.209.892c.316.128.506.45.489.79-.02.388-.016.777.01 1.164a.803.803 0 0 1-.476.799l-2.188.928a.763.763 0 0 0-.404 1.002l1.545 3.628a.763.763 0 0 0 1 .403l2.192-.93a.804.804 0 0 1 .907.214c.259.287.535.558.826.812a.804.804 0 0 1 .23.903l-.891 2.204c-.158.39.03.836.422.994l3.655 1.477c.39.157.836-.031.994-.422l.887-2.196a.804.804 0 0 1 .792-.49c.386.02.773.016 1.158-.01a.804.804 0 0 1 .802.476l.929 2.19a.763.763 0 0 0 1.002.403l3.623-1.543a.763.763 0 0 0 .404-1l-.93-2.19a.803.803 0 0 1 .214-.904c.287-.261.56-.538.815-.83a.803.803 0 0 1 .901-.23l2.206.891Z"/><path fill="#fff" d="M57.633 65.88a6.335 6.335 0 1 0 4.746-11.748 6.335 6.335 0 0 0-4.746 11.748Z"/></svg>