<svg xmlns="http://www.w3.org/2000/svg" width="80" height="80" fill="none"><path fill="#174EA6" d="M21.274 9.67a3.333 3.333 0 0 1 4.083-2.357l11.605 3.11a3.333 3.333 0 0 1 2.357 4.082L25.09 67.614a3.333 3.333 0 0 1-4.083 2.357L9.401 66.86a3.333 3.333 0 0 1-2.357-4.083L21.274 9.67Z"/><path fill="#4285F4" fill-rule="evenodd" d="m8.549 57.55 17.85 4.783-.431 1.61-17.85-4.783.43-1.61ZM10.12 51.686l17.85 4.783-.43 1.61-17.85-4.783.43-1.61ZM18.582 20.108l17.85 4.782-.431 1.61-17.85-4.783.43-1.61Z" clip-rule="evenodd"/><path fill="#E8F0FE" d="M30.833 55h33.334v12.5H30.833V55Z"/><path fill="#4285F4" fill-rule="evenodd" d="M31.932 70.4h32.564a3.333 3.333 0 0 0 3.334-3.333H31.932V55.519H67.83a3.333 3.333 0 0 0-3.334-3.333H31.932a3.333 3.333 0 0 0-3.333 3.333v11.548a3.333 3.333 0 0 0 3.333 3.333Z" clip-rule="evenodd"/><path fill="#174EA6" fill-rule="evenodd" d="M35.238 59.191c0-.46.373-.833.834-.833h28.166v1.667H36.072a.833.833 0 0 1-.834-.834ZM35.238 63.395c0-.46.373-.834.834-.834h28.166v1.667H36.072a.833.833 0 0 1-.834-.833Z" clip-rule="evenodd"/><path fill="#0D652D" d="M57.792 39.824c-.008-.269-.01-.42-.01-.42L37 39.177v11.67c.012 2.128 5.473 4.664 10.598 4.664.073 0 .146-.002.219-.004 2.712-.039 5.5-.815 7.473-1.863 1.635-.87 2.71-1.926 2.71-2.905-.002-1.978-.167-9.106-.208-10.915Z"/><g filter="url(#a)"><path fill="#34A853" d="M51.888 46.052a12.25 12.25 0 0 1-8.77 0L24.985 39.1c-1.097-.42-1.09-1.655.008-2.068l20.004-7.52a7.123 7.123 0 0 1 2.503-.447c.867 0 1.723.153 2.504.448l20 7.521c1.1.413 1.106 1.648.01 2.068l-18.127 6.949Z"/></g><path fill="#174EA6" d="M64.625 52.065a2.333 2.333 0 1 1-4.667 0 2.333 2.333 0 0 1 4.667 0Z"/><path fill="#AECBFA" fill-rule="evenodd" d="M48.023 36.297a1.121 1.121 0 0 1 1.5-.518l13.211 6.42a1.121 1.121 0 0 1 .631 1.01v6.62a1.122 1.122 0 0 1-2.243 0V43.91l-12.58-6.113a1.122 1.122 0 0 1-.519-1.5Z" clip-rule="evenodd"/><defs><filter id="a" width="46.667" height="17.797" x="24.167" y="29.066" color-interpolation-filters="sRGB" filterUnits="userSpaceOnUse"><feFlood flood-opacity="0" result="BackgroundImageFix"/><feColorMatrix in="SourceAlpha" result="hardAlpha" values="0 0 0 0 0 0 0 0 0 0 0 0 0 0 0 0 0 0 127 0"/><feOffset/><feComposite in2="hardAlpha" operator="out"/><feColorMatrix values="0 0 0 0 0.258824 0 0 0 0 0.521569 0 0 0 0 0.956863 0 0 0 1 0"/><feBlend in2="BackgroundImageFix" result="effect1_dropShadow_2467_147"/><feBlend in="SourceGraphic" in2="effect1_dropShadow_2467_147" result="shape"/></filter></defs></svg>