<svg xmlns="http://www.w3.org/2000/svg" width="80" height="80" fill="none"><g fill-rule="evenodd" clip-rule="evenodd"><path fill="#34A853" d="m49.998 39.936.002.01c-.001-.42-.27-.846-.804-1.179a2.83 2.83 0 0 0-.115-.068l-3.21-1.812-1.026-.58-4.3-2.424-8.346-4.707a2.523 2.523 0 0 0-.127-.067l-.038-.019a2.427 2.427 0 0 0-.22-.092l-.032-.011a1.82 1.82 0 0 0-.369-.087h-.005c-.373-.045-.697.052-.94.272l-.004.003-.056.056-.004.004-.003.003a1.168 1.168 0 0 0-.036.04l-.021.027-.026.032a1.172 1.172 0 0 0-.046.066l-.005.008a1.438 1.438 0 0 0-.04.068l-.009.015a1.187 1.187 0 0 0-.036.072l-.005.009c-.028.06-.052.122-.072.185v.001c-.01.032-.02.064-.028.096l-.003.012a2.14 2.14 0 0 0-.022.1v.002a1.932 1.932 0 0 0-.02.111v.005l-.007.063s-.025.256-.025.296v.126l.014 11.739.004 4.512.037 2.608.024.405c.043.403.18.721.387.941l.057.056.008.007v-.001l.055.045.02.015c.02.015.041.029.063.042l.02.014h.001c.053.031.108.058.165.08l.016.006a1.003 1.003 0 0 0 .195.052c.344.06.751-.024 1.187-.274l8.128-4.646h.017l4.476-2.559.937-.535.002-.002 1.066-.61 2.217-1.267c.302-.172.528-.373.678-.585.143-.203.218-.418.225-.633l.001-.034-.001.009v-.02Z"/><path fill="#174EA6" d="M62.604 51.212a2.653 2.653 0 0 1-1.381.357 2.666 2.666 0 0 1-2.27-1.333l-4.962-8.597a2.666 2.666 0 1 1 4.618-2.666l1.951 3.378a3.1 3.1 0 0 1 .021-.2A20.753 20.753 0 0 0 26.95 23.2c-1.113.902-2.746.951-3.78-.04-1.035-.992-1.077-2.645.013-3.575A25.942 25.942 0 0 1 65.658 43.29l2.877-1.66a2.666 2.666 0 1 1 2.666 4.618l-8.597 4.963Zm-.35-5.956-.023-.01.01.017.014-.007Z"/><path fill="#4285F4" d="M17.396 28.788a2.654 2.654 0 0 1 1.381-.358 2.665 2.665 0 0 1 2.27 1.334l4.963 8.597a2.666 2.666 0 1 1-4.62 2.666l-1.95-3.378a3.1 3.1 0 0 1-.02.2A20.753 20.753 0 0 0 53.05 56.8c1.114-.902 2.747-.952 3.78.04 1.035.992 1.077 2.645-.013 3.575A25.942 25.942 0 0 1 14.343 36.71l-2.877 1.66a2.667 2.667 0 1 1-2.667-4.618l8.597-4.963Zm.35 5.956.023.01-.01-.017-.014.007Z"/></g></svg>