<svg xmlns="http://www.w3.org/2000/svg" width="81" height="80" fill="none"><rect width="14.313" height="47.234" x="15.236" y="22" fill="#34A853" rx="2.865" transform="rotate(15 15.236 22)"/><path stroke="#CEEAD6" stroke-linecap="square" stroke-width="1.432" d="m5.277 61.934 12.443 3.334M6.481 57.44l12.443 3.335M12.964 33.246l12.443 3.334"/><path fill="#E8F0FE" d="M21.899 59.198h25.539v9.577H21.899z"/><mask id="a" fill="#fff"><path d="M23.052 70.997a2.865 2.865 0 0 1-2.865-2.865v-8.226a2.865 2.865 0 0 1 2.865-2.864H47.38a2.865 2.865 0 0 1 2.865 2.864v8.226a2.865 2.865 0 0 1-2.864 2.865H23.05Z"/></mask><path fill="#34A853" d="M23.052 73.862a5.73 5.73 0 0 1-5.73-5.73v-8.226a5.73 5.73 0 0 1 5.73-5.729V73.862Zm27.193-16.82v13.955-13.955Zm0 11.09a5.73 5.73 0 0 1-5.73 5.73H23.053a5.73 5.73 0 0 1-5.73-5.73h32.923Zm-32.922-8.226a5.73 5.73 0 0 1 5.729-5.729h21.464a5.73 5.73 0 0 1 5.73 5.73H17.321Z" mask="url(#a)"/><path fill="#0D652D" d="M25.913 61.693a.716.716 0 0 0 0 1.432v-1.432Zm20.942 1.432h.716v-1.432h-.716v1.432Zm-20.942 0h20.942v-1.432H25.913v1.432ZM25.913 64.913a.716.716 0 0 0 0 1.433v-1.433Zm20.942 1.433h.716v-1.433h-.716v1.433Zm-20.942 0h20.942v-1.433H25.913v1.433Z"/><path fill="#E6F4EA" d="M53.249 54.729H26.433v-9.577h26.816z"/><mask id="b" fill="#fff"><path d="M50.959 43.086a2.865 2.865 0 0 1 2.864 2.865v8.226a2.865 2.865 0 0 1-2.864 2.865H26.63a2.865 2.865 0 0 1-2.864-2.865v-8.226a2.865 2.865 0 0 1 2.864-2.865H50.96Z"/></mask><path fill="#4285F4" d="M50.959 40.221a5.73 5.73 0 0 1 5.73 5.73v8.226a5.73 5.73 0 0 1-5.73 5.73V40.22Zm-27.193 16.82V43.087v13.956Zm0-11.09a5.73 5.73 0 0 1 5.729-5.73h21.464a5.73 5.73 0 0 1 5.73 5.73H23.765Zm32.922 8.226a5.73 5.73 0 0 1-5.73 5.73H29.496a5.73 5.73 0 0 1-5.73-5.73H56.69Z" mask="url(#b)"/><path fill="#174EA6" d="M48.098 52.39a.716.716 0 0 0 0-1.432v1.432Zm-21.07-1.432h-.716v1.432h.716v-1.432Zm21.07 0h-21.07v1.432h21.07v-1.432ZM48.098 49.17a.716.716 0 1 0 0-1.433v1.433Zm-21.07-1.433h-.716v1.433h.716v-1.433Zm21.07 0h-21.07v1.433h21.07v-1.433Z"/><mask id="c" width="31" height="33" x="44" y="9" maskUnits="userSpaceOnUse" style="mask-type:alpha"><path fill="#1D1D1B" d="M72.841 16.327a2.129 2.129 0 0 1 1.17 1.901v14.626c0 .804-.452 1.54-1.17 1.901L60.127 41.17a2.13 2.13 0 0 1-1.918 0l-12.713-6.414a2.129 2.129 0 0 1-1.17-1.9V18.227a2.13 2.13 0 0 1 1.17-1.9L58.209 9.91a2.13 2.13 0 0 1 1.919 0l12.713 6.416Z"/></mask><g mask="url(#c)"><path fill="#34A853" d="M58.313 9.848a1.913 1.913 0 0 1 1.711 0l13.987 6.993-14.842 7.491-14.843-7.49 13.987-6.994Z"/><path fill="#202124" d="m44.326 16.587 14.843 7.488v17.317l-13.792-6.958a1.913 1.913 0 0 1-1.051-1.707v-16.14Z"/><path fill="#4285F4" d="M74.011 16.588 59.17 24.076v17.316l13.791-6.957a1.913 1.913 0 0 0 1.052-1.708V16.588Z"/></g><path fill="#1D1D1B" d="M66.096 18.796a3.06 3.06 0 0 1 1.682 2.732v6.23a3.06 3.06 0 0 1-1.682 2.732l-5.543 2.797a3.06 3.06 0 0 1-2.757 0l-5.544-2.797a3.06 3.06 0 0 1-1.681-2.732v-6.23a3.06 3.06 0 0 1 1.681-2.732l5.543-2.798a3.06 3.06 0 0 1 2.758 0l5.543 2.798Z" opacity=".5"/><path fill="#2F5187" d="M59.174 33.508v-9.433l-8.027-4.05a3.955 3.955 0 0 0-.576 2.057v5.124c0 1.495.84 2.861 2.175 3.534l4.645 2.344c.56.283 1.172.424 1.783.424Z" opacity=".5"/><path fill="#E6F4EA" d="M64.056 20.893c.516.26.84.788.84 1.366v4.77a1.53 1.53 0 0 1-.84 1.366L59.86 30.51a1.53 1.53 0 0 1-1.379 0l-4.195-2.116a1.53 1.53 0 0 1-.841-1.367V22.26c0-.578.325-1.106.84-1.366l4.196-2.117a1.53 1.53 0 0 1 1.379 0l4.195 2.117Z"/><path fill="#4285F4" fill-rule="evenodd" d="M35.638 9.03c.26-.26.68-.26.939 0l2.987 2.987a.664.664 0 0 1-.939.94l-2.987-2.988a.664.664 0 0 1 0-.939Z" clip-rule="evenodd"/><path fill="#4285F4" fill-rule="evenodd" d="M35.872 9.265c.13-.13.34-.13.47 0l2.987 2.987a.332.332 0 0 1-.47.47l-2.987-2.988a.332.332 0 0 1 0-.47ZM33.286 18.008c0-.366.297-.663.664-.663h4.224a.664.664 0 0 1 0 1.327H33.95a.664.664 0 0 1-.664-.664Z" clip-rule="evenodd"/><path fill="#4285F4" fill-rule="evenodd" d="M33.618 18.008c0-.183.149-.331.332-.331h4.224a.332.332 0 0 1 0 .663H33.95a.332.332 0 0 1-.332-.332ZM43.199 5.275c.366 0 .663.297.663.664v4.224a.664.664 0 0 1-1.327 0V5.94c0-.367.297-.664.664-.664Z" clip-rule="evenodd"/><path fill="#4285F4" fill-rule="evenodd" d="M43.199 5.607c.183 0 .331.149.331.332v4.224a.332.332 0 0 1-.663 0V5.94c0-.183.148-.332.332-.332Z" clip-rule="evenodd"/></svg>