<svg width="480" height="480" viewBox="0 0 480 480" fill="none" xmlns="http://www.w3.org/2000/svg">
<path d="M239.5 430C344.71 430 430 344.71 430 239.5C430 134.29 344.71 49 239.5 49C134.29 49 49 134.29 49 239.5C49 344.71 134.29 430 239.5 430Z" fill="#073042"/>
<path d="M124.233 172.974L239.5 106.411L354.767 172.974L239.5 239.5L124.233 172.974Z" fill="#C1E3F4"/>
<path d="M354.767 172.974V306.026L239.5 372.589V239.5L354.767 172.974Z" fill="#1769E0"/>
<path d="M124.233 306.026L239.5 372.589V239.5L124.233 172.974V306.026Z" fill="#00B975"/>
<path d="M124.233 172.974H354.767L239.5 239.5L124.233 172.974Z" fill="#D7EFFE"/>
<path d="M354.767 172.974L239.5 372.589V239.5L354.767 172.974Z" fill="#4285F4"/>
<path d="M124.233 172.974L239.5 372.589V239.5L124.233 172.974Z" fill="#3DDC84"/>
</svg>
