<svg xmlns="http://www.w3.org/2000/svg" width="400" height="400" fill="none"><g clip-path="url(#a)"><path fill="#7EAA4C" d="M0 0h400v400H0z"/><rect width="340" height="210" x="30" y="95" fill="#D5D5D5" rx="12"/><path fill="#579280" d="M30 107c0-6.627 5.373-12 12-12h68v210H42c-6.627 0-12-5.373-12-12z"/><circle cx="50" cy="120" r="5" fill="#B4C562"/><circle cx="50" cy="138" r="5" fill="#B4C562"/><circle cx="50" cy="156" r="5" fill="#B4C562"/><circle cx="50" cy="174" r="5" fill="#B4C562"/><circle cx="50" cy="192" r="5" fill="#B4C562"/><rect width="20" height="4" x="58" y="118" fill="#B4C562" rx="2"/><rect width="14" height="4" x="58" y="172" fill="#B4C562" rx="2"/><rect width="30" height="4" x="58" y="136" fill="#B4C562" rx="2"/><rect width="20" height="4" x="58" y="190" fill="#B4C562" rx="2"/><rect width="25" height="4" x="58" y="154" fill="#B4C562" rx="2"/><rect width="66" height="50" x="131" y="115" fill="#7EAA4C" rx="6"/><rect width="66" height="50" x="131" y="175" fill="#7EAA4C" rx="6"/><rect width="66" height="50" x="131" y="235" fill="#7EAA4C" rx="6"/><rect width="66" height="50" x="207" y="115" fill="#7EAA4C" rx="6"/><rect width="66" height="50" x="207" y="175" fill="#7EAA4C" rx="6"/><rect width="66" height="50" x="207" y="235" fill="#7EAA4C" rx="6"/><rect width="66" height="50" x="283" y="115" fill="#7EAA4C" rx="6"/><rect width="66" height="50" x="283" y="175" fill="#7EAA4C" rx="6"/><rect width="66" height="50" x="283" y="235" fill="#7EAA4C" rx="6"/><rect width="200" height="140" x="160" y="155" fill="#5268C3" rx="6"/><path fill="#4A521D" d="M160 161a6 6 0 0 1 6-6h14v140h-14a6 6 0 0 1-6-6z"/><circle cx="170.5" cy="198.5" r="2.5" fill="#B4C562"/><circle cx="170.5" cy="208.5" r="2.5" fill="#B4C562"/><circle cx="170.5" cy="218.5" r="2.5" fill="#B4C562"/><circle cx="170.5" cy="228.5" r="2.5" fill="#B4C562"/><circle cx="170.5" cy="238.5" r="2.5" fill="#B4C562"/><path fill="#BEAC47" d="M172 165h-3v4h-4v3h4v4h3v-4h4v-3h-4z"/><rect width="50" height="36" x="190" y="166" fill="#D5D5D5" rx="6"/><rect width="50" height="36" x="245" y="166" fill="#D5D5D5" rx="6"/><rect width="50" height="36" x="300" y="166" fill="#D5D5D5" rx="6"/><rect width="50" height="36" x="245" y="207" fill="#D5D5D5" rx="6"/><rect width="50" height="36" x="190" y="207" fill="#D5D5D5" rx="6"/><rect width="50" height="36" x="245" y="248" fill="#D5D5D5" rx="6"/><rect width="50" height="36" x="300" y="207" fill="#D5D5D5" rx="6"/><rect width="50" height="36" x="190" y="248" fill="#D5D5D5" rx="6"/><rect width="50" height="36" x="300" y="248" fill="#D5D5D5" rx="6"/></g><defs><clipPath id="a"><path fill="#fff" d="M0 0h400v400H0z"/></clipPath></defs></svg>