<svg xmlns="http://www.w3.org/2000/svg" width="396" height="264" fill="none"><path fill="#F8F9FA" d="M0 24C0 10.745 10.745 0 24 0h348c13.255 0 24 10.745 24 24v216c0 13.255-10.745 24-24 24H24c-13.255 0-24-10.745-24-24z"/><path fill="#34A853" fill-rule="evenodd" d="M115.822 103.674a2.744 2.744 0 0 1-2.739 2.75H91.169a2.744 2.744 0 0 1-2.74-2.75 2.744 2.744 0 0 1 2.74-2.75h21.914a2.744 2.744 0 0 1 2.739 2.75M115.822 125.674a2.744 2.744 0 0 1-2.739 2.75H91.169a2.744 2.744 0 0 1-2.74-2.75 2.744 2.744 0 0 1 2.74-2.75h21.914a2.744 2.744 0 0 1 2.739 2.75M115.822 147.674a2.744 2.744 0 0 1-2.739 2.75H91.169a2.744 2.744 0 0 1-2.74-2.75 2.744 2.744 0 0 1 2.74-2.75h21.914a2.744 2.744 0 0 1 2.739 2.75M115.822 169.674a2.744 2.744 0 0 1-2.739 2.75H91.169a2.744 2.744 0 0 1-2.74-2.75 2.744 2.744 0 0 1 2.74-2.75h21.914a2.744 2.744 0 0 1 2.739 2.75M165.129 214.5a2.744 2.744 0 0 1 2.739 2.75v22a2.744 2.744 0 0 1-2.739 2.75 2.744 2.744 0 0 1-2.739-2.75v-22a2.744 2.744 0 0 1 2.739-2.75M187.043 214.5a2.744 2.744 0 0 1 2.739 2.75v22a2.744 2.744 0 0 1-2.739 2.75 2.744 2.744 0 0 1-2.739-2.75v-22a2.744 2.744 0 0 1 2.739-2.75M208.957 214.5a2.744 2.744 0 0 1 2.739 2.75v22a2.744 2.744 0 0 1-2.739 2.75 2.744 2.744 0 0 1-2.739-2.75v-22a2.744 2.744 0 0 1 2.739-2.75M230.871 214.5a2.744 2.744 0 0 1 2.739 2.75v22a2.744 2.744 0 0 1-2.739 2.75 2.744 2.744 0 0 1-2.739-2.75v-22a2.744 2.744 0 0 1 2.739-2.75M307.57 103.674a2.744 2.744 0 0 1-2.739 2.75h-21.914a2.744 2.744 0 0 1-2.739-2.75 2.744 2.744 0 0 1 2.739-2.75h21.914a2.744 2.744 0 0 1 2.739 2.75M307.57 125.674a2.744 2.744 0 0 1-2.739 2.75h-21.914a2.744 2.744 0 0 1-2.739-2.75 2.744 2.744 0 0 1 2.739-2.75h21.914a2.744 2.744 0 0 1 2.739 2.75M307.57 147.674a2.744 2.744 0 0 1-2.739 2.75h-21.914a2.744 2.744 0 0 1-2.739-2.75 2.744 2.744 0 0 1 2.739-2.75h21.914a2.744 2.744 0 0 1 2.739 2.75M307.57 169.674a2.744 2.744 0 0 1-2.739 2.75h-21.914a2.744 2.744 0 0 1-2.739-2.75 2.744 2.744 0 0 1 2.739-2.75h21.914a2.744 2.744 0 0 1 2.739 2.75M165.129 22a2.744 2.744 0 0 1 2.739 2.75v22a2.744 2.744 0 0 1-2.739 2.75 2.744 2.744 0 0 1-2.739-2.75v-22a2.744 2.744 0 0 1 2.739-2.75M187.043 22a2.744 2.744 0 0 1 2.739 2.75v22a2.744 2.744 0 0 1-2.739 2.75 2.744 2.744 0 0 1-2.739-2.75v-22a2.744 2.744 0 0 1 2.739-2.75M208.957 22a2.744 2.744 0 0 1 2.739 2.75v22a2.744 2.744 0 0 1-2.739 2.75 2.744 2.744 0 0 1-2.739-2.75v-22a2.744 2.744 0 0 1 2.739-2.75M230.871 22a2.744 2.744 0 0 1 2.739 2.75v22a2.744 2.744 0 0 1-2.739 2.75 2.744 2.744 0 0 1-2.739-2.75v-22a2.744 2.744 0 0 1 2.739-2.75" clip-rule="evenodd"/><path fill="#CEEAD6" d="M110.344 88c0-24.3 19.622-44 43.828-44h87.656c24.206 0 43.828 19.7 43.828 44v88c0 24.301-19.622 44-43.828 44h-87.656c-24.206 0-43.828-19.699-43.828-44z"/><path fill="#34A853" fill-rule="evenodd" d="M241.828 49.5h-87.656c-21.18 0-38.35 17.237-38.35 38.5v88c0 21.263 17.17 38.5 38.35 38.5h87.656c21.18 0 38.35-17.237 38.35-38.5V88c0-21.263-17.17-38.5-38.35-38.5M154.172 44c-24.206 0-43.828 19.7-43.828 44v88c0 24.301 19.622 44 43.828 44h87.656c24.206 0 43.828-19.699 43.828-44V88c0-24.3-19.622-44-43.828-44z" clip-rule="evenodd"/><path fill="#34A853" fill-rule="evenodd" d="M241.828 71.5h-87.656c-9.077 0-16.436 7.387-16.436 16.5v88c0 9.113 7.359 16.5 16.436 16.5h87.656c9.077 0 16.436-7.387 16.436-16.5V88c0-9.113-7.359-16.5-16.436-16.5M154.172 66c-12.103 0-21.914 9.85-21.914 22v88c0 12.15 9.811 22 21.914 22h87.656c12.103 0 21.914-9.85 21.914-22V88c0-12.15-9.811-22-21.914-22z" clip-rule="evenodd"/></svg>