<svg xmlns="http://www.w3.org/2000/svg" width="396" height="264" fill="none"><path fill="#F8F9FA" d="M0 24C0 10.745 10.745 0 24 0h348c13.255 0 24 10.745 24 24v216c0 13.255-10.745 24-24 24H24c-13.255 0-24-10.745-24-24z"/><g fill="#AC162C" clip-path="url(#a)"><path d="M211.436 163.181h-8.504v-27.285c2.716 1.52 6.307 4.323 8.504 7.012zM139.675 163.181h-10.602l-13.837-42.935h9.645l9.524 30.187h.12l9.642-30.187h9.703zM182.387 163.181h-8.089v-4.328h-.178q-1.617 2.707-4.194 3.91-2.575 1.201-5.272 1.201-3.413 0-5.601-.9c-1.456-.6-2.605-1.455-3.444-2.555q-1.26-1.653-1.769-4.03-.506-2.374-.507-5.261v-19.124h8.506v17.559q0 3.848 1.199 5.742 1.198 1.896 4.253 1.894 3.474.001 5.031-2.075 1.558-2.076 1.557-6.826v-16.296h8.508zM212.849 144.48l-.021-1.204 10.722-11.182h10.065l-11.681 11.424 12.998 19.663h-10.303zM236.489 141.654q.18-3.006 1.499-4.992a10.2 10.2 0 0 1 3.354-3.186q2.037-1.204 4.584-1.713a26 26 0 0 1 5.121-.511q2.335 0 4.731.33 2.397.332 4.372 1.295a8.7 8.7 0 0 1 3.237 2.674q1.257 1.714 1.257 4.541v16.176q0 2.107.239 4.03.239 1.926.841 2.887h-8.626a12.6 12.6 0 0 1-.599-3.007 11.1 11.1 0 0 1-4.794 2.949 19.2 19.2 0 0 1-5.63.841q-2.218 0-4.132-.541-1.918-.54-3.354-1.683a7.8 7.8 0 0 1-2.247-2.887q-.808-1.743-.809-4.148 0-2.645.929-4.36.928-1.714 2.398-2.736 1.468-1.023 3.354-1.534a36 36 0 0 1 3.802-.812 67 67 0 0 1 3.775-.48q1.857-.18 3.293-.541 1.439-.361 2.276-1.054.84-.691.78-2.014 0-1.383-.45-2.195-.45-.81-1.197-1.262t-1.738-.602a14 14 0 0 0-2.125-.152q-2.516-.001-3.954 1.084-1.437 1.082-1.677 3.609h-8.51zm19.647 6.315q-.54.481-1.348.751a13 13 0 0 1-1.737.453q-.93.18-1.946.301-1.018.118-2.037.3-.958.181-1.887.48a5.6 5.6 0 0 0-1.618.812 3.9 3.9 0 0 0-1.109 1.293q-.418.781-.419 1.984.001 1.144.419 1.923.422.783 1.139 1.233a4.8 4.8 0 0 0 1.676.632q.96.18 1.977.179 2.517 0 3.895-.84 1.379-.842 2.035-2.016c.438-.781.711-1.572.807-2.374q.15-1.202.151-1.923v-3.188zM270.15 132.094h8.089v4.328h.179q1.616-2.705 4.192-3.937 2.577-1.234 5.269-1.233c2.279 0 4.144.311 5.603.932q2.185.934 3.444 2.586 1.258 1.655 1.767 4.028.51 2.376.51 5.263v19.122h-8.504v-17.558q-.002-3.851-1.197-5.743-1.2-1.894-4.255-1.894c-2.317 0-3.991.692-5.031 2.075q-1.558 2.072-1.557 6.824v16.296h-8.507v-31.089zM188.016 126.729v36.454h8.506v-31.746a106 106 0 0 0-8.506-4.708"/><path d="M101.249 128.281c4.93-14.497 34.408-19.815 65.85-11.875 18.858 4.76 34.269 13.994 44.335 23.124-4.568-12.11-26.713-29.374-57.206-35.292-34.477-6.691-68.482-.81-72.691 14.55-3.04 11.096 10.308 24.095 30.951 32.983-9.273-7.537-13.784-16.005-11.239-23.49M211.449 134.259v-14.013h-8.509v4.255c3.629 3.253 6.507 6.566 8.509 9.758M314.331 158.629c0 2.58-2.019 4.606-4.643 4.606-2.599 0-4.672-2.026-4.672-4.606 0-2.525 2.073-4.552 4.672-4.552 2.624 0 4.643 2.027 4.643 4.552m-8.154 0c0 2.026 1.492 3.634 3.538 3.634 1.989 0 3.455-1.61 3.455-3.607 0-2.026-1.466-3.663-3.484-3.663-2.017.002-3.509 1.639-3.509 3.636m2.794 2.386h-1.054v-4.552c.415-.084.995-.138 1.742-.138.857 0 1.243.138 1.576.332.249.194.442.556.442 1 0 .498-.388.888-.939 1.054v.055c.442.166.692.498.83 1.109.138.694.22.972.331 1.138h-1.134c-.138-.166-.22-.583-.358-1.109-.084-.499-.359-.722-.939-.722h-.497zm.023-2.58h.499c.581 0 1.05-.193 1.05-.667 0-.416-.304-.694-.968-.694-.277 0-.47.027-.581.054z"/></g><defs><clipPath id="a"><path fill="#fff" d="M77.473 96.25h241.055v72.81H77.473z"/></clipPath></defs></svg>