<svg xmlns="http://www.w3.org/2000/svg" width="289" height="289" fill="none"><path fill="#EBDCFF" d="M0 0h289v289H0z"/><rect width="50.575" height="50.575" x="91.939" y="13.102" fill="#FFB68A" rx="12" transform="rotate(15 91.94 13.102)"/><path fill="#FFF9E6" d="M213.196 41.666c5.932 2.726 6.636 10.775 1.268 14.49l-38.6 26.707c-5.37 3.716-12.787.309-13.351-6.132l-4.051-46.307c-.564-6.44 6.15-11.084 12.083-8.357l42.651 19.6Z"/><rect width="57.8" height="17.34" x="43.058" y="151.225" fill="#63CEAD" rx="8.67" transform="rotate(70 43.058 151.225)"/><circle cx="237.703" cy="182.07" r="20.622" stroke="#FF8517" stroke-width="18"/><path fill="#E2FFFE" d="m200.996 218.615-28.288-9.443c-11.855-3.958-23.126 7.313-19.169 19.169l9.443 28.288c4.517 13.531 23.512 13.928 28.562.598l.345-.911a15.14 15.14 0 0 1 8.795-8.795l.91-.345c13.331-5.05 12.933-24.044-.598-28.561Z"/><path fill="#F5FFC3" d="M43.957 128.136a8.167 8.167 0 0 0 7.07 1.247l7.948-2.29 8.17-1.283a8.17 8.17 0 0 0 5.881-4.118l4-7.239 4.87-6.685a8.167 8.167 0 0 0 1.247-7.07l-2.29-7.947-1.283-8.17a8.169 8.169 0 0 0-4.118-5.882l-7.239-4-6.685-4.87a8.168 8.168 0 0 0-7.07-1.247l-7.947 2.29-8.17 1.283a8.168 8.168 0 0 0-5.882 4.118l-4 7.239-4.87 6.685a8.168 8.168 0 0 0-1.247 7.07l2.29 7.948 1.283 8.17a8.168 8.168 0 0 0 4.118 5.881l7.239 4.001 6.685 4.869Z"/><path fill="#576500" d="M255.095 119.663c2.96 5.127 1.158 11.709-4.026 14.701-5.183 2.993-11.785 1.263-14.745-3.863l-5.478-9.489-9.489 5.478c-5.126 2.96-11.708 1.158-14.701-4.026-2.993-5.183-1.263-11.785 3.864-14.745l9.488-5.478-5.478-9.489c-2.96-5.126-1.157-11.708 4.027-14.7 5.183-2.994 11.784-1.264 14.744 3.863l5.479 9.488 9.488-5.478c5.127-2.96 11.709-1.157 14.701 4.026 2.993 5.184 1.263 11.785-3.863 14.745l-9.489 5.479 5.478 9.488Z"/><rect width="50.575" height="50.575" x="92.48" y="197.242" fill="#D198E6" rx="24" transform="rotate(30 92.48 197.242)"/></svg>