<svg xmlns="http://www.w3.org/2000/svg" width="400" height="400" fill="none"><g clip-path="url(#a)"><path fill="#D6F8A3" d="M0 0h400v400H0z"/><path fill="#4E4639" d="M0 0h400v400H0z"/><rect width="58" height="98" x="21" y="21" stroke="#8DA3FF" stroke-width="2" rx="7"/><rect width="30" height="50" x="35" y="45" fill="#63CEAD" rx="15"/><rect width="58" height="98" x="121" y="21" stroke="#8DA3FF" stroke-width="2" rx="7"/><rect width="28" height="28" x="136" y="56" stroke="#8DA3FF" stroke-width="2" rx="14"/><rect width="58" height="98" x="21" y="151" stroke="#8DA3FF" stroke-width="2" rx="7"/><rect width="30" height="15" x="35" y="170" fill="#63CEAD" rx="4"/><rect width="28" height="13" x="36" y="216" stroke="#8DA3FF" stroke-width="2" rx="3"/><rect width="58" height="98" x="121" y="151" stroke="#8DA3FF" stroke-width="2" rx="7"/><rect width="58" height="98" x="221" y="151" stroke="#8DA3FF" stroke-width="2" rx="7"/><rect width="28" height="48" x="236" y="176" stroke="#8DA3FF" stroke-width="2" rx="14"/><rect width="58" height="98" x="321" y="151" stroke="#8DA3FF" stroke-width="2" rx="7"/><rect width="30" height="30" x="335" y="185" fill="#FFEC8F" rx="8"/><rect width="58" height="98" x="121" y="281" stroke="#8DA3FF" stroke-width="2" rx="7"/><path fill="#FF8517" d="M148.267 315.401a3.943 3.943 0 0 1 3.466 0l3.587 1.755 3.777 1.296a3.937 3.937 0 0 1 2.451 2.451l1.296 3.777 1.755 3.587a3.943 3.943 0 0 1 0 3.466l-1.755 3.587-1.296 3.777a3.937 3.937 0 0 1-2.451 2.451l-3.777 1.296-3.587 1.755a3.943 3.943 0 0 1-3.466 0l-3.587-1.755-3.777-1.296a3.937 3.937 0 0 1-2.451-2.451l-1.296-3.777-1.755-3.587a3.943 3.943 0 0 1 0-3.466l1.755-3.587 1.296-3.777a3.937 3.937 0 0 1 2.451-2.451l3.777-1.296 3.587-1.755Z"/><rect width="58" height="98" x="321" y="281" stroke="#8DA3FF" stroke-width="2" rx="7"/><rect width="26.923" height="53.846" x="337" y="303" fill="#63CEAD" rx="13.461"/><path fill="#8DA3FF" d="m120 70-10-5.773v11.546L120 70Zm-40 1h31v-2H80v2ZM80 200l10 5.774v-11.548L80 200Zm40-1H89v2h31v-2ZM150 150l5.774-10h-11.548L150 150Zm-1-30v21h2v-21h-2ZM150 280l5.774-10h-11.548L150 280Zm-1-30v21h2v-21h-2ZM350 280l5.774-10h-11.548L350 280Zm-1-30v21h2v-21h-2ZM220 200l-10-5.774v11.548L220 200Zm-40 1h31v-2h-31v2ZM320 200l-10-5.774v11.548L320 200Zm-40 1h31v-2h-31v2Z"/><path stroke="#8DA3FF" stroke-linecap="round" stroke-linejoin="round" stroke-width="2" d="M179 331.213a34.823 34.823 0 0 0 1.915 1.527c3.516 2.608 6.625 3.167 10.518.552 2.015-1.346 3.65-2.94 5.421-4.437 2.104-1.737 5.081-4.381 8.767-3.757 3.408.606 6.409 3.73 8.607 5.574 1.797 1.513 3.834 3.393 6.533 4.119 1.927.515 3.874.019 5.417-.836 2.512-1.39 4.347-3.263 6.377-4.972 1.34-1.14 2.724-2.298 4.461-3.154 1.697-.848 3.664-1.118 5.579-.445 1.213.415 2.248 1.052 3.188 1.72 1.198.859 2.278 1.804 3.346 2.741 1.085.944 2.159 1.908 3.349 2.791.986.732 2.066 1.438 3.346 1.913 1.951.742 3.963.521 5.738-.355 1.672-.814 3.011-1.914 4.303-3.004 2.049-1.718 3.89-3.6 6.375-5.033 1.446-.837 3.375-1.433 5.258-1.025 2.829.602 5.027 2.629 6.856 4.165 2.21 1.853 5.203 4.974 8.607 5.603 3.419.589 6.106-1.569 8.129-3.182 1.671-1.377 3.198-2.845 4.941-4.181 1.484-1.101 3.187-2.276 5.421-2.506 3.934-.369 7.322 3.092 9.548 4.959"/></g><defs><clipPath id="a"><path fill="#fff" d="M0 0h400v400H0z"/></clipPath></defs></svg>