<svg xmlns="http://www.w3.org/2000/svg" width="853" height="480" fill="none"><path fill="#CEEAD6" d="M354.66 263.043a5.34 5.34 0 0 0 5.34-5.34v-35.234a5.34 5.34 0 0 0-5.34-5.34h-21.87c-2.387 0-4.467-1.59-5.229-3.852a83.855 83.855 0 0 0-4.346-10.488c-1.061-2.139-.715-4.735.973-6.423l15.463-15.463a5.34 5.34 0 0 0 .002-7.551l-24.894-24.913a5.34 5.34 0 0 0-7.566.011l-15.33 15.433c-1.69 1.702-4.3 2.051-6.448.982a82.15 82.15 0 0 0-10.458-4.332c-2.268-.761-3.864-2.844-3.864-5.235v-21.836a5.34 5.34 0 0 0-5.34-5.339h-35.234a5.34 5.34 0 0 0-5.34 5.339v21.836c0 2.391-1.596 4.474-3.864 5.235a82.11 82.11 0 0 0-10.477 4.342c-2.138 1.065-4.737.724-6.429-.963l-15.532-15.479a5.339 5.339 0 0 0-7.542.003l-24.954 24.916a5.339 5.339 0 0 0-.003 7.555l15.434 15.434c1.688 1.688 2.034 4.285.973 6.423a83.855 83.855 0 0 0-4.346 10.488c-.762 2.262-2.842 3.853-5.229 3.853h-21.87a5.34 5.34 0 0 0-5.34 5.339v35.234a5.34 5.34 0 0 0 5.34 5.34h21.868c2.388 0 4.469 1.591 5.23 3.854a83.93 83.93 0 0 0 4.35 10.512c1.06 2.138.713 4.733-.974 6.42l-15.435 15.435a5.34 5.34 0 0 0 .004 7.556l24.945 24.888a5.341 5.341 0 0 0 7.548-.004l15.459-15.459c1.692-1.692 4.294-2.035 6.436-.969a82.14 82.14 0 0 0 10.47 4.338c2.268.761 3.864 2.844 3.864 5.236v21.835a5.34 5.34 0 0 0 5.34 5.34h35.234a5.34 5.34 0 0 0 5.339-5.34v-21.761c0-2.392 1.597-4.475 3.865-5.235a82.145 82.145 0 0 0 10.47-4.339c2.142-1.066 4.744-.723 6.436.969l15.45 15.45a5.34 5.34 0 0 0 7.556-.004l24.864-24.92a5.34 5.34 0 0 0-.005-7.548l-15.443-15.443c-1.687-1.687-2.034-4.282-.975-6.42a83.91 83.91 0 0 0 4.351-10.512c.761-2.263 2.842-3.854 5.229-3.854h21.844Z"/><path fill="#fff" d="M248.007 293.303c29.374 0 53.187-23.812 53.187-53.186s-23.813-53.186-53.187-53.186c-29.373 0-53.186 23.812-53.186 53.186s23.813 53.186 53.186 53.186Z"/><path fill="#34A853" d="M502.751 89.912a4.877 4.877 0 0 0-4.877 4.877h23.572a4.877 4.877 0 0 0-4.877-4.877h-13.818ZM540.142 89.912a4.877 4.877 0 0 0-4.877 4.877h39.016a4.877 4.877 0 0 0-4.877-4.877h-29.262Z"/><rect width="143.936" height="300" x="406.396" y="256.17" fill="#4285F4" stroke="#4285F4" stroke-width="4" rx="40.064" transform="rotate(-90 406.396 256.17)"/><path fill="#fff" d="M445.564 241.436c-23.231 0-42.064-18.833-42.064-42.064v-63.808c0-23.231 18.833-42.064 42.064-42.064h219.872c23.231 0 42.064 18.833 42.064 42.064v63.808c0 23.231-18.833 42.064-42.064 42.064H445.564Z"/><g clip-path="url(#a)"><path fill="#34A853" d="M667.169 238.975c-.045-.289-.089-.574-.138-.859a70.303 70.303 0 0 0-3.868-14.059 70.518 70.518 0 0 0-3.202-7.039 71.557 71.557 0 0 0-5.165-8.398 70.997 70.997 0 0 0-7.798-9.158 71.35 71.35 0 0 0-12.555-9.921c.027-.045.051-.093.079-.137 1.427-2.459 2.858-4.915 4.285-7.373l4.189-7.201c1.003-1.723 2.006-3.45 3.006-5.173a6.472 6.472 0 0 0 .365-5.777 6.423 6.423 0 0 0-2.665-3.05 6.57 6.57 0 0 0-3.992-.877 6.505 6.505 0 0 0-4.137 2.077 6.503 6.503 0 0 0-.82 1.118 3011.642 3011.642 0 0 0-3.006 5.172l-4.189 7.201c-1.427 2.459-2.858 4.914-4.285 7.373-.155.268-.314.536-.469.808-.217-.086-.431-.172-.648-.255-7.871-2.991-16.41-4.628-25.336-4.628-.244 0-.486 0-.73.003a71.184 71.184 0 0 0-22.674 3.924c-.824.285-1.638.588-2.445.904-.144-.251-.293-.502-.437-.753-1.428-2.459-2.858-4.914-4.286-7.373l-4.188-7.201a3449.238 3449.238 0 0 1-3.006-5.172 6.498 6.498 0 0 0-4.958-3.195 6.673 6.673 0 0 0-1.224-.01 6.487 6.487 0 0 0-2.768.887 6.481 6.481 0 0 0-2.255 2.239 6.57 6.57 0 0 0-.703 1.668 6.478 6.478 0 0 0 .659 4.921c1.003 1.723 2.006 3.449 3.006 5.172l4.188 7.201c1.428 2.459 2.858 4.914 4.286 7.373.01.021.024.041.034.062a71.52 71.52 0 0 0-8.205 5.925 71.622 71.622 0 0 0-12.269 13.233 70.44 70.44 0 0 0-5.165 8.398 70.518 70.518 0 0 0-7.07 21.097c-.049.286-.093.575-.138.86a70.401 70.401 0 0 0-.407 3.105h141.501a71.937 71.937 0 0 0-.407-3.105l.01-.007Z"/><path fill="#202124" d="M633.62 222.66c2.831-1.879 3.242-6.226.918-9.71-2.323-3.483-6.502-4.784-9.333-2.905-2.831 1.88-3.242 6.227-.919 9.71 2.324 3.483 6.503 4.784 9.334 2.905ZM569.47 219.763c2.323-3.483 1.912-7.83-.919-9.709-2.831-1.88-7.01-.579-9.333 2.904-2.324 3.484-1.913 7.831.918 9.71 2.831 1.879 7.01.579 9.334-2.905Z"/></g><path stroke="#A0C2F9" stroke-linecap="round" stroke-width="4" d="M707.581 201.271v-65.23c0-23.232-18.832-42.064-42.064-42.064H447.271c-23.231 0-42.064 18.832-42.064 42.064v62.791"/><circle cx="419.433" cy="168.352" r="4.471" fill="#4285F4" transform="rotate(-90 419.433 168.352)"/><rect width="85.464" height="85.464" x="457.326" y="125.612" fill="#fff" rx="42.732"/><rect width="15.539" height="54.386" x="492.287" y="141.146" fill="#4285F4" rx="7.769"/><rect width="15.539" height="54.386" x="527.246" y="160.568" fill="#4285F4" rx="7.769" transform="rotate(90 527.246 160.568)"/><path fill="#34A853" fill-rule="evenodd" d="m324.263 341.148-20.285 26.081a45.107 45.107 0 0 1-35.604 17.414c-28.856 0-50.291-26.722-44.032-54.89l14.097-63.434c2.678-35.987 32.725-64.352 69.396-64.352h134.831c36.674 0 66.722 28.369 69.397 64.359l14.095 63.427c6.26 28.168-15.175 54.89-44.031 54.89a45.106 45.106 0 0 1-35.604-17.414l-20.286-26.081H324.263Z" clip-rule="evenodd"/><path fill="#34A853" d="M238.236 271.558c0-38.434 31.157-69.591 69.59-69.591h134.832c38.433 0 69.59 31.157 69.59 69.591 0 38.433-31.157 69.59-69.591 69.59H307.826c-38.433 0-69.59-31.157-69.59-69.59Z"/><rect width="72.533" height="72.533" x="385.163" y="228.953" fill="#C6FF00" rx="36.266"/><rect width="17.435" height="17.433" x="412.363" y="239.31" fill="#34A853" rx="8.717"/><rect width="17.433" height="17.435" x="447.233" y="256.737" fill="#34A853" rx="8.717" transform="rotate(90 447.233 256.737)"/><rect width="17.435" height="17.433" x="412.363" y="274.176" fill="#34A853" rx="8.717"/><rect width="17.433" height="17.435" x="412.363" y="256.737" fill="#34A853" rx="8.717" transform="rotate(90 412.363 256.737)"/><rect width="26.864" height="10.746" x="362.94" y="307.072" fill="#fff" rx="5.373"/><rect width="72.533" height="72.533" x="293.092" y="229.436" fill="#E6F4EA" rx="36.266"/><rect width="13.432" height="45.669" x="322.641" y="242.868" fill="#34A853" rx="6.716"/><rect width="13.432" height="45.669" x="352.194" y="258.987" fill="#34A853" rx="6.716" transform="rotate(90 352.194 258.987)"/><path stroke="#0D652D" stroke-linecap="round" stroke-width="4.377" d="M322.745 341.568h-15.05c-9.514.173-33.466-4.671-47.744-19.721-19.202-20.239-21.655-40.479-21.655-48.782M427.575 341.043h15.99c9.457.171 32.161-2.632 47.985-18.158 20.769-20.378 20.239-45.15 20.239-50.859"/><defs><clipPath id="a"><path fill="#fff" d="M526.072 160h141.501v82.162H526.072z"/></clipPath></defs></svg>