<svg xmlns="http://www.w3.org/2000/svg" width="480" height="480" fill="none"><path fill="#34A853" d="M149.218 90A5.218 5.218 0 0 0 144 95.217h25.218A5.217 5.217 0 0 0 164.001 90h-14.783ZM189.216 90a5.217 5.217 0 0 0-5.217 5.218h41.739A5.218 5.218 0 0 0 220.52 90h-31.304Z"/><rect width="155.261" height="322.218" x="45.5" y="270.5" fill="#34A853" stroke="#34A853" stroke-width="3" rx="43.5" transform="rotate(-90 45.5 270.5)"/><rect width="158.261" height="325.218" x="44" y="254.609" fill="#fff" rx="45" transform="rotate(-90 44 254.609)"/><path stroke="#4285F4" stroke-linecap="round" stroke-width="4" d="M368.349 208.13v-66.782c0-24.853-20.147-45-45-45H89.871c-24.853 0-45 20.147-45 45v66.174"/><circle cx="60.087" cy="175.913" r="4.783" fill="#4285F4" transform="rotate(-90 60.087 175.913)"/><rect width="24.132" height="24.13" x="157.551" y="211.378" fill="#4285F4" rx="12.065" transform="rotate(-180 157.551 211.378)"/><rect width="24.13" height="24.132" x="109.287" y="187.259" fill="#4285F4" rx="12.065" transform="rotate(-90 109.287 187.259)"/><rect width="24.132" height="24.13" x="157.551" y="163.123" fill="#4285F4" rx="12.065" transform="rotate(-180 157.551 163.123)"/><rect width="24.13" height="24.132" x="157.551" y="187.259" fill="#4285F4" rx="12.065" transform="rotate(-90 157.551 187.259)"/><rect width="18.653" height="62.487" x="281.438" y="206.715" fill="#AECBFA" rx="9.326" transform="rotate(-180 281.438 206.715)"/><rect width="18.653" height="63.42" x="240.402" y="185.264" fill="#AECBFA" rx="9.326" transform="rotate(-90 240.402 185.264)"/><path fill="#34A853" fill-rule="evenodd" d="M344.618 213h9.781c35.335 0 64.286 27.334 66.862 62.01l13.579 61.106C440.871 363.255 420.219 389 392.417 389a43.456 43.456 0 0 1-34.303-16.777l-19.544-25.128h-98.248l-19.544 25.128A43.456 43.456 0 0 1 186.475 389c-27.802 0-48.454-25.745-42.423-52.884l13.582-61.118c2.582-34.671 31.53-61.998 66.861-61.998H344.618Z" clip-rule="evenodd"/><path fill="#34A853" d="M157.437 280.048c0-37.03 30.018-67.048 67.047-67.048h129.905c37.03 0 67.048 30.018 67.048 67.048 0 37.029-30.018 67.047-67.048 67.047H224.484c-37.029 0-67.047-30.018-67.047-67.047Z"/><rect width="69.882" height="69.882" x="299" y="239" fill="#C6FF00" rx="34.941"/><rect width="16.798" height="16.796" x="325.204" y="248.978" fill="#34A853" rx="8.398"/><rect width="16.796" height="16.798" x="358.8" y="265.767" fill="#34A853" rx="8.398" transform="rotate(90 358.8 265.767)"/><rect width="16.798" height="16.796" x="325.204" y="282.569" fill="#34A853" rx="8.398"/><rect width="16.796" height="16.798" x="325.204" y="265.767" fill="#34A853" rx="8.398" transform="rotate(90 325.204 265.767)"/><rect width="25.882" height="10.353" x="277.587" y="314.265" fill="#fff" rx="5.176"/><rect width="69.882" height="69.882" x="210.293" y="239.466" fill="#E6F4EA" rx="34.941"/><rect width="12.941" height="44" x="238.762" y="252.407" fill="#34A853" rx="6.471"/><rect width="12.941" height="44" x="267.234" y="267.936" fill="#34A853" rx="6.471" transform="rotate(90 267.234 267.936)"/><path stroke="#0D652D" stroke-linecap="round" stroke-width="4" d="M238.863 347.5h-14.5c-9.166.167-32.243-4.5-46-19-18.5-19.5-20.863-39-20.863-47M339.863 346.995h15.406c9.111.165 30.986-2.536 46.232-17.495C421.511 309.867 421 286 421 280.5"/></svg>