<svg xmlns="http://www.w3.org/2000/svg" width="480" height="480" fill="none"><path fill="#4285F4" d="M107 198.952C107 185.171 118.171 174 131.952 174h217.096C362.829 174 374 185.171 374 198.952v115.096C374 327.829 362.829 339 349.048 339H131.952C118.171 339 107 327.829 107 314.048V198.952Z"/><path fill="#E6F4EA" d="M120 202.635c0-9.187 7.448-16.635 16.635-16.635h207.73c9.187 0 16.635 7.448 16.635 16.635v107.73c0 9.187-7.448 16.635-16.635 16.635h-207.73c-9.187 0-16.635-7.448-16.635-16.635v-107.73Z"/><path fill="#4285F4" d="M76 349.5c0-5.799 4.701-10.5 10.5-10.5h307c5.799 0 10.5 4.701 10.5 10.5s-4.701 10.5-10.5 10.5h-307c-5.799 0-10.5-4.701-10.5-10.5Z"/><path fill="#C6FF00" d="M198 339h84a8 8 0 0 1-8 8h-68a8 8 0 0 1-8-8Z"/><path stroke="#0D652D" stroke-linecap="round" stroke-linejoin="round" stroke-width="4" d="M122 338h236"/><g clip-path="url(#a)"><path fill="#34A853" d="M329.59 242.446a89.136 89.136 0 0 0-1.548-7.768 89.672 89.672 0 0 0-7.62-20.158 90.96 90.96 0 0 0-6.569-10.681 90.153 90.153 0 0 0-9.918-11.647 90.67 90.67 0 0 0-15.969-12.619c.035-.057.066-.118.101-.175 1.815-3.127 3.635-6.25 5.45-9.377l5.328-9.159c1.276-2.191 2.552-4.387 3.823-6.578a8.236 8.236 0 0 0 .465-7.348 8.19 8.19 0 0 0-3.39-3.879 8.356 8.356 0 0 0-3.52-1.129 8.436 8.436 0 0 0-1.557.013 8.266 8.266 0 0 0-5.262 2.642c-.39.429-.741.901-1.043 1.422a4872.288 4872.288 0 0 0-3.824 6.578l-5.327 9.158c-1.815 3.128-3.635 6.251-5.45 9.378-.197.341-.399.682-.596 1.028-.277-.11-.549-.219-.825-.324-10.01-3.805-20.871-5.887-32.223-5.887-.311 0-.618 0-.929.004a90.523 90.523 0 0 0-28.838 4.991 82.858 82.858 0 0 0-3.109 1.15c-.184-.319-.373-.639-.557-.958-1.815-3.127-3.635-6.25-5.45-9.377a43290.507 43290.507 0 0 1-9.151-15.737 8.291 8.291 0 0 0-1.043-1.422 8.271 8.271 0 0 0-6.819-2.654 8.238 8.238 0 0 0-3.521 1.128 8.237 8.237 0 0 0-2.867 2.847 8.473 8.473 0 0 0-.895 2.122 8.233 8.233 0 0 0 .838 6.258c1.276 2.192 2.552 4.387 3.823 6.579l5.328 9.158c1.815 3.128 3.635 6.25 5.45 9.378.013.026.031.052.044.078a90.91 90.91 0 0 0-10.436 7.536 90.878 90.878 0 0 0-15.605 16.831 89.43 89.43 0 0 0-6.568 10.68 89.645 89.645 0 0 0-8.993 26.834c-.062.363-.119.73-.176 1.093a91.433 91.433 0 0 0-.517 3.95h179.969a88.404 88.404 0 0 0-.517-3.95l.013-.009Z"/><path fill="#202124" d="M286.922 221.691c3.601-2.39 4.124-7.919 1.169-12.35-2.955-4.43-8.27-6.084-11.871-3.694-3.6 2.39-4.124 7.919-1.168 12.349 2.955 4.431 8.27 6.085 11.87 3.695ZM205.329 218.012c2.955-4.431 2.432-9.96-1.169-12.349-3.601-2.39-8.915-.736-11.871 3.694-2.955 4.43-2.432 9.959 1.169 12.349 3.601 2.39 8.915.736 11.871-3.694Z"/></g><path fill="#AECBFA" d="M93.182 108.721c.96-2.629 4.677-2.629 5.636 0l3.753 10.282a20.002 20.002 0 0 0 11.762 11.868l10.181 3.82c2.595.974 2.595 4.644 0 5.618l-10.181 3.82a20.002 20.002 0 0 0-11.762 11.868l-3.753 10.282c-.96 2.629-4.677 2.629-5.636 0l-3.753-10.282a19.998 19.998 0 0 0-11.762-11.868l-10.181-3.82c-2.595-.974-2.595-4.644 0-5.618l10.181-3.82a19.998 19.998 0 0 0 11.762-11.868l3.753-10.282ZM402.582 262.472c.566-1.909 3.27-1.909 3.836 0l2.379 8.032a4.003 4.003 0 0 0 2.699 2.699l8.032 2.379c1.909.566 1.909 3.27 0 3.836l-8.032 2.379a4.003 4.003 0 0 0-2.699 2.699l-2.379 8.032c-.566 1.909-3.27 1.909-3.836 0l-2.379-8.032a4.003 4.003 0 0 0-2.699-2.699l-8.032-2.379c-1.909-.566-1.909-3.27 0-3.836l8.032-2.379a4.003 4.003 0 0 0 2.699-2.699l2.379-8.032ZM141.582 73.472c.566-1.909 3.27-1.909 3.836 0l2.379 8.032a4.002 4.002 0 0 0 2.699 2.699l8.032 2.38c1.909.565 1.909 3.269 0 3.835l-8.032 2.38a4.002 4.002 0 0 0-2.699 2.698l-2.379 8.032c-.566 1.909-3.27 1.909-3.836 0l-2.379-8.032a4.002 4.002 0 0 0-2.699-2.699l-8.032-2.38c-1.909-.565-1.909-3.269 0-3.835l8.032-2.38a4.002 4.002 0 0 0 2.699-2.698l2.379-8.032Z"/><path fill="#34A853" d="M150 253h180v74H150z"/><defs><clipPath id="a"><path fill="#fff" d="M150.134 142h179.969v104.498H150.134z"/></clipPath></defs></svg>