<svg xmlns="http://www.w3.org/2000/svg" width="480" height="480" fill="none"><path fill="#34A853" d="M48 246.166a4.405 4.405 0 0 1 4.406-4.406v21.295A4.406 4.406 0 0 1 48 258.649v-12.483ZM48 279.941a4.406 4.406 0 0 1 4.406-4.406v35.246A4.405 4.405 0 0 1 48 306.376v-26.435Z"/><rect width="131.109" height="272.095" x="-1.267" y="1.267" fill="#34A853" stroke="#34A853" stroke-width="2.533" rx="36.733" transform="matrix(-1 0 0 1 197.467 157.315)"/><rect width="133.643" height="274.628" fill="#fff" rx="38" transform="matrix(-1 0 0 1 185.314 157.315)"/><path stroke="#A0C2F9" stroke-linecap="round" stroke-width="3.378" d="M148.599 431.21H89.671c-20.987 0-38-17.014-38-38V196.05c0-20.987 17.014-38 38-38h56.725"/><circle cx="4.039" cy="4.039" r="4.039" fill="#4285F4" transform="matrix(-1 0 0 1 122.898 166.862)"/><path fill="#34A853" d="M432 137.641a4.406 4.406 0 0 0-4.406-4.406v21.295a4.406 4.406 0 0 0 4.406-4.406v-12.483ZM431.999 171.416a4.406 4.406 0 0 0-4.406-4.406v35.247a4.406 4.406 0 0 0 4.406-4.406v-26.435Z"/><rect width="131.109" height="272.093" x="281.267" y="50.058" fill="#4285F4" stroke="#4285F4" stroke-width="2.533" rx="36.733"/><rect width="133.642" height="274.626" x="294.686" y="48.791" fill="#fff" rx="38"/><path stroke="#CEEAD6" stroke-linecap="round" stroke-width="3.378" d="M331.401 322.683h58.927c20.987 0 38-17.013 38-38V87.525c0-20.986-17.013-38-38-38h-56.724"/><circle cx="361.14" cy="62.376" r="4.039" fill="#34A853"/><rect width="320" height="156" x="2" y="2" stroke="#C6FF00" stroke-width="4" rx="78" transform="matrix(1 0 0 1 78 106.104)"/><rect width="152" height="86.134" x="244" y="77.001" fill="#34A853" rx="43.067"/><mask id="a" width="103" height="103" x="268" y="87" maskUnits="userSpaceOnUse" style="mask-type:alpha"><circle cx="319.732" cy="112.677" r="17.065" fill="#4285F4"/><path fill="#4285F4" d="M277.07 172.403c0-18.849 15.28-34.129 34.129-34.129h17.065c18.849 0 34.13 15.28 34.13 34.129v8.533H277.07v-8.533Z"/></mask><g mask="url(#a)"><mask id="b" width="152" height="87" x="244" y="77" maskUnits="userSpaceOnUse" style="mask-type:alpha"><rect width="152" height="86.134" x="244" y="77" fill="#4285F4" rx="43.067"/></mask><g mask="url(#b)"><path fill="#C6FF00" d="M255.74 97.014c0-4.899 3.972-8.87 8.871-8.87h110.777a8.87 8.87 0 0 1 8.871 8.87v57.45a8.87 8.87 0 0 1-8.871 8.871H264.611a8.87 8.87 0 0 1-8.871-8.871v-57.45Z"/></g></g><rect width="152" height="86.134" x="92" y="226.533" fill="#4285F4" rx="43.067"/><mask id="c" width="103" height="103" x="116" y="236" maskUnits="userSpaceOnUse" style="mask-type:alpha"><circle cx="167.732" cy="262.209" r="17.065" fill="#4285F4"/><path fill="#4285F4" d="M125.07 321.935c0-18.849 15.28-34.129 34.129-34.129h17.065c18.849 0 34.13 15.28 34.13 34.129v8.533H125.07v-8.533Z"/></mask><g mask="url(#c)"><mask id="d" width="152" height="87" x="92" y="226" maskUnits="userSpaceOnUse" style="mask-type:alpha"><rect width="152" height="86.134" x="92" y="226.533" fill="#4285F4" rx="43.067"/></mask><g mask="url(#d)"><path fill="#E6F4EA" d="M103.74 246.547a8.87 8.87 0 0 1 8.871-8.871h110.777a8.87 8.87 0 0 1 8.871 8.871v57.45a8.87 8.87 0 0 1-8.871 8.87H112.611a8.87 8.87 0 0 1-8.871-8.87v-57.45Z"/></g></g><path fill="#C6FF00" d="M177.182 80.361c.959-2.628 4.677-2.628 5.636 0l3.753 10.283a20.002 20.002 0 0 0 11.762 11.867l10.181 3.821c2.595.973 2.595 4.644 0 5.617l-10.181 3.821a20.003 20.003 0 0 0-11.762 11.867l-3.753 10.283c-.959 2.628-4.677 2.628-5.636 0l-3.753-10.283a20.003 20.003 0 0 0-11.762-11.867l-10.181-3.821c-2.595-.973-2.595-4.644 0-5.617l10.181-3.821a20.002 20.002 0 0 0 11.762-11.867l3.753-10.283ZM97.306 50.056c.566-1.909 3.27-1.909 3.835 0l2.38 8.032a4 4 0 0 0 2.699 2.699l8.031 2.38c1.909.565 1.909 3.269 0 3.835l-8.031 2.38a4 4 0 0 0-2.699 2.698l-2.38 8.032c-.565 1.909-3.27 1.909-3.835 0l-2.38-8.032a4 4 0 0 0-2.698-2.699l-8.032-2.38c-1.91-.565-1.91-3.269 0-3.835l8.032-2.38a4 4 0 0 0 2.699-2.698l2.379-8.032ZM318.082 355.472c.566-1.909 3.27-1.909 3.836 0l2.379 8.032a4.003 4.003 0 0 0 2.699 2.699l8.032 2.379c1.909.566 1.909 3.27 0 3.836l-8.032 2.379a4.003 4.003 0 0 0-2.699 2.699l-2.379 8.032c-.566 1.909-3.27 1.909-3.836 0l-2.379-8.032a4.003 4.003 0 0 0-2.699-2.699l-8.032-2.379c-1.909-.566-1.909-3.27 0-3.836l8.032-2.379a4.003 4.003 0 0 0 2.699-2.699l2.379-8.032Z"/></svg>