<svg xmlns="http://www.w3.org/2000/svg" width="481" height="480" fill="none"><path fill="#2A8642" d="M48.5 246.166a4.405 4.405 0 0 1 4.406-4.406v21.294a4.405 4.405 0 0 1-4.406-4.405v-12.483ZM48.5 279.939a4.406 4.406 0 0 1 4.406-4.406v35.247a4.406 4.406 0 0 1-4.406-4.406v-26.435Z"/><rect width="131.109" height="272.095" x="-1.267" y="1.267" fill="#2A8642" stroke="#2A8642" stroke-width="2.533" rx="36.733" transform="matrix(-1 0 0 1 197.967 157.314)"/><rect width="133.643" height="274.628" fill="#121212" rx="38" transform="matrix(-1 0 0 1 185.814 157.314)"/><path stroke="#164590" stroke-linecap="round" stroke-width="3.378" d="M149.099 431.208H90.172c-20.987 0-38-17.013-38-38V196.049c0-20.987 17.013-38 38-38h56.724"/><circle cx="4.039" cy="4.039" r="4.039" fill="#356AC3" transform="matrix(-1 0 0 1 123.398 166.861)"/><path fill="#2A8642" d="M432.5 137.64a4.406 4.406 0 0 0-4.406-4.406v21.295a4.406 4.406 0 0 0 4.406-4.406V137.64ZM432.499 171.416a4.406 4.406 0 0 0-4.406-4.406v35.246a4.406 4.406 0 0 0 4.406-4.406v-26.434Z"/><rect width="131.109" height="272.093" x="281.767" y="50.058" fill="#356AC3" stroke="#356AC3" stroke-width="2.533" rx="36.733"/><rect width="133.642" height="274.626" x="295.186" y="48.791" fill="#121212" rx="38"/><path stroke="#103C20" stroke-linecap="round" stroke-width="3.378" d="M331.901 322.683h58.928c20.986 0 37.999-17.013 37.999-38V87.525c0-20.987-17.013-38-37.999-38h-56.725"/><circle cx="361.64" cy="62.377" r="4.039" fill="#2A8642"/><rect width="320" height="156" x="2" y="2" stroke="#A2D004" stroke-width="4" rx="78" transform="matrix(1 0 0 1 78.5 106.104)"/><rect width="152" height="86.134" x="244.5" y="77.002" fill="#2A8642" rx="43.067"/><mask id="a" width="103" height="103" x="269" y="87" maskUnits="userSpaceOnUse" style="mask-type:alpha"><circle cx="320.232" cy="112.678" r="17.065" fill="#4285F4"/><path fill="#4285F4" d="M277.57 172.405c0-18.849 15.28-34.13 34.129-34.13h17.065c18.85 0 34.13 15.281 34.13 34.13v8.532H277.57v-8.532Z"/></mask><g mask="url(#a)"><mask id="b" width="153" height="87" x="244" y="77" maskUnits="userSpaceOnUse" style="mask-type:alpha"><rect width="152" height="86.134" x="244.5" y="77.002" fill="#4285F4" rx="43.067"/></mask><g mask="url(#b)"><path fill="#A2D004" d="M256.24 97.016a8.87 8.87 0 0 1 8.871-8.872h110.777a8.871 8.871 0 0 1 8.871 8.871v57.45a8.87 8.87 0 0 1-8.871 8.871H265.111a8.87 8.87 0 0 1-8.871-8.871v-57.45Z"/></g></g><rect width="152" height="86.134" x="92.5" y="226.533" fill="#356AC3" rx="43.067"/><mask id="c" width="103" height="103" x="117" y="236" maskUnits="userSpaceOnUse" style="mask-type:alpha"><circle cx="168.232" cy="262.209" r="17.065" fill="#4285F4"/><path fill="#4285F4" d="M125.57 321.936c0-18.849 15.28-34.129 34.129-34.129h17.065c18.85 0 34.13 15.28 34.13 34.129v8.533H125.57v-8.533Z"/></mask><g mask="url(#c)"><mask id="d" width="153" height="87" x="92" y="226" maskUnits="userSpaceOnUse" style="mask-type:alpha"><rect width="152" height="86.134" x="92.5" y="226.533" fill="#4285F4" rx="43.067"/></mask><g mask="url(#d)"><path fill="#112719" d="M104.24 246.547a8.87 8.87 0 0 1 8.871-8.871h110.777a8.87 8.87 0 0 1 8.871 8.871v57.45a8.871 8.871 0 0 1-8.871 8.871H113.111a8.87 8.87 0 0 1-8.871-8.871v-57.45Z"/></g></g><path fill="#A2D004" d="M177.682 80.361c.959-2.628 4.677-2.628 5.636 0l3.753 10.283a20.006 20.006 0 0 0 11.762 11.868l10.181 3.82c2.595.973 2.595 4.644 0 5.617l-10.181 3.821a20.003 20.003 0 0 0-11.762 11.867l-3.753 10.283c-.959 2.628-4.677 2.628-5.636 0l-3.753-10.283a20.003 20.003 0 0 0-11.762-11.867l-10.181-3.821c-2.595-.973-2.595-4.644 0-5.617l10.181-3.82a20.006 20.006 0 0 0 11.762-11.868l3.753-10.283ZM97.806 50.056c.566-1.909 3.27-1.909 3.835 0l2.38 8.032a4 4 0 0 0 2.699 2.699l8.031 2.38c1.909.565 1.909 3.269 0 3.835l-8.031 2.38a4 4 0 0 0-2.699 2.698l-2.38 8.032c-.565 1.909-3.27 1.909-3.835 0l-2.38-8.032a4 4 0 0 0-2.698-2.699l-8.032-2.38c-1.91-.565-1.91-3.269 0-3.835l8.032-2.38a4 4 0 0 0 2.699-2.698l2.379-8.032ZM318.582 355.472c.566-1.909 3.27-1.909 3.836 0l2.379 8.032a4.003 4.003 0 0 0 2.699 2.699l8.032 2.379c1.909.566 1.909 3.27 0 3.836l-8.032 2.379a4.003 4.003 0 0 0-2.699 2.699l-2.379 8.032c-.566 1.909-3.27 1.909-3.836 0l-2.379-8.032a4.003 4.003 0 0 0-2.699-2.699l-8.032-2.379c-1.909-.566-1.909-3.27 0-3.836l8.032-2.379a4.003 4.003 0 0 0 2.699-2.699l2.379-8.032Z"/></svg>