<svg xmlns="http://www.w3.org/2000/svg" width="480" height="480" fill="none"><path fill="#174EA6" d="M48 109.29C48 85.934 66.934 67 90.29 67h254.314c23.356 0 42.289 18.934 42.289 42.29v151.42c0 23.356-18.934 42.29-42.289 42.29H90.29C66.934 303 48 284.066 48 260.71V109.29Z"/><path fill="#4285F4" d="M56.894 109.29c0-23.356 18.933-42.29 42.29-42.29h254.313c23.356 0 42.29 18.934 42.29 42.29v151.42c0 23.356-18.934 42.29-42.29 42.29H99.183c-23.356 0-42.29-18.934-42.29-42.29V109.29Z"/><path fill="#E6F4EA" d="M72 112.202c0-15.57 12.623-28.193 28.193-28.193h252.55c15.57 0 28.193 12.622 28.193 28.193v145.596c0 15.57-12.623 28.193-28.193 28.193h-252.55c-15.57 0-28.193-12.623-28.193-28.193V112.202Z"/><path fill="#EFFFC3" d="M177.905 119.763c-.853-2.337-4.157-2.337-5.01 0l-8.63 23.644a17.776 17.776 0 0 1-10.455 10.549l-23.356 8.764c-2.306.865-2.306 4.128 0 4.993l23.356 8.764a17.779 17.779 0 0 1 10.455 10.549l8.63 23.644c.853 2.337 4.157 2.337 5.01 0l8.63-23.644a17.779 17.779 0 0 1 10.455-10.549l23.356-8.764c2.306-.865 2.306-4.128 0-4.993l-23.356-8.764a17.776 17.776 0 0 1-10.455-10.549l-8.63-23.644ZM125.227 104.817c-.421-1.421-2.433-1.421-2.854 0l-4.011 13.537a2.976 2.976 0 0 1-2.008 2.008l-13.537 4.011c-1.421.421-1.421 2.433 0 2.854l13.537 4.011a2.976 2.976 0 0 1 2.008 2.008l4.011 13.537c.421 1.421 2.433 1.421 2.854 0l4.011-13.537a2.976 2.976 0 0 1 2.008-2.008l13.537-4.011c1.421-.421 1.421-2.433 0-2.854l-13.537-4.011a2.976 2.976 0 0 1-2.008-2.008l-4.011-13.537ZM125.227 182.217c-.421-1.421-2.433-1.421-2.854 0l-4.011 13.537a2.976 2.976 0 0 1-2.008 2.008l-13.537 4.011c-1.421.421-1.421 2.433 0 2.854l13.537 4.011a2.976 2.976 0 0 1 2.008 2.008l4.011 13.537c.421 1.421 2.433 1.421 2.854 0l4.011-13.537a2.976 2.976 0 0 1 2.008-2.008l13.537-4.011c1.421-.421 1.421-2.433 0-2.854l-13.537-4.011a2.976 2.976 0 0 1-2.008-2.008l-4.011-13.537Z"/><path fill="#AECBFA" d="M358 119c35.899 0 65 29.101 65 65v215H323c-16.569 0-30-13.431-30-30V184c0-35.899 29.102-65 65-65Z"/><rect width="75.275" height="75.375" x="395.687" y="146.29" stroke="#E8F0FE" stroke-width="14" rx="37.638" transform="rotate(90 395.687 146.29)"/><rect width="97" height="37" x="334" y="367" fill="#4285F4" rx="6"/><path fill="#34A853" fill-rule="evenodd" d="M173.643 246h-9.344c-33.513 0-60.972 25.923-63.419 58.811l-12.882 57.968c-5.72 25.742 13.868 50.162 40.239 50.162a41.222 41.222 0 0 0 32.538-15.914l18.537-23.834h93.192l18.538 23.834a41.22 41.22 0 0 0 32.538 15.914c26.37 0 45.959-24.42 40.238-50.162l-12.881-57.966C348.492 271.924 321.032 246 287.518 246H173.643Z" clip-rule="evenodd"/><path fill="#34A853" d="M100.694 309.597c0-35.124 28.473-63.597 63.596-63.597h123.219c35.123 0 63.596 28.473 63.596 63.597 0 35.123-28.473 63.596-63.596 63.596H164.29c-35.123 0-63.596-28.473-63.596-63.596Z"/><rect width="66.285" height="66.285" x="234.97" y="270.662" fill="#C6FF00" rx="33.143"/><rect width="15.933" height="15.932" x="259.826" y="280.126" fill="#34A853" rx="7.966"/><rect width="15.932" height="15.933" x="291.693" y="296.051" fill="#34A853" rx="7.966" transform="rotate(90 291.693 296.051)"/><rect width="15.933" height="15.932" x="259.826" y="311.989" fill="#34A853" rx="7.966"/><rect width="15.932" height="15.933" x="259.826" y="296.051" fill="#34A853" rx="7.966" transform="rotate(90 259.826 296.051)"/><rect width="24.55" height="9.82" x="214.66" y="342.052" fill="#fff" rx="4.91"/><rect width="66.285" height="66.285" x="150.829" y="271.103" fill="#E6F4EA" rx="33.143"/><rect width="12.275" height="41.735" x="177.833" y="283.378" fill="#34A853" rx="6.138"/><rect width="12.275" height="41.735" x="204.84" y="298.108" fill="#34A853" rx="6.138" transform="rotate(90 204.84 298.108)"/><path stroke="#0D652D" stroke-linecap="round" stroke-width="4" d="M177.929 373.577h-13.754c-8.695.158-30.584-4.268-43.632-18.022-17.548-18.496-19.79-36.993-19.79-44.581M273.73 373.098h14.613c8.642.156 29.391-2.405 43.852-16.595 18.98-18.622 18.495-41.261 18.495-46.477"/></svg>