<svg xmlns="http://www.w3.org/2000/svg" width="481" height="480" fill="none"><path fill="#AECBFA" d="M48.5 109.29C48.5 85.934 67.434 67 90.79 67h254.314c23.356 0 42.289 18.934 42.289 42.29v151.42c0 23.356-18.934 42.29-42.289 42.29H90.79c-23.356 0-42.29-18.934-42.29-42.29V109.29Z"/><path fill="#356AC3" d="M57.394 109.29c0-23.356 18.933-42.29 42.29-42.29h254.313c23.356 0 42.29 18.934 42.29 42.29v151.42c0 23.356-18.934 42.29-42.29 42.29H99.683c-23.356 0-42.29-18.934-42.29-42.29V109.29Z"/><path fill="#121212" d="M72.5 112.203c0-15.57 12.623-28.193 28.193-28.193h252.55c15.57 0 28.193 12.622 28.193 28.193v145.596c0 15.57-12.623 28.193-28.193 28.193h-252.55c-15.57 0-28.193-12.623-28.193-28.193V112.203Z"/><path fill="#A2D004" d="M178.405 119.763c-.853-2.336-4.157-2.336-5.01 0l-8.63 23.645a17.781 17.781 0 0 1-10.455 10.549l-23.356 8.763c-2.306.866-2.306 4.128 0 4.994l23.356 8.763a17.781 17.781 0 0 1 10.455 10.549l8.63 23.645c.853 2.336 4.157 2.336 5.01 0l8.63-23.645a17.781 17.781 0 0 1 10.455-10.549l23.356-8.763c2.306-.866 2.306-4.128 0-4.994l-23.356-8.763a17.781 17.781 0 0 1-10.455-10.549l-8.63-23.645ZM125.727 104.817c-.421-1.421-2.433-1.421-2.854 0l-4.011 13.537a2.976 2.976 0 0 1-2.008 2.008l-13.537 4.011c-1.421.421-1.421 2.433 0 2.854l13.537 4.011a2.976 2.976 0 0 1 2.008 2.008l4.011 13.537c.421 1.421 2.433 1.421 2.854 0l4.011-13.537a2.976 2.976 0 0 1 2.008-2.008l13.537-4.011c1.421-.421 1.421-2.433 0-2.854l-13.537-4.011a2.976 2.976 0 0 1-2.008-2.008l-4.011-13.537ZM125.727 182.217c-.421-1.421-2.433-1.421-2.854 0l-4.011 13.537a2.979 2.979 0 0 1-2.008 2.009l-13.537 4.01c-1.421.421-1.421 2.434 0 2.854l13.537 4.011a2.975 2.975 0 0 1 2.008 2.009l4.011 13.537c.421 1.42 2.433 1.42 2.854 0l4.011-13.537a2.975 2.975 0 0 1 2.008-2.009l13.537-4.011c1.421-.42 1.421-2.433 0-2.854l-13.537-4.01a2.979 2.979 0 0 1-2.008-2.009l-4.011-13.537Z"/><path fill="#164590" d="M358.5 119c35.899 0 65 29.101 65 65v215h-100c-16.569 0-30-13.431-30-30V184c0-35.899 29.102-65 65-65Z"/><rect width="75.275" height="75.375" x="396.187" y="146.289" stroke="#132137" stroke-width="14" rx="37.638" transform="rotate(90 396.187 146.289)"/><rect width="97" height="37" x="334.5" y="367" fill="#356AC3" rx="6"/><path fill="#2A8642" fill-rule="evenodd" d="M174.143 246h-9.344c-33.513 0-60.972 25.923-63.419 58.811l-12.882 57.968c-5.72 25.743 13.868 50.162 40.239 50.162a41.224 41.224 0 0 0 32.538-15.913l18.537-23.835h93.192l18.538 23.835a41.223 41.223 0 0 0 32.538 15.913c26.37 0 45.959-24.419 40.238-50.162l-12.881-57.965C348.992 271.924 321.532 246 288.018 246H174.143Z" clip-rule="evenodd"/><path fill="#2A8642" d="M101.194 309.597c0-35.124 28.473-63.597 63.596-63.597h123.219c35.123 0 63.597 28.473 63.597 63.597 0 35.123-28.474 63.596-63.597 63.596H164.791c-35.124 0-63.597-28.473-63.597-63.596Z"/><rect width="66.285" height="66.285" x="235.47" y="270.662" fill="#A2D004" rx="33.143"/><rect width="15.933" height="15.932" x="260.326" y="280.127" fill="#2A8642" rx="7.966"/><rect width="15.932" height="15.933" x="292.192" y="296.053" fill="#2A8642" rx="7.966" transform="rotate(90 292.192 296.053)"/><rect width="15.933" height="15.932" x="260.326" y="311.99" fill="#2A8642" rx="7.966"/><rect width="15.932" height="15.933" x="260.326" y="296.053" fill="#2A8642" rx="7.966" transform="rotate(90 260.326 296.053)"/><rect width="24.55" height="9.82" x="215.16" y="342.053" fill="#121212" rx="4.91"/><rect width="66.285" height="66.285" x="151.329" y="271.104" fill="#112719" rx="33.143"/><rect width="12.275" height="41.735" x="178.333" y="283.379" fill="#2A8642" rx="6.138"/><rect width="12.275" height="41.735" x="205.34" y="298.109" fill="#2A8642" rx="6.138" transform="rotate(90 205.34 298.109)"/><path stroke="#A8DAB5" stroke-linecap="round" stroke-width="4" d="M178.429 373.578h-13.754c-8.695.158-30.584-4.269-43.632-18.023-17.548-18.496-19.79-36.992-19.79-44.58M274.23 373.097h14.613c8.642.157 29.391-2.404 43.852-16.594 18.98-18.622 18.495-41.261 18.495-46.478"/></svg>