<svg xmlns="http://www.w3.org/2000/svg" width="481" height="480" fill="none"><path fill="url(#a)" d="M432.5 431.899h-384v-383.8h384L240.48 239.88 432.5 431.899Z"/><rect width="101.409" height="334.65" fill="#2A8642" rx="18.095" transform="rotate(15 -263.009 541.204)"/><path stroke="#112719" stroke-linecap="square" stroke-width="9.047" d="m60.55 369.445 88.159 23.622M69.08 337.607l88.158 23.622M115.015 166.189l88.157 23.622"/><path fill="#132137" d="M178.325 348.062H359.27v67.855H178.325z"/><mask id="b" fill="#fff"><path d="M184.288 431.662c-9.993 0-18.095-8.101-18.095-18.094v-62.685c0-9.994 8.102-18.095 18.095-18.095h176.769c9.993 0 18.094 8.101 18.094 18.095v62.685c0 9.993-8.101 18.094-18.094 18.094H184.288Z"/></mask><path fill="#2A8642" d="M184.288 449.757c-19.987 0-36.189-16.203-36.189-36.189v-62.685c0-19.987 16.202-36.189 36.189-36.189v135.063Zm194.863-116.969v98.874-98.874Zm0 80.78c0 19.986-16.202 36.189-36.189 36.189H184.288c-19.987 0-36.189-16.203-36.189-36.189h231.052Zm-231.052-62.685c0-19.987 16.202-36.189 36.189-36.189h158.674c19.987 0 36.189 16.202 36.189 36.189H148.099Z" mask="url(#b)"/><path fill="#A8DAB5" d="M206.755 366.289a4.524 4.524 0 1 0 0 9.047v-9.047Zm148.374 9.047h4.524v-9.047h-4.524v9.047Zm-148.374 0h148.374v-9.047H206.755v9.047ZM206.755 389.107a4.525 4.525 0 0 0 0 9.047v-9.047Zm148.374 9.047h4.524v-9.047h-4.524v9.047Zm-148.374 0h148.374v-9.047H206.755v9.047Z"/><path fill="#112719" d="M401.428 316.398H211.436v-67.855h189.992z"/><mask id="c" fill="#fff"><path d="M387.405 233.912c9.994 0 18.095 8.101 18.095 18.095v62.685c0 9.993-8.101 18.094-18.095 18.094H210.637c-9.994 0-18.095-8.101-18.095-18.094v-62.685c0-9.994 8.101-18.095 18.095-18.095h176.768Z"/></mask><path fill="#356AC3" d="M387.405 215.818c19.987 0 36.19 16.202 36.19 36.189v62.685c0 19.986-16.203 36.189-36.19 36.189V215.818ZM192.542 332.786v-98.874 98.874Zm0-80.779c0-19.987 16.203-36.189 36.189-36.189h158.674c19.987 0 36.19 16.202 36.19 36.189H192.542Zm231.053 62.685c0 19.986-16.203 36.189-36.19 36.189H228.731c-19.986 0-36.189-16.203-36.189-36.189h231.053Z" mask="url(#c)"/><path fill="#AECBFA" d="M364.938 299.285a4.523 4.523 0 1 0 0-9.047v9.047Zm-149.279-9.047h-4.523v9.047h4.523v-9.047Zm149.279 0H215.659v9.047h149.279v-9.047ZM364.938 276.467a4.523 4.523 0 1 0 0-9.047v9.047Zm-149.279-9.047h-4.523v9.047h4.523v-9.047Zm149.279 0H215.659v9.047h149.279v-9.047Z"/><defs><linearGradient id="a" x1="432.54" x2="48.582" y1="49.288" y2="433.248" gradientUnits="userSpaceOnUse"><stop stop-color="#E44857"/><stop offset=".47" stop-color="#C711E1"/><stop offset="1" stop-color="#7F52FF"/></linearGradient></defs></svg>