<svg xmlns="http://www.w3.org/2000/svg" width="480" height="480" fill="none"><path fill="url(#a)" d="M432 431.899H48v-383.8h384L239.98 239.882 432 431.899Z"/><rect width="101.409" height="334.65" fill="#34A853" rx="18.095" transform="rotate(15 -263.262 539.306)"/><path stroke="#E6F4EA" stroke-linecap="square" stroke-width="9.047" d="m60.05 369.446 88.159 23.622M68.58 337.609l88.158 23.622M114.515 166.19l88.157 23.622"/><path fill="#E8F0FE" d="M177.825 348.062H358.77v67.855H177.825z"/><mask id="b" fill="#fff"><path d="M183.788 431.66c-9.993 0-18.095-8.101-18.095-18.094v-62.685c0-9.994 8.102-18.095 18.095-18.095h176.769c9.993 0 18.094 8.101 18.094 18.095v62.685c0 9.993-8.101 18.094-18.094 18.094H183.788Z"/></mask><path fill="#34A853" d="M183.788 449.755c-19.987 0-36.189-16.203-36.189-36.189v-62.685c0-19.987 16.202-36.189 36.189-36.189v135.063Zm194.863-116.969v98.874-98.874Zm0 80.78c0 19.986-16.202 36.189-36.189 36.189H183.788c-19.987 0-36.189-16.203-36.189-36.189h231.052Zm-231.052-62.685c0-19.987 16.202-36.189 36.189-36.189h158.674c19.987 0 36.189 16.202 36.189 36.189H147.599Z" mask="url(#b)"/><path fill="#0D652D" d="M206.255 366.287a4.524 4.524 0 0 0 0 9.047v-9.047Zm148.374 9.047h4.524v-9.047h-4.524v9.047Zm-148.374 0h148.374v-9.047H206.255v9.047ZM206.255 389.106a4.524 4.524 0 1 0 0 9.047v-9.047Zm148.374 9.047h4.524v-9.047h-4.524v9.047Zm-148.374 0h148.374v-9.047H206.255v9.047Z"/><path fill="#E6F4EA" d="M400.928 316.397H210.936v-67.855h189.992z"/><mask id="c" fill="#fff"><path d="M386.905 233.912c9.994 0 18.095 8.101 18.095 18.095v62.685c0 9.993-8.101 18.094-18.095 18.094H210.137c-9.994 0-18.095-8.101-18.095-18.094v-62.685c0-9.994 8.101-18.095 18.095-18.095h176.768Z"/></mask><path fill="#4285F4" d="M386.905 215.818c19.987 0 36.19 16.202 36.19 36.189v62.685c0 19.986-16.203 36.189-36.19 36.189V215.818ZM192.042 332.786v-98.874 98.874Zm0-80.779c0-19.987 16.203-36.189 36.189-36.189h158.674c19.987 0 36.19 16.202 36.19 36.189H192.042Zm231.053 62.685c0 19.986-16.203 36.189-36.19 36.189H228.231c-19.986 0-36.189-16.203-36.189-36.189h231.053Z" mask="url(#c)"/><path fill="#174EA6" d="M364.438 299.285a4.523 4.523 0 1 0 0-9.047v9.047Zm-149.279-9.047h-4.523v9.047h4.523v-9.047Zm149.279 0H215.159v9.047h149.279v-9.047ZM364.438 276.467a4.524 4.524 0 0 0 0-9.048v9.048Zm-149.279-9.048h-4.523v9.048h4.523v-9.048Zm149.279 0H215.159v9.048h149.279v-9.048Z"/><defs><linearGradient id="a" x1="432.04" x2="48.082" y1="49.288" y2="433.249" gradientUnits="userSpaceOnUse"><stop stop-color="#E44857"/><stop offset=".47" stop-color="#C711E1"/><stop offset="1" stop-color="#7F52FF"/></linearGradient></defs></svg>