<svg xmlns="http://www.w3.org/2000/svg" width="480" height="480" fill="none"><path fill="#4285F4" fill-rule="evenodd" d="M341.441 306.716c0 22.88-18.548 41.429-41.428 41.429H93.823a6.667 6.667 0 0 1 0-13.334h206.19c15.517 0 28.095-12.578 28.095-28.095 0-15.516-12.578-28.095-28.095-28.095H93.823a6.667 6.667 0 0 1 0-13.333h206.19c22.88 0 41.428 18.548 41.428 41.428Z" clip-rule="evenodd"/><path fill="#34A853" fill-rule="evenodd" d="M48.108 390.049c0-23.143 18.762-41.904 41.905-41.904h205.714a6.667 6.667 0 1 1 0 13.333H90.013c-15.78 0-28.571 12.792-28.571 28.571 0 15.78 12.792 28.572 28.57 28.572h205.715a6.666 6.666 0 1 1 0 13.333H90.013c-23.143 0-41.905-18.761-41.905-41.905Z" clip-rule="evenodd"/><path fill="#0D652D" fill-rule="evenodd" d="M100.491 296.719c0-1.052.853-1.905 1.905-1.905h200a1.905 1.905 0 0 1 0 3.81h-200a1.905 1.905 0 0 1-1.905-1.905ZM86.204 381.474c0-1.052.853-1.905 1.905-1.905h199.047a1.905 1.905 0 0 1 0 3.81H88.109a1.905 1.905 0 0 1-1.905-1.905ZM100.49 315.76c0-1.052.853-1.905 1.905-1.905h200a1.905 1.905 0 0 1 0 3.809h-200a1.904 1.904 0 0 1-1.905-1.904ZM86.204 400.523c0-1.052.853-1.905 1.905-1.905h199.047a1.905 1.905 0 0 1 0 3.81H88.109a1.905 1.905 0 0 1-1.905-1.905Z" clip-rule="evenodd"/><path fill="#AECBFA" fill-rule="evenodd" d="M176.168 93.7a4.472 4.472 0 0 0-4.472 4.471c0 2.402 1.425 5.061 3.789 9.088l.248.422c2 3.397 4.72 8.018 4.72 13.004v26.466c0 3.608-.895 7.159-2.606 10.336l-45.305 84.139c-4.746 8.814 1.638 19.502 11.648 19.502h116.411c10.026 0 16.408-10.718 11.631-19.533l-45.172-83.354a21.797 21.797 0 0 1-2.634-10.387v-27.172c0-4.985 2.719-9.606 4.719-13.003l.248-.422c2.363-4.026 3.787-6.684 3.787-9.086a4.472 4.472 0 0 0-4.472-4.471h-52.54Zm0-4.286a8.758 8.758 0 0 0-8.758 8.757c0 3.799 2.19 7.528 4.379 11.257 2.189 3.729 4.378 7.459 4.378 11.257v26.466c0 2.899-.719 5.752-2.093 8.304l-45.306 84.14c-6.283 11.669 2.169 25.818 15.422 25.818h116.411c13.274 0 21.723-14.19 15.399-25.86l-45.172-83.354a17.513 17.513 0 0 1-2.116-8.345v-27.172c0-3.798 2.188-7.527 4.377-11.255 2.188-3.729 4.377-7.457 4.377-11.256a8.758 8.758 0 0 0-8.758-8.757h-52.54Z" clip-rule="evenodd"/><path fill="#34A853" d="M176.99 183.335c2.582-4.84 9.241-5.975 14.717-5.632 3.257.203 6.999-.608 10.687-3.686 7.74-6.461 15.721-2.935 18.948-1 1.016.61 1.773 1.539 2.331 2.585l33.154 62.164c3.111 5.834-1.116 12.879-7.727 12.879h-93.413c-6.611 0-10.838-7.045-7.727-12.879l29.03-54.431Z"/><path fill="#C6FF00" d="M191.467 217.04a8.758 8.758 0 1 1-17.515 0 8.758 8.758 0 0 1 17.515 0ZM222.1 195.353c0 6.046-4.901 10.947-10.947 10.947-6.046 0-10.947-4.901-10.947-10.947 0-6.046 4.901-10.947 10.947-10.947 6.046 0 10.947 4.901 10.947 10.947ZM199.638 159.009a6.569 6.569 0 1 1-13.137-.001 6.569 6.569 0 0 1 13.137.001Z"/><g clip-path="url(#a)"><path fill="#34A853" d="M432.068 428.894c-.044-.281-.087-.559-.134-.837a68.518 68.518 0 0 0-3.767-13.689 68.69 68.69 0 0 0-3.118-6.854 69.611 69.611 0 0 0-5.028-8.176 69.05 69.05 0 0 0-7.593-8.917 69.392 69.392 0 0 0-12.225-9.66c.027-.044.05-.091.077-.134 1.39-2.394 2.783-4.785 4.173-7.179l4.078-7.012c.977-1.677 1.954-3.358 2.927-5.036a6.295 6.295 0 0 0 .356-5.625 6.261 6.261 0 0 0-2.595-2.97 6.401 6.401 0 0 0-2.695-.864 6.415 6.415 0 0 0-2.169.187 6.339 6.339 0 0 0-3.051 1.845 6.39 6.39 0 0 0-.799 1.089c-.977 1.677-1.953 3.358-2.927 5.036l-4.078 7.011c-1.39 2.394-2.783 4.785-4.173 7.179-.151.261-.305.522-.456.787-.211-.084-.42-.167-.631-.248-7.663-2.913-15.978-4.507-24.668-4.507-.239 0-.473 0-.712.004a69.313 69.313 0 0 0-22.077 3.82c-.802.278-1.594.573-2.379.881-.141-.245-.286-.489-.427-.734-1.389-2.394-2.782-4.784-4.172-7.178l-4.078-7.012c-.977-1.678-1.954-3.358-2.927-5.036a6.322 6.322 0 0 0-4.827-3.111 6.314 6.314 0 0 0-3.887.854 6.306 6.306 0 0 0-2.196 2.18 6.424 6.424 0 0 0-.684 1.624 6.304 6.304 0 0 0 .641 4.792c.977 1.677 1.953 3.358 2.927 5.035l4.078 7.012c1.39 2.394 2.783 4.785 4.172 7.179.011.02.024.04.034.06a69.555 69.555 0 0 0-19.935 18.654 68.925 68.925 0 0 0-8.147 15.031 68.461 68.461 0 0 0-3.9 14.526 66.919 66.919 0 0 0-.396 3.023h137.774a69.912 69.912 0 0 0-.396-3.023l.01-.007Z"/><path fill="#202124" d="M399.403 413.004c2.756-1.83 3.157-6.063.894-9.454-2.262-3.392-6.331-4.658-9.087-2.829-2.757 1.83-3.157 6.063-.895 9.454 2.263 3.392 6.331 4.658 9.088 2.829ZM336.937 410.188c2.262-3.392 1.862-7.625-.895-9.454-2.756-1.83-6.825-.564-9.087 2.828-2.263 3.392-1.862 7.624.894 9.454 2.757 1.83 6.826.564 9.088-2.828Z"/></g><path fill="#C6FF00" d="M103.446 159.547c-.31-1.046-1.791-1.046-2.101 0l-2.269 7.656a2.191 2.191 0 0 1-1.478 1.479l-7.656 2.268c-1.046.31-1.046 1.792 0 2.102l7.656 2.268a2.191 2.191 0 0 1 1.478 1.479l2.269 7.656c.31 1.046 1.791 1.046 2.101 0l2.268-7.656a2.193 2.193 0 0 1 1.479-1.479l7.656-2.268c1.046-.31 1.046-1.792 0-2.102l-7.656-2.268a2.193 2.193 0 0 1-1.479-1.479l-2.268-7.656ZM308.604 200.88c.57 2.025 3.441 2.025 4.011 0l4.335-15.39a4.172 4.172 0 0 1 2.772-2.849l14.928-4.652c1.952-.608 1.952-3.37 0-3.978l-14.928-4.652a4.172 4.172 0 0 1-2.772-2.849l-4.335-15.39c-.57-2.025-3.441-2.025-4.011 0l-4.335 15.39a4.168 4.168 0 0 1-2.772 2.849l-14.928 4.652c-1.951.608-1.951 3.37 0 3.978l14.928 4.652a4.168 4.168 0 0 1 2.772 2.849l4.335 15.39ZM385.989 266.681c.465 1.569 2.687 1.569 3.152 0l3.402-11.484a3.29 3.29 0 0 1 2.219-2.219l11.483-3.402c1.569-.465 1.569-2.687 0-3.152l-11.483-3.402a3.29 3.29 0 0 1-2.219-2.219l-3.402-11.484c-.465-1.569-2.687-1.569-3.152 0l-3.402 11.484a3.289 3.289 0 0 1-2.218 2.219l-11.484 3.402c-1.569.465-1.569 2.687 0 3.152l11.484 3.402a3.289 3.289 0 0 1 2.218 2.219l3.402 11.484Z"/><defs><clipPath id="a"><path fill="#fff" d="M294.686 351.999H432.46v80H294.686z"/></clipPath></defs></svg>