<svg xmlns="http://www.w3.org/2000/svg" width="854" height="480" fill="none"><rect width="242.429" height="351.543" fill="#103C20" rx="121.214" transform="scale(-1 1)rotate(45 -212.439 -386.547)"/><path fill="#2A8642" d="M314.623 407.094h44.846l-61.786-334h-18.018c-24.385 0-43.155 21.535-39.825 45.691l34.958 253.597c2.742 19.893 19.744 34.712 39.825 34.712Z"/><path fill="#121212" d="M422.324 107.515c-2.669-19.966-19.703-34.874-39.847-34.874h-81.852c-24.319 0-43.07 21.424-39.847 45.528l34.023 254.492c2.669 19.967 19.703 34.875 39.847 34.875H416.5c24.319 0 43.069-21.424 39.847-45.529l-34.023-254.492Z"/><path stroke="#164590" stroke-linecap="round" stroke-width="4" d="M301.052 74.54h81.697c20.109 0 37.124 14.856 39.835 34.781l34.108 250.696c3.283 24.134-15.478 45.621-39.835 45.621h-84.091"/><circle cx="5.169" cy="5.169" r="5.169" fill="#356AC3" transform="matrix(-1 0 0 1 348.031 86.176)"/><rect width="8.853" height="38.564" x="-1.709" y="2.254" stroke="#A8DAB5" stroke-width="4" rx="4.426" transform="scale(-1 1)rotate(7.835 -1390.484 -1788.187)"/><rect width="8.853" height="71.268" x="-1.709" y="2.254" stroke="#A8DAB5" stroke-width="4" rx="4.426" transform="scale(-1 1)rotate(7.835 -1777.807 -1814.876)"/><circle cx="18.378" cy="18.378" r="18.378" fill="#103C20" transform="matrix(-1 0 0 1 439.57 351.754)"/><circle cx="18.378" cy="18.378" r="18.378" fill="#103C20" transform="matrix(-1 0 0 1 395.922 351.754)"/><circle cx="18.378" cy="18.378" r="18.378" fill="#103C20" transform="matrix(-1 0 0 1 352.277 351.754)"/><rect width="196" height="208.631" x="363.793" y="112.035" fill="#121212" stroke="#A2D004" stroke-width="4" rx="30"/><path fill="#356AC3" fill-rule="evenodd" d="M451.127 173.686c0-5.891 4.776-10.666 10.667-10.666s10.666 4.775 10.666 10.666v24.192l20.952-12.096c5.102-2.946 11.625-1.198 14.571 3.904 2.945 5.102 1.197 11.625-3.905 14.571l-20.949 12.095 20.949 12.094c5.102 2.946 6.85 9.47 3.905 14.571-2.946 5.102-9.469 6.85-14.571 3.905l-20.952-12.097v24.194c0 5.891-4.775 10.666-10.666 10.666s-10.667-4.775-10.667-10.666v-24.191l-20.949 12.095c-5.102 2.946-11.626 1.198-14.571-3.904-2.946-5.102-1.198-11.626 3.904-14.571l20.952-12.096-20.952-12.097c-5.102-2.945-6.85-9.469-3.904-14.571 2.945-5.101 9.469-6.849 14.571-3.904l20.949 12.095v-24.189Z" clip-rule="evenodd"/><path fill="#A2D004" d="M578.104 345.325c0-11.309-9.168-20.477-20.477-20.477-11.31.001-20.478 9.169-20.478 20.479l-.001 11.518a8.959 8.959 0 0 0 8.959 8.959l11.519-.001c11.309 0 20.478-9.168 20.478-20.478Z"/><path fill="#121212" stroke="#356AC3" stroke-width="4" d="M563.71 249.975a19.165 19.165 0 0 1 15.575-5.507l38.132 4.044c16.026 1.7 22.927 21.217 11.531 32.613l-50.941 50.941a8.583 8.583 0 0 1-12.138 0l-36.056-36.056a8.583 8.583 0 0 1 0-12.138l33.897-33.897Z"/><path fill="#121212" stroke="#356AC3" stroke-width="4" d="M652.985 339.244a19.165 19.165 0 0 0 5.507-15.575l-4.044-38.132c-1.7-16.026-21.217-22.927-32.613-11.531l-50.941 50.941a8.583 8.583 0 0 0 0 12.138l36.056 36.056a8.583 8.583 0 0 0 12.138 0l33.897-33.897Z"/><path fill="#2A8642" d="m609.375 242.57 51.023 51.023-65.554 65.554c-4.134 4.133-10.835 4.133-14.968 0l-36.055-36.055c-4.133-4.134-4.133-10.835 0-14.968l65.554-65.554Z"/><path fill="#112719" d="m621.262 230.684 51.022 51.022-11.905 11.906-51.023-51.023 11.906-11.905Z"/><path fill="#356AC3" d="M621.122 230.53a68.503 68.503 0 0 1 45.559-19.654l7.513-.276c10.183-.374 18.538 7.982 18.164 18.165l-.275 7.513a68.506 68.506 0 0 1-19.654 45.558l-51.307-51.306Z"/><path stroke="#fff" stroke-width="4" d="m609.18 242.715 51.027 51.027M574.89 354.187l73.038-73.038"/><path fill="#AECBFA" d="M183.965 309.794c1.279-3.504 6.236-3.504 7.515 0l5.004 13.71a26.671 26.671 0 0 0 15.683 15.824l13.575 5.093c3.459 1.299 3.459 6.192 0 7.49l-13.575 5.094a26.672 26.672 0 0 0-15.683 15.823l-5.004 13.711c-1.279 3.504-6.236 3.504-7.515 0l-5.004-13.711a26.67 26.67 0 0 0-15.682-15.823l-13.575-5.094c-3.46-1.298-3.46-6.191 0-7.49l13.575-5.093a26.67 26.67 0 0 0 15.682-15.824l5.004-13.71ZM129.216 215.021c.526-1.776 3.042-1.776 3.568 0l2.213 7.472a3.722 3.722 0 0 0 2.511 2.511l7.471 2.213c1.776.526 1.776 3.042 0 3.568l-7.471 2.214a3.72 3.72 0 0 0-2.511 2.51l-2.213 7.472c-.526 1.776-3.042 1.776-3.568 0l-2.213-7.472a3.72 3.72 0 0 0-2.511-2.51l-7.471-2.214c-1.776-.526-1.776-3.042 0-3.568l7.471-2.213a3.722 3.722 0 0 0 2.511-2.511l2.213-7.472ZM620.859 136.225c.632-2.131 3.65-2.131 4.282 0l2.656 8.965a4.462 4.462 0 0 0 3.013 3.013l8.965 2.656c2.131.632 2.131 3.65 0 4.282l-8.965 2.656a4.462 4.462 0 0 0-3.013 3.013l-2.656 8.965c-.632 2.131-3.65 2.131-4.282 0l-2.656-8.965a4.462 4.462 0 0 0-3.013-3.013l-8.965-2.656c-2.131-.632-2.131-3.65 0-4.282l8.965-2.656a4.462 4.462 0 0 0 3.013-3.013l2.656-8.965ZM733.28 324.571c.421-1.421 2.433-1.421 2.854 0l1.771 5.977a2.976 2.976 0 0 0 2.008 2.008l5.977 1.771c1.421.421 1.421 2.433 0 2.854l-5.977 1.771a2.976 2.976 0 0 0-2.008 2.008l-1.771 5.977c-.421 1.421-2.433 1.421-2.854 0l-1.771-5.977a2.976 2.976 0 0 0-2.008-2.008l-5.977-1.771c-1.421-.421-1.421-2.433 0-2.854l5.977-1.771a2.976 2.976 0 0 0 2.008-2.008l1.771-5.977Z"/></svg>