<svg xmlns="http://www.w3.org/2000/svg" width="480" height="480" fill="none"><rect width="312" height="248" x="84" y="143.159" fill="#34A853" rx="16"/><rect width="140" height="260" x="100" y="115.159" fill="#fff" rx="16"/><rect width="140" height="260" x="240" y="115.159" fill="#fff" rx="16"/><path stroke="#AECBFA" stroke-linecap="round" stroke-width="4" d="M240.445 144.928v-16.5c0-8.836 7.164-16 16-16h108c8.837 0 16 7.164 16 16v16.5M100.445 144.928v-16.5c0-8.836 7.164-16 16-16h108c8.837 0 16 7.164 16 16v16.5"/><path fill="#CEEAD6" d="M210.445 48a9.2 9.2 0 0 0-9.2 9.2v165.6a9.2 9.2 0 0 0 9.2 9.2h36.8a9.2 9.2 0 0 0 9.2-9.2V57.2a9.2 9.2 0 0 0-9.2-9.2h-36.8Z"/><path fill="#202124" d="M219.644 82.802a2 2 0 1 1 0 4v-4Zm-18.4 0h18.4v4h-18.4v-4ZM219.644 110.401a2 2 0 1 1 0 4v-4Zm-18.4 0h18.4v4h-18.4v-4ZM219.644 138.003a2 2 0 1 1 0 4v-4Zm-18.4 0h18.4v4h-18.4v-4ZM219.644 165.601a2 2 0 1 1 0 4v-4Zm-18.4 0h18.4v4h-18.4v-4ZM219.644 193.203a2 2 0 1 1 0 4v-4Zm-18.4 0h18.4v4h-18.4v-4Z"/><path stroke="#000" stroke-linecap="round" stroke-width="4" d="M284.662 196h48M284.662 220h72M284.662 244h72M284.662 268h34.286"/><path fill="#202124" d="M254.684 327.414a2 2 0 0 0-4 0h4Zm0 16.586v-16.586h-4V344h4ZM229.805 327.414a2 2 0 0 0-4 0h4Zm0 16.586v-16.586h-4V344h4ZM204.925 327.414a2 2 0 0 0-4 0h4Zm0 16.586v-16.586h-4V344h4ZM180.047 327.414a2 2 0 0 0-4 0h4Zm0 16.586v-16.586h-4V344h4ZM155.169 327.414a2 2 0 0 0-4 0h4Zm0 16.586v-16.586h-4V344h4Z"/><path fill="#4285F4" fill-rule="evenodd" d="M278.777 336.922c2.612 2.612.762 7.078-2.932 7.078H124.146a4.146 4.146 0 0 1-4.146-4.146V188.155c0-3.694 4.466-5.544 7.078-2.932l151.699 151.699Zm-79.39-29.628c1.306 1.306.381 3.54-1.466 3.54h-42.679a2.074 2.074 0 0 1-2.073-2.074v-42.678c0-1.847 2.233-2.772 3.539-1.466l42.679 42.678Z" clip-rule="evenodd"/><path fill="#202124" d="M254.684 327.414a2 2 0 0 0-4 0h4Zm0 16.586v-16.586h-4V344h4ZM229.805 327.414a2 2 0 0 0-4 0h4Zm0 16.586v-16.586h-4V344h4ZM204.925 327.414a2 2 0 0 0-4 0h4Zm0 16.586v-16.586h-4V344h4ZM180.047 327.414a2 2 0 0 0-4 0h4Zm0 16.586v-16.586h-4V344h4ZM155.169 327.414a2 2 0 0 0-4 0h4Zm0 16.586v-16.586h-4V344h4Z"/><path fill="#0D652D" d="M347.788 370.947h48.421v36.842c0 13.371-10.839 24.211-24.21 24.211s-24.211-10.84-24.211-24.211v-36.842Z"/><path fill="#C6FF00" fill-rule="evenodd" d="M396.208 391.131c21.08-9.306 35.792-30.393 35.792-54.917 0-33.137-26.863-60-60-60s-60 26.863-60 60c0 24.521 14.71 45.607 35.787 54.914v11.406h48.421v-11.403Z" clip-rule="evenodd"/><path stroke="#0D652D" stroke-width="3.123" d="M366.054 402.534c.517-33.232.757-47.96.778-79.474.002-2.608-2.113-4.737-4.722-4.737h-1.17a4.723 4.723 0 0 0-4.723 4.724v37.495a4.723 4.723 0 0 0 4.723 4.724h21.079a4.724 4.724 0 0 0 4.724-4.724v-37.495a4.724 4.724 0 0 0-4.724-4.724h-.561a4.724 4.724 0 0 0-4.723 4.724v79.487"/><path stroke="#fff" stroke-linecap="round" stroke-width="12.494" d="M382.456 296.278c9.002 1.899 18.069 7.247 24.117 17.134"/></svg>