<svg xmlns="http://www.w3.org/2000/svg" width="481" height="480" fill="none"><rect width="312" height="248" x="84.5" y="143.158" fill="#2A8642" rx="16"/><rect width="140" height="260" x="100.5" y="115.158" fill="#121212" rx="16"/><rect width="140" height="260" x="240.5" y="115.158" fill="#121212" rx="16"/><path stroke="#164590" stroke-linecap="round" stroke-width="4" d="M240.945 144.928v-16.5c0-8.837 7.164-16 16-16h108c8.837 0 16 7.163 16 16v16.5M100.945 144.928v-16.5c0-8.837 7.164-16 16-16h108c8.837 0 16 7.163 16 16v16.5"/><path fill="#103C20" d="M210.945 48a9.2 9.2 0 0 0-9.2 9.2v165.6a9.2 9.2 0 0 0 9.2 9.2h36.8a9.2 9.2 0 0 0 9.2-9.2V57.2a9.2 9.2 0 0 0-9.2-9.2h-36.8Z"/><path fill="#F8F9FA" d="M220.144 82.803a2 2 0 0 1 0 4v-4Zm-18.4 0h18.4v4h-18.4v-4ZM220.144 110.402a2 2 0 0 1 0 4v-4Zm-18.4 0h18.4v4h-18.4v-4ZM220.144 138.004a2 2 0 0 1 0 4v-4Zm-18.4 0h18.4v4h-18.4v-4ZM220.144 165.602a2 2 0 0 1 0 4v-4Zm-18.4 0h18.4v4h-18.4v-4ZM220.144 193.203a2 2 0 0 1 0 4v-4Zm-18.4 0h18.4v4h-18.4v-4Z"/><path stroke="#fff" stroke-linecap="round" stroke-width="4" d="M285.162 196h48M285.162 220h72M285.162 244h72M285.162 268h34.286"/><path fill="#F8F9FA" d="M255.184 327.414a2 2 0 0 0-4 0h4Zm0 16.586v-16.586h-4V344h4ZM230.305 327.414a2 2 0 0 0-4 0h4Zm0 16.586v-16.586h-4V344h4ZM205.425 327.414a2 2 0 0 0-4 0h4Zm0 16.586v-16.586h-4V344h4ZM180.547 327.414a2 2 0 0 0-4 0h4Zm0 16.586v-16.586h-4V344h4ZM155.668 327.414a2 2 0 0 0-4 0h4Zm0 16.586v-16.586h-4V344h4Z"/><path fill="#356AC3" fill-rule="evenodd" d="M279.277 336.922c2.612 2.612.762 7.078-2.932 7.078H124.646a4.146 4.146 0 0 1-4.146-4.146V188.155c0-3.694 4.466-5.544 7.078-2.932l151.699 151.699Zm-79.39-29.627c1.306 1.306.381 3.539-1.466 3.539h-42.679a2.073 2.073 0 0 1-2.073-2.073v-42.679c0-1.847 2.233-2.772 3.539-1.466l42.679 42.679Z" clip-rule="evenodd"/><path fill="#F8F9FA" d="M255.184 327.414a2 2 0 0 0-4 0h4Zm0 16.586v-16.586h-4V344h4ZM230.305 327.414a2 2 0 0 0-4 0h4Zm0 16.586v-16.586h-4V344h4ZM205.425 327.414a2 2 0 0 0-4 0h4Zm0 16.586v-16.586h-4V344h4ZM180.547 327.414a2 2 0 0 0-4 0h4Zm0 16.586v-16.586h-4V344h4ZM155.668 327.414a2 2 0 0 0-4 0h4Zm0 16.586v-16.586h-4V344h4Z"/><path fill="#2A8642" d="M348.288 370.947h48.421v36.843c0 13.371-10.839 24.21-24.21 24.21s-24.211-10.839-24.211-24.21v-36.843Z"/><path fill="#A2D004" fill-rule="evenodd" d="M396.708 391.132c21.08-9.306 35.792-30.393 35.792-54.917 0-33.137-26.863-60-60-60s-60 26.863-60 60c0 24.521 14.71 45.607 35.787 54.914v11.405h48.421v-11.402Z" clip-rule="evenodd"/><path stroke="#121212" stroke-width="3.123" d="M366.554 402.535c.517-33.232.757-47.96.778-79.474.002-2.608-2.113-4.737-4.722-4.737h-1.17a4.724 4.724 0 0 0-4.723 4.724v37.495a4.724 4.724 0 0 0 4.723 4.724h21.08a4.724 4.724 0 0 0 4.723-4.724v-37.495a4.724 4.724 0 0 0-4.723-4.724h-.562a4.724 4.724 0 0 0-4.723 4.724v79.487"/><path stroke="#F8F9FA" stroke-linecap="round" stroke-width="8" d="M382.956 296.279c9.002 1.9 18.069 7.247 24.117 17.134"/></svg>