<svg xmlns="http://www.w3.org/2000/svg" width="853" height="480" fill="none"><rect width="312" height="248" x="268" y="104" fill="#34A853" rx="16"/><rect width="140" height="260" x="284" y="76" fill="#fff" rx="16"/><rect width="140" height="260" x="424" y="76" fill="#fff" rx="16"/><path stroke="#AECBFA" stroke-linecap="round" stroke-width="4" d="M424.445 105.77v-16.5c0-8.837 7.164-16 16-16h108c8.837 0 16 7.163 16 16v16.5M284.445 105.77v-16.5c0-8.837 7.164-16 16-16h108c8.837 0 16 7.163 16 16v16.5"/><path fill="#202124" d="M321.63 165.795a2 2 0 1 1-4 0h4Zm0-15.756v15.756h-4v-15.756h4ZM297.996 165.795a2 2 0 0 1-4 0h4Zm0-15.756v15.756h-4v-15.756h4ZM274.36 165.795a2 2 0 1 1-4 0h4Zm0-15.756v15.756h-4v-15.756h4ZM250.725 165.795a2 2 0 1 1-4 0h4Zm0-15.756v15.756h-4v-15.756h4ZM227.09 165.795a2 2 0 1 1-4 0h4Zm0-15.756v15.756h-4v-15.756h4Z"/><path fill="#4285F4" fill-rule="evenodd" d="M344.42 156.764c2.482-2.482.724-6.725-2.785-6.725H197.521a3.94 3.94 0 0 0-3.939 3.939v144.114c0 3.509 4.243 5.267 6.724 2.785L344.42 156.764Zm-75.421 28.145c1.241-1.241.362-3.362-1.392-3.362h-40.545a1.969 1.969 0 0 0-1.969 1.969v40.545c0 1.754 2.121 2.633 3.362 1.392l40.544-40.544Z" clip-rule="evenodd"/><path fill="#202124" d="M321.63 165.795a2 2 0 1 1-4 0h4Zm0-15.756v15.756h-4v-15.756h4ZM297.996 165.795a2 2 0 0 1-4 0h4Zm0-15.756v15.756h-4v-15.756h4ZM274.36 165.795a2 2 0 1 1-4 0h4Zm0-15.756v15.756h-4v-15.756h4ZM250.725 165.795a2 2 0 1 1-4 0h4Zm0-15.756v15.756h-4v-15.756h4ZM227.09 165.795a2 2 0 1 1-4 0h4Zm0-15.756v15.756h-4v-15.756h4Z"/><path stroke="#000" stroke-linecap="round" stroke-width="4" d="M496 158.04h32M496 182.04h48M496 229.96h48M496 253.96h32"/><rect width="40" height="40" x="440" y="150.04" fill="#4285F4" rx="8.889"/><rect width="40" height="40" x="440" y="221.96" fill="#4285F4" rx="8.889"/><path fill="#E6F4EA" fill-rule="evenodd" d="M456.117 180.101a2.205 2.205 0 0 0 1.27-.631l15.714-15.713a2.222 2.222 0 1 0-3.143-3.143l-14.144 14.144-5.763-5.763a2.221 2.221 0 1 0-3.142 3.143l7.333 7.333a2.22 2.22 0 0 0 1.875.63ZM456.117 252.021a2.205 2.205 0 0 0 1.27-.631l15.714-15.713a2.222 2.222 0 1 0-3.143-3.143l-14.144 14.144-5.763-5.763a2.221 2.221 0 1 0-3.142 3.143l7.333 7.333a2.22 2.22 0 0 0 1.875.63Z" clip-rule="evenodd"/><path fill="#AECBFA" d="M530.447 337.934a2.293 2.293 0 0 1 2.809-1.622l34.876 9.345a2.293 2.293 0 0 1 1.621 2.809l-19.834 74.022c-.508 1.895-3.006 2.319-4.11.697l-11.19-16.426a2.293 2.293 0 0 0-2.891-.774l-17.904 8.63c-1.767.852-3.718-.764-3.211-2.659l19.834-74.022Z"/><path fill="#AECBFA" d="M559.127 350.177a2.294 2.294 0 0 1 1.621-2.809l34.876-9.345a2.295 2.295 0 0 1 2.809 1.622l19.834 74.022c.508 1.895-1.444 3.511-3.211 2.66l-17.904-8.631a2.294 2.294 0 0 0-2.891.775l-11.19 16.426c-1.104 1.621-3.602 1.197-4.11-.698l-19.834-74.022Z"/><path fill="#4285F4" d="M560.824 276.501a7.703 7.703 0 0 1 6.862 0l6.574 3.269c.926.461 1.937.73 2.971.792l8.315.496a7.682 7.682 0 0 1 5.943 3.413l4.403 6.634a7.654 7.654 0 0 0 2.176 2.164l5.561 3.652a7.62 7.62 0 0 1 3.431 5.911l.5 8.279a7.605 7.605 0 0 0 .796 2.956l2.903 5.774a7.595 7.595 0 0 1 0 6.826l-2.473 4.919a7.605 7.605 0 0 0-.796 2.956l-.551 9.133a7.623 7.623 0 0 1-3.431 5.911l-6.9 4.531a7.663 7.663 0 0 0-2.175 2.164l-3.821 5.756a7.68 7.68 0 0 1-5.943 3.413l-7.886.471a7.71 7.71 0 0 0-2.972.792l-6.625 3.295a7.71 7.71 0 0 1-6.862 0l-6.781-3.373a7.71 7.71 0 0 0-2.972-.792l-6.584-.393a7.678 7.678 0 0 1-5.943-3.413l-3.82-5.754a7.663 7.663 0 0 0-2.175-2.164l-6.901-4.532a7.623 7.623 0 0 1-3.431-5.911l-.395-6.544a7.605 7.605 0 0 0-.796-2.956l-3.775-7.509a7.595 7.595 0 0 1 0-6.826l4.203-8.361a7.606 7.606 0 0 0 .797-2.956l.343-5.69a7.627 7.627 0 0 1 3.431-5.912l5.561-3.651a7.663 7.663 0 0 0 2.175-2.164l4.405-6.636a7.68 7.68 0 0 1 5.942-3.413l7.015-.419a7.684 7.684 0 0 0 2.971-.792l6.73-3.346Z"/><ellipse cx="564.26" cy="323.255" fill="#174EA6" rx="36.115" ry="36.369"/><path fill="#E8F0FE" d="M561.588 306.008c.88-2.53 4.458-2.53 5.338 0l2.019 5.808a5.65 5.65 0 0 0 5.222 3.794l6.147.125c2.678.055 3.784 3.458 1.65 5.077l-4.9 3.714a5.653 5.653 0 0 0-1.995 6.14l1.781 5.885c.775 2.564-2.12 4.667-4.318 3.137l-5.047-3.512a5.652 5.652 0 0 0-6.456 0l-5.047 3.512c-2.198 1.53-5.093-.573-4.318-3.137l1.781-5.886a5.652 5.652 0 0 0-1.995-6.139l-4.9-3.714c-2.134-1.619-1.028-5.022 1.65-5.077l6.147-.125a5.65 5.65 0 0 0 5.222-3.794l2.019-5.808Z"/><path fill="#CEEAD6" d="M343.6 390a9.2 9.2 0 0 1-9.2-9.2V215.2a9.2 9.2 0 0 1 9.2-9.2h36.801a9.2 9.2 0 0 1 9.2 9.2v165.6a9.2 9.2 0 0 1-9.2 9.2H343.6Z"/><path fill="#202124" d="M352.799 355.198a2 2 0 1 0 0-4v4Zm-18.4 0h18.4v-4h-18.4v4ZM352.799 327.599a2 2 0 1 0 0-4v4Zm-18.4 0h18.4v-4h-18.4v4ZM352.799 299.997a2 2 0 1 0 0-4v4Zm-18.4 0h18.4v-4h-18.4v4ZM352.799 272.399a2 2 0 1 0 0-4v4Zm-18.4 0h18.4v-4h-18.4v4ZM352.799 244.797a2 2 0 1 0 0-4v4Zm-18.4 0h18.4v-4h-18.4v4Z"/><path fill="#C6FF00" d="M245.721 367.348c.963-2.661 4.727-2.661 5.689 0l3.574 9.883a20.166 20.166 0 0 0 11.822 11.999l9.724 3.683c2.605.986 2.605 4.671 0 5.657l-9.724 3.683a20.168 20.168 0 0 0-11.822 12l-3.574 9.882c-.962 2.662-4.726 2.662-5.689 0l-3.574-9.882a20.163 20.163 0 0 0-11.822-12l-9.724-3.683c-2.605-.986-2.605-4.671 0-5.657l9.724-3.683a20.16 20.16 0 0 0 11.822-11.999l3.574-9.883ZM654.512 172.321c.57-1.925 3.297-1.925 3.867 0l2.341 7.903a4.033 4.033 0 0 0 2.722 2.721l7.903 2.342c1.925.57 1.925 3.297 0 3.867l-7.903 2.341a4.033 4.033 0 0 0-2.722 2.722l-2.341 7.903c-.57 1.925-3.297 1.925-3.867 0l-2.342-7.903a4.031 4.031 0 0 0-2.721-2.722l-7.903-2.341c-1.925-.57-1.925-3.297 0-3.867l7.903-2.342a4.032 4.032 0 0 0 2.721-2.721l2.342-7.903ZM123.492 271.987c.57-1.925 3.297-1.925 3.867 0l2.341 7.903a4.033 4.033 0 0 0 2.722 2.722l7.903 2.341c1.925.57 1.925 3.297 0 3.867l-7.903 2.342a4.033 4.033 0 0 0-2.722 2.721l-2.341 7.903c-.57 1.925-3.297 1.925-3.867 0l-2.342-7.903a4.032 4.032 0 0 0-2.721-2.721l-7.903-2.342c-1.925-.57-1.925-3.297 0-3.867l7.903-2.341a4.031 4.031 0 0 0 2.721-2.722l2.342-7.903Z"/></svg>