<svg xmlns="http://www.w3.org/2000/svg" width="854" height="480" fill="none"><rect width="312" height="248" x="268.5" y="104" fill="#2A8642" rx="16"/><rect width="140" height="260" x="284.5" y="76" fill="#121212" rx="16"/><rect width="140" height="260" x="424.5" y="76" fill="#121212" rx="16"/><path stroke="#164590" stroke-linecap="round" stroke-width="4" d="M424.945 105.77v-16.5c0-8.837 7.164-16 16-16h108c8.837 0 16 7.163 16 16v16.5M284.945 105.77v-16.5c0-8.837 7.164-16 16-16h108c8.837 0 16 7.163 16 16v16.5"/><path fill="#F8F9FA" d="M322.13 165.795a2 2 0 0 1-4 0h4Zm0-15.756v15.756h-4v-15.756h4ZM298.495 165.795a2 2 0 1 1-4 0h4Zm0-15.756v15.756h-4v-15.756h4ZM274.86 165.795a2 2 0 1 1-4 0h4Zm0-15.756v15.756h-4v-15.756h4ZM251.225 165.795a2 2 0 0 1-4 0h4Zm0-15.756v15.756h-4v-15.756h4ZM227.59 165.795a2 2 0 0 1-4 0h4Zm0-15.756v15.756h-4v-15.756h4Z"/><path fill="#356AC3" fill-rule="evenodd" d="M344.92 156.764c2.482-2.482.724-6.725-2.785-6.725H198.021a3.94 3.94 0 0 0-3.939 3.939v144.114c0 3.509 4.243 5.267 6.724 2.785L344.92 156.764Zm-75.421 28.145c1.241-1.241.362-3.362-1.392-3.362h-40.545a1.969 1.969 0 0 0-1.969 1.969v40.545c0 1.754 2.121 2.633 3.362 1.392l40.544-40.544Z" clip-rule="evenodd"/><path fill="#F8F9FA" d="M322.13 165.795a2 2 0 0 1-4 0h4Zm0-15.756v15.756h-4v-15.756h4ZM298.495 165.795a2 2 0 1 1-4 0h4Zm0-15.756v15.756h-4v-15.756h4ZM274.86 165.795a2 2 0 1 1-4 0h4Zm0-15.756v15.756h-4v-15.756h4ZM251.225 165.795a2 2 0 0 1-4 0h4Zm0-15.756v15.756h-4v-15.756h4ZM227.59 165.795a2 2 0 0 1-4 0h4Zm0-15.756v15.756h-4v-15.756h4Z"/><path stroke="#fff" stroke-linecap="round" stroke-width="4" d="M496.5 158.039h32M496.5 182.039h48M496.5 229.961h48M496.5 253.961h32"/><rect width="40" height="40" x="440.5" y="150.039" fill="#356AC3" rx="8.889"/><rect width="40" height="40" x="440.5" y="221.961" fill="#356AC3" rx="8.889"/><path fill="#112719" fill-rule="evenodd" d="M455.64 180.014a2.222 2.222 0 0 0 2.247-.546l15.714-15.713a2.222 2.222 0 1 0-3.143-3.143l-14.143 14.143-5.764-5.764a2.223 2.223 0 0 0-3.142 3.143l7.333 7.333a2.2 2.2 0 0 0 .898.547ZM455.64 251.936a2.222 2.222 0 0 0 2.247-.546l15.714-15.714a2.221 2.221 0 1 0-3.143-3.142l-14.143 14.143-5.764-5.764a2.221 2.221 0 1 0-3.142 3.143l7.333 7.333a2.2 2.2 0 0 0 .898.547Z" clip-rule="evenodd"/><path fill="#164590" d="M530.947 337.934a2.294 2.294 0 0 1 2.809-1.622l34.876 9.345a2.293 2.293 0 0 1 1.621 2.809l-19.834 74.022c-.508 1.895-3.006 2.319-4.11.698l-11.19-16.426a2.292 2.292 0 0 0-2.891-.775l-17.904 8.63c-1.767.852-3.718-.764-3.211-2.659l19.834-74.022Z"/><path fill="#164590" d="M559.627 350.176a2.294 2.294 0 0 1 1.621-2.809l34.876-9.345a2.295 2.295 0 0 1 2.809 1.622l19.834 74.022c.508 1.895-1.444 3.511-3.211 2.66l-17.904-8.631a2.294 2.294 0 0 0-2.891.775l-11.19 16.426c-1.104 1.621-3.602 1.197-4.11-.698l-19.834-74.022Z"/><path fill="#356AC3" d="M561.324 276.501a7.71 7.71 0 0 1 6.862 0l6.574 3.269a7.684 7.684 0 0 0 2.971.792l8.315.497a7.68 7.68 0 0 1 5.943 3.413l4.403 6.633a7.654 7.654 0 0 0 2.176 2.164l5.561 3.653a7.618 7.618 0 0 1 3.431 5.911l.5 8.279a7.6 7.6 0 0 0 .796 2.955l2.903 5.775a7.595 7.595 0 0 1 0 6.826l-2.473 4.919a7.6 7.6 0 0 0-.796 2.955l-.551 9.133a7.627 7.627 0 0 1-3.431 5.912l-6.9 4.531a7.647 7.647 0 0 0-2.175 2.163l-3.821 5.757a7.682 7.682 0 0 1-5.943 3.413l-7.886.471a7.693 7.693 0 0 0-2.972.792l-6.625 3.294a7.703 7.703 0 0 1-6.862 0l-6.781-3.372a7.71 7.71 0 0 0-2.972-.792l-6.584-.393a7.68 7.68 0 0 1-5.943-3.413l-3.82-5.755a7.647 7.647 0 0 0-2.175-2.163l-6.901-4.532a7.627 7.627 0 0 1-3.431-5.912l-.395-6.544a7.6 7.6 0 0 0-.796-2.955l-3.775-7.509a7.595 7.595 0 0 1 0-6.826l4.203-8.361a7.606 7.606 0 0 0 .797-2.956l.343-5.691a7.623 7.623 0 0 1 3.431-5.911l5.561-3.652a7.663 7.663 0 0 0 2.175-2.164l4.405-6.635a7.678 7.678 0 0 1 5.942-3.413l7.015-.419a7.701 7.701 0 0 0 2.971-.792l6.73-3.347Z"/><ellipse cx="564.76" cy="323.256" fill="#AECBFA" rx="36.115" ry="36.369"/><path fill="#132137" d="M562.088 306.01c.88-2.531 4.458-2.531 5.338 0l2.019 5.807a5.651 5.651 0 0 0 5.222 3.795l6.147.125c2.678.054 3.784 3.458 1.65 5.076l-4.9 3.715a5.652 5.652 0 0 0-1.995 6.139l1.781 5.885c.775 2.564-2.12 4.667-4.318 3.137l-5.047-3.512a5.652 5.652 0 0 0-6.456 0l-5.047 3.512c-2.198 1.53-5.093-.573-4.318-3.137l1.781-5.885a5.652 5.652 0 0 0-1.995-6.139l-4.9-3.715c-2.134-1.618-1.028-5.022 1.65-5.076l6.147-.125a5.651 5.651 0 0 0 5.222-3.795l2.019-5.807Z"/><path fill="#103C20" d="M344.1 390a9.2 9.2 0 0 1-9.201-9.2V215.2a9.2 9.2 0 0 1 9.201-9.2h36.8a9.2 9.2 0 0 1 9.2 9.2v165.6a9.2 9.2 0 0 1-9.2 9.2h-36.8Z"/><path fill="#F8F9FA" d="M353.299 355.199a2 2 0 0 0 0-4v4Zm-18.401 0h18.401v-4h-18.401v4ZM353.299 327.602a2 2 0 0 0 0-4v4Zm-18.401 0h18.401v-4h-18.401v4ZM353.299 300a2 2 0 0 0 0-4v4Zm-18.401 0h18.401v-4h-18.401v4ZM353.299 272.398a2 2 0 0 0 0-4v4Zm-18.401 0h18.401v-4h-18.401v4ZM353.299 244.797a2 2 0 0 0 0-4v4Zm-18.401 0h18.401v-4h-18.401v4Z"/><path fill="#A2D004" d="M246.221 367.349c.962-2.661 4.726-2.661 5.689 0l3.574 9.883a20.165 20.165 0 0 0 11.822 12l9.724 3.682c2.604.986 2.604 4.671 0 5.658l-9.724 3.682a20.165 20.165 0 0 0-11.822 12l-3.574 9.882c-.963 2.662-4.727 2.662-5.689 0l-3.574-9.882a20.17 20.17 0 0 0-11.822-12l-9.724-3.682c-2.605-.987-2.605-4.672 0-5.658l9.724-3.682a20.17 20.17 0 0 0 11.822-12l3.574-9.883ZM655.012 172.323c.57-1.925 3.296-1.925 3.866 0l2.342 7.903a4.034 4.034 0 0 0 2.721 2.721l7.904 2.342c1.925.57 1.925 3.296 0 3.867l-7.904 2.341a4.033 4.033 0 0 0-2.721 2.722l-2.342 7.903c-.57 1.925-3.296 1.925-3.866 0l-2.342-7.903a4.033 4.033 0 0 0-2.721-2.722l-7.904-2.341c-1.925-.571-1.925-3.297 0-3.867l7.904-2.342a4.034 4.034 0 0 0 2.721-2.721l2.342-7.903ZM123.992 271.987c.57-1.925 3.297-1.925 3.867 0l2.341 7.903a4.033 4.033 0 0 0 2.722 2.721l7.903 2.342c1.925.57 1.925 3.297 0 3.867l-7.903 2.341a4.033 4.033 0 0 0-2.722 2.722l-2.341 7.903c-.57 1.925-3.297 1.925-3.867 0l-2.342-7.903a4.031 4.031 0 0 0-2.721-2.722l-7.903-2.341c-1.925-.57-1.925-3.297 0-3.867l7.903-2.342a4.032 4.032 0 0 0 2.721-2.721l2.342-7.903Z"/></svg>