<svg xmlns="http://www.w3.org/2000/svg" width="503" height="503" fill="none"><path fill="#AECBFA" fill-rule="evenodd" d="M404.352 306.405c-3.333-15.043 5.385-29.949 19.73-34.639l-4.653 14.75c-2.626 8.325 1.994 17.202 10.319 19.828s17.202-1.993 19.828-10.318l5.228-16.575a29.56 29.56 0 0 1 7.532 14.108c2.288 10.328-1.104 20.591-8.097 27.528l13.11 59.168-30.925 6.851-13.11-59.17c-9.267-3.335-16.674-11.205-18.962-21.531" clip-rule="evenodd"/><path fill="#AECBFA" fill-rule="evenodd" d="M459.168 416.54c8.54-1.892 13.929-10.349 12.036-18.888-1.892-8.54-10.348-13.929-18.888-12.037-8.539 1.892-13.928 10.348-12.036 18.888s10.349 13.929 18.888 12.037m1.713 7.731c12.809-2.838 20.893-15.523 18.055-28.332s-15.523-20.893-28.333-18.055-20.892 15.523-18.054 28.332 15.523 20.893 28.332 18.055" clip-rule="evenodd"/><path fill="#174EA6" fill-rule="evenodd" d="M437.849 320.323a1.545 1.545 0 0 1 1.843 1.175l11.563 52.185a1.547 1.547 0 0 1-3.019.669l-11.562-52.185a1.546 1.546 0 0 1 1.175-1.844" clip-rule="evenodd"/><path fill="#C6FF00" fill-rule="evenodd" d="M116.11 141.972h180.066c41.265 0 74.717 33.452 74.717 74.717s-33.452 74.718-74.718 74.718H116.109c-41.265 0-74.717-33.452-74.717-74.718 0-41.265 33.453-74.717 74.718-74.717m180.066-3.932c43.437 0 78.65 35.212 78.649 78.649 0 43.437-35.213 78.65-78.65 78.65H116.109c-43.437 0-78.65-35.213-78.65-78.65.001-43.437 35.214-78.649 78.651-78.649z" clip-rule="evenodd"/><path fill="#C6FF00" d="M291.19 120.213c-.674-1.873-3.286-1.873-3.96 0l-2.638 7.328c-1.406 3.907-4.425 6.996-8.264 8.457l-7.155 2.722c-1.823.694-1.823 3.31 0 4.004l7.155 2.722c3.839 1.461 6.858 4.55 8.264 8.457l2.638 7.328c.674 1.873 3.286 1.873 3.96 0l2.637-7.328c1.407-3.907 4.425-6.996 8.265-8.457l7.154-2.722c1.824-.694 1.824-3.31 0-4.004l-7.154-2.722c-3.84-1.461-6.858-4.55-8.265-8.457z"/><path fill="#4285F4" d="M408.577 268.84c2.212-11.906-5.282-23.461-17.055-26.296l-8.869-2.137-199.326 125.914c-19.292 12.187-10.659 42.02 12.16 42.02h168.238c10.971 0 20.382-7.823 22.386-18.61z"/><path fill="#34A853" d="M396.686 265.921c2.542-13.977-8.196-26.843-22.402-26.843H154.725c-11.004 0-20.434 7.87-22.402 18.696L110.732 376.52c-2.541 13.977 8.196 26.843 22.402 26.843h219.56c11.004 0 20.434-7.87 22.402-18.696z"/><path fill="#fff" d="M382.186 269.06c1.792-9.359-5.381-18.035-14.909-18.035H158.23a15.18 15.18 0 0 0-14.908 12.325l-21.07 110.03c-1.792 9.358 5.38 18.034 14.909 18.034h209.046a15.18 15.18 0 0 0 14.909-12.325z"/><path fill="#34A853" d="M368.712 413.819c0-5.774-4.68-10.454-10.454-10.454H34.664c-5.774 0-10.455 4.68-10.455 10.454s4.68 10.455 10.455 10.455h323.594c5.774 0 10.454-4.681 10.454-10.455"/><path fill="#4285F4" d="M378.673 413.819c0-5.774-4.681-10.454-10.455-10.454H275.62c-5.773 0-10.454 4.68-10.454 10.454s4.681 10.455 10.454 10.455h92.598c5.774 0 10.455-4.681 10.455-10.455"/><path fill="#C6FF00" d="M197.458 403.365h-83.636a7.965 7.965 0 0 0 7.965 7.965h67.706a7.965 7.965 0 0 0 7.965-7.965"/><path stroke="#0D652D" stroke-linecap="round" stroke-linejoin="round" stroke-width="3.549" d="M355.77 402.369H114.817"/><path fill="#4285F4" d="M12.998 135.522c0-34.45 27.927-62.376 62.377-62.376h83.17c34.45 0 62.377 27.926 62.377 62.376s-27.927 62.376-62.377 62.376h-83.17c-34.45 0-62.377-27.926-62.377-62.376"/><g clip-path="url(#a)"><path fill="#34A853" d="M181.557 388.748q.06-.398.127-.793.406-2.449.994-4.836a65 65 0 0 1 5.521-14.607 65.416 65.416 0 0 1 11.944-16.179 65.652 65.652 0 0 1 11.569-9.143q-.037-.063-.073-.127c-1.315-2.266-2.633-4.528-3.949-6.794l-3.859-6.637q-1.387-2.382-2.77-4.766a5.971 5.971 0 0 1-.337-5.325q.163-.385.378-.747a5.95 5.95 0 0 1 2.078-2.064 6.06 6.06 0 0 1 3.678-.808q.468.049.925.168a6 6 0 0 1 3.643 2.776q1.388 2.384 2.77 4.767l3.86 6.636q1.974 3.397 3.948 6.795.216.37.432.745.298-.12.598-.235a65.6 65.6 0 0 1 24.018-4.262 65.6 65.6 0 0 1 20.892 3.616q1.139.395 2.253.833.202-.346.403-.694 1.974-3.397 3.949-6.795l3.859-6.636q1.388-2.384 2.77-4.766a5.994 5.994 0 0 1 5.696-2.954 6 6 0 0 1 2.551.818 5.95 5.95 0 0 1 2.725 3.6 5.97 5.97 0 0 1-.607 4.535l-2.77 4.766-3.859 6.637c-1.315 2.266-2.634 4.529-3.949 6.795-.009.019-.022.038-.031.057a66 66 0 0 1 7.56 5.46 66 66 0 0 1 11.305 12.195 65 65 0 0 1 4.759 7.74 64.9 64.9 0 0 1 6.515 19.443q.067.396.127.792a66 66 0 0 1 .375 2.862H181.191a66 66 0 0 1 .375-2.862z"/><path fill="#000" d="M212.462 373.71c-2.608-1.732-2.987-5.738-.846-8.949s5.991-4.408 8.6-2.677 2.987 5.738.846 8.949-5.991 4.408-8.6 2.677M271.579 371.044c-2.141-3.21-1.762-7.216.847-8.948s6.459-.533 8.6 2.677 1.762 7.216-.847 8.948-6.459.533-8.6-2.677"/></g><path fill="#C6FF00" d="M56.936 315.56c.418-1.412 2.417-1.412 2.836 0l3.753 12.669a2.96 2.96 0 0 0 1.996 1.995l12.669 3.754c1.41.417 1.41 2.417 0 2.836l-12.67 3.752a2.96 2.96 0 0 0-1.995 1.996l-3.753 12.669c-.419 1.412-2.418 1.412-2.836 0l-3.754-12.669a2.96 2.96 0 0 0-1.995-1.996l-12.67-3.752c-1.41-.419-1.41-2.419 0-2.836l12.67-3.754a2.96 2.96 0 0 0 1.995-1.995z"/><path fill="#E8F0FE" fill-rule="evenodd" d="M171.003 122.864c-12.737 1.979-4.835 2.683-4.164 4.961 1.643 5.582 1.529 10.796-.182 15.197-.861 2.215-5.991 2.938 3.73 5.291 2.92.706 5.986-.516 6.848-2.731 2.33-5.995 2.344-12.691.361-19.428-.67-2.279-3.622-3.752-6.593-3.29M61.557 122.863c12.737 1.979 4.835 2.683 4.164 4.962-1.643 5.582-1.53 10.795.182 15.197.861 2.215 5.991 2.938-3.73 5.29-2.92.707-5.986-.516-6.848-2.731-2.33-5.994-2.344-12.691-.361-19.427.67-2.279 3.622-3.752 6.593-3.291" clip-rule="evenodd"/><path fill="#AECBFA" d="M169.893 125.421c-4.316-16.189-31.221-18.11-53.614-18.11s-49.297 1.921-53.614 18.11 1.079 31.555 17.537 37.043c13.989 4.665 20.73 1.921 24.611-4.116 3.528-5.488 5.733-8.232 11.466-8.232s7.938 2.744 11.467 8.232c3.88 6.037 10.622 8.781 24.611 4.116 16.457-5.488 21.853-20.854 17.536-37.043"/><defs><clipPath id="a"><path fill="#fff" d="M311.57 315.964H181.186v75.719H311.57z"/></clipPath></defs></svg>