<svg viewBox="0 0 480 480" fill="none" xmlns="http://www.w3.org/2000/svg">
<g clip-path="url(#clip0)">
<path d="M182.289 169.951V361.865L230.304 318.308H405.482C421.048 318.308 433.692 305.664 433.692 290.098V195.676C433.692 181.498 422.145 169.951 407.967 169.951H182.289V169.951Z" fill="#3DDC84"/>
<path d="M45.5513 230.828L182.288 230.755V290.756L291.619 290.536C301.924 290.536 305.213 279.428 299.074 270.95L274.445 230.682L182.288 230.755L45.5513 230.828Z" fill="#00B975"/>
<path d="M45.5522 230.828L182.289 230.755L274.446 230.682V169.951H182.289V230.682L45.5522 230.828Z" fill="#00B975"/>
<path d="M263.045 230.682L43.4323 230.901L19.0229 269.708C16.2457 274.093 19.4614 279.793 24.5771 279.793L281.023 279.355C286.139 279.355 289.281 273.727 286.65 269.343L263.045 230.682Z" fill="#1769E0"/>
<path d="M263.118 230.682L43.5054 230.901V133.702C43.5054 120.035 54.5408 109 68.2072 109L238.343 109.146C252.009 109.146 263.045 120.255 263.045 133.848V230.682H263.118Z" fill="#4285F4"/>
<path d="M68.6458 121.424H237.904C244.847 121.424 250.548 127.051 250.548 134.067V218.477H56.0757V134.067C56.0757 127.051 61.703 121.424 68.6458 121.424Z" stroke="#D7EFFE" stroke-width="5.84658" stroke-miterlimit="10"/>
<path d="M134.931 314.507C140.997 312.315 145.821 307.565 148.013 301.499C148.452 300.256 150.132 300.256 150.571 301.499C152.763 307.565 157.514 312.388 163.58 314.581C164.822 315.019 164.822 316.7 163.58 317.138C157.514 319.331 152.69 324.081 150.498 330.147C150.059 331.389 148.378 331.389 147.94 330.147C145.747 324.081 140.997 319.258 134.931 317.065C133.689 316.627 133.689 314.946 134.931 314.507Z" fill="#F1D949"/>
<path d="M426.822 335.994V331.682" stroke="#4285F4" stroke-width="2.92329" stroke-miterlimit="10" stroke-linecap="round" stroke-linejoin="round"/>
<path d="M436.03 340.671L439.099 334.605" stroke="#4285F4" stroke-width="2.92329" stroke-miterlimit="10" stroke-linecap="round" stroke-linejoin="round"/>
<path d="M419.074 340.671L414.543 334.532" stroke="#4285F4" stroke-width="2.92329" stroke-miterlimit="10" stroke-linecap="round" stroke-linejoin="round"/>
<path d="M411.255 347.467L404.385 341.036" stroke="#4285F4" stroke-width="2.92329" stroke-miterlimit="10" stroke-linecap="round" stroke-linejoin="round"/>
<path d="M442.461 348.052L448.673 340.671" stroke="#4285F4" stroke-width="2.92329" stroke-miterlimit="10" stroke-linecap="round" stroke-linejoin="round"/>
<path d="M454.227 353.168C454.52 353.533 454.52 354.045 454.227 354.337C451.889 357.407 440.488 371 426.821 371C413.155 371 401.754 357.407 399.416 354.337C399.123 353.972 399.123 353.46 399.416 353.168C401.754 350.025 413.155 335.994 426.821 335.994C440.488 335.994 451.889 350.025 454.227 353.168Z" fill="#EFF7CF"/>
<path d="M426.821 365.007C420.463 365.007 415.347 359.818 415.347 353.533C415.347 347.175 420.536 342.059 426.821 342.059C433.179 342.059 438.295 347.248 438.295 353.533C438.295 359.818 433.179 365.007 426.821 365.007Z" stroke="#4285F4" stroke-width="2.92329" stroke-miterlimit="10" stroke-linecap="round" stroke-linejoin="round"/>
<path d="M457.445 319.915L429.454 335.263L426.312 337.017L384.874 359.672C381.366 361.572 377.419 361.28 374.423 359.38C373.4 358.795 372.523 357.991 371.792 357.041C370.404 355.287 369.527 353.095 369.453 350.61L368.723 271.608C368.723 269.927 369.088 268.319 369.819 266.931C370.33 265.908 370.988 264.958 371.792 264.227C374.862 261.157 379.758 260.061 384.143 262.327L432.524 288.271L435.447 289.806L457.518 301.645C464.68 305.518 464.753 315.969 457.445 319.915Z" fill="#D7EFFE"/>
<path d="M165.114 169.658C165.114 169.22 164.822 168.781 164.31 168.489C164.237 168.489 164.237 168.416 164.164 168.416L160.949 166.589L159.925 166.004L158.975 165.493L155.54 163.592L147.136 158.842C147.063 158.842 147.063 158.769 146.99 158.769C146.99 158.769 146.99 158.769 146.917 158.769C146.917 158.769 146.844 158.769 146.844 158.696C146.844 158.696 146.844 158.696 146.771 158.696H146.697C146.551 158.623 146.478 158.623 146.332 158.623C145.967 158.55 145.601 158.696 145.382 158.915L145.309 158.988C145.309 158.988 145.309 158.988 145.309 159.061C145.309 159.061 145.309 159.134 145.236 159.134C145.236 159.134 145.236 159.208 145.163 159.208C145.163 159.208 145.163 159.281 145.09 159.281C145.09 159.354 145.017 159.427 145.017 159.5V159.573V159.646C145.017 159.719 145.017 159.719 145.017 159.792V159.865V160.158V160.304V172.143V176.674V179.305V179.744C145.09 180.182 145.163 180.474 145.382 180.694L145.455 180.767C145.455 180.767 145.528 180.767 145.528 180.84C145.528 180.84 145.601 180.84 145.601 180.913C145.601 180.913 145.674 180.913 145.674 180.986H145.747H145.821H145.894C146.259 181.059 146.624 180.986 147.063 180.694L155.248 176.016L158.829 173.97L159.779 173.459L160.729 172.947L161.826 172.362L164.091 171.047C164.383 170.901 164.603 170.681 164.749 170.462C164.968 170.097 165.041 169.878 165.114 169.658Z" fill="#073042"/>
<path d="M137.197 186.394C130.766 183.252 126.381 176.601 126.381 169.001C126.381 162.35 129.67 156.504 134.785 152.996" stroke="#073042" stroke-width="2.92329" stroke-miterlimit="10" stroke-linecap="round"/>
<path d="M127.185 193.775C117.976 189.171 111.618 179.67 111.618 168.635C111.618 159.061 116.369 150.657 123.677 145.614" stroke="#073042" stroke-width="2.92329" stroke-miterlimit="10" stroke-linecap="round"/>
<path d="M168.403 186.394C174.835 183.252 179.22 176.601 179.22 169.001C179.22 162.35 175.931 156.504 170.815 152.996" stroke="#073042" stroke-width="2.92329" stroke-miterlimit="10" stroke-linecap="round"/>
<path d="M178.416 193.775C187.624 189.171 193.982 179.67 193.982 168.635C193.982 159.061 189.232 150.657 181.923 145.614" stroke="#073042" stroke-width="2.92329" stroke-miterlimit="10" stroke-linecap="round"/>
<path d="M450.429 370.196H401.171C398.394 370.196 396.128 367.93 396.128 365.153V314.361C396.128 311.584 398.394 309.318 401.171 309.318H450.429C453.206 309.318 455.471 311.584 455.471 314.361V365.153C455.471 367.93 453.206 370.196 450.429 370.196Z" fill="#4285F4"/>
<path d="M404.752 348.564L419.953 334.532L431.281 345.933L446.774 329.781" stroke="white" stroke-width="2.19247" stroke-miterlimit="10"/>
<path d="M404.752 353.387C407.416 353.387 409.576 351.228 409.576 348.564C409.576 345.9 407.416 343.74 404.752 343.74C402.088 343.74 399.929 345.9 399.929 348.564C399.929 351.228 402.088 353.387 404.752 353.387Z" fill="white"/>
<path d="M419.953 339.355C422.617 339.355 424.777 337.196 424.777 334.532C424.777 331.868 422.617 329.708 419.953 329.708C417.289 329.708 415.13 331.868 415.13 334.532C415.13 337.196 417.289 339.355 419.953 339.355Z" fill="white"/>
<path d="M431.281 350.756C433.945 350.756 436.105 348.597 436.105 345.933C436.105 343.269 433.945 341.109 431.281 341.109C428.618 341.109 426.458 343.269 426.458 345.933C426.458 348.597 428.618 350.756 431.281 350.756Z" fill="white"/>
<path d="M446.775 334.605C449.439 334.605 451.598 332.445 451.598 329.782C451.598 327.118 449.439 324.958 446.775 324.958C444.111 324.958 441.951 327.118 441.951 329.782C441.951 332.445 444.111 334.605 446.775 334.605Z" fill="white"/>
<path d="M396.128 318.161V314.361C396.128 311.584 398.394 309.318 401.171 309.318H450.429C453.206 309.318 455.471 311.584 455.471 314.361V318.308" fill="#073042"/>
</g>
<defs>
<clipPath id="clip0">
<rect width="444.925" height="262" fill="white" transform="translate(18 109)"/>
</clipPath>
</defs>
</svg>
