<svg xmlns="http://www.w3.org/2000/svg" width="503" height="504" fill="none"><path fill="#2A8642" d="M181.268 359.285h23.172l-46.321-250.402c-25.424 0-44.993 22.451-41.521 47.636l22.937 166.391c2.873 20.846 20.689 36.375 41.733 36.375"/><path fill="#202124" d="M252.953 145.09c-2.797-20.923-20.647-36.546-41.756-36.546h-37.175c-25.484 0-45.133 22.451-41.756 47.711l22.301 166.817c2.798 20.923 20.648 36.546 41.757 36.546h37.174c25.485 0 45.134-22.451 41.757-47.711z"/><path fill="#164590" fill-rule="evenodd" d="M211.425 112.064c20.024 0 36.968 14.795 39.667 34.636l22.309 163.971c3.269 24.033-15.413 45.429-39.667 45.429h-49.313a2.095 2.095 0 1 0 0 4.192h49.313c26.793 0 47.432-23.637 43.82-50.186l-22.309-163.971c-2.982-21.919-21.7-38.262-43.82-38.262h-50.781a2.095 2.095 0 1 0 0 4.191z" clip-rule="evenodd"/><path fill="#A8DAB5" fill-rule="evenodd" d="m128.51 211.07-3.037-22.067a.627.627 0 0 1 1.241-.171l3.037 22.067a.627.627 0 0 1-1.241.171m-3.073-26.925a4.817 4.817 0 0 1 5.429 4.116l3.037 22.067a4.818 4.818 0 1 1-9.546 1.313l-3.036-22.067a4.817 4.817 0 0 1 4.116-5.429m11.854 90.614-6.379-46.356a.625.625 0 1 1 1.24-.171l6.379 46.356a.626.626 0 1 1-1.24.171m-6.416-51.214a4.82 4.82 0 0 1 5.43 4.116l6.379 46.356a4.818 4.818 0 0 1-9.546 1.314l-6.379-46.357a4.817 4.817 0 0 1 4.116-5.429" clip-rule="evenodd"/><path fill="#164590" d="M372.819 112.656a3.063 3.063 0 1 1 6.127 0v18.381a3.063 3.063 0 0 1-6.127 0z"/><path fill="#164590" d="M385.071 118.345a3.064 3.064 0 0 1 0 6.127H366.69a3.063 3.063 0 1 1 0-6.127zm62.68 200.928a4.289 4.289 0 1 1 8.578 0v25.733a4.29 4.29 0 0 1-8.578 0z"/><path fill="#164590" d="M464.908 327.237a4.29 4.29 0 0 1 0 8.578h-25.734a4.29 4.29 0 0 1 0-8.578z"/><path fill="#A2D004" fill-rule="evenodd" d="M434.361 204.953c2.899 0 5.764-2.525 5.764-6.288 0-3.762-2.865-6.287-5.764-6.287s-5.763 2.525-5.763 6.287 2.865 6.288 5.763 6.288m0 8.383c7.814 0 14.147-6.568 14.147-14.671s-6.333-14.671-14.147-14.671c-7.813 0-14.146 6.569-14.146 14.671s6.333 14.671 14.146 14.671" clip-rule="evenodd"/><path fill="#121212" d="M191.384 283.62s32.53 21.835 83.664 21.835 83.664-21.835 83.664-21.835v-17.589l-22.49-23.439-61.174 22.5-61.174-22.5-22.49 23.439z"/><g clip-path="url(#a)"><path fill="#2A8642" d="M358.275 262.048a82 82 0 0 0-1.44-7.224 83.2 83.2 0 0 0-7.087-18.747 84.5 84.5 0 0 0-6.108-9.933 84 84 0 0 0-9.224-10.832 84.3 84.3 0 0 0-14.851-11.735c.033-.053.062-.11.094-.163 1.688-2.908 3.381-5.812 5.069-8.72l4.954-8.518a5646 5646 0 0 0 3.556-6.117c.281-.484.501-.985.669-1.497a7.67 7.67 0 0 0-.237-5.337 7.6 7.6 0 0 0-3.152-3.608 7.76 7.76 0 0 0-4.722-1.037q-.6.062-1.186.216a7.68 7.68 0 0 0-4.678 3.563 4825 4825 0 0 0-3.555 6.117l-4.955 8.518c-1.688 2.908-3.38 5.812-5.068 8.721l-.555.955q-.384-.153-.766-.301c-9.31-3.538-19.41-5.475-29.967-5.475-.29 0-.575 0-.865.005a84.2 84.2 0 0 0-26.819 4.641q-1.46.507-2.891 1.069-.258-.446-.518-.89c-1.688-2.909-3.38-5.813-5.068-8.721l-4.954-8.518a3458 3458 0 0 1-3.556-6.117 7.68 7.68 0 0 0-5.864-3.779 8 8 0 0 0-1.447-.012 7.65 7.65 0 0 0-3.275 1.049 7.66 7.66 0 0 0-2.667 2.648 8 8 0 0 0-.485.96q-.21.495-.347 1.013a7.66 7.66 0 0 0 .779 5.821c1.187 2.037 2.374 4.079 3.556 6.117l4.954 8.518 5.069 8.72c.012.025.029.049.041.074a84.6 84.6 0 0 0-9.705 7.008 84.6 84.6 0 0 0-14.513 15.652 83 83 0 0 0-6.108 9.933 83.4 83.4 0 0 0-8.363 24.954q-.084.509-.163 1.017a84 84 0 0 0-.482 3.673h167.369a85 85 0 0 0-.481-3.673z"/><path fill="#121212" d="M318.595 242.746c3.348-2.223 3.835-7.365 1.087-11.485s-7.691-5.658-11.04-3.436-3.835 7.365-1.087 11.485 7.691 5.658 11.04 3.436m-75.881-3.422c2.748-4.12 2.262-9.262-1.087-11.484-3.349-2.223-8.291-.685-11.04 3.435s-2.261 9.262 1.087 11.485c3.349 2.222 8.291.684 11.04-3.436"/></g><path fill="#2A8642" d="M191.384 272.174h167.328v87.824H191.384z"/><path fill="#356AC3" d="M415.709 283.716a7.97 7.97 0 0 0-4.733-6.978l-30.4-13.308-13.995-6.19a6.9 6.9 0 0 0-5.583 0l-13.995 6.192-30.661 13.238a7.98 7.98 0 0 0-4.734 6.889c-.521 10.51-.746 35.01 1.006 44.419 6.321 33.8 39.924 60.252 48.945 66.819a3.795 3.795 0 0 0 4.482.029c9.248-6.547 44.044-33.204 48.924-66.848 1.37-9.443 1.16-33.734.744-44.262"/><path fill="#121212" fill-rule="evenodd" d="M366.845 322.466a9.604 9.604 0 0 0 6.24-10.683 9.608 9.608 0 0 0-15.651-5.72 9.607 9.607 0 0 0 2.977 16.403l-8.251 16.501a1.048 1.048 0 0 0 .938 1.516h21.06c.779 0 1.286-.819.937-1.516z" clip-rule="evenodd"/><path fill="#103C20" d="M119.276 340.523c0-17.836 14.459-32.294 32.295-32.294h41.522c17.836 0 32.294 14.458 32.294 32.294s-14.458 32.295-32.294 32.295h-41.522c-17.836 0-32.295-14.459-32.295-32.295"/><path fill="#A8DAB5" fill-rule="evenodd" d="M177.663 338.165v-7.688a5.383 5.383 0 1 0-10.765 0v7.688a5.383 5.383 0 1 0 10.765 0m-5.382-15.377a7.69 7.69 0 0 0-7.69 7.689v7.688a7.69 7.69 0 0 0 15.379 0v-7.688a7.69 7.69 0 0 0-7.689-7.689" clip-rule="evenodd"/><path fill="#A8DAB5" d="M160.748 332.987a.96.96 0 0 1 .961-.961h21.146c.53 0 .961.43.961.961v17.3a4.806 4.806 0 0 1-4.806 4.806h-13.456a4.806 4.806 0 0 1-4.806-4.806z"/><path fill="#112719" fill-rule="evenodd" d="M172.955 342.663a2.01 2.01 0 0 0 1.308-2.239 2.016 2.016 0 0 0-3.281-1.2 2.015 2.015 0 0 0 .624 3.439l-1.624 3.248a.365.365 0 0 0 .327.529h3.942a.365.365 0 0 0 .327-.529z" clip-rule="evenodd"/><path fill="#164590" d="M45.611 298.75a3.676 3.676 0 1 1 7.353 0v22.057a3.676 3.676 0 0 1-7.353 0z"/><path fill="#164590" d="M60.315 305.576a3.676 3.676 0 0 1 0 7.353H38.257a3.676 3.676 0 0 1 0-7.353z"/><path fill="#A2D004" fill-rule="evenodd" d="M78.594 382.051a6.288 6.288 0 1 0 0-12.575 6.288 6.288 0 0 0 0 12.575m0 8.383c8.102 0 14.67-6.568 14.67-14.671s-6.568-14.671-14.67-14.671-14.671 6.569-14.671 14.671 6.568 14.671 14.67 14.671m12.576-131.688c3.37 0 5.589-2.545 5.589-5.065s-2.22-5.065-5.59-5.065-5.588 2.545-5.588 5.065 2.219 5.065 5.589 5.065m0 6.986c6.945 0 12.575-5.396 12.575-12.051s-5.63-12.051-12.575-12.051-12.575 5.395-12.575 12.051c0 6.655 5.63 12.051 12.575 12.051" clip-rule="evenodd"/><defs><clipPath id="a"><path fill="#fff" d="M191.384 168.635h167.368v97.182H191.384z"/></clipPath></defs></svg>