<svg version="1.1" viewBox="0.0 0.0 960.0 720.0" fill="none" stroke="none" stroke-linecap="square" stroke-miterlimit="10" xmlns:xlink="http://www.w3.org/1999/xlink" xmlns="http://www.w3.org/2000/svg"><clipPath id="p.0"><path d="m0 0l960.0 0l0 720.0l-960.0 0l0 -720.0z" clip-rule="nonzero"/></clipPath><g clip-path="url(#p.0)"><path fill="#000000" fill-opacity="0.0" d="m0 0l960.0 0l0 720.0l-960.0 0z" fill-rule="evenodd"/><path fill="#999999" d="m256.62204 34.09222l0 0c0 -9.863047 7.995575 -17.858625 17.858643 -17.858625l347.43234 0c4.736389 0 9.278809 1.8815289 12.62793 5.230671c3.3491821 3.349142 5.230713 7.891554 5.230713 12.6279545l0 71.43236c0 9.863052 -7.9956055 17.858627 -17.858643 17.858627l-347.43234 0c-9.863068 0 -17.858643 -7.995575 -17.858643 -17.858627z" fill-rule="evenodd"/><path stroke="#ffffff" stroke-width="1.0" stroke-linejoin="round" stroke-linecap="butt" d="m256.62204 34.09222l0 0c0 -9.863047 7.995575 -17.858625 17.858643 -17.858625l347.43234 0c4.736389 0 9.278809 1.8815289 12.62793 5.230671c3.3491821 3.349142 5.230713 7.891554 5.230713 12.6279545l0 71.43236c0 9.863052 -7.9956055 17.858627 -17.858643 17.858627l-347.43234 0c-9.863068 0 -17.858643 -7.995575 -17.858643 -17.858627z" fill-rule="evenodd"/><path fill="#ffffff" d="m394.65582 74.37965l-6.609375 0l-1.375 3.96875l-3.078125 0l6.4375 -17.062504l2.65625 0l6.46875 17.062504l-3.09375 0l-1.40625 -3.96875zm-5.765625 -2.390625l4.9375 0l-2.46875 -7.078125l-2.46875 7.078125zm14.003906 -6.328125l0.078125 1.46875q1.40625 -1.703125 3.6875 -1.703125q3.96875 0 4.03125 4.546875l0 8.375l-2.84375 0l0 -8.21875q0 -1.203125 -0.53125 -1.78125q-0.515625 -0.578125 -1.703125 -0.578125q-1.71875 0 -2.5625 1.546875l0 9.03125l-2.84375 0l0 -12.6875l2.6875 0zm10.160156 6.25q0 -2.921875 1.359375 -4.703125q1.359375 -1.78125 3.65625 -1.78125q2.015625 0 3.25 1.40625l0 -6.484379l2.84375 0l0 18.000004l-2.578125 0l-0.140625 -1.3125q-1.265625 1.546875 -3.40625 1.546875q-2.21875 0 -3.609375 -1.796875q-1.375 -1.796875 -1.375 -4.875zm2.859375 0.25q0 1.9375 0.734375 3.015625q0.75 1.078125 2.125 1.078125q1.734375 0 2.546875 -1.546875l0 -5.421875q-0.78125 -1.515625 -2.53125 -1.515625q-1.375 0 -2.125 1.09375q-0.75 1.09375 -0.75 3.296875zm17.859375 -3.890625q-0.5625 -0.09375 -1.15625 -0.09375q-1.953125 0 -2.640625 1.5l0 8.671875l-2.84375 0l0 -12.6875l2.71875 0l0.078125 1.421875q1.03125 -1.65625 2.859375 -1.65625q0.609375 0 1.0 0.171875l-0.015625 2.671875zm0.84375 3.625q0 -1.875 0.734375 -3.359375q0.75 -1.5 2.078125 -2.296875q1.34375 -0.8125 3.078125 -0.8125q2.5625 0 4.15625 1.65625q1.609375 1.65625 1.734375 4.390625l0.015625 0.65625q0 1.875 -0.71875 3.359375q-0.71875 1.46875 -2.0625 2.28125q-1.34375 0.8125 -3.109375 0.8125q-2.671875 0 -4.296875 -1.78125q-1.609375 -1.796875 -1.609375 -4.765625l0 -0.140625zm2.859375 0.234375q0 1.96875 0.796875 3.078125q0.8125 1.09375 2.25 1.09375q1.453125 0 2.25 -1.125q0.796875 -1.125 0.796875 -3.28125q0 -1.921875 -0.828125 -3.046875q-0.8125 -1.125 -2.234375 -1.125q-1.390625 0 -2.21875 1.109375q-0.8125 1.09375 -0.8125 3.296875zm14.3671875 6.21875l-2.84375 0l0 -12.6875l2.84375 0l0 12.6875zm-3.015625 -15.968754q0 -0.65625 0.40625 -1.09375q0.421875 -0.4375 1.1875 -0.4375q0.78125 0 1.203125 0.4375q0.421875 0.4375 0.421875 1.09375q0 0.640625 -0.421875 1.078125q-0.421875 0.421875 -1.203125 0.421875q-0.765625 0 -1.1875 -0.421875q-0.40625 -0.4375 -0.40625 -1.078125zm5.5820312 9.531254q0 -2.921875 1.359375 -4.703125q1.359375 -1.78125 3.65625 -1.78125q2.015625 0 3.25 1.40625l0 -6.484379l2.84375 0l0 18.000004l-2.578125 0l-0.140625 -1.3125q-1.265625 1.546875 -3.40625 1.546875q-2.21875 0 -3.609375 -1.796875q-1.375 -1.796875 -1.375 -4.875zm2.859375 0.25q0 1.9375 0.734375 3.015625q0.75 1.078125 2.125 1.078125q1.734375 0 2.546875 -1.546875l0 -5.421875q-0.78125 -1.515625 -2.53125 -1.515625q-1.375 0 -2.125 1.09375q-0.75 1.09375 -0.75 3.296875zm24.773438 6.1875q-0.1875 -0.359375 -0.328125 -1.1875q-1.359375 1.421875 -3.328125 1.421875q-1.90625 0 -3.109375 -1.09375q-1.203125 -1.09375 -1.203125 -2.6875q0 -2.03125 1.5 -3.109375q1.5 -1.09375 4.3125 -1.09375l1.734375 0l0 -0.828125q0 -0.984375 -0.546875 -1.578125q-0.546875 -0.59375 -1.671875 -0.59375q-0.96875 0 -1.59375 0.484375q-0.625 0.484375 -0.625 1.234375l-2.84375 0q0 -1.03125 0.6875 -1.9375q0.6875 -0.921875 1.875 -1.4375q1.203125 -0.515625 2.65625 -0.515625q2.234375 0 3.546875 1.125q1.328125 1.125 1.375 3.140625l0 5.71875q0 1.71875 0.46875 2.734375l0 0.203125l-2.90625 0zm-3.125 -2.046875q0.84375 0 1.578125 -0.40625q0.75 -0.421875 1.125 -1.109375l0 -2.390625l-1.53125 0q-1.578125 0 -2.375 0.546875q-0.796875 0.546875 -0.796875 1.5625q0 0.8125 0.546875 1.3125q0.546875 0.484375 1.453125 0.484375zm19.640625 -4.171875q0 2.953125 -1.34375 4.703125q-1.328125 1.75 -3.578125 1.75q-2.078125 0 -3.34375 -1.375l0 6.015625l-2.84375 0l0 -17.5625l2.625 0l0.125 1.296875q1.25 -1.53125 3.40625 -1.53125q2.3125 0 3.625 1.734375q1.328125 1.734375 1.328125 4.796875l0 0.171875zm-2.828125 -0.234375q0 -1.90625 -0.765625 -3.015625q-0.75 -1.109375 -2.15625 -1.109375q-1.75 0 -2.515625 1.4375l0 5.625q0.78125 1.46875 2.53125 1.46875q1.359375 0 2.125 -1.09375q0.78125 -1.09375 0.78125 -3.3125zm16.339844 0.234375q0 2.953125 -1.34375 4.703125q-1.328125 1.75 -3.578125 1.75q-2.078125 0 -3.34375 -1.375l0 6.015625l-2.84375 0l0 -17.5625l2.625 0l0.125 1.296875q1.25 -1.53125 3.40625 -1.53125q2.3125 0 3.625 1.734375q1.328125 1.734375 1.328125 4.796875l0 0.171875zm-2.828125 -0.234375q0 -1.90625 -0.765625 -3.015625q-0.75 -1.109375 -2.15625 -1.109375q-1.75 0 -2.515625 1.4375l0 5.625q0.78125 1.46875 2.53125 1.46875q1.359375 0 2.125 -1.09375q0.78125 -1.09375 0.78125 -3.3125z" fill-rule="nonzero"/><path fill="#94c47e" d="m567.51447 53.43851l0 0c0 -5.305519 4.3009644 -9.606491 9.606445 -9.606491l182.10986 0c2.5477905 0 4.991272 1.0121117 6.7928467 2.8136787c1.8015137 1.8015671 2.8136597 4.245014 2.8136597 6.7928123l0 38.424816c0 5.305519 -4.3009644 9.606491 -9.606506 9.606491l-182.10986 0c-5.305481 0 -9.606445 -4.300972 -9.606445 -9.606491z" fill-rule="evenodd"/><path stroke="#ffffff" stroke-width="2.0" stroke-linejoin="round" stroke-linecap="butt" d="m567.51447 53.43851l0 0c0 -5.305519 4.3009644 -9.606491 9.606445 -9.606491l182.10986 0c2.5477905 0 4.991272 1.0121117 6.7928467 2.8136787c1.8015137 1.8015671 2.8136597 4.245014 2.8136597 6.7928123l0 38.424816c0 5.305519 -4.3009644 9.606491 -9.606506 9.606491l-182.10986 0c-5.305481 0 -9.606445 -4.300972 -9.606445 -9.606491z" fill-rule="evenodd"/><path fill="#ffffff" d="m620.21686 64.12842l4.921875 13.078125l4.90625 -13.078125l3.84375 0l0 17.0625l-2.953125 0l0 -5.625l0.28125 -7.53125l-5.03125 13.15625l-2.125 0l-5.03125 -13.140625l0.296875 7.515625l0 5.625l-2.953125 0l0 -17.0625l3.84375 0zm20.136719 14.6875l7.75 0l0 2.375l-10.71875 0l0 -17.0625l2.96875 0l0 14.6875zm18.398438 -10.3125l0.078125 1.328125q1.34375 -1.5625 3.65625 -1.5625q2.546875 0 3.484375 1.953125q1.375 -1.953125 3.890625 -1.953125q2.09375 0 3.109375 1.171875q1.03125 1.15625 1.0625 3.421875l0 8.328125l-2.84375 0l0 -8.25q0 -1.203125 -0.53125 -1.765625q-0.53125 -0.5625 -1.75 -0.5625q-0.96875 0 -1.59375 0.515625q-0.609375 0.515625 -0.859375 1.359375l0.015625 8.703125l-2.84375 0l0 -8.34375q-0.0625 -2.234375 -2.28125 -2.234375q-1.71875 0 -2.4375 1.390625l0 9.1875l-2.84375 0l0 -12.6875l2.6875 0zm17.664062 6.234375q0 -1.875 0.734375 -3.359375q0.75 -1.5 2.078125 -2.296875q1.34375 -0.8125 3.078125 -0.8125q2.5625 0 4.15625 1.65625q1.609375 1.65625 1.734375 4.390625l0.015625 0.65625q0 1.875 -0.71875 3.359375q-0.71875 1.46875 -2.0625 2.28125q-1.34375 0.8125 -3.109375 0.8125q-2.671875 0 -4.296875 -1.78125q-1.609375 -1.796875 -1.609375 -4.765625l0 -0.140625zm2.859375 0.234375q0 1.96875 0.796875 3.078125q0.8125 1.09375 2.25 1.09375q1.453125 0 2.25 -1.125q0.796875 -1.125 0.796875 -3.28125q0 -1.921875 -0.828125 -3.046875q-0.8125 -1.125 -2.234375 -1.125q-1.390625 0 -2.21875 1.109375q-0.8125 1.09375 -0.8125 3.296875zm10.8046875 -0.21875q0 -2.921875 1.359375 -4.703125q1.359375 -1.78125 3.65625 -1.78125q2.015625 0 3.25 1.40625l0 -6.484375l2.84375 0l0 18.0l-2.578125 0l-0.140625 -1.3125q-1.265625 1.546875 -3.40625 1.546875q-2.21875 0 -3.609375 -1.796875q-1.375 -1.796875 -1.375 -4.875zm2.859375 0.25q0 1.9375 0.734375 3.015625q0.75 1.078125 2.125 1.078125q1.734375 0 2.546875 -1.546875l0 -5.421875q-0.78125 -1.515625 -2.53125 -1.515625q-1.375 0 -2.125 1.09375q-0.75 1.09375 -0.75 3.296875zm16.8125 6.421875q-2.703125 0 -4.390625 -1.703125q-1.6875 -1.703125 -1.6875 -4.546875l0 -0.34375q0 -1.90625 0.734375 -3.390625q0.734375 -1.5 2.0625 -2.328125q1.328125 -0.84375 2.953125 -0.84375q2.59375 0 4.0 1.65625q1.40625 1.65625 1.40625 4.671875l0 1.15625l-8.28125 0q0.125 1.5625 1.046875 2.484375q0.921875 0.90625 2.3125 0.90625q1.96875 0 3.1875 -1.578125l1.546875 1.46875q-0.765625 1.140625 -2.046875 1.765625q-1.265625 0.625 -2.84375 0.625zm-0.34375 -10.859375q-1.171875 0 -1.890625 0.828125q-0.71875 0.8125 -0.921875 2.265625l5.421875 0l0 -0.203125q-0.09375 -1.4375 -0.765625 -2.15625q-0.65625 -0.734375 -1.84375 -0.734375zm10.660156 10.625l-2.84375 0l0 -18.0l2.84375 0l0 18.0z" fill-rule="nonzero"/><path fill="#d9ead3" d="m239.58005 177.7618l0 0c0 -10.757584 8.720749 -19.478333 19.478333 -19.478333l603.1221 0c5.1659546 0 10.120361 2.0521698 13.773254 5.705078c3.652893 3.652893 5.705078 8.607285 5.705078 13.773254l0 285.73627c0 10.757599 -8.720764 19.478333 -19.478333 19.478333l-603.1221 0c-10.757584 0 -19.478333 -8.720734 -19.478333 -19.478333z" fill-rule="evenodd"/><path stroke="#ffffff" stroke-width="1.0" stroke-linejoin="round" stroke-linecap="butt" d="m239.58005 177.7618l0 0c0 -10.757584 8.720749 -19.478333 19.478333 -19.478333l603.1221 0c5.1659546 0 10.120361 2.0521698 13.773254 5.705078c3.652893 3.652893 5.705078 8.607285 5.705078 13.773254l0 285.73627c0 10.757599 -8.720764 19.478333 -19.478333 19.478333l-603.1221 0c-10.757584 0 -19.478333 -8.720734 -19.478333 -19.478333z" fill-rule="evenodd"/><path fill="#000000" fill-opacity="0.0" d="m875.5696 173.70866l0 293.85828l-89.82678 0l0 -293.85828z" fill-rule="evenodd"/><path fill="#38761d" d="m845.7483 223.4835q-1.203125 -0.921875 -1.828125 -2.5625q-0.625 -1.640625 -0.625 -3.734375q0 -2.140625 0.96875 -3.796875q0.984375 -1.640625 2.78125 -2.546875q1.8125 -0.890625 4.234375 -0.921875l1.328125 0q3.875 0 6.046875 1.84375q2.171875 1.859375 2.171875 5.171875q0 2.84375 -1.40625 4.515625q-1.40625 1.6875 -4.046875 2.015625l0 -2.90625q3.078125 -0.484375 3.078125 -3.5625q0 -2.0 -1.4375 -3.046875q-1.4375 -1.03125 -4.21875 -1.0625l-1.3125 0q-2.765625 0 -4.296875 1.15625q-1.515625 1.171875 -1.515625 3.25q0 2.28125 1.03125 3.234375l3.328125 0l0 -3.515625l2.25 0l0 6.46875l-6.53125 0zm4.234375 2.4453125q1.875 0 3.359375 0.734375q1.5 0.75 2.296875 2.078125q0.8125 1.34375 0.8125 3.078125q0 2.5625 -1.65625 4.15625q-1.65625 1.609375 -4.390625 1.734375l-0.65625 0.015625q-1.875 0 -3.359375 -0.71875q-1.46875 -0.71875 -2.28125 -2.0625q-0.8125 -1.34375 -0.8125 -3.109375q0 -2.671875 1.78125 -4.296875q1.796875 -1.609375 4.765625 -1.609375l0.140625 0zm-0.234375 2.859375q-1.96875 0 -3.078125 0.796875q-1.09375 0.8125 -1.09375 2.25q0 1.453125 1.125 2.25q1.125 0.796875 3.28125 0.796875q1.921875 0 3.046875 -0.828125q1.125 -0.8125 1.125 -2.234375q0 -1.390625 -1.109375 -2.21875q-1.09375 -0.8125 -3.296875 -0.8125zm0.234375 10.8046875q1.875 0 3.359375 0.734375q1.5 0.75 2.296875 2.078125q0.8125 1.34375 0.8125 3.078125q0 2.5625 -1.65625 4.15625q-1.65625 1.609375 -4.390625 1.734375l-0.65625 0.015625q-1.875 0 -3.359375 -0.71875q-1.46875 -0.71875 -2.28125 -2.0625q-0.8125 -1.34375 -0.8125 -3.109375q0 -2.671875 1.78125 -4.296875q1.796875 -1.609375 4.765625 -1.609375l0.140625 0zm-0.234375 2.859375q-1.96875 0 -3.078125 0.796875q-1.09375 0.8125 -1.09375 2.25q0 1.453125 1.125 2.25q1.125 0.796875 3.28125 0.796875q1.921875 0 3.046875 -0.828125q1.125 -0.8125 1.125 -2.234375q0 -1.390625 -1.109375 -2.21875q-1.09375 -0.8125 -3.296875 -0.8125zm0.21875 10.8515625q2.953125 0 4.71875 1.375q1.765625 1.3906097 1.765625 3.6874847q0 2.171875 -1.515625 3.421875l1.28125 0.125l0 2.5625l-12.296875 0q-2.5 0 -3.9375 -1.5625q-1.453125 -1.546875 -1.453125 -4.171875q0 -1.40625 0.59375 -2.734375q0.578125 -1.3281097 1.515625 -2.0156097l1.703125 1.34375q-1.5625 1.3124847 -1.5625 3.2343597q0 1.421875 0.78125 2.234375q0.765625 0.828125 2.25 0.828125l0.859375 0q-1.375 -1.234375 -1.375 -3.28125q0 -2.234375 1.765625 -3.6406097q1.78125 -1.40625 4.90625 -1.40625zm-0.25 2.8281097q-1.90625 0 -3.0 0.78125q-1.09375 0.78125 -1.09375 2.15625q0 1.734375 1.46875 2.5625l5.578125 0q1.4375 -0.8125 1.4375 -2.53125q0 -1.40625 -1.109375 -2.1875q-1.109375 -0.78125 -3.28125 -0.78125zm-6.1875 14.292969l0 -2.84375l18.0 0l0 2.84375l-18.0 0zm-0.234375 8.691406q0 -2.703125 1.703125 -4.390625q1.703125 -1.6875 4.546875 -1.6875l0.34375 0q1.90625 0 3.390625 0.734375q1.5 0.734375 2.328125 2.0625q0.84375 1.328125 0.84375 2.953125q0 2.59375 -1.65625 4.0q-1.65625 1.40625 -4.671875 1.40625l-1.15625 0l0 -8.28125q-1.5625 0.125 -2.484375 1.046875q-0.90625 0.921875 -0.90625 2.3125q0 1.96875 1.578125 3.1875l-1.46875 1.546875q-1.140625 -0.765625 -1.765625 -2.046875q-0.625 -1.265625 -0.625 -2.84375zm10.859375 -0.34375q0 -1.171875 -0.828125 -1.890625q-0.8125 -0.71875 -2.265625 -0.921875l0 5.421875l0.203125 0q1.4375 -0.09375 2.15625 -0.765625q0.734375 -0.65625 0.734375 -1.84375zm-4.28125 16.855469l-6.34375 0l0 -2.96875l17.0625 0l0 6.53125q0 2.859375 -1.484375 4.53125q-1.484375 1.6875 -3.9375 1.6875q-2.515625 0 -3.90625 -1.65625q-1.390625 -1.640625 -1.390625 -4.59375l0 -3.53125zm2.375 0l0 3.5625q0 1.578125 0.734375 2.40625q0.75 0.84375 2.15625 0.84375q1.390625 0 2.21875 -0.84375q0.828125 -0.84375 0.84375 -2.328125l0 -3.640625l-5.953125 0zm-8.71875 15.121094l0 -2.84375l18.0 0l0 2.84375l-18.0 0zm0 10.675781q0.359375 -0.1875 1.1875 -0.328125q-1.421875 -1.359375 -1.421875 -3.328125q0 -1.90625 1.09375 -3.109375q1.09375 -1.203125 2.6875 -1.203125q2.03125 0 3.109375 1.5q1.09375 1.5 1.09375 4.3125l0 1.734375l0.828125 0q0.984375 0 1.578125 -0.546875q0.59375 -0.546875 0.59375 -1.671875q0 -0.96875 -0.484375 -1.59375q-0.484375 -0.625 -1.234375 -0.625l0 -2.84375q1.03125 0 1.9375 0.6875q0.921875 0.6875 1.4375 1.875q0.515625 1.203125 0.515625 2.65625q0 2.234375 -1.125 3.546875q-1.125 1.328125 -3.140625 1.375l-5.71875 0q-1.71875 0 -2.734375 0.46875l-0.203125 0l0 -2.90625zm2.046875 -3.125q0 0.84375 0.40625 1.578125q0.421875 0.75 1.109375 1.125l2.390625 0l0 -1.53125q0 -1.578125 -0.546875 -2.375q-0.546875 -0.796875 -1.5625 -0.796875q-0.8125 0 -1.3125 0.546875q-0.484375 0.546875 -0.484375 1.453125zm2.03125 12.792969l8.609375 2.578125l0 3.046875l-14.609375 -5.046875q-3.203125 -1.15625 -3.203125 -3.9375q0 -0.625 0.21875 -1.375l2.203125 0l-0.046875 0.546875q0 1.078125 0.40625 1.625q0.390625 0.546875 1.3125 0.859375l1.09375 0.40625l12.625 -4.453125l0 3.078125l-8.609375 2.671875zm-0.625 20.332031q0.75 0 1.140625 -0.625q0.40625 -0.625 0.703125 -2.078125q0.3125 -1.453125 0.78125 -2.421875q1.03125 -2.140625 3.0 -2.140625q1.640625 0 2.734375 1.375q1.109375 1.390625 1.109375 3.53125q0 2.265625 -1.125 3.671875q-1.125 1.40625 -2.921875 1.40625l0 -2.859375q0.8125 0 1.359375 -0.609375q0.546875 -0.609375 0.546875 -1.609375q0 -0.9375 -0.4375 -1.53125q-0.421875 -0.59375 -1.15625 -0.59375q-0.65625 0 -1.015625 0.546875q-0.359375 0.5625 -0.734375 2.234375q-0.375 1.671875 -0.890625 2.625q-0.5 0.953125 -1.21875 1.421875q-0.703125 0.46875 -1.734375 0.46875q-1.703125 0 -2.765625 -1.421875q-1.0625 -1.421875 -1.0625 -3.71875q0 -1.5625 0.5625 -2.78125q0.5625 -1.21875 1.546875 -1.90625q0.984375 -0.671875 2.125 -0.671875l0 2.765625q-1.015625 0.0625 -1.5625 0.765625q-0.53125 0.703125 -0.53125 1.859375q0 1.125 0.421875 1.703125q0.421875 0.59375 1.125 0.59375zm-3.6875 10.871094q0 -2.703125 1.703125 -4.390625q1.703125 -1.6875 4.546875 -1.6875l0.34375 0q1.90625 0 3.390625 0.734375q1.5 0.734375 2.328125 2.0625q0.84375 1.328125 0.84375 2.953125q0 2.59375 -1.65625 4.0q-1.65625 1.40625 -4.671875 1.40625l-1.15625 0l0 -8.28125q-1.5625 0.125 -2.484375 1.046875q-0.90625 0.921875 -0.90625 2.3125q0 1.96875 1.578125 3.1875l-1.46875 1.546875q-1.140625 -0.765625 -1.765625 -2.046875q-0.625 -1.265625 -0.625 -2.84375zm10.859375 -0.34375q0 -1.171875 -0.828125 -1.890625q-0.8125 -0.71875 -2.265625 -0.921875l0 5.421875l0.203125 0q1.4375 -0.09375 2.15625 -0.765625q0.734375 -0.65625 0.734375 -1.84375zm-0.546875 14.269531q0.09375 -0.5625 0.09375 -1.15625q0 -1.953125 -1.5 -2.640625l-8.671875 0l0 -2.84375l12.6875 0l0 2.71875l-1.421875 0.078125q1.65625 1.03125 1.65625 2.859375q0 0.609375 -0.171875 1.0l-2.671875 -0.015625zm-6.46875 6.4921875l9.078125 2.671875l0 2.953125l-12.6875 -4.40625l0 -2.46875l12.6875 -4.421875l0 2.953125l-9.078125 2.71875zm-3.609375 10.417969l0 -2.84375l12.6875 0l0 2.84375l-12.6875 0zm15.96875 -3.015625q0.65625 0 1.09375 0.40625q0.4375 0.421875 0.4375 1.1875q0 0.78125 -0.4375 1.203125q-0.4375 0.421875 -1.09375 0.421875q-0.640625 0 -1.078125 -0.421875q-0.421875 -0.421875 -0.421875 -1.203125q0 -0.765625 0.421875 -1.1875q0.4375 -0.40625 1.078125 -0.40625zm-13.921875 11.332031q0 1.0625 0.609375 1.765625q0.625 0.703125 1.546875 0.75l0 2.6875q-1.1875 -0.046875 -2.21875 -0.75q-1.015625 -0.6875 -1.625 -1.875q-0.59375 -1.171875 -0.59375 -2.546875q0 -2.65625 1.71875 -4.21875q1.734375 -1.5625 4.765625 -1.5625l0.296875 0q2.890625 0 4.625 1.546875q1.75 1.546875 1.75 4.21875q0 2.265625 -1.328125 3.6875q-1.3125 1.421875 -3.453125 1.5l0 -2.6875q1.078125 -0.046875 1.78125 -0.75q0.703125 -0.6875 0.703125 -1.765625q0 -1.390625 -1.0 -2.140625q-1.0 -0.75 -3.03125 -0.75l-0.46875 0q-2.0625 0 -3.078125 0.734375q-1.0 0.75 -1.0 2.15625zm-2.28125 12.9375q0 -2.703125 1.703125 -4.390625q1.703125 -1.6875 4.546875 -1.6875l0.34375 0q1.90625 0 3.390625 0.734375q1.5 0.734375 2.328125 2.0625q0.84375 1.328125 0.84375 2.953125q0 2.59375 -1.65625 4.0q-1.65625 1.40625 -4.671875 1.40625l-1.15625 0l0 -8.28125q-1.5625 0.125 -2.484375 1.046875q-0.90625 0.921875 -0.90625 2.3125q0 1.96875 1.578125 3.1875l-1.46875 1.546875q-1.140625 -0.765625 -1.765625 -2.046875q-0.625 -1.265625 -0.625 -2.84375zm10.859375 -0.34375q0 -1.171875 -0.828125 -1.890625q-0.8125 -0.71875 -2.265625 -0.921875l0 5.421875l0.203125 0q1.4375 -0.09375 2.15625 -0.765625q0.734375 -0.65625 0.734375 -1.84375zm-7.171875 14.738281q0.75 0 1.140625 -0.625q0.40625 -0.625 0.703125 -2.078125q0.3125 -1.453125 0.78125 -2.421875q1.03125 -2.140625 3.0 -2.140625q1.640625 0 2.734375 1.375q1.109375 1.390625 1.109375 3.53125q0 2.265625 -1.125 3.671875q-1.125 1.40625 -2.921875 1.40625l0 -2.859375q0.8125 0 1.359375 -0.609375q0.546875 -0.609375 0.546875 -1.609375q0 -0.9375 -0.4375 -1.53125q-0.421875 -0.59375 -1.15625 -0.59375q-0.65625 0 -1.015625 0.546875q-0.359375 0.5625 -0.734375 2.234375q-0.375 1.671875 -0.890625 2.625q-0.5 0.953125 -1.21875 1.421875q-0.703125 0.46875 -1.734375 0.46875q-1.703125 0 -2.765625 -1.421875q-1.0625 -1.421875 -1.0625 -3.71875q0 -1.5625 0.5625 -2.78125q0.5625 -1.21875 1.546875 -1.90625q0.984375 -0.671875 2.125 -0.671875l0 2.765625q-1.015625 0.0625 -1.5625 0.765625q-0.53125 0.703125 -0.53125 1.859375q0 1.125 0.421875 1.703125q0.421875 0.59375 1.125 0.59375z" fill-rule="nonzero"/><path fill="#6ba84f" d="m256.62204 184.84026l0 0c0 -9.863052 7.995575 -17.858627 17.858643 -17.858627l476.5032 0c4.736389 0 9.278809 1.8815308 12.627991 5.230667c3.349121 3.3491364 5.230652 7.891556 5.230652 12.62796l0 71.43236c0 9.863037 -7.9956055 17.858612 -17.858643 17.858612l-476.5032 0c-9.863068 0 -17.858643 -7.995575 -17.858643 -17.858612z" fill-rule="evenodd"/><path stroke="#ffffff" stroke-width="1.0" stroke-linejoin="round" stroke-linecap="butt" d="m256.62204 184.84026l0 0c0 -9.863052 7.995575 -17.858627 17.858643 -17.858627l476.5032 0c4.736389 0 9.278809 1.8815308 12.627991 5.230667c3.349121 3.3491364 5.230652 7.891556 5.230652 12.62796l0 71.43236c0 9.863037 -7.9956055 17.858612 -17.858643 17.858612l-476.5032 0c-9.863068 0 -17.858643 -7.995575 -17.858643 -17.858612z" fill-rule="evenodd"/><path fill="#ffffff" d="m482.97055 226.72142l7.75 0l0 2.375l-10.71875 0l0 -17.0625l2.96875 0l0 14.6875zm12.765625 2.375l-2.84375 0l0 -12.6875l2.84375 0l0 12.6875zm-3.015625 -15.96875q0 -0.65625 0.40625 -1.09375q0.421875 -0.4375 1.1875 -0.4375q0.78125 0 1.203125 0.4375q0.421875 0.4375 0.421875 1.09375q0 0.640625 -0.421875 1.078125q-0.421875 0.421875 -1.203125 0.421875q-0.765625 0 -1.1875 -0.421875q-0.40625 -0.4375 -0.40625 -1.078125zm9.691406 0.203125l0 3.078125l2.234375 0l0 2.109375l-2.234375 0l0 7.078125q0 0.734375 0.28125 1.0625q0.296875 0.3125 1.03125 0.3125q0.484375 0 1.0 -0.109375l0 2.203125q-0.984375 0.265625 -1.875 0.265625q-3.28125 0 -3.28125 -3.625l0 -7.1875l-2.09375 0l0 -2.109375l2.09375 0l0 -3.078125l2.84375 0zm9.996124 16.0q-2.7031555 0 -4.3906555 -1.703125q-1.6875 -1.703125 -1.6875 -4.546875l0 -0.34375q0 -1.90625 0.734375 -3.390625q0.734375 -1.5 2.0625 -2.328125q1.328125 -0.84375 2.9531555 -0.84375q2.59375 0 4.0 1.65625q1.40625 1.65625 1.40625 4.671875l0 1.15625l-8.2812805 0q0.125 1.5625 1.046875 2.484375q0.921875 0.90625 2.3125305 0.90625q1.96875 0 3.1875 -1.578125l1.546875 1.46875q-0.765625 1.140625 -2.046875 1.765625q-1.265625 0.625 -2.84375 0.625zm-0.34375 -10.859375q-1.1719055 0 -1.8906555 0.828125q-0.71875 0.8125 -0.921875 2.265625l5.4219055 0l0 -0.203125q-0.09375 -1.4375 -0.765625 -2.15625q-0.65625 -0.734375 -1.84375 -0.734375zm14.175781 4.046875l-3.296875 0l0 6.578125l-2.96875 0l0 -17.0625l6.0 0q2.953125 0 4.5625 1.328125q1.609375 1.3125 1.609375 3.828125q0 1.703125 -0.828125 2.859375q-0.828125 1.15625 -2.3125 1.78125l3.84375 7.109375l0 0.15625l-3.1875 0l-3.421875 -6.578125zm-3.296875 -2.375l3.046875 0q1.5 0 2.34375 -0.75q0.84375 -0.765625 0.84375 -2.078125q0 -1.375 -0.78125 -2.125q-0.78125 -0.75 -2.328125 -0.765625l-3.125 0l0 5.71875zm23.75 -5.71875l-5.3125 0l0 14.671875l-2.953125 0l0 -14.671875l-5.265625 0l0 -2.390625l13.53125 0l0 2.390625z" fill-rule="nonzero"/><path fill="#6ba84f" d="m256.62204 335.5883l0 0c0 -9.863037 7.995575 -17.858643 17.858643 -17.858643l476.5032 0c4.736389 0 9.278809 1.8815308 12.627991 5.2306824c3.349121 3.3491516 5.230652 7.8915405 5.230652 12.62796l0 71.43234c0 9.863068 -7.9956055 17.858643 -17.858643 17.858643l-476.5032 0c-9.863068 0 -17.858643 -7.995575 -17.858643 -17.858643z" fill-rule="evenodd"/><path stroke="#ffffff" stroke-width="1.0" stroke-linejoin="round" stroke-linecap="butt" d="m256.62204 335.5883l0 0c0 -9.863037 7.995575 -17.858643 17.858643 -17.858643l476.5032 0c4.736389 0 9.278809 1.8815308 12.627991 5.2306824c3.349121 3.3491516 5.230652 7.8915405 5.230652 12.62796l0 71.43234c0 9.863068 -7.9956055 17.858643 -17.858643 17.858643l-476.5032 0c-9.863068 0 -17.858643 -7.995575 -17.858643 -17.858643z" fill-rule="evenodd"/><path fill="#ffffff" d="m426.63266 377.46945l7.75 0l0 2.375l-10.71875 0l0 -17.0625l2.96875 0l0 14.6875zm12.765625 2.375l-2.84375 0l0 -12.6875l2.84375 0l0 12.6875zm-3.015625 -15.96875q0 -0.65625 0.40625 -1.09375q0.421875 -0.4375 1.1875 -0.4375q0.78125 0 1.203125 0.4375q0.421875 0.4375 0.421875 1.09375q0 0.640625 -0.421875 1.078125q-0.421875 0.421875 -1.203125 0.421875q-0.765625 0 -1.1875 -0.421875q-0.40625 -0.4375 -0.40625 -1.078125zm9.691406 0.203125l0 3.078125l2.234375 0l0 2.109375l-2.234375 0l0 7.078125q0 0.734375 0.28125 1.0625q0.296875 0.3125 1.03125 0.3125q0.484375 0 1.0 -0.109375l0 2.203125q-0.984375 0.265625 -1.875 0.265625q-3.28125 0 -3.28125 -3.625l0 -7.1875l-2.09375 0l0 -2.109375l2.09375 0l0 -3.078125l2.84375 0zm9.996094 16.0q-2.703125 0 -4.390625 -1.703125q-1.6875 -1.703125 -1.6875 -4.546875l0 -0.34375q0 -1.90625 0.734375 -3.390625q0.734375 -1.5 2.0625 -2.328125q1.328125 -0.84375 2.953125 -0.84375q2.59375 0 4.0 1.65625q1.40625 1.65625 1.40625 4.671875l0 1.15625l-8.28125 0q0.125 1.5625 1.046875 2.484375q0.921875 0.90625 2.3125 0.90625q1.96875 0 3.1875 -1.578125l1.546875 1.46875q-0.765625 1.140625 -2.046875 1.765625q-1.265625 0.625 -2.84375 0.625zm-0.34375 -10.859375q-1.171875 0 -1.890625 0.828125q-0.71875 0.8125 -0.921875 2.265625l5.421875 0l0 -0.203125q-0.09375 -1.4375 -0.765625 -2.15625q-0.65625 -0.734375 -1.84375 -0.734375zm14.175781 4.046875l-3.296875 0l0 6.578125l-2.96875 0l0 -17.0625l6.0 0q2.953125 0 4.5625 1.328125q1.609375 1.3125 1.609375 3.828125q0 1.703125 -0.828125 2.859375q-0.828125 1.15625 -2.3125 1.78125l3.84375 7.109375l0 0.15625l-3.1875 0l-3.421875 -6.578125zm-3.296875 -2.375l3.046875 0q1.5 0 2.34375 -0.75q0.84375 -0.765625 0.84375 -2.078125q0 -1.375 -0.78125 -2.125q-0.78125 -0.75 -2.328125 -0.765625l-3.125 0l0 5.71875zm23.75 -5.71875l-5.3125 0l0 14.671875l-2.953125 0l0 -14.671875l-5.265625 0l0 -2.390625l13.53125 0l0 2.390625zm7.5117188 14.671875l0 -17.0625l5.046875 0q2.25 0 4.0 1.015625q1.765625 1.0 2.71875 2.859375q0.96875 1.84375 0.96875 4.234375l0 0.859375q0 2.421875 -0.96875 4.265625q-0.96875 1.828125 -2.765625 2.828125q-1.78125 1.0 -4.09375 1.0l-4.90625 0zm2.96875 -14.671875l0 12.296875l1.9375 0q2.328125 0 3.578125 -1.453125q1.25 -1.453125 1.265625 -4.1875l0 -0.953125q0 -2.78125 -1.203125 -4.234375q-1.203125 -1.46875 -3.5 -1.46875l-2.078125 0zm18.023468 14.90625q-2.703125 0 -4.390625 -1.703125q-1.6875 -1.703125 -1.6875 -4.546875l0 -0.34375q0 -1.90625 0.734375 -3.390625q0.734375 -1.5 2.0625 -2.328125q1.328125 -0.84375 2.953125 -0.84375q2.59375 0 4.0 1.65625q1.40625 1.65625 1.40625 4.671875l0 1.15625l-8.28125 0q0.125 1.5625 1.046875 2.484375q0.921875 0.90625 2.3125 0.90625q1.96875 0 3.1875 -1.578125l1.546875 1.46875q-0.765625 1.140625 -2.046875 1.765625q-1.265625 0.625 -2.84375 0.625zm-0.34375 -10.859375q-1.171875 0 -1.890625 0.828125q-0.71875 0.8125 -0.921875 2.265625l5.421875 0l0 -0.203125q-0.09375 -1.4375 -0.765625 -2.15625q-0.65625 -0.734375 -1.84375 -0.734375zm10.660156 10.625l-2.84375 0l0 -18.0l2.84375 0l0 18.0zm8.691406 0.234375q-2.703125 0 -4.390625 -1.703125q-1.6875 -1.703125 -1.6875 -4.546875l0 -0.34375q0 -1.90625 0.734375 -3.390625q0.734375 -1.5 2.0625 -2.328125q1.328125 -0.84375 2.953125 -0.84375q2.59375 0 4.0 1.65625q1.40625 1.65625 1.40625 4.671875l0 1.15625l-8.28125 0q0.125 1.5625 1.046875 2.484375q0.921875 0.90625 2.3125 0.90625q1.96875 0 3.1875 -1.578125l1.546875 1.46875q-0.765625 1.140625 -2.046875 1.765625q-1.265625 0.625 -2.84375 0.625zm-0.34375 -10.859375q-1.171875 0 -1.890625 0.828125q-0.71875 0.8125 -0.921875 2.265625l5.421875 0l0 -0.203125q-0.09375 -1.4375 -0.765625 -2.15625q-0.65625 -0.734375 -1.84375 -0.734375zm7.1445312 4.1875q0 -2.953125 1.375 -4.71875q1.390625 -1.765625 3.6875 -1.765625q2.171875 0 3.421875 1.515625l0.125 -1.28125l2.5625 0l0 12.296875q0 2.5 -1.5625 3.9375q-1.546875 1.453125 -4.171875 1.453125q-1.40625 0 -2.734375 -0.59375q-1.328125 -0.578125 -2.015625 -1.515625l1.34375 -1.703125q1.3125 1.5625 3.234375 1.5625q1.421875 0 2.234375 -0.78125q0.828125 -0.765625 0.828125 -2.25l0 -0.859375q-1.234375 1.375 -3.28125 1.375q-2.234375 0 -3.640625 -1.765625q-1.40625 -1.78125 -1.40625 -4.90625zm2.828125 0.25q0 1.90625 0.78125 3.0q0.78125 1.09375 2.15625 1.09375q1.734375 0 2.5625 -1.46875l0 -5.578125q-0.8125 -1.4375 -2.53125 -1.4375q-1.40625 0 -2.1875 1.109375q-0.78125 1.109375 -0.78125 3.28125zm18.839844 6.1875q-0.1875 -0.359375 -0.328125 -1.1875q-1.359375 1.421875 -3.328125 1.421875q-1.90625 0 -3.109375 -1.09375q-1.203125 -1.09375 -1.203125 -2.6875q0 -2.03125 1.5 -3.109375q1.5 -1.09375 4.3125 -1.09375l1.734375 0l0 -0.828125q0 -0.984375 -0.546875 -1.578125q-0.546875 -0.59375 -1.671875 -0.59375q-0.96875 0 -1.59375 0.484375q-0.625 0.484375 -0.625 1.234375l-2.84375 0q0 -1.03125 0.6875 -1.9375q0.6875 -0.921875 1.875 -1.4375q1.203125 -0.515625 2.65625 -0.515625q2.234375 0 3.546875 1.125q1.328125 1.125 1.375 3.140625l0 5.71875q0 1.71875 0.46875 2.734375l0 0.203125l-2.90625 0zm-3.125 -2.046875q0.84375 0 1.578125 -0.40625q0.75 -0.421875 1.125 -1.109375l0 -2.390625l-1.53125 0q-1.578125 0 -2.375 0.546875q-0.796875 0.546875 -0.796875 1.5625q0 0.8125 0.546875 1.3125q0.546875 0.484375 1.453125 0.484375zm12.109375 -13.71875l0 3.078125l2.234375 0l0 2.109375l-2.234375 0l0 7.078125q0 0.734375 0.28125 1.0625q0.296875 0.3125 1.03125 0.3125q0.484375 0 1.0 -0.109375l0 2.203125q-0.984375 0.265625 -1.875 0.265625q-3.28125 0 -3.28125 -3.625l0 -7.1875l-2.09375 0l0 -2.109375l2.09375 0l0 -3.078125l2.84375 0zm9.996094 16.0q-2.703125 0 -4.390625 -1.703125q-1.6875 -1.703125 -1.6875 -4.546875l0 -0.34375q0 -1.90625 0.734375 -3.390625q0.734375 -1.5 2.0625 -2.328125q1.328125 -0.84375 2.953125 -0.84375q2.59375 0 4.0 1.65625q1.40625 1.65625 1.40625 4.671875l0 1.15625l-8.28125 0q0.125 1.5625 1.046875 2.484375q0.921875 0.90625 2.3125 0.90625q1.96875 0 3.1875 -1.578125l1.546875 1.46875q-0.765625 1.140625 -2.046875 1.765625q-1.265625 0.625 -2.84375 0.625zm-0.34375 -10.859375q-1.171875 0 -1.890625 0.828125q-0.71875 0.8125 -0.921875 2.265625l5.421875 0l0 -0.203125q-0.09375 -1.4375 -0.765625 -2.15625q-0.65625 -0.734375 -1.84375 -0.734375zm14.738281 7.171875q0 -0.75 -0.625 -1.140625q-0.625 -0.40625 -2.078125 -0.703125q-1.453125 -0.3125 -2.421875 -0.78125q-2.140625 -1.03125 -2.140625 -3.0q0 -1.640625 1.375 -2.734375q1.390625 -1.109375 3.53125 -1.109375q2.265625 0 3.671875 1.125q1.40625 1.125 1.40625 2.921875l-2.859375 0q0 -0.8125 -0.609375 -1.359375q-0.609375 -0.546875 -1.609375 -0.546875q-0.9375 0 -1.53125 0.4375q-0.59375 0.421875 -0.59375 1.15625q0 0.65625 0.546875 1.015625q0.5625 0.359375 2.234375 0.734375q1.671875 0.375 2.625 0.890625q0.953125 0.5 1.421875 1.21875q0.46875 0.703125 0.46875 1.734375q0 1.703125 -1.421875 2.765625q-1.421875 1.0625 -3.71875 1.0625q-1.5625 0 -2.78125 -0.5625q-1.21875 -0.5625 -1.90625 -1.546875q-0.671875 -0.984375 -0.671875 -2.125l2.765625 0q0.0625 1.015625 0.765625 1.5625q0.703125 0.53125 1.859375 0.53125q1.125 0 1.703125 -0.421875q0.59375 -0.421875 0.59375 -1.125z" fill-rule="nonzero"/><path fill="#94c47e" d="m345.09973 416.55142l0 0c0 -6.3521423 5.149414 -11.501556 11.501556 -11.501556l117.43787 0c3.0503845 0 5.9758606 1.2117615 8.1328125 3.3687134c2.156952 2.1569824 3.3687134 5.082428 3.3687134 8.132843l0 46.00479c0 6.352112 -5.149414 11.501526 -11.501526 11.501526l-117.43787 0c-6.3521423 0 -11.501556 -5.149414 -11.501556 -11.501526z" fill-rule="evenodd"/><path stroke="#ffffff" stroke-width="2.0" stroke-linejoin="round" stroke-linecap="butt" d="m345.09973 416.55142l0 0c0 -6.3521423 5.149414 -11.501556 11.501556 -11.501556l117.43787 0c3.0503845 0 5.9758606 1.2117615 8.1328125 3.3687134c2.156952 2.1569824 3.3687134 5.082428 3.3687134 8.132843l0 46.00479c0 6.352112 -5.149414 11.501526 -11.501526 11.501526l-117.43787 0c-6.3521423 0 -11.501556 -5.149414 -11.501556 -11.501526z" fill-rule="evenodd"/><path fill="#ffffff" d="m408.44376 433.75507q-0.71875 0.9375 -2.0 1.421875q-1.265625 0.484375 -2.890625 0.484375q-1.671875 0 -2.953125 -0.75q-1.28125 -0.765625 -1.984375 -2.171875q-0.6875 -1.40625 -0.71875 -3.28125l0 -1.046875q0 -3.0 1.4375 -4.6875q1.4375 -1.703125 4.015625 -1.703125q2.21875 0 3.515625 1.09375q1.296875 1.09375 1.5625 3.15625l-2.25 0q-0.390625 -2.390625 -2.78125 -2.390625q-1.546875 0 -2.359375 1.125q-0.796875 1.109375 -0.828125 3.265625l0 1.015625q0 2.15625 0.90625 3.34375q0.90625 1.1875 2.515625 1.1875q1.765625 0 2.515625 -0.796875l0 -2.609375l-2.734375 0l0 -1.75l5.03125 0l0 5.09375zm4.839264 -3.203125l0 4.921875l-2.3125 0l0 -13.265625l5.078125 0q2.21875 0 3.53125 1.15625q1.3125 1.15625 1.3125 3.0625q0 1.953125 -1.28125 3.046875q-1.28125 1.078125 -3.59375 1.078125l-2.734375 0zm0 -1.859375l2.765625 0q1.234375 0 1.875 -0.578125q0.65625 -0.578125 0.65625 -1.671875q0 -1.078125 -0.65625 -1.71875q-0.65625 -0.640625 -1.8125 -0.65625l-2.828125 0l0 4.625zm19.314972 -6.484375l0 8.859375q0 2.125 -1.359375 3.359375q-1.34375 1.234375 -3.59375 1.234375q-2.28125 0 -3.625 -1.21875q-1.328125 -1.21875 -1.328125 -3.375l0 -8.859375l2.296875 0l0 8.875q0 1.328125 0.671875 2.03125q0.671875 0.703125 1.984375 0.703125q2.65625 0 2.65625 -2.8125l0 -8.796875l2.296875 0z" fill-rule="nonzero"/><path fill="#ffffff" d="m379.73407 457.47382l0 -13.265625l3.921875 0q1.75 0 3.109375 0.78125q1.375 0.78125 2.109375 2.234375q0.75 1.4375 0.75 3.296875l0 0.65625q0 1.890625 -0.75 3.328125q-0.75 1.421875 -2.140625 2.203125q-1.390625 0.765625 -3.171875 0.765625l-3.828125 0zm2.3125 -11.40625l0 9.5625l1.5 0q1.8125 0 2.78125 -1.125q0.96875 -1.140625 0.984375 -3.265625l0 -0.734375q0 -2.15625 -0.9375 -3.296875q-0.9375 -1.140625 -2.71875 -1.140625l-1.609375 0zm14.001007 11.59375q-2.09375 0 -3.40625 -1.328125q-1.3125 -1.328125 -1.3125 -3.53125l0 -0.28125q0 -1.46875 0.5625 -2.625q0.578125 -1.171875 1.609375 -1.8125q1.03125 -0.640625 2.296875 -0.640625q2.015625 0 3.109375 1.28125q1.09375 1.28125 1.09375 3.625l0 0.890625l-6.4375 0q0.109375 1.234375 0.8125 1.953125q0.71875 0.703125 1.8125 0.703125q1.515625 0 2.46875 -1.234375l1.203125 1.140625q-0.59375 0.875 -1.59375 1.375q-0.984375 0.484375 -2.21875 0.484375zm-0.265625 -8.453125q-0.90625 0 -1.46875 0.640625q-0.5625 0.640625 -0.703125 1.78125l4.203125 0l0 -0.171875q-0.0625 -1.109375 -0.59375 -1.671875q-0.515625 -0.578125 -1.4375 -0.578125zm8.292572 8.265625l-2.203125 0l0 -14.0l2.203125 0l0 14.0zm6.748657 0.1875q-2.09375 0 -3.40625 -1.328125q-1.3125 -1.328125 -1.3125 -3.53125l0 -0.28125q0 -1.46875 0.5625 -2.625q0.578125 -1.171875 1.609375 -1.8125q1.03125 -0.640625 2.296875 -0.640625q2.015625 0 3.109375 1.28125q1.09375 1.28125 1.09375 3.625l0 0.890625l-6.4375 0q0.109375 1.234375 0.8125 1.953125q0.71875 0.703125 1.8125 0.703125q1.515625 0 2.46875 -1.234375l1.203125 1.140625q-0.59375 0.875 -1.59375 1.375q-0.984375 0.484375 -2.21875 0.484375zm-0.265625 -8.453125q-0.90625 0 -1.46875 0.640625q-0.5625 0.640625 -0.703125 1.78125l4.203125 0l0 -0.171875q-0.0625 -1.109375 -0.59375 -1.671875q-0.515625 -0.578125 -1.4375 -0.578125zm5.558197 3.265625q0 -2.296875 1.078125 -3.65625q1.078125 -1.375 2.859375 -1.375q1.6875 0 2.65625 1.171875l0.09375 -1.0l2.0 0l0 9.5625q0 1.9375 -1.21875 3.046875q-1.203125 1.125 -3.25 1.125q-1.078125 0 -2.109375 -0.453125q-1.03125 -0.4375 -1.578125 -1.171875l1.046875 -1.328125q1.03125 1.203125 2.515625 1.203125q1.109375 0 1.734375 -0.59375q0.640625 -0.59375 0.640625 -1.75l0 -0.671875q-0.953125 1.078125 -2.546875 1.078125q-1.734375 0 -2.828125 -1.375q-1.09375 -1.375 -1.09375 -3.8125zm2.203125 0.1875q0 1.484375 0.59375 2.34375q0.609375 0.84375 1.6875 0.84375q1.34375 0 1.984375 -1.140625l0 -4.34375q-0.625 -1.109375 -1.96875 -1.109375q-1.09375 0 -1.703125 0.859375q-0.59375 0.859375 -0.59375 2.546875zm14.638641 4.8125q-0.140625 -0.28125 -0.25 -0.921875q-1.046875 1.109375 -2.578125 1.109375q-1.484375 0 -2.4375 -0.84375q-0.9375 -0.859375 -0.9375 -2.109375q0 -1.578125 1.171875 -2.40625q1.171875 -0.84375 3.359375 -0.84375l1.359375 0l0 -0.65625q0 -0.765625 -0.4375 -1.21875q-0.421875 -0.46875 -1.296875 -0.46875q-0.765625 0 -1.25 0.390625q-0.46875 0.375 -0.46875 0.953125l-2.21875 0q0 -0.8125 0.53125 -1.515625q0.546875 -0.703125 1.46875 -1.09375q0.921875 -0.40625 2.0625 -0.40625q1.734375 0 2.75 0.875q1.03125 0.859375 1.0625 2.4375l0 4.4375q0 1.328125 0.375 2.125l0 0.15625l-2.265625 0zm-2.421875 -1.59375q0.65625 0 1.234375 -0.3125q0.578125 -0.328125 0.875 -0.859375l0 -1.859375l-1.203125 0q-1.234375 0 -1.859375 0.4375q-0.609375 0.421875 -0.609375 1.203125q0 0.640625 0.421875 1.015625q0.421875 0.375 1.140625 0.375zm9.405823 -10.65625l0 2.390625l1.734375 0l0 1.640625l-1.734375 0l0 5.5q0 0.5625 0.21875 0.8125q0.234375 0.25 0.796875 0.25q0.390625 0 0.78125 -0.078125l0 1.703125q-0.75 0.21875 -1.453125 0.21875q-2.5625 0 -2.5625 -2.8125l0 -5.59375l-1.609375 0l0 -1.640625l1.609375 0l0 -2.390625l2.21875 0zm7.7660522 12.4375q-2.09375 0 -3.40625 -1.328125q-1.3125 -1.328125 -1.3125 -3.53125l0 -0.28125q0 -1.46875 0.5625 -2.625q0.578125 -1.171875 1.609375 -1.8125q1.03125 -0.640625 2.296875 -0.640625q2.015625 0 3.109375 1.28125q1.09375 1.28125 1.09375 3.625l0 0.890625l-6.4375 0q0.109375 1.234375 0.8125 1.953125q0.71875 0.703125 1.8125 0.703125q1.515625 0 2.46875 -1.234375l1.203125 1.140625q-0.59375 0.875 -1.59375 1.375q-0.984375 0.484375 -2.21875 0.484375zm-0.265625 -8.453125q-0.90625 0 -1.46875 0.640625q-0.5625 0.640625 -0.703125 1.78125l4.203125 0l0 -0.171875q-0.0625 -1.109375 -0.59375 -1.671875q-0.515625 -0.578125 -1.4375 -0.578125z" fill-rule="nonzero"/><path fill="#94c47e" d="m539.9134 416.55142l0 0c0 -6.3521423 5.149414 -11.501556 11.501526 -11.501556l117.43787 0c3.050415 0 5.975891 1.2117615 8.1328125 3.3687134c2.1569824 2.1569824 3.3687134 5.082428 3.3687134 8.132843l0 46.00479c0 6.352112 -5.149414 11.501526 -11.501526 11.501526l-117.43787 0c-6.352112 0 -11.501526 -5.149414 -11.501526 -11.501526z" fill-rule="evenodd"/><path stroke="#ffffff" stroke-width="2.0" stroke-linejoin="round" stroke-linecap="butt" d="m539.9134 416.55142l0 0c0 -6.3521423 5.149414 -11.501556 11.501526 -11.501556l117.43787 0c3.050415 0 5.975891 1.2117615 8.1328125 3.3687134c2.1569824 2.1569824 3.3687134 5.082428 3.3687134 8.132843l0 46.00479c0 6.352112 -5.149414 11.501526 -11.501526 11.501526l-117.43787 0c-6.352112 0 -11.501526 -5.149414 -11.501526 -11.501526z" fill-rule="evenodd"/><path fill="#ffffff" d="m603.3435 435.47382l-2.3125 0l-5.90625 -9.40625l0 9.40625l-2.3125 0l0 -13.265625l2.3125 0l5.921875 9.453125l0 -9.453125l2.296875 0l0 13.265625zm5.026428 -4.921875l0 4.921875l-2.3125 0l0 -13.265625l5.078125 0q2.21875 0 3.53125 1.15625q1.3125 1.15625 1.3125 3.0625q0 1.953125 -1.28125 3.046875q-1.28125 1.078125 -3.59375 1.078125l-2.734375 0zm0 -1.859375l2.765625 0q1.234375 0 1.875 -0.578125q0.65625 -0.578125 0.65625 -1.671875q0 -1.078125 -0.65625 -1.71875q-0.65625 -0.640625 -1.8125 -0.65625l-2.828125 0l0 4.625zm19.315002 -6.484375l0 8.859375q0 2.125 -1.359375 3.359375q-1.34375 1.234375 -3.59375 1.234375q-2.28125 0 -3.625 -1.21875q-1.328125 -1.21875 -1.328125 -3.375l0 -8.859375l2.296875 0l0 8.875q0 1.328125 0.671875 2.03125q0.671875 0.703125 1.984375 0.703125q2.65625 0 2.65625 -2.8125l0 -8.796875l2.296875 0z" fill-rule="nonzero"/><path fill="#ffffff" d="m574.5477 457.47382l0 -13.265625l3.921875 0q1.75 0 3.109375 0.78125q1.375 0.78125 2.109375 2.234375q0.75 1.4375 0.75 3.296875l0 0.65625q0 1.890625 -0.75 3.328125q-0.75 1.421875 -2.140625 2.203125q-1.390625 0.765625 -3.171875 0.765625l-3.828125 0zm2.3125 -11.40625l0 9.5625l1.5 0q1.8125 0 2.78125 -1.125q0.96875 -1.140625 0.984375 -3.265625l0 -0.734375q0 -2.15625 -0.9375 -3.296875q-0.9375 -1.140625 -2.71875 -1.140625l-1.609375 0zm14.000977 11.59375q-2.09375 0 -3.40625 -1.328125q-1.3125 -1.328125 -1.3125 -3.53125l0 -0.28125q0 -1.46875 0.5625 -2.625q0.578125 -1.171875 1.609375 -1.8125q1.03125 -0.640625 2.296875 -0.640625q2.015625 0 3.109375 1.28125q1.09375 1.28125 1.09375 3.625l0 0.890625l-6.4375 0q0.109375 1.234375 0.8125 1.953125q0.71875 0.703125 1.8125 0.703125q1.515625 0 2.46875 -1.234375l1.203125 1.140625q-0.59375 0.875 -1.59375 1.375q-0.984375 0.484375 -2.21875 0.484375zm-0.265625 -8.453125q-0.90625 0 -1.46875 0.640625q-0.5625 0.640625 -0.703125 1.78125l4.203125 0l0 -0.171875q-0.0625 -1.109375 -0.59375 -1.671875q-0.515625 -0.578125 -1.4375 -0.578125zm8.292603 8.265625l-2.203125 0l0 -14.0l2.203125 0l0 14.0zm6.748657 0.1875q-2.09375 0 -3.40625 -1.328125q-1.3125 -1.328125 -1.3125 -3.53125l0 -0.28125q0 -1.46875 0.5625 -2.625q0.578125 -1.171875 1.609375 -1.8125q1.03125 -0.640625 2.296875 -0.640625q2.015625 0 3.109375 1.28125q1.09375 1.28125 1.09375 3.625l0 0.890625l-6.4375 0q0.109375 1.234375 0.8125 1.953125q0.71875 0.703125 1.8125 0.703125q1.515625 0 2.46875 -1.234375l1.203125 1.140625q-0.59375 0.875 -1.59375 1.375q-0.984375 0.484375 -2.21875 0.484375zm-0.265625 -8.453125q-0.90625 0 -1.46875 0.640625q-0.5625 0.640625 -0.703125 1.78125l4.203125 0l0 -0.171875q-0.0625 -1.109375 -0.59375 -1.671875q-0.515625 -0.578125 -1.4375 -0.578125zm5.5581665 3.265625q0 -2.296875 1.078125 -3.65625q1.078125 -1.375 2.859375 -1.375q1.6875 0 2.65625 1.171875l0.09375 -1.0l2.0 0l0 9.5625q0 1.9375 -1.21875 3.046875q-1.203125 1.125 -3.25 1.125q-1.078125 0 -2.109375 -0.453125q-1.03125 -0.4375 -1.578125 -1.171875l1.046875 -1.328125q1.03125 1.203125 2.515625 1.203125q1.109375 0 1.734375 -0.59375q0.640625 -0.59375 0.640625 -1.75l0 -0.671875q-0.953125 1.078125 -2.546875 1.078125q-1.734375 0 -2.828125 -1.375q-1.09375 -1.375 -1.09375 -3.8125zm2.203125 0.1875q0 1.484375 0.59375 2.34375q0.609375 0.84375 1.6875 0.84375q1.34375 0 1.984375 -1.140625l0 -4.34375q-0.625 -1.109375 -1.96875 -1.109375q-1.09375 0 -1.703125 0.859375q-0.59375 0.859375 -0.59375 2.546875zm14.638672 4.8125q-0.140625 -0.28125 -0.25 -0.921875q-1.046875 1.109375 -2.578125 1.109375q-1.484375 0 -2.4375 -0.84375q-0.9375 -0.859375 -0.9375 -2.109375q0 -1.578125 1.171875 -2.40625q1.171875 -0.84375 3.359375 -0.84375l1.359375 0l0 -0.65625q0 -0.765625 -0.4375 -1.21875q-0.421875 -0.46875 -1.296875 -0.46875q-0.765625 0 -1.25 0.390625q-0.46875 0.375 -0.46875 0.953125l-2.21875 0q0 -0.8125 0.53125 -1.515625q0.546875 -0.703125 1.46875 -1.09375q0.921875 -0.40625 2.0625 -0.40625q1.734375 0 2.75 0.875q1.03125 0.859375 1.0625 2.4375l0 4.4375q0 1.328125 0.375 2.125l0 0.15625l-2.265625 0zm-2.421875 -1.59375q0.65625 0 1.234375 -0.3125q0.578125 -0.328125 0.875 -0.859375l0 -1.859375l-1.203125 0q-1.234375 0 -1.859375 0.4375q-0.609375 0.421875 -0.609375 1.203125q0 0.640625 0.421875 1.015625q0.421875 0.375 1.140625 0.375zm9.405823 -10.65625l0 2.390625l1.734375 0l0 1.640625l-1.734375 0l0 5.5q0 0.5625 0.21875 0.8125q0.234375 0.25 0.796875 0.25q0.390625 0 0.78125 -0.078125l0 1.703125q-0.75 0.21875 -1.453125 0.21875q-2.5625 0 -2.5625 -2.8125l0 -5.59375l-1.609375 0l0 -1.640625l1.609375 0l0 -2.390625l2.21875 0zm7.7660522 12.4375q-2.09375 0 -3.40625 -1.328125q-1.3125 -1.328125 -1.3125 -3.53125l0 -0.28125q0 -1.46875 0.5625 -2.625q0.578125 -1.171875 1.609375 -1.8125q1.03125 -0.640625 2.296875 -0.640625q2.015625 0 3.109375 1.28125q1.09375 1.28125 1.09375 3.625l0 0.890625l-6.4375 0q0.109375 1.234375 0.8125 1.953125q0.71875 0.703125 1.8125 0.703125q1.515625 0 2.46875 -1.234375l1.203125 1.140625q-0.59375 0.875 -1.59375 1.375q-0.984375 0.484375 -2.21875 0.484375zm-0.265625 -8.453125q-0.90625 0 -1.46875 0.640625q-0.5625 0.640625 -0.703125 1.78125l4.203125 0l0 -0.171875q-0.0625 -1.109375 -0.59375 -1.671875q-0.515625 -0.578125 -1.4375 -0.578125z" fill-rule="nonzero"/><path fill="#000000" fill-opacity="0.0" d="m66.64042 144.48819l805.4803 0" fill-rule="evenodd"/><path stroke="#999999" stroke-width="3.0" stroke-linejoin="round" stroke-linecap="butt" stroke-dasharray="12.0,9.0" d="m66.64042 144.48819l805.4803 0" fill-rule="evenodd"/><path fill="#000000" fill-opacity="0.0" d="m66.64042 295.4672l720.3779 0" fill-rule="evenodd"/><path stroke="#999999" stroke-width="3.0" stroke-linejoin="round" stroke-linecap="butt" stroke-dasharray="12.0,9.0" d="m66.64042 295.4672l720.3779 0" fill-rule="evenodd"/><path fill="#000000" fill-opacity="0.0" d="m67.4021 504.8924l807.74805 0" fill-rule="evenodd"/><path stroke="#999999" stroke-width="3.0" stroke-linejoin="round" stroke-linecap="butt" stroke-dasharray="12.0,9.0" d="m67.4021 504.8924l807.74805 0" fill-rule="evenodd"/><path fill="#000000" fill-opacity="0.0" d="m19.59871 197.36482l212.66142 0l0 52.503937l-212.66142 0z" fill-rule="evenodd"/><path fill="#000000" d="m89.60286 213.18295l5.59375 14.890625l5.59375 -14.890625l4.359375 0l0 19.421875l-3.359375 0l0 -6.40625l0.328125 -8.5625l-5.734375 14.96875l-2.40625 0l-5.734375 -14.953125l0.34375 8.546875l0 6.40625l-3.375 0l0 -19.421875l4.390625 0zm22.909836 16.71875l8.828125 0l0 2.703125l-12.203125 0l0 -19.421875l3.375 0l0 16.71875zm25.465286 -8.765625q-0.640625 -0.109375 -1.3125 -0.109375q-2.234375 0 -3.015625 1.703125l0 9.875l-3.234375 0l0 -14.4375l3.09375 0l0.078125 1.609375q1.171875 -1.875 3.265625 -1.875q0.6875 0 1.140625 0.1875l-0.015625 3.046875zm10.795044 10.046875q-1.421875 1.6875 -4.046875 1.6875q-2.359375 0 -3.5625 -1.375q-1.203125 -1.375 -1.203125 -3.96875l0 -9.359375l3.234375 0l0 9.3125q0 2.75 2.28125 2.75q2.359375 0 3.1875 -1.6875l0 -10.375l3.25 0l0 14.4375l-3.0625 0l-0.078125 -1.421875zm9.450882 -13.015625l0.09375 1.671875q1.59375 -1.9375 4.203125 -1.9375q4.515625 0 4.59375 5.15625l0 9.546875l-3.25 0l0 -9.359375q0 -1.375 -0.59375 -2.03125q-0.59375 -0.65625 -1.9375 -0.65625q-1.96875 0 -2.921875 1.765625l0 10.28125l-3.25 0l0 -14.4375l3.0625 0zm16.245483 -3.515625l0 3.515625l2.546875 0l0 2.40625l-2.546875 0l0 8.0625q0 0.8125 0.328125 1.1875q0.328125 0.359375 1.171875 0.359375q0.5625 0 1.140625 -0.125l0 2.5q-1.109375 0.3125 -2.140625 0.3125q-3.734375 0 -3.734375 -4.125l0 -8.171875l-2.375 0l0 -2.40625l2.375 0l0 -3.515625l3.234375 0zm8.477768 17.953125l-3.234375 0l0 -14.4375l3.234375 0l0 14.4375zm-3.4375 -18.1875q0 -0.75 0.46875 -1.234375q0.46875 -0.5 1.34375 -0.5q0.890625 0 1.375 0.5q0.484375 0.484375 0.484375 1.234375q0 0.734375 -0.484375 1.21875q-0.484375 0.484375 -1.375 0.484375q-0.875 0 -1.34375 -0.484375q-0.46875 -0.484375 -0.46875 -1.21875zm10.010071 3.75l0.09375 1.5q1.53125 -1.765625 4.171875 -1.765625q2.890625 0 3.96875 2.21875q1.5625 -2.21875 4.421875 -2.21875q2.390625 0 3.546875 1.328125q1.171875 1.3125 1.203125 3.890625l0 9.484375l-3.234375 0l0 -9.390625q0 -1.375 -0.609375 -2.015625q-0.59375 -0.640625 -1.984375 -0.640625q-1.109375 0 -1.8125 0.59375q-0.703125 0.59375 -0.984375 1.546875l0.015625 9.90625l-3.234375 0l0 -9.5q-0.078125 -2.546875 -2.609375 -2.546875q-1.9375 0 -2.765625 1.578125l0 10.46875l-3.234375 0l0 -14.4375l3.046875 0zm27.091171 14.703125q-3.078125 0 -5.0 -1.9375q-1.90625 -1.9375 -1.90625 -5.171875l0 -0.40625q0 -2.15625 0.828125 -3.859375q0.84375 -1.703125 2.34375 -2.640625q1.515625 -0.953125 3.359375 -0.953125q2.953125 0 4.5625 1.890625q1.609375 1.875 1.609375 5.3125l0 1.3125l-9.4375 0q0.15625 1.78125 1.203125 2.828125q1.046875 1.03125 2.625 1.03125q2.234375 0 3.640625 -1.796875l1.734375 1.671875q-0.859375 1.296875 -2.3125 2.015625q-1.4375 0.703125 -3.25 0.703125zm-0.390625 -12.375q-1.328125 0 -2.15625 0.9375q-0.8125 0.9375 -1.03125 2.609375l6.171875 0l0 -0.25q-0.109375 -1.625 -0.875 -2.453125q-0.75 -0.84375 -2.109375 -0.84375z" fill-rule="nonzero"/><path fill="#000000" fill-opacity="0.0" d="m19.59871 336.56955l212.66142 0l0 85.63779l-212.66142 0z" fill-rule="evenodd"/><path fill="#000000" d="m122.573746 371.80954l-3.375 0l0 -8.640625l-8.6875 0l0 8.640625l-3.375 0l0 -19.421875l3.375 0l0 8.078125l8.6875 0l0 -8.078125l3.375 0l0 19.421875zm12.290253 0q-0.203125 -0.40625 -0.359375 -1.34375q-1.5625 1.609375 -3.796875 1.609375q-2.171875 0 -3.546875 -1.234375q-1.375 -1.25 -1.375 -3.078125q0 -2.3125 1.703125 -3.53125q1.71875 -1.234375 4.90625 -1.234375l2.0 0l0 -0.953125q0 -1.125 -0.640625 -1.796875q-0.625 -0.671875 -1.90625 -0.671875q-1.09375 0 -1.8125 0.5625q-0.703125 0.546875 -0.703125 1.390625l-3.234375 0q0 -1.1875 0.78125 -2.21875q0.78125 -1.03125 2.140625 -1.609375q1.359375 -0.59375 3.015625 -0.59375q2.546875 0 4.046875 1.28125q1.515625 1.265625 1.546875 3.578125l0 6.5q0 1.953125 0.546875 3.109375l0 0.234375l-3.3125 0zm-3.5625 -2.328125q0.96875 0 1.8125 -0.46875q0.84375 -0.46875 1.28125 -1.265625l0 -2.71875l-1.75 0q-1.796875 0 -2.71875 0.625q-0.90625 0.625 -0.90625 1.78125q0 0.9375 0.625 1.5q0.625 0.546875 1.65625 0.546875zm17.284943 -9.140625q-0.640625 -0.109375 -1.3125 -0.109375q-2.234375 0 -3.015625 1.703125l0 9.875l-3.234375 0l0 -14.4375l3.09375 0l0.078125 1.609375q1.171875 -1.875 3.265625 -1.875q0.6875 0 1.140625 0.1875l-0.015625 3.046875zm1.1820831 4.140625q0 -3.328125 1.546875 -5.34375q1.5625 -2.03125 4.15625 -2.03125q2.296875 0 3.71875 1.59375l0 -7.390625l3.234375 0l0 20.5l-2.9375 0l-0.15625 -1.5q-1.453125 1.765625 -3.890625 1.765625q-2.53125 0 -4.109375 -2.03125q-1.5625 -2.046875 -1.5625 -5.5625zm3.25 0.28125q0 2.203125 0.84375 3.4375q0.84375 1.234375 2.40625 1.234375q2.0 0 2.921875 -1.78125l0 -6.15625q-0.90625 -1.734375 -2.890625 -1.734375q-1.578125 0 -2.4375 1.25q-0.84375 1.25 -0.84375 3.75zm25.47232 2.578125l2.296875 -9.96875l3.15625 0l-3.9375 14.4375l-2.65625 0l-3.109375 -9.921875l-3.03125 9.921875l-2.671875 0l-3.953125 -14.4375l3.171875 0l2.328125 9.859375l2.96875 -9.859375l2.4375 0l3.0 9.96875zm16.24678 4.46875q-0.203125 -0.40625 -0.359375 -1.34375q-1.5625 1.609375 -3.796875 1.609375q-2.171875 0 -3.546875 -1.234375q-1.375 -1.25 -1.375 -3.078125q0 -2.3125 1.703125 -3.53125q1.71875 -1.234375 4.90625 -1.234375l2.0 0l0 -0.953125q0 -1.125 -0.640625 -1.796875q-0.625 -0.671875 -1.90625 -0.671875q-1.09375 0 -1.8125 0.5625q-0.703125 0.546875 -0.703125 1.390625l-3.234375 0q0 -1.1875 0.78125 -2.21875q0.78125 -1.03125 2.140625 -1.609375q1.359375 -0.59375 3.015625 -0.59375q2.546875 0 4.046875 1.28125q1.515625 1.265625 1.546875 3.578125l0 6.5q0 1.953125 0.546875 3.109375l0 0.234375l-3.3125 0zm-3.5625 -2.328125q0.96875 0 1.8125 -0.46875q0.84375 -0.46875 1.28125 -1.265625l0 -2.71875l-1.75 0q-1.796875 0 -2.71875 0.625q-0.90625 0.625 -0.90625 1.78125q0 0.9375 0.625 1.5q0.625 0.546875 1.65625 0.546875zm17.284943 -9.140625q-0.640625 -0.109375 -1.3125 -0.109375q-2.234375 0 -3.015625 1.703125l0 9.875l-3.234375 0l0 -14.4375l3.09375 0l0.078125 1.609375q1.171875 -1.875 3.265625 -1.875q0.6875 0 1.140625 0.1875l-0.015625 3.046875zm8.150833 11.734375q-3.078125 0 -5.0 -1.9375q-1.90625 -1.9375 -1.90625 -5.171875l0 -0.40625q0 -2.15625 0.828125 -3.859375q0.84375 -1.703125 2.34375 -2.640625q1.515625 -0.953125 3.359375 -0.953125q2.953125 0 4.5625 1.890625q1.609375 1.875 1.609375 5.3125l0 1.3125l-9.4375 0q0.15625 1.78125 1.203125 2.828125q1.046875 1.03125 2.625 1.03125q2.234375 0 3.640625 -1.796875l1.734375 1.671875q-0.859375 1.296875 -2.3125 2.015625q-1.4375 0.703125 -3.25 0.703125zm-0.390625 -12.375q-1.328125 0 -2.15625 0.9375q-0.8125 0.9375 -1.03125 2.609375l6.171875 0l0 -0.25q-0.109375 -1.625 -0.875 -2.453125q-0.75 -0.84375 -2.109375 -0.84375z" fill-rule="nonzero"/><path fill="#000000" d="m83.023224 404.60956q-0.203125 -0.40625 -0.359375 -1.34375q-1.5625 1.609375 -3.796875 1.609375q-2.171875 0 -3.546875 -1.234375q-1.375 -1.25 -1.375 -3.078125q0 -2.3125 1.703125 -3.53125q1.71875 -1.234375 4.90625 -1.234375l2.0 0l0 -0.953125q0 -1.125 -0.640625 -1.796875q-0.625 -0.671875 -1.90625 -0.671875q-1.09375 0 -1.8125 0.5625q-0.703125 0.546875 -0.703125 1.390625l-3.234375 0q0 -1.1875 0.78125 -2.21875q0.78125 -1.03125 2.140625 -1.609375q1.359375 -0.59375 3.015625 -0.59375q2.546875 0 4.046875 1.28125q1.515625 1.265625 1.546875 3.578125l0 6.5q0 1.953125 0.546875 3.109375l0 0.234375l-3.3125 0zm-3.5625 -2.328125q0.96875 0 1.8125 -0.46875q0.84375 -0.46875 1.28125 -1.265625l0 -2.71875l-1.75 0q-1.796875 0 -2.71875 0.625q-0.90625 0.625 -0.90625 1.78125q0 0.9375 0.625 1.5q0.625 0.546875 1.65625 0.546875zm15.659943 0q1.21875 0 2.015625 -0.703125q0.796875 -0.703125 0.859375 -1.75l3.046875 0q-0.046875 1.359375 -0.84375 2.53125q-0.78125 1.15625 -2.140625 1.84375q-1.34375 0.671875 -2.90625 0.671875q-3.015625 0 -4.796875 -1.953125q-1.78125 -1.96875 -1.78125 -5.421875l0 -0.34375q0 -3.28125 1.765625 -5.265625q1.765625 -1.984375 4.8125 -1.984375q2.5625 0 4.1875 1.5q1.625 1.5 1.703125 3.9375l-3.046875 0q-0.0625 -1.234375 -0.859375 -2.03125q-0.796875 -0.8125 -2.015625 -0.8125q-1.578125 0 -2.4375 1.140625q-0.84375 1.140625 -0.859375 3.46875l0 0.515625q0 2.359375 0.84375 3.515625q0.84375 1.140625 2.453125 1.140625zm14.304565 0q1.21875 0 2.015625 -0.703125q0.796875 -0.703125 0.859375 -1.75l3.046875 0q-0.046875 1.359375 -0.84375 2.53125q-0.78125 1.15625 -2.140625 1.84375q-1.34375 0.671875 -2.90625 0.671875q-3.015625 0 -4.796875 -1.953125q-1.78125 -1.96875 -1.78125 -5.421875l0 -0.34375q0 -3.28125 1.765625 -5.265625q1.765625 -1.984375 4.8125 -1.984375q2.5625 0 4.1875 1.5q1.625 1.5 1.703125 3.9375l-3.046875 0q-0.0625 -1.234375 -0.859375 -2.03125q-0.796875 -0.8125 -2.015625 -0.8125q-1.578125 0 -2.4375 1.140625q-0.84375 1.140625 -0.859375 3.46875l0 0.515625q0 2.359375 0.84375 3.515625q0.84375 1.140625 2.453125 1.140625zm14.72644 2.59375q-3.078125 0 -5.0 -1.9375q-1.90625 -1.9375 -1.90625 -5.171875l0 -0.40625q0 -2.15625 0.828125 -3.859375q0.84375 -1.703125 2.34375 -2.640625q1.515625 -0.953125 3.359375 -0.953125q2.953125 0 4.5625 1.890625q1.609375 1.875 1.609375 5.3125l0 1.3125l-9.4375 0q0.15625 1.78125 1.203125 2.828125q1.046875 1.03125 2.625 1.03125q2.234375 0 3.640625 -1.796875l1.734375 1.671875q-0.859375 1.296875 -2.3125 2.015625q-1.4375 0.703125 -3.25 0.703125zm-0.390625 -12.375q-1.328125 0 -2.15625 0.9375q-0.8125 0.9375 -1.03125 2.609375l6.171875 0l0 -0.25q-0.109375 -1.625 -0.875 -2.453125q-0.75 -0.84375 -2.109375 -0.84375zm12.149231 12.109375l-3.234375 0l0 -20.5l3.234375 0l0 20.5zm9.885071 0.265625q-3.078125 0 -5.0 -1.9375q-1.90625 -1.9375 -1.90625 -5.171875l0 -0.40625q0 -2.15625 0.828125 -3.859375q0.84375 -1.703125 2.34375 -2.640625q1.515625 -0.953125 3.359375 -0.953125q2.953125 0 4.5625 1.890625q1.609375 1.875 1.609375 5.3125l0 1.3125l-9.4375 0q0.15625 1.78125 1.203125 2.828125q1.046875 1.03125 2.625 1.03125q2.234375 0 3.640625 -1.796875l1.734375 1.671875q-0.859375 1.296875 -2.3125 2.015625q-1.4375 0.703125 -3.25 0.703125zm-0.390625 -12.375q-1.328125 0 -2.15625 0.9375q-0.8125 0.9375 -1.03125 2.609375l6.171875 0l0 -0.25q-0.109375 -1.625 -0.875 -2.453125q-0.75 -0.84375 -2.109375 -0.84375zm16.258606 0.640625q-0.640625 -0.109375 -1.3125 -0.109375q-2.234375 0 -3.015625 1.703125l0 9.875l-3.234375 0l0 -14.4375l3.09375 0l0.078125 1.609375q1.171875 -1.875 3.265625 -1.875q0.6875 0 1.140625 0.1875l-0.015625 3.046875zm10.269653 11.46875q-0.203125 -0.40625 -0.359375 -1.34375q-1.5625 1.609375 -3.796875 1.609375q-2.171875 0 -3.546875 -1.234375q-1.375 -1.25 -1.375 -3.078125q0 -2.3125 1.703125 -3.53125q1.71875 -1.234375 4.90625 -1.234375l2.0 0l0 -0.953125q0 -1.125 -0.640625 -1.796875q-0.625 -0.671875 -1.90625 -0.671875q-1.09375 0 -1.8125 0.5625q-0.703125 0.546875 -0.703125 1.390625l-3.234375 0q0 -1.1875 0.78125 -2.21875q0.78125 -1.03125 2.140625 -1.609375q1.359375 -0.59375 3.015625 -0.59375q2.546875 0 4.046875 1.28125q1.515625 1.265625 1.546875 3.578125l0 6.5q0 1.953125 0.546875 3.109375l0 0.234375l-3.3125 0zm-3.5625 -2.328125q0.96875 0 1.8125 -0.46875q0.84375 -0.46875 1.28125 -1.265625l0 -2.71875l-1.75 0q-1.796875 0 -2.71875 0.625q-0.90625 0.625 -0.90625 1.78125q0 0.9375 0.625 1.5q0.625 0.546875 1.65625 0.546875zm13.784943 -15.625l0 3.515625l2.546875 0l0 2.40625l-2.546875 0l0 8.0625q0 0.8125 0.328125 1.1875q0.328125 0.359375 1.171875 0.359375q0.5625 0 1.140625 -0.125l0 2.5q-1.109375 0.3125 -2.140625 0.3125q-3.734375 0 -3.734375 -4.125l0 -8.171875l-2.375 0l0 -2.40625l2.375 0l0 -3.515625l3.234375 0zm8.477768 17.953125l-3.234375 0l0 -14.4375l3.234375 0l0 14.4375zm-3.4375 -18.1875q0 -0.75 0.46875 -1.234375q0.46875 -0.5 1.34375 -0.5q0.890625 0 1.375 0.5q0.484375 0.484375 0.484375 1.234375q0 0.734375 -0.484375 1.21875q-0.484375 0.484375 -1.375 0.484375q-0.875 0 -1.34375 -0.484375q-0.46875 -0.484375 -0.46875 -1.21875zm6.353821 10.828125q0 -2.109375 0.84375 -3.8125q0.84375 -1.703125 2.359375 -2.609375q1.53125 -0.921875 3.5 -0.921875q2.921875 0 4.734375 1.890625q1.828125 1.875 1.984375 4.984375l0.015625 0.75q0 2.140625 -0.828125 3.828125q-0.8125 1.671875 -2.34375 2.59375q-1.53125 0.921875 -3.53125 0.921875q-3.0625 0 -4.90625 -2.03125q-1.828125 -2.03125 -1.828125 -5.421875l0 -0.171875zm3.25 0.28125q0 2.234375 0.921875 3.5q0.921875 1.25 2.5625 1.25q1.640625 0 2.546875 -1.28125q0.921875 -1.28125 0.921875 -3.75q0 -2.1875 -0.9375 -3.46875q-0.9375 -1.28125 -2.5625 -1.28125q-1.578125 0 -2.515625 1.265625q-0.9375 1.265625 -0.9375 3.765625zm15.933884 -7.359375l0.09375 1.671875q1.59375 -1.9375 4.203125 -1.9375q4.515625 0 4.59375 5.15625l0 9.546875l-3.25 0l0 -9.359375q0 -1.375 -0.59375 -2.03125q-0.59375 -0.65625 -1.9375 -0.65625q-1.96875 0 -2.921875 1.765625l0 10.28125l-3.25 0l0 -14.4375l3.0625 0z" fill-rule="nonzero"/><path fill="#000000" fill-opacity="0.0" d="m19.59871 568.83954l212.66142 0l0 85.63782l-212.66142 0z" fill-rule="evenodd"/><path fill="#000000" d="m143.41798 604.0795l0 -19.421875l5.75 0q2.5625 0 4.5625 1.140625q2.0 1.140625 3.09375 3.25q1.09375 2.109375 1.09375 4.84375l0 0.96875q0 2.765625 -1.109375 4.859375q-1.09375 2.09375 -3.140625 3.234375q-2.03125 1.125 -4.65625 1.125l-5.59375 0zm3.375 -16.703125l0 14.0l2.203125 0q2.65625 0 4.078125 -1.65625q1.421875 -1.65625 1.453125 -4.765625l0 -1.078125q0 -3.171875 -1.375 -4.828125q-1.375 -1.671875 -3.984375 -1.671875l-2.375 0zm20.525894 16.96875q-3.078125 0 -5.0 -1.9375q-1.90625 -1.9375 -1.90625 -5.171875l0 -0.40625q0 -2.15625 0.828125 -3.859375q0.84375 -1.703125 2.34375 -2.640625q1.515625 -0.953125 3.359375 -0.953125q2.953125 0 4.5625 1.890625q1.609375 1.875 1.609375 5.3125l0 1.3125l-9.4375 0q0.15625 1.78125 1.203125 2.828125q1.046875 1.03125 2.625 1.03125q2.234375 0 3.640625 -1.796875l1.734375 1.671875q-0.859375 1.296875 -2.3125 2.015625q-1.4375 0.703125 -3.25 0.703125zm-0.390625 -12.375q-1.328125 0 -2.15625 0.9375q-0.8125 0.9375 -1.03125 2.609375l6.171875 0l0 -0.25q-0.109375 -1.625 -0.875 -2.453125q-0.75 -0.84375 -2.109375 -0.84375zm13.616348 8.0l3.0625 -10.328125l3.34375 0l-5.0 14.4375l-2.8125 0l-5.046875 -14.4375l3.359375 0l3.09375 10.328125zm11.876663 4.109375l-3.234375 0l0 -14.4375l3.234375 0l0 14.4375zm-3.4375 -18.1875q0 -0.75 0.46875 -1.234375q0.46875 -0.5 1.34375 -0.5q0.890625 0 1.375 0.5q0.484375 0.484375 0.484375 1.234375q0 0.734375 -0.484375 1.21875q-0.484375 0.484375 -1.375 0.484375q-0.875 0 -1.34375 -0.484375q-0.46875 -0.484375 -0.46875 -1.21875zm12.900696 15.859375q1.21875 0 2.015625 -0.703125q0.796875 -0.703125 0.859375 -1.75l3.046875 0q-0.046875 1.359375 -0.84375 2.53125q-0.78125 1.15625 -2.140625 1.84375q-1.34375 0.671875 -2.90625 0.671875q-3.015625 0 -4.796875 -1.953125q-1.78125 -1.96875 -1.78125 -5.421875l0 -0.34375q0 -3.28125 1.765625 -5.265625q1.765625 -1.984375 4.8125 -1.984375q2.5625 0 4.1875 1.5q1.625 1.5 1.703125 3.9375l-3.046875 0q-0.0625 -1.234375 -0.859375 -2.03125q-0.796875 -0.8125 -2.015625 -0.8125q-1.578125 0 -2.4375 1.140625q-0.84375 1.140625 -0.859375 3.46875l0 0.515625q0 2.359375 0.84375 3.515625q0.84375 1.140625 2.453125 1.140625zm14.72644 2.59375q-3.078125 0 -5.0 -1.9375q-1.90625 -1.9375 -1.90625 -5.171875l0 -0.40625q0 -2.15625 0.828125 -3.859375q0.84375 -1.703125 2.34375 -2.640625q1.515625 -0.953125 3.359375 -0.953125q2.953125 0 4.5625 1.890625q1.609375 1.875 1.609375 5.3125l0 1.3125l-9.4375 0q0.15625 1.78125 1.203125 2.828125q1.046875 1.03125 2.625 1.03125q2.234375 0 3.640625 -1.796875l1.734375 1.671875q-0.859375 1.296875 -2.3125 2.015625q-1.4375 0.703125 -3.25 0.703125zm-0.390625 -12.375q-1.328125 0 -2.15625 0.9375q-0.8125 0.9375 -1.03125 2.609375l6.171875 0l0 -0.25q-0.109375 -1.625 -0.875 -2.453125q-0.75 -0.84375 -2.109375 -0.84375z" fill-rule="nonzero"/><path fill="#000000" d="m114.2702 624.0202q1.578125 -1.84375 4.015625 -1.84375q4.609375 0 4.6875 5.265625l0 9.4375l-3.25 0l0 -9.3125q0 -1.5 -0.65625 -2.109375q-0.640625 -0.625 -1.890625 -0.625q-1.953125 0 -2.90625 1.734375l0 10.3125l-3.25 0l0 -20.5l3.25 0l0 7.640625zm20.593796 12.859375q-0.203125 -0.40625 -0.359375 -1.34375q-1.5625 1.609375 -3.796875 1.609375q-2.171875 0 -3.546875 -1.234375q-1.375 -1.25 -1.375 -3.078125q0 -2.3125 1.703125 -3.53125q1.71875 -1.234375 4.90625 -1.234375l2.0 0l0 -0.953125q0 -1.125 -0.640625 -1.796875q-0.625 -0.671875 -1.90625 -0.671875q-1.09375 0 -1.8125 0.5625q-0.703125 0.546875 -0.703125 1.390625l-3.234375 0q0 -1.1875 0.78125 -2.21875q0.78125 -1.03125 2.140625 -1.609375q1.359375 -0.59375 3.015625 -0.59375q2.546875 0 4.046875 1.28125q1.515625 1.265625 1.546875 3.578125l0 6.5q0 1.953125 0.546875 3.109375l0 0.234375l-3.3125 0zm-3.5625 -2.328125q0.96875 0 1.8125 -0.46875q0.84375 -0.46875 1.28125 -1.265625l0 -2.71875l-1.75 0q-1.796875 0 -2.71875 0.625q-0.90625 0.625 -0.90625 1.78125q0 0.9375 0.625 1.5q0.625 0.546875 1.65625 0.546875zm17.284943 -9.140625q-0.640625 -0.109375 -1.3125 -0.109375q-2.234375 0 -3.015625 1.703125l0 9.875l-3.234375 0l0 -14.4375l3.09375 0l0.078125 1.609375q1.171875 -1.875 3.265625 -1.875q0.6875 0 1.140625 0.1875l-0.015625 3.046875zm1.1820831 4.140625q0 -3.328125 1.546875 -5.34375q1.5625 -2.03125 4.15625 -2.03125q2.296875 0 3.71875 1.59375l0 -7.390625l3.234375 0l0 20.5l-2.9375 0l-0.15625 -1.5q-1.453125 1.765625 -3.890625 1.765625q-2.53125 0 -4.109375 -2.03125q-1.5625 -2.046875 -1.5625 -5.5625zm3.25 0.28125q0 2.203125 0.84375 3.4375q0.84375 1.234375 2.40625 1.234375q2.0 0 2.921875 -1.78125l0 -6.15625q-0.90625 -1.734375 -2.890625 -1.734375q-1.578125 0 -2.4375 1.25q-0.84375 1.25 -0.84375 3.75zm25.47232 2.578125l2.296875 -9.96875l3.15625 0l-3.9375 14.4375l-2.65625 0l-3.109375 -9.921875l-3.03125 9.921875l-2.671875 0l-3.953125 -14.4375l3.171875 0l2.328125 9.859375l2.96875 -9.859375l2.4375 0l3.0 9.96875zm16.24678 4.46875q-0.203125 -0.40625 -0.359375 -1.34375q-1.5625 1.609375 -3.796875 1.609375q-2.171875 0 -3.546875 -1.234375q-1.375 -1.25 -1.375 -3.078125q0 -2.3125 1.703125 -3.53125q1.71875 -1.234375 4.90625 -1.234375l2.0 0l0 -0.953125q0 -1.125 -0.640625 -1.796875q-0.625 -0.671875 -1.90625 -0.671875q-1.09375 0 -1.8125 0.5625q-0.703125 0.546875 -0.703125 1.390625l-3.234375 0q0 -1.1875 0.78125 -2.21875q0.78125 -1.03125 2.140625 -1.609375q1.359375 -0.59375 3.015625 -0.59375q2.546875 0 4.046875 1.28125q1.515625 1.265625 1.546875 3.578125l0 6.5q0 1.953125 0.546875 3.109375l0 0.234375l-3.3125 0zm-3.5625 -2.328125q0.96875 0 1.8125 -0.46875q0.84375 -0.46875 1.28125 -1.265625l0 -2.71875l-1.75 0q-1.796875 0 -2.71875 0.625q-0.90625 0.625 -0.90625 1.78125q0 0.9375 0.625 1.5q0.625 0.546875 1.65625 0.546875zm17.284943 -9.140625q-0.640625 -0.109375 -1.3125 -0.109375q-2.234375 0 -3.015625 1.703125l0 9.875l-3.234375 0l0 -14.4375l3.09375 0l0.078125 1.609375q1.171875 -1.875 3.265625 -1.875q0.6875 0 1.140625 0.1875l-0.015625 3.046875zm8.150833 11.734375q-3.078125 0 -5.0 -1.9375q-1.90625 -1.9375 -1.90625 -5.171875l0 -0.40625q0 -2.15625 0.828125 -3.859375q0.84375 -1.703125 2.34375 -2.640625q1.515625 -0.953125 3.359375 -0.953125q2.953125 0 4.5625 1.890625q1.609375 1.875 1.609375 5.3125l0 1.3125l-9.4375 0q0.15625 1.78125 1.203125 2.828125q1.046875 1.03125 2.625 1.03125q2.234375 0 3.640625 -1.796875l1.734375 1.671875q-0.859375 1.296875 -2.3125 2.015625q-1.4375 0.703125 -3.25 0.703125zm-0.390625 -12.375q-1.328125 0 -2.15625 0.9375q-0.8125 0.9375 -1.03125 2.609375l6.171875 0l0 -0.25q-0.109375 -1.625 -0.875 -2.453125q-0.75 -0.84375 -2.109375 -0.84375z" fill-rule="nonzero"/><path fill="#999999" d="m256.62204 557.792l0 0c0 -16.215149 13.144989 -29.360168 29.360168 -29.360168l453.50015 0c7.786804 0 15.254639 3.0933228 20.760742 8.599426c5.5061035 5.5061035 8.599426 12.973938 8.599426 20.760742l0 117.437195c0 16.215149 -13.14502 29.360168 -29.360168 29.360168l-453.50015 0c-16.21518 0 -29.360168 -13.14502 -29.360168 -29.360168z" fill-rule="evenodd"/><path stroke="#ffffff" stroke-width="1.0" stroke-linejoin="round" stroke-linecap="butt" d="m256.62204 557.792l0 0c0 -16.215149 13.144989 -29.360168 29.360168 -29.360168l453.50015 0c7.786804 0 15.254639 3.0933228 20.760742 8.599426c5.5061035 5.5061035 8.599426 12.973938 8.599426 20.760742l0 117.437195c0 16.215149 -13.14502 29.360168 -29.360168 29.360168l-453.50015 0c-16.21518 0 -29.360168 -13.14502 -29.360168 -29.360168z" fill-rule="evenodd"/><path fill="#b7b7b7" d="m305.47244 554.5435l0 0c0 -6.352112 5.149414 -11.501526 11.501526 -11.501526l180.80795 0c3.0503845 0 5.9758606 1.211792 8.1328125 3.3687134c2.156952 2.1569824 3.3687134 5.0824585 3.3687134 8.1328125l0 46.00482c0 6.352112 -5.149414 11.501526 -11.501526 11.501526l-180.80795 0c-6.352112 0 -11.501526 -5.149414 -11.501526 -11.501526z" fill-rule="evenodd"/><path stroke="#ffffff" stroke-width="1.0" stroke-linejoin="round" stroke-linecap="butt" d="m305.47244 554.5435l0 0c0 -6.352112 5.149414 -11.501526 11.501526 -11.501526l180.80795 0c3.0503845 0 5.9758606 1.211792 8.1328125 3.3687134c2.156952 2.1569824 3.3687134 5.0824585 3.3687134 8.1328125l0 46.00482c0 6.352112 -5.149414 11.501526 -11.501526 11.501526l-180.80795 0c-6.352112 0 -11.501526 -5.149414 -11.501526 -11.501526z" fill-rule="evenodd"/><path fill="#ffffff" d="m399.0269 583.71216q-0.875 1.140625 -2.421875 1.734375q-1.546875 0.578125 -3.515625 0.578125q-2.03125 0 -3.59375 -0.90625q-1.5625 -0.921875 -2.40625 -2.625q-0.84375 -1.71875 -0.875 -4.0l0 -1.265625q0 -3.640625 1.75 -5.6875q1.75 -2.0625 4.875 -2.0625q2.6875 0 4.265625 1.328125q1.59375 1.328125 1.90625 3.828125l-2.734375 0q-0.46875 -2.90625 -3.375 -2.90625q-1.890625 0 -2.875 1.359375q-0.96875 1.34375 -1.0 3.96875l0 1.234375q0 2.609375 1.09375 4.0625q1.109375 1.4375 3.0625 1.4375q2.140625 0 3.0625 -0.96875l0 -3.15625l-3.328125 0l0 -2.125l6.109375 0l0 6.171875zm5.87442 -3.890625l0 5.984375l-2.796875 0l0 -16.109375l6.15625 0q2.703125 0 4.28125 1.40625q1.59375 1.40625 1.59375 3.71875q0 2.359375 -1.5625 3.6875q-1.546875 1.3125 -4.34375 1.3125l-3.328125 0zm0 -2.25l3.359375 0q1.5 0 2.28125 -0.703125q0.78125 -0.703125 0.78125 -2.03125q0 -1.296875 -0.796875 -2.078125q-0.796875 -0.78125 -2.1875 -0.796875l-3.4375 0l0 5.609375zm23.465363 -7.875l0 10.765625q0 2.5625 -1.640625 4.0625q-1.640625 1.5 -4.375 1.5q-2.765625 0 -4.390625 -1.46875q-1.625 -1.484375 -1.625 -4.109375l0 -10.75l2.78125 0l0 10.78125q0 1.609375 0.8125 2.46875q0.828125 0.84375 2.421875 0.84375q3.21875 0 3.21875 -3.40625l0 -10.6875l2.796875 0z" fill-rule="nonzero"/><path fill="#b7b7b7" d="m521.83 554.5435l0 0c0 -6.352112 5.149414 -11.501526 11.501526 -11.501526l180.80798 0c3.050354 0 5.97583 1.211792 8.1328125 3.3687134c2.1569214 2.1569824 3.3687134 5.0824585 3.3687134 8.1328125l0 46.00482c0 6.352112 -5.149414 11.501526 -11.501526 11.501526l-180.80798 0c-6.352112 0 -11.501526 -5.149414 -11.501526 -11.501526z" fill-rule="evenodd"/><path stroke="#ffffff" stroke-width="1.0" stroke-linejoin="round" stroke-linecap="butt" d="m521.83 554.5435l0 0c0 -6.352112 5.149414 -11.501526 11.501526 -11.501526l180.80798 0c3.050354 0 5.97583 1.211792 8.1328125 3.3687134c2.1569214 2.1569824 3.3687134 5.0824585 3.3687134 8.1328125l0 46.00482c0 6.352112 -5.149414 11.501526 -11.501526 11.501526l-180.80798 0c-6.352112 0 -11.501526 -5.149414 -11.501526 -11.501526z" fill-rule="evenodd"/><path fill="#ffffff" d="m615.63727 580.5559q-0.234375 2.578125 -1.90625 4.03125q-1.65625 1.4375 -4.40625 1.4375q-1.921875 0 -3.390625 -0.90625q-1.46875 -0.921875 -2.265625 -2.59375q-0.796875 -1.6875 -0.828125 -3.90625l0 -1.5q0 -2.28125 0.8125 -4.015625q0.8125 -1.75 2.3125 -2.6875q1.515625 -0.9375 3.5 -0.9375q2.65625 0 4.28125 1.453125q1.625 1.4375 1.890625 4.09375l-2.78125 0q-0.203125 -1.734375 -1.015625 -2.5q-0.8125 -0.78125 -2.375 -0.78125q-1.828125 0 -2.8125 1.34375q-0.984375 1.328125 -1.0 3.90625l0 1.421875q0 2.609375 0.9375 3.984375q0.9375 1.375 2.734375 1.375q1.65625 0 2.484375 -0.734375q0.828125 -0.75 1.046875 -2.484375l2.78125 0zm5.3063354 -0.734375l0 5.984375l-2.796875 0l0 -16.109375l6.15625 0q2.703125 0 4.28125 1.40625q1.59375 1.40625 1.59375 3.71875q0 2.359375 -1.5625 3.6875q-1.546875 1.3125 -4.34375 1.3125l-3.328125 0zm0 -2.25l3.359375 0q1.5 0 2.28125 -0.703125q0.78125 -0.703125 0.78125 -2.03125q0 -1.296875 -0.796875 -2.078125q-0.796875 -0.78125 -2.1875 -0.796875l-3.4375 0l0 5.609375zm23.465332 -7.875l0 10.765625q0 2.5625 -1.640625 4.0625q-1.640625 1.5 -4.375 1.5q-2.765625 0 -4.390625 -1.46875q-1.625 -1.484375 -1.625 -4.109375l0 -10.75l2.78125 0l0 10.78125q0 1.609375 0.8125 2.46875q0.828125 0.84375 2.421875 0.84375q3.21875 0 3.21875 -3.40625l0 -10.6875l2.796875 0z" fill-rule="nonzero"/><path fill="#b7b7b7" d="m305.47244 635.71674l0 0c0 -6.352112 5.149414 -11.501526 11.501526 -11.501526l180.80795 0c3.0503845 0 5.9758606 1.211792 8.1328125 3.3687134c2.156952 2.1569824 3.3687134 5.0824585 3.3687134 8.1328125l0 46.00482c0 6.352112 -5.149414 11.501526 -11.501526 11.501526l-180.80795 0c-6.352112 0 -11.501526 -5.149414 -11.501526 -11.501526z" fill-rule="evenodd"/><path stroke="#ffffff" stroke-width="1.0" stroke-linejoin="round" stroke-linecap="butt" d="m305.47244 635.71674l0 0c0 -6.352112 5.149414 -11.501526 11.501526 -11.501526l180.80795 0c3.0503845 0 5.9758606 1.211792 8.1328125 3.3687134c2.156952 2.1569824 3.3687134 5.0824585 3.3687134 8.1328125l0 46.00482c0 6.352112 -5.149414 11.501526 -11.501526 11.501526l-180.80795 0c-6.352112 0 -11.501526 -5.149414 -11.501526 -11.501526z" fill-rule="evenodd"/><path fill="#ffffff" d="m399.1325 666.9792l-2.8125 0l-7.171875 -11.421875l0 11.421875l-2.796875 0l0 -16.109375l2.796875 0l7.203125 11.46875l0 -11.46875l2.78125 0l0 16.109375zm6.1006775 -5.984375l0 5.984375l-2.796875 0l0 -16.109375l6.15625 0q2.703125 0 4.28125 1.40625q1.59375 1.40625 1.59375 3.71875q0 2.359375 -1.5625 3.6875q-1.546875 1.3125 -4.34375 1.3125l-3.328125 0zm0 -2.25l3.359375 0q1.5 0 2.28125 -0.703125q0.78125 -0.703125 0.78125 -2.03125q0 -1.296875 -0.796875 -2.078125q-0.796875 -0.78125 -2.1875 -0.796875l-3.4375 0l0 5.609375zm23.465363 -7.875l0 10.765625q0 2.5625 -1.640625 4.0625q-1.640625 1.5 -4.375 1.5q-2.765625 0 -4.390625 -1.46875q-1.625 -1.484375 -1.625 -4.109375l0 -10.75l2.78125 0l0 10.78125q0 1.609375 0.8125 2.46875q0.828125 0.84375 2.421875 0.84375q3.21875 0 3.21875 -3.40625l0 -10.6875l2.796875 0z" fill-rule="nonzero"/><path fill="#b7b7b7" d="m521.83 635.71674l0 0c0 -6.352112 5.149414 -11.501526 11.501526 -11.501526l180.80798 0c3.050354 0 5.97583 1.211792 8.1328125 3.3687134c2.1569214 2.1569824 3.3687134 5.0824585 3.3687134 8.1328125l0 46.00482c0 6.352112 -5.149414 11.501526 -11.501526 11.501526l-180.80798 0c-6.352112 0 -11.501526 -5.149414 -11.501526 -11.501526z" fill-rule="evenodd"/><path stroke="#ffffff" stroke-width="1.0" stroke-linejoin="round" stroke-linecap="butt" d="m521.83 635.71674l0 0c0 -6.352112 5.149414 -11.501526 11.501526 -11.501526l180.80798 0c3.050354 0 5.97583 1.211792 8.1328125 3.3687134c2.1569214 2.1569824 3.3687134 5.0824585 3.3687134 8.1328125l0 46.00482c0 6.352112 -5.149414 11.501526 -11.501526 11.501526l-180.80798 0c-6.352112 0 -11.501526 -5.149414 -11.501526 -11.501526z" fill-rule="evenodd"/><path fill="#ffffff" d="m603.8981 666.9792l0 -16.109375l4.75 0q2.140625 0 3.796875 0.953125q1.65625 0.953125 2.5625 2.703125q0.90625 1.75 0.90625 4.0l0 0.8125q0 2.28125 -0.921875 4.03125q-0.90625 1.734375 -2.59375 2.671875q-1.6875 0.9375 -3.875 0.9375l-4.625 0zm2.796875 -13.84375l0 11.609375l1.828125 0q2.203125 0 3.375 -1.375q1.171875 -1.375 1.203125 -3.953125l0 -0.90625q0 -2.609375 -1.140625 -3.984375q-1.140625 -1.390625 -3.3125 -1.390625l-1.953125 0zm20.426819 9.6875q0 -1.046875 -0.75 -1.625q-0.75 -0.578125 -2.703125 -1.15625q-1.9375 -0.59375 -3.09375 -1.3125q-2.203125 -1.390625 -2.203125 -3.609375q0 -1.953125 1.578125 -3.203125q1.59375 -1.265625 4.140625 -1.265625q1.671875 0 2.984375 0.625q1.328125 0.609375 2.078125 1.765625q0.75 1.140625 0.75 2.53125l-2.78125 0q0 -1.265625 -0.796875 -1.96875q-0.796875 -0.71875 -2.265625 -0.71875q-1.375 0 -2.140625 0.59375q-0.75 0.578125 -0.75 1.625q0 0.890625 0.8125 1.484375q0.828125 0.59375 2.703125 1.15625q1.890625 0.546875 3.03125 1.265625q1.140625 0.71875 1.671875 1.640625q0.53125 0.921875 0.53125 2.15625q0 2.015625 -1.546875 3.203125q-1.546875 1.1875 -4.1875 1.1875q-1.75 0 -3.21875 -0.640625q-1.46875 -0.65625 -2.28125 -1.796875q-0.8125 -1.140625 -0.8125 -2.65625l2.8125 0q0 1.375 0.90625 2.140625q0.90625 0.75 2.59375 0.75q1.453125 0 2.1875 -0.59375q0.75 -0.59375 0.75 -1.578125zm8.048401 -1.828125l0 5.984375l-2.796875 0l0 -16.109375l6.15625 0q2.703125 0 4.28125 1.40625q1.59375 1.40625 1.59375 3.71875q0 2.359375 -1.5625 3.6875q-1.546875 1.3125 -4.34375 1.3125l-3.328125 0zm0 -2.25l3.359375 0q1.5 0 2.28125 -0.703125q0.78125 -0.703125 0.78125 -2.03125q0 -1.296875 -0.796875 -2.078125q-0.796875 -0.78125 -2.1875 -0.796875l-3.4375 0l0 5.609375z" fill-rule="nonzero"/></g></svg>