<svg xmlns="http://www.w3.org/2000/svg" width="157" height="65" fill="none"><g clip-path="url(#a)"><path fill="#202124" d="M136.739 47.705V25.828h4.376v3.003h.257c.629-1.058 1.559-1.93 2.788-2.617a8.196 8.196 0 0 1 4.118-1.072c2.689 0 4.705.8 6.049 2.402 1.344 1.573 2.016 3.689 2.016 6.348v13.813h-4.59V34.493c0-1.773-.443-3.06-1.33-3.86-.886-.83-2.044-1.245-3.474-1.245-1.116 0-2.088.315-2.917.944-.83.6-1.487 1.401-1.974 2.402a7.655 7.655 0 0 0-.686 3.218v11.753h-4.633ZM126.359 47.706V25.83h4.633v21.877h-4.633Zm2.316-25.094c-.858 0-1.601-.3-2.23-.901a3.121 3.121 0 0 1-.901-2.23c0-.887.3-1.617.901-2.189.629-.6 1.372-.9 2.23-.9.887 0 1.63.3 2.231.9.601.572.901 1.302.901 2.188 0 .858-.3 1.602-.901 2.23-.601.601-1.344.902-2.231.902ZM115.917 47.705V16.991h4.633v30.714h-4.633ZM97.41 25.826h3.817V19.65h4.633v6.177h5.362v4.033h-5.362v10.51c0 1.086.214 1.916.643 2.487.458.572 1.216.858 2.274.858.515 0 .972-.071 1.372-.214a11.77 11.77 0 0 0 1.202-.6v4.504a8.83 8.83 0 0 1-1.545.471c-.543.115-1.186.172-1.93.172-2.03 0-3.646-.586-4.847-1.759-1.201-1.2-1.802-2.845-1.802-4.933V29.86h-3.818v-4.033ZM83.86 48.392c-2.259 0-4.246-.515-5.962-1.545a11.042 11.042 0 0 1-4.032-4.16c-.973-1.774-1.459-3.747-1.459-5.92 0-2.174.486-4.133 1.459-5.877a10.955 10.955 0 0 1 4.032-4.204c1.716-1.03 3.703-1.544 5.963-1.544 2.23 0 4.203.529 5.92 1.587a11.043 11.043 0 0 1 4.032 4.16c.972 1.745 1.458 3.704 1.458 5.878 0 2.173-.486 4.146-1.458 5.92a11.043 11.043 0 0 1-4.033 4.16c-1.716 1.03-3.689 1.545-5.92 1.545Zm0-4.247a6.777 6.777 0 0 0 3.347-.858c1.03-.6 1.858-1.444 2.488-2.531.657-1.115.986-2.445.986-3.99 0-1.544-.329-2.86-.986-3.946-.63-1.115-1.459-1.959-2.488-2.53-1.03-.601-2.145-.902-3.346-.902-1.202 0-2.331.3-3.39.901-1.029.572-1.872 1.416-2.53 2.531-.63 1.087-.944 2.402-.944 3.947 0 1.544.315 2.874.944 3.989.658 1.087 1.516 1.93 2.574 2.53a6.937 6.937 0 0 0 3.346.859ZM46.94 47.705V16.991h4.72v15.1l12.782-15.1h5.834v.258L59.037 30.203l12.226 17.245v.257h-5.748l-9.652-13.813-4.204 4.89v8.923H46.94Z"/><path fill="url(#b)" d="M30.94 47.915H-.13V16.86h31.07L15.403 32.378 30.94 47.915Z"/><mask id="c" width="9" height="15" x="22" y="25" maskUnits="userSpaceOnUse" style="mask-type:alpha"><path fill="#34A853" d="M30.008 25.367a7.117 7.117 0 0 0-2.45 1.126 7.168 7.168 0 0 0-1.928 2.053l-.014-.008-.746-.433a2729.605 2729.605 0 0 0-1.25-.725.663.663 0 0 0-.497-.067.673.673 0 0 0-.169.071.65.65 0 0 0-.315.63.66.66 0 0 0 .323.5l.523.304.727.422.746.432.081.048-.025.065a7.164 7.164 0 0 0-.468 2.63 7.169 7.169 0 0 0 .488 2.533l-.076.044-.745.432-.728.423-.523.303a.659.659 0 0 0-.323.623.652.652 0 0 0 .484.578.655.655 0 0 0 .497-.066l.523-.303.728-.423.745-.432.006-.004a7.207 7.207 0 0 0 3.497 2.91 7.117 7.117 0 0 0 1.821.444V25.206a7.18 7.18 0 0 0-.932.162Z"/></mask><g mask="url(#c)"><path fill="#4FAF53" d="M22.373 40.361V25.125h8.567v15.236z"/><g filter="url(#d)" opacity=".8"><path fill="url(#e)" fill-opacity=".3" d="M25.123 31.818c1.064-1.51 1.181 2.74 3.507 4.382 2.327 1.642 6.368.326 5.303 1.836-1.278.932-3.87 1.074-6.197-.568-2.326-1.642-3.09-4.369-2.613-5.65Z"/></g><g filter="url(#f)" opacity=".7"><path fill="url(#g)" fill-opacity=".4" d="M25.123 32.855c1.064 1.51 1.181-2.74 3.507-4.382 2.327-1.642 6.368-.326 5.303-1.836-1.278-.932-3.87-1.074-6.197.567-2.326 1.642-3.09 4.37-2.613 5.65Z"/></g><g filter="url(#h)" opacity=".6"><path fill="#8BD8A0" d="M28.929 39.67c1.823.58 3.356.878 3.424.667.067-.212-1.357-.854-3.18-1.434-1.825-.58-3.813-2.972-3.88-2.76-.067.21 1.812 2.947 3.636 3.527Z"/></g><g filter="url(#i)" opacity=".5"><path fill="#8BD8A0" d="M28.929 25.096c1.823-.58 3.356-.88 3.424-.668.067.212-1.357.854-3.18 1.434-1.825.58-3.813 2.972-3.88 2.76-.067-.21 1.812-2.947 3.636-3.526Z"/></g><g filter="url(#j)" opacity=".7"><path fill="#0D652D" d="M24.065 36.763c.943-.574 1.392-.826 1.443-.742.05.083-.317.47-1.26 1.044-.762.868-1.794-.05-1.845-.133-.05-.084.412.685 1.662-.169Z"/></g><g filter="url(#k)" opacity=".1"><ellipse cx=".148" cy="1.707" fill="#202124" rx=".148" ry="1.707" transform="rotate(-123.161 21.732 12.885) skewX(.029)"/></g><g filter="url(#l)" opacity=".3"><path fill="#fff" d="M23.585 36.047c.986-.601 1.438-.894 1.398-.961-.04-.067-.559.118-1.545.719-1.317.58-.532 1.624-.388 1.521.386-.2-.848-.511.535-1.28Z"/></g><ellipse cx=".706" cy=".831" fill="url(#m)" fill-opacity=".9" opacity=".15" rx=".706" ry=".831" transform="rotate(-16.151 140.104 -59.586) skewX(-.017)"/><ellipse cx=".706" cy=".831" fill="url(#n)" fill-opacity=".9" opacity=".15" rx=".706" ry=".831" transform="rotate(-16.151 107.936 -63.76) skewX(-.017)"/><g filter="url(#o)" opacity=".1"><ellipse cx=".148" cy="1.707" fill="#202124" rx=".148" ry="1.707" transform="matrix(-.5334 .84587 .8456 .53381 22.85 26.642)"/></g><mask id="p" width="2" height="3" x="24" y="27" maskUnits="userSpaceOnUse" style="mask-type:alpha"><path fill="#000" d="M25.672 28.48c-.211.337-.573 1.11-.727 1.453l-.804-.227.893-2.22c.3.19.848.655.638.993Z"/></mask><g mask="url(#p)"><g filter="url(#q)" opacity=".3" style="mix-blend-mode:multiply"><path fill="#0D652D" d="M25.55 28.255c-.256.605-.402 1.12-.326 1.152.075.032.288-.426.543-1.03.256-.606.457-1.127.382-1.16-.076-.031-.344.433-.6 1.038Z"/></g><g filter="url(#r)" opacity=".3" style="mix-blend-mode:screen"><path fill="#81C995" d="M25.068 29.492c-.082.168-.123.318-.09.334.033.017.103-.11.186-.278.083-.169.146-.315.114-.332-.033-.016-.127.108-.21.276Z"/></g></g><mask id="s" width="2" height="4" x="24" y="34" maskUnits="userSpaceOnUse" style="mask-type:alpha"><path fill="#000" d="M25.737 36.28c-.217-.333-.595-1.097-.757-1.438l-.798.244.938 2.2c.296-.196.835-.672.617-1.005Z"/></mask><g mask="url(#s)"><g filter="url(#t)" opacity=".3" style="mix-blend-mode:multiply"><path fill="#0D652D" d="M25.621 36.508c-.268-.6-.424-1.113-.35-1.146.075-.034.297.42.565 1.02.268.6.48 1.117.406 1.15-.075.034-.353-.425-.62-1.024Z"/></g><g filter="url(#u)" opacity=".3" style="mix-blend-mode:screen"><path fill="#81C995" d="M25.113 35.28c-.086-.166-.13-.315-.097-.332.032-.017.105.108.192.275.086.167.152.312.12.33-.033.016-.129-.106-.215-.272Z"/></g></g><g filter="url(#v)" opacity=".7"><path fill="#0D652D" d="M24.105 27.886c.956.552 1.412.793 1.46.708.05-.085-.327-.463-1.283-1.015-.782-.85-1.793.092-1.841.177-.05.084.396-.695 1.664.13Z"/></g><g filter="url(#w)" opacity=".3"><path fill="#fff" d="M23.638 28.643c.973.562 1.419.838 1.378.909-.041.07-.553-.09-1.526-.652-1.69-.64-1.467-1.91-.543-1.702.38.164-.673.733.691 1.445Z"/></g></g><ellipse cx=".432" cy=".237" fill="url(#x)" fill-opacity=".7" rx=".432" ry=".237" transform="rotate(-48.312 53.347 -12.78) skewX(-.031)"/><ellipse cx=".432" cy=".237" fill="url(#y)" fill-opacity=".7" rx=".432" ry=".237" transform="matrix(.66508 .74677 .7464 -.66549 27.42 29.14)"/><g filter="url(#z)" opacity=".09" style="mix-blend-mode:multiply"><path fill="#011B04" d="M28.816 35.14c-.533-.215-.864.011-.962.15-.498.404-.112.946.1 1.109.213.162.587.397 1.102.167.514-.229.425-1.158-.24-1.426Z"/></g><g filter="url(#A)" opacity=".09" style="mix-blend-mode:multiply"><path fill="#011B04" d="M28.824 29.558c-.53.214-.859-.012-.957-.152-.495-.403-.111-.945.1-1.108.212-.162.584-.397 1.096-.168.512.23.423 1.159-.24 1.428Z"/></g><path fill="#202124" d="M29.19 28.338c-.224-.334-.731-.388-1.134-.12-.404.269-.55.758-.327 1.093.222.335.73.388 1.133.12.403-.269.55-.758.327-1.093Z"/><g filter="url(#B)"><path fill="#000" d="M28.844 35.266c-.404-.268-.907-.22-1.124.106-.218.328-.067.81.336 1.079.403.268.906.22 1.124-.106.218-.328.067-.81-.336-1.079Z"/></g><g filter="url(#C)"><path fill="#000" d="M28.852 29.431c-.404.269-.907.221-1.124-.106-.218-.327-.067-.81.336-1.078s.906-.22 1.124.106c.217.327.067.81-.336 1.078Z"/></g><mask id="D" width="3" height="2" x="27" y="35" maskUnits="userSpaceOnUse" style="mask-type:alpha"><path fill="#202124" d="M28.844 35.267c-.404-.269-.907-.221-1.124.106-.218.327-.067.81.336 1.078.403.269.906.221 1.124-.106.218-.327.067-.81-.336-1.078Z"/></mask><g mask="url(#D)"><g filter="url(#E)"><path fill="#D8D8D8" fill-opacity=".29" d="M28.006 36.355c.314.256.681.285.837.254-.304.065-.603.041-.902-.207-.165-.137-.256-.345-.3-.498a.733.733 0 0 1-.033-.16c.005.027.008.057.015.093l.017.067c.036.107.121.251.366.45Z"/></g><g filter="url(#F)" opacity=".8"><path fill="url(#G)" d="M28.082 35.196c-.445.107-.49.47-.458.638-.063-.145.017-.406.143-.516a.587.587 0 0 1 .316-.122Z"/></g></g><mask id="H" width="3" height="2" x="27" y="28" maskUnits="userSpaceOnUse" style="mask-type:alpha"><path fill="#202124" d="M28.852 29.43c-.404.27-.907.222-1.124-.105-.218-.327-.067-.81.336-1.078.403-.269.906-.221 1.124.106.217.327.067.81-.336 1.078Z"/></mask><g mask="url(#H)"><path fill="url(#I)" d="M27.705 29.01a.534.534 0 0 0 .467.522.593.593 0 0 1-.326-.418c-.044-.241.233-.56.377-.69l-.134-.121a.781.781 0 0 0-.384.707Z"/><g filter="url(#J)"><path fill="#D8D8D8" fill-opacity=".29" d="M28.014 28.343c.315-.256.681-.285.838-.253-.305-.066-.604-.042-.902.206-.165.137-.257.345-.3.498a.732.732 0 0 0-.033.16c.005-.027.008-.057.015-.094.005-.02.01-.043.017-.066.035-.107.12-.251.365-.45Z"/></g></g><g filter="url(#K)" opacity=".8"><path fill="#E2DCE1" d="M27.886 36.015c.03.15.186.261.261.298l.112-.074a.657.657 0 0 1-.15-.112c-.059-.06-.124-.15-.149-.187l-.074.075Z"/></g><g filter="url(#L)" opacity=".8"><path fill="#E2DCE1" d="M27.893 28.677c.028-.148.178-.259.25-.296l.107.074a.628.628 0 0 0-.143.111c-.057.06-.119.148-.143.185l-.071-.074Z"/></g><g fill="#E2DCE1" filter="url(#M)" opacity=".8"><path d="M28.692 35.402c.04.072.092.183.112.23l.129.044a.609.609 0 0 0-.129-.224l-.112-.05ZM28.128 35.178a.687.687 0 0 0-.112.045h.05c.04-.022.11-.04.14-.045a.156.156 0 0 0-.078 0Z"/></g><g fill="#E2DCE1" filter="url(#N)" opacity=".8"><path d="M28.704 29.305c.04-.071.091-.183.112-.23l.128-.044a.61.61 0 0 1-.128.224l-.112.05ZM28.14 29.53a.687.687 0 0 1-.113-.045h.05c.04.022.11.039.14.044a.156.156 0 0 1-.078 0Z"/></g><g filter="url(#O)" opacity=".3"><path fill="url(#P)" fill-opacity=".4" d="M28.15 26.949c1.846 0-1.558 2.545-1.558 5.394 0 2.848 3.404 5.393 1.557 5.393-1.498-.507-3.108-2.545-3.108-5.393 0-2.849 1.787-5.046 3.108-5.394Z"/></g><g filter="url(#Q)" opacity=".2"><path fill="url(#R)" fill-opacity=".4" d="M28.15 26.949c1.846 0-1.558 2.545-1.558 5.394 0 2.848 3.404 5.393 1.557 5.393-1.498-.507-3.108-2.545-3.108-5.393 0-2.849 1.787-5.046 3.108-5.394Z"/></g></g><defs><filter id="d" width="17.275" height="15.379" x="20.91" y="27.422" color-interpolation-filters="sRGB" filterUnits="userSpaceOnUse"><feFlood flood-opacity="0" result="BackgroundImageFix"/><feBlend in="SourceGraphic" in2="BackgroundImageFix" result="shape"/><feGaussianBlur result="effect1_foregroundBlur_17717_30137" stdDeviation="2.038"/></filter><filter id="f" width="21.352" height="19.456" x="18.872" y="19.833" color-interpolation-filters="sRGB" filterUnits="userSpaceOnUse"><feFlood flood-opacity="0" result="BackgroundImageFix"/><feBlend in="SourceGraphic" in2="BackgroundImageFix" result="shape"/><feGaussianBlur result="effect1_foregroundBlur_17717_30137" stdDeviation="3.058"/></filter><filter id="h" width="13.179" height="10.391" x="22.233" y="33.071" color-interpolation-filters="sRGB" filterUnits="userSpaceOnUse"><feFlood flood-opacity="0" result="BackgroundImageFix"/><feBlend in="SourceGraphic" in2="BackgroundImageFix" result="shape"/><feGaussianBlur result="effect1_foregroundBlur_17717_30137" stdDeviation="1.529"/></filter><filter id="i" width="13.179" height="10.391" x="22.233" y="21.303" color-interpolation-filters="sRGB" filterUnits="userSpaceOnUse"><feFlood flood-opacity="0" result="BackgroundImageFix"/><feBlend in="SourceGraphic" in2="BackgroundImageFix" result="shape"/><feGaussianBlur result="effect1_foregroundBlur_17717_30137" stdDeviation="1.529"/></filter><filter id="j" width="11.267" height="9.584" x="18.323" y="31.928" color-interpolation-filters="sRGB" filterUnits="userSpaceOnUse"><feFlood flood-opacity="0" result="BackgroundImageFix"/><feBlend in="SourceGraphic" in2="BackgroundImageFix" result="shape"/><feGaussianBlur result="effect1_foregroundBlur_17717_30137" stdDeviation="2.038"/></filter><filter id="k" width="4.901" height="3.925" x="21.73" y="35.105" color-interpolation-filters="sRGB" filterUnits="userSpaceOnUse"><feFlood flood-opacity="0" result="BackgroundImageFix"/><feBlend in="SourceGraphic" in2="BackgroundImageFix" result="shape"/><feGaussianBlur result="effect1_foregroundBlur_17717_30137" stdDeviation=".51"/></filter><filter id="l" width="8.414" height="8.375" x="19.629" y="32.016" color-interpolation-filters="sRGB" filterUnits="userSpaceOnUse"><feFlood flood-opacity="0" result="BackgroundImageFix"/><feBlend in="SourceGraphic" in2="BackgroundImageFix" result="shape"/><feGaussianBlur result="effect1_foregroundBlur_17717_30137" stdDeviation="1.529"/></filter><filter id="o" width="4.93" height="3.879" x="21.75" y="25.739" color-interpolation-filters="sRGB" filterUnits="userSpaceOnUse"><feFlood flood-opacity="0" result="BackgroundImageFix"/><feBlend in="SourceGraphic" in2="BackgroundImageFix" result="shape"/><feGaussianBlur result="effect1_foregroundBlur_17717_30137" stdDeviation=".51"/></filter><filter id="q" width="5.038" height="6.27" x="23.166" y="25.178" color-interpolation-filters="sRGB" filterUnits="userSpaceOnUse"><feFlood flood-opacity="0" result="BackgroundImageFix"/><feBlend in="SourceGraphic" in2="BackgroundImageFix" result="shape"/><feGaussianBlur result="effect1_foregroundBlur_17717_30137" stdDeviation="1.019"/></filter><filter id="r" width="2.765" height="3.059" x="23.744" y="27.992" color-interpolation-filters="sRGB" filterUnits="userSpaceOnUse"><feFlood flood-opacity="0" result="BackgroundImageFix"/><feBlend in="SourceGraphic" in2="BackgroundImageFix" result="shape"/><feGaussianBlur result="effect1_foregroundBlur_17717_30137" stdDeviation=".612"/></filter><filter id="t" width="5.081" height="6.25" x="23.215" y="33.322" color-interpolation-filters="sRGB" filterUnits="userSpaceOnUse"><feFlood flood-opacity="0" result="BackgroundImageFix"/><feBlend in="SourceGraphic" in2="BackgroundImageFix" result="shape"/><feGaussianBlur result="effect1_foregroundBlur_17717_30137" stdDeviation="1.019"/></filter><filter id="u" width="2.777" height="3.053" x="23.782" y="33.724" color-interpolation-filters="sRGB" filterUnits="userSpaceOnUse"><feFlood flood-opacity="0" result="BackgroundImageFix"/><feBlend in="SourceGraphic" in2="BackgroundImageFix" result="shape"/><feGaussianBlur result="effect1_foregroundBlur_17717_30137" stdDeviation=".612"/></filter><filter id="v" width="11.287" height="9.538" x="18.36" y="23.15" color-interpolation-filters="sRGB" filterUnits="userSpaceOnUse"><feFlood flood-opacity="0" result="BackgroundImageFix"/><feBlend in="SourceGraphic" in2="BackgroundImageFix" result="shape"/><feGaussianBlur result="effect1_foregroundBlur_17717_30137" stdDeviation="2.038"/></filter><filter id="w" width="8.9" height="8.508" x="19.177" y="24.117" color-interpolation-filters="sRGB" filterUnits="userSpaceOnUse"><feFlood flood-opacity="0" result="BackgroundImageFix"/><feBlend in="SourceGraphic" in2="BackgroundImageFix" result="shape"/><feGaussianBlur result="effect1_foregroundBlur_17717_30137" stdDeviation="1.529"/></filter><filter id="z" width="2.999" height="2.834" x="26.999" y="34.44" color-interpolation-filters="sRGB" filterUnits="userSpaceOnUse"><feFlood flood-opacity="0" result="BackgroundImageFix"/><feBlend in="SourceGraphic" in2="BackgroundImageFix" result="shape"/><feGaussianBlur result="effect1_foregroundBlur_17717_30137" stdDeviation=".306"/></filter><filter id="A" width="2.991" height="2.834" x="27.014" y="27.423" color-interpolation-filters="sRGB" filterUnits="userSpaceOnUse"><feFlood flood-opacity="0" result="BackgroundImageFix"/><feBlend in="SourceGraphic" in2="BackgroundImageFix" result="shape"/><feGaussianBlur result="effect1_foregroundBlur_17717_30137" stdDeviation=".306"/></filter><filter id="B" width="2.067" height="1.94" x="27.314" y="35.092" color-interpolation-filters="sRGB" filterUnits="userSpaceOnUse"><feFlood flood-opacity="0" result="BackgroundImageFix"/><feColorMatrix in="SourceAlpha" result="hardAlpha" values="0 0 0 0 0 0 0 0 0 0 0 0 0 0 0 0 0 0 127 0"/><feOffset dx="-.102" dy=".204"/><feGaussianBlur stdDeviation=".102"/><feComposite in2="hardAlpha" operator="out"/><feColorMatrix values="0 0 0 0 0.0156863 0 0 0 0 0.231373 0 0 0 0 0.0666667 0 0 0 0.7 0"/><feBlend in2="BackgroundImageFix" result="effect1_dropShadow_17717_30137"/><feBlend in="SourceGraphic" in2="effect1_dropShadow_17717_30137" result="shape"/></filter><filter id="C" width="2.067" height="1.94" x="27.322" y="28.073" color-interpolation-filters="sRGB" filterUnits="userSpaceOnUse"><feFlood flood-opacity="0" result="BackgroundImageFix"/><feColorMatrix in="SourceAlpha" result="hardAlpha" values="0 0 0 0 0 0 0 0 0 0 0 0 0 0 0 0 0 0 127 0"/><feOffset dx="-.102" dy=".204"/><feGaussianBlur stdDeviation=".102"/><feComposite in2="hardAlpha" operator="out"/><feColorMatrix values="0 0 0 0 0.0156863 0 0 0 0 0.231373 0 0 0 0 0.0666667 0 0 0 0.7 0"/><feBlend in2="BackgroundImageFix" result="effect1_dropShadow_17717_30137"/><feBlend in="SourceGraphic" in2="effect1_dropShadow_17717_30137" result="shape"/></filter><filter id="E" width="1.644" height="1.303" x="27.404" y="35.541" color-interpolation-filters="sRGB" filterUnits="userSpaceOnUse"><feFlood flood-opacity="0" result="BackgroundImageFix"/><feBlend in="SourceGraphic" in2="BackgroundImageFix" result="shape"/><feGaussianBlur result="effect1_foregroundBlur_17717_30137" stdDeviation=".102"/></filter><filter id="F" width=".582" height=".74" x="27.551" y="35.145" color-interpolation-filters="sRGB" filterUnits="userSpaceOnUse"><feFlood flood-opacity="0" result="BackgroundImageFix"/><feBlend in="SourceGraphic" in2="BackgroundImageFix" result="shape"/><feGaussianBlur result="effect1_foregroundBlur_17717_30137" stdDeviation=".025"/></filter><filter id="J" width="1.643" height="1.303" x="27.412" y="27.855" color-interpolation-filters="sRGB" filterUnits="userSpaceOnUse"><feFlood flood-opacity="0" result="BackgroundImageFix"/><feBlend in="SourceGraphic" in2="BackgroundImageFix" result="shape"/><feGaussianBlur result="effect1_foregroundBlur_17717_30137" stdDeviation=".102"/></filter><filter id="K" width=".781" height=".781" x="27.682" y="35.736" color-interpolation-filters="sRGB" filterUnits="userSpaceOnUse"><feFlood flood-opacity="0" result="BackgroundImageFix"/><feBlend in="SourceGraphic" in2="BackgroundImageFix" result="shape"/><feGaussianBlur result="effect1_foregroundBlur_17717_30137" stdDeviation=".102"/></filter><filter id="L" width=".765" height=".777" x="27.689" y="28.177" color-interpolation-filters="sRGB" filterUnits="userSpaceOnUse"><feFlood flood-opacity="0" result="BackgroundImageFix"/><feBlend in="SourceGraphic" in2="BackgroundImageFix" result="shape"/><feGaussianBlur result="effect1_foregroundBlur_17717_30137" stdDeviation=".102"/></filter><filter id="M" width="1.121" height=".707" x="27.914" y="35.071" color-interpolation-filters="sRGB" filterUnits="userSpaceOnUse"><feFlood flood-opacity="0" result="BackgroundImageFix"/><feBlend in="SourceGraphic" in2="BackgroundImageFix" result="shape"/><feGaussianBlur result="effect1_foregroundBlur_17717_30137" stdDeviation=".051"/></filter><filter id="N" width="1.121" height=".707" x="27.925" y="28.929" color-interpolation-filters="sRGB" filterUnits="userSpaceOnUse"><feFlood flood-opacity="0" result="BackgroundImageFix"/><feBlend in="SourceGraphic" in2="BackgroundImageFix" result="shape"/><feGaussianBlur result="effect1_foregroundBlur_17717_30137" stdDeviation=".051"/></filter><filter id="O" width="11.811" height="18.941" x="20.964" y="22.872" color-interpolation-filters="sRGB" filterUnits="userSpaceOnUse"><feFlood flood-opacity="0" result="BackgroundImageFix"/><feBlend in="SourceGraphic" in2="BackgroundImageFix" result="shape"/><feGaussianBlur result="effect1_foregroundBlur_17717_30137" stdDeviation="2.038"/></filter><filter id="Q" width="11.811" height="18.941" x="20.964" y="22.872" color-interpolation-filters="sRGB" filterUnits="userSpaceOnUse"><feFlood flood-opacity="0" result="BackgroundImageFix"/><feBlend in="SourceGraphic" in2="BackgroundImageFix" result="shape"/><feGaussianBlur result="effect1_foregroundBlur_17717_30137" stdDeviation="2.038"/></filter><linearGradient id="b" x1="30.943" x2="-.124" y1="16.956" y2="48.024" gradientUnits="userSpaceOnUse"><stop stop-color="#E44857"/><stop offset=".47" stop-color="#C711E1"/><stop offset="1" stop-color="#7F52FF"/></linearGradient><linearGradient id="e" x1="27.679" x2="29.168" y1="37.549" y2="35.441" gradientUnits="userSpaceOnUse"><stop stop-color="#A8F0B9"/><stop offset="1" stop-color="#ADEEBC" stop-opacity="0"/></linearGradient><linearGradient id="g" x1="27.679" x2="29.168" y1="27.124" y2="29.232" gradientUnits="userSpaceOnUse"><stop stop-color="#A8F0B9"/><stop offset="1" stop-color="#ADEEBC" stop-opacity="0"/></linearGradient><linearGradient id="G" x1="27.446" x2="28.077" y1="35.789" y2="35.761" gradientUnits="userSpaceOnUse"><stop stop-color="#E2DDE2"/><stop offset="1" stop-color="#E2DDE2" stop-opacity="0"/></linearGradient><linearGradient id="I" x1="27.703" x2="28.223" y1="28.917" y2="28.917" gradientUnits="userSpaceOnUse"><stop stop-color="#373637"/><stop offset="1" stop-color="#373637" stop-opacity="0"/></linearGradient><linearGradient id="P" x1="24.942" x2="27.522" y1="32.343" y2="32.343" gradientUnits="userSpaceOnUse"><stop stop-color="#A8F0B9"/><stop offset="1" stop-color="#ADEEBC" stop-opacity="0"/></linearGradient><linearGradient id="R" x1="24.942" x2="27.522" y1="32.343" y2="32.343" gradientUnits="userSpaceOnUse"><stop stop-color="#A8F0B9"/><stop offset="1" stop-color="#ADEEBC" stop-opacity="0"/></linearGradient><radialGradient id="m" cx="0" cy="0" r="1" gradientTransform="matrix(.00472 .52217 -.37822 .00342 .706 .83)" gradientUnits="userSpaceOnUse"><stop stop-color="#fff"/><stop offset=".948" stop-color="#fff" stop-opacity="0"/></radialGradient><radialGradient id="n" cx="0" cy="0" r="1" gradientTransform="matrix(.00472 .52217 -.37822 .00342 .706 .83)" gradientUnits="userSpaceOnUse"><stop stop-color="#fff"/><stop offset=".948" stop-color="#fff" stop-opacity="0"/></radialGradient><radialGradient id="x" cx="0" cy="0" r="1" gradientTransform="matrix(-.00544 .2036 -.37085 -.00992 .432 .237)" gradientUnits="userSpaceOnUse"><stop stop-color="#93E19F"/><stop offset="1" stop-color="#93E19F" stop-opacity="0"/></radialGradient><radialGradient id="y" cx="0" cy="0" r="1" gradientTransform="rotate(91.532 .1 .329) scale(.20359 .37084)" gradientUnits="userSpaceOnUse"><stop stop-color="#93E19F"/><stop offset="1" stop-color="#93E19F" stop-opacity="0"/></radialGradient><clipPath id="a"><path fill="#fff" d="M0 .892h157v64H0z"/></clipPath></defs></svg>