<svg xmlns="http://www.w3.org/2000/svg" width="157" height="64" fill="none"><g clip-path="url(#a)"><path fill="#fff" d="M136.74 46.814V24.936h4.376v3.003h.257c.629-1.058 1.559-1.93 2.788-2.617a8.196 8.196 0 0 1 4.118-1.072c2.689 0 4.705.8 6.049 2.402 1.344 1.573 2.016 3.69 2.016 6.349v13.813h-4.59V33.602c0-1.774-.443-3.06-1.33-3.861-.886-.83-2.044-1.244-3.474-1.244-1.116 0-2.088.314-2.917.944-.83.6-1.487 1.4-1.974 2.402a7.655 7.655 0 0 0-.686 3.217v11.754h-4.633ZM126.36 46.815V24.937h4.633v21.878h-4.633Zm2.316-25.095c-.858 0-1.601-.3-2.23-.9a3.121 3.121 0 0 1-.901-2.231c0-.887.3-1.616.901-2.188.629-.6 1.372-.901 2.23-.901.887 0 1.63.3 2.231.9.601.573.901 1.302.901 2.189 0 .858-.3 1.601-.901 2.23-.601.6-1.344.901-2.231.901ZM115.918 46.814V16.1h4.633v30.714h-4.633ZM97.41 24.935h3.818v-6.177h4.633v6.177h5.362v4.032h-5.362v10.51c0 1.087.214 1.916.643 2.488.458.572 1.216.858 2.274.858.515 0 .972-.072 1.372-.215a11.77 11.77 0 0 0 1.202-.6v4.504a8.83 8.83 0 0 1-1.545.472c-.543.114-1.187.171-1.93.171-2.03 0-3.646-.586-4.847-1.758-1.201-1.201-1.802-2.846-1.802-4.933V28.967H97.41v-4.032ZM83.862 47.5c-2.26 0-4.247-.515-5.963-1.544a11.042 11.042 0 0 1-4.032-4.161c-.973-1.773-1.459-3.747-1.459-5.92s.486-4.132 1.459-5.877a10.955 10.955 0 0 1 4.032-4.204c1.716-1.03 3.703-1.544 5.963-1.544 2.23 0 4.204.53 5.92 1.587a11.042 11.042 0 0 1 4.032 4.161c.972 1.745 1.458 3.704 1.458 5.877 0 2.173-.486 4.147-1.458 5.92a11.042 11.042 0 0 1-4.033 4.16c-1.716 1.03-3.689 1.545-5.92 1.545Zm0-4.247a6.777 6.777 0 0 0 3.346-.858c1.03-.6 1.858-1.444 2.488-2.53.657-1.116.986-2.446.986-3.99s-.329-2.86-.986-3.947c-.63-1.115-1.459-1.958-2.488-2.53-1.03-.601-2.145-.901-3.346-.901s-2.331.3-3.39.9c-1.029.573-1.872 1.416-2.53 2.532-.63 1.086-.944 2.402-.944 3.946s.315 2.874.944 3.99c.658 1.086 1.516 1.93 2.574 2.53a6.937 6.937 0 0 0 3.346.858ZM46.941 46.814V16.1h4.719v15.1l12.783-15.1h5.834v.257L59.038 29.312l12.226 17.244v.258h-5.748L55.864 33l-4.204 4.89v8.923h-4.719Z"/><path fill="url(#b)" d="M30.94 47.024H-.13V15.969h31.07L15.403 31.487 30.94 47.024Z"/><mask id="c" width="9" height="15" x="22" y="24" maskUnits="userSpaceOnUse" style="mask-type:alpha"><path fill="#34A853" d="M30.01 24.476a7.117 7.117 0 0 0-2.451 1.125 7.167 7.167 0 0 0-1.929 2.053l-.014-.008-.745-.432-.727-.423a469.15 469.15 0 0 0-.523-.303.663.663 0 0 0-.497-.066.675.675 0 0 0-.169.07.65.65 0 0 0-.316.507.67.67 0 0 0 .02.225.654.654 0 0 0 .304.399l.523.303.727.423c.249.143.497.288.746.432l.081.047-.025.065a7.164 7.164 0 0 0-.468 2.63 7.166 7.166 0 0 0 .488 2.533l-.076.044-.745.433-.728.422-.523.303a.659.659 0 0 0-.324.624.653.653 0 0 0 .854.568.66.66 0 0 0 .128-.057 307.223 307.223 0 0 1 1.25-.726l.746-.432.006-.003a7.22 7.22 0 0 0 2.785 2.586 7.121 7.121 0 0 0 2.533.768V24.313a7.18 7.18 0 0 0-.932.163Z"/></mask><g mask="url(#c)"><path fill="#4FAF53" d="M22.373 39.47V24.236h8.567V39.47z"/><g filter="url(#d)" opacity=".8"><path fill="url(#e)" fill-opacity=".3" d="M25.124 30.927c1.064-1.51 1.18 2.74 3.507 4.382 2.327 1.641 6.368.325 5.303 1.835-1.278.933-3.87 1.075-6.197-.567-2.326-1.642-3.09-4.37-2.613-5.65Z"/></g><g filter="url(#f)" opacity=".7"><path fill="url(#g)" fill-opacity=".4" d="M25.124 31.964c1.064 1.51 1.18-2.74 3.507-4.382 2.327-1.642 6.368-.326 5.303-1.836-1.278-.932-3.87-1.074-6.197.568-2.326 1.642-3.09 4.37-2.613 5.65Z"/></g><g filter="url(#h)" opacity=".6"><path fill="#8BD8A0" d="M28.93 38.78c1.824.58 3.357.878 3.425.666.067-.211-1.357-.853-3.18-1.433-1.825-.58-3.813-2.973-3.88-2.761-.068.211 1.812 2.947 3.636 3.527Z"/></g><g filter="url(#i)" opacity=".5"><path fill="#8BD8A0" d="M28.93 24.203c1.824-.58 3.357-.878 3.425-.667.067.212-1.357.854-3.18 1.434-1.825.58-3.813 2.972-3.88 2.76-.068-.21 1.812-2.947 3.636-3.527Z"/></g><g filter="url(#j)" opacity=".7"><path fill="#0D652D" d="M24.066 35.87c.943-.573 1.392-.825 1.443-.741.05.083-.317.47-1.26 1.044-.762.868-1.794-.05-1.845-.134-.05-.083.412.686 1.662-.168Z"/></g><g filter="url(#k)" opacity=".1"><ellipse cx=".148" cy="1.707" fill="#202124" rx=".148" ry="1.707" transform="rotate(-123.161 21.491 12.44)skewX(.029)"/></g><g filter="url(#l)" opacity=".3"><path fill="#fff" d="M23.586 35.155c.986-.601 1.438-.894 1.398-.961-.04-.067-.559.118-1.545.719-1.317.58-.532 1.624-.388 1.521.387-.2-.848-.511.535-1.28Z"/></g><ellipse cx=".706" cy=".831" fill="url(#m)" fill-opacity=".9" opacity=".15" rx=".706" ry=".831" transform="rotate(-16.151 136.96 -60.035)skewX(-.017)"/><ellipse cx=".706" cy=".831" fill="url(#n)" fill-opacity=".9" opacity=".15" rx=".706" ry=".831" transform="rotate(-16.151 104.791 -64.213)skewX(-.017)"/><g filter="url(#o)" opacity=".1"><ellipse cx=".148" cy="1.707" fill="#202124" rx=".148" ry="1.707" transform="matrix(-.5334 .84587 .8456 .53381 22.852 25.75)"/></g><mask id="p" width="2" height="4" x="24" y="26" maskUnits="userSpaceOnUse" style="mask-type:alpha"><path fill="#000" d="M25.674 27.589c-.211.338-.573 1.11-.727 1.454l-.804-.228.893-2.22c.3.19.848.656.637.994Z"/></mask><g mask="url(#p)"><g filter="url(#q)" opacity=".3" style="mix-blend-mode:multiply"><path fill="#0D652D" d="M25.552 27.364c-.256.604-.402 1.12-.326 1.152.075.032.288-.426.543-1.031.256-.605.458-1.126.382-1.158-.075-.032-.344.432-.6 1.037Z"/></g><g filter="url(#r)" opacity=".3" style="mix-blend-mode:screen"><path fill="#81C995" d="M25.07 28.602c-.083.168-.124.318-.09.334.032.016.102-.11.185-.278.083-.169.146-.316.114-.332-.033-.016-.127.107-.21.276Z"/></g></g><mask id="s" width="2" height="4" x="24" y="33" maskUnits="userSpaceOnUse" style="mask-type:alpha"><path fill="#000" d="M25.738 35.39c-.218-.334-.595-1.099-.757-1.44l-.798.244.938 2.201c.296-.196.835-.672.617-1.006Z"/></mask><g mask="url(#s)"><g filter="url(#t)" opacity=".3" style="mix-blend-mode:multiply"><path fill="#0D652D" d="M25.621 35.618c-.268-.6-.424-1.113-.35-1.146.075-.034.297.42.565 1.02.268.6.48 1.117.406 1.15-.075.033-.353-.425-.62-1.024Z"/></g><g filter="url(#u)" opacity=".3" style="mix-blend-mode:screen"><path fill="#81C995" d="M25.115 34.39c-.086-.167-.13-.316-.097-.333.032-.017.105.108.192.275.086.167.152.312.12.329-.033.017-.129-.105-.215-.271Z"/></g></g><g filter="url(#v)" opacity=".7"><path fill="#0D652D" d="M24.105 26.994c.956.553 1.412.794 1.46.709.05-.085-.327-.463-1.283-1.015-.782-.85-1.793.092-1.841.177-.05.084.396-.695 1.664.13Z"/></g><g filter="url(#w)" opacity=".3"><path fill="#fff" d="M23.64 27.751c.972.562 1.418.838 1.377.909-.041.071-.553-.09-1.526-.652-1.69-.64-1.467-1.91-.543-1.702.38.164-.674.733.691 1.445Z"/></g></g><ellipse cx=".432" cy=".237" fill="url(#x)" fill-opacity=".7" rx=".432" ry=".237" transform="rotate(-48.312 52.353 -13.227)skewX(-.031)"/><ellipse cx=".432" cy=".237" fill="url(#y)" fill-opacity=".7" rx=".432" ry=".237" transform="matrix(.66508 .74677 .7464 -.66549 27.42 28.25)"/><g filter="url(#z)" opacity=".09" style="mix-blend-mode:multiply"><path fill="#011B04" d="M28.817 34.25c-.533-.216-.864.01-.962.15-.498.403-.112.946.1 1.108.213.162.588.397 1.102.168.514-.23.425-1.158-.24-1.427Z"/></g><g filter="url(#A)" opacity=".09" style="mix-blend-mode:multiply"><path fill="#011B04" d="M28.824 28.665c-.53.215-.859-.01-.957-.15-.495-.404-.111-.947.1-1.109.212-.162.584-.397 1.096-.168.512.23.423 1.159-.24 1.427Z"/></g><path fill="#202124" d="M29.19 27.447c-.223-.335-.73-.389-1.133-.12-.404.268-.55.757-.327 1.092.222.335.73.389 1.133.12.403-.268.55-.757.327-1.092Z"/><g filter="url(#B)"><path fill="#000" d="M28.845 34.374c-.404-.268-.907-.22-1.124.106-.218.327-.067.81.336 1.079.403.268.907.22 1.124-.106.218-.328.067-.81-.336-1.079Z"/></g><g filter="url(#C)"><path fill="#000" d="M28.853 28.54c-.404.268-.907.22-1.124-.107-.218-.327-.067-.81.336-1.078s.906-.22 1.124.106c.217.327.067.81-.337 1.078Z"/></g><mask id="D" width="3" height="2" x="27" y="34" maskUnits="userSpaceOnUse" style="mask-type:alpha"><path fill="#202124" d="M28.845 34.374c-.404-.268-.907-.22-1.124.106-.218.327-.067.81.336 1.079.403.268.907.22 1.124-.106.218-.328.067-.81-.336-1.079Z"/></mask><g mask="url(#D)"><g filter="url(#E)"><path fill="#D8D8D8" fill-opacity=".29" d="M28.008 35.463c.314.257.681.286.837.254-.304.065-.603.041-.902-.207-.165-.137-.256-.345-.3-.497a.716.716 0 0 1-.033-.16c.005.026.008.057.015.093l.017.067c.035.106.121.25.366.45Z"/></g><g filter="url(#F)" opacity=".8"><path fill="url(#G)" d="M28.084 34.304c-.445.106-.491.47-.459.637-.063-.145.018-.406.144-.516a.587.587 0 0 1 .315-.121Z"/></g></g><mask id="H" width="3" height="2" x="27" y="27" maskUnits="userSpaceOnUse" style="mask-type:alpha"><path fill="#202124" d="M28.853 28.54c-.404.268-.907.22-1.124-.107-.218-.327-.067-.81.336-1.078s.906-.22 1.124.106c.217.327.067.81-.337 1.078Z"/></mask><g mask="url(#H)"><path fill="url(#I)" d="M27.707 28.119a.534.534 0 0 0 .467.522.593.593 0 0 1-.326-.418c-.044-.241.233-.561.377-.69l-.135-.121a.782.782 0 0 0-.383.707Z"/><g filter="url(#J)"><path fill="#D8D8D8" fill-opacity=".29" d="M28.015 27.453c.315-.257.681-.286.837-.254-.304-.065-.603-.042-.901.207-.165.137-.257.345-.3.497a.732.732 0 0 0-.033.16c.005-.026.008-.057.015-.093l.017-.067c.035-.106.12-.25.365-.45Z"/></g></g><g filter="url(#K)" opacity=".8"><path fill="#E2DCE1" d="M27.887 35.123c.03.15.186.262.261.299l.112-.075a.657.657 0 0 1-.15-.112c-.06-.06-.124-.15-.149-.187l-.074.075Z"/></g><g filter="url(#L)" opacity=".8"><path fill="#E2DCE1" d="M27.895 27.786c.028-.148.178-.259.25-.296l.107.074a.629.629 0 0 0-.143.11c-.057.06-.119.149-.143.186l-.072-.074Z"/></g><g fill="#E2DCE1" filter="url(#M)" opacity=".8"><path d="M28.694 34.511c.04.072.092.183.112.23l.129.044a.61.61 0 0 0-.129-.224l-.112-.05ZM28.13 34.287a.673.673 0 0 0-.112.045h.05a.56.56 0 0 1 .14-.045.155.155 0 0 0-.079 0Z"/></g><g fill="#E2DCE1" filter="url(#N)" opacity=".8"><path d="M28.704 28.413c.04-.072.091-.183.112-.23l.128-.044a.61.61 0 0 1-.128.224l-.112.05ZM28.14 28.637a.687.687 0 0 1-.113-.044h.05c.04.022.11.039.14.044a.156.156 0 0 1-.078 0Z"/></g><g filter="url(#O)" opacity=".3"><path fill="url(#P)" fill-opacity=".4" d="M28.15 26.058c1.846 0-1.558 2.546-1.558 5.394 0 2.848 3.404 5.394 1.557 5.394-1.498-.508-3.108-2.545-3.108-5.394s1.787-5.046 3.108-5.394Z"/></g><g filter="url(#Q)" opacity=".2"><path fill="url(#R)" fill-opacity=".4" d="M28.15 26.058c1.846 0-1.558 2.546-1.558 5.394 0 2.848 3.404 5.394 1.557 5.394-1.498-.508-3.108-2.545-3.108-5.394s1.787-5.046 3.108-5.394Z"/></g></g><defs><filter id="d" width="17.275" height="15.378" x="20.911" y="26.53" color-interpolation-filters="sRGB" filterUnits="userSpaceOnUse"><feFlood flood-opacity="0" result="BackgroundImageFix"/><feBlend in="SourceGraphic" in2="BackgroundImageFix" result="shape"/><feGaussianBlur result="effect1_foregroundBlur_16662_1746" stdDeviation="2.038"/></filter><filter id="f" width="21.352" height="19.455" x="18.873" y="18.943" color-interpolation-filters="sRGB" filterUnits="userSpaceOnUse"><feFlood flood-opacity="0" result="BackgroundImageFix"/><feBlend in="SourceGraphic" in2="BackgroundImageFix" result="shape"/><feGaussianBlur result="effect1_foregroundBlur_16662_1746" stdDeviation="3.058"/></filter><filter id="h" width="13.18" height="10.391" x="22.235" y="32.181" color-interpolation-filters="sRGB" filterUnits="userSpaceOnUse"><feFlood flood-opacity="0" result="BackgroundImageFix"/><feBlend in="SourceGraphic" in2="BackgroundImageFix" result="shape"/><feGaussianBlur result="effect1_foregroundBlur_16662_1746" stdDeviation="1.529"/></filter><filter id="i" width="13.18" height="10.391" x="22.235" y="20.411" color-interpolation-filters="sRGB" filterUnits="userSpaceOnUse"><feFlood flood-opacity="0" result="BackgroundImageFix"/><feBlend in="SourceGraphic" in2="BackgroundImageFix" result="shape"/><feGaussianBlur result="effect1_foregroundBlur_16662_1746" stdDeviation="1.529"/></filter><filter id="j" width="11.267" height="9.584" x="18.323" y="31.036" color-interpolation-filters="sRGB" filterUnits="userSpaceOnUse"><feFlood flood-opacity="0" result="BackgroundImageFix"/><feBlend in="SourceGraphic" in2="BackgroundImageFix" result="shape"/><feGaussianBlur result="effect1_foregroundBlur_16662_1746" stdDeviation="2.038"/></filter><filter id="k" width="4.902" height="3.925" x="21.731" y="34.213" color-interpolation-filters="sRGB" filterUnits="userSpaceOnUse"><feFlood flood-opacity="0" result="BackgroundImageFix"/><feBlend in="SourceGraphic" in2="BackgroundImageFix" result="shape"/><feGaussianBlur result="effect1_foregroundBlur_16662_1746" stdDeviation=".51"/></filter><filter id="l" width="8.414" height="8.375" x="19.63" y="31.124" color-interpolation-filters="sRGB" filterUnits="userSpaceOnUse"><feFlood flood-opacity="0" result="BackgroundImageFix"/><feBlend in="SourceGraphic" in2="BackgroundImageFix" result="shape"/><feGaussianBlur result="effect1_foregroundBlur_16662_1746" stdDeviation="1.529"/></filter><filter id="o" width="4.931" height="3.878" x="21.75" y="24.848" color-interpolation-filters="sRGB" filterUnits="userSpaceOnUse"><feFlood flood-opacity="0" result="BackgroundImageFix"/><feBlend in="SourceGraphic" in2="BackgroundImageFix" result="shape"/><feGaussianBlur result="effect1_foregroundBlur_16662_1746" stdDeviation=".51"/></filter><filter id="q" width="5.04" height="6.27" x="23.167" y="24.286" color-interpolation-filters="sRGB" filterUnits="userSpaceOnUse"><feFlood flood-opacity="0" result="BackgroundImageFix"/><feBlend in="SourceGraphic" in2="BackgroundImageFix" result="shape"/><feGaussianBlur result="effect1_foregroundBlur_16662_1746" stdDeviation="1.019"/></filter><filter id="r" width="2.766" height="3.059" x="23.744" y="27.101" color-interpolation-filters="sRGB" filterUnits="userSpaceOnUse"><feFlood flood-opacity="0" result="BackgroundImageFix"/><feBlend in="SourceGraphic" in2="BackgroundImageFix" result="shape"/><feGaussianBlur result="effect1_foregroundBlur_16662_1746" stdDeviation=".612"/></filter><filter id="t" width="5.081" height="6.251" x="23.213" y="32.432" color-interpolation-filters="sRGB" filterUnits="userSpaceOnUse"><feFlood flood-opacity="0" result="BackgroundImageFix"/><feBlend in="SourceGraphic" in2="BackgroundImageFix" result="shape"/><feGaussianBlur result="effect1_foregroundBlur_16662_1746" stdDeviation="1.019"/></filter><filter id="u" width="2.776" height="3.052" x="23.785" y="32.834" color-interpolation-filters="sRGB" filterUnits="userSpaceOnUse"><feFlood flood-opacity="0" result="BackgroundImageFix"/><feBlend in="SourceGraphic" in2="BackgroundImageFix" result="shape"/><feGaussianBlur result="effect1_foregroundBlur_16662_1746" stdDeviation=".612"/></filter><filter id="v" width="11.287" height="9.537" x="18.361" y="22.259" color-interpolation-filters="sRGB" filterUnits="userSpaceOnUse"><feFlood flood-opacity="0" result="BackgroundImageFix"/><feBlend in="SourceGraphic" in2="BackgroundImageFix" result="shape"/><feGaussianBlur result="effect1_foregroundBlur_16662_1746" stdDeviation="2.038"/></filter><filter id="w" width="8.901" height="8.508" x="19.177" y="23.226" color-interpolation-filters="sRGB" filterUnits="userSpaceOnUse"><feFlood flood-opacity="0" result="BackgroundImageFix"/><feBlend in="SourceGraphic" in2="BackgroundImageFix" result="shape"/><feGaussianBlur result="effect1_foregroundBlur_16662_1746" stdDeviation="1.529"/></filter><filter id="z" width="3" height="2.834" x="27" y="33.549" color-interpolation-filters="sRGB" filterUnits="userSpaceOnUse"><feFlood flood-opacity="0" result="BackgroundImageFix"/><feBlend in="SourceGraphic" in2="BackgroundImageFix" result="shape"/><feGaussianBlur result="effect1_foregroundBlur_16662_1746" stdDeviation=".306"/></filter><filter id="A" width="2.991" height="2.834" x="27.014" y="26.531" color-interpolation-filters="sRGB" filterUnits="userSpaceOnUse"><feFlood flood-opacity="0" result="BackgroundImageFix"/><feBlend in="SourceGraphic" in2="BackgroundImageFix" result="shape"/><feGaussianBlur result="effect1_foregroundBlur_16662_1746" stdDeviation=".306"/></filter><filter id="B" width="2.068" height="1.941" x="27.315" y="34.199" color-interpolation-filters="sRGB" filterUnits="userSpaceOnUse"><feFlood flood-opacity="0" result="BackgroundImageFix"/><feColorMatrix in="SourceAlpha" result="hardAlpha" values="0 0 0 0 0 0 0 0 0 0 0 0 0 0 0 0 0 0 127 0"/><feOffset dx="-.102" dy=".204"/><feGaussianBlur stdDeviation=".102"/><feComposite in2="hardAlpha" operator="out"/><feColorMatrix values="0 0 0 0 0.0156863 0 0 0 0 0.231373 0 0 0 0 0.0666667 0 0 0 0.7 0"/><feBlend in2="BackgroundImageFix" result="effect1_dropShadow_16662_1746"/><feBlend in="SourceGraphic" in2="effect1_dropShadow_16662_1746" result="shape"/></filter><filter id="C" width="2.068" height="1.939" x="27.323" y="27.182" color-interpolation-filters="sRGB" filterUnits="userSpaceOnUse"><feFlood flood-opacity="0" result="BackgroundImageFix"/><feColorMatrix in="SourceAlpha" result="hardAlpha" values="0 0 0 0 0 0 0 0 0 0 0 0 0 0 0 0 0 0 127 0"/><feOffset dx="-.102" dy=".204"/><feGaussianBlur stdDeviation=".102"/><feComposite in2="hardAlpha" operator="out"/><feColorMatrix values="0 0 0 0 0.0156863 0 0 0 0 0.231373 0 0 0 0 0.0666667 0 0 0 0.7 0"/><feBlend in2="BackgroundImageFix" result="effect1_dropShadow_16662_1746"/><feBlend in="SourceGraphic" in2="effect1_dropShadow_16662_1746" result="shape"/></filter><filter id="E" width="1.644" height="1.302" x="27.405" y="34.65" color-interpolation-filters="sRGB" filterUnits="userSpaceOnUse"><feFlood flood-opacity="0" result="BackgroundImageFix"/><feBlend in="SourceGraphic" in2="BackgroundImageFix" result="shape"/><feGaussianBlur result="effect1_foregroundBlur_16662_1746" stdDeviation=".102"/></filter><filter id="F" width=".582" height=".741" x="27.553" y="34.252" color-interpolation-filters="sRGB" filterUnits="userSpaceOnUse"><feFlood flood-opacity="0" result="BackgroundImageFix"/><feBlend in="SourceGraphic" in2="BackgroundImageFix" result="shape"/><feGaussianBlur result="effect1_foregroundBlur_16662_1746" stdDeviation=".025"/></filter><filter id="J" width="1.642" height="1.302" x="27.413" y="26.964" color-interpolation-filters="sRGB" filterUnits="userSpaceOnUse"><feFlood flood-opacity="0" result="BackgroundImageFix"/><feBlend in="SourceGraphic" in2="BackgroundImageFix" result="shape"/><feGaussianBlur result="effect1_foregroundBlur_16662_1746" stdDeviation=".102"/></filter><filter id="K" width=".781" height=".781" x="27.683" y="34.845" color-interpolation-filters="sRGB" filterUnits="userSpaceOnUse"><feFlood flood-opacity="0" result="BackgroundImageFix"/><feBlend in="SourceGraphic" in2="BackgroundImageFix" result="shape"/><feGaussianBlur result="effect1_foregroundBlur_16662_1746" stdDeviation=".102"/></filter><filter id="L" width=".765" height=".777" x="27.691" y="27.286" color-interpolation-filters="sRGB" filterUnits="userSpaceOnUse"><feFlood flood-opacity="0" result="BackgroundImageFix"/><feBlend in="SourceGraphic" in2="BackgroundImageFix" result="shape"/><feGaussianBlur result="effect1_foregroundBlur_16662_1746" stdDeviation=".102"/></filter><filter id="M" width="1.122" height=".706" x="27.916" y="34.181" color-interpolation-filters="sRGB" filterUnits="userSpaceOnUse"><feFlood flood-opacity="0" result="BackgroundImageFix"/><feBlend in="SourceGraphic" in2="BackgroundImageFix" result="shape"/><feGaussianBlur result="effect1_foregroundBlur_16662_1746" stdDeviation=".051"/></filter><filter id="N" width="1.122" height=".708" x="27.925" y="28.037" color-interpolation-filters="sRGB" filterUnits="userSpaceOnUse"><feFlood flood-opacity="0" result="BackgroundImageFix"/><feBlend in="SourceGraphic" in2="BackgroundImageFix" result="shape"/><feGaussianBlur result="effect1_foregroundBlur_16662_1746" stdDeviation=".051"/></filter><filter id="O" width="11.81" height="18.941" x="20.964" y="21.982" color-interpolation-filters="sRGB" filterUnits="userSpaceOnUse"><feFlood flood-opacity="0" result="BackgroundImageFix"/><feBlend in="SourceGraphic" in2="BackgroundImageFix" result="shape"/><feGaussianBlur result="effect1_foregroundBlur_16662_1746" stdDeviation="2.038"/></filter><filter id="Q" width="11.81" height="18.941" x="20.964" y="21.982" color-interpolation-filters="sRGB" filterUnits="userSpaceOnUse"><feFlood flood-opacity="0" result="BackgroundImageFix"/><feBlend in="SourceGraphic" in2="BackgroundImageFix" result="shape"/><feGaussianBlur result="effect1_foregroundBlur_16662_1746" stdDeviation="2.038"/></filter><linearGradient id="b" x1="30.943" x2="-.124" y1="16.065" y2="47.133" gradientUnits="userSpaceOnUse"><stop stop-color="#E44857"/><stop offset=".47" stop-color="#C711E1"/><stop offset="1" stop-color="#7F52FF"/></linearGradient><linearGradient id="e" x1="27.68" x2="29.169" y1="36.658" y2="34.549" gradientUnits="userSpaceOnUse"><stop stop-color="#A8F0B9"/><stop offset="1" stop-color="#ADEEBC" stop-opacity="0"/></linearGradient><linearGradient id="g" x1="27.68" x2="29.169" y1="26.233" y2="28.342" gradientUnits="userSpaceOnUse"><stop stop-color="#A8F0B9"/><stop offset="1" stop-color="#ADEEBC" stop-opacity="0"/></linearGradient><linearGradient id="G" x1="27.448" x2="28.079" y1="34.896" y2="34.868" gradientUnits="userSpaceOnUse"><stop stop-color="#E2DDE2"/><stop offset="1" stop-color="#E2DDE2" stop-opacity="0"/></linearGradient><linearGradient id="I" x1="27.705" x2="28.225" y1="28.026" y2="28.026" gradientUnits="userSpaceOnUse"><stop stop-color="#373637"/><stop offset="1" stop-color="#373637" stop-opacity="0"/></linearGradient><linearGradient id="P" x1="24.942" x2="27.522" y1="31.452" y2="31.452" gradientUnits="userSpaceOnUse"><stop stop-color="#A8F0B9"/><stop offset="1" stop-color="#ADEEBC" stop-opacity="0"/></linearGradient><linearGradient id="R" x1="24.942" x2="27.522" y1="31.452" y2="31.452" gradientUnits="userSpaceOnUse"><stop stop-color="#A8F0B9"/><stop offset="1" stop-color="#ADEEBC" stop-opacity="0"/></linearGradient><radialGradient id="m" cx="0" cy="0" r="1" gradientTransform="matrix(.00472 .52217 -.37822 .00342 .706 .83)" gradientUnits="userSpaceOnUse"><stop stop-color="#fff"/><stop offset=".948" stop-color="#fff" stop-opacity="0"/></radialGradient><radialGradient id="n" cx="0" cy="0" r="1" gradientTransform="matrix(.00472 .52217 -.37822 .00342 .706 .83)" gradientUnits="userSpaceOnUse"><stop stop-color="#fff"/><stop offset=".948" stop-color="#fff" stop-opacity="0"/></radialGradient><radialGradient id="x" cx="0" cy="0" r="1" gradientTransform="matrix(-.00544 .2036 -.37085 -.00992 .432 .237)" gradientUnits="userSpaceOnUse"><stop stop-color="#93E19F"/><stop offset="1" stop-color="#93E19F" stop-opacity="0"/></radialGradient><radialGradient id="y" cx="0" cy="0" r="1" gradientTransform="rotate(91.532 .1 .329)scale(.20359 .37084)" gradientUnits="userSpaceOnUse"><stop stop-color="#93E19F"/><stop offset="1" stop-color="#93E19F" stop-opacity="0"/></radialGradient><clipPath id="a"><path fill="#fff" d="M0 0h157v64H0z"/></clipPath></defs></svg>