<svg xmlns="http://www.w3.org/2000/svg" width="196" height="196" fill="none"><path fill="#47680F" d="M17.95 58.775h160.103V137.5c0 6.627-5.373 12-12 12H29.949c-6.627 0-12-5.373-12-12V58.775Z"/><rect width="149.43" height="96.062" x="23.287" y="46.5" fill="#9BC84F" rx="6"/><path fill="#fff" fill-rule="evenodd" stroke="#fff" d="M71.829 74.5c.51-.001.957.346 1.085.843l6.278 24.476 1.759-6.091h8.431a1.12 1.12 0 0 1 1.118 1.123c0 .62-.5 1.124-1.118 1.124H82.63l-2.428 8.407c-.14.486-.586.818-1.09.81a1.12 1.12 0 0 1-1.065-.843L71.84 80.161l-8.688 34.491a1.118 1.118 0 0 1-1.083.848c-.511 0-.958-.349-1.083-.847l-6.275-24.89-1.757 6.212h-8.337A1.12 1.12 0 0 1 43.5 94.85c0-.62.5-1.123 1.117-1.123h6.65l2.431-8.6a1.118 1.118 0 0 1 1.091-.816c.506.008.944.355 1.068.848l6.212 24.642 8.68-34.454c.125-.498.57-.847 1.08-.848Z" clip-rule="evenodd"/><path fill="#fff" stroke="#fff" stroke-width="6" d="m102.977 95.874-.006-.007a11.147 11.147 0 0 1-2.598-4.085 14.735 14.735 0 0 1-.873-5.056c0-3.733 1.173-6.828 3.509-9.444 2.282-2.556 5.019-3.782 8.408-3.782 1.626 0 3.125.323 4.531.96a12.432 12.432 0 0 1 3.885 2.769l2.201 2.299 2.165-2.333a11.705 11.705 0 0 1 3.789-2.734 10.811 10.811 0 0 1 4.531-.961c3.39 0 6.142 1.227 8.447 3.79 2.36 2.623 3.534 5.696 3.534 9.37 0 1.763-.3 3.433-.895 5.03a11.935 11.935 0 0 1-2.594 4.13l-19.072 19.398-18.962-19.344Z"/></svg>