<svg width="64" height="65" viewBox="0 0 64 65" fill="none" xmlns="http://www.w3.org/2000/svg">
<path d="M5.33203 17.201C5.33203 15.7093 6.54132 14.5 8.03306 14.5H50.5623C52.0541 14.5 53.2634 15.7093 53.2634 17.201V42.8134C53.2634 44.3051 52.0541 45.5144 50.5623 45.5144H8.03306C6.54132 45.5144 5.33203 44.3051 5.33203 42.8134V17.201Z" fill="#410002"/>
<path d="M10.7344 22.6034C10.7344 21.1116 11.9437 19.9023 13.4354 19.9023H55.9647C57.4564 19.9023 58.6657 21.1116 58.6657 22.6034V48.2157C58.6657 49.7074 57.4564 50.9167 55.9647 50.9167H13.4354C11.9437 50.9167 10.7344 49.7074 10.7344 48.2157V22.6034Z" fill="#ECBD9C"/>
<path fill-rule="evenodd" clip-rule="evenodd" d="M42.4687 35.4652C42.4692 35.4676 42.4697 35.4698 42.47 35.4723C42.4692 35.188 42.2874 34.9008 41.927 34.6761C41.9018 34.6604 41.8761 34.6449 41.8493 34.6298L39.6819 33.4064L38.9888 33.0153L36.0859 31.3779V31.3782L30.4497 28.1993C30.4209 28.1831 30.3925 28.1681 30.364 28.1541C30.3554 28.1497 30.3468 28.1457 30.3383 28.1416C30.318 28.132 30.2981 28.1227 30.2781 28.1143C30.2691 28.1104 30.2599 28.1066 30.251 28.1029C30.2303 28.0944 30.2101 28.0866 30.1898 28.0794C30.1826 28.0768 30.1753 28.074 30.1681 28.0716C30.0823 28.0422 29.9991 28.0229 29.9192 28.0132C29.9181 28.013 29.9168 28.0129 29.9159 28.0128C29.6637 27.9827 29.4447 28.0482 29.2812 28.1965L29.2811 28.1963L29.2785 28.1989C29.2653 28.211 29.2525 28.2237 29.24 28.2367L29.2376 28.2393C29.2367 28.2401 29.2362 28.2409 29.2355 28.2415C29.2272 28.2505 29.2191 28.2595 29.2112 28.269C29.2064 28.2746 29.2017 28.2804 29.1969 28.2863C29.1912 28.2936 29.1852 28.3008 29.1795 28.3085C29.1689 28.3226 29.1585 28.3373 29.1486 28.3524C29.1474 28.3544 29.1463 28.3564 29.1451 28.3583C29.1355 28.3732 29.1263 28.3885 29.1176 28.4042C29.1158 28.4074 29.114 28.4108 29.1122 28.4141C29.1036 28.4298 29.0955 28.4461 29.0876 28.4628C29.0865 28.4647 29.0855 28.4669 29.0846 28.4689C29.0664 28.5083 29.05 28.5499 29.036 28.5939L29.0357 28.5948C29.029 28.6157 29.0229 28.6373 29.0171 28.6592C29.0164 28.6619 29.0157 28.6644 29.0152 28.6671C29.0097 28.689 29.0044 28.7114 28.9999 28.7343C28.9999 28.7343 28.9996 28.7358 28.9995 28.7365C28.9947 28.7608 28.9904 28.7857 28.9869 28.8113C28.9867 28.8124 28.9866 28.8137 28.9865 28.815C28.9844 28.8287 28.983 28.843 28.9815 28.857C28.9815 28.857 28.9647 29.0301 28.9648 29.0568L28.9651 29.142L28.974 37.0686L28.9773 40.1154L29.0018 41.8769L29.0183 42.1499C29.0475 42.4225 29.139 42.6371 29.2793 42.7857L29.3183 42.8233L29.3232 42.828V42.8273C29.3353 42.8378 29.3477 42.8481 29.3604 42.8578C29.3648 42.8611 29.3691 42.8647 29.3734 42.8679C29.3874 42.8782 29.4019 42.8876 29.4164 42.8968C29.4211 42.8998 29.4259 42.9029 29.4306 42.9058H29.4308C29.446 42.9149 29.4616 42.9232 29.4776 42.9312C29.4818 42.9334 29.4861 42.9356 29.4904 42.9378C29.5074 42.9457 29.5248 42.953 29.5424 42.9598C29.546 42.9612 29.5493 42.9624 29.5527 42.9638C29.5716 42.9708 29.5909 42.9768 29.6104 42.9821C29.6128 42.9828 29.6151 42.9835 29.6174 42.9842C29.6382 42.9898 29.6596 42.9944 29.6812 42.9982C29.6823 42.9984 29.6832 42.9985 29.6843 42.9988C29.9167 43.0393 30.192 42.9826 30.4865 42.8139L35.9748 39.6767H35.9862L39.0085 37.9492L39.6413 37.5874L39.6426 37.5866L40.3623 37.1749L41.8594 36.3187C42.0632 36.2023 42.2157 36.0674 42.3175 35.9236C42.4143 35.7869 42.4645 35.6419 42.469 35.4965C42.4693 35.4888 42.47 35.4809 42.47 35.4732C42.4697 35.4753 42.4693 35.4773 42.469 35.4794C42.469 35.4746 42.4689 35.4698 42.4687 35.4652Z" fill="white"/>
</svg>

