<svg xmlns="http://www.w3.org/2000/svg" width="396" height="223" fill="none"><mask id="a" width="396" height="223" x="0" y="0" maskUnits="userSpaceOnUse" style="mask-type:alpha"><path fill="#C4C4C4" d="M0 0h396v222.753H0z"/></mask><g mask="url(#a)"><path fill="#3DDC84" d="M0 0h396v222.822H0z"/></g><path fill="#073042" d="M170.125 177.833c-2.509 0-4.658-.893-6.445-2.68-1.787-1.787-2.68-3.935-2.68-6.445V53.125c0-2.51.893-4.658 2.68-6.444 1.787-1.787 3.936-2.681 6.445-2.681h54.75c2.509 0 4.658.894 6.445 2.68 1.787 1.787 2.68 3.936 2.68 6.445v115.583c0 2.51-.893 4.658-2.68 6.445-1.787 1.787-3.936 2.68-6.445 2.68h-54.75Zm0-9.125h54.75V53.125h-54.75v115.583Zm27.393-71.479c4.652 0 8.6-1.628 11.845-4.884 3.244-3.257 4.866-7.21 4.866-11.863 0-4.652-1.628-8.6-4.884-11.844-3.257-3.245-7.211-4.867-11.863-4.867-4.652 0-8.6 1.628-11.844 4.884-3.245 3.257-4.867 7.21-4.867 11.863 0 4.652 1.628 8.6 4.884 11.844 3.257 3.245 7.211 4.867 11.863 4.867Zm.009-9.125c-2.147 0-3.956-.726-5.426-2.178-1.47-1.453-2.205-3.252-2.205-5.4 0-2.146.726-3.955 2.178-5.425 1.453-1.47 3.252-2.205 5.399-2.205 2.147 0 3.956.726 5.426 2.178 1.47 1.453 2.205 3.252 2.205 5.4 0 2.146-.726 3.955-2.178 5.425-1.453 1.47-3.252 2.205-5.399 2.205Zm-12.167 33.459c1.3 0 2.381-.44 3.243-1.32.862-.879 1.293-1.969 1.293-3.27 0-1.3-.44-2.381-1.319-3.243-.88-.862-1.97-1.292-3.27-1.292-1.301 0-2.382.439-3.243 1.319-.862.879-1.293 1.969-1.293 3.27 0 1.3.44 2.381 1.319 3.243.88.862 1.97 1.293 3.27 1.293Zm24.333 0c1.301 0 2.382-.44 3.243-1.32.862-.879 1.293-1.969 1.293-3.27 0-1.3-.44-2.381-1.319-3.243-.88-.862-1.97-1.292-3.27-1.292s-2.381.439-3.243 1.319c-.862.879-1.293 1.969-1.293 3.27 0 1.3.44 2.381 1.319 3.243.88.862 1.97 1.293 3.27 1.293Zm-24.333 18.25c1.3 0 2.381-.44 3.243-1.32.862-.879 1.293-1.969 1.293-3.27 0-1.3-.44-2.381-1.319-3.243-.88-.862-1.97-1.292-3.27-1.292-1.301 0-2.382.439-3.243 1.319-.862.879-1.293 1.969-1.293 3.27 0 1.3.44 2.381 1.319 3.243.88.862 1.97 1.293 3.27 1.293Zm24.333 0c1.301 0 2.382-.44 3.243-1.32.862-.879 1.293-1.969 1.293-3.27 0-1.3-.44-2.381-1.319-3.243-.88-.862-1.97-1.292-3.27-1.292s-2.381.439-3.243 1.319c-.862.879-1.293 1.969-1.293 3.27 0 1.3.44 2.381 1.319 3.243.88.862 1.97 1.293 3.27 1.293Zm-24.333 18.25c1.3 0 2.381-.44 3.243-1.32.862-.879 1.293-1.969 1.293-3.27 0-1.3-.44-2.381-1.319-3.243-.88-.862-1.97-1.292-3.27-1.292-1.301 0-2.382.439-3.243 1.319-.862.879-1.293 1.969-1.293 3.27 0 1.3.44 2.381 1.319 3.243.88.862 1.97 1.293 3.27 1.293Zm24.333 0c1.301 0 2.382-.44 3.243-1.32.862-.879 1.293-1.969 1.293-3.27 0-1.3-.44-2.381-1.319-3.243-.88-.862-1.97-1.292-3.27-1.292s-2.381.439-3.243 1.319c-.862.879-1.293 1.969-1.293 3.27 0 1.3.44 2.381 1.319 3.243.88.862 1.97 1.293 3.27 1.293Z"/></svg>