<svg xmlns="http://www.w3.org/2000/svg" width="396" height="223" fill="none"><mask id="a" width="396" height="223" x="0" y="0" maskUnits="userSpaceOnUse" style="mask-type:alpha"><path fill="#C4C4C4" d="M0 0h396v222.753H0z"/></mask><g mask="url(#a)"><path fill="#4285F4" d="M0 0h396v222.822H0z"/></g><path fill="#EBF7FE" d="m229.168 87.435-6.53-15.187-15.794-6.986 15.794-6.834L229.168 44l6.531 14.428 15.794 6.834-15.794 6.986-6.531 15.187Zm0 90.362-6.53-14.579-15.794-6.835 15.794-6.834 6.53-15.339 6.531 15.339 15.794 6.834-15.794 6.835-6.531 14.579Zm-66.67-23.388-13.972-29.918L118 110.823l30.526-13.669 13.972-29.766 14.124 29.766 30.374 13.669-30.374 13.668-14.124 29.918Zm0-22.477 7.289-14.579 14.884-6.53-14.884-6.531-7.289-14.58-7.138 14.58-15.035 6.531 15.035 6.53 7.138 14.579Z"/></svg>