<svg xmlns="http://www.w3.org/2000/svg" width="396" height="223" fill="none"><mask id="a" width="396" height="223" x="0" y="0" maskUnits="userSpaceOnUse" style="mask-type:alpha"><path fill="#C4C4C4" d="M0 0h396v222.753H0z"/></mask><g mask="url(#a)"><path fill="#EBF7FE" d="M0 0h396v222.822H0z"/></g><path fill="#1769E0" d="m179 104.667-5.667 13-13 5.666 13 5.667L179 142l5.667-13 13-5.667-13-5.666-5.667-13Zm44.333-2-4.166 9-9 4.166 9 4.167 4.166 9 4.167-9 9-4.167-9-4.166-4.167-9Zm-82-45L153.667 83h21.666L163 57.667h14.833L190.167 83h21.666L199.5 57.667h14.833L226.667 83h21.666L236 57.667h18.667c2.666 0 5 1 7 3s3 4.333 3 7v86.666c0 2.667-1 5-3 7s-4.334 3-7 3H141.333c-2.666 0-5-1-7-3s-3-4.333-3-7V67.667c0-2.667 1-5 3-7s4.334-3 7-3Zm0 35.333v61.333h113.334V93H141.333Z"/></svg>