<svg xmlns="http://www.w3.org/2000/svg" width="396" height="223" fill="none"><mask id="a" width="396" height="223" x="0" y="0" maskUnits="userSpaceOnUse" style="mask-type:alpha"><path fill="#C4C4C4" d="M0 0h396v222.753H0z"/></mask><g mask="url(#a)"><path fill="#188038" d="M0 0h396v222.822H0z"/></g><path fill="#F5FCF6" d="M249.463 159.4h-33.138a69.08 69.08 0 0 0-.602-9.037h33.74V72.037H147.038v9.038a67.932 67.932 0 0 0-9.038-.603v-8.435c0-2.485.885-4.612 2.655-6.382 1.77-1.77 3.897-2.655 6.383-2.655h102.425c2.485 0 4.612.885 6.382 2.655 1.77 1.77 2.655 3.897 2.655 6.382v78.326c0 2.485-.885 4.612-2.655 6.382-1.77 1.77-3.897 2.655-6.382 2.655ZM138 159.4v-15.665c4.184 0 7.74 1.523 10.669 4.569 2.929 3.046 4.394 6.745 4.394 11.096H138Zm30.125 0c0-8.501-2.912-15.748-8.736-21.74-5.824-5.992-12.954-8.987-21.389-8.987v-9.038c10.91 0 20.164 3.891 27.763 11.673 7.6 7.783 11.4 17.147 11.4 28.092h-9.038Zm24.1 0c0-7.531-1.406-14.636-4.217-21.313-2.812-6.678-6.678-12.502-11.599-17.473-4.92-4.971-10.669-8.887-17.246-11.749-6.577-2.862-13.632-4.292-21.163-4.292v-9.038c8.736 0 16.945 1.682 24.627 5.046 7.682 3.364 14.385 7.933 20.109 13.707 5.723 5.774 10.242 12.552 13.556 20.334 3.314 7.783 4.971 16.042 4.971 24.778h-9.038Z"/></svg>