<svg xmlns="http://www.w3.org/2000/svg" width="396" height="223" fill="none"><mask id="a" width="396" height="223" x="0" y="0" maskUnits="userSpaceOnUse" style="mask-type:alpha"><path fill="#C4C4C4" d="M0 0h396v222.753H0z"/></mask><g mask="url(#a)"><path fill="#F5FCF6" d="M0 0h396v222.822H0z"/></g><path fill="#188038" d="m189.887 127.473 39.216-25.19-39.216-25.189v50.379Zm-24.737 26.094c-2.413 0-4.525-.905-6.335-2.715-1.81-1.81-2.715-3.922-2.715-6.335V60.05c0-2.413.905-4.525 2.715-6.335 1.81-1.81 3.922-2.715 6.335-2.715h84.467c2.413 0 4.525.905 6.335 2.715 1.81 1.81 2.715 3.922 2.715 6.335v84.467c0 2.413-.905 4.525-2.715 6.335-1.81 1.81-3.922 2.715-6.335 2.715H165.15Zm0-9.05h84.467V60.05H165.15v84.467Zm-18.1 27.15c-2.413 0-4.525-.905-6.335-2.715-1.81-1.81-2.715-3.922-2.715-6.335V69.1h9.05v93.517h93.517v9.05H147.05Z"/></svg>