<svg xmlns="http://www.w3.org/2000/svg" width="396" height="223" fill="none"><mask id="a" width="396" height="223" x="0" y="0" maskUnits="userSpaceOnUse" style="mask-type:alpha"><path fill="#C4C4C4" d="M0 0h396v222.753H0z"/></mask><g mask="url(#a)"><path fill="#D7EFFE" d="M0 0h396v222.822H0z"/></g><path fill="#073042" d="M148 171c-2.667 0-5-1-7-3s-3-4.333-3-7V61c0-2.556 1-4.861 3-6.917 2-2.055 4.333-3.083 7-3.083h100c2.556 0 4.861 1.028 6.917 3.083C256.972 56.14 258 58.444 258 61v100c0 2.667-1.028 5-3.083 7-2.056 2-4.361 3-6.917 3H148Zm0-10h26.167v-35h-3.334c-1.416 0-2.604-.479-3.562-1.438-.959-.958-1.438-2.145-1.438-3.562V61H148v100Zm73.833 0H248V61h-17.833v60c0 1.417-.479 2.604-1.438 3.562-.958.959-2.146 1.438-3.562 1.438h-3.334v35Zm-41 0h34.334v-35h-3.334c-1.416 0-2.604-.479-3.562-1.438-.959-.958-1.438-2.145-1.438-3.562V61h-17.666v60c0 1.417-.479 2.604-1.438 3.562-.958.959-2.146 1.438-3.562 1.438h-3.334v35Z"/></svg>