<svg width="41" height="41" viewBox="0 0 41 41" fill="none" xmlns="http://www.w3.org/2000/svg">
<path d="M4 27.5885C4 26.6681 4.74619 25.9219 5.66667 25.9219H15.1111V35.3663C15.1111 36.2868 14.3649 37.033 13.4444 37.033H5.66667C4.74619 37.033 4 36.2868 4 35.3663V27.5885Z" fill="#766a9d"/>
<path d="M15.1099 16.4948C15.1099 15.5743 15.8561 14.8281 16.7765 14.8281H26.221V24.2726C26.221 25.193 25.4748 25.9392 24.5543 25.9392H15.1099V16.4948Z" fill="#EE8677"/>
<path d="M26.2222 5.37565C26.2222 4.45518 26.9684 3.70898 27.8888 3.70898H35.6666C36.5871 3.70898 37.3333 4.45518 37.3333 5.37565V13.1534C37.3333 14.0739 36.5871 14.8201 35.6666 14.8201H26.2222V5.37565Z" fill="#FBB1CC"/>
</svg>
