<svg xmlns="http://www.w3.org/2000/svg" width="503" height="504" fill="none"><rect width="259.122" height="170.012" x="209.875" y="101.375" fill="#fff" stroke="#AECBFA" stroke-width="3.75" rx="9.319"/><path fill="#4285F4" d="M208 110.694c0-6.182 5.012-11.194 11.194-11.194h240.375c6.182 0 11.194 5.012 11.194 11.194v18.473H208z"/><circle cx="225.658" cy="114.333" r="6.357" fill="#C6FF00"/><circle cx="244.024" cy="114.333" r="6.357" fill="#fff"/><path fill="#34A853" d="M54.731 241.459c0-15.013 12.171-27.184 27.184-27.184H318.43c15.014 0 27.184 12.171 27.184 27.184V366.85c0 15.014-12.17 27.184-27.184 27.184H81.916c-15.014 0-27.185-12.171-27.185-27.184z"/><path fill="#fff" d="M68.894 245.471c0-10.009 8.114-18.123 18.123-18.123h226.312c10.009 0 18.123 8.114 18.123 18.123v117.367c0 10.009-8.114 18.123-18.123 18.123H87.017c-10.009 0-18.123-8.114-18.123-18.123z"/><path fill="#34A853" d="M20.958 405.474c0-6.318 5.122-11.44 11.44-11.44h334.461c6.317 0 11.439 5.122 11.439 11.44s-5.122 11.439-11.439 11.439H32.398c-6.318 0-11.44-5.122-11.44-11.439"/><path fill="#C6FF00" d="M153.871 394.034h91.514a8.716 8.716 0 0 1-8.716 8.716h-74.082a8.716 8.716 0 0 1-8.716-8.716"/><path fill="#0D652D" fill-rule="evenodd" d="M68.894 392.945c0-1.204.976-2.179 2.18-2.179h257.109a2.178 2.178 0 1 1 0 4.358H71.073a2.18 2.18 0 0 1-2.179-2.179" clip-rule="evenodd"/><path fill="#E6F4EA" d="M413.927 243.093c0 43.116-34.953 78.07-78.07 78.07s-78.07-34.954-78.07-78.07c0-43.117 34.954-78.07 78.07-78.07 43.117 0 78.07 34.953 78.07 78.07"/><mask id="a" width="82" height="88" x="295" y="199" maskUnits="userSpaceOnUse" style="mask-type:alpha"><path fill="#1D1D1B" d="M372.316 217.42a7.53 7.53 0 0 1 4.138 6.723v37.903a7.53 7.53 0 0 1-4.139 6.724l-33.066 16.681a7.53 7.53 0 0 1-6.784 0L299.4 268.77a7.53 7.53 0 0 1-4.139-6.724v-37.903a7.53 7.53 0 0 1 4.138-6.723l33.065-16.688a7.53 7.53 0 0 1 6.786 0z"/></mask><g mask="url(#a)"><path fill="#34A853" d="M332.832 200.513a6.77 6.77 0 0 1 6.051 0l37.571 18.785-40.596 20.49-40.597-20.49z"/><path fill="#202124" d="m295.261 219.298 40.597 20.481v47.363l-36.878-18.604a6.77 6.77 0 0 1-3.719-6.041z"/><path fill="#4285F4" d="m376.454 219.298-40.597 20.481v47.363l36.878-18.604a6.77 6.77 0 0 0 3.719-6.041z"/></g><path fill="#202124" d="M353.456 224.66a10.83 10.83 0 0 1 5.948 9.665v14.017c0 4.087-2.301 7.825-5.949 9.666l-12.706 6.41a10.83 10.83 0 0 1-9.752 0l-12.706-6.41a10.83 10.83 0 0 1-5.95-9.666v-14.017c0-4.086 2.301-7.824 5.948-9.665l12.706-6.412a10.83 10.83 0 0 1 9.755 0z" opacity=".5"/><path fill="#2F5187" d="M335.873 265.579v-25.801l-21.956-11.077a10.8 10.8 0 0 0-1.576 5.625v14.017c0 4.087 2.301 7.825 5.95 9.666l12.706 6.41a10.8 10.8 0 0 0 4.876 1.16" opacity=".5"/><path fill="#E6F4EA" d="M348.55 230.735a5.41 5.41 0 0 1 2.974 4.832v11.534a5.41 5.41 0 0 1-2.975 4.832l-10.247 5.17a5.42 5.42 0 0 1-4.876 0l-10.247-5.17a5.41 5.41 0 0 1-2.975-4.832v-11.534a5.41 5.41 0 0 1 2.974-4.832l10.247-5.172a5.41 5.41 0 0 1 4.878 0z"/><path fill="#34A853" d="m129.733 173.671 55.652 96.391L134.57 299.4l-55.652-96.391z"/><path fill="#E8F0FE" fill-rule="evenodd" d="M185.386 270.058a9.45 9.45 0 0 1 1.187 5.973l-.993 32.945c-.265 8.779-9.675 14.212-17.41 10.052l-29.074-15.637a9.46 9.46 0 0 1-4.528-3.993c-2.653-4.597-1.006-10.516 3.68-13.222 4.685-2.705 10.634-1.173 13.289 3.423l.003-.003c-2.648-4.595-1.021-10.498 3.637-13.187 4.64-2.68 10.539-1.159 13.209 3.393-2.61-4.589-.957-10.474 3.71-13.168 4.686-2.706 10.637-1.173 13.29 3.424" clip-rule="evenodd"/><path fill="#202124" d="M185.228 320.966c-.099 3.268-3.605 5.288-6.482 3.734l-15.232-8.228s.437-6.349 8.479-10.992 13.759-1.846 13.759-1.846z"/><path fill="#202124" fill-rule="evenodd" d="M117.883 192.111a2.096 2.096 0 0 1 2.863.767l48.951 84.786a2.095 2.095 0 0 1-3.63 2.095l-48.951-84.785a2.095 2.095 0 0 1 .767-2.863M100.822 201.961a2.096 2.096 0 0 1 2.863.767l48.951 84.785a2.096 2.096 0 1 1-3.63 2.096l-48.951-84.785a2.096 2.096 0 0 1 .767-2.863" clip-rule="evenodd"/><path fill="#E8F0FE" d="m79.076 203.268 50.815-29.338 5.914 10.244-50.815 29.337z"/><g clip-path="url(#b)"><path fill="#34A853" d="m128.942 172.632-.228-.281a29.5 29.5 0 0 0-4.314-4.263 29 29 0 0 0-2.614-1.872 29.57 29.57 0 0 0-10.353-4.103 29.6 29.6 0 0 0-4.527-.505v-.066q.002-1.773.006-3.545l.006-3.463.004-2.487q0-.294-.06-.573a2.71 2.71 0 0 0-1.327-1.791 2.66 2.66 0 0 0-1.275-.339 2.71 2.71 0 0 0-1.939.785 2.7 2.7 0 0 0-.793 1.905l-.004 2.487-.006 3.463q-.004 1.773-.006 3.545v.388l-.286.043a29.4 29.4 0 0 0-10.061 3.585q-.132.076-.262.153a29.4 29.4 0 0 0-7.327 6.115q-.353.411-.69.833-.157-.09-.313-.181l-3.073-1.768-3.002-1.725-2.156-1.241a2.695 2.695 0 0 0-3.696 1.021 2.69 2.69 0 0 0-.25 2.021 2.7 2.7 0 0 0 1.26 1.636l2.156 1.24 3.002 1.726 3.073 1.768.025.015a29.7 29.7 0 0 0-3.368 11.148 29.393 29.393 0 0 0 1.741 13.163q.064.17.13.338.236.605.5 1.203l50.817-29.339a29 29 0 0 0-.792-1.034z"/><path fill="#202124" d="M113.483 173.68c.626-1.264-.13-2.915-1.689-3.688s-3.331-.376-3.957.888.131 2.916 1.69 3.689 3.33.375 3.956-.889M89.84 185.941c.11-1.737-.941-3.218-2.349-3.308-1.407-.09-2.638 1.245-2.748 2.982-.11 1.736.943 3.217 2.35 3.307s2.638-1.245 2.748-2.981"/></g><defs><clipPath id="b"><path fill="#fff" d="m61.827 173.406 50.818-29.34 17.09 29.601-50.818 29.34z"/></clipPath></defs></svg>