<svg xmlns="http://www.w3.org/2000/svg" width="240" height="240" fill="none"><rect width="143" height="109" x="69.49" y="38.5" fill="#fff" stroke="#AECBFA" stroke-width="3" rx="5.279"/><path fill="#4285F4" d="M67.99 43.779A6.779 6.779 0 0 1 74.77 37h132.443a6.779 6.779 0 0 1 6.778 6.779V53h-146v-9.221Z"/><ellipse cx="77.789" cy="45.13" fill="#C6FF00" rx="3.528" ry="3.507"/><ellipse cx="87.98" cy="45.13" fill="#fff" rx="3.528" ry="3.507"/><path fill="#4285F4" d="M172.223 108.466c.976 0 1.767-.791 1.767-1.767v-9.993c0-.976-.791-1.767-1.767-1.767h-6.103c-.79 0-1.478-.527-1.735-1.274a24.746 24.746 0 0 0-1.168-2.82c-.348-.71-.234-1.57.325-2.128l4.316-4.315c.69-.69.69-1.809 0-2.5l-7.06-7.065a1.767 1.767 0 0 0-2.504.004l-4.276 4.304c-.559.564-1.423.678-2.136.33a24.177 24.177 0 0 0-2.81-1.165c-.749-.256-1.278-.945-1.278-1.737v-6.092c0-.976-.791-1.768-1.767-1.768h-9.993c-.976 0-1.768.792-1.768 1.768v6.092c0 .792-.528 1.48-1.277 1.737-.963.33-1.903.72-2.817 1.167-.71.348-1.569.236-2.129-.322l-4.336-4.32a1.767 1.767 0 0 0-2.496 0l-7.078 7.068a1.767 1.767 0 0 0-.001 2.5l4.306 4.307c.559.559.673 1.418.326 2.127a24.752 24.752 0 0 0-1.169 2.82c-.256.748-.944 1.274-1.734 1.274h-6.103c-.976 0-1.768.791-1.768 1.767v9.994c0 .976.792 1.767 1.768 1.767h6.102c.791 0 1.479.527 1.735 1.275.331.965.722 1.909 1.17 2.827.347.709.232 1.568-.326 2.126l-4.307 4.307a1.767 1.767 0 0 0 .002 2.501l7.075 7.059c.69.689 1.808.688 2.498-.001l4.314-4.314c.56-.56 1.421-.673 2.132-.325.912.448 1.852.837 2.814 1.166.749.257 1.277.945 1.277 1.737v6.093c0 .976.792 1.767 1.768 1.767h9.993c.976 0 1.767-.791 1.767-1.767v-6.071c0-.792.529-1.48 1.278-1.737a23.985 23.985 0 0 0 2.814-1.166c.711-.348 1.572-.235 2.132.324l4.311 4.312c.691.69 1.811.69 2.501-.002l7.052-7.068a1.767 1.767 0 0 0-.002-2.498l-4.309-4.309c-.559-.559-.673-1.417-.326-2.127.448-.917.838-1.862 1.17-2.827.256-.748.944-1.275 1.734-1.275h6.096Z"/><path fill="#fff" d="M140.992 117.383c8.655 0 15.671-7.016 15.671-15.671s-7.016-15.671-15.671-15.671c-8.654 0-15.671 7.016-15.671 15.671s7.017 15.671 15.671 15.671Z"/><path fill="#34A853" fill-rule="evenodd" d="M137.155 107h5.373c19.274 0 35.066 14.91 36.47 33.826l7.406 33.276c3.3 14.829-7.983 28.898-23.174 28.898a23.74 23.74 0 0 1-18.728-9.151l-10.676-13.706H80.155l-10.676 13.706A23.742 23.742 0 0 1 50.749 203c-15.19 0-26.473-14.069-23.172-28.898l7.407-33.284C36.392 121.906 52.182 107 71.454 107h65.701Z" clip-rule="evenodd"/><path fill="#34A853" d="M34.877 143.571c0-20.197 16.374-36.571 36.571-36.571h71.075c20.197 0 36.571 16.374 36.571 36.571 0 20.198-16.374 36.572-36.571 36.572H71.448c-20.197 0-36.571-16.374-36.571-36.572Z"/><rect width="38.175" height="38.118" x="112.21" y="121.182" fill="#C6FF00" rx="19.059"/><rect width="9.176" height="9.162" x="126.524" y="126.624" fill="#34A853" rx="4.581"/><rect width="9.162" height="9.176" x="144.877" y="135.782" fill="#34A853" rx="4.581" transform="rotate(90 144.877 135.782)"/><rect width="9.176" height="9.162" x="126.524" y="144.947" fill="#34A853" rx="4.581"/><rect width="9.162" height="9.176" x="126.524" y="135.782" fill="#34A853" rx="4.581" transform="rotate(90 126.524 135.782)"/><rect width="14.139" height="5.647" x="100.512" y="162.235" fill="#fff" rx="2.824"/><rect width="38.175" height="38.118" x="63.751" y="121.436" fill="#E6F4EA" rx="19.059"/><rect width="7.069" height="24" x="79.303" y="128.495" fill="#34A853" rx="3.535"/><rect width="7.059" height="24.036" x="94.857" y="136.965" fill="#34A853" rx="3.529" transform="rotate(90 94.857 136.965)"/><path stroke="#0D652D" stroke-linecap="round" stroke-width="3" d="M79.358 180.364h-7.92c-5.008.09-17.615-2.455-25.13-10.364-10.105-10.636-11.397-21.273-11.397-25.636M134.532 180.088h8.416c4.978.09 16.927-1.383 25.256-9.543 10.93-10.708 10.651-23.727 10.651-26.727"/></svg>