<svg xmlns="http://www.w3.org/2000/svg" width="97" height="96" fill="none"><path fill="#121212" stroke="#164590" stroke-width="1.2" d="M83.384 15.4H30.408a2.112 2.112 0 0 0-2.112 2.112v39.377c0 1.166.945 2.111 2.112 2.111h52.976a2.112 2.112 0 0 0 2.112-2.111V17.512a2.112 2.112 0 0 0-2.112-2.112Z"/><path fill="#356AC3" d="M27.696 17.511a2.712 2.712 0 0 1 2.712-2.711h52.977a2.712 2.712 0 0 1 2.711 2.711V21.2h-58.4V17.51Z"/><path fill="#A2D004" d="M31.616 19.455c.779 0 1.41-.628 1.41-1.403 0-.774-.631-1.403-1.41-1.403-.78 0-1.412.628-1.412 1.403s.632 1.403 1.412 1.403Z"/><path fill="#fff" d="M35.692 19.455c.78 0 1.411-.628 1.411-1.403 0-.774-.632-1.403-1.411-1.403-.78 0-1.411.628-1.411 1.403s.632 1.403 1.411 1.403Z"/><path fill="#356AC3" d="M69.39 43.387c.39 0 .706-.317.706-.707v-3.997a.707.707 0 0 0-.707-.707h-2.441a.742.742 0 0 1-.694-.51 9.879 9.879 0 0 0-.467-1.128.74.74 0 0 1 .13-.851l1.726-1.726a.707.707 0 0 0 0-1l-2.824-2.826a.704.704 0 0 0-1.001.002l-1.71 1.721a.743.743 0 0 1-.855.132 9.648 9.648 0 0 0-1.124-.466.742.742 0 0 1-.511-.695v-2.436a.707.707 0 0 0-.707-.708h-3.997a.707.707 0 0 0-.708.708v2.436a.742.742 0 0 1-.51.695 9.782 9.782 0 0 0-1.127.467.742.742 0 0 1-.852-.129l-1.734-1.728a.707.707 0 0 0-.999 0l-2.83 2.827a.707.707 0 0 0-.001 1l1.722 1.723c.224.224.27.567.13.851a9.918 9.918 0 0 0-.467 1.128.74.74 0 0 1-.694.51h-2.44a.707.707 0 0 0-.708.706v3.998c0 .39.317.707.707.707h2.441c.316 0 .592.21.694.51a9.9 9.9 0 0 0 .468 1.13.741.741 0 0 1-.13.851l-1.723 1.723a.707.707 0 0 0 0 1l2.83 2.824a.707.707 0 0 0 1 0l1.725-1.726a.743.743 0 0 1 .853-.13c.365.179.741.335 1.126.466.3.103.51.378.51.695v2.437c0 .39.317.707.708.707h3.997c.39 0 .707-.316.707-.707v-2.428c0-.317.211-.592.511-.695.385-.131.76-.287 1.126-.466a.743.743 0 0 1 .852.13l1.725 1.724a.707.707 0 0 0 1 0l2.821-2.828a.707.707 0 0 0 0-1l-1.724-1.723a.741.741 0 0 1-.13-.85c.178-.367.334-.745.467-1.131.103-.3.378-.51.694-.51h2.438Z"/><path fill="#121212" d="M56.897 46.953a6.268 6.268 0 1 0 0-12.537 6.268 6.268 0 0 0 0 12.537Z"/><path fill="#2A8642" fill-rule="evenodd" d="M55.362 42.8h2.15c7.709 0 14.026 5.964 14.587 13.53l2.963 13.31c1.32 5.932-3.194 11.56-9.27 11.56a9.495 9.495 0 0 1-7.491-3.66l-4.27-5.483H32.561l-4.27 5.482A9.496 9.496 0 0 1 20.8 81.2c-6.076 0-10.59-5.627-9.27-11.558l2.964-13.314c.563-7.565 6.879-13.527 14.588-13.527h26.28Z" clip-rule="evenodd"/><path fill="#2A8642" d="M14.45 57.428C14.45 49.35 21 42.8 29.08 42.8h28.43c8.078 0 14.628 6.55 14.628 14.628 0 8.08-6.55 14.629-14.629 14.629H29.08c-8.079 0-14.628-6.55-14.628-14.629Z"/><path fill="#A2D004" d="M53.03 48.473h-.022a7.624 7.624 0 1 0 0 15.247h.022a7.624 7.624 0 1 0 0-15.247Z"/><path fill="#2A8642" d="M52.948 50.65h-.006a1.832 1.832 0 0 0 0 3.664h.006a1.832 1.832 0 0 0 0-3.665ZM56.618 57.977a1.832 1.832 0 0 0 0-3.664h-.005a1.832 1.832 0 0 0 0 3.664h.005ZM52.948 57.979h-.006a1.832 1.832 0 0 0 0 3.664h.006a1.832 1.832 0 0 0 0-3.665ZM49.277 57.977a1.832 1.832 0 0 0 0-3.664h-.005a1.832 1.832 0 0 0 0 3.664h.005Z"/><path fill="#121212" d="M45.23 64.894h-3.396a1.13 1.13 0 1 0 0 2.258h3.397a1.13 1.13 0 1 0 0-2.258Z"/><path fill="#112719" d="M33.647 48.574h-.023a7.624 7.624 0 1 0 0 15.247h.023a7.624 7.624 0 1 0 0-15.247Z"/><path fill="#2A8642" d="M35.049 52.812a1.414 1.414 0 1 0-2.828 0v6.772a1.414 1.414 0 1 0 2.828 0v-6.772Z"/><path fill="#2A8642" d="M38.443 56.198c0-.78-.632-1.412-1.412-1.412H30.24a1.412 1.412 0 1 0 0 2.824h6.791c.78 0 1.412-.632 1.412-1.412Z"/><path stroke="#A8DAB5" stroke-linecap="round" stroke-width="1.2" d="M32.243 72.146h-3.168c-2.003.036-7.046-.982-10.052-4.146-4.042-4.254-4.559-8.51-4.559-10.254m39.849 14.29h3.366c1.991.035 6.771-.554 10.103-3.818 4.372-4.283 4.26-9.49 4.26-10.69"/></svg>