<svg xmlns="http://www.w3.org/2000/svg" width="480" height="480" fill="none"><circle cx="240" cy="240" r="190" fill="#34A853"/><path fill="#fff" fill-rule="evenodd" d="M362.309 285.622a119.138 119.138 0 0 0-2.116-10.555 121.04 121.04 0 0 0-4.848-15.226 121.617 121.617 0 0 0-5.568-12.165 122.86 122.86 0 0 0-22.535-30.339 123.699 123.699 0 0 0-21.829-17.145c.024-.039.047-.079.069-.119.023-.04.045-.08.069-.119 1.241-2.125 2.483-4.248 3.726-6.372 1.242-2.123 2.484-4.245 3.724-6.37l7.282-12.444c1.744-2.978 3.488-5.961 5.226-8.939a11.117 11.117 0 0 0 1.145-8.504 11.695 11.695 0 0 0-.509-1.48 11.541 11.541 0 0 0-.713-1.402 11.162 11.162 0 0 0-3.92-3.869 11.461 11.461 0 0 0-4.813-1.533c-.707-.06-1.42-.054-2.128.017a11.314 11.314 0 0 0-7.192 3.59 11.277 11.277 0 0 0-1.426 1.931 6899.742 6899.742 0 0 0-5.226 8.939l-7.282 12.444c-1.241 2.125-2.483 4.248-3.725 6.371l-.02.034a8049.86 8049.86 0 0 0-3.705 6.337l-.314.536-.002.003c-.167.285-.334.57-.499.857l-.251-.098a54.7 54.7 0 0 0-.876-.341c-13.683-5.171-28.529-8-44.046-8-.425 0-.845 0-1.27.006-13.797.137-27.055 2.514-39.419 6.781a115.5 115.5 0 0 0-4.249 1.563l-.381-.651c-.127-.216-.255-.433-.381-.65-1.239-2.123-2.48-4.244-3.721-6.365l-.004-.006a6634.876 6634.876 0 0 1-3.724-6.371l-7.282-12.444a6900.75 6900.75 0 0 1-5.227-8.939 11.277 11.277 0 0 0-1.426-1.931 11.305 11.305 0 0 0-7.192-3.59 11.637 11.637 0 0 0-2.128-.018c-1.69.143-3.338.66-4.813 1.534a11.2 11.2 0 0 0-3.919 3.869 11.261 11.261 0 0 0-1.223 2.882 11.135 11.135 0 0 0 .162 6.317c.246.749.569 1.48.983 2.187 1.744 2.978 3.488 5.961 5.226 8.939l7.282 12.444a9694.35 9694.35 0 0 0 3.725 6.371l.006.01 3.719 6.361a.71.71 0 0 0 .03.053l.016.028.014.026a124.264 124.264 0 0 0-14.265 10.239 124.14 124.14 0 0 0-21.33 22.869 121.47 121.47 0 0 0-8.978 14.513 121.393 121.393 0 0 0-12.293 36.46c-.074.434-.143.873-.212 1.308l-.027.177c-.276 1.777-.51 3.566-.708 5.367h246c-.197-1.801-.431-3.59-.707-5.367l.018-.011Zm-58.322-28.338c4.922-3.248 5.637-10.76 1.598-16.78-4.04-6.02-11.305-8.268-16.227-5.02-4.921 3.247-5.636 10.76-1.597 16.78 4.04 6.019 11.304 8.267 16.226 5.02Zm-113.14-21.77c4.922 3.247 5.637 10.76 1.598 16.78-4.04 6.02-11.305 8.267-16.226 5.02-4.922-3.248-5.637-10.76-1.598-16.78 4.04-6.02 11.305-8.267 16.226-5.02Z" clip-rule="evenodd"/></svg>