<svg xmlns="http://www.w3.org/2000/svg" width="97" height="96" fill="none"><path fill="#2A8642" d="M48.5 86c20.987 0 38-17.013 38-38s-17.013-38-38-38-38 17.013-38 38 17.013 38 38 38Z"/><path fill="#fff" fill-rule="evenodd" d="M72.962 57.124a24.217 24.217 0 0 0-2.506-7.59 24.576 24.576 0 0 0-4.508-6.067 24.742 24.742 0 0 0-4.365-3.429.565.565 0 0 0 .014-.024l.013-.023.745-1.275.745-1.274 1.457-2.489 1.045-1.787a2.224 2.224 0 0 0-.016-2.278 2.233 2.233 0 0 0-.784-.773 2.292 2.292 0 0 0-1.388-.304 2.263 2.263 0 0 0-1.723 1.105c-.35.595-.698 1.191-1.046 1.787l-1.456 2.49-.745 1.273-.004.007-.74 1.268-.064.107-.1.172-.05-.02a24.868 24.868 0 0 0-8.984-1.668l-.255.001a24.885 24.885 0 0 0-8.733 1.669l-.076-.13-.077-.13c-.247-.425-.495-.849-.744-1.273v-.001l-.745-1.275-1.457-2.488-1.045-1.788a2.26 2.26 0 0 0-2.15-1.108 2.262 2.262 0 0 0-1.99 1.657 2.226 2.226 0 0 0 .229 1.7l1.045 1.789 1.456 2.488.745 1.275.002.002.743 1.272a.11.11 0 0 0 .006.01l.003.006.003.005a24.826 24.826 0 0 0-7.119 6.622A24.277 24.277 0 0 0 24.09 56.83c-.015.086-.028.174-.042.261l-.006.035c-.055.356-.102.714-.141 1.074h49.2c-.04-.36-.087-.718-.142-1.074l.004-.002Zm-11.665-5.667c.985-.65 1.128-2.152.32-3.356-.808-1.204-2.26-1.654-3.245-1.004-.984.649-1.127 2.152-.32 3.356.808 1.203 2.261 1.653 3.246 1.004ZM38.67 47.103c.984.649 1.127 2.152.32 3.356-.809 1.204-2.262 1.653-3.246 1.004-.984-.65-1.127-2.152-.32-3.356.808-1.204 2.261-1.654 3.246-1.004Z" clip-rule="evenodd"/></svg>