<svg xmlns="http://www.w3.org/2000/svg" width="96" height="96" fill="none"><path fill="#034ECA" d="M75.49 86.258a1.497 1.497 0 0 1-2.744 1.165l-3.606-6.696a2.203 2.203 0 1 1 4.04-1.714z"/><path fill="url(#a)" d="M75.49 86.258a1.497 1.497 0 0 1-2.744 1.165l-3.606-6.696a2.203 2.203 0 1 1 4.04-1.714z"/><mask id="b" width="22" height="27" x="62" y="37" maskUnits="userSpaceOnUse" style="mask-type:alpha"><path fill="#34A853" d="M72.673 62.226a12.8 12.8 0 0 0 3.463-3.35 12.8 12.8 0 0 0 1.454-2.71c.24-.612.432-1.245.576-1.89l.028.005 1.513.284 1.479.28 1.061.199q.126.023.25.02a1.175 1.175 0 0 0 1.117-.94 1.18 1.18 0 0 0-.182-.89 1.17 1.17 0 0 0-.75-.49q-.531-.101-1.062-.2l-1.478-.279-1.513-.285-.166-.03.004-.126a12.8 12.8 0 0 0-.73-4.579l-.045-.124a12.8 12.8 0 0 0-2.33-3.974l.103-.12 1-1.17.975-1.143.7-.82a1.18 1.18 0 0 0 .277-.853 1.2 1.2 0 0 0-.1-.39 1.16 1.16 0 0 0-.835-.664 1.18 1.18 0 0 0-1.125.388l-.701.82-.976 1.144-1 1.17-.008.01a12.9 12.9 0 0 0-4.492-2.325 12.7 12.7 0 0 0-3.132-.494 12.8 12.8 0 0 0-3.336.334l8.487 24.02a13 13 0 0 0 1.474-.828"/></mask><g mask="url(#b)"><path fill="#4FAF53" d="m76.575 32.466 9.052 25.652-14.432 5.093-9.052-25.652z"/><g filter="url(#c)" opacity=".8"><path fill="url(#d)" fill-opacity=".3" d="M77.02 48.484c-.896 3.175-3.618-3.91-8.512-5.292s-10.92 3.236-10.024.061c1.599-2.33 5.882-4.11 10.776-2.728s7.803 5.52 7.76 7.96"/></g><g filter="url(#e)" opacity=".7"><path fill="url(#f)" fill-opacity=".4" d="M76.403 46.74c-2.69-1.91-.362 5.315-3.306 9.462-2.943 4.148-10.532 4.334-7.841 6.244 2.706.81 7.157-.492 10.101-4.64s2.611-9.193 1.046-11.066"/></g><g filter="url(#g)" opacity=".6"><path fill="#8BD8A0" d="M65.943 37.53c-3.417.107-6.176.515-6.164.912.012.396 2.792.63 6.21.522 3.416-.107 8.187 2.74 8.175 2.343-.013-.396-4.804-3.885-8.22-3.778"/></g><g filter="url(#h)" opacity=".5"><path fill="#8BD8A0" d="M74.602 62.066c-2.728 2.06-5.133 3.475-5.372 3.159s1.779-2.244 4.506-4.304 4.656-7.271 4.895-6.955c.24.316-1.302 6.04-4.03 8.1"/></g><g filter="url(#i)" opacity=".7"><path fill="#0D652D" d="M75.862 39.53c-1.247 1.528-1.855 2.219-1.99 2.108s.254-.98 1.501-2.507c.768-1.914 3.053-.982 3.188-.872s-1.102-.908-2.699 1.272"/></g><g filter="url(#j)" opacity=".1"><ellipse cx="75.486" cy="39.088" fill="#000" rx=".265" ry="3.049" transform="rotate(37.387 75.486 39.088)"/></g><g filter="url(#k)" opacity=".3"><path fill="#fff" d="M77.096 40.452c-1.304 1.598-1.892 2.36-1.784 2.449.109.088.87-.531 2.176-2.13 1.875-1.758-.07-3.05-.25-2.79-.532.567 1.731.355-.142 2.471"/></g><ellipse cx="77.361" cy="38.133" fill="url(#l)" fill-opacity=".9" opacity=".15" rx="1.261" ry="1.483" transform="rotate(144.421 77.36 38.133)"/><ellipse cx="82.959" cy="53.411" fill="url(#m)" fill-opacity=".9" opacity=".15" rx="1.261" ry="1.483" transform="rotate(144.421 82.959 53.41)"/><g filter="url(#n)" opacity=".1"><ellipse cx=".265" cy="3.049" fill="#000" rx=".265" ry="3.049" transform="scale(1 -1)rotate(77.188 76.95 24.65)"/></g><mask id="o" width="2" height="5" x="78" y="51" maskUnits="userSpaceOnUse" style="mask-type:alpha"><path fill="#000" d="M78.075 54.433c.154-.694.305-2.21.36-2.88l1.49-.095-.186 4.268c-.619-.142-1.818-.599-1.664-1.293"/></mask><g mask="url(#o)"><g filter="url(#p)" opacity=".3" style="mix-blend-mode:multiply"><path fill="#0D652D" d="M78.415 54.739c.07-1.17.01-2.125-.136-2.134-.146-.01-.231.889-.302 2.059-.072 1.17-.102 2.168.044 2.177.146.01.323-.932.394-2.102"/></g><g filter="url(#q)" opacity=".3" style="mix-blend-mode:screen"><path fill="#81C995" d="M78.491 52.369c.04-.333.018-.609-.047-.617-.065-.007-.108.247-.148.58s-.059.618.006.626c.065.007.15-.256.189-.59"/></g></g><mask id="r" width="4" height="5" x="73" y="39" maskUnits="userSpaceOnUse" style="mask-type:alpha"><path fill="#000" d="M73.33 41.339c.564.432 1.655 1.494 2.13 1.971l1.2-.884-2.888-3.148c-.383.507-1.007 1.628-.442 2.06"/></mask><g mask="url(#r)"><g filter="url(#s)" opacity=".3" style="mix-blend-mode:multiply"><path fill="#0D652D" d="M73.392 40.886c.807.85 1.376 1.62 1.27 1.721-.107.1-.75-.532-1.558-1.382-.807-.85-1.472-1.594-1.366-1.695s.846.506 1.654 1.356"/></g><g filter="url(#t)" opacity=".3" style="mix-blend-mode:screen"><path fill="#81C995" d="M74.976 42.65c.244.23.406.454.361.502s-.242-.119-.486-.348c-.245-.23-.443-.435-.398-.483s.279.1.523.33"/></g></g><g filter="url(#u)" opacity=".7"><path fill="#0D652D" d="M81.069 54.503c-1.94-.362-2.849-.497-2.881-.326-.032.172.826.585 2.765.946 1.822.966 2.965-1.22 2.997-1.392s-.254 1.405-2.882.771"/></g><g filter="url(#v)" opacity=".3"><path fill="#fff" d="M81.406 52.949c-1.973-.368-2.888-.568-2.86-.712.026-.144.984-.177 2.957.19 3.228.074 3.606 2.345 1.926 2.544-.737-.051.698-1.635-2.023-2.022"/></g></g><ellipse cx="70.258" cy="44.104" fill="url(#w)" fill-opacity=".7" rx=".772" ry=".424" transform="rotate(112.267 70.258 44.104)"/><ellipse cx=".771" cy=".424" fill="url(#x)" fill-opacity=".7" rx=".771" ry=".424" transform="scale(-1 1)rotate(-28.859 68.261 172.416)"/><g filter="url(#y)" opacity=".09" style="mix-blend-mode:multiply"><path fill="#011B04" d="M68.825 45.088c1.024.046 1.447-.532 1.53-.826.6-.974-.373-1.658-.828-1.805s-1.225-.32-1.955.372-.028 2.203 1.252 2.26"/></g><g filter="url(#z)" opacity=".09" style="mix-blend-mode:multiply"><path fill="#011B04" d="M72.128 54.493c.764-.677 1.452-.492 1.701-.315 1.074.385.75 1.527.49 1.926s-.748 1.016-1.746.934c-.999-.082-1.4-1.7-.445-2.545"/></g><path fill="#000" d="M72.287 56.74c.575.431 1.462.22 1.982-.471.52-.692.477-1.602-.098-2.033-.574-.431-1.462-.22-1.982.471-.52.692-.476 1.602.098 2.033"/><g filter="url(#A)"><path fill="#000" d="M68.75 44.875c.84.212 1.66-.167 1.832-.846.172-.68-.369-1.403-1.208-1.616-.84-.212-1.66.167-1.832.847s.368 1.403 1.208 1.615"/></g><g filter="url(#B)"><path fill="#000" d="M72.206 54.7c.52-.69 1.396-.91 1.957-.489s.595 1.323.075 2.014-1.397.91-1.958.49c-.561-.422-.594-1.324-.074-2.015"/></g><mask id="C" width="4" height="3" x="67" y="42" maskUnits="userSpaceOnUse" style="mask-type:alpha"><path fill="#202124" d="M68.75 44.875c.84.212 1.66-.167 1.832-.847s-.369-1.403-1.208-1.615c-.84-.212-1.66.167-1.832.847s.368 1.403 1.208 1.615"/></mask><g mask="url(#C)"><g filter="url(#D)"><path fill="#D8D8D8" fill-opacity=".29" d="M69.467 42.562c-.683-.246-1.318-.076-1.563.07.475-.29.992-.429 1.643-.188.36.132.637.429.802.659q.041.054.069.102.056.09.082.147c-.026-.04-.049-.09-.082-.147l-.07-.102c-.121-.159-.351-.351-.882-.541"/></g><g filter="url(#E)" opacity=".8"><path fill="url(#F)" d="M70.025 44.558c.686-.444.549-1.083.394-1.346.192.206.212.693.065.954-.118.208-.355.348-.46.392"/></g></g><mask id="G" width="4" height="4" x="71" y="53" maskUnits="userSpaceOnUse" style="mask-type:alpha"><path fill="#202124" d="M72.208 54.7c.52-.69 1.396-.91 1.957-.489s.595 1.323.075 2.014c-.52.692-1.397.91-1.958.49-.561-.422-.594-1.323-.074-2.014"/></mask><g mask="url(#G)"><path fill="url(#H)" d="M74.337 54.749a.954.954 0 0 0-1.098-.6c.175.01.58.128.797.508s-.058 1.083-.224 1.387l.298.123c.187-.21.494-.789.227-1.418"/><g filter="url(#I)"><path fill="#D8D8D8" fill-opacity=".29" d="M74.211 56.055c-.377.62-.978.886-1.26.926.552-.072 1.041-.29 1.397-.885.196-.328.226-.733.21-1.016a1 1 0 0 0-.01-.122 1 1 0 0 0-.029-.166c.006.047.02.1.029.166q.007.056.01.122c.004.2-.054.494-.347.975"/></g></g><g filter="url(#J)" opacity=".8"><path fill="#E2DCE1" d="M69.872 43.062c-.14-.234-.47-.33-.618-.348l-.144.193c.05.006.182.034.318.1.136.064.298.177.362.225z"/></g><g filter="url(#K)" opacity=".8"><path fill="#E2DCE1" d="M74.217 55.421c.04.266-.148.542-.246.647l-.225-.06c.033-.036.114-.139.175-.273a2.5 2.5 0 0 0 .132-.395z"/></g><g fill="#E2DCE1" filter="url(#L)" opacity=".8"><path d="M68.876 44.574a6 6 0 0 1-.325-.32l-.243.001c.126.167.285.27.35.3zM69.96 44.615c.055-.037.13-.11.162-.142l-.085.03a1 1 0 0 1-.209.158c.021 0 .077-.01.132-.046"/></g><g fill="#E2DCE1" filter="url(#M)" opacity=".8"><path d="M72.478 54.846a6 6 0 0 0-.052.454l-.19.151c-.006-.21.053-.39.084-.453zM73.297 54.133c.065-.006.17.004.215.01l-.085.03a1 1 0 0 0-.262.007.3.3 0 0 1 .132-.047"/></g><g filter="url(#N)" opacity=".3"><path fill="url(#O)" fill-opacity=".4" d="M74.813 58.483c-3.111 1.098 1.11-5.21-.582-10.006s-8.938-7.058-5.827-8.156c2.825-.036 6.748 2.438 8.44 7.233 1.693 4.796-.012 9.558-2.031 10.93"/></g><g filter="url(#P)" opacity=".2"><path fill="url(#Q)" fill-opacity=".4" d="M74.813 58.483c-3.111 1.098 1.11-5.21-.582-10.006s-8.938-7.058-5.827-8.156c2.825-.036 6.748 2.438 8.44 7.233 1.693 4.796-.012 9.558-2.031 10.93"/></g><path fill="#4386F5" d="M22.843 45.458c-.667-1.177-1.808-2.022-3.173-2.35-1.365-.326-2.842-.107-4.105.608s-2.211 1.87-2.633 3.208-.17 2.955.496 4.132l4.87-2.512z"/><path stroke="url(#R)" stroke-width="10.953" d="M59.644 61.571c-15.439 6.597-33.094.617-41.533-13.353"/><ellipse cx="18.038" cy="46.293" fill="url(#S)" fill-opacity=".9" opacity=".3" rx="3.286" ry="4.366" transform="rotate(75 18.038 46.293)"/><path fill="#034ECA" d="M20.739 86.258a1.497 1.497 0 0 0 2.744 1.165l3.606-6.696a2.203 2.203 0 1 0-4.039-1.714z"/><path fill="url(#T)" d="M20.739 86.258a1.497 1.497 0 0 0 2.744 1.165l3.606-6.696a2.203 2.203 0 1 0-4.039-1.714z"/><rect width="12.4" height="65.6" fill="#4285F4" rx="6.2" transform="scale(-1 1)rotate(-20 34.642 160.813)"/><path fill="url(#U)" d="M26.305 81.412a6.18 6.18 0 0 0 6.43-4.035l14.78-40.607a6.18 6.18 0 0 0-1.607-6.649z"/><rect width="7.8" height="15.2" x="44.218" y="7.947" fill="#4285F4" rx="3.9"/><rect width="7.8" height="15.2" x="44.218" y="7.947" fill="url(#V)" rx="3.9"/><g filter="url(#W)" opacity=".5"><path fill="#044FCB" d="M55.845 68.306c-1.525.131.933-1.755.557-6.142-.253-2.958.777-5.462 2.303-5.593 1.525-.13 2.966 2.162 3.22 5.12 1.262 4.74-4.555 6.485-6.08 6.615"/></g><path fill="url(#X)" d="M45.32 27.314a6.13 6.13 0 0 1 11.51-4.217L75.18 73.182a6.13 6.13 0 1 1-11.51 4.217z"/><path fill="url(#Y)" d="M43.218 21.147a7.2 7.2 0 0 0-5 4.52L20.97 73.037c-1.051 2.886 0 6.01 2.249 7.41z"/><ellipse cx="46.863" cy="10.52" fill="url(#Z)" fill-opacity=".9" opacity=".3" rx="2.238" ry="2.739" transform="rotate(45 46.863 10.52)"/><ellipse cx="41.015" cy="31.865" fill="url(#aa)" fill-opacity=".9" opacity=".3" rx="5.465" ry="8.529" transform="rotate(30 41.015 31.865)"/><circle cx="48.018" cy="26.547" r="7.6" fill="#fff" stroke="#202124" stroke-width="4"/><defs><filter id="c" width="20.224" height="10.852" x="57.595" y="39.242" color-interpolation-filters="sRGB" filterUnits="userSpaceOnUse"><feFlood flood-opacity="0" result="BackgroundImageFix"/><feBlend in="SourceGraphic" in2="BackgroundImageFix" result="shape"/><feGaussianBlur result="effect1_foregroundBlur_24242_6820" stdDeviation=".4"/></filter><filter id="e" width="15.29" height="18.646" x="63.49" y="45.226" color-interpolation-filters="sRGB" filterUnits="userSpaceOnUse"><feFlood flood-opacity="0" result="BackgroundImageFix"/><feBlend in="SourceGraphic" in2="BackgroundImageFix" result="shape"/><feGaussianBlur result="effect1_foregroundBlur_24242_6820" stdDeviation=".599"/></filter><filter id="g" width="15.584" height="5.016" x="59.18" y="36.928" color-interpolation-filters="sRGB" filterUnits="userSpaceOnUse"><feFlood flood-opacity="0" result="BackgroundImageFix"/><feBlend in="SourceGraphic" in2="BackgroundImageFix" result="shape"/><feGaussianBlur result="effect1_foregroundBlur_24242_6820" stdDeviation=".3"/></filter><filter id="h" width="10.643" height="12.515" x="68.612" y="53.353" color-interpolation-filters="sRGB" filterUnits="userSpaceOnUse"><feFlood flood-opacity="0" result="BackgroundImageFix"/><feBlend in="SourceGraphic" in2="BackgroundImageFix" result="shape"/><feGaussianBlur result="effect1_foregroundBlur_24242_6820" stdDeviation=".3"/></filter><filter id="i" width="6.323" height="5.312" x="73.047" y="37.137" color-interpolation-filters="sRGB" filterUnits="userSpaceOnUse"><feFlood flood-opacity="0" result="BackgroundImageFix"/><feBlend in="SourceGraphic" in2="BackgroundImageFix" result="shape"/><feGaussianBlur result="effect1_foregroundBlur_24242_6820" stdDeviation=".4"/></filter><filter id="j" width="4.127" height="5.256" x="73.422" y="36.46" color-interpolation-filters="sRGB" filterUnits="userSpaceOnUse"><feFlood flood-opacity="0" result="BackgroundImageFix"/><feBlend in="SourceGraphic" in2="BackgroundImageFix" result="shape"/><feGaussianBlur result="effect1_foregroundBlur_24242_6820" stdDeviation=".1"/></filter><filter id="k" width="4.196" height="6.161" x="74.7" y="37.347" color-interpolation-filters="sRGB" filterUnits="userSpaceOnUse"><feFlood flood-opacity="0" result="BackgroundImageFix"/><feBlend in="SourceGraphic" in2="BackgroundImageFix" result="shape"/><feGaussianBlur result="effect1_foregroundBlur_24242_6820" stdDeviation=".3"/></filter><filter id="n" width="6.348" height="1.848" x="77.832" y="53.992" color-interpolation-filters="sRGB" filterUnits="userSpaceOnUse"><feFlood flood-opacity="0" result="BackgroundImageFix"/><feBlend in="SourceGraphic" in2="BackgroundImageFix" result="shape"/><feGaussianBlur result="effect1_foregroundBlur_24242_6820" stdDeviation=".1"/></filter><filter id="p" width="1.327" height="5.036" x="77.517" y="52.205" color-interpolation-filters="sRGB" filterUnits="userSpaceOnUse"><feFlood flood-opacity="0" result="BackgroundImageFix"/><feBlend in="SourceGraphic" in2="BackgroundImageFix" result="shape"/><feGaussianBlur result="effect1_foregroundBlur_24242_6820" stdDeviation=".2"/></filter><filter id="q" width=".73" height="1.685" x="78.02" y="51.512" color-interpolation-filters="sRGB" filterUnits="userSpaceOnUse"><feFlood flood-opacity="0" result="BackgroundImageFix"/><feBlend in="SourceGraphic" in2="BackgroundImageFix" result="shape"/><feGaussianBlur result="effect1_foregroundBlur_24242_6820" stdDeviation=".12"/></filter><filter id="s" width="3.746" height="3.898" x="71.327" y="39.12" color-interpolation-filters="sRGB" filterUnits="userSpaceOnUse"><feFlood flood-opacity="0" result="BackgroundImageFix"/><feBlend in="SourceGraphic" in2="BackgroundImageFix" result="shape"/><feGaussianBlur result="effect1_foregroundBlur_24242_6820" stdDeviation=".2"/></filter><filter id="t" width="1.378" height="1.328" x="74.207" y="42.072" color-interpolation-filters="sRGB" filterUnits="userSpaceOnUse"><feFlood flood-opacity="0" result="BackgroundImageFix"/><feBlend in="SourceGraphic" in2="BackgroundImageFix" result="shape"/><feGaussianBlur result="effect1_foregroundBlur_24242_6820" stdDeviation=".12"/></filter><filter id="u" width="7.363" height="3.248" x="77.388" y="52.919" color-interpolation-filters="sRGB" filterUnits="userSpaceOnUse"><feFlood flood-opacity="0" result="BackgroundImageFix"/><feBlend in="SourceGraphic" in2="BackgroundImageFix" result="shape"/><feGaussianBlur result="effect1_foregroundBlur_24242_6820" stdDeviation=".4"/></filter><filter id="v" width="7.063" height="4.033" x="77.945" y="51.537" color-interpolation-filters="sRGB" filterUnits="userSpaceOnUse"><feFlood flood-opacity="0" result="BackgroundImageFix"/><feBlend in="SourceGraphic" in2="BackgroundImageFix" result="shape"/><feGaussianBlur result="effect1_foregroundBlur_24242_6820" stdDeviation=".3"/></filter><filter id="y" width="3.508" height="3.007" x="67.156" y="42.204" color-interpolation-filters="sRGB" filterUnits="userSpaceOnUse"><feFlood flood-opacity="0" result="BackgroundImageFix"/><feBlend in="SourceGraphic" in2="BackgroundImageFix" result="shape"/><feGaussianBlur result="effect1_foregroundBlur_24242_6820" stdDeviation=".06"/></filter><filter id="z" width="3.232" height="3.271" x="71.464" y="53.894" color-interpolation-filters="sRGB" filterUnits="userSpaceOnUse"><feFlood flood-opacity="0" result="BackgroundImageFix"/><feBlend in="SourceGraphic" in2="BackgroundImageFix" result="shape"/><feGaussianBlur result="effect1_foregroundBlur_24242_6820" stdDeviation=".06"/></filter><filter id="A" width="3.184" height="2.66" x="67.45" y="42.355" color-interpolation-filters="sRGB" filterUnits="userSpaceOnUse"><feFlood flood-opacity="0" result="BackgroundImageFix"/><feColorMatrix in="SourceAlpha" result="hardAlpha" values="0 0 0 0 0 0 0 0 0 0 0 0 0 0 0 0 0 0 127 0"/><feOffset dx="-.02" dy=".04"/><feGaussianBlur stdDeviation=".02"/><feComposite in2="hardAlpha" operator="out"/><feColorMatrix values="0 0 0 0 0.0156863 0 0 0 0 0.231373 0 0 0 0 0.0666667 0 0 0 0.7 0"/><feBlend in2="BackgroundImageFix" result="effect1_dropShadow_24242_6820"/><feBlend in="SourceGraphic" in2="effect1_dropShadow_24242_6820" result="shape"/></filter><filter id="B" width="2.85" height="3.011" x="71.776" y="53.997" color-interpolation-filters="sRGB" filterUnits="userSpaceOnUse"><feFlood flood-opacity="0" result="BackgroundImageFix"/><feColorMatrix in="SourceAlpha" result="hardAlpha" values="0 0 0 0 0 0 0 0 0 0 0 0 0 0 0 0 0 0 127 0"/><feOffset dx="-.02" dy=".04"/><feGaussianBlur stdDeviation=".02"/><feComposite in2="hardAlpha" operator="out"/><feColorMatrix values="0 0 0 0 0.0156863 0 0 0 0 0.231373 0 0 0 0 0.0666667 0 0 0 0.7 0"/><feBlend in2="BackgroundImageFix" result="effect1_dropShadow_24242_6820"/><feBlend in="SourceGraphic" in2="effect1_dropShadow_24242_6820" result="shape"/></filter><filter id="D" width="2.676" height="1.112" x="67.864" y="42.281" color-interpolation-filters="sRGB" filterUnits="userSpaceOnUse"><feFlood flood-opacity="0" result="BackgroundImageFix"/><feBlend in="SourceGraphic" in2="BackgroundImageFix" result="shape"/><feGaussianBlur result="effect1_foregroundBlur_24242_6820" stdDeviation=".02"/></filter><filter id="E" width=".577" height="1.367" x="70.014" y="43.202" color-interpolation-filters="sRGB" filterUnits="userSpaceOnUse"><feFlood flood-opacity="0" result="BackgroundImageFix"/><feBlend in="SourceGraphic" in2="BackgroundImageFix" result="shape"/><feGaussianBlur result="effect1_foregroundBlur_24242_6820" stdDeviation=".005"/></filter><filter id="I" width="1.69" height="2.269" x="72.911" y="54.752" color-interpolation-filters="sRGB" filterUnits="userSpaceOnUse"><feFlood flood-opacity="0" result="BackgroundImageFix"/><feBlend in="SourceGraphic" in2="BackgroundImageFix" result="shape"/><feGaussianBlur result="effect1_foregroundBlur_24242_6820" stdDeviation=".02"/></filter><filter id="J" width=".842" height=".598" x="69.07" y="42.674" color-interpolation-filters="sRGB" filterUnits="userSpaceOnUse"><feFlood flood-opacity="0" result="BackgroundImageFix"/><feBlend in="SourceGraphic" in2="BackgroundImageFix" result="shape"/><feGaussianBlur result="effect1_foregroundBlur_24242_6820" stdDeviation=".02"/></filter><filter id="K" width=".556" height=".808" x="73.706" y="55.3" color-interpolation-filters="sRGB" filterUnits="userSpaceOnUse"><feFlood flood-opacity="0" result="BackgroundImageFix"/><feBlend in="SourceGraphic" in2="BackgroundImageFix" result="shape"/><feGaussianBlur result="effect1_foregroundBlur_24242_6820" stdDeviation=".02"/></filter><filter id="L" width="1.854" height=".447" x="68.288" y="44.234" color-interpolation-filters="sRGB" filterUnits="userSpaceOnUse"><feFlood flood-opacity="0" result="BackgroundImageFix"/><feBlend in="SourceGraphic" in2="BackgroundImageFix" result="shape"/><feGaussianBlur result="effect1_foregroundBlur_24242_6820" stdDeviation=".01"/></filter><filter id="M" width="1.315" height="1.36" x="72.216" y="54.111" color-interpolation-filters="sRGB" filterUnits="userSpaceOnUse"><feFlood flood-opacity="0" result="BackgroundImageFix"/><feBlend in="SourceGraphic" in2="BackgroundImageFix" result="shape"/><feGaussianBlur result="effect1_foregroundBlur_24242_6820" stdDeviation=".01"/></filter><filter id="N" width="11.497" height="19.887" x="66.838" y="39.521" color-interpolation-filters="sRGB" filterUnits="userSpaceOnUse"><feFlood flood-opacity="0" result="BackgroundImageFix"/><feBlend in="SourceGraphic" in2="BackgroundImageFix" result="shape"/><feGaussianBlur result="effect1_foregroundBlur_24242_6820" stdDeviation=".4"/></filter><filter id="P" width="11.497" height="19.887" x="66.838" y="39.521" color-interpolation-filters="sRGB" filterUnits="userSpaceOnUse"><feFlood flood-opacity="0" result="BackgroundImageFix"/><feBlend in="SourceGraphic" in2="BackgroundImageFix" result="shape"/><feGaussianBlur result="effect1_foregroundBlur_24242_6820" stdDeviation=".4"/></filter><filter id="W" width="8.762" height="13.747" x="54.341" y="55.566" color-interpolation-filters="sRGB" filterUnits="userSpaceOnUse"><feFlood flood-opacity="0" result="BackgroundImageFix"/><feBlend in="SourceGraphic" in2="BackgroundImageFix" result="shape"/><feGaussianBlur result="effect1_foregroundBlur_24242_6820" stdDeviation=".5"/></filter><linearGradient id="a" x1="74.517" x2="70.568" y1="87.839" y2="85.599" gradientUnits="userSpaceOnUse"><stop stop-color="#4285F4"/><stop offset="1" stop-color="#034ECA"/></linearGradient><linearGradient id="d" x1="69.308" x2="68.056" y1="40.355" y2="44.791" gradientUnits="userSpaceOnUse"><stop stop-color="#A8F0B9"/><stop offset="1" stop-color="#ADEEBC" stop-opacity="0"/></linearGradient><linearGradient id="f" x1="75.501" x2="71.743" y1="57.909" y2="55.241" gradientUnits="userSpaceOnUse"><stop stop-color="#A8F0B9"/><stop offset="1" stop-color="#ADEEBC" stop-opacity="0"/></linearGradient><linearGradient id="F" x1="70.745" x2="69.699" y1="43.182" y2="43.605" gradientUnits="userSpaceOnUse"><stop stop-color="#E2DDE2"/><stop offset="1" stop-color="#E2DDE2" stop-opacity="0"/></linearGradient><linearGradient id="H" x1="74.394" x2="73.519" y1="54.904" y2="55.212" gradientUnits="userSpaceOnUse"><stop stop-color="#373637"/><stop offset="1" stop-color="#373637" stop-opacity="0"/></linearGradient><linearGradient id="O" x1="77.011" x2="72.665" y1="47.496" y2="49.029" gradientUnits="userSpaceOnUse"><stop stop-color="#A8F0B9"/><stop offset="1" stop-color="#ADEEBC" stop-opacity="0"/></linearGradient><linearGradient id="Q" x1="77.011" x2="72.665" y1="47.496" y2="49.029" gradientUnits="userSpaceOnUse"><stop stop-color="#A8F0B9"/><stop offset="1" stop-color="#ADEEBC" stop-opacity="0"/></linearGradient><linearGradient id="R" x1="44.118" x2="63.118" y1="61.747" y2="60.247" gradientUnits="userSpaceOnUse"><stop stop-color="#4285F4"/><stop offset=".703" stop-color="#044FCB"/></linearGradient><linearGradient id="T" x1="22.417" x2="26.514" y1="86.839" y2="84.421" gradientUnits="userSpaceOnUse"><stop stop-color="#4285F4"/><stop offset="1" stop-color="#034ECA"/></linearGradient><linearGradient id="U" x1="41.213" x2="39.029" y1="52.447" y2="51.69" gradientUnits="userSpaceOnUse"><stop stop-color="#73A7FF"/><stop offset="1" stop-color="#5893F6" stop-opacity="0"/></linearGradient><linearGradient id="V" x1="48.118" x2="51.55" y1="12.309" y2="15.398" gradientUnits="userSpaceOnUse"><stop stop-color="#4285F4"/><stop offset="1" stop-color="#034ECA"/></linearGradient><linearGradient id="X" x1="51.959" x2="62.34" y1="32.512" y2="54.209" gradientUnits="userSpaceOnUse"><stop stop-color="#034DC9"/><stop offset="1" stop-color="#4285F4"/></linearGradient><linearGradient id="Y" x1="26.837" x2="32.307" y1="50.39" y2="52.267" gradientUnits="userSpaceOnUse"><stop stop-color="#9BC0FF"/><stop offset="1" stop-color="#5893F6" stop-opacity="0"/></linearGradient><radialGradient id="l" cx="0" cy="0" r="1" gradientTransform="matrix(.00843 .93233 -.67562 .0061 77.36 38.133)" gradientUnits="userSpaceOnUse"><stop stop-color="#fff"/><stop offset=".948" stop-color="#fff" stop-opacity="0"/></radialGradient><radialGradient id="m" cx="0" cy="0" r="1" gradientTransform="matrix(.00843 .93233 -.67562 .0061 82.959 53.41)" gradientUnits="userSpaceOnUse"><stop stop-color="#fff"/><stop offset=".948" stop-color="#fff" stop-opacity="0"/></radialGradient><radialGradient id="w" cx="0" cy="0" r="1" gradientTransform="rotate(91.532 13.66 56.254)scale(.36376 .66251)" gradientUnits="userSpaceOnUse"><stop stop-color="#93E19F"/><stop offset="1" stop-color="#93E19F" stop-opacity="0"/></radialGradient><radialGradient id="x" cx="0" cy="0" r="1" gradientTransform="rotate(91.532 .18 .587)scale(.36361 .66224)" gradientUnits="userSpaceOnUse"><stop stop-color="#93E19F"/><stop offset="1" stop-color="#93E19F" stop-opacity="0"/></radialGradient><radialGradient id="S" cx="0" cy="0" r="1" gradientTransform="matrix(.02198 2.74462 -1.76151 .0141 18.038 46.293)" gradientUnits="userSpaceOnUse"><stop stop-color="#fff"/><stop offset=".948" stop-color="#fff" stop-opacity="0"/></radialGradient><radialGradient id="Z" cx="0" cy="0" r="1" gradientTransform="rotate(89.502 18.126 28.896)scale(1.72203 1.1997)" gradientUnits="userSpaceOnUse"><stop stop-color="#fff"/><stop offset=".948" stop-color="#fff" stop-opacity="0"/></radialGradient><radialGradient id="aa" cx="0" cy="0" r="1" gradientTransform="rotate(89.61 4.466 36.58)scale(5.36139 2.92907)" gradientUnits="userSpaceOnUse"><stop stop-color="#fff"/><stop offset=".948" stop-color="#fff" stop-opacity="0"/></radialGradient></defs></svg>