<svg xmlns="http://www.w3.org/2000/svg" width="96" height="96" fill="none"><mask id="a" width="92" height="96" x="2" y="0" maskUnits="userSpaceOnUse" style="mask-type:alpha"><path fill="#1D1D1B" d="M88.541 19.454a8.37 8.37 0 0 1 4.601 7.476v42.147a8.37 8.37 0 0 1-4.602 7.476l-36.768 18.55a8.37 8.37 0 0 1-7.544 0L7.46 76.552a8.37 8.37 0 0 1-4.603-7.476V26.93a8.38 8.38 0 0 1 4.602-7.477L44.227.898a8.37 8.37 0 0 1 7.546 0z"/></mask><g mask="url(#a)"><path fill="#34A853" d="M44.635.654a7.52 7.52 0 0 1 6.73 0l41.778 20.888L48 44.326 2.857 21.542z"/><path fill="#202124" d="M2.857 21.543 48 44.316v52.667L6.992 76.295a7.52 7.52 0 0 1-4.135-6.717z"/><path fill="#4285F4" d="M93.143 21.543 48 44.316v52.667l41.008-20.688a7.52 7.52 0 0 0 4.135-6.717z"/></g><path fill="#1D1D1B" d="M67.569 27.507a12.04 12.04 0 0 1 6.614 10.746V53.84c0 4.544-2.559 8.7-6.616 10.748l-14.129 7.127a12.04 12.04 0 0 1-10.844 0l-14.129-7.127A12.04 12.04 0 0 1 21.85 53.84V38.254c0-4.544 2.558-8.7 6.614-10.747l14.128-7.13a12.04 12.04 0 0 1 10.848-.001z" opacity=".5"/><path fill="#2F5187" d="M48.016 73.005v-28.69L23.602 31.998a12.03 12.03 0 0 0-1.752 6.255v15.586c0 4.544 2.558 8.701 6.615 10.748l14.13 7.127c1.704.86 3.563 1.29 5.421 1.29" opacity=".5"/><path fill="#E6F4EA" d="M62.112 34.26a6.02 6.02 0 0 1 3.307 5.373v12.825a6.02 6.02 0 0 1-3.308 5.374L50.716 63.58a6.02 6.02 0 0 1-5.422 0L33.9 57.832a6.02 6.02 0 0 1-3.308-5.374V39.633a6.02 6.02 0 0 1 3.307-5.374l11.394-5.75a6.02 6.02 0 0 1 5.424 0z"/></svg>