<svg xmlns="http://www.w3.org/2000/svg" width="97" height="96" fill="none"><path fill="url(#a)" d="M76.9 76.37H20.3V19.8h56.6L48.597 48.068 76.9 76.37Z"/><mask id="b" width="16" height="26" x="61" y="35" maskUnits="userSpaceOnUse" style="mask-type:alpha"><path fill="#34A853" d="M75.203 35.296a12.991 12.991 0 0 0-4.464 2.05 13.103 13.103 0 0 0-3.512 3.74l-.026-.014-1.357-.788-1.326-.77-.952-.552a1.196 1.196 0 0 0-1.626.423 1.205 1.205 0 0 0-.127.918 1.196 1.196 0 0 0 .554.726l.952.553 1.326.77c.453.261.905.524 1.357.787l.15.086a13.048 13.048 0 0 0-.898 4.909 13.055 13.055 0 0 0 .888 4.615l-.139.08-1.357.787-1.326.77-.952.553a1.194 1.194 0 0 0 1.198 2.066l.953-.552 1.325-.77 1.358-.787.011-.006a13.13 13.13 0 0 0 3.527 3.762A13.015 13.015 0 0 0 76.9 61V35c-.57.062-1.139.16-1.697.296Z"/></mask><g mask="url(#b)"><path fill="#4FAF53" d="M61.294 62.61V34.856H76.9V62.61H61.294Z"/><g filter="url(#c)" opacity=".8"><path fill="url(#d)" fill-opacity=".3" d="M66.302 47.047c1.94-2.75 2.152 4.991 6.39 7.982 4.238 2.99 11.599.593 9.66 3.344-2.328 1.699-7.05 1.957-11.288-1.033-4.238-2.991-5.63-7.96-4.762-10.293Z"/></g><g filter="url(#e)" opacity=".7"><path fill="url(#f)" fill-opacity=".4" d="M66.302 48.935c1.94 2.751 2.152-4.991 6.39-7.982 4.238-2.99 11.599-.593 9.66-3.344-2.328-1.698-7.05-1.957-11.288 1.034-4.238 2.99-5.63 7.96-4.762 10.292Z"/></g><g filter="url(#g)" opacity=".6"><path fill="#8BD8A0" d="M73.237 61.35c3.322 1.057 6.115 1.6 6.237 1.215.123-.385-2.472-1.554-5.794-2.611-3.322-1.057-6.944-5.415-7.067-5.03-.122.386 3.302 5.37 6.624 6.426Z"/></g><g filter="url(#h)" opacity=".5"><path fill="#8BD8A0" d="M73.237 34.801c3.322-1.057 6.115-1.6 6.237-1.215.123.385-2.472 1.554-5.794 2.611-3.322 1.057-6.944 5.415-7.067 5.03-.122-.386 3.302-5.37 6.624-6.426Z"/></g><g filter="url(#i)" opacity=".7"><path fill="#0D652D" d="M64.376 56.055c1.718-1.047 2.537-1.505 2.63-1.353.092.152-.577.857-2.295 1.903-1.388 1.58-3.269-.091-3.361-.243-.093-.152.75 1.248 3.026-.307Z"/></g><g filter="url(#j)" opacity=".1"><path fill="#202124" d="M67.19 54.91c-.081-.125-1.313.536-2.75 1.475-1.439.94-2.538 1.803-2.456 1.928.081.125 1.313-.536 2.751-1.475 1.438-.94 2.537-1.803 2.456-1.928Z"/></g><g filter="url(#k)" opacity=".3"><path fill="#fff" d="M63.502 54.75c1.797-1.094 2.62-1.628 2.546-1.75-.074-.121-1.017.215-2.814 1.31-2.4 1.055-.968 2.959-.706 2.77.704-.365-1.545-.93.974-2.33Z"/></g><path fill="url(#l)" fill-opacity=".9" d="M62.882 58.345c.682-.197 1.046-1.008.814-1.81-.233-.803-.974-1.294-1.656-1.097-.682.198-1.046 1.009-.813 1.811.232.803.973 1.294 1.655 1.096Z" opacity=".15"/><path fill="url(#m)" fill-opacity=".9" d="M62.685 41.745c.681-.198 1.046-1.009.813-1.811-.232-.803-.973-1.294-1.655-1.096-.682.197-1.047 1.008-.814 1.81.232.803.974 1.294 1.656 1.097Z" opacity=".15"/><g filter="url(#n)" opacity=".1"><path fill="#202124" d="M67.28 41.166c-.08.127-1.321-.514-2.774-1.431-1.452-.917-2.565-1.763-2.485-1.89.08-.125 1.321.516 2.774 1.432 1.452.917 2.565 1.763 2.485 1.89Z"/></g><mask id="o" width="4" height="5" x="64" y="39" maskUnits="userSpaceOnUse" style="mask-type:alpha"><path fill="#000" d="M67.303 40.965c-.383.616-1.043 2.022-1.324 2.648l-1.463-.413 1.625-4.044c.547.346 1.546 1.193 1.162 1.809Z"/></mask><g mask="url(#o)"><g filter="url(#p)" opacity=".3" style="mix-blend-mode:multiply"><path fill="#0D652D" d="M67.082 40.556c-.466 1.102-.731 2.041-.594 2.1.138.058.524-.777.99-1.88.465-1.1.833-2.05.696-2.11-.138-.057-.627.789-1.092 1.89Z"/></g><g filter="url(#q)" opacity=".3" style="mix-blend-mode:screen"><path fill="#81C995" d="M66.204 42.81c-.151.307-.225.58-.165.61.06.029.189-.2.34-.508.15-.307.266-.574.206-.604-.06-.03-.23.196-.381.503Z"/></g></g><mask id="r" width="4" height="6" x="64" y="52" maskUnits="userSpaceOnUse" style="mask-type:alpha"><path fill="#000" d="M67.424 55.176c-.397-.608-1.085-2-1.379-2.62L64.591 53l1.708 4.008c.54-.357 1.521-1.224 1.125-1.832Z"/></mask><g mask="url(#r)"><g filter="url(#s)" opacity=".3" style="mix-blend-mode:multiply"><path fill="#0D652D" d="M67.211 55.59c-.488-1.092-.773-2.027-.637-2.088.136-.06.54.766 1.028 1.858s.876 2.034.74 2.095c-.137.061-.643-.774-1.13-1.866Z"/></g><g filter="url(#t)" opacity=".3" style="mix-blend-mode:screen"><path fill="#81C995" d="M66.286 53.354c-.157-.303-.236-.574-.177-.605.06-.03.193.197.35.5.157.304.278.57.219.6-.06.03-.235-.19-.392-.495Z"/></g></g><g filter="url(#u)" opacity=".7"><path fill="#0D652D" d="M64.45 39.883c1.741 1.006 2.57 1.445 2.66 1.291.088-.154-.597-.843-2.338-1.849-1.425-1.548-3.267.168-3.355.322-.09.154.721-1.265 3.032.236Z"/></g><g filter="url(#v)" opacity=".3"><path fill="#fff" d="M63.6 41.262c1.771 1.024 2.583 1.527 2.508 1.656-.074.13-1.007-.163-2.78-1.187-3.079-1.167-2.672-3.48-.989-3.1.692.299-1.226 1.335 1.26 2.631Z"/></g></g><path fill="url(#w)" fill-opacity=".7" d="M71.639 53.846c.289-.324.379-.716.2-.875-.178-.159-.557-.024-.846.3-.289.325-.379.717-.2.876.178.159.557.024.846-.3Z"/><path fill="url(#x)" fill-opacity=".7" d="M71.655 42.183c.29.324.38.716.201.875-.178.159-.556.024-.846-.3-.289-.325-.379-.717-.2-.876.178-.158.556-.024.845.3Z"/><g filter="url(#y)" opacity=".09" style="mix-blend-mode:multiply"><path fill="#011B04" d="M73.03 53.099c-.97-.392-1.572.02-1.752.275-.906.734-.203 1.723.184 2.018.387.296 1.07.724 2.006.306.938-.418.775-2.11-.438-2.6Z"/></g><g filter="url(#z)" opacity=".09" style="mix-blend-mode:multiply"><path fill="#011B04" d="M73.044 42.93c-.964.39-1.564-.021-1.743-.276-.901-.734-.202-1.723.183-2.019.385-.295 1.064-.724 1.996-.306.932.418.77 2.11-.436 2.6Z"/></g><path fill="#202124" d="M73.711 40.709c-.406-.61-1.33-.708-2.065-.219-.734.49-1 1.38-.595 1.99.405.61 1.33.708 2.064.219.735-.49 1.002-1.38.596-1.99Z"/><g filter="url(#A)"><path fill="#000" d="M73.081 53.329c-.734-.49-1.651-.403-2.048.193-.396.596-.122 1.476.613 1.965.735.489 1.652.402 2.048-.194.396-.596.122-1.475-.613-1.964Z"/></g><g filter="url(#B)"><path fill="#000" d="M73.096 42.7c-.734.488-1.65.402-2.047-.194-.396-.595-.122-1.475.613-1.964.734-.489 1.65-.402 2.047.194.396.595.122 1.475-.613 1.964Z"/></g><mask id="C" width="4" height="3" x="70" y="53" maskUnits="userSpaceOnUse" style="mask-type:alpha"><path fill="#202124" d="M73.08 53.33c-.734-.49-1.651-.403-2.047.193-.397.596-.122 1.476.612 1.965.735.489 1.652.402 2.048-.194.396-.596.122-1.475-.613-1.964Z"/></mask><g mask="url(#C)"><g filter="url(#D)"><path fill="#D8D8D8" fill-opacity=".29" d="M71.555 55.312c.573.468 1.241.52 1.526.463-.555.118-1.1.075-1.644-.377-.3-.25-.467-.63-.547-.907a1.062 1.062 0 0 1-.032-.121 1.35 1.35 0 0 1-.028-.17c.01.048.016.104.028.17l.032.121c.064.194.22.457.665.82Z"/></g><g filter="url(#E)" opacity=".8"><path fill="url(#F)" d="M71.695 53.201c-.81.195-.895.856-.836 1.162-.115-.264.032-.74.262-.94.183-.16.46-.215.574-.222Z"/></g></g><mask id="G" width="4" height="4" x="70" y="40" maskUnits="userSpaceOnUse" style="mask-type:alpha"><path fill="#202124" d="M73.096 42.699c-.734.489-1.65.402-2.047-.194-.396-.596-.122-1.475.612-1.964.735-.488 1.651-.402 2.047.194.397.596.122 1.475-.612 1.964Z"/></mask><g mask="url(#G)"><path fill="url(#H)" d="M71.007 41.932a.974.974 0 0 0 .852.95 1.08 1.08 0 0 1-.594-.76c-.08-.44.424-1.022.686-1.258l-.245-.22c-.251.14-.743.592-.7 1.288Z"/><g filter="url(#I)"><path fill="#D8D8D8" fill-opacity=".29" d="M71.57 40.718c.574-.467 1.242-.52 1.526-.463-.555-.118-1.099-.075-1.643.377-.3.25-.467.629-.547.906a.957.957 0 0 0-.031.122 1.33 1.33 0 0 0-.03.17c.011-.048.017-.104.03-.17.008-.037.019-.078.031-.122.064-.194.22-.456.665-.82Z"/></g></g><g filter="url(#J)" opacity=".8"><path fill="#E2DCE1" d="M71.336 54.692c.054.272.34.476.476.544l.204-.136a1.189 1.189 0 0 1-.272-.204 2.595 2.595 0 0 1-.272-.34l-.136.136Z"/></g><g filter="url(#K)" opacity=".8"><path fill="#E2DCE1" d="M71.35 41.325c.052-.269.325-.47.456-.538l.195.135a1.151 1.151 0 0 0-.26.202 2.54 2.54 0 0 0-.261.336l-.13-.135Z"/></g><g filter="url(#L)" opacity=".8"><path fill="#E2DCE1" d="M72.806 53.576c.074.13.167.333.204.418l.234.081a1.11 1.11 0 0 0-.234-.407l-.204-.092Zm-1.028-.408a1.243 1.243 0 0 0-.204.082h.091c.074-.04.2-.071.255-.082a.28.28 0 0 0-.142 0Z"/></g><g filter="url(#M)" opacity=".8"><path fill="#E2DCE1" d="M72.827 42.47c.073-.13.166-.334.203-.419l.235-.081a1.117 1.117 0 0 1-.235.408l-.203.092Zm-1.03.408a1.253 1.253 0 0 1-.203-.081h.092c.073.04.2.07.254.081a.28.28 0 0 1-.142 0Z"/></g><g filter="url(#N)" opacity=".3"><path fill="url(#O)" fill-opacity=".4" d="M71.816 38.178c3.364 0-2.836 4.636-2.836 9.825 0 5.19 6.2 9.825 2.836 9.825-2.729-.924-5.662-4.636-5.662-9.825 0-5.189 3.255-9.191 5.662-9.825Z"/></g><g filter="url(#P)" opacity=".2"><path fill="url(#Q)" fill-opacity=".4" d="M71.816 38.178c3.364 0-2.836 4.636-2.836 9.825 0 5.19 6.2 9.825 2.836 9.825-2.729-.924-5.662-4.636-5.662-9.825 0-5.189 3.255-9.191 5.662-9.825Z"/></g><defs><filter id="c" width="18.245" height="14.791" x="65.24" y="45.651" color-interpolation-filters="sRGB" filterUnits="userSpaceOnUse"><feFlood flood-opacity="0" result="BackgroundImageFix"/><feBlend in="SourceGraphic" in2="BackgroundImageFix" result="shape"/><feGaussianBlur result="effect1_foregroundBlur_18016_147470" stdDeviation=".408"/></filter><filter id="e" width="19.061" height="15.607" x="64.832" y="35.132" color-interpolation-filters="sRGB" filterUnits="userSpaceOnUse"><feFlood flood-opacity="0" result="BackgroundImageFix"/><feBlend in="SourceGraphic" in2="BackgroundImageFix" result="shape"/><feGaussianBlur result="effect1_foregroundBlur_18016_147470" stdDeviation=".612"/></filter><filter id="g" width="14.091" height="9.012" x="65.999" y="54.289" color-interpolation-filters="sRGB" filterUnits="userSpaceOnUse"><feFlood flood-opacity="0" result="BackgroundImageFix"/><feBlend in="SourceGraphic" in2="BackgroundImageFix" result="shape"/><feGaussianBlur result="effect1_foregroundBlur_18016_147470" stdDeviation=".306"/></filter><filter id="h" width="14.091" height="9.012" x="65.999" y="32.85" color-interpolation-filters="sRGB" filterUnits="userSpaceOnUse"><feFlood flood-opacity="0" result="BackgroundImageFix"/><feBlend in="SourceGraphic" in2="BackgroundImageFix" result="shape"/><feGaussianBlur result="effect1_foregroundBlur_18016_147470" stdDeviation=".306"/></filter><filter id="i" width="7.301" height="4.237" x="60.528" y="53.859" color-interpolation-filters="sRGB" filterUnits="userSpaceOnUse"><feFlood flood-opacity="0" result="BackgroundImageFix"/><feBlend in="SourceGraphic" in2="BackgroundImageFix" result="shape"/><feGaussianBlur result="effect1_foregroundBlur_18016_147470" stdDeviation=".408"/></filter><filter id="j" width="5.624" height="3.841" x="61.775" y="54.691" color-interpolation-filters="sRGB" filterUnits="userSpaceOnUse"><feFlood flood-opacity="0" result="BackgroundImageFix"/><feBlend in="SourceGraphic" in2="BackgroundImageFix" result="shape"/><feGaussianBlur result="effect1_foregroundBlur_18016_147470" stdDeviation=".102"/></filter><filter id="k" width="5.41" height="5.34" x="61.254" y="52.365" color-interpolation-filters="sRGB" filterUnits="userSpaceOnUse"><feFlood flood-opacity="0" result="BackgroundImageFix"/><feBlend in="SourceGraphic" in2="BackgroundImageFix" result="shape"/><feGaussianBlur result="effect1_foregroundBlur_18016_147470" stdDeviation=".306"/></filter><filter id="n" width="5.676" height="3.76" x="61.813" y="37.626" color-interpolation-filters="sRGB" filterUnits="userSpaceOnUse"><feFlood flood-opacity="0" result="BackgroundImageFix"/><feBlend in="SourceGraphic" in2="BackgroundImageFix" result="shape"/><feGaussianBlur result="effect1_foregroundBlur_18016_147470" stdDeviation=".102"/></filter><filter id="p" width="2.566" height="4.809" x="66.044" y="38.257" color-interpolation-filters="sRGB" filterUnits="userSpaceOnUse"><feFlood flood-opacity="0" result="BackgroundImageFix"/><feBlend in="SourceGraphic" in2="BackgroundImageFix" result="shape"/><feGaussianBlur result="effect1_foregroundBlur_18016_147470" stdDeviation=".204"/></filter><filter id="q" width="1.072" height="1.606" x="65.774" y="42.061" color-interpolation-filters="sRGB" filterUnits="userSpaceOnUse"><feFlood flood-opacity="0" result="BackgroundImageFix"/><feBlend in="SourceGraphic" in2="BackgroundImageFix" result="shape"/><feGaussianBlur result="effect1_foregroundBlur_18016_147470" stdDeviation=".122"/></filter><filter id="s" width="2.644" height="4.775" x="66.132" y="53.091" color-interpolation-filters="sRGB" filterUnits="userSpaceOnUse"><feFlood flood-opacity="0" result="BackgroundImageFix"/><feBlend in="SourceGraphic" in2="BackgroundImageFix" result="shape"/><feGaussianBlur result="effect1_foregroundBlur_18016_147470" stdDeviation=".204"/></filter><filter id="t" width="1.093" height="1.595" x="65.845" y="52.501" color-interpolation-filters="sRGB" filterUnits="userSpaceOnUse"><feFlood flood-opacity="0" result="BackgroundImageFix"/><feBlend in="SourceGraphic" in2="BackgroundImageFix" result="shape"/><feGaussianBlur result="effect1_foregroundBlur_18016_147470" stdDeviation=".122"/></filter><filter id="u" width="7.337" height="4.152" x="60.595" y="37.867" color-interpolation-filters="sRGB" filterUnits="userSpaceOnUse"><feFlood flood-opacity="0" result="BackgroundImageFix"/><feBlend in="SourceGraphic" in2="BackgroundImageFix" result="shape"/><feGaussianBlur result="effect1_foregroundBlur_18016_147470" stdDeviation=".408"/></filter><filter id="v" width="6.295" height="5.582" x="60.43" y="37.977" color-interpolation-filters="sRGB" filterUnits="userSpaceOnUse"><feFlood flood-opacity="0" result="BackgroundImageFix"/><feBlend in="SourceGraphic" in2="BackgroundImageFix" result="shape"/><feGaussianBlur result="effect1_foregroundBlur_18016_147470" stdDeviation=".306"/></filter><filter id="y" width="3.481" height="3.179" x="70.713" y="52.815" color-interpolation-filters="sRGB" filterUnits="userSpaceOnUse"><feFlood flood-opacity="0" result="BackgroundImageFix"/><feBlend in="SourceGraphic" in2="BackgroundImageFix" result="shape"/><feGaussianBlur result="effect1_foregroundBlur_18016_147470" stdDeviation=".061"/></filter><filter id="z" width="3.464" height="3.18" x="70.738" y="40.033" color-interpolation-filters="sRGB" filterUnits="userSpaceOnUse"><feFlood flood-opacity="0" result="BackgroundImageFix"/><feBlend in="SourceGraphic" in2="BackgroundImageFix" result="shape"/><feGaussianBlur result="effect1_foregroundBlur_18016_147470" stdDeviation=".061"/></filter><filter id="A" width="3.105" height="2.874" x="70.791" y="53.012" color-interpolation-filters="sRGB" filterUnits="userSpaceOnUse"><feFlood flood-opacity="0" result="BackgroundImageFix"/><feColorMatrix in="SourceAlpha" result="hardAlpha" values="0 0 0 0 0 0 0 0 0 0 0 0 0 0 0 0 0 0 127 0"/><feOffset dx="-.02" dy=".041"/><feGaussianBlur stdDeviation=".02"/><feComposite in2="hardAlpha" operator="out"/><feColorMatrix values="0 0 0 0 0.0156863 0 0 0 0 0.231373 0 0 0 0 0.0666667 0 0 0 0.7 0"/><feBlend in2="BackgroundImageFix" result="effect1_dropShadow_18016_147470"/><feBlend in="SourceGraphic" in2="effect1_dropShadow_18016_147470" result="shape"/></filter><filter id="B" width="3.104" height="2.873" x="70.807" y="40.226" color-interpolation-filters="sRGB" filterUnits="userSpaceOnUse"><feFlood flood-opacity="0" result="BackgroundImageFix"/><feColorMatrix in="SourceAlpha" result="hardAlpha" values="0 0 0 0 0 0 0 0 0 0 0 0 0 0 0 0 0 0 127 0"/><feOffset dx="-.02" dy=".041"/><feGaussianBlur stdDeviation=".02"/><feComposite in2="hardAlpha" operator="out"/><feColorMatrix values="0 0 0 0 0.0156863 0 0 0 0 0.231373 0 0 0 0 0.0666667 0 0 0 0.7 0"/><feBlend in2="BackgroundImageFix" result="effect1_dropShadow_18016_147470"/><feBlend in="SourceGraphic" in2="effect1_dropShadow_18016_147470" result="shape"/></filter><filter id="D" width="2.333" height="1.712" x="70.789" y="54.159" color-interpolation-filters="sRGB" filterUnits="userSpaceOnUse"><feFlood flood-opacity="0" result="BackgroundImageFix"/><feBlend in="SourceGraphic" in2="BackgroundImageFix" result="shape"/><feGaussianBlur result="effect1_foregroundBlur_18016_147470" stdDeviation=".02"/></filter><filter id="E" width=".896" height="1.182" x="70.809" y="53.191" color-interpolation-filters="sRGB" filterUnits="userSpaceOnUse"><feFlood flood-opacity="0" result="BackgroundImageFix"/><feBlend in="SourceGraphic" in2="BackgroundImageFix" result="shape"/><feGaussianBlur result="effect1_foregroundBlur_18016_147470" stdDeviation=".005"/></filter><filter id="I" width="2.332" height="1.711" x="70.805" y="40.158" color-interpolation-filters="sRGB" filterUnits="userSpaceOnUse"><feFlood flood-opacity="0" result="BackgroundImageFix"/><feBlend in="SourceGraphic" in2="BackgroundImageFix" result="shape"/><feGaussianBlur result="effect1_foregroundBlur_18016_147470" stdDeviation=".02"/></filter><filter id="J" width=".762" height=".762" x="71.295" y="54.515" color-interpolation-filters="sRGB" filterUnits="userSpaceOnUse"><feFlood flood-opacity="0" result="BackgroundImageFix"/><feBlend in="SourceGraphic" in2="BackgroundImageFix" result="shape"/><feGaussianBlur result="effect1_foregroundBlur_18016_147470" stdDeviation=".02"/></filter><filter id="K" width=".733" height=".754" x="71.309" y="40.746" color-interpolation-filters="sRGB" filterUnits="userSpaceOnUse"><feFlood flood-opacity="0" result="BackgroundImageFix"/><feBlend in="SourceGraphic" in2="BackgroundImageFix" result="shape"/><feGaussianBlur result="effect1_foregroundBlur_18016_147470" stdDeviation=".02"/></filter><filter id="L" width="1.711" height=".957" x="71.553" y="53.139" color-interpolation-filters="sRGB" filterUnits="userSpaceOnUse"><feFlood flood-opacity="0" result="BackgroundImageFix"/><feBlend in="SourceGraphic" in2="BackgroundImageFix" result="shape"/><feGaussianBlur result="effect1_foregroundBlur_18016_147470" stdDeviation=".01"/></filter><filter id="M" width="1.711" height=".959" x="71.574" y="41.949" color-interpolation-filters="sRGB" filterUnits="userSpaceOnUse"><feFlood flood-opacity="0" result="BackgroundImageFix"/><feBlend in="SourceGraphic" in2="BackgroundImageFix" result="shape"/><feGaussianBlur result="effect1_foregroundBlur_18016_147470" stdDeviation=".01"/></filter><filter id="N" width="8.292" height="21.281" x="65.339" y="37.362" color-interpolation-filters="sRGB" filterUnits="userSpaceOnUse"><feFlood flood-opacity="0" result="BackgroundImageFix"/><feBlend in="SourceGraphic" in2="BackgroundImageFix" result="shape"/><feGaussianBlur result="effect1_foregroundBlur_18016_147470" stdDeviation=".408"/></filter><filter id="P" width="8.292" height="21.281" x="65.339" y="37.362" color-interpolation-filters="sRGB" filterUnits="userSpaceOnUse"><feFlood flood-opacity="0" result="BackgroundImageFix"/><feBlend in="SourceGraphic" in2="BackgroundImageFix" result="shape"/><feGaussianBlur result="effect1_foregroundBlur_18016_147470" stdDeviation=".408"/></filter><linearGradient id="a" x1="76.906" x2="20.312" y1="19.975" y2="76.569" gradientUnits="userSpaceOnUse"><stop stop-color="#E44857"/><stop offset=".47" stop-color="#C711E1"/><stop offset="1" stop-color="#7F52FF"/></linearGradient><linearGradient id="d" x1="70.96" x2="73.671" y1="57.487" y2="53.645" gradientUnits="userSpaceOnUse"><stop stop-color="#A8F0B9"/><stop offset="1" stop-color="#ADEEBC" stop-opacity="0"/></linearGradient><linearGradient id="f" x1="70.96" x2="73.671" y1="38.496" y2="42.337" gradientUnits="userSpaceOnUse"><stop stop-color="#A8F0B9"/><stop offset="1" stop-color="#ADEEBC" stop-opacity="0"/></linearGradient><linearGradient id="F" x1="70.535" x2="71.685" y1="54.281" y2="54.229" gradientUnits="userSpaceOnUse"><stop stop-color="#E2DDE2"/><stop offset="1" stop-color="#E2DDE2" stop-opacity="0"/></linearGradient><linearGradient id="H" x1="71.004" x2="71.951" y1="41.764" y2="41.764" gradientUnits="userSpaceOnUse"><stop stop-color="#373637"/><stop offset="1" stop-color="#373637" stop-opacity="0"/></linearGradient><linearGradient id="O" x1="65.974" x2="70.674" y1="48.003" y2="48.003" gradientUnits="userSpaceOnUse"><stop stop-color="#A8F0B9"/><stop offset="1" stop-color="#ADEEBC" stop-opacity="0"/></linearGradient><linearGradient id="Q" x1="65.974" x2="70.674" y1="48.003" y2="48.003" gradientUnits="userSpaceOnUse"><stop stop-color="#A8F0B9"/><stop offset="1" stop-color="#ADEEBC" stop-opacity="0"/></linearGradient><radialGradient id="l" cx="0" cy="0" r="1" gradientTransform="rotate(73.331 -6.98 70.398)scale(.95125 .689)" gradientUnits="userSpaceOnUse"><stop stop-color="#fff"/><stop offset=".948" stop-color="#fff" stop-opacity="0"/></radialGradient><radialGradient id="m" cx="0" cy="0" r="1" gradientTransform="rotate(73.331 4.07 61.965)scale(.95125 .689)" gradientUnits="userSpaceOnUse"><stop stop-color="#fff"/><stop offset=".948" stop-color="#fff" stop-opacity="0"/></radialGradient><radialGradient id="w" cx="0" cy="0" r="1" gradientTransform="matrix(.27037 .25408 -.4628 .49246 71.316 53.559)" gradientUnits="userSpaceOnUse"><stop stop-color="#93E19F"/><stop offset="1" stop-color="#93E19F" stop-opacity="0"/></radialGradient><radialGradient id="x" cx="0" cy="0" r="1" gradientTransform="matrix(.27012 -.25413 .46286 .492 71.333 42.47)" gradientUnits="userSpaceOnUse"><stop stop-color="#93E19F"/><stop offset="1" stop-color="#93E19F" stop-opacity="0"/></radialGradient></defs></svg>