<svg xmlns="http://www.w3.org/2000/svg" width="97" height="96" fill="none"><path fill="#00BCD4" d="M32.5 22a7 7 0 1 1 14 0v7h-7a7 7 0 0 1-7-7Z"/><path fill="#E91E63" d="M22.5 64a7 7 0 1 1 0-14h7v7a7 7 0 0 1-7 7Z"/><path fill="#4CAF50" d="M81.5 39a7 7 0 1 0-14 0v7h7a7 7 0 0 0 7-7Z"/><path fill="#FF9800" d="M57.5 81a7 7 0 1 0 0-14h-7v7a7 7 0 0 0 7 7Z"/><path fill="#00BCD4" d="M39.5 32h-17a7 7 0 1 0 0 14h17a7 7 0 1 0 0-14Z"/><path fill="#4CAF50" d="M64.5 39V22a7 7 0 1 0-14 0v17a7 7 0 1 0 14 0Z"/><path fill="#E91E63" d="M46.5 74V57a7 7 0 1 0-14 0v17a7 7 0 1 0 14 0Z"/><path fill="#FF9800" d="M57.5 64h17a7 7 0 1 0 0-14h-17a7 7 0 1 0 0 14Z"/></svg>