<svg width="121" height="121" fill="none" xmlns="http://www.w3.org/2000/svg"><g clip-path="url(#clip0_669_61046)"><path d="M118.95 31.28c-1.4-5.23-5.51-9.34-10.74-10.74C98.73 18 60.74 18 60.74 18s-37.99 0-47.46 2.54c-5.23 1.4-9.34 5.51-10.74 10.74C0 40.75 0 60.52 0 60.52s0 19.77 2.54 29.24c1.4 5.23 5.51 9.34 10.74 10.74 9.47 2.54 47.46 2.54 47.46 2.54s37.99 0 47.46-2.54c5.23-1.4 9.34-5.51 10.74-10.74 2.54-9.47 2.54-29.24 2.54-29.24s0-19.77-2.54-29.24h.01z" fill="red"/><path d="M48.59 78.74l31.57-18.22L48.59 42.3v36.44z" fill="#fff"/></g><defs><clipPath id="clip0_669_61046"><path fill="#fff" d="M0 0h121v121H0z"/></clipPath></defs></svg>