<svg xmlns="http://www.w3.org/2000/svg" width="96" height="96" fill="none"><path fill="#34A853" fill-rule="evenodd" d="M48 18.81c-11.941 0-21.622 9.681-21.622 21.622v25.946C26.378 78.32 36.058 88 48 88c11.941 0 21.622-9.68 21.622-21.622V40.432c0-11.94-9.68-21.621-21.622-21.621Zm0 4.325c-9.553 0-17.297 7.744-17.297 17.297v25.946c0 9.553 7.744 17.298 17.297 17.298s17.297-7.745 17.297-17.298V40.432c0-9.553-7.744-17.297-17.297-17.297Z" clip-rule="evenodd"/><rect width="16.67" height="6.486" x="15.084" y="31.784" fill="#34A853" rx="3.243" transform="rotate(15 15.084 31.784)"/><rect width="16.367" height="6.486" fill="#34A853" rx="3.243" transform="scale(-1 1) rotate(15 -161.068 -290.648)"/><rect width="16.597" height="6.486" fill="#34A853" rx="3.243" transform="scale(-1 1) rotate(60 -37.406 -48.79)"/><rect width="17.189" height="6.486" x="37.135" y="26.129" fill="#34A853" rx="3.243" transform="rotate(-120 37.135 26.129)"/><rect width="16" height="7" x="13" y="50" fill="#34A853" rx="3.5"/><rect width="17" height="7" fill="#34A853" rx="3.5" transform="matrix(-1 0 0 1 83 50)"/><rect width="17.297" height="6.486" x="13.405" y="71.3" fill="#34A853" rx="3.243" transform="rotate(-15 13.405 71.3)"/><rect width="16.457" height="6.486" fill="#34A853" rx="3.243" transform="scale(-1 1) rotate(-15 229.594 348.567)"/><path fill="#4285F4" fill-rule="evenodd" d="M35.028 41.048h25.944v-.15c0-7.164-5.807-12.973-12.972-12.973-7.165 0-12.973 5.809-12.973 12.973v.15Z" clip-rule="evenodd"/><path fill="#CEEAD6" d="M35 45h26v21c0 7.18-5.82 13-13 13s-13-5.82-13-13V45Z"/></svg>