<svg xmlns="http://www.w3.org/2000/svg" width="97" height="96" fill="none"><path fill="#2A8642" fill-rule="evenodd" d="M88.495 47.357a.144.144 0 0 1 .005.025c-.003-1.023-.676-2.057-2.01-2.866a7.002 7.002 0 0 0-.288-.166l-8.024-4.403-2.566-1.407-10.747-5.893v.001L43.997 21.21a6.547 6.547 0 0 0-.317-.163L43.585 21a6.214 6.214 0 0 0-.55-.224l-.08-.028a4.65 4.65 0 0 0-.922-.21l-.012-.002c-.934-.108-1.744.128-2.35.662l-.01.009c-.049.043-.096.089-.142.135l-.01.01-.007.007-.09.1-.053.062c-.02.026-.044.052-.064.08-.04.051-.078.104-.114.158l-.014.02c-.035.055-.07.11-.102.166l-.02.036a2.778 2.778 0 0 0-.09.175l-.012.022c-.07.146-.13.297-.18.45v.003a4.488 4.488 0 0 0-.07.231l-.007.03c-.02.078-.04.159-.056.241l-.002.008a4.367 4.367 0 0 0-.047.27l-.001.012c-.007.05-.013.102-.018.152 0 0-.063.623-.062.718l.001.308.033 28.524.012 10.965.09 6.338.062.983c.108.981.447 1.753.967 2.288l.143.135.02.017v-.002c.043.038.09.074.137.109.016.012.031.026.048.037.052.037.105.07.159.103.017.011.034.023.052.033h.001c.132.076.27.141.413.194l.038.015a2.647 2.647 0 0 0 .488.126c.86.145 1.88-.058 2.97-.666l20.319-11.29h.041l11.19-6.216 2.343-1.302.006-.003 2.663-1.482 5.544-3.08c.754-.42 1.319-.905 1.695-1.422.359-.492.545-1.014.561-1.537.001-.027.004-.056.004-.084l-.004.022v-.05Z" clip-rule="evenodd"/><path fill="#356AC3" d="M12.5 50.113a4 4 0 1 0 0 8v-8Zm26 0h-26v8h26v-8ZM26.5 37.887a4 4 0 0 0 0 8v-8Zm12 0h-12v8h12v-8Z"/><path fill="#356AC3" d="M27.423 39.887a2 2 0 1 0 0 4v-4Zm11.077 0H27.423v4H38.5v-4Z"/></svg>