<svg xmlns="http://www.w3.org/2000/svg" width="97" height="96" fill="none"><path fill="#2A8642" fill-rule="evenodd" d="M88.5 43h-80v30h.103c.185.495.619.941 1.302 1.202l35.378 13.563a9 9 0 0 0 6.443 0l35.37-13.56c.684-.262 1.117-.709 1.302-1.205h.102V43Z" clip-rule="evenodd"/><g filter="url(#a)"><path fill="#A8DAB5" d="M51.726 58.765a9 9 0 0 1-6.443 0L9.905 45.202c-1.88-.72-1.87-2.836.014-3.544L44.21 28.767A12.212 12.212 0 0 1 48.502 28c1.486 0 2.953.262 4.292.767L87.08 41.661c1.885.708 1.895 2.824.015 3.544l-35.37 13.56Z"/></g><path fill="#356AC3" d="M45.73 10.775A2.772 2.772 0 0 1 48.5 8c1.53 0 2.77 1.242 2.77 2.775v31.45A2.772 2.772 0 0 1 48.5 45a2.772 2.772 0 0 1-2.77-2.775v-31.45Z"/><path fill="#356AC3" d="M37.317 21.982a2.79 2.79 0 0 0 3.947 0l7.236-7.24 7.236 7.24a2.79 2.79 0 0 0 3.947 0 2.794 2.794 0 0 0 0-3.95l-9.2-9.205a2.79 2.79 0 0 0-3.956-.009l-9.21 9.215a2.794 2.794 0 0 0 0 3.949Z"/><path fill="#103C20" fill-rule="evenodd" d="M8.5 61.732 45.641 75.97a8 8 0 0 0 5.728 0L88.5 61.735v-5.527L51.369 70.443a8 8 0 0 1-5.728 0L8.5 56.204v5.528Z" clip-rule="evenodd"/><defs><filter id="a" width="80" height="31.361" x="8.5" y="28" color-interpolation-filters="sRGB" filterUnits="userSpaceOnUse"><feFlood flood-opacity="0" result="BackgroundImageFix"/><feColorMatrix in="SourceAlpha" result="hardAlpha" values="0 0 0 0 0 0 0 0 0 0 0 0 0 0 0 0 0 0 127 0"/><feOffset/><feComposite in2="hardAlpha" operator="out"/><feColorMatrix values="0 0 0 0 0.258824 0 0 0 0 0.521569 0 0 0 0 0.956863 0 0 0 1 0"/><feBlend in2="BackgroundImageFix" result="effect1_dropShadow_18024_149671"/><feBlend in="SourceGraphic" in2="effect1_dropShadow_18024_149671" result="shape"/></filter></defs></svg>