<svg xmlns="http://www.w3.org/2000/svg" width="96" height="96" fill="none"><mask id="a" fill="#fff"><path fill-rule="evenodd" d="M32.02 12a4 4 0 0 1 4-4h24a4 4 0 0 1 4 4c0 3.47-4 6.813-4 10.283v12.41a8 8 0 0 0 .967 3.813l20.632 38.071c2.89 5.33-.97 11.812-7.033 11.812H21.414c-6.053 0-9.914-6.463-7.044-11.793l20.694-38.431a8 8 0 0 0 .956-3.793V22.283c0-3.47-4-6.813-4-10.283Z" clip-rule="evenodd"/></mask><path fill="#AECBFA" d="m35.064 38.165-1.76-.948 1.76.948ZM14.37 76.596l-1.76-.948 1.76.948Zm67.25-.019-1.759.953 1.758-.953Zm-21.6-41.883h2-2Zm.967 3.811-1.758.953 1.758-.953Zm-.967-16.222h-2 2ZM36.02 6a6 6 0 0 0-6 6h4a2 2 0 0 1 2-2V6Zm24 0h-24v4h24V6Zm6 6a6 6 0 0 0-6-6v4a2 2 0 0 1 2 2h4Zm-4 22.694v-12.41h-4v12.41h4Zm-2.791 4.764L79.86 77.53l3.517-1.906-20.633-38.071-3.516 1.905ZM74.586 86.39H21.414v4h53.172v-4ZM16.13 77.545l20.694-38.432-3.522-1.896L12.61 75.648l3.521 1.897Zm17.89-55.262v12.09h4v-12.09h-4Zm4 0c0-2.387-1.357-4.59-2.276-6.154-1.081-1.842-1.724-3.046-1.724-4.129h-4c0 2.387 1.356 4.59 2.275 6.154 1.081 1.843 1.724 3.046 1.724 4.13h4Zm-1.196 16.83a10 10 0 0 0 1.195-4.74h-4a6 6 0 0 1-.717 2.844l3.522 1.896ZM21.415 86.39c-4.54 0-7.436-4.847-5.284-8.844l-3.521-1.897C9.021 82.31 13.848 90.39 21.413 90.39v-4ZM79.86 77.53c2.166 3.998-.728 8.86-5.275 8.86v4c7.578 0 12.403-8.103 8.792-14.766L79.86 77.53Zm-21.84-42.836c0 1.664.415 3.301 1.208 4.764l3.516-1.905a6 6 0 0 1-.724-2.86h-4Zm4-22.694c0 1.083-.644 2.287-1.725 4.13-.919 1.564-2.276 3.766-2.276 6.153h4c0-1.083.644-2.287 1.725-4.129.919-1.564 2.276-3.767 2.276-6.154h-4Z" mask="url(#a)"/><path fill="#34A853" d="M36.397 50.9c1.179-2.212 4.22-2.73 6.722-2.574 1.487.093 3.197-.277 4.881-1.683 3.535-2.951 7.18-1.34 8.655-.457.464.279.81.703 1.065 1.18l15.143 28.395c1.42 2.664-.51 5.882-3.53 5.882H26.667c-3.02 0-4.95-3.218-3.53-5.883l13.26-24.86Z"/><circle cx="39.009" cy="66.294" r="4" fill="#A2D004"/><circle cx="52" cy="56.388" r="5" fill="#A2D004"/><circle cx="43.741" cy="39.788" r="3" fill="#A2D004"/></svg>