<svg xmlns="http://www.w3.org/2000/svg" width="97" height="96" fill="none"><path fill="#2A8642" stroke="#2A8642" d="M38.857 61.508h-.5v15.28c0 5.64 4.573 10.213 10.213 10.213 5.64 0 10.213-4.572 10.213-10.213v-15.28H38.857Z"/><mask id="a" fill="#fff"><path fill-rule="evenodd" d="M58.282 70.103c8.458-3.733 14.36-12.193 14.36-22.032C72.642 34.777 61.865 24 48.572 24 35.276 24 24.5 34.777 24.5 48.071c0 9.837 5.901 18.297 14.356 22.03v4.575h19.426v-4.573Z" clip-rule="evenodd"/></mask><path fill="#103C20" fill-rule="evenodd" d="M58.282 70.103c8.458-3.733 14.36-12.193 14.36-22.032C72.642 34.777 61.865 24 48.572 24 35.276 24 24.5 34.777 24.5 48.071c0 9.837 5.901 18.297 14.356 22.03v4.575h19.426v-4.573Z" clip-rule="evenodd"/><path fill="#2A8642" d="m58.282 70.103-.807-1.83-1.193.527v1.303h2Zm-19.425-.001h2v-1.303l-1.193-.527-.808 1.83Zm0 4.574h-2v2h2v-2Zm19.425 0v2h2v-2h-2Zm12.36-26.605c0 9.018-5.408 16.778-13.167 20.203l1.615 3.659C68.246 67.89 74.642 58.73 74.642 48.07h-4ZM48.572 26c12.189 0 22.07 9.882 22.07 22.071h4C74.642 33.673 62.97 22 48.572 22v4ZM26.5 48.071C26.5 35.881 36.382 26 48.571 26v-4C34.173 22 22.5 33.673 22.5 48.071h4Zm13.164 20.201C31.908 64.846 26.5 57.088 26.5 48.072h-4c0 10.657 6.395 19.817 15.549 23.86l1.615-3.66Zm1.192 6.404v-4.574h-4v4.574h4Zm17.426-2H38.857v4h19.425v-4Zm-2-2.573v4.573h4v-4.573h-4Z" mask="url(#a)"/><path stroke="#F8F9FA" stroke-width="2" d="M45.656 72.75c.264-12.276.39-17.907.407-29.213a2.782 2.782 0 1 0-5.563-.004v10.779a4.276 4.276 0 0 0 4.276 4.276h4.813a6.911 6.911 0 0 0 6.911-6.911v-8.304a2.623 2.623 0 0 0-5.246 0V72.75"/><path stroke="#A8DAB5" stroke-linecap="round" stroke-width="4" d="M52.677 32.055c3.585.756 7.195 2.886 9.604 6.823"/><rect width="9" height="4" x="86.64" y="50.25" fill="#2A8642" rx="2" transform="rotate(180 86.64 50.25)"/><rect width="9" height="4" x="67.476" y="25.914" fill="#2A8642" rx="2" transform="rotate(-45 67.476 25.914)"/><rect width="9" height="4" x="46.5" y="19" fill="#2A8642" rx="2" transform="rotate(-90 46.5 19)"/></svg>