<svg xmlns="http://www.w3.org/2000/svg" width="97" height="96" fill="none"><circle cx="49" cy="64.5" r="23.5" fill="#AECBFA"/><mask id="a" width="48" height="47" x="25" y="41" maskUnits="userSpaceOnUse" style="mask-type:alpha"><rect width="47" height="47" fill="#4285F4" rx="23.5" transform="matrix(1 0 0 -1 25.5 88)"/></mask><g fill="#2A8642" mask="url(#a)"><circle cx="10.956" cy="10.956" r="10.956" transform="scale(-1 1)rotate(30 -88.902 -93.998)"/><rect width="10.797" height="16.446" rx="5.398" transform="scale(-1 1)rotate(30 -125.515 -74.99)"/><rect width="11.854" height="18.057" rx="5.927" transform="scale(-1 1)rotate(30 -141.989 -29.129)"/><circle cx="8.851" cy="8.851" r="8.851" transform="matrix(-1 0 0 1 72.559 72.406)"/><circle cx="8.851" cy="8.851" r="8.851" transform="matrix(-1 0 0 1 61.26 80.441)"/><circle cx="8.521" cy="8.521" r="8.521" transform="matrix(-1 0 0 1 41.378 57.426)"/></g><path fill="#103C20" fill-rule="evenodd" d="M60.97 42.224C57.18 41.432 53.097 41 48.84 41c-1.186 0-2.359.033-3.516.1l6.59 8.786a2 2 0 0 0 3.19.015l5.866-7.677Z" clip-rule="evenodd"/><path fill="#356AC3" fill-rule="evenodd" d="M69.9 21.7c0 2.69-.776 5.2-2.116 7.317L57.826 50.13c-.724 1.535-2.91 1.528-3.624-.013L43.5 27l.063.001A13.658 13.658 0 0 1 42.5 21.7C42.5 14.134 48.634 8 56.2 8c7.566 0 13.7 6.134 13.7 13.7ZM56 32c5.799 0 10.5-4.701 10.5-10.5S61.799 11 56 11s-10.5 4.701-10.5 10.5S50.201 32 56 32Z" clip-rule="evenodd"/><circle cx="56" cy="21.5" r="5" stroke="#356AC3" stroke-width="5"/></svg>