<svg xmlns="http://www.w3.org/2000/svg" width="97" height="96" fill="none"><path fill="#356AC3" d="M72.501 88c-6.627 0-12-5.372-12-12V28.477h24v47.525C84.5 82.628 79.128 88 72.5 88Z"/><path fill="#AECBFA" fill-rule="evenodd" d="M76.486 28.479c0 2.17 1.794 3.93 4.007 3.93 2.213 0 4.007-1.76 4.007-3.932 0-.877-.293-1.686-.787-2.34l-7.1-11.483c-1.889-3.056-6.333-3.056-8.222 0l-7.086 11.461a3.865 3.865 0 0 0-.804 2.362c0 2.171 1.794 3.931 4.007 3.931 2.192 0 3.972-1.726 4.006-3.868.035 2.141 1.806 3.867 3.985 3.867 2.2 0 3.984-1.759 3.985-3.928h.002Z" clip-rule="evenodd"/><path fill="#356AC3" d="M70.966 10.478a1.798 1.798 0 0 1 3.06.002l3.712 6.03s-1.453 2.16-5.251 2.16-5.251-2.16-5.251-2.16l3.73-6.032Z"/><path stroke="#121212" stroke-linecap="round" stroke-width="2" d="M68.468 28.993v40.042M76.527 28.993v40.042"/><path fill="#fff" d="M84.499 73.875h-24v-4.838h24z"/><path fill="#2A8642" d="M48.5 88c-6.626 0-11.998-5.372-11.998-12V28.477H60.5v47.525C60.5 82.628 55.128 88 48.5 88Z"/><path fill="#A8DAB5" fill-rule="evenodd" d="M52.486 28.479c0 2.17 1.794 3.93 4.007 3.93 2.213 0 4.007-1.76 4.007-3.932 0-.877-.293-1.686-.788-2.34l-7.099-11.483c-1.89-3.056-6.333-3.056-8.222 0l-7.087 11.461a3.865 3.865 0 0 0-.804 2.362c0 2.171 1.794 3.931 4.008 3.931 2.191 0 3.972-1.726 4.006-3.868.035 2.141 1.806 3.867 3.985 3.867 2.2 0 3.983-1.759 3.985-3.928h.002Z" clip-rule="evenodd"/><path fill="#2A8642" d="M46.966 10.478a1.798 1.798 0 0 1 3.059.002l3.713 6.03s-1.453 2.16-5.251 2.16-5.251-2.16-5.251-2.16l3.73-6.032Z"/><path stroke="#121212" stroke-linecap="round" stroke-width="2" d="M44.468 28.993v40.042M52.527 28.993v40.042"/><path fill="#fff" d="M60.498 73.875H36.5v-4.838h24z"/><path fill="#356AC3" d="M24.5 88c-6.626 0-11.999-5.372-11.999-12V28.477H36.5v47.525C36.5 82.628 31.128 88 24.5 88Z"/><path fill="#AECBFA" fill-rule="evenodd" d="M28.486 28.479c0 2.17 1.794 3.93 4.007 3.93 2.213 0 4.007-1.76 4.007-3.932 0-.877-.293-1.686-.788-2.34l-7.1-11.483c-1.888-3.056-6.333-3.056-8.222 0l-7.086 11.461a3.865 3.865 0 0 0-.804 2.362c0 2.171 1.794 3.931 4.007 3.931 2.192 0 3.973-1.726 4.007-3.868.035 2.141 1.805 3.867 3.985 3.867 2.2 0 3.983-1.759 3.985-3.928h.001Z" clip-rule="evenodd"/><path fill="#356AC3" d="M22.965 10.478a1.797 1.797 0 0 1 3.06.002l3.712 6.03s-1.453 2.16-5.25 2.16c-3.799 0-5.252-2.16-5.252-2.16l3.73-6.032Z"/><path stroke="#121212" stroke-linecap="round" stroke-width="2" d="M20.468 28.993v40.042M28.527 28.993v40.042"/><path fill="#fff" d="M36.499 73.875h-24v-4.838h24z"/></svg>