<svg xmlns="http://www.w3.org/2000/svg" width="96" height="96" fill="none"><path fill="#4285F4" d="M12.053 67.824c-1.572-.708-1.572-2.94 0-3.648l32.665-14.699a8 8 0 0 1 6.565 0l32.664 14.695c1.572.707 1.572 2.94 0 3.648L51.283 82.522a8 8 0 0 1-6.566 0L12.053 67.825Z"/><path fill="#174EA6" d="M12.053 49.824c-1.572-.708-1.572-2.94 0-3.648l32.665-14.699a8 8 0 0 1 6.565 0l32.664 14.695c1.572.708 1.572 2.94 0 3.648L51.283 64.522a8 8 0 0 1-6.566 0L12.053 49.824Z"/><path fill="#4285F4" d="M12.053 31.824c-1.572-.708-1.572-2.94 0-3.648l32.665-14.699a8 8 0 0 1 6.565 0l32.664 14.695c1.572.707 1.572 2.94 0 3.648L51.283 46.522a8 8 0 0 1-6.566 0L12.053 31.825Z"/></svg>