<svg xmlns="http://www.w3.org/2000/svg" width="97" height="96" fill="none"><path fill="#356AC3" d="M12.553 67.824c-1.572-.708-1.572-2.94 0-3.648l32.665-14.699a8 8 0 0 1 6.565 0l32.664 14.695c1.572.707 1.572 2.94 0 3.648L51.783 82.522a8 8 0 0 1-6.566 0L12.553 67.825Z"/><path fill="#AECBFA" d="M12.553 49.824c-1.572-.708-1.572-2.94 0-3.648l32.665-14.699a8 8 0 0 1 6.565 0l32.664 14.695c1.572.708 1.572 2.94 0 3.648L51.783 64.522a8 8 0 0 1-6.566 0L12.553 49.824Z"/><path fill="#356AC3" d="M12.553 31.824c-1.572-.708-1.572-2.94 0-3.648l32.665-14.699a8 8 0 0 1 6.565 0l32.664 14.695c1.572.707 1.572 2.94 0 3.648L51.783 46.522a8 8 0 0 1-6.566 0L12.553 31.825Z"/></svg>