<?xml version="1.0" encoding="utf-8"?>
<!-- Generator: Adobe Illustrator 24.0.1, SVG Export Plug-In . SVG Version: 6.00 Build 0)  -->
<svg version="1.1" id="Layer_1" xmlns="http://www.w3.org/2000/svg" xmlns:xlink="http://www.w3.org/1999/xlink" x="0px" y="0px"
	 viewBox="0 0 736.20502 755.14972" style="enable-background:new 0 0 736.20502 755.14972;" xml:space="preserve">
<style type="text/css">
	.st0{fill:#073042;}
	.st1{fill:#4285F4;}
	.st2{fill:#3870B2;}
	.st3{fill:#FFFFFF;}
	.st4{fill:#3DDC84;}
	.st5{fill:#3E7FDD;}
	.st6{fill:#3DDB85;}
	.st7{fill:none;}
</style>
<g>
	<g>
		<g>
			<polygon class="st0" points="537.14008,242.83047 199.80435,242.83047 156.96806,315.71487 579.97632,315.71487 			"/>
			<g>
				<path class="st1" d="M590.27722,320.51505c0.04132-1.47238-0.28931-2.95288-1.03125-4.27921l-44.99127-80.35808
					c-1.45026-2.5905-4.16943-4.19066-7.11841-4.19066h-80.27286H282.1571h-81.93817c-2.93156,0-5.63972,1.58315-7.09518,4.15096
					l-45.41615,80.08318c-0.77293,1.36292-1.22752,2.90594-1.22946,4.45538c0,0.01083-0.00322,0.02045-0.00322,0.03125
					l0.11365,267.25839c0,11.60327,9.32874,21.00952,20.83678,21.00952h402.03833c11.50806,0,20.83679-9.40625,20.83679-21.00952
					V320.74847C590.30048,320.66855,590.28046,320.59424,590.27722,320.51505z M168.97119,311.63129l35.91049-63.32266
					c0.04909-0.08618,0.14012-0.13933,0.23828-0.13933h77.03714h174.70633h75.34085c0.09875,0,0.19049,0.0538,0.23889,0.14064
					l35.45459,63.32263c0.10333,0.18442-0.02905,0.41263-0.23889,0.41263h-398.4494
					C168.99896,312.0452,168.86659,311.8157,168.97119,311.63129z"/>
				<path class="st2" d="M588.96124,315.40128l-44.99158-80.35809c-1.45013-2.59052-4.16919-4.19066-7.11804-4.19066h-80.27325
					H281.87228h-81.93837c-2.93153,0-5.63953,1.58318-7.09515,4.15096l-45.57172,80.35809
					c-1.44649,2.55063-1.43669,5.68451,0.02614,8.22577c1.46118,2.54126,4.15446,4.1055,7.069,4.1055h427.48108
					c2.90533,0,5.59277-1.55667,7.05786-4.08655C590.36591,321.07642,590.38849,317.9519,588.96124,315.40128z M168.45183,311.2106
					l36.22417-63.87585h77.19629h174.70609h75.5011l35.76434,63.87585H168.45183z"/>
				<g>
					<rect x="292.88647" y="229.49634" class="st3" width="157.85362" height="29.14196"/>
					<path class="st4" d="M427.8447,255.22118c-5.92029,0-10.73611-4.85912-10.73611-10.82849s4.81583-10.82497,10.73611-10.82497
						c5.9205,0,10.73611,4.85559,10.73611,10.82497S433.7652,255.22118,427.8447,255.22118 M309.17233,255.22118
						c-5.9205,0-10.73611-4.85912-10.73611-10.82849s4.81561-10.82497,10.73611-10.82497
						c5.92029,0,10.73611,4.85559,10.73611,10.82497S315.09262,255.22118,309.17233,255.22118 M431.69534,190.01131
						l21.45819-37.47108c1.23016-2.15376,0.49832-4.9048-1.63428-6.14856c-2.13257-1.24025-4.8645-0.50243-6.09808,1.64781
						l-21.72659,37.9454c-16.61472-7.64529-35.27484-11.90361-55.18616-11.90361c-19.91113,0-38.57123,4.25832-55.18597,11.90361
						l-21.72659-37.9454c-1.23355-2.15024-3.96552-2.88806-6.09808-1.64781c-2.1326,1.24376-2.86786,3.9948-1.63428,6.14856
						l21.45819,37.47108c-36.84634,20.20593-62.04716,57.81755-65.73384,102.25233H497.4292
						C493.73911,247.82886,468.5383,210.21724,431.69534,190.01131"/>
				</g>
			</g>
			<g>
				<path class="st5" d="M167.42534,608.67578h402.03833c11.50806,0,20.83679-9.40625,20.83679-21.00952V367.84744v-22.48807"/>
				<g>
					<path class="st6" d="M446.1987,164.68465l6.95508-12.14449c1.2301-2.15372,0.49783-4.90479-1.63434-6.14848
						c-2.13281-1.24028-4.86487-0.50247-6.09818,1.64775l-9.53085,16.64522H446.1987z"/>
					<path class="st6" d="M290.81815,164.68465h10.30829l-9.53082-16.64522c-1.23334-2.15022-3.96539-2.88803-6.09756-1.64775
						c-2.13281,1.2437-2.86829,3.99477-1.63431,6.14848L290.81815,164.68465z"/>
				</g>
			</g>
		</g>
		<g>
			<path class="st3" d="M232.25412,490.75174c-4.03221,0-7.49326,1.4946-10.28452,4.44266
				c-2.76067,2.90964-4.16003,6.36917-4.16003,10.27979c0,4.03268,1.40685,7.52649,4.18111,10.38403
				c2.79263,2.87946,6.24551,4.33978,10.26344,4.33978c4.0152,0,7.46808-1.46033,10.26343-4.33978
				c2.77426-2.86169,4.18111-6.35547,4.18111-10.38403c0-3.90787-1.39937-7.36603-4.15935-10.27979
				C239.74396,492.24634,236.2836,490.75174,232.25412,490.75174z"/>
			<path class="st3" d="M326.14673,448.80435c-1.86243-3.87091-4.40952-7.0918-7.57071-9.57092
				c-3.11084-2.43796-6.72693-4.23431-10.7496-5.3381c-3.8989-1.06674-8.01407-1.60699-12.23193-1.60699
				c-5.57648,0-10.66324,0.89398-15.11975,2.65735c-4.44638,1.75928-8.2854,4.104-11.41193,6.96976
				c-3.1442,2.88089-5.6131,6.19363-7.33755,9.84515c-1.55768,3.29755-2.43649,6.62601-2.69159,9.91553h18.96509
				c0.69-3.05707,2.31979-5.65976,4.97073-7.90808c3.13602-2.65744,7.21454-3.94907,12.46793-3.94907
				c4.24234,0,7.77545,0.93512,10.49866,2.77942c2.43903,1.65503,3.57532,3.61447,3.57532,6.16901
				c0,1.37936-0.37201,2.79446-3.06808,3.80228c-3.08365,1.15317-7.68567,2.25565-13.70532,3.28403
				c-5.34122,0.96942-10.2356,2.17603-14.54858,3.58841c-4.42871,1.45071-8.26981,3.2785-11.41739,5.42981
				c-3.29645,2.25699-5.87222,5.07071-7.65643,8.36838c-1.7937,3.31689-2.70361,7.21661-2.70361,11.5907
				c0,3.24146,0.69025,6.45697,2.04947,9.55307c1.35724,3.10028,3.38632,5.90302,6.02927,8.32999
				c2.61722,2.40503,5.8396,4.3288,9.57666,5.72058c3.70792,1.3808,8.03455,2.08148,12.86166,2.08148
				c6.43451,0,12.11023-1.3479,16.86993-4.00659c2.23233-1.2464,4.24438-2.68756,6.02728-4.30963
				c0,3.71515,2.98706,6.72705,6.67175,6.72705h12.44885v-56.02817C328.94684,457.41397,328.0051,452.67239,326.14673,448.80435z
				 M309.82623,482.28055c0,2.99051-0.53516,5.77402-1.58911,8.2709c-1.06345,2.51761-2.53357,4.73203-4.37015,6.58313
				c-1.84006,1.85385-4.03564,3.33615-6.52841,4.40564c-2.47437,1.064-5.18198,1.60294-8.04666,1.60294
				c-3.83304,0-6.86981-0.88312-9.28699-2.70123c-2.19092-1.64404-3.21149-3.7804-3.21149-6.72299
				c0-2.46811,0.88052-4.45764,2.69125-6.08533c2.08142-1.86893,5.88849-3.55957,11.41257-5.05145
				c1.31714-0.4086,2.99664-0.84329,4.99506-1.29578c2.17587-0.49496,4.38171-1.03793,6.55014-1.61118
				c2.1969-0.57864,4.34363-1.20795,6.38077-1.87299c0.34616-0.11383,0.68063-0.22632,1.00302-0.34012V482.28055z"/>
			<path class="st3" d="M411.85941,448.80435c-1.8624-3.87091-4.40961-7.0918-7.57083-9.57092
				c-3.11081-2.43796-6.72693-4.23431-10.7496-5.3381c-3.89886-1.06674-8.01404-1.60699-12.23193-1.60699
				c-5.57632,0-10.66321,0.89398-15.11972,2.65735c-4.44626,1.75928-8.2854,4.104-11.41193,6.96976
				c-3.1441,2.88089-5.6131,6.19363-7.33743,9.84515c-1.57428,3.33252-2.45712,6.69659-2.70078,10.01999h18.94043
				c0.67728-3.10349,2.32199-5.73752,5.00455-8.01254c3.13602-2.65744,7.21442-3.94907,12.46783-3.94907
				c4.24234,0,7.77542,0.93512,10.49878,2.77942c2.439,1.65503,3.5752,3.61447,3.5752,6.16901
				c0,1.37936-0.37189,2.79446-3.06796,3.80228c-3.08368,1.15317-7.68567,2.25565-13.70544,3.28403
				c-5.34113,0.96942-10.23563,2.17603-14.54861,3.58841c-4.42859,1.45071-8.26978,3.2785-11.41736,5.42981
				c-3.29645,2.25699-5.87213,5.07071-7.65643,8.36838c-1.79373,3.31689-2.70349,7.21661-2.70349,11.5907
				c0,3.24146,0.69012,6.45697,2.04944,9.55307c1.35715,3.10028,3.3862,5.90302,6.02927,8.32999
				c2.61713,2.40503,5.83951,4.3288,9.57666,5.72058c3.70782,1.3808,8.03445,2.08148,12.86154,2.08148
				c6.43454,0,12.11023-1.3479,16.87006-4.00659c2.23224-1.2464,4.24426-2.68756,6.02719-4.30963
				c0,3.71515,2.98703,6.72705,6.67184,6.72705h12.44885v-56.02817C414.65952,457.41397,413.71768,452.67239,411.85941,448.80435z
				 M395.53882,482.28055c0,2.99051-0.53516,5.77402-1.58911,8.2709c-1.06345,2.51761-2.53357,4.73203-4.37015,6.58313
				c-1.83994,1.85385-4.03564,3.33615-6.52832,4.40564c-2.47446,1.064-5.1821,1.60294-8.04675,1.60294
				c-3.83304,0-6.86969-0.88312-9.28702-2.70123c-2.19089-1.64404-3.21149-3.7804-3.21149-6.72299
				c0-2.46811,0.88055-4.45764,2.69128-6.08533c2.08139-1.86893,5.88858-3.55957,11.41257-5.05145
				c1.31711-0.4086,2.99664-0.84329,4.99506-1.29578c2.17596-0.49496,4.38168-1.03793,6.55014-1.61118
				c2.19702-0.57864,4.34363-1.20795,6.38086-1.87299c0.34607-0.11383,0.68066-0.22632,1.00293-0.34012V482.28055z"/>
			<path class="st3" d="M515.85699,459.32684c-2.06573-5.28458-4.98148-9.99051-8.6669-13.99026
				c-3.70172-4.01346-8.13443-7.22342-13.17505-9.53934c-5.07391-2.32828-10.60406-3.50888-16.43753-3.50888
				c-6.42841,0-12.38901,1.47678-17.71451,4.39053c-2.72189,1.48776-5.13782,3.15649-7.23145,4.98978V394.1597h-19.12137v124.76724
				h11.39423c4.26758,0,7.72714-3.48822,7.72714-7.79111l0,0c2.0943,1.83328,4.50955,3.50064,7.23077,4.98837
				c5.3255,2.91376,11.28543,4.39191,17.71518,4.39191c5.83481,0,11.36499-1.1806,16.43753-3.51025
				c5.04062-2.31317,9.47333-5.52313,13.17505-9.53934c3.68475-3.99564,6.60117-8.70157,8.66757-13.99023
				c2.06165-5.28592,3.10742-11.02985,3.10742-17.07404C518.96509,470.35941,517.91931,464.61551,515.85699,459.32684z
				 M475.52878,450.45523c3.57324,0,6.84592,0.66504,9.72354,1.97452c2.90005,1.32321,5.43295,3.15921,7.52655,5.45734
				c2.10995,2.31729,3.77927,5.0871,4.96106,8.22986c1.1879,3.16199,1.78967,6.62286,1.78967,10.28531
				s-0.60178,7.12332-1.789,10.28391c-1.18314,3.14688-2.85245,5.91669-4.96173,8.23126
				c-2.09634,2.30222-4.62784,4.13687-7.52451,5.45731c-2.87762,1.30951-6.14963,1.97452-9.72559,1.97452
				c-3.57797,0-6.84998-0.66501-9.72626-1.97589c-2.89529-1.31769-5.42682-3.15234-7.52451-5.45593
				c-2.1113-2.3187-3.78061-5.08713-4.96106-8.23126c-1.18652-3.15509-1.7883-6.616-1.7883-10.28391
				c0-3.66794,0.60178-7.12881,1.789-10.28531c1.17905-3.14001,2.84839-5.90982,4.96036-8.22986
				c2.09564-2.2995,4.62787-4.1355,7.52521-5.45734C468.68152,451.12027,471.95352,450.45523,475.52878,450.45523z"/>
		</g>
	</g>
	<rect class="st7" width="736.20502" height="755.14972"/>
</g>
</svg>
