<svg width="40" height="41" viewBox="0 0 40 41" fill="none" xmlns="http://www.w3.org/2000/svg">
<path d="M3.3335 27.5885C3.3335 26.6681 4.07969 25.9219 5.00016 25.9219H14.4446V35.3663C14.4446 36.2868 13.6984 37.033 12.7779 37.033H5.00016C4.07969 37.033 3.3335 36.2868 3.3335 35.3663V27.5885Z" fill="#766a9d"/>
<path d="M14.4434 16.4948C14.4434 15.5743 15.1896 14.8281 16.11 14.8281H25.5545V24.2726C25.5545 25.193 24.8083 25.9392 23.8878 25.9392H14.4434V16.4948Z" fill="#DADCE0"/>
<path d="M25.5557 5.37565C25.5557 4.45518 26.3019 3.70898 27.2223 3.70898H35.0001C35.9206 3.70898 36.6668 4.45518 36.6668 5.37565V13.1534C36.6668 14.0739 35.9206 14.8201 35.0001 14.8201H25.5557V5.37565Z" fill="#DADCE0"/>
</svg>
