<svg xmlns="http://www.w3.org/2000/svg" width="480" height="481" fill="none"><path fill="#202124" d="M240.001 383.551c-19.781 0-32.858-13.722-45.902-36.314l-90.491-156.734c-13.043-22.592-18.388-40.778-8.498-57.908C105 115.464 123.423 111 149.51 111h180.98c26.087 0 44.509 4.464 54.4 21.595 9.89 17.13 4.545 35.316-8.499 57.908l-90.49 156.734c-13.044 22.592-26.12 36.314-45.901 36.314h.001Z"/><mask id="a" width="300" height="273" x="90" y="111" maskUnits="userSpaceOnUse" style="mask-type:luminance"><path fill="#fff" d="M240.001 383.551c-19.781 0-32.858-13.722-45.902-36.314l-90.491-156.734c-13.043-22.592-18.388-40.778-8.498-57.908C105 115.464 123.423 111 149.51 111h180.98c26.087 0 44.509 4.464 54.4 21.595 9.89 17.13 4.545 35.316-8.499 57.908l-90.49 156.734c-13.044 22.592-26.12 36.314-45.901 36.314h.001Z"/></mask><g mask="url(#a)"><path fill="#C6FF00" d="M306.012 262.566c-43.265-17.157-61.376-73.169-63.762-99.031H240v184.5l144.75-58.977c-8.219-1.682-35.472-9.335-78.738-26.492ZM173.988 262.566c43.265-17.157 61.376-73.169 63.762-99.031H240v184.5L95.25 289.058c8.218-1.682 35.472-9.335 78.738-26.492Z"/><path fill="#fff" d="M271.125 262.397c-20.4-17.128-27.75-73.045-28.875-98.862H240V347.72l68.25-58.876c-3.875-1.679-16.725-9.319-37.125-26.447ZM208.875 262.397c20.4-17.128 27.75-73.045 28.875-98.862H240V347.72l-68.25-58.876c3.875-1.679 16.725-9.319 37.125-26.447Z"/><path fill="#fff" d="M240 165.785a2.25 2.25 0 1 0 0-4.5 2.25 2.25 0 0 0 0 4.5Z"/><path fill="#5F6368" d="M310.5 311.285H161.25v78H310.5v-78Z"/><path fill="#5F6368" d="M316.816 311.614c-.05-.317-.097-.629-.151-.943a75.61 75.61 0 0 0-1.179-5.745 76.961 76.961 0 0 0-3.044-9.649 77.105 77.105 0 0 0-3.497-7.71 78.49 78.49 0 0 0-5.639-9.197 77.657 77.657 0 0 0-12.568-13.784 78.07 78.07 0 0 0-9.654-7.11c.03-.048.055-.102.085-.15 1.559-2.694 3.12-5.382 4.679-8.075a32020.927 32020.927 0 0 0 7.856-13.551 7.107 7.107 0 0 0 .4-6.327 7.039 7.039 0 0 0-2.912-3.34 7.15 7.15 0 0 0-3.021-.972 7.205 7.205 0 0 0-1.338.011 7.086 7.086 0 0 0-5.412 3.499c-1.094 1.886-2.19 3.777-3.282 5.664l-4.572 7.886c-1.56 2.692-3.121 5.382-4.68 8.074-.171.294-.344.588-.512.885-.237-.094-.47-.188-.707-.278-8.596-3.277-17.918-5.069-27.664-5.069-.268 0-.531 0-.798.003a77.556 77.556 0 0 0-24.757 4.297c-.9.313-1.788.645-2.669.991-.157-.275-.319-.55-.478-.825-1.558-2.693-3.12-5.382-4.678-8.074a32031.27 32031.27 0 0 1-7.856-13.551 7.092 7.092 0 0 0-6.75-3.51 7.067 7.067 0 0 0-3.022.972 7.083 7.083 0 0 0-3.23 4.278 7.119 7.119 0 0 0 .102 4.005c.154.474.357.937.618 1.385 1.095 1.887 2.19 3.778 3.282 5.665l4.573 7.885c1.559 2.693 3.121 5.382 4.679 8.075.011.023.027.045.038.068a78.003 78.003 0 0 0-27.995 30.178 77.456 77.456 0 0 0-6.542 17.358 78.114 78.114 0 0 0-1.178 5.745c-.053.315-.102.631-.151.943a81.047 81.047 0 0 0-.444 3.402h154.501a76.36 76.36 0 0 0-.445-3.402l.012-.007Z"/></g><path fill="#fff" d="M146.28 149.543h-3.03v3.03h3.03v-3.03ZM173.28 240.785h-3.03v3.03h3.03v-3.03ZM328.116 144.035h-3.03v3.03h3.03v-3.03ZM267.03 218.285H264v3.03h3.03v-3.03ZM287.278 188.969h-3.03v3.03h3.03v-3.03ZM314.28 215.285h-3.03v3.03h3.03v-3.03ZM192.03 150.785H189v3.03h3.03v-3.03ZM300.06 195.785H294v6.06h6.06v-6.06ZM214.53 207.785h-3.03v3.03h3.03v-3.03ZM170.31 180.035h-6.06v6.06h6.06v-6.06ZM206.31 156.035h-6.06v6.06h6.06v-6.06ZM324.81 201.785h-6.06v6.06h6.06v-6.06ZM174.908 202.043h-6.06v6.06h6.06v-6.06ZM335.277 168.836h-6.06v6.06h6.06v-6.06ZM192.06 186.035H186v6.06h6.06v-6.06Z"/><path stroke="#34A853" stroke-miterlimit="10" stroke-width="41.25" d="M240.001 383.551c-19.781 0-32.858-13.722-45.902-36.314l-90.491-156.734c-13.043-22.592-18.388-40.778-8.498-57.908C105 115.464 123.423 111 149.51 111h180.98c26.087 0 44.509 4.464 54.4 21.595 9.89 17.13 4.545 35.316-8.499 57.908l-90.49 156.734c-13.044 22.592-26.12 36.314-45.901 36.314h.001Z"/><path fill="#E9F3EB" d="m175.581 117.565.972 2.47H171.882l-.567-1.633-3.537-9.896-.661-2.16h-.162l-.594 2.16-3.402 9.896a7330.49 7330.49 0 0 1-.513 1.633h-4.739l.959-2.497 5.737-14.85.77-2.025h3.888l.783 2.025 5.737 14.877Zm-3.051-1.188h-5.548v-3.159h4.333l1.215 3.159Zm-5.548 0h-5.67l1.161-3.159h4.509v3.159Zm33.901 1.755v1.903h-4.009l-1.067-1.66-6.75-10.53h-.148l.094 2.781v9.409h-4.374v-2.065l-.013-14.513v-2.754H189.179l1.039 1.647 6.399 10.071h.149l-.108-2.821v-8.897h4.225v17.429Zm17.007 1.903h-6.939v-19.332h6.939c2.952 0 5.328.887 7.128 2.66 1.8 1.764 2.7 4.095 2.7 6.993 0 2.916-.9 5.26-2.7 7.033-1.8 1.764-4.176 2.646-7.128 2.646Zm-2.511-15.268v11.326h2.255c1.71.018 3.069-.472 4.077-1.471 1.008-1.008 1.512-2.412 1.512-4.212 0-1.791-.504-3.177-1.512-4.158-.999-.99-2.358-1.485-4.077-1.485h-2.255Zm25.754 13.189v2.079h-4.361v-19.332h7.641c1.917 0 3.533.567 4.847 1.701 1.314 1.134 1.971 2.651 1.971 4.55 0 1.755-.626 3.204-1.877 4.347-1.251 1.134-2.866 1.701-4.846 1.701h-5.994v-3.159h5.481c.801 0 1.471-.248 2.011-.743.54-.504.81-1.156.81-1.957 0-.729-.261-1.337-.783-1.823-.522-.495-1.165-.742-1.93-.742h-2.97v13.378Zm5.44.446-4.576-7.02 4.603-.162 4.82 7.033 1.282 1.782H247.626l-1.053-1.633Zm23.457 2.065c-2.781 0-5.161-.931-7.141-2.794-1.971-1.863-2.957-4.302-2.957-7.317 0-3.015.99-5.45 2.97-7.304 1.989-1.854 4.365-2.781 7.128-2.781 2.754 0 5.121.941 7.101 2.822 1.989 1.872 2.984 4.293 2.984 7.263 0 2.952-.99 5.377-2.97 7.276-1.971 1.89-4.343 2.835-7.115 2.835Zm0-4.306c1.611 0 2.952-.549 4.023-1.647 1.08-1.098 1.62-2.484 1.62-4.158 0-1.692-.544-3.078-1.633-4.158-1.08-1.08-2.417-1.62-4.01-1.62s-2.934.544-4.023 1.633c-1.08 1.08-1.62 2.462-1.62 4.145 0 1.692.536 3.082 1.607 4.171 1.08 1.089 2.425 1.634 4.036 1.634Zm23.698 1.66v2.214h-4.55V100.703h4.55v17.118Zm17.005 2.214h-6.939v-19.332h6.939c2.952 0 5.328.887 7.128 2.66 1.8 1.764 2.7 4.095 2.7 6.993 0 2.916-.9 5.26-2.7 7.033-1.8 1.764-4.176 2.646-7.128 2.646Zm-2.511-15.268v11.326h2.254c1.71.018 3.069-.472 4.077-1.471 1.008-1.008 1.512-2.412 1.512-4.212 0-1.791-.504-3.177-1.512-4.158-.999-.99-2.358-1.485-4.077-1.485h-2.254ZM225.439 321.223v2.812h-5.625V278.173l-9.337 6.675-1.838 1.312-1.462-2.25-1.425-2.137c0-.025.65-.501 1.95-1.425l11.025-7.913 3-2.212H225.439v51Zm7.877-24.938 3.075-23.25.375-2.7h27.375v5.513h-23.025l-2.475 18.525.15.037c1.275-1.3 2.912-2.338 4.912-3.112 2.001-.801 4.288-1.2 6.863-1.2 4.85 0 8.925 1.662 12.225 4.987 3.3 3.3 4.95 7.438 4.95 12.413 0 5.1-1.637 9.337-4.913 12.712-3.249 3.35-7.512 5.025-12.787 5.025-4.725 0-8.713-1.2-11.963-3.6-3.249-2.4-5.387-5.212-6.412-8.437l-.713-2.513 2.588-.975 2.7-1.012.712 2.662c.651 1.975 2.076 3.875 4.275 5.7 2.226 1.825 5.1 2.738 8.625 2.738 3.85 0 6.825-1.101 8.925-3.3 2.1-2.226 3.15-5.188 3.15-8.888 0-3.55-1.175-6.437-3.525-8.662-2.325-2.226-5.349-3.338-9.075-3.338-2.225 0-4.112.313-5.662.938-1.55.6-2.85 1.449-3.9 2.55l-1.463 1.687-2.662-1.087-2.625-1.05.3-2.363ZM240.09 139.535c-5.021 0-9.09 3.953-9.09 8.828v10.89a1.704 1.704 0 0 0 3.41 0v-2.936a3.41 3.41 0 0 1 3.408-3.409h4.545a3.41 3.41 0 0 1 3.409 3.409v2.936a1.704 1.704 0 0 0 3.41 0v-10.89c0-4.875-4.07-8.828-9.09-8.828h-.002Z"/></svg>