<svg xmlns="http://www.w3.org/2000/svg" width="241" height="240" fill="none"><path fill="#356AC3" stroke="#164590" stroke-width="3" d="M77.505 113.434h1.873l-.41-1.827c-.558-2.5-.854-5.105-.854-7.784 0-19.004 14.879-34.323 33.126-34.323h36.276c18.248 0 33.127 15.319 33.127 34.323a35.64 35.64 0 0 1-.855 7.784l-.409 1.827h8.292c18.359 0 33.329 15.413 33.329 34.533 0 19.121-14.97 34.533-33.329 34.533H53.329C34.97 182.5 20 167.088 20 147.967c0-19.12 14.97-34.533 33.33-34.533h24.175Z"/><path fill="#A8DAB5" d="M144.734 84.748a3.21 3.21 0 0 0-3.21-3.21v15.517a3.21 3.21 0 0 0 3.21-3.21v-9.097ZM144.734 109.361a3.21 3.21 0 0 0-3.21-3.211v25.685a3.21 3.21 0 0 0 3.21-3.211v-19.263Z"/><rect width="96.08" height="198.08" x="33.46" y="20.96" fill="#2A8642" stroke="#2A8642" stroke-width="1.92" rx="27.04"/><rect width="96" height="200" x="44.5" y="20" fill="#121212" rx="28"/><path stroke="#356AC3" stroke-linecap="round" stroke-width="2.56" d="M71.5 220h41c15.464 0 28-12.536 28-28V49c0-15.464-12.536-28-28-28H71.876"/><circle cx="91.5" cy="30" r="3" fill="#356AC3"/><path fill="#356AC3" fill-rule="evenodd" d="M95.009 120.35a10.479 10.479 0 1 0-10.263-17.889 10.476 10.476 0 0 0 3.246 17.889l-8.447 16.893A1.905 1.905 0 0 0 81.249 140h20.502a1.905 1.905 0 0 0 1.704-2.757l-8.446-16.893Z" clip-rule="evenodd"/><path fill="#15305C" fill-rule="evenodd" d="m170.091 154.934-4.429-4.401a3.766 3.766 0 0 1 0-5.347 3.823 3.823 0 0 1 5.381 0l10.702 10.634.06.058a3.761 3.761 0 0 1 0 5.348l-.05.048-10.712 10.644a3.82 3.82 0 0 1-5.38 0 3.763 3.763 0 0 1 0-5.346l4.429-4.401h-19.739a3.619 3.619 0 1 1 0-7.237h19.738ZM191.376 136.856l4.431-4.403a3.766 3.766 0 0 0 0-5.347 3.823 3.823 0 0 0-5.381 0L179.665 137.8a3.766 3.766 0 0 0-.001 5.347l10.762 10.693a3.821 3.821 0 0 0 5.381 0 3.764 3.764 0 0 0 0-5.346l-4.43-4.402h19.739a3.618 3.618 0 1 0 0-7.236h-19.74Z" clip-rule="evenodd"/></svg>