<svg width="542" height="53" viewBox="0 0 542 53" fill="none" xmlns="http://www.w3.org/2000/svg">
<path d="M0 5.89258C0.000241249 1.359 4.91114 -1.47099 8.83398 0.801758L44.1709 21.2744C48.0836 23.5413 48.0836 29.1911 44.1709 31.458L8.83398 51.9307C4.91104 54.2035 0 51.3727 0 46.8389V5.89258Z" fill="#188038"/>
<mask id="mask0_2659_15592" style="mask-type:alpha" maskUnits="userSpaceOnUse" x="0" y="0" width="48" height="53">
<path d="M0 5.89258C0.000241249 1.359 4.91114 -1.47099 8.83398 0.801758L44.1709 21.2744C48.0836 23.5413 48.0836 29.1911 44.1709 31.458L8.83398 51.9307C4.91104 54.2035 0 51.3727 0 46.8389V5.89258Z" fill="#188038"/>
</mask>
<g mask="url(#mask0_2659_15592)">
<path d="M15.1113 15.4385C20.2261 15.4387 24.6006 19.1142 25.4824 24.1523L28.9824 44.1484C29.4313 46.7134 27.4574 49.0633 24.8535 49.0635C23.742 49.0635 22.6757 48.6217 21.8896 47.8359L11.3486 37.2969H0V15.4385H15.1113Z" fill="#28FEAF"/>
<path d="M14.0662 21.1353C14.0662 22.6485 12.8396 23.8752 11.3264 23.8752C9.81322 23.8752 8.58655 22.6485 8.58655 21.1353C8.58655 19.6222 9.81322 18.3955 11.3264 18.3955C12.8396 18.3955 14.0662 19.6222 14.0662 21.1353Z" fill="#188038"/>
<path d="M14.0662 31.5965C14.0662 33.1097 12.8396 34.3364 11.3264 34.3364C9.81322 34.3364 8.58655 33.1097 8.58655 31.5965C8.58655 30.0834 9.81322 28.8567 11.3264 28.8567C12.8396 28.8567 14.0662 30.0834 14.0662 31.5965Z" fill="#188038"/>
<path d="M8.83563 26.3659C8.83563 27.8791 7.60896 29.1058 6.09579 29.1058C4.58262 29.1058 3.35596 27.8791 3.35596 26.3659C3.35596 24.8528 4.58262 23.6261 6.09579 23.6261C7.60896 23.6261 8.83563 24.8528 8.83563 26.3659Z" fill="#188038"/>
<path d="M19.3466 26.3659C19.3466 27.8791 18.12 29.1058 16.6068 29.1058C15.0936 29.1058 13.867 27.8791 13.867 26.3659C13.867 24.8528 15.0936 23.6261 16.6068 23.6261C18.12 23.6261 19.3466 24.8528 19.3466 26.3659Z" fill="#188038"/>
</g>
<path d="M300.598 26.7834C300.598 30.5325 299.494 33.5203 297.248 35.747C294.755 38.4113 291.463 39.7244 287.371 39.7244C283.47 39.7244 280.158 38.3732 277.475 35.6708C274.773 32.9684 273.421 29.638 273.421 25.6796C273.421 21.7212 274.773 18.4098 277.475 15.6884C280.177 12.986 283.47 11.6348 287.371 11.6348C289.35 11.6348 291.196 11.9773 292.966 12.6815C294.717 13.3856 296.163 14.3752 297.286 15.6503L294.812 18.1243C293.975 17.1347 292.928 16.3544 291.596 15.7835C290.283 15.2316 288.874 14.9271 287.371 14.9271C284.459 14.9271 281.966 15.9358 279.949 17.953C277.951 20.0084 276.942 22.5776 276.942 25.6415C276.942 28.7245 277.932 31.2937 279.949 33.3491C281.966 35.3663 284.459 36.375 287.371 36.375C290.054 36.375 292.262 35.6328 294.051 34.1293C295.821 32.6259 296.848 30.5705 297.134 27.9443H287.371V24.709H300.388C300.54 25.4703 300.598 26.1363 300.598 26.7834Z" fill="#5F6368"/>
<path d="M310.76 20.1416C313.31 20.1416 315.327 20.8267 316.793 22.1779C318.258 23.5481 319 25.4132 319 27.792V39.1345H315.708V36.5843H315.556C314.129 38.6968 312.225 39.7244 309.847 39.7244C307.829 39.7244 306.136 39.1154 304.765 37.9355C303.395 36.7366 302.729 35.2331 302.729 33.4252C302.729 31.5221 303.452 30.0187 304.88 28.8958C306.307 27.773 308.229 27.2021 310.646 27.2021C312.701 27.2021 314.376 27.5827 315.708 28.3249V27.5446C315.708 26.3457 315.232 25.318 314.281 24.4997C313.329 23.6623 312.225 23.2436 310.931 23.2436C309.009 23.2436 307.468 24.062 306.345 25.6986L303.319 23.7955C305.032 21.3406 307.487 20.1416 310.76 20.1416ZM306.307 33.5013C306.307 34.3958 306.687 35.157 307.449 35.747C308.21 36.356 309.123 36.6414 310.132 36.6414C311.578 36.6414 312.872 36.1085 314.014 35.0238C315.156 33.939 315.727 32.683 315.727 31.2366C314.642 30.3802 313.158 29.9616 311.217 29.9616C309.809 29.9616 308.648 30.3041 307.715 30.9702C306.783 31.6743 306.307 32.4927 306.307 33.5013Z" fill="#5F6368"/>
<path d="M326.213 39.1345H322.75V20.7506H326.042V23.3007H326.194C326.708 22.4063 327.526 21.6451 328.611 21.0551C329.696 20.4461 330.781 20.1606 331.865 20.1606C333.217 20.1606 334.415 20.4651 335.443 21.0932C336.471 21.7212 337.213 22.5776 337.689 23.6814C339.211 21.3406 341.324 20.1606 344.026 20.1606C346.158 20.1606 347.794 20.8077 348.936 22.1208C350.097 23.434 350.668 25.2609 350.668 27.6588V39.1345H347.204V28.1727C347.204 26.4409 346.9 25.2038 346.253 24.4426C345.625 23.6814 344.578 23.3007 343.113 23.3007C341.799 23.3007 340.658 23.8526 339.763 24.9945C338.869 26.1173 338.412 27.4495 338.412 28.972V39.1345H334.948V28.1727C334.948 26.4409 334.644 25.2038 333.997 24.4426C333.369 23.6814 332.322 23.3007 330.857 23.3007C329.544 23.3007 328.402 23.8526 327.507 24.9945C326.613 26.1173 326.156 27.4495 326.156 28.972V39.1345H326.213Z" fill="#5F6368"/>
<path d="M362.791 39.7249C360.089 39.7249 357.862 38.7924 356.111 36.9464C354.36 35.1004 353.485 32.7596 353.485 29.924C353.485 27.1264 354.341 24.7856 356.035 22.9206C357.729 21.0556 359.917 20.123 362.563 20.123C365.284 20.123 367.454 20.9985 369.071 22.7683C370.689 24.5382 371.488 27.0122 371.488 30.1714L371.45 30.552H357.006C357.063 32.3409 357.653 33.8063 358.794 34.9101C359.955 35.9948 361.326 36.5658 362.924 36.5658C365.132 36.5658 366.864 35.481 368.101 33.2734L371.184 34.7769C370.346 36.3184 369.204 37.5363 367.758 38.4118C366.293 39.2872 364.637 39.7249 362.791 39.7249ZM357.272 27.7164H367.815C367.72 26.4413 367.187 25.3756 366.274 24.5573C365.322 23.7199 364.066 23.3012 362.506 23.3012C361.211 23.3012 360.089 23.7009 359.156 24.5002C358.185 25.2995 357.576 26.3842 357.272 27.7164Z" fill="#5F6368"/>
<path d="M388.521 34.0342C388.521 35.6328 387.816 36.984 386.408 38.0878C385 39.1725 383.249 39.7435 381.118 39.7435C379.272 39.7435 377.635 39.2487 376.246 38.2971C374.837 37.3265 373.848 36.0705 373.239 34.4909L376.322 33.1778C376.779 34.2626 377.426 35.138 378.301 35.747C379.157 36.375 380.109 36.6604 381.137 36.6604C382.24 36.6604 383.154 36.413 383.896 35.9373C384.638 35.4615 385 34.8906 385 34.2435C385 33.0636 384.105 32.2072 382.298 31.6553L379.157 30.875C375.58 29.9806 373.791 28.2488 373.791 25.6986C373.791 24.0239 374.476 22.6727 375.827 21.6641C377.178 20.6554 378.948 20.1416 381.06 20.1416C382.697 20.1416 384.163 20.5413 385.457 21.3025C386.77 22.0828 387.683 23.1104 388.216 24.4236L385.133 25.6986C384.791 24.9374 384.22 24.3094 383.42 23.8717C382.64 23.434 381.765 23.2246 380.775 23.2246C379.881 23.2246 379.062 23.453 378.358 23.8907C377.635 24.3474 377.292 24.8803 377.292 25.5464C377.292 26.5931 378.282 27.3353 380.261 27.792L383.04 28.5152C386.694 29.4097 388.521 31.2557 388.521 34.0342Z" fill="#5F6368"/>
<path d="M78.2128 39.1382C69.7816 39.1382 62.6904 32.3276 62.6904 23.96C62.6904 15.5924 69.7775 8.78174 78.2128 8.78174C82.8786 8.78174 86.196 10.5955 88.6954 12.9635L85.748 15.8858C83.9556 14.2188 81.5303 12.9227 78.2128 12.9227C72.059 12.9227 67.2452 17.8463 67.2452 23.9559C67.2452 30.0655 72.059 34.985 78.2128 34.985C82.2044 34.985 84.4818 33.3954 85.9371 31.9485C87.1292 30.7625 87.9144 29.0629 88.2144 26.7274H78.106V22.5905H92.28C92.428 23.3323 92.502 24.2208 92.502 25.1827C92.502 28.2926 91.6429 32.1442 88.8845 34.8831C86.196 37.6587 82.7635 39.1382 78.2128 39.1382Z" fill="#5F6368"/>
<path d="M113.73 29.3646C113.73 34.9932 109.294 39.1383 103.856 39.1383C98.4132 39.1383 93.9817 34.9932 93.9817 29.3646C93.9817 23.6992 98.4173 19.5908 103.856 19.5908C109.294 19.5949 113.73 23.7033 113.73 29.3646ZM109.405 29.3646C109.405 25.8472 106.832 23.4424 103.852 23.4424C100.871 23.4424 98.298 25.8472 98.298 29.3646C98.298 32.8453 100.871 35.2867 103.852 35.2867C106.832 35.2867 109.405 32.8453 109.405 29.3646Z" fill="#5F6368"/>
<path d="M135.226 29.3646C135.226 34.9932 130.79 39.1383 125.351 39.1383C119.913 39.1383 115.473 34.9932 115.473 29.3646C115.473 23.6992 119.909 19.5908 125.347 19.5908C130.786 19.5908 135.226 23.7033 135.226 29.3646ZM130.901 29.3646C130.901 25.8472 128.328 23.4424 125.347 23.4424C122.367 23.4424 119.794 25.8472 119.794 29.3646C119.794 32.8453 122.367 35.2867 125.347 35.2867C128.328 35.2867 130.901 32.8453 130.901 29.3646Z" fill="#5F6368"/>
<path d="M155.788 20.1862V37.7325C155.788 44.9507 151.496 47.9138 146.423 47.9138C141.647 47.9138 138.773 44.7306 137.692 42.1384L141.462 40.5855C142.132 42.1792 143.776 44.0663 146.423 44.0663C149.671 44.0663 151.685 42.0691 151.685 38.3275V36.9214H151.537C150.567 38.1075 148.701 39.1427 146.349 39.1427C141.425 39.1427 136.911 34.8876 136.911 29.4056C136.911 23.8911 141.425 19.5952 146.349 19.5952C148.701 19.5952 150.567 20.6305 151.537 21.7798H151.685V20.1862H155.788V20.1862ZM151.981 29.4016C151.981 25.9575 149.667 23.4428 146.719 23.4428C143.735 23.4428 141.235 25.9616 141.235 29.4016C141.235 32.8089 143.735 35.287 146.719 35.287C149.667 35.287 151.981 32.8089 151.981 29.4016Z" fill="#5F6368"/>
<path d="M163.228 9.8208V38.547H158.9V9.8208H163.228Z" fill="#5F6368"/>
<path d="M180.005 32.5844L183.363 34.8057C182.282 36.3994 179.668 39.1383 175.154 39.1383C169.559 39.1383 165.378 34.8424 165.378 29.3646C165.378 23.5525 169.596 19.5908 174.669 19.5908C179.779 19.5908 182.278 23.6259 183.1 25.8105L183.548 26.9191L170.377 32.3236C171.384 34.284 172.951 35.2867 175.154 35.2867C177.353 35.2867 178.887 34.2148 180.005 32.5844ZM169.67 29.0711L178.475 25.4437C177.99 24.2209 176.535 23.3691 174.821 23.3691C172.618 23.3691 169.559 25.2929 169.67 29.0711Z" fill="#5F6368"/>
<path d="M256.792 20.7568L251.834 33.2125H251.686L246.543 20.7568H241.882L249.598 38.1605L245.199 47.8445H249.713L261.601 20.7568H256.792V20.7568Z" fill="#5F6368"/>
<path d="M221.944 10.4121H217.62V39.1383H221.944V10.4121Z" fill="#5F6368"/>
<path d="M205.727 10.4121H195.368V39.1383H199.7V28.2641H205.739C210.532 28.2641 215.243 24.8241 215.243 19.3422C215.243 13.8602 210.52 10.4121 205.727 10.4121ZM205.842 24.2494H199.7V14.4227H205.85C207.166 14.4227 208.432 14.9403 209.361 15.8655C210.294 16.7907 210.816 18.042 210.816 19.3462C210.816 20.6505 210.294 21.9058 209.361 22.827C208.428 23.7522 207.166 24.2698 205.85 24.2698L205.842 24.2494Z" fill="#5F6368"/>
<path d="M232.567 20.1294C229.434 20.1294 226.191 21.4948 224.851 24.5272L228.69 26.1167C229.512 24.5272 231.037 24.0218 232.641 24.0218C234.873 24.0218 237.15 25.3546 237.187 27.7226V28.016C235.806 27.2824 234.264 26.8993 232.694 26.8952C228.554 26.8952 224.345 29.1491 224.345 33.3635C224.345 37.207 227.728 39.681 231.535 39.681C234.445 39.681 236.048 38.3889 237.035 36.8768H237.187V39.09H241.364V28.0772C241.364 22.9743 237.524 20.1294 232.567 20.1294ZM232.045 35.8742C230.626 35.8742 228.661 35.1691 228.661 33.4328C228.661 31.2196 231.12 30.3678 233.249 30.3678C234.63 30.3311 235.991 30.6612 237.199 31.3297C237.039 32.5769 236.431 33.7222 235.485 34.5577C234.532 35.3932 233.315 35.8579 232.045 35.8742Z" fill="#5F6368"/>
<path d="M432.52 20H435.506V36.2362H443.691V39.0888H432.52V20Z" fill="#5F6368"/>
<path d="M446.046 20H457.644V22.8527H449.032V28.1314H456.79V30.9574H449.032V36.2362H457.644V39.0888H446.046V20Z" fill="#5F6368"/>
<path d="M458.985 20H462.237L466.503 32.6104L467.196 34.7699H467.356L468.049 32.6104L472.502 20H475.781L468.823 39.0888H465.703L458.985 20Z" fill="#5F6368"/>
<path d="M477.707 20H489.304V22.8527H480.692V28.1314H488.451V30.9574H480.692V36.2362H489.304V39.0888H477.707V20Z" fill="#5F6368"/>
<path d="M492.378 20H495.364V36.2362H503.549V39.0888H492.378V20Z" fill="#5F6368"/>
<path d="M517.846 39.5154C516.424 39.5154 515.162 39.1955 514.06 38.5556C512.976 37.9158 512.132 37.0093 511.528 35.8363C510.923 34.6632 510.621 33.3035 510.621 31.7572V20H513.607V31.9172C513.607 33.3391 513.972 34.4855 514.7 35.3564C515.429 36.2273 516.478 36.6627 517.846 36.6627C519.215 36.6627 520.263 36.2273 520.992 35.3564C521.739 34.4677 522.112 33.3213 522.112 31.9172V20H525.071V31.7572C525.071 33.2858 524.778 34.6366 524.191 35.8096C523.605 36.9827 522.77 37.898 521.685 38.5556C520.601 39.1955 519.321 39.5154 517.846 39.5154Z" fill="#5F6368"/>
<path d="M528.374 20H534.986C536.105 20 537.136 20.2488 538.078 20.7465C539.038 21.2442 539.793 21.9373 540.344 22.826C540.913 23.7147 541.197 24.7189 541.197 25.8386C541.197 26.9584 540.913 27.9626 540.344 28.8513C539.793 29.7399 539.038 30.4331 538.078 30.9308C537.136 31.4284 536.105 31.6773 534.986 31.6773H531.36V39.0888H528.374V20ZM535.065 28.8513C535.705 28.8513 536.265 28.7091 536.745 28.4247C537.225 28.1225 537.589 27.7404 537.838 27.2783C538.087 26.8162 538.211 26.3363 538.211 25.8386C538.211 25.341 538.087 24.8611 537.838 24.399C537.589 23.9369 537.225 23.5636 536.745 23.2792C536.265 22.9949 535.705 22.8527 535.065 22.8527H531.36V28.8513H535.065Z" fill="#5F6368"/>
<path d="M411.539 0L411.539 52.73" stroke="#5F6368" stroke-width="2.03789"/>
</svg>
