<svg xmlns="http://www.w3.org/2000/svg" width="481" height="480" fill="none"><path fill="#2A8642" d="M149.718 90a5.218 5.218 0 0 0-5.218 5.217h25.218A5.217 5.217 0 0 0 164.501 90h-14.783ZM189.716 90a5.217 5.217 0 0 0-5.217 5.217h41.739A5.218 5.218 0 0 0 221.02 90h-31.304Z"/><rect width="155.261" height="322.218" x="46" y="270.5" fill="#2A8642" stroke="#2A8642" stroke-width="3" rx="43.5" transform="rotate(-90 46 270.5)"/><rect width="158.261" height="325.218" x="44.5" y="254.609" fill="#121212" rx="45" transform="rotate(-90 44.5 254.609)"/><path stroke="#356AC3" stroke-linecap="round" stroke-width="4" d="M368.849 208.131v-66.783c0-24.853-20.147-45-45-45H90.371c-24.853 0-45 20.147-45 45v66.174"/><circle cx="60.587" cy="175.913" r="4.783" fill="#356AC3" transform="rotate(-90 60.587 175.913)"/><rect width="24.132" height="24.13" x="158.051" y="211.379" fill="#356AC3" rx="12.065" transform="rotate(-180 158.051 211.379)"/><rect width="24.13" height="24.132" x="109.787" y="187.26" fill="#356AC3" rx="12.065" transform="rotate(-90 109.787 187.26)"/><rect width="24.132" height="24.13" x="158.051" y="163.123" fill="#356AC3" rx="12.065" transform="rotate(-180 158.051 163.123)"/><rect width="24.13" height="24.132" x="158.051" y="187.26" fill="#356AC3" rx="12.065" transform="rotate(-90 158.051 187.26)"/><rect width="18.653" height="62.487" x="281.938" y="206.715" fill="#164590" rx="9.326" transform="rotate(-180 281.938 206.715)"/><rect width="18.653" height="63.42" x="240.901" y="185.264" fill="#164590" rx="9.326" transform="rotate(-90 240.901 185.264)"/><path fill="#2A8642" fill-rule="evenodd" d="M345.118 213h9.781c35.335 0 64.286 27.334 66.862 62.01l13.579 61.106C441.371 363.255 420.719 389 392.917 389a43.456 43.456 0 0 1-34.303-16.777l-19.544-25.128h-98.248l-19.544 25.128A43.456 43.456 0 0 1 186.975 389c-27.802 0-48.454-25.745-42.423-52.884l13.582-61.118c2.582-34.671 31.53-61.998 66.861-61.998H345.118Z" clip-rule="evenodd"/><path fill="#2A8642" d="M157.937 280.048c0-37.03 30.018-67.048 67.048-67.048h129.904c37.03 0 67.048 30.018 67.048 67.048 0 37.029-30.018 67.047-67.048 67.047H224.985c-37.03 0-67.048-30.018-67.048-67.047Z"/><rect width="69.882" height="69.882" x="299.5" y="239" fill="#A2D004" rx="34.941"/><rect width="16.798" height="16.796" x="325.704" y="248.979" fill="#2A8642" rx="8.398"/><rect width="16.796" height="16.798" x="359.3" y="265.768" fill="#2A8642" rx="8.398" transform="rotate(90 359.3 265.768)"/><rect width="16.798" height="16.796" x="325.704" y="282.57" fill="#2A8642" rx="8.398"/><rect width="16.796" height="16.798" x="325.704" y="265.768" fill="#2A8642" rx="8.398" transform="rotate(90 325.704 265.768)"/><rect width="25.882" height="10.353" x="278.087" y="314.266" fill="#121212" rx="5.176"/><rect width="69.882" height="69.882" x="210.793" y="239.465" fill="#112719" rx="34.941"/><rect width="12.941" height="44" x="239.262" y="252.406" fill="#2A8642" rx="6.471"/><rect width="12.941" height="44" x="267.734" y="267.936" fill="#2A8642" rx="6.471" transform="rotate(90 267.734 267.936)"/><path stroke="#A8DAB5" stroke-linecap="round" stroke-width="4" d="M239.363 347.5h-14.5c-9.166.167-32.243-4.5-46-19-18.5-19.5-20.863-39-20.863-47M340.363 346.995h15.406c9.111.165 30.986-2.536 46.232-17.495 20.009-19.633 19.499-43.5 19.499-49"/></svg>