<svg xmlns="http://www.w3.org/2000/svg" width="480" height="480" fill="none"><path fill="#2A8642" d="M129.841 416.832h48.762L113.051 62.48H92.378c-25.048 0-44.328 22.12-40.908 46.933l37.463 271.764c2.817 20.434 20.28 35.655 40.908 35.655"/><path fill="#121212" d="M245.132 97.823C242.39 77.313 224.893 62 204.201 62h-89.579c-24.98 0-44.24 22.007-40.93 46.767L110.15 381.48c2.742 20.509 20.239 35.823 40.931 35.823h89.579c24.98 0 44.241-22.007 40.93-46.767z"/><path stroke="#164590" stroke-linecap="round" stroke-width="4.109" d="M116.623 64.015h87.862c20.655 0 38.133 15.26 40.918 35.728l36.555 268.686c3.373 24.79-15.899 46.861-40.918 46.861h-90.77"/><circle cx="5.484" cy="5.484" r="5.484" fill="#356AC3" transform="matrix(-1 0 0 1 166.467 76.36)"/><rect width="9.527" height="41.049" x="-1.755" y="2.315" stroke="#A8DAB5" stroke-width="4.109" rx="4.764" transform="matrix(-.99067 .13632 .13632 .99067 69.745 168.318)"/><rect width="9.527" height="75.746" x="-1.755" y="2.315" stroke="#A8DAB5" stroke-width="4.109" rx="4.764" transform="matrix(-.99067 .13632 .13632 .99067 77.44 224.073)"/><circle cx="19.498" cy="19.498" r="19.498" fill="#103C20" transform="matrix(-1 0 0 1 263.581 358.122)"/><circle cx="19.498" cy="19.498" r="19.498" fill="#103C20" transform="matrix(-1 0 0 1 217.272 358.122)"/><circle cx="19.498" cy="19.498" r="19.498" fill="#103C20" transform="matrix(-1 0 0 1 170.973 358.122)"/><rect width="151.071" height="151.071" x="175" y="110" fill="#103C20" rx="30.989"/><mask id="a" width="152" height="152" x="175" y="110" maskUnits="userSpaceOnUse" style="mask-type:alpha"><path fill="#103C20" d="M175 140.989C175 123.874 188.874 110 205.989 110h89.093c17.115 0 30.989 13.874 30.989 30.989v89.093c0 17.115-13.874 30.989-30.989 30.989h-89.093c-17.115 0-30.989-13.874-30.989-30.989z"/></mask><g clip-path="url(#b)" mask="url(#a)"><path fill="#2A8642" d="M325.645 257.669a74.454 74.454 0 0 0-1.299-6.522 75.3 75.3 0 0 0-6.397-16.924 76 76 0 0 0-5.514-8.967 75.7 75.7 0 0 0-8.325-9.779 76.126 76.126 0 0 0-13.405-10.594q.042-.073.085-.147c1.523-2.626 3.051-5.248 4.575-7.873l4.472-7.689a4601 4601 0 0 0 3.209-5.523q.38-.656.604-1.352a6.92 6.92 0 0 0-.214-4.817 6.873 6.873 0 0 0-2.845-3.258 7 7 0 0 0-2.955-.947 7 7 0 0 0-2.378.206 6.93 6.93 0 0 0-4.222 3.216 4601 4601 0 0 0-3.209 5.523l-4.472 7.69c-1.524 2.625-3.052 5.247-4.575 7.873q-.25.428-.501.863c-.232-.092-.46-.184-.692-.272-8.403-3.195-17.52-4.943-27.049-4.943q-.39-.001-.78.004a76 76 0 0 0-24.208 4.19q-1.318.458-2.609.965l-.468-.804c-1.523-2.625-3.051-5.247-4.575-7.873l-4.472-7.689a3932 3932 0 0 1-3.209-5.523 6.92 6.92 0 0 0-5.293-3.411 7 7 0 0 0-1.306-.011 6.9 6.9 0 0 0-2.956.947 6.9 6.9 0 0 0-3.158 4.172 6.92 6.92 0 0 0 .099 3.903q.225.695.604 1.351 1.607 2.761 3.21 5.523l4.472 7.69c1.523 2.625 3.051 5.247 4.575 7.873l.036.066a76 76 0 0 0-8.76 6.327 76.5 76.5 0 0 0-13.099 14.13 75 75 0 0 0-5.513 8.967 75.3 75.3 0 0 0-7.549 22.528c-.052.305-.1.614-.148.918a77 77 0 0 0-.434 3.316h151.071a76 76 0 0 0-.434-3.316z"/><path fill="#fff" d="M289.836 240.246c3.023-2.006 3.462-6.648.981-10.368-2.481-3.719-6.942-5.108-9.964-3.101s-3.462 6.648-.981 10.368c2.481 3.719 6.942 5.108 9.964 3.101M221.336 237.158c2.481-3.719 2.041-8.361-.981-10.368-3.023-2.006-7.484-.618-9.965 3.102s-2.041 8.362.981 10.368c3.023 2.007 7.484.618 9.965-3.102"/></g><path fill="#164590" d="M20.528 314.332c.526-1.776 3.041-1.776 3.567 0l2.214 7.471a3.72 3.72 0 0 0 2.51 2.511l7.472 2.214c1.776.526 1.776 3.041 0 3.568l-7.472 2.213a3.72 3.72 0 0 0-2.51 2.511l-2.214 7.471c-.526 1.777-3.041 1.777-3.567 0l-2.214-7.471a3.72 3.72 0 0 0-2.51-2.511l-7.472-2.213c-1.776-.527-1.776-3.042 0-3.568l7.471-2.214a3.72 3.72 0 0 0 2.511-2.511zM422.527 210.332c.527-1.776 3.042-1.776 3.568 0l2.214 7.471a3.72 3.72 0 0 0 2.51 2.511l7.472 2.214c1.776.526 1.776 3.041 0 3.568l-7.472 2.213a3.72 3.72 0 0 0-2.51 2.511l-2.214 7.471c-.526 1.777-3.041 1.777-3.568 0l-2.213-7.471a3.72 3.72 0 0 0-2.511-2.511l-7.471-2.213c-1.776-.527-1.776-3.042 0-3.568l7.471-2.214a3.72 3.72 0 0 0 2.511-2.511z"/><path fill="#356AC3" d="M300.335 302.956A46.03 46.03 0 0 1 342.229 276h38.582a46.03 46.03 0 0 1 41.894 26.956l17.071 37.49H283.264z"/><path fill="#132137" d="M315.212 311.956a36.83 36.83 0 0 1 33.774-22.146h25.07a36.83 36.83 0 0 1 33.774 22.146l11.683 26.88a1.15 1.15 0 0 1-1.055 1.61H304.584c-.829 0-1.386-.85-1.056-1.61z"/><path fill="#121212" fill-rule="evenodd" d="M373.94 304.286a6.265 6.265 0 0 1 7.769-4.26c7.237 2.11 13.825 7.774 18.014 16.964a6.265 6.265 0 0 1-11.402 5.197c-2.91-6.385-6.89-9.19-10.12-10.132a6.266 6.266 0 0 1-4.261-7.769" clip-rule="evenodd"/><path fill="#356AC3" d="M251.041 368.066c0-15.254 12.366-27.62 27.62-27.62h165.72c15.254 0 27.619 12.366 27.619 27.62v27.62a9.206 9.206 0 0 1-9.206 9.207H260.248a9.207 9.207 0 0 1-9.207-9.207z"/><path fill="#2A8642" d="M251.041 386.479h220.92v9.207a9.207 9.207 0 0 1-9.207 9.207H260.248a9.207 9.207 0 0 1-9.207-9.207z"/><path fill="#AECBFA" d="M444.38 397.988c0 13.983-11.336 25.318-25.319 25.318s-25.318-11.335-25.318-25.318 11.336-25.319 25.318-25.319 25.319 11.336 25.319 25.319"/><mask id="c" width="221" height="65" x="251" y="340" maskUnits="userSpaceOnUse" style="mask-type:alpha"><path fill="#34A853" d="M251 368.066c0-15.254 12.366-27.62 27.62-27.62h165.72c15.254 0 27.619 12.366 27.619 27.62v27.62a9.206 9.206 0 0 1-9.206 9.207H260.207a9.207 9.207 0 0 1-9.207-9.207z"/></mask><g mask="url(#c)"><path fill="#A2D004" d="M471.959 381.877a9.205 9.205 0 1 1 0-18.414v18.414"/></g><path fill="#AECBFA" d="M329.297 397.988c0 13.983-11.336 25.318-25.319 25.318s-25.318-11.335-25.318-25.318 11.336-25.319 25.318-25.319 25.319 11.336 25.319 25.319"/><path fill="#fff" fill-rule="evenodd" d="M330.467 353.968a1.15 1.15 0 0 1-1.151 1.151h-18.413a1.15 1.15 0 1 1 0-2.302h18.413c.636 0 1.151.516 1.151 1.151M413.326 353.968a1.15 1.15 0 0 1-1.151 1.151h-18.413a1.151 1.151 0 0 1 0-2.302h18.413c.636 0 1.151.516 1.151 1.151M361.521 386.479v-46.033h2.301v46.033z" clip-rule="evenodd"/><path fill="#A2D004" fill-rule="evenodd" d="M364.251 97.572a3.41 3.41 0 0 1-1.079 4.698l-18.381 11.52a3.409 3.409 0 0 1-3.621-5.777l18.382-11.52a3.41 3.41 0 0 1 4.699 1.079" clip-rule="evenodd"/><path fill="#A2D004" fill-rule="evenodd" d="M362.807 98.477c.5.798.258 1.849-.539 2.349l-18.382 11.52a1.704 1.704 0 0 1-1.81-2.888l18.381-11.52c.798-.5 1.85-.259 2.35.539M329.957 70.555a3.41 3.41 0 0 1 2.077 4.35L324.8 95.358a3.408 3.408 0 1 1-6.427-2.273l7.233-20.452a3.41 3.41 0 0 1 4.351-2.077" clip-rule="evenodd"/><path fill="#A2D004" fill-rule="evenodd" d="M329.388 72.162a1.704 1.704 0 0 1 1.039 2.175l-7.234 20.452a1.704 1.704 0 1 1-3.213-1.137l7.233-20.451a1.704 1.704 0 0 1 2.175-1.039M376.369 137.646a3.41 3.41 0 0 1-3.685 3.109l-21.615-1.835a3.409 3.409 0 1 1 .577-6.793l21.615 1.835a3.41 3.41 0 0 1 3.108 3.684" clip-rule="evenodd"/><path fill="#A2D004" fill-rule="evenodd" d="M374.671 137.502a1.705 1.705 0 0 1-1.843 1.554l-21.615-1.834a1.705 1.705 0 0 1 .288-3.397l21.616 1.835c.938.08 1.633.904 1.554 1.842" clip-rule="evenodd"/><path fill="#15305C" d="M105.233 119.067C105.233 103.566 92.668 91 77.167 91h-42.1C19.566 91 7 103.566 7 119.067s12.566 28.066 28.067 28.066h42.1c15.5 0 28.066-12.566 28.066-28.066"/><path fill="#356AC3" d="m44.716 117.816 18.526-19.014c.497-.51 1.327.06 1.03.706l-5.61 12.254a.634.634 0 0 0 .46.887l10.93 2.039c.486.09.685.679.354 1.047l-20.87 23.182c-.49.544-1.359-.038-1.042-.698l7.876-16.414a.635.635 0 0 0-.455-.898l-10.86-2.025a.634.634 0 0 1-.339-1.066"/><defs><clipPath id="b"><path fill="#fff" d="M175 173.338h151.071v87.734H175z"/></clipPath></defs></svg>