<svg xmlns="http://www.w3.org/2000/svg" width="854" height="480" fill="none"><mask id="a" fill="#fff"><path fill-rule="evenodd" d="M543.419 122.318v-.048c0-22.117 17.93-40.047 40.048-40.047 22.118 0 40.048 17.93 40.048 40.047 0 .184-.002.367-.004.549 15.145 2.694 26.644 15.927 26.644 31.846 0 17.864-14.482 32.346-32.346 32.346h-95.498c-17.865 0-32.347-14.482-32.347-32.346 0-17.865 14.482-32.347 32.347-32.347h21.108Z" clip-rule="evenodd"/></mask><path fill="#fff" fill-rule="evenodd" d="M543.419 122.318v-.048c0-22.117 17.93-40.047 40.048-40.047 22.118 0 40.048 17.93 40.048 40.047 0 .184-.002.367-.004.549 15.145 2.694 26.644 15.927 26.644 31.846 0 17.864-14.482 32.346-32.346 32.346h-95.498c-17.865 0-32.347-14.482-32.347-32.346 0-17.865 14.482-32.347 32.347-32.347h21.108Z" clip-rule="evenodd"/><path fill="#AECBFA" d="m543.419 122.318 4-.003.004 4.003h-4.004v-4Zm80.092.501-.7 3.939-3.345-.595.045-3.397 4 .053Zm-76.092-.549v.045l-8 .007v-.052h8Zm36.048-36.047c-19.909 0-36.048 16.139-36.048 36.047h-8c0-24.326 19.721-44.047 44.048-44.047v8Zm36.048 36.047c0-19.908-16.139-36.047-36.048-36.047v-8c24.327 0 44.048 19.72 44.048 44.047h-8Zm-.004.496c.003-.165.004-.33.004-.496h8c0 .202-.002.402-.004.603l-8-.107Zm26.644 31.899c0-13.946-10.075-25.548-23.344-27.907l1.4-7.877c17.021 3.027 29.944 17.892 29.944 35.784h-8Zm-28.346 28.346c15.655 0 28.346-12.691 28.346-28.346h8c0 20.073-16.272 36.346-36.346 36.346v-8Zm-95.498 0h95.498v8h-95.498v-8Zm-28.347-28.346c0 15.655 12.691 28.346 28.347 28.346v8c-20.074 0-36.347-16.273-36.347-36.346h8Zm28.347-28.347c-15.656 0-28.347 12.691-28.347 28.347h-8c0-20.074 16.273-36.347 36.347-36.347v8Zm21.108 0h-21.108v-8h21.108v8Z" mask="url(#a)"/><circle cx="419.354" cy="252.212" r="164.523" fill="#4285F4"/><mask id="b" width="330" height="330" x="254" y="87" maskUnits="userSpaceOnUse" style="mask-type:alpha"><rect width="329.046" height="329.046" x="583.877" y="416.735" fill="#4285F4" rx="164.523" transform="rotate(180 583.877 416.735)"/></mask><g fill="#34A853" mask="url(#b)"><circle cx="326.933" cy="158.586" r="72.512"/><rect width="75.589" height="115.141" x="351.106" y="188.027" rx="37.794"/><rect width="95.674" height="145.735" x="538.235" y="224.941" rx="47.837" transform="rotate(30 538.235 224.941)"/><circle cx="316.386" cy="369.528" r="61.965"/><circle cx="395.487" cy="425.779" r="61.965"/><circle cx="536.125" cy="215.713" r="72.512"/></g><path fill="#fff" d="M566.415 314.329c-20.002 0-36.218 16.216-36.218 36.218 0 2.821.323 5.566.933 8.2h-25.287c-20.12 0-36.43 16.311-36.43 36.43 0 20.12 16.31 36.43 36.43 36.43h140.515c20.12 0 36.43-16.31 36.43-36.43 0-20.119-16.31-36.43-36.43-36.43h-6.714a36.31 36.31 0 0 0 .932-8.2c0-20.002-16.215-36.218-36.218-36.218h-37.943Z"/><path stroke="#AECBFA" stroke-linecap="round" stroke-width="4" d="M476.569 416.342c5.088 9.329 17.809 15.266 35.618 15.266h134.179c20.12 0 36.43-16.311 36.43-36.43 0-20.12-16.31-36.43-36.43-36.43h-6.714c.61-2.635.932-5.38.932-8.2 0-14.315-8.304-26.69-20.358-32.571-4.743-2.313-10.129-2.669-15.406-2.669h-21.396"/><path fill="#fff" d="M234.185 322.052c.478-16.545 14.424-29.815 31.558-29.815 17.133 0 31.079 13.27 31.558 29.815h7.908c15.014 0 27.186 12.172 27.186 27.186s-12.172 27.186-27.186 27.186H196.282c-15.014 0-27.186-12.172-27.186-27.186s12.172-27.186 27.186-27.186h37.903Z"/><path stroke="#AECBFA" stroke-linecap="round" stroke-width="4" d="M302.566 376.424H196.282c-15.014 0-27.186-12.171-27.186-27.186 0-15.014 12.172-27.185 27.186-27.185h37.903c.345-11.948 7.714-22.188 18.234-26.956"/><path fill="#0D652D" d="M201.368 134.812h49.056v37.326c0 13.546-10.981 24.528-24.528 24.528-13.546 0-24.528-10.982-24.528-24.528v-37.326Z"/><path fill="#C6FF00" fill-rule="evenodd" d="M250.423 155.258c21.357-9.427 36.263-30.792 36.263-55.637 0-33.572-27.215-60.787-60.787-60.787s-60.787 27.215-60.787 60.787c0 24.842 14.902 46.204 36.254 55.633v11.553h49.057v-11.549Z" clip-rule="evenodd"/><path stroke="#202124" stroke-width="4" d="M219.875 166.807c.52-33.459.764-48.404.788-79.925.002-2.97-2.406-5.39-5.376-5.39a5.378 5.378 0 0 0-5.379 5.378v33.914a8.266 8.266 0 0 0 8.266 8.266h12.401c5.667 0 10.26-4.594 10.26-10.26V86.562a5.07 5.07 0 1 0-10.139 0v80.245"/><path stroke="#fff" stroke-linecap="round" stroke-width="12.564" d="M236.267 59.176c9.053 1.91 18.171 7.288 24.253 17.23"/></svg>