<?xml version="1.0" encoding="UTF-8"?><svg xmlns="http://www.w3.org/2000/svg" viewBox="0 0 1200 1000"><defs><style>.cls-1{opacity:.1;}.cls-2{fill:#f46835;}.cls-3{fill:#041619;}.cls-4{fill:#fff;}.cls-5{fill:#fdffff;}.cls-6{fill:#d6f0ff;}.cls-7{fill:#155d77;}.cls-8{fill:#083042;}.cls-9{fill:#4285f4;}.cls-10{fill:#3ddc84;}.cls-11{fill:#3ddb85;}.cls-12{fill:#04dd7b;}.cls-13{fill:#37bf6e;}.cls-14{fill:#3870b2;}.cls-15,.cls-16{mix-blend-mode:multiply;}.cls-17{opacity:.6;}.cls-18{isolation:isolate;}.cls-16{opacity:.7;}</style></defs><g class="cls-18"><g id="Layer_1"><rect class="cls-7" x="123.95" y="292.47" width="985.48" height="457.67" rx="228.84" ry="228.84"/><g><rect class="cls-6" x="385.78" y="125.77" width="458.14" height="800.97" rx="48.02" ry="48.02"/><g class="cls-15"><path class="cls-6" d="M263.64,404.14c-.52,0-1.04-.06-1.55-.16-.51-.11-1-.25-1.49-.46-.47-.19-.93-.44-1.36-.73-.43-.28-.84-.62-1.2-.98s-.7-.76-.98-1.2c-.28-.43-.54-.88-.73-1.36-.21-.47-.35-.98-.46-1.49-.09-.51-.14-1.03-.14-1.53s.05-1.04,.14-1.55c.11-.51,.25-1,.46-1.49,.19-.47,.44-.93,.73-1.36s.62-.84,.98-1.2,.77-.7,1.2-.98c.43-.28,.89-.54,1.36-.73,.49-.21,.98-.35,1.49-.46,1.01-.21,2.07-.21,3.08,0,.51,.11,1.01,.25,1.49,.46,.47,.19,.93,.44,1.36,.73,.44,.28,.84,.62,1.2,.98s.7,.77,.98,1.2,.54,.89,.73,1.36c.21,.49,.35,.98,.46,1.49,.09,.51,.16,1.03,.16,1.55s-.06,1.03-.16,1.53c-.11,.51-.25,1.01-.46,1.49-.19,.47-.44,.93-.73,1.36-.28,.44-.62,.84-.98,1.2s-.76,.7-1.2,.98c-.43,.28-.89,.54-1.36,.73-.47,.21-.98,.35-1.49,.46-.51,.09-1.03,.16-1.53,.16Z"/><path class="cls-6" d="M616.87,553.45c0-4.36,3.54-7.9,7.9-7.9h0c4.36,0,7.9,3.54,7.9,7.9h0c0,4.36-3.54,7.9-7.9,7.9h0c-4.36,0-7.9-3.54-7.9-7.9Zm-35.65,0c0-4.36,3.54-7.9,7.9-7.9h0c4.36,0,7.9,3.54,7.9,7.9h0c0,4.36-3.54,7.9-7.9,7.9h0c-4.36,0-7.9-3.54-7.9-7.9Zm-35.67,0c0-4.36,3.54-7.9,7.9-7.9h0c4.36,0,7.9,3.54,7.9,7.9h0c0,4.36-3.54,7.9-7.9,7.9h0c-4.36,0-7.9-3.54-7.9-7.9Zm-35.65,0c0-4.36,3.54-7.9,7.9-7.9h0c4.36,0,7.9,3.54,7.9,7.9h0c0,4.36-3.54,7.9-7.9,7.9h0c-4.36,0-7.9-3.54-7.9-7.9Zm-35.67,0c0-4.36,3.54-7.9,7.9-7.9h0c4.36,0,7.9,3.54,7.9,7.9h0c0,4.36-3.54,7.9-7.9,7.9h0c-4.36,0-7.9-3.54-7.9-7.9Zm-35.65,0c0-4.36,3.54-7.9,7.9-7.9h0c4.36,0,7.9,3.54,7.9,7.9h0c0,4.36-3.54,7.9-7.9,7.9h0c-4.36,0-7.9-3.54-7.9-7.9Zm-35.67,0c0-4.36,3.54-7.9,7.9-7.9h0c4.38,0,7.9,3.54,7.9,7.9h0c0,4.36-3.52,7.9-7.9,7.9h0c-4.36,0-7.9-3.54-7.9-7.9Zm-35.65,0c0-4.36,3.54-7.9,7.9-7.9h0c4.36,0,7.9,3.54,7.9,7.9h0c0,4.36-3.54,7.9-7.9,7.9h0c-4.36,0-7.9-3.54-7.9-7.9Zm-35.67,0c0-4.36,3.54-7.9,7.9-7.9h0c4.38,0,7.9,3.54,7.9,7.9h0c0,4.36-3.52,7.9-7.9,7.9h0c-4.36,0-7.9-3.54-7.9-7.9Zm-28.51,7.65c-4.35-.43-7.52-4.28-7.1-8.63h0c.43-4.35,4.28-7.52,8.63-7.09h0c4.35,.43,7.52,4.28,7.1,8.63h0c-.4,4.08-3.84,7.14-7.85,7.14h0c-.25,0-.52-.02-.77-.05Zm-35.91-19.52c-2.72-3.41-2.15-8.39,1.25-11.11h0c3.41-2.72,8.39-2.17,11.11,1.25h0c2.72,3.41,2.17,8.38-1.25,11.11h0c-1.45,1.15-3.19,1.72-4.91,1.72h0c-2.32,0-4.63-1.03-6.19-2.97Zm-11.43-38.37c0-4.36,3.54-7.9,7.9-7.9h0c4.36,0,7.9,3.54,7.9,7.9h0c0,4.36-3.54,7.9-7.9,7.9h0c-4.36,0-7.9-3.54-7.9-7.9Zm0-35.65c0-4.38,3.54-7.9,7.9-7.9h0c4.36,0,7.9,3.52,7.9,7.9h0c0,4.36-3.54,7.89-7.9,7.89h0c-4.36,0-7.9-3.52-7.9-7.89Zm0-35.67c0-4.36,3.54-7.9,7.9-7.9h0c4.36,0,7.9,3.54,7.9,7.9h0c0,4.36-3.54,7.9-7.9,7.9h0c-4.36,0-7.9-3.54-7.9-7.9Z"/><path class="cls-6" d="M660.48,561.36c-.52,0-1.04-.05-1.55-.16-.51-.1-1-.25-1.49-.44-.47-.21-.93-.44-1.36-.73-.43-.3-.84-.63-1.2-1s-.7-.76-.98-1.2c-.29-.43-.54-.89-.73-1.36-.21-.47-.35-.98-.46-1.48-.1-.51-.14-1.03-.14-1.53s.05-1.04,.14-1.55c.11-.51,.25-1,.46-1.47,.19-.49,.44-.95,.73-1.37,.28-.43,.62-.84,.98-1.2s.77-.69,1.2-.98c.43-.28,.88-.52,1.36-.73,.49-.19,.98-.35,1.49-.44,1.01-.22,2.07-.22,3.08,0,.5,.09,1.01,.25,1.48,.44,.48,.21,.93,.44,1.36,.73,.44,.29,.84,.62,1.2,.98s.7,.77,.98,1.2c.28,.43,.54,.88,.73,1.37,.21,.48,.35,.96,.46,1.47,.1,.5,.16,1.03,.16,1.55s-.06,1.03-.16,1.53c-.11,.5-.25,1.01-.46,1.48-.19,.47-.44,.93-.73,1.36-.28,.44-.62,.84-.98,1.2-1.47,1.47-3.51,2.32-5.58,2.32Z"/></g><g class="cls-15"><path class="cls-6" d="M863.9,736.34c-10.74,0-21.35-2.79-30.71-8.07l-113.6-64.17c-15.97-8.98-26.02-26-26.2-44.38v-130.63c-.08-10.13,2.08-20.1,6.26-28.83,5.1-10.67,13.13-19.46,23.21-25.41l106.95-63.09c19.14-11.31,43.08-11.54,62.47-.6l108.11,61.06c8.88,5.02,16.56,12.07,22.22,20.41h0c6.89,10.11,10.59,21.66,10.7,33.39v124.35c.14,22.18-11.62,42.95-30.73,54.22l-106.93,63.09c-9.42,5.57-20.24,8.57-31.25,8.66-.17,0-.34,0-.51,0Zm-110.23-122.22l109.16,61.66c.42,.24,.81,.29,1.09,.28,.41,0,.77-.1,1.08-.28l106.96-63.11c.67-.4,1.09-1.14,1.08-1.93v-123.76c-.05-.1-.13-.24-.25-.42l-.03-.04c-.46-.68-1.22-1.36-2.02-1.81l-108.1-61.05c-.68-.38-1.52-.38-2.18,.02l-106.52,62.84c-.15,.45-.29,1.19-.28,2.16v125.46Zm-4.47-2.53h0Z"/><g><path class="cls-6" d="M807.78,582.36c-.57-.97-.96-2.05-1.12-3.19,.16,1.13,.55,2.22,1.12,3.19Z"/><path class="cls-6" d="M807.68,519.25h0c-.54,1.29-.9,2.66-1.04,4.11,.14-1.44,.5-2.82,1.04-4.11Z"/><path class="cls-6" d="M809.17,584.13c.54,.53,1.15,1,1.83,1.38l46.13,26.06-46.13-26.06c-.68-.38-1.29-.85-1.83-1.38Z"/><path class="cls-6" d="M864.22,644.5c-.12,0-.25,.01-.37,.01-3.37,.03-6.76-.82-9.79-2.53l-68.82-38.87c-4.04-2.27-6.55-6.54-6.59-11.17v-79.04c-.03-3.37,.63-6.62,2-9.49l-53.81-30.14c-2.27,4.73-3.37,10.11-3.31,15.69v130.47c.08,7.65,4.22,14.68,10.89,18.44l113.59,64.16c5.01,2.83,10.6,4.22,16.16,4.18v-.09c.13-8.14,.09-40.96,.05-61.61Z"/><path class="cls-6" d="M918.32,517.81h0c-.13-.21-.26-.43-.4-.63-.31-.46-.66-.91-1.02-1.33,.37,.42,.71,.87,1.02,1.33,.14,.21,.27,.42,.4,.63Z"/><path class="cls-6" d="M808.32,517.91c.28-.5,.6-.97,.95-1.42-.35,.45-.67,.93-.95,1.42Z"/><path class="cls-6" d="M861.57,486.21c.31-.02,.62-.04,.93-.04-.31,0-.62,.02-.93,.04Z"/><path class="cls-6" d="M780.65,503.4c1.47-3.08,3.76-5.71,6.88-7.56l64.79-38.22c6.03-3.56,13.49-3.63,19.59-.19l65.49,36.99c2.92,1.65,5.48,3.98,7.35,6.74l.02,.03,52.94-31.61c-3.09-4.55-7.31-8.4-12.13-11.13l-108.11-61.06c-10.06-5.68-22.39-5.57-32.34,.31l-106.94,63.08c-5.14,3.04-8.92,7.38-11.36,12.47l53.81,30.14h0Z"/><path class="cls-6" d="M858.88,486.72c.14-.04,.28-.08,.42-.12-.14,.04-.28,.08-.42,.12Z"/><path class="cls-6" d="M807.92,518.67c.12-.26,.26-.51,.4-.76-.14,.25-.27,.5-.4,.76-.09,.19-.15,.39-.24,.58h0c.08-.19,.15-.39,.24-.58Z"/><path class="cls-6" d="M997.71,469.59l-52.94,31.61c2.03,2.99,3.26,6.47,3.3,10.1v75.22c.06,7-3.61,13.5-9.63,17.06l-64.79,38.22c-2.91,1.72-6.16,2.61-9.43,2.7,.04,20.65,.08,53.47-.05,61.61v.09c5.6-.05,11.18-1.53,16.17-4.48l106.94-63.09c9.95-5.87,16.01-16.6,15.9-28.16v-124.16c-.06-6.01-2.11-11.77-5.48-16.72Z"/><path class="cls-6" d="M919.53,578.45c-.04,.13-.09,.27-.13,.4,.05-.13,.09-.27,.13-.4Z"/><path class="cls-6" d="M918.84,518.74c-.16-.32-.34-.63-.52-.93h0c.18,.3,.36,.61,.52,.93Z"/><path class="cls-6" d="M870.26,611.44l43.43-25.62c.25-.15,.5-.31,.74-.47-.24,.16-.49,.32-.74,.47l-43.43,25.62Z"/><path class="cls-6" d="M918.94,579.98c-.15,.34-.32,.67-.5,.99,.18-.32,.35-.66,.5-.99Z"/><path class="cls-6" d="M915.78,584.28c.64-.57,1.22-1.21,1.73-1.89-.51,.68-1.09,1.31-1.73,1.89Z"/><path class="cls-6" d="M918.44,580.97c-.28,.49-.59,.97-.93,1.42,.34-.45,.65-.93,.93-1.42Z"/><path class="cls-6" d="M807.68,519.25c-.54,1.29-.9,2.66-1.04,4.11-.05,.55-.08,1.11-.07,1.68v52.98c0,.39,.03,.77,.09,1.15,.16,1.13,.55,2.22,1.12,3.19,.38,.65,.85,1.24,1.39,1.77,.54,.53,1.15,1,1.83,1.38l46.13,26.06c2.04,1.15,4.3,1.71,6.56,1.7,.16,0,.33-.01,.49-.02,2.11-.1,4.2-.69,6.08-1.8l43.43-25.62c.25-.15,.5-.31,.74-.47,.48-.33,.93-.69,1.36-1.07,.64-.57,1.22-1.21,1.73-1.89,.34-.45,.65-.93,.93-1.42,.18-.32,.35-.66,.5-.99,.17-.37,.32-.74,.45-1.12,.05-.13,.09-.27,.13-.4,.41-1.3,.62-2.67,.61-4.07v-50.42c0-.92-.13-1.82-.35-2.69-.15-.58-.34-1.15-.57-1.71-.12-.28-.24-.55-.38-.82-.16-.32-.34-.63-.52-.93-.13-.21-.26-.43-.4-.63-.31-.46-.66-.91-1.02-1.33-1.1-1.27-2.43-2.36-3.9-3.19l-43.9-24.8c-.77-.43-1.56-.78-2.38-1.05-1.09-.36-2.22-.57-3.35-.63-.28-.02-.57-.02-.85-.02-.31,0-.62,.02-.93,.04-.77,.06-1.53,.19-2.27,.39-.14,.04-.28,.08-.42,.12-1.01,.3-1.99,.72-2.93,1.27l-43.43,25.62c-1.31,.77-2.39,1.75-3.27,2.88-.35,.45-.67,.93-.95,1.42-.14,.25-.27,.5-.4,.76-.09,.19-.15,.39-.24,.58Z"/><path class="cls-6" d="M864.18,613.24c-.16,0-.33,.02-.49,.02-2.26,.02-4.53-.55-6.56-1.7l-46.13-26.06c-.68-.38-1.29-.85-1.83-1.38-.54-.53-1-1.13-1.39-1.77-.57-.97-.96-2.05-1.12-3.19-.05-.38-.08-.76-.09-1.15v-52.98c0-.57,.02-1.13,.07-1.68,.14-1.44,.5-2.82,1.04-4.11l-12.46-7.67-14.58-8.17c-1.37,2.87-2.04,6.12-2,9.49v79.04c.05,4.63,2.55,8.89,6.59,11.17l68.82,38.87c3.04,1.71,6.42,2.56,9.79,2.53,.12,0,.25-.01,.37-.01-.02-10.08-.04-17.25-.04-17.25v-14.01Z"/><path class="cls-6" d="M864.18,613.24c-.16,0-.33,.02-.49,.02-2.26,.02-4.53-.55-6.56-1.7l-46.13-26.06c-.68-.38-1.29-.85-1.83-1.38-.54-.53-1-1.13-1.39-1.77-.57-.97-.96-2.05-1.12-3.19-.05-.38-.08-.76-.09-1.15v-52.98c0-.57,.02-1.13,.07-1.68,.14-1.44,.5-2.82,1.04-4.11l-12.46-7.67-14.58-8.17c-1.37,2.87-2.04,6.12-2,9.49v79.04c.05,4.63,2.55,8.89,6.59,11.17l68.82,38.87c3.04,1.71,6.42,2.56,9.79,2.53,.12,0,.25-.01,.37-.01-.02-10.08-.04-17.25-.04-17.25v-14.01Z"/><path class="cls-6" d="M937.4,494.43l-65.49-36.99c-6.1-3.44-13.56-3.37-19.59,.19l-64.79,38.22c-3.12,1.84-5.41,4.47-6.88,7.56h0l14.58,8.18,12.46,7.67c.08-.19,.15-.39,.24-.58,.12-.26,.26-.51,.4-.76,.28-.5,.6-.97,.95-1.42,.87-1.13,1.96-2.11,3.27-2.88l43.43-25.62c.93-.55,1.92-.97,2.93-1.27,.14-.04,.28-.08,.42-.12,.75-.2,1.51-.33,2.27-.39,.31-.03,.62-.04,.93-.04,.28,0,.57,0,.85,.02,1.13,.06,2.26,.27,3.35,.63,.82,.27,1.62,.62,2.38,1.05l43.9,24.8c1.47,.83,2.8,1.92,3.9,3.19,.37,.42,.71,.87,1.02,1.33,.14,.21,.27,.42,.4,.63l11.2-7.49,15.26-9.11-.02-.03c-1.87-2.76-4.43-5.09-7.35-6.74Z"/><path class="cls-6" d="M937.4,494.43l-65.49-36.99c-6.1-3.44-13.56-3.37-19.59,.19l-64.79,38.22c-3.12,1.84-5.41,4.47-6.88,7.56h0l14.58,8.18,12.46,7.67c.08-.19,.15-.39,.24-.58,.12-.26,.26-.51,.4-.76,.28-.5,.6-.97,.95-1.42,.87-1.13,1.96-2.11,3.27-2.88l43.43-25.62c.93-.55,1.92-.97,2.93-1.27,.14-.04,.28-.08,.42-.12,.75-.2,1.51-.33,2.27-.39,.31-.03,.62-.04,.93-.04,.28,0,.57,0,.85,.02,1.13,.06,2.26,.27,3.35,.63,.82,.27,1.62,.62,2.38,1.05l43.9,24.8c1.47,.83,2.8,1.92,3.9,3.19,.37,.42,.71,.87,1.02,1.33,.14,.21,.27,.42,.4,.63l11.2-7.49,15.26-9.11-.02-.03c-1.87-2.76-4.43-5.09-7.35-6.74Z"/><path class="cls-6" d="M918.32,517.81c.18,.3,.36,.61,.52,.93,.14,.27,.26,.54,.38,.82,.23,.56,.42,1.13,.57,1.71,.22,.87,.34,1.78,.35,2.69v50.42c.01,1.4-.2,2.77-.61,4.07-.04,.13-.09,.27-.13,.4-.13,.38-.29,.76-.45,1.12-.15,.34-.32,.67-.5,.99-.28,.49-.59,.97-.93,1.42-.51,.68-1.09,1.31-1.73,1.89-.43,.38-.88,.74-1.36,1.07-.24,.16-.49,.32-.74,.47l-43.43,25.62c-1.88,1.11-3.97,1.7-6.08,1.8v14.01s.02,7.18,.04,17.25c3.27-.09,6.52-.98,9.43-2.7l64.79-38.22c6.03-3.56,9.7-10.06,9.63-17.06v-75.22c-.03-3.63-1.27-7.11-3.3-10.1l-15.26,9.11-11.2,7.49Z"/><path class="cls-6" d="M918.32,517.81c.18,.3,.36,.61,.52,.93,.14,.27,.26,.54,.38,.82,.23,.56,.42,1.13,.57,1.71,.22,.87,.34,1.78,.35,2.69v50.42c.01,1.4-.2,2.77-.61,4.07-.04,.13-.09,.27-.13,.4-.13,.38-.29,.76-.45,1.12-.15,.34-.32,.67-.5,.99-.28,.49-.59,.97-.93,1.42-.51,.68-1.09,1.31-1.73,1.89-.43,.38-.88,.74-1.36,1.07-.24,.16-.49,.32-.74,.47l-43.43,25.62c-1.88,1.11-3.97,1.7-6.08,1.8v14.01s.02,7.18,.04,17.25c3.27-.09,6.52-.98,9.43-2.7l64.79-38.22c6.03-3.56,9.7-10.06,9.63-17.06v-75.22c-.03-3.63-1.27-7.11-3.3-10.1l-15.26,9.11-11.2,7.49Z"/><path class="cls-6" d="M858.88,486.72c-1.01,.3-1.99,.72-2.93,1.27l-43.43,25.62,43.43-25.62c.93-.55,1.92-.97,2.93-1.27Z"/><g class="cls-1"><path class="cls-6" d="M858.88,486.72c-1.01,.3-1.99,.72-2.93,1.27l-43.43,25.62,43.43-25.62c.93-.55,1.92-.97,2.93-1.27Z"/></g><path class="cls-6" d="M916.89,515.85c-1.1-1.27-2.43-2.36-3.9-3.19l-43.9-24.8,43.9,24.8c1.47,.83,2.8,1.92,3.9,3.19Z"/><g class="cls-1"><path class="cls-6" d="M916.89,515.85c-1.1-1.27-2.43-2.36-3.9-3.19l-43.9-24.8,43.9,24.8c1.47,.83,2.8,1.92,3.9,3.19Z"/></g><path class="cls-6" d="M862.51,486.17c.28,0,.57,0,.85,.02-.28-.02-.57-.02-.85-.02Z"/><g class="cls-1"><path class="cls-6" d="M862.51,486.17c.28,0,.57,0,.85,.02-.28-.02-.57-.02-.85-.02Z"/></g><path class="cls-6" d="M859.3,486.6c.75-.2,1.51-.33,2.27-.39-.77,.06-1.53,.19-2.27,.39Z"/><g class="cls-1"><path class="cls-6" d="M859.3,486.6c.75-.2,1.51-.33,2.27-.39-.77,.06-1.53,.19-2.27,.39Z"/></g><path class="cls-6" d="M863.36,486.19c1.13,.06,2.26,.27,3.35,.63-1.09-.36-2.22-.57-3.35-.63Z"/><g class="cls-1"><path class="cls-6" d="M863.36,486.19c1.13,.06,2.26,.27,3.35,.63-1.09-.36-2.22-.57-3.35-.63Z"/></g><path class="cls-6" d="M919.39,578.85c-.13,.38-.29,.76-.45,1.12,.17-.37,.32-.74,.45-1.12Z"/><g class="cls-1"><path class="cls-6" d="M919.39,578.85c-.13,.38-.29,.76-.45,1.12,.17-.37,.32-.74,.45-1.12Z"/></g><path class="cls-6" d="M919.21,519.56c.23,.56,.42,1.13,.57,1.71-.15-.58-.34-1.15-.57-1.71Z"/><g class="cls-1"><path class="cls-6" d="M919.21,519.56c.23,.56,.42,1.13,.57,1.71-.15-.58-.34-1.15-.57-1.71Z"/></g><path class="cls-6" d="M919.53,578.45c.41-1.3,.62-2.67,.61-4.07v0c.01,1.4-.2,2.77-.61,4.07Z"/><g class="cls-1"><path class="cls-6" d="M919.53,578.45c.41-1.3,.62-2.67,.61-4.07v0c.01,1.4-.2,2.77-.61,4.07Z"/></g></g></g><path class="cls-5" d="M203.13,816.31l8.38,21.19c1.21,3.05,5.53,3.05,6.73,0l8.38-21.19c.37-.93,1.1-1.67,2.03-2.03l21.19-8.38c3.05-1.21,3.05-5.53,0-6.73l-21.19-8.38c-.93-.37-1.67-1.11-2.03-2.04l-8.38-21.19c-1.21-3.05-5.53-3.05-6.73,0l-8.38,21.19c-.37,.93-1.1,1.67-2.04,2.04l-21.19,8.38c-3.05,1.21-3.05,5.53,0,6.73l21.19,8.38c.93,.37,1.67,1.1,2.04,2.03"/><g><rect class="cls-5" x="505.93" y="833.22" width="214.27" height="67.05"/><path class="cls-12" d="M532.14,794c-48.23,26.23-81.21,75.06-86.04,132.74h337.49c-4.83-57.68-37.81-106.51-86.04-132.74l28.08-48.64c1.61-2.79,.66-6.37-2.14-7.98-2.79-1.61-6.37-.66-7.98,2.14l-28.44,49.26c-21.75-9.92-46.17-15.45-72.24-15.45-26.06,0-50.49,5.53-72.24,15.45l-28.44-49.26c-1.62-2.79-5.19-3.75-7.98-2.14-2.79,1.61-3.75,5.18-2.14,7.98l28.09,48.64m160.37,84.65c-7.75,0-14.05-6.3-14.05-14.05,0-7.75,6.31-14.05,14.05-14.05,7.75,0,14.05,6.31,14.05,14.05,0,7.75-6.31,14.05-14.05,14.05m-155.33,0c-7.75,0-14.05-6.3-14.05-14.05,0-7.75,6.3-14.05,14.05-14.05,7.75,0,14.05,6.31,14.05,14.05,0,7.75-6.3,14.05-14.05,14.05"/></g><g><path class="cls-5" d="M249.06,436.07c-.52,0-1.04-.06-1.55-.16-.51-.11-1.01-.25-1.49-.46-.47-.19-.93-.44-1.36-.73-.43-.28-.84-.62-1.2-.98-1.47-1.47-2.32-3.51-2.32-5.59,0-.51,.06-1.03,.16-1.53,.11-.51,.25-1.01,.46-1.49,.19-.47,.44-.93,.73-1.36,.28-.44,.62-.84,.98-1.2s.77-.7,1.2-.98c.43-.28,.89-.54,1.36-.73,.47-.21,.98-.35,1.49-.46,1.01-.21,2.07-.21,3.08,0,.51,.11,1,.25,1.49,.46,.47,.19,.93,.44,1.36,.73,.43,.28,.84,.62,1.2,.98s.7,.76,.98,1.2c.28,.43,.54,.89,.73,1.36,.21,.47,.35,.98,.46,1.49,.09,.51,.14,1.03,.14,1.53,0,2.09-.84,4.12-2.31,5.59-.36,.36-.77,.7-1.2,.98-.43,.28-.89,.54-1.36,.73-.49,.21-.98,.35-1.49,.46-.51,.09-1.03,.16-1.53,.16Z"/><path class="cls-5" d="M602.97,524.09c0-4.36,3.54-7.88,7.9-7.88h0c4.36,0,7.9,3.52,7.9,7.88h0c0,4.38-3.54,7.9-7.9,7.9h0c-4.36,0-7.9-3.52-7.9-7.9Zm-33.74,0c0-4.36,3.54-7.88,7.9-7.88h0c4.36,0,7.9,3.52,7.9,7.88h0c0,4.38-3.54,7.9-7.9,7.9h0c-4.36,0-7.9-3.52-7.9-7.9Zm-33.74,0c0-4.36,3.52-7.88,7.89-7.88h0c4.38,0,7.9,3.52,7.9,7.88h0c0,4.38-3.52,7.9-7.9,7.9h0c-4.36,0-7.89-3.52-7.89-7.9Zm-33.76,0c0-4.36,3.54-7.88,7.9-7.88h0c4.36,0,7.9,3.52,7.9,7.88h0c0,4.38-3.54,7.9-7.9,7.9h0c-4.36,0-7.9-3.52-7.9-7.9Zm-33.74,0c0-4.36,3.54-7.88,7.9-7.88h0c4.36,0,7.9,3.52,7.9,7.88h0c0,4.38-3.54,7.9-7.9,7.9h0c-4.36,0-7.9-3.52-7.9-7.9Zm-33.74,0c0-4.36,3.54-7.88,7.9-7.88h0c4.36,0,7.9,3.52,7.9,7.88h0c0,4.38-3.54,7.9-7.9,7.9h0c-4.36,0-7.9-3.52-7.9-7.9Zm-33.74,0c0-4.36,3.54-7.88,7.9-7.88h0c4.36,0,7.9,3.52,7.9,7.88h0c0,4.38-3.54,7.9-7.9,7.9h0c-4.36,0-7.9-3.52-7.9-7.9Zm-33.74,0c0-4.36,3.52-7.88,7.9-7.88h0c4.36,0,7.9,3.52,7.9,7.88h0c0,4.38-3.54,7.9-7.9,7.9h0c-4.38,0-7.9-3.52-7.9-7.9Zm-33.76,0c0-4.36,3.54-7.88,7.9-7.88h0c4.36,0,7.92,3.52,7.92,7.88h0c0,4.38-3.56,7.9-7.92,7.9h0c-4.36,0-7.9-3.52-7.9-7.9Zm-33.74,0c0-4.36,3.54-7.88,7.9-7.88h0c4.36,0,7.9,3.52,7.9,7.88h0c0,4.38-3.54,7.9-7.9,7.9h0c-4.36,0-7.9-3.52-7.9-7.9Zm-28.6,2.64c-3.93-1.91-5.56-6.65-3.65-10.57h0c1.91-3.92,6.64-5.56,10.57-3.65h0c3.92,1.91,5.55,6.65,3.63,10.57h0c-1.38,2.81-4.19,4.44-7.11,4.44h0c-1.15,0-2.34-.25-3.45-.79Zm-26.14-28.64c-1.55-4.09,.51-8.64,4.58-10.19h0c4.08-1.55,8.64,.51,10.19,4.6h0c1.53,4.08-.52,8.64-4.6,10.18h0c-.92,.35-1.87,.52-2.8,.52h0c-3.19,0-6.2-1.94-7.38-5.1Zm-3.4-36.19c0-4.38,3.54-7.9,7.9-7.9h0c4.38,0,7.92,3.52,7.92,7.9h0c0,4.36-3.54,7.9-7.92,7.9h0c-4.36,0-7.9-3.54-7.9-7.9Z"/><path class="cls-5" d="M644.66,531.99c-2.09,0-4.12-.84-5.59-2.31-.36-.36-.69-.77-.98-1.2-.28-.43-.54-.88-.73-1.36-.21-.47-.35-.98-.46-1.48-.09-.51-.14-1.03-.14-1.53s.05-1.04,.14-1.55c.11-.51,.25-1,.46-1.49,.19-.47,.44-.93,.73-1.36,.29-.43,.62-.84,.98-1.2,1.83-1.83,4.57-2.69,7.13-2.17,.5,.11,1.01,.25,1.48,.46,.47,.19,.93,.44,1.36,.73,.44,.28,.84,.62,1.2,.98,.36,.36,.7,.77,.98,1.2,.28,.43,.54,.88,.73,1.36,.21,.49,.35,.98,.46,1.49,.09,.51,.16,1.03,.16,1.55s-.06,1.03-.16,1.53c-.11,.51-.25,1.01-.46,1.48-.19,.48-.44,.93-.73,1.36-.28,.43-.62,.84-.98,1.2-1.47,1.47-3.51,2.31-5.58,2.31Z"/></g><g><path class="cls-4" d="M846.21,705.3c-10.74,0-21.35-2.79-30.71-8.07l-113.6-64.17c-15.97-8.98-26.02-26-26.2-44.38v-130.63c-.08-10.13,2.08-20.1,6.26-28.83,5.1-10.67,13.13-19.46,23.21-25.41l106.95-63.09c19.14-11.31,43.08-11.54,62.47-.6l108.11,61.06c8.88,5.02,16.56,12.07,22.22,20.41h0c6.89,10.11,10.59,21.66,10.7,33.39v124.35c.14,22.18-11.62,42.95-30.73,54.22l-106.93,63.09c-9.42,5.57-20.24,8.57-31.25,8.66-.17,0-.34,0-.51,0Zm-110.23-122.22l109.16,61.66c.42,.24,.81,.29,1.09,.28,.41,0,.77-.1,1.08-.28l106.96-63.11c.67-.4,1.09-1.14,1.08-1.93v-123.76c-.05-.1-.13-.24-.25-.42l-.03-.04c-.46-.68-1.22-1.36-2.02-1.81l-108.1-61.05c-.68-.38-1.52-.38-2.18,.02l-106.52,62.84c-.15,.45-.29,1.19-.28,2.16v125.46Zm-4.47-2.53h0Z"/><g><path class="cls-8" d="M790.09,551.32c-.57-.97-.96-2.05-1.12-3.19,.16,1.13,.55,2.22,1.12,3.19Z"/><path class="cls-8" d="M789.99,488.21h0c-.54,1.29-.9,2.66-1.04,4.11,.14-1.44,.5-2.82,1.04-4.11Z"/><path class="cls-8" d="M791.48,553.09c.54,.53,1.15,1,1.83,1.38l46.13,26.06-46.13-26.06c-.68-.38-1.29-.85-1.83-1.38Z"/><path class="cls-8" d="M846.53,613.46c-.12,0-.25,.01-.37,.01-3.37,.03-6.76-.82-9.79-2.53l-68.82-38.87c-4.04-2.27-6.55-6.54-6.59-11.17v-79.04c-.03-3.37,.63-6.62,2-9.49l-53.81-30.14c-2.27,4.73-3.37,10.11-3.31,15.69v130.47c.08,7.65,4.22,14.68,10.89,18.44l113.59,64.16c5.01,2.83,10.6,4.22,16.16,4.18v-.09c.13-8.14,.09-40.96,.05-61.61Z"/><path class="cls-11" d="M900.63,486.77h0c-.13-.21-.26-.43-.4-.63-.31-.46-.66-.91-1.02-1.33,.37,.42,.71,.87,1.02,1.33,.14,.21,.27,.42,.4,.63Z"/><path class="cls-11" d="M790.63,486.87c.28-.5,.6-.97,.95-1.42-.35,.45-.67,.93-.95,1.42Z"/><path class="cls-11" d="M843.88,455.17c.31-.02,.62-.04,.93-.04-.31,0-.62,.02-.93,.04Z"/><path class="cls-10" d="M762.96,472.36c1.47-3.08,3.76-5.71,6.88-7.56l64.79-38.22c6.03-3.56,13.49-3.63,19.59-.19l65.49,36.99c2.92,1.65,5.48,3.98,7.35,6.74l.02,.03,52.94-31.61c-3.09-4.55-7.31-8.4-12.13-11.13l-108.11-61.06c-10.06-5.68-22.39-5.57-32.34,.31l-106.94,63.08c-5.14,3.04-8.92,7.38-11.36,12.47l53.81,30.14h0Z"/><path class="cls-11" d="M841.19,455.68c.14-.04,.28-.08,.42-.12-.14,.04-.28,.08-.42,.12Z"/><path class="cls-11" d="M790.23,487.63c.12-.26,.26-.51,.4-.76-.14,.25-.27,.5-.4,.76-.09,.19-.15,.39-.24,.58h0c.08-.19,.15-.39,.24-.58Z"/><path class="cls-9" d="M980.02,438.55l-52.94,31.61c2.03,2.99,3.26,6.47,3.3,10.1v75.22c.06,7-3.61,13.5-9.63,17.06l-64.79,38.22c-2.91,1.72-6.16,2.61-9.43,2.7,.04,20.65,.08,53.47-.05,61.61v.09c5.6-.05,11.18-1.53,16.17-4.48l106.94-63.09c9.95-5.87,16.01-16.6,15.9-28.16v-124.16c-.06-6.01-2.11-11.77-5.48-16.72Z"/><path class="cls-9" d="M901.84,547.41c-.04,.13-.09,.27-.13,.4,.05-.13,.09-.27,.13-.4Z"/><path class="cls-9" d="M901.15,487.7c-.16-.32-.34-.63-.52-.93h0c.18,.3,.36,.61,.52,.93Z"/><path class="cls-9" d="M852.57,580.4l43.43-25.62c.25-.15,.5-.31,.74-.47-.24,.16-.49,.32-.74,.47l-43.43,25.62Z"/><path class="cls-9" d="M901.25,548.94c-.15,.34-.32,.67-.5,.99,.18-.32,.35-.66,.5-.99Z"/><path class="cls-9" d="M898.09,553.24c.64-.57,1.22-1.21,1.73-1.89-.51,.68-1.09,1.31-1.73,1.89Z"/><path class="cls-9" d="M900.75,549.93c-.28,.49-.59,.97-.93,1.42,.34-.45,.65-.93,.93-1.42Z"/><path class="cls-6" d="M789.99,488.21c-.54,1.29-.9,2.66-1.04,4.11-.05,.55-.08,1.11-.07,1.68v52.98c0,.39,.03,.77,.09,1.15,.16,1.13,.55,2.22,1.12,3.19,.38,.65,.85,1.24,1.39,1.77,.54,.53,1.15,1,1.83,1.38l46.13,26.06c2.04,1.15,4.3,1.71,6.56,1.7,.16,0,.33-.01,.49-.02,2.11-.1,4.2-.69,6.08-1.8l43.43-25.62c.25-.15,.5-.31,.74-.47,.48-.33,.93-.69,1.36-1.07,.64-.57,1.22-1.21,1.73-1.89,.34-.45,.65-.93,.93-1.42,.18-.32,.35-.66,.5-.99,.17-.37,.32-.74,.45-1.12,.05-.13,.09-.27,.13-.4,.41-1.3,.62-2.67,.61-4.07v-50.42c0-.92-.13-1.82-.35-2.69-.15-.58-.34-1.15-.57-1.71-.12-.28-.24-.55-.38-.82-.16-.32-.34-.63-.52-.93-.13-.21-.26-.43-.4-.63-.31-.46-.66-.91-1.02-1.33-1.1-1.27-2.43-2.36-3.9-3.19l-43.9-24.8c-.77-.43-1.56-.78-2.38-1.05-1.09-.36-2.22-.57-3.35-.63-.28-.02-.57-.02-.85-.02-.31,0-.62,.02-.93,.04-.77,.06-1.53,.19-2.27,.39-.14,.04-.28,.08-.42,.12-1.01,.3-1.99,.72-2.93,1.27l-43.43,25.62c-1.31,.77-2.39,1.75-3.27,2.88-.35,.45-.67,.93-.95,1.42-.14,.25-.27,.5-.4,.76-.09,.19-.15,.39-.24,.58Z"/><path class="cls-8" d="M846.49,582.2c-.16,0-.33,.02-.49,.02-2.26,.02-4.53-.55-6.56-1.7l-46.13-26.06c-.68-.38-1.29-.85-1.83-1.38-.54-.53-1-1.13-1.39-1.77-.57-.97-.96-2.05-1.12-3.19-.05-.38-.08-.76-.09-1.15v-52.98c0-.57,.02-1.13,.07-1.68,.14-1.44,.5-2.82,1.04-4.11l-12.46-7.67-14.58-8.17c-1.37,2.87-2.04,6.12-2,9.49v79.04c.05,4.63,2.55,8.89,6.59,11.17l68.82,38.87c3.04,1.71,6.42,2.56,9.79,2.53,.12,0,.25-.01,.37-.01-.02-10.08-.04-17.25-.04-17.25v-14.01Z"/><path class="cls-3" d="M846.49,582.2c-.16,0-.33,.02-.49,.02-2.26,.02-4.53-.55-6.56-1.7l-46.13-26.06c-.68-.38-1.29-.85-1.83-1.38-.54-.53-1-1.13-1.39-1.77-.57-.97-.96-2.05-1.12-3.19-.05-.38-.08-.76-.09-1.15v-52.98c0-.57,.02-1.13,.07-1.68,.14-1.44,.5-2.82,1.04-4.11l-12.46-7.67-14.58-8.17c-1.37,2.87-2.04,6.12-2,9.49v79.04c.05,4.63,2.55,8.89,6.59,11.17l68.82,38.87c3.04,1.71,6.42,2.56,9.79,2.53,.12,0,.25-.01,.37-.01-.02-10.08-.04-17.25-.04-17.25v-14.01Z"/><path class="cls-11" d="M919.71,463.39l-65.49-36.99c-6.1-3.44-13.56-3.37-19.59,.19l-64.79,38.22c-3.12,1.84-5.41,4.47-6.88,7.56h0l14.58,8.18,12.46,7.67c.08-.19,.15-.39,.24-.58,.12-.26,.26-.51,.4-.76,.28-.5,.6-.97,.95-1.42,.87-1.13,1.96-2.11,3.27-2.88l43.43-25.62c.93-.55,1.92-.97,2.93-1.27,.14-.04,.28-.08,.42-.12,.75-.2,1.51-.33,2.27-.39,.31-.03,.62-.04,.93-.04,.28,0,.57,0,.85,.02,1.13,.06,2.26,.27,3.35,.63,.82,.27,1.62,.62,2.38,1.05l43.9,24.8c1.47,.83,2.8,1.92,3.9,3.19,.37,.42,.71,.87,1.02,1.33,.14,.21,.27,.42,.4,.63l11.2-7.49,15.26-9.11-.02-.03c-1.87-2.76-4.43-5.09-7.35-6.74Z"/><path class="cls-13" d="M919.71,463.39l-65.49-36.99c-6.1-3.44-13.56-3.37-19.59,.19l-64.79,38.22c-3.12,1.84-5.41,4.47-6.88,7.56h0l14.58,8.18,12.46,7.67c.08-.19,.15-.39,.24-.58,.12-.26,.26-.51,.4-.76,.28-.5,.6-.97,.95-1.42,.87-1.13,1.96-2.11,3.27-2.88l43.43-25.62c.93-.55,1.92-.97,2.93-1.27,.14-.04,.28-.08,.42-.12,.75-.2,1.51-.33,2.27-.39,.31-.03,.62-.04,.93-.04,.28,0,.57,0,.85,.02,1.13,.06,2.26,.27,3.35,.63,.82,.27,1.62,.62,2.38,1.05l43.9,24.8c1.47,.83,2.8,1.92,3.9,3.19,.37,.42,.71,.87,1.02,1.33,.14,.21,.27,.42,.4,.63l11.2-7.49,15.26-9.11-.02-.03c-1.87-2.76-4.43-5.09-7.35-6.74Z"/><path class="cls-9" d="M900.63,486.77c.18,.3,.36,.61,.52,.93,.14,.27,.26,.54,.38,.82,.23,.56,.42,1.13,.57,1.71,.22,.87,.34,1.78,.35,2.69v50.42c.01,1.4-.2,2.77-.61,4.07-.04,.13-.09,.27-.13,.4-.13,.38-.29,.76-.45,1.12-.15,.34-.32,.67-.5,.99-.28,.49-.59,.97-.93,1.42-.51,.68-1.09,1.31-1.73,1.89-.43,.38-.88,.74-1.36,1.07-.24,.16-.49,.32-.74,.47l-43.43,25.62c-1.88,1.11-3.97,1.7-6.08,1.8v14.01s.02,7.18,.04,17.25c3.27-.09,6.52-.98,9.43-2.7l64.79-38.22c6.03-3.56,9.7-10.06,9.63-17.06v-75.22c-.03-3.63-1.27-7.11-3.3-10.1l-15.26,9.11-11.2,7.49Z"/><path class="cls-14" d="M900.63,486.77c.18,.3,.36,.61,.52,.93,.14,.27,.26,.54,.38,.82,.23,.56,.42,1.13,.57,1.71,.22,.87,.34,1.78,.35,2.69v50.42c.01,1.4-.2,2.77-.61,4.07-.04,.13-.09,.27-.13,.4-.13,.38-.29,.76-.45,1.12-.15,.34-.32,.67-.5,.99-.28,.49-.59,.97-.93,1.42-.51,.68-1.09,1.31-1.73,1.89-.43,.38-.88,.74-1.36,1.07-.24,.16-.49,.32-.74,.47l-43.43,25.62c-1.88,1.11-3.97,1.7-6.08,1.8v14.01s.02,7.18,.04,17.25c3.27-.09,6.52-.98,9.43-2.7l64.79-38.22c6.03-3.56,9.7-10.06,9.63-17.06v-75.22c-.03-3.63-1.27-7.11-3.3-10.1l-15.26,9.11-11.2,7.49Z"/><path class="cls-6" d="M841.19,455.68c-1.01,.3-1.99,.72-2.93,1.27l-43.43,25.62,43.43-25.62c.93-.55,1.92-.97,2.93-1.27Z"/><g class="cls-1"><path d="M841.19,455.68c-1.01,.3-1.99,.72-2.93,1.27l-43.43,25.62,43.43-25.62c.93-.55,1.92-.97,2.93-1.27Z"/></g><path class="cls-6" d="M899.2,484.81c-1.1-1.27-2.43-2.36-3.9-3.19l-43.9-24.8,43.9,24.8c1.47,.83,2.8,1.92,3.9,3.19Z"/><g class="cls-1"><path d="M899.2,484.81c-1.1-1.27-2.43-2.36-3.9-3.19l-43.9-24.8,43.9,24.8c1.47,.83,2.8,1.92,3.9,3.19Z"/></g><path class="cls-6" d="M844.82,455.13c.28,0,.57,0,.85,.02-.28-.02-.57-.02-.85-.02Z"/><g class="cls-1"><path d="M844.82,455.13c.28,0,.57,0,.85,.02-.28-.02-.57-.02-.85-.02Z"/></g><path class="cls-6" d="M841.61,455.56c.75-.2,1.51-.33,2.27-.39-.77,.06-1.53,.19-2.27,.39Z"/><g class="cls-1"><path d="M841.61,455.56c.75-.2,1.51-.33,2.27-.39-.77,.06-1.53,.19-2.27,.39Z"/></g><path class="cls-6" d="M845.67,455.15c1.13,.06,2.26,.27,3.35,.63-1.09-.36-2.22-.57-3.35-.63Z"/><g class="cls-1"><path d="M845.67,455.15c1.13,.06,2.26,.27,3.35,.63-1.09-.36-2.22-.57-3.35-.63Z"/></g><path class="cls-6" d="M901.7,547.81c-.13,.38-.29,.76-.45,1.12,.17-.37,.32-.74,.45-1.12Z"/><g class="cls-1"><path d="M901.7,547.81c-.13,.38-.29,.76-.45,1.12,.17-.37,.32-.74,.45-1.12Z"/></g><path class="cls-6" d="M901.52,488.52c.23,.56,.42,1.13,.57,1.71-.15-.58-.34-1.15-.57-1.71Z"/><g class="cls-1"><path d="M901.52,488.52c.23,.56,.42,1.13,.57,1.71-.15-.58-.34-1.15-.57-1.71Z"/></g><path class="cls-6" d="M901.84,547.41c.41-1.3,.62-2.67,.61-4.07v0c.01,1.4-.2,2.77-.61,4.07Z"/><g class="cls-1"><path d="M901.84,547.41c.41-1.3,.62-2.67,.61-4.07v0c.01,1.4-.2,2.77-.61,4.07Z"/></g></g></g><circle class="cls-2" cx="675.7" cy="522.68" r="15.01"/><path class="cls-5" d="M975.52,123.58l13.77-31.8c1.98-4.58-2.66-9.22-7.24-7.24l-31.8,13.77c-1.4,.61-2.98,.6-4.37,0l-31.8-13.77c-4.58-1.98-9.22,2.66-7.24,7.24l13.77,31.8c.6,1.4,.6,2.98,0,4.38l-13.77,31.8c-1.98,4.58,2.66,9.22,7.24,7.24l31.8-13.77c1.4-.6,2.98-.6,4.38,0l31.8,13.77c4.58,1.98,9.22-2.66,7.24-7.24l-13.77-31.8c-.61-1.4-.61-2.98,0-4.38"/><g class="cls-15"><circle class="cls-6" cx="613.07" cy="188.01" r="21.59"/></g><g class="cls-16"><rect class="cls-6" x="197.53" y="237.81" width="129.56" height="173.87" rx="9.95" ry="9.95"/></g><g class="cls-15"><rect class="cls-6" x="345.89" y="237.81" width="148.83" height="173.87" rx="9.95" ry="9.95"/></g><g class="cls-16"><rect class="cls-6" x="198.96" y="168.93" width="295.76" height="48.22" rx="9.95" ry="9.95"/></g><rect class="cls-6" x="185.09" y="220.86" width="129.56" height="173.87" rx="9.95" ry="9.95"/><rect class="cls-9" x="333.45" y="220.86" width="148.83" height="173.87" rx="9.95" ry="9.95"/><rect class="cls-10" x="186.51" y="151.97" width="295.76" height="48.22" rx="9.95" ry="9.95"/><g class="cls-17"><rect class="cls-5" x="98.44" y="629.16" width="139.93" height="16.36" rx="3.91" ry="3.91"/></g><g class="cls-17"><rect class="cls-5" x="130.94" y="668.05" width="87.89" height="16.36" rx="3.91" ry="3.91"/></g><g class="cls-17"><rect class="cls-5" x="234.95" y="668.05" width="45.9" height="16.36" rx="3.91" ry="3.91"/></g><circle class="cls-5" cx="997.71" cy="232.16" r="11.3"/><circle class="cls-2" cx="249.87" cy="396.68" r="15.01"/></g></g></g></svg>