<svg fill="none" height="56" viewBox="0 0 88 56" width="88" xmlns="http://www.w3.org/2000/svg" xmlns:xlink="http://www.w3.org/1999/xlink"><clipPath id="a"><path d="m4.66675 7h82.3679v42h-82.3679z"/></clipPath><g clip-path="url(#a)"><path d="m58.527 17.1192h-5.5493c-.7616 0-1.4145-.6529-1.4145-1.4145v-5.114c0-.76169.6529-1.41454 1.4145-1.41454h12.1866c.7616 0 1.4145.65285 1.4145 1.41454v34.9274c0 .7617-.6529 1.4145-1.4145 1.4145h-5.2228c-.7617 0-1.4145-.6528-1.4145-1.4145z" fill="#f86734"/><path d="m78.9828 17.1192h-5.5492c-.7617 0-1.4146-.6529-1.4146-1.4145v-5.114c0-.76169.6529-1.41454 1.4146-1.41454h12.1865c.7617 0 1.4145.65285 1.4145 1.41454v34.9274c0 .7617-.6528 1.4145-1.4145 1.4145h-5.2228c-.7617 0-1.4145-.6528-1.4145-1.4145z" fill="#f86734"/><path d="m25.6667 49c11.598 0 21.0001-9.402 21.0001-21s-9.4021-21-21.0001-21c-11.5979 0-20.99995 9.402-20.99995 21s9.40205 21 20.99995 21z" fill="#3ddb85"/><path d="m39.9206 31.4819c1.923 0 3.4818-1.5589 3.4818-3.4819s-1.5588-3.4819-3.4818-3.4819-3.4819 1.5589-3.4819 3.4819 1.5589 3.4819 3.4819 3.4819z" fill="#fff"/></g></svg>