<svg fill="none" height="56" viewBox="0 0 56 56" width="56" xmlns="http://www.w3.org/2000/svg"><path d="m45.3955 13.7068c-.0405-1.0163-.6545-1.9216-1.5812-2.3305l-10.1536-4.44486-4.6743-2.06765c-.5966-.26284-1.2742-.26284-1.865 0l-4.6743 2.06765-10.2405 4.42146c-.9209.4089-1.5291 1.2967-1.5812 2.3013-.1738 3.5104-.2491 11.6933.3359 14.8357 2.4443 13.0659 17.0926 22.8434 17.0926 22.8434s15.2101-9.8651 17.0926-22.8434c.4575-3.154.388-11.2669.249-14.7831z" fill="#d7effe"/><path clip-rule="evenodd" d="m29.0747 26.6489c1.2435-.4418 2.1338-1.6289 2.1338-3.024 0-1.7719-1.4364-3.2083-3.2083-3.2083s-3.2083 1.4364-3.2083 3.2083c0 1.3951.8903 2.5821 2.1338 3.024l-3.0088 6.0177h8.1666z" fill="#073042" fill-rule="evenodd"/></svg>