<svg width="503" height="283" fill="none" xmlns="http://www.w3.org/2000/svg"><path d="M118.099 68.15c2.263 0 4.098-1.824 4.098-4.075 0-2.25-1.835-4.075-4.098-4.075-2.264 0-4.099 1.825-4.099 4.075 0 2.251 1.835 4.076 4.099 4.076zM68.099 221.151c2.263 0 4.098-1.825 4.098-4.076 0-2.25-1.835-4.075-4.098-4.075-2.264 0-4.099 1.825-4.099 4.075 0 2.251 1.835 4.076 4.099 4.076zM410.099 163.151c2.263 0 4.098-1.825 4.098-4.076 0-2.25-1.835-4.075-4.098-4.075-2.264 0-4.099 1.825-4.099 4.075 0 2.251 1.835 4.076 4.099 4.076zM223.099 76.15c2.263 0 4.098-1.824 4.098-4.075 0-2.25-1.835-4.075-4.098-4.075-2.264 0-4.099 1.825-4.099 4.075 0 2.251 1.835 4.076 4.099 4.076z" fill="#F6DA00"/><path d="M404.912 73.824a8.912 8.912 0 100-17.824 8.912 8.912 0 000 17.824zM97.912 149.824a8.912 8.912 0 100-17.824 8.912 8.912 0 000 17.824zM431.912 235.824a8.912 8.912 0 100-17.824 8.912 8.912 0 000 17.824z" stroke="#4285F4" stroke-width="3.231" stroke-miterlimit="10"/><path d="M151.646 219.81l201.928.203 22.444 36.007c2.554 4.06-.403 9.34-5.107 9.34l-235.863-.474c-4.704 0-7.593-5.212-5.174-9.273l21.772-35.803z" fill="#1769E0"/><path d="M151.709 220.137h201.929v-90.345c0-12.656-10.214-22.876-22.78-22.876l-156.436.135c-12.499 0-22.713 10.288-22.713 22.877v90.209z" fill="#4285F4"/><path d="M257 143.94c0 24.201 19.645 43.846 43.846 43.846 24.2 0 44.035-19.645 43.845-43.846-.095-9.68-1.803-28.091-21.353-37.392" stroke="#D7EFFE" stroke-width="8.053" stroke-miterlimit="10" stroke-linecap="round" stroke-linejoin="round"/><path d="M309.197 189.02h-16.703v27.901h16.703V189.02z" fill="#D7EFFE"/><path d="M319.826 221.666h-37.961a3.807 3.807 0 01-3.796-3.796 3.807 3.807 0 013.796-3.796h37.961a3.808 3.808 0 013.797 3.796 3.808 3.808 0 01-3.797 3.796z" fill="#D7EFFE"/><path d="M274.083 88.042V140.05c0 15.184 11.958 27.427 26.763 27.427 14.805 0 26.762-12.338 26.762-27.427V88.042c-.094-15.09-12.052-27.427-26.762-27.427-14.805 0-26.763 12.338-26.763 27.427z" fill="#000"/><path d="M274 123h54" stroke="#3DDC84" stroke-width="4.723"/><path fill-rule="evenodd" clip-rule="evenodd" d="M295 18c2.13 0 3.872 1.599 3.993 3.614l.007.226v24.32c0 2.12-1.791 3.84-4 3.84-2.13 0-3.872-1.599-3.993-3.614L291 46.16V21.84c0-2.12 1.791-3.84 4-3.84zm53.456 14.828c1.506 1.507 1.607 3.868.268 5.38l-.155.164-17.197 17.197c-1.499 1.5-3.981 1.449-5.544-.113-1.506-1.507-1.607-3.868-.267-5.38l.154-.164 17.197-17.197c1.5-1.5 3.982-1.449 5.544.113zm-5.842 41.179C340.599 74.128 339 75.87 339 78c0 2.21 1.719 4 3.84 4h24.32l.226-.007C369.401 81.872 371 80.13 371 78c0-2.21-1.719-4-3.84-4h-24.32l-.226.007z" fill="#F6DA00"/><path fill-rule="evenodd" clip-rule="evenodd" d="M217.86 209.28l11.601-20.574c.665-1.182.269-2.693-.884-3.375-1.152-.681-2.63-.276-3.297.904l-11.746 20.834c-8.982-4.197-19.071-6.535-29.835-6.535-10.765 0-20.853 2.338-29.836 6.535l-11.746-20.834c-.667-1.18-2.143-1.585-3.297-.904-1.152.682-1.55 2.193-.883 3.375l11.6 20.574c-19.92 11.094-33.544 31.745-35.537 56.142h139.398c-1.995-24.397-15.619-45.048-35.538-56.142zm-66.241 35.804c-3.202 0-5.805-2.669-5.805-5.946 0-3.278 2.603-5.944 5.805-5.944 3.2 0 5.804 2.666 5.804 5.944 0 3.277-2.604 5.946-5.804 5.946zm64.16 0c-3.2 0-5.804-2.669-5.804-5.946 0-3.278 2.604-5.944 5.804-5.944 3.202 0 5.805 2.666 5.805 5.944 0 3.277-2.603 5.946-5.805 5.946z" fill="#3DDC84"/></svg>