<svg xmlns="http://www.w3.org/2000/svg" height="1602.26" width="5394.59"><defs><clipPath id="a"><rect class="a" x="3347.01" y="37.7" width="1309.54" height="834.5" rx="14.64"/></clipPath><clipPath id="b"><path class="a" d="M3993.83 700h1066.54c9.27 0 16.56 8.81 15.75 19l-32.1 408.6 32.1 408.59c.81 10.24-6.48 19-15.75 19H3993.83c-9.27 0-16.55-8.8-15.74-19l32.09-408.59-32.09-408.6c-.81-10.18 6.47-19 15.74-19z"/></clipPath><clipPath id="c"><path class="a" d="M3994.95 1127.5l-20.85-430.6h1118.82l-20.85 430.6H3994.95z"/></clipPath><clipPath id="d"><path class="a" d="M4098.19 1513.49l22.83-338.94h783.89l22.83 338.94h-829.55z"/></clipPath><clipPath id="e"><path class="a" d="M4161.7 1030.08l-6.55-282.91h732.41l-6.54 282.91H4161.7z"/></clipPath><clipPath id="f"><path class="a" d="M4159.27 869.21l-2.22-39.92h728.61l-2.22 39.92h-724.17"/></clipPath><clipPath id="g"><path class="a" d="M4156.89 787.52l-1.24-40.35h174.33l.18 40.35h-173.27"/></clipPath><clipPath id="h"><path class="a" d="M4161.14 950.07l-2.21-39.52h724.85l-2.2 39.52h-720.44"/></clipPath><clipPath id="i"><path class="a" d="M4162.72 1030.08l-1.66-39.11h422.89l-.91 39.11h-420.32"/></clipPath><clipPath id="j"><path class="a" d="M4793.15 1077.07l-.06-37.54h39.52l-.06 37.54h-39.4z"/></clipPath><clipPath id="k"><path class="a" d="M4729.64 1078.12l-.07-37.54h39.53l-.06 37.54h-39.4z"/></clipPath><clipPath id="l"><rect class="a" x="421.25" y="150.31" width="608.95" height="1221.2" rx="29.83"/></clipPath><style>.a{fill:none}.c{fill:#093042}.e{fill:#ecf3cb}.h{fill:#04dd7b}.i{fill:#155d77}.k{fill:#00496b}</style></defs><rect x="10" y="398.18" width="5374.59" height="828.17" rx="414.09" stroke-miterlimit="10" stroke="#ecf3cb" stroke-width="20" fill="none"/><path class="c" d="M1314.52 213H3081a65.35 65.35 0 0165.35 65.35V1491.4H1249.23V278.33a65.36 65.36 0 0165.29-65.33z"/><path d="M3081 213a65.35 65.35 0 0165.35 65.35V1491.4H1249.23V278.33a65.36 65.36 0 0165.29-65.33H3081m0-6.94H1314.52a72.39 72.39 0 00-72.3 72.29v1220h1911.11v-1220A72.39 72.39 0 003081 206z" fill="#042530"/><path class="e" d="M1296.72 248.81H3098.9a11.37 11.37 0 0111.27 11.45v1128.82a11.37 11.37 0 01-11.27 11.45H1296.72a11.37 11.37 0 01-11.28-11.45V260.26a11.37 11.37 0 0111.28-11.45z"/><path d="M1129.59 1491.4H3266a6 6 0 015.76 6.26v35.07h-2148v-35.07a6 6 0 015.83-6.26z" fill="#154d60"/><path class="c" d="M3271.79 1532.73h-2148c0 17.86 45.74 32.34 62.25 32.34h2023.58c16.43 0 62.25-14.48 62.25-32.34zm-2022.56-84.31h1897.14v42.98H1249.23z"/><path d="M2006.5 1491.4h382.61a31 31 0 01-31 31h-320.59a31 31 0 01-31-31z" fill="#226577"/><path class="h" d="M1831.57 366.63h1175.5v960.78h-1175.5z"/><path class="i" d="M1385.93 366.63h445.64v960.78h-445.64z"/><path class="e" d="M1926.33 655.25h839.01v42.62h-839.01zm0-92.68h724.38v42.62h-724.38zm0-92.68h187.33v42.62h-187.33zm0 278.04h777.02v42.62h-777.02zm0 92.68h374.66v42.62h-374.66z"/><path d="M1926.33 1064.68h455.88v42.62h-455.88zm0 92.68h455.88v42.62h-455.88zm0 92.68h235.79v42.62h-235.79z" fill="#00c667"/><rect class="a" x="1388.74" y="337.63" width="1618.33" height="1031.27" rx="18.09"/><path class="k" d="M1387.97 581.79h443.6v127.8h-443.6z"/><path class="e" d="M1495 646.48l36.64-29.76a3 3 0 00-.41-.09h-72.43z"/><path class="e" d="M1496.79 652.24a2.8 2.8 0 01-3.54 0L1456 621.56v48a2.78 2.78 0 002.79 2.78h72.46a2.77 2.77 0 002.78-2.78V622z"/><path class="h" d="M1528.2 505.73l-19.27-19.42a27 27 0 10-4.11 4.11l19.27 19.28a2.86 2.86 0 004 0 2.63 2.63 0 00.11-3.97zm-61.51-36.29A21.26 21.26 0 111488 490.7a21.23 21.23 0 01-21.31-21.26zm-9.04 635.96a2.67 2.67 0 100 5.34h8.87c4.42 10.94 8.77 21.9 13.16 32.87l-4 9.7a2.67 2.67 0 002.48 3.7h44.49a2.67 2.67 0 100-5.34h-40.49l2.31-5.5 42.85-3.43a2.74 2.74 0 002.4-2l5.33-23.14a2.78 2.78 0 00-2.61-3.25h-58.7l-2.89-7.23a2.74 2.74 0 00-2.48-1.67zm18.19 14.24h16.52v8H1479zm21.86 0h10.67v8h-10.67zm16 0h15.3l-1.84 8h-13.49zm-32.52 13.36h11.18v7.21l-8 .64zm16.52 0h10.67v5.93l-10.67.86zm16 0h12.3l-1.06 4.62-11.18.89zm-26.7 25.79a8.9 8.9 0 108.9 8.9 8.95 8.95 0 00-8.9-8.9zm26.69 0a8.9 8.9 0 108.9 8.9 8.94 8.94 0 00-8.88-8.9zm-26.69 5.34a3.56 3.56 0 11-3.56 3.56 3.52 3.52 0 013.56-3.56zm26.69 0a3.56 3.56 0 11-3.56 3.56 3.52 3.52 0 013.58-3.56zM1495 941.55a32.15 32.15 0 1032.14 32.14 32.14 32.14 0 00-32.14-32.14zm0 57.15a25 25 0 1125-25 25 25 0 01-25 25zm3.57-28.58v19.29a3.58 3.58 0 01-7.15 0v-19.29a3.58 3.58 0 017.15 0zm0-12.14a3.58 3.58 0 11-3.57-3.57 3.57 3.57 0 013.6 3.59zm-27.17-178.24V840h47.26v-60.26zm42.4 51h-37.54v-6.55h37.54zm0-11.94h-37.54v-6.5h37.54zm0-11.94h-37.54v-6.55h37.54zm0-12.51h-37.54v-6.55h37.54zm81.63-339.4h141.49v43.12h-141.49z"/><path class="e" d="M1595.43 620.44h141.49v43.12h-141.49z"/><path class="h" d="M1595.43 785.94h141.49v43.12h-141.49zm0 165.49h141.49v43.12h-141.49zm0 165.5h141.49v43.12h-141.49z"/><path class="i" d="M1413.81 280.77h1565.37a27.89 27.89 0 0127.89 27.89v49.18H1385.93v-49.18a27.89 27.89 0 0127.88-27.89z"/><circle class="k" cx="2832.14" cy="321.13" r="16.5"/><circle class="k" cx="2889.26" cy="321.13" r="16.5"/><circle class="k" cx="2946.38" cy="321.13" r="16.5"/><path class="i" d="M2872.76 366.63h134.31v960.78h-134.31z"/><circle class="e" cx="2939.92" cy="462.29" r="35.81"/><circle class="e" cx="2939.92" cy="572.24" r="35.81"/><circle class="h" cx="2939.92" cy="748.49" r="35.81"/><circle class="h" cx="2939.92" cy="858.44" r="35.81"/><circle class="h" cx="2939.92" cy="968.39" r="35.81"/><circle class="h" cx="2939.92" cy="1078.34" r="35.81"/><circle class="h" cx="2939.92" cy="1188.29" r="35.81"/><path stroke-width="7" stroke="#04dd7b" stroke-miterlimit="10" fill="none" d="M2904.11 661h71.62"/><path stroke="#00c667" stroke-width="7" stroke-miterlimit="10" fill="none" d="M1831.57 994.63h1041.19"/><path class="i" d="M1385.93 1327.41h1621.14v15.34a28.8 28.8 0 01-28.8 28.8H1414.72a28.8 28.8 0 01-28.8-28.8v-15.34h.01z"/><path class="c" d="M2749.07 1170.48l-23.53 14.69 24.16 41.1-13.27 7.59-25.26-39.8-24.27 13.98-10.03-84.56 72.2 47z"/><rect class="c" x="3312.71" width="1378.13" height="909.9" rx="31.57"/><ellipse class="i" cx="4001.78" cy="16.95" rx="11.79" ry="11.35"/><g clip-path="url(#a)"><path class="h" d="M3841.43 37.7h815.12v836.64h-815.12z"/><path class="i" d="M3344.73 37.7h496.7v836.64h-496.7z"/><path class="h" d="M3841.43 37.7h815.12v433.48h-815.12z"/><path class="e" d="M3899.86 279.13h686.94v43.22h-686.94zm0-93.98h686.94v43.22h-686.94zm0-93.98h177.65v43.22h-177.65zm0 281.94h686.94v43.22h-686.94zm0 93.99h355.3v43.22h-355.3z"/></g><path class="k" d="M3347.01 238.45h494.42V362.3h-494.42z"/><path class="e" d="M3450.13 301.14l35.51-28.84-.4-.08H3415z"/><path class="e" d="M3451.84 306.73a2.72 2.72 0 01-3.43 0L3412.32 277v46.55a2.7 2.7 0 002.7 2.7h70.22a2.7 2.7 0 002.7-2.7v-46.16z"/><path class="h" d="M3482.28 164.75l-18.68-18.82a26.13 26.13 0 10-4 4l18.68 18.68a2.75 2.75 0 003.84 0 2.54 2.54 0 00.16-3.86zm-59.61-35.17a20.61 20.61 0 1120.6 20.61 20.57 20.57 0 01-20.6-20.61zm-8.76 616.31a2.59 2.59 0 100 5.17h8.6c4.28 10.61 8.5 21.23 12.75 31.85l-3.91 9.41a2.59 2.59 0 002.4 3.58h43.11a2.59 2.59 0 100-5.17h-39.23l2.23-5.34 41.53-3.31a2.67 2.67 0 002.32-2l5.17-22.42a2.7 2.7 0 00-2.53-3.15h-56.89l-2.8-7a2.65 2.65 0 00-2.4-1.61zm17.63 13.79h16v7.77h-12.9zm21.18 0h10.35v7.77h-10.35zm15.52 0h14.85l-1.78 7.77h-13.07zm-31.53 12.94h10.83v7l-7.78.62zm16 0h10.35v5.74l-10.35.83zm15.52 0h11.86l-1 4.47-10.83.87zm-25.87 25a8.63 8.63 0 108.62 8.62 8.66 8.66 0 00-8.61-8.61zm25.87 0a8.63 8.63 0 108.62 8.62 8.66 8.66 0 00-8.61-8.61zm-25.87 5.17a3.45 3.45 0 11-3.45 3.45 3.41 3.41 0 013.46-3.44zm25.87 0a3.45 3.45 0 11-3.45 3.45 3.41 3.41 0 013.46-3.44zm-18.1-215.69a31.15 31.15 0 1031.15 31.15 31.15 31.15 0 00-31.15-31.15zm0 55.38a24.23 24.23 0 1124.23-24.23 24.23 24.23 0 01-24.23 24.23zm3.46-27.69v18.69a3.46 3.46 0 01-6.92 0v-18.69a3.46 3.46 0 016.92 0zm0-11.77a3.46 3.46 0 11-3.46-3.46 3.46 3.46 0 013.46 3.44zm-26.36-172.73v58.42H3473v-58.42zm41.09 49.48h-36.38v-6.36h36.38zm0-11.58h-36.38v-6.35h36.38zm0-11.57h-36.38v-6.35h36.38zm0-12.12h-36.38v-6.35h36.38zm72.11-338.27h227.12v60.4h-227.12z"/><path class="e" d="M3540.43 269.03h227.12v60.4h-227.12z"/><path class="h" d="M3540.43 429.3h227.12v60.4h-227.12zm0 158.75h227.12v60.4h-227.12zm0 162.13h227.12v60.4h-227.12z"/><circle class="e" cx="4568.12" cy="802.8" r="19.21"/><circle class="e" cx="4506.3" cy="802.8" r="19.21"/><path class="k" d="M5099.6 688.35l-32.07 411.54H3986.82l-32.06-411.54c-1.88-24.17 15.16-45 36.87-45h1071.09c21.71.04 38.76 20.83 36.88 45z"/><path class="c" d="M3996.15 666.33h1061.9c23.19 0 41.41 22.27 39.4 48.17l-30.54 393.06-1.18 15.27H3988.47l-1.18-15.27-30.53-393.06c-2.02-25.9 16.24-48.17 39.39-48.17z"/><path class="k" d="M5099.6 1557.31l-32.07-411.55H3986.82l-32.06 411.55c-1.88 24.17 15.16 45 36.87 45h1071.09c21.71-.05 38.76-20.83 36.88-45z"/><path class="c" d="M3988.47 1122.83h1077.26l1.18 15.27 30.54 393.05c2 25.9-16.21 48.17-39.4 48.17h-1061.9c-23.19 0-41.41-22.27-39.39-48.17l30.53-393.05z"/><path class="k" d="M3987.29 1107.56h25.87v30.54h-25.87l1.18-15.27-1.18-15.27zm1041.11 0h38.51l-1.18 15.27 1.18 15.27h-38.51v-30.54z"/><path class="i" d="M3993.83 700h1066.54c9.27 0 16.56 8.81 15.75 19l-32.1 408.6 32.1 408.59c.81 10.24-6.48 19-15.75 19H3993.83c-9.27 0-16.55-8.8-15.74-19l32.09-408.59-32.09-408.6c-.81-10.18 6.47-19 15.74-19z"/><g clip-path="url(#b)"><g clip-path="url(#c)"><path class="h" d="M5092.92 696.9H3974.1l20.9 430.6h1053.69l44.23-430.6"/></g></g><g clip-path="url(#d)"><path class="k" d="M4142.2 1363a2.17 2.17 0 01-.88-.19 2 2 0 01-.69-.5 2.08 2.08 0 01-.45-.74 2.42 2.42 0 01-.12-.9l2.48-39.87 28.89 25.41a2.35 2.35 0 00.32.23 2.21 2.21 0 00.35.16 1.61 1.61 0 00.36.1h.77a1.64 1.64 0 00.38-.1 2.43 2.43 0 00.37-.16 2.54 2.54 0 00.34-.23l31.78-25.08-2 39.54a2.29 2.29 0 01-.22.9 2.45 2.45 0 01-.53.74 2.35 2.35 0 01-.75.5 2.3 2.3 0 01-.9.19h-59.5m30.95-21.59l-28.09-24.67h59.32l-31.23 24.6m103.23 27.28l2.11-53.5h187.05l-.43 53.5h-188.73m242.32-81.21h-405.29l-7.38 109.7h412.78l-.11-109.7"/><path class="e" d="M4465.54 1315.19h-187.05l-2.1 53.5h188.72l.43-53.5"/><path class="h" d="M4466.6 1182.32h-182.88l-2.02 51.12h184.49l.41-51.12m-2.19 275.08H4272.9l-2.21 56.09h193.27l.45-56.09m441.03-275.08h-182.88l1.84 51.12h184.48l-3.44-51.12m8.45 125.44h-186.82l1.92 53.36h188.49l-3.59-53.36"/><path class="e" d="M4204.05 1316.74h-59l28.09 24.67 31.23-24.6h-.33"/><path class="e" d="M4142.54 1320.8l-2.48 39.87a2.42 2.42 0 00.12.9 2.08 2.08 0 00.45.74 2 2 0 00.69.5 2.17 2.17 0 00.88.19h59.46a2.3 2.3 0 00.9-.19 2.35 2.35 0 00.75-.5 2.45 2.45 0 00.53-.74 2.29 2.29 0 00.22-.9l2-39.54-31.78 25.08a2.54 2.54 0 01-.34.23 2.43 2.43 0 01-.37.16 1.64 1.64 0 01-.38.1h-.77a1.61 1.61 0 01-.36-.1 2.21 2.21 0 01-.35-.16 2.35 2.35 0 01-.32-.23l-28.89-25.41"/><path class="h" d="M4174.8 1212.62a16.45 16.45 0 01-6.55-1.33 15.56 15.56 0 01-8.51-9 16.36 16.36 0 01-.93-6.56 17.18 17.18 0 011.73-6.54 18.14 18.14 0 013.94-5.33 18.54 18.54 0 015.59-3.58 17.78 17.78 0 016.67-1.31 16.56 16.56 0 016.51 1.31 15.71 15.71 0 015.18 3.58 15.44 15.44 0 013.33 5.33 16 16 0 011 6.54 17.2 17.2 0 01-1.69 6.56 18.28 18.28 0 01-9.54 9 17.52 17.52 0 01-6.7 1.33m2.2-38.07a22.26 22.26 0 00-8.43 1.66 23.27 23.27 0 00-7.08 4.53 23 23 0 00-5 6.74 22.1 22.1 0 00-2.2 8.28 20.51 20.51 0 001.18 8.3 19.69 19.69 0 0010.78 11.38 20.74 20.74 0 008.29 1.69 21.48 21.48 0 003.77-.33 22.27 22.27 0 003.61-.94 23.39 23.39 0 003.35-1.49 22 22 0 003-2l14.6 15.37a2.34 2.34 0 00.35.29 1.54 1.54 0 00.38.2 2.52 2.52 0 00.39.12 2.69 2.69 0 00.4 0 2 2 0 00.48-.05 2.13 2.13 0 00.45-.13 3.91 3.91 0 00.41-.2 2.91 2.91 0 00.33-.26 2.53 2.53 0 00.62-.75 2.14 2.14 0 00.25-.84 2 2 0 00-.12-.83 2.06 2.06 0 00-.47-.75l-14.61-15.47a22.41 22.41 0 003.82-6.14 21.16 21.16 0 001.14-3.51 21.82 21.82 0 00.53-3.71 20.4 20.4 0 00-1.24-8.28 19.81 19.81 0 00-4.22-6.74 20.07 20.07 0 00-6.56-4.53 20.9 20.9 0 00-8.24-1.66m440.77 186.01a2.91 2.91 0 01-1.15-.23 2.88 2.88 0 01-.94-.63 3.13 3.13 0 01-.68-3.28 2.93 2.93 0 01.61-.94 2.65 2.65 0 01.91-.63 2.87 2.87 0 011.14-.23 2.91 2.91 0 011.15.23 2.88 2.88 0 01.94.63 3 3 0 01.63.94 3 3 0 01.25 1.17 3.2 3.2 0 01-.2 1.17 2.93 2.93 0 01-.61.94 2.65 2.65 0 01-.91.63 2.87 2.87 0 01-1.14.23m-.19-10.39a7.13 7.13 0 00-2.81.58 7.33 7.33 0 00-2.29 1.6 7.44 7.44 0 00-1.53 2.36 7.27 7.27 0 00-.53 2.88 7.65 7.65 0 00.62 2.88 7.89 7.89 0 001.61 2.37 7.71 7.71 0 002.35 1.6 7.15 7.15 0 002.84.59 7 7 0 002.83-.59 7.22 7.22 0 003.81-4 7.24 7.24 0 00.53-2.88 7.7 7.7 0 00-.63-2.88 7.85 7.85 0 00-1.61-2.36 7.71 7.71 0 00-2.35-1.6 7.32 7.32 0 00-2.84-.58m22.09 10.39a3 3 0 01-2.74-1.8 3.22 3.22 0 01-.25-1.17 3 3 0 01.2-1.17 3.08 3.08 0 01.6-.94 2.79 2.79 0 01.92-.63 2.87 2.87 0 011.14-.23 2.91 2.91 0 011.15.23 3 3 0 011.58 1.57 3.22 3.22 0 01.25 1.17 3 3 0 01-.2 1.17 2.9 2.9 0 01-.6.94 2.75 2.75 0 01-.91.63 2.87 2.87 0 01-1.14.23m-.22-10.39a7.18 7.18 0 00-2.82.58 7.33 7.33 0 00-2.29 1.6 7.59 7.59 0 00-1.52 2.36 7.44 7.44 0 00.12 5.76 7.74 7.74 0 001.62 2.37 7.59 7.59 0 002.35 1.6 7.23 7.23 0 002.85.59 7 7 0 002.82-.59 7.33 7.33 0 002.29-1.6 7.64 7.64 0 001.52-2.37 7.41 7.41 0 00.51-2.88 7.52 7.52 0 00-.64-2.88 7.88 7.88 0 00-1.62-2.36 7.76 7.76 0 00-2.36-1.6 7.23 7.23 0 00-2.83-.58m-24.33-14.93l-2.67-6.49h9.12l.11 6-6.56.53m10.91-.87l-.11-5.62h8.72l.1 4.9-8.71.72m13.06-1.06l-.09-4.56h10l-.78 3.83-9.11.73m-28.46-9l-2.71-6.6h13.45l.12 6.6h-10.86m15.21 0l-.12-6.6h8.7l.13 6.6h-8.71m13.06 0l-.14-6.6h12.48l-1.35 6.6h-11m-37.28-18.27h-8.68a2.14 2.14 0 00-.84.17 2.09 2.09 0 00-1.14 1.17 2 2 0 00-.16.85 2.15 2.15 0 00.18.85 2.13 2.13 0 00.48.7 2.06 2.06 0 00.69.47 2.19 2.19 0 00.85.17h7.21l2.79 6.76q1.4 3.38 2.78 6.77l2.79 6.8 2.79 6.81-3.17 8.06a2.45 2.45 0 00-.14 1.07 2.42 2.42 0 00.13.53 1.89 1.89 0 00.25.49 2.3 2.3 0 00.35.41 2.69 2.69 0 00.44.31 2.34 2.34 0 00.5.19 1.81 1.81 0 00.52.07h36.48a2 2 0 00.82-.18 2.35 2.35 0 00.69-.49 2.31 2.31 0 00.47-.71 2.12 2.12 0 00.16-.83 2.2 2.2 0 00-.2-.84 2.69 2.69 0 00-.5-.71 2.65 2.65 0 00-.71-.49 2 2 0 00-.83-.18h-33.15l1.81-4.58 35-2.83a2.14 2.14 0 00.66-.17 2.43 2.43 0 00.57-.37 2.18 2.18 0 00.43-.53 1.86 1.86 0 00.25-.64l3.91-19.11a2.08 2.08 0 00-.05-1 2.74 2.74 0 00-.46-.86 2.39 2.39 0 00-.76-.62 2 2 0 00-.92-.24h-47.81l-2.45-5.94a2 2 0 00-.34-.55 2.18 2.18 0 00-.48-.43 2.25 2.25 0 00-.58-.29 2.3 2.3 0 00-.63-.1m19.83-100.74a2.57 2.57 0 00-1.8.74 2.58 2.58 0 00-.53.81 2.49 2.49 0 00-.18 1l.25 13.72a2.51 2.51 0 00.21 1 2.58 2.58 0 00.57.81 2.73 2.73 0 00.83.55 2.55 2.55 0 001 .2 2.5 2.5 0 001-.2 2.53 2.53 0 00.81-.55 2.49 2.49 0 00.71-1.8l-.26-13.72a2.51 2.51 0 00-.22-1 2.58 2.58 0 00-1.38-1.35 2.59 2.59 0 00-1-.2m-.16-8.6a2.5 2.5 0 00-1 .2 2.31 2.31 0 00-.8.54 2.57 2.57 0 00-.54.8 2.49 2.49 0 00-.18 1 2.47 2.47 0 00.22 1 2.51 2.51 0 00.56.8 2.81 2.81 0 00.82.55 2.6 2.6 0 001 .2 2.45 2.45 0 001-.2 2.38 2.38 0 00.8-.55 2.46 2.46 0 00.54-.8 2.63 2.63 0 00.18-1 2.7 2.7 0 00-.22-1 2.81 2.81 0 00-.56-.8 2.62 2.62 0 00-1.82-.74m.59 31.49a18.19 18.19 0 01-7-1.4 18.39 18.39 0 01-9.7-9.49 18 18 0 01-1.51-6.92 17.38 17.38 0 0110.62-16.31 17.63 17.63 0 016.92-1.39 18 18 0 017 1.39 18.34 18.34 0 019.69 9.42 17.72 17.72 0 011.55 6.91 17.39 17.39 0 01-10.59 16.4 17.65 17.65 0 01-6.95 1.41m-.76-40.57a22.83 22.83 0 00-8.89 1.78 22.54 22.54 0 00-7.2 4.86 22.2 22.2 0 00-4.81 7.24 22.51 22.51 0 00-1.68 8.88 23.06 23.06 0 001.94 8.9 23.56 23.56 0 0012.47 12.21 23.2 23.2 0 009 1.81 22.71 22.71 0 008.95-1.81 22.31 22.31 0 0013.62-21.11 23.08 23.08 0 00-2-8.88 23.64 23.64 0 00-12.46-12.09 23.25 23.25 0 00-8.95-1.79m-472.67 311.03l.34-5.73h31.48l-.31 5.73h-31.51m.62-10.43l.34-5.7h31.42l-.31 5.7h-31.45m.62-10.39l.33-5.68h31.37l-.3 5.68h-31.4m.64-10.85l.33-5.66H4182l-.31 5.66h-31.34m36.07-12.66h-39.37l-3.14 52.41h39.71l2.8-52.41"/></g><g clip-path="url(#e)"><g clip-path="url(#f)"><path class="e" d="M4885.66 829.29h-728.61l2.22 39.92h724.17l2.22-39.92"/></g><g clip-path="url(#g)"><path class="e" d="M4329.98 747.17h-174.33l1.24 40.35h173.27l-.18-40.35"/></g><g clip-path="url(#h)"><path class="e" d="M4883.78 910.55h-724.85l2.21 39.52h720.44l2.2-39.52"/></g><g clip-path="url(#i)"><path class="e" d="M4583.95 990.97h-422.89l1.66 39.11h420.32l.91-39.11"/></g></g><g clip-path="url(#j)"><path class="e" d="M4812.85 1039.53a20.64 20.64 0 00-7.69 1.48 19.94 19.94 0 00-6.28 4 18.73 18.73 0 00-4.22 6 18 18 0 000 14.61 18.71 18.71 0 004.24 6 20 20 0 006.26 4 20.74 20.74 0 0015.34 0 20 20 0 006.27-4 18.83 18.83 0 004.23-6 18 18 0 000-14.61 18.58 18.58 0 00-4.22-6 19.78 19.78 0 00-6.27-4 20.66 20.66 0 00-7.7-1.48"/></g><g clip-path="url(#k)"><path class="e" d="M4749.33 1040.58a20.64 20.64 0 00-7.69 1.48 20 20 0 00-6.27 4 18.76 18.76 0 00-4.23 6 17.94 17.94 0 000 14.61 18.79 18.79 0 004.23 6 19.67 19.67 0 006.27 4 20.72 20.72 0 0015.33 0 19.56 19.56 0 006.27-4 18.67 18.67 0 004.24-6 18 18 0 000-14.61 18.76 18.76 0 00-4.23-6 20 20 0 00-6.27-4 20.66 20.66 0 00-7.7-1.48"/></g><path stroke="#237284" stroke-linecap="round" stroke-width="8" stroke-miterlimit="10" fill="none" d="M4010.18 1122.83h1033.85"/><ellipse class="i" cx="4031.86" cy="923.57" rx="10.77" ry="9.72"/><rect class="c" x="395.37" y="104.09" width="664" height="1296.44" rx="55.11"/><rect class="i" x="421.25" y="150.31" width="608.95" height="1221.2" rx="29.83"/><circle class="i" cx="573.49" cy="127.67" r="6.43"/><circle class="i" cx="603.08" cy="127.67" r="6.43"/><rect class="i" x="658.46" y="121.24" width="181.45" height="12.87" rx="6.43"/><g clip-path="url(#l)"><path class="k" d="M407.53 150.31h638.11v168.26H407.53z"/></g><path class="k" d="M421.25 535.56h608.95v160.78H421.25z"/><path class="e" d="M670.92 588.32h260.96v48.46H670.92z"/><path class="h" d="M670.92 387.32h260.96v48.46H670.92zm0 406.4h260.96v48.47H670.92zm0 205.41h260.96v48.47H670.92zm0 189.99h260.96v48.47H670.92z"/><path class="e" d="M515.61 615.36l44.61-36.23a3 3 0 00-.5-.1h-88.21z"/><path class="e" d="M517.75 622.37a3.38 3.38 0 01-4.3 0L468.11 585v58.47a3.4 3.4 0 003.4 3.39h88.21a3.39 3.39 0 003.39-3.39v-58z"/><path class="h" d="M556 440.68L532.53 417a32.83 32.83 0 10-5 5L551 445.51a3.48 3.48 0 004.83 0 3.21 3.21 0 00.17-4.83zm-74.89-44.18A25.89 25.89 0 11507 422.39a25.85 25.85 0 01-25.89-25.89zm-11 778.42a3.25 3.25 0 000 6.5h10.8c5.38 13.32 10.68 26.66 16 40l-4.91 11.82a3.25 3.25 0 003 4.51h54.16a3.25 3.25 0 100-6.5H499.9l2.81-6.71 52.17-4.16a3.34 3.34 0 002.91-2.5l6.5-28.17a3.4 3.4 0 00-3.18-4h-71.46l-3.52-8.8a3.35 3.35 0 00-3-2zm22.14 17.33h20.11v9.75h-16.21zm26.61 0h13v9.75h-13zm19.5 0H557l-2.23 9.75h-16.41zm-39.61 16.25h13.61v8.77l-9.78.77zm20.11 0h13v7.21l-13 1zm19.5 0h14.9l-1.29 5.62-13.61 1.08zm-32.5 31.41a10.84 10.84 0 1010.84 10.84 10.89 10.89 0 00-10.84-10.84zm32.5 0a10.84 10.84 0 1010.83 10.84 10.89 10.89 0 00-10.83-10.84zm-32.5 6.5a4.34 4.34 0 11-4.33 4.34 4.29 4.29 0 014.33-4.34zm32.5 0a4.34 4.34 0 11-4.33 4.34 4.28 4.28 0 014.33-4.34zm-22.75-250.77a35 35 0 1035 35 35 35 0 00-35-35zm0 62.23a27.23 27.23 0 1127.23-27.22 27.22 27.22 0 01-27.23 27.22zm3.89-31.11v21a3.89 3.89 0 01-7.78 0v-21a3.89 3.89 0 017.78 0zm0-13.23a3.89 3.89 0 11-3.89-3.89 3.89 3.89 0 013.89 3.89zm-32.65-235.79v73.38h57.53v-73.38zm51.61 62.15h-45.7v-8h45.7zm0-14.54h-45.7v-8h45.7zm0-14.54h-45.7v-8h45.7zm0-15.23h-45.7v-8h45.7z"/><circle class="i" cx="934.18" cy="234.29" r="38.51"/><path class="i" d="M478.77 206.05h61.03v10.56h-61.03zm0 22.96h61.03v10.56h-61.03zm0 22.96h61.03v10.56h-61.03z"/></svg>
