<svg xmlns="http://www.w3.org/2000/svg" width="1246" height="1226" viewBox="0 0 1246 1226" fill="none">
<rect width="1246" height="1226" fill="white"/>
<rect x="221.684" y="27.9473" width="148.842" height="76.6316" fill="#D9D9D9"/>
<path d="M377.158 25H228.316C211.369 25 178.429 41.3579 176 68.4737L167.158 167.211H435.369C433.649 146.825 429.179 98.5368 425.053 68.4737C420.927 38.4105 387.474 25 377.158 25Z" fill="#3DDC84"/>
<path d="M225.369 767L374.211 767C391.159 767 424.099 750.642 426.527 723.526L435.369 624.789L167.159 624.789C168.878 645.175 173.348 693.463 177.474 723.526C181.601 753.589 215.053 767 225.369 767Z" fill="#3DDC84"/>
<circle cx="301.263" cy="396.369" r="249.789" fill="#073042" stroke="#073042" stroke-width="30.9474"/>
<rect x="566.525" y="361" width="23.5789" height="70.7368" rx="7.36842" fill="#073042"/>
<rect x="557.684" y="371.316" width="13.2632" height="50.1053" fill="#073042"/>
<g clip-path="url(#clip0_1751_22)">
<rect x="295.369" y="237.211" width="10.3158" height="198.947" rx="5.15789" fill="#EFF7CF"/>
<rect x="164.211" y="375.736" width="153.263" height="41.2632" rx="20.6316" fill="#3DDC84"/>
<circle cx="301.262" cy="396.368" r="20.6316" fill="white"/>
<rect x="299.781" y="386.012" width="139.154" height="21.0096" rx="10.5048" transform="rotate(12.23 299.781 386.012)" stroke="white" stroke-width="7.36842"/>
<rect x="236.422" y="486.264" width="129.684" height="28" rx="14" fill="#5E7884"/>
<circle cx="301.263" cy="396.369" r="198.211" stroke="#5E7884" stroke-width="22.1053"/>
<path d="M301.263 198.158C327.293 198.158 353.067 203.285 377.115 213.246C401.163 223.207 423.014 237.807 441.419 256.213C459.825 274.618 474.425 296.469 484.386 320.517C494.347 344.565 499.474 370.339 499.474 396.369" stroke="#3DDC84" stroke-width="22.1053" stroke-linecap="round"/>
<path d="M512.461 424.046C422.272 257.814 252.847 223.624 179.409 227.309C160.99 227.309 166.884 212.146 174.251 207.414C254.567 155.835 298.863 155.685 335.158 162.053C377.158 169.421 384.527 173.105 417.685 192.263C466.148 220.264 516.421 271.105 518.632 288.052C520.4 301.61 542.948 361.737 527.198 421.098C524.251 435.246 516.459 431.414 512.461 424.046Z" fill="white" fill-opacity="0.05"/>
</g>
<path d="M1003.16 213H854.316C837.369 213 804.429 229.358 802 256.474L793.158 355.211H1061.37C1059.65 334.825 1055.18 286.537 1051.05 256.474C1046.93 226.411 1013.47 213 1003.16 213Z" fill="#EC653C"/>
<path d="M851.369 955L1000.21 955C1017.16 955 1050.1 938.642 1052.53 911.526L1061.37 812.789L793.159 812.789C794.878 833.175 799.348 881.463 803.474 911.526C807.601 941.589 841.053 955 851.369 955Z" fill="#EC653C"/>
<circle cx="927.263" cy="584.369" r="249.789" fill="#073042" stroke="#073042" stroke-width="30.9474"/>
<rect x="1192.53" y="549" width="23.5789" height="70.7368" rx="7.36842" fill="#073042"/>
<rect x="1183.68" y="559.316" width="13.2632" height="50.1053" fill="#073042"/>
<g clip-path="url(#clip1_1751_22)">
<path d="M772.427 610.591C759.547 610.591 749.042 605.363 740.91 594.908C732.778 584.453 728.712 571.069 728.712 554.754C728.712 538.289 732.778 524.879 740.91 514.525C749.092 504.12 759.598 498.918 772.427 498.918C785.256 498.918 795.762 504.171 803.944 514.676C812.177 525.132 816.293 538.491 816.293 554.754C816.293 570.867 812.202 584.201 804.02 594.757C795.837 605.313 785.306 610.591 772.427 610.591ZM772.427 587.332C778.134 587.332 782.604 584.655 785.837 579.301C789.069 573.897 790.686 565.74 790.686 554.83C790.686 543.769 789.019 535.561 785.685 530.208C782.402 524.854 777.958 522.177 772.351 522.177C766.896 522.177 762.502 524.904 759.169 530.359C755.886 535.814 754.244 543.946 754.244 554.754C754.244 565.361 755.86 573.442 759.093 578.998C762.376 584.554 766.821 587.332 772.427 587.332ZM863.713 498.918C875.885 498.918 885.734 502.453 893.26 509.525C900.786 516.596 904.549 525.611 904.549 536.572C904.549 543.491 903.185 549.855 900.457 555.664C897.781 561.472 893.513 568.038 887.654 575.362L865.38 603.394C861.289 608.646 859.243 611.273 859.243 611.273C859.243 611.273 856.162 609.152 850 604.909C842.727 599.959 839.09 597.484 839.09 597.484C839.09 597.484 841.161 595.11 845.303 590.363L856.516 576.877C858.435 574.554 862.374 571.649 868.334 568.164C874.345 564.629 880.153 554.552 885.76 537.935L895.76 537.253C894.548 549.981 889.876 558.896 881.744 563.997C873.613 569.099 865.077 571.649 856.137 571.649C847.55 571.649 839.949 568.493 833.332 562.179C826.766 555.866 823.483 547.279 823.483 536.42C823.483 525.51 827.196 516.545 834.62 509.525C842.096 502.453 851.793 498.918 863.713 498.918ZM864.016 519.601C858.763 519.601 854.419 521.192 850.985 524.374C847.55 527.556 845.833 531.622 845.833 536.572C845.833 541.572 847.55 545.688 850.985 548.921C854.419 552.103 858.713 553.694 863.864 553.694C869.016 553.694 873.335 552.103 876.82 548.921C880.305 545.688 882.047 541.572 882.047 536.572C882.047 531.672 880.33 527.632 876.896 524.45C873.511 521.217 869.218 519.601 864.016 519.601ZM989.516 610.591C982.849 610.591 977.065 609.631 972.166 607.712C967.267 605.793 963.125 603.116 959.741 599.681C956.408 596.247 953.958 592.61 952.392 588.772C950.827 584.933 950.044 583.014 950.044 583.014C950.044 583.014 953.301 581.852 959.817 579.529C966.383 577.155 969.666 575.968 969.666 575.968C969.666 575.968 970.07 576.927 970.878 578.847C971.737 580.766 972.924 582.635 974.439 584.453C976.005 586.271 977.823 587.66 979.894 588.62C981.965 589.58 984.566 590.06 987.697 590.06C992.698 590.06 996.612 588.873 999.44 586.499C1002.27 584.125 1003.68 580.69 1003.68 576.195C1003.68 571.801 1002.37 568.467 999.743 566.195C997.117 563.871 993.203 562.709 988 562.709H984.44C979.136 562.709 976.485 562.709 976.485 562.709C976.485 562.709 976.485 559.603 976.485 553.391C976.485 547.178 976.485 544.072 976.485 544.072C976.485 544.072 979.187 544.072 984.591 544.072H987.546C991.94 544.072 995.4 542.936 997.925 540.663C1000.5 538.39 1001.79 535.511 1001.79 532.026C1001.79 528.086 1000.63 525.031 998.304 522.859C996.031 520.636 992.748 519.525 988.455 519.525C986.031 519.525 983.884 519.929 982.015 520.737C980.197 521.495 978.555 522.606 977.091 524.071C975.676 525.536 974.439 527.253 973.378 529.223C972.318 531.193 971.787 532.177 971.787 532.177C971.787 532.177 968.706 530.94 962.544 528.465C956.433 525.99 953.377 524.753 953.377 524.753C953.377 524.753 954.185 522.985 955.802 519.449C957.468 515.914 959.943 512.505 963.226 509.222C966.56 505.888 970.474 503.337 974.969 501.57C979.515 499.802 984.768 498.918 990.728 498.918C1001.33 498.918 1009.57 501.342 1015.43 506.191C1021.34 510.989 1024.29 517.555 1024.29 525.889C1024.29 531.294 1022.85 536.168 1019.97 540.511C1017.09 544.804 1012.95 547.911 1007.55 549.83C1013.96 551.143 1019.11 554.249 1023 559.149C1026.89 564.048 1028.84 569.907 1028.84 576.725C1028.84 586.878 1025.4 595.06 1018.53 601.272C1011.66 607.485 1001.99 610.591 989.516 610.591ZM1081.25 610.591C1068.37 610.591 1057.86 605.363 1049.73 594.908C1041.6 584.453 1037.53 571.069 1037.53 554.754C1037.53 538.289 1041.6 524.879 1049.73 514.525C1057.91 504.12 1068.42 498.918 1081.25 498.918C1094.07 498.918 1104.58 504.171 1112.76 514.676C1121 525.132 1125.11 538.491 1125.11 554.754C1125.11 570.867 1121.02 584.201 1112.84 594.757C1104.66 605.313 1094.13 610.591 1081.25 610.591ZM1081.25 587.332C1086.95 587.332 1091.42 584.655 1094.66 579.301C1097.89 573.897 1099.5 565.74 1099.5 554.83C1099.5 543.769 1097.84 535.561 1094.5 530.208C1091.22 524.854 1086.78 522.177 1081.17 522.177C1075.71 522.177 1071.32 524.904 1067.99 530.359C1064.7 535.814 1063.06 543.946 1063.06 554.754C1063.06 565.361 1064.68 573.442 1067.91 578.998C1071.19 584.554 1075.64 587.332 1081.25 587.332Z" fill="#D6EFFE"/>
<path d="M928.184 543.314C923.941 543.314 920.431 541.976 917.653 539.299C914.875 536.572 913.486 533.087 913.486 528.844C913.486 524.601 914.875 521.141 917.653 518.465C920.431 515.737 923.941 514.373 928.184 514.373C932.427 514.373 935.912 515.737 938.639 518.465C941.417 521.141 942.806 524.601 942.806 528.844C942.806 533.087 941.417 536.572 938.639 539.299C935.912 541.976 932.427 543.314 928.184 543.314ZM928.108 595.06C923.866 595.06 920.355 593.696 917.577 590.969C914.85 588.241 913.486 584.756 913.486 580.514C913.486 576.321 914.85 572.862 917.577 570.134C920.355 567.407 923.866 566.043 928.108 566.043C932.351 566.043 935.861 567.407 938.639 570.134C941.417 572.862 942.806 576.321 942.806 580.514C942.806 584.756 941.417 588.241 938.639 590.969C935.861 593.696 932.351 595.06 928.108 595.06Z" fill="#A3CDFE"/>
<path d="M1021.66 667.36L1053.84 611.606C1055.66 608.48 1054.56 604.51 1051.48 602.693C1048.39 600.877 1044.38 601.933 1042.61 605.059L1010 661.531C985.119 650.169 957.116 643.833 927 643.833C896.884 643.833 868.88 650.169 844.002 661.531L811.394 605.059C809.578 601.933 805.607 600.877 802.482 602.693C799.356 604.51 798.3 608.48 800.116 611.606L832.302 667.36C776.801 697.433 739.209 753.61 733 819.374H1121C1114.79 753.61 1077.2 697.433 1021.66 667.36ZM837.92 764.888C828.923 764.888 821.658 757.58 821.658 748.626C821.658 739.629 828.965 732.364 837.92 732.364C846.916 732.364 854.181 739.671 854.181 748.626C854.224 757.58 846.916 764.888 837.92 764.888ZM1016.04 764.888C1007.04 764.888 999.777 757.58 999.777 748.626C999.777 739.629 1007.08 732.364 1016.04 732.364C1025.03 732.364 1032.3 739.671 1032.3 748.626C1032.34 757.58 1025.03 764.888 1016.04 764.888Z" fill="#32DE84"/>
<path d="M1138.46 612.046C1048.27 445.814 878.847 411.624 805.409 415.309C786.99 415.309 792.884 400.146 800.251 395.414C880.567 343.835 924.863 343.685 961.158 350.053C1003.16 357.421 1010.53 361.105 1043.68 380.263C1092.15 408.264 1142.42 459.105 1144.63 476.052C1146.4 489.61 1168.95 549.737 1153.2 609.098C1150.25 623.246 1142.46 619.414 1138.46 612.046Z" fill="white" fill-opacity="0.05"/>
</g>
<circle cx="541" cy="82" r="23" fill="#4285F4"/>
<circle cx="435" cy="932" r="23" fill="#4285F4"/>
<circle cx="748" cy="1017" r="23" fill="#4285F4"/>
<circle cx="816" cy="1097" r="23" fill="#D6EFFE"/>
<circle cx="693" cy="1120" r="56.5" stroke="#A4CEFE" stroke-width="17"/>
<path d="M541.949 795C525.723 842.59 496.556 864.402 484 869.359C511.815 878.282 532.291 920.171 539.051 940C557.595 898.359 585.41 875.556 597 869.359C564.549 854.487 546.778 813.59 541.949 795Z" fill="#F7DA00" stroke="#F7DA00" stroke-width="6.60824" stroke-linejoin="round"/>
<path d="M1057.67 39C1039 81.0103 1005.44 100.265 991 104.641C1023 112.518 1046.56 149.496 1054.33 167C1075.67 130.241 1107.67 110.111 1121 104.641C1083.67 91.5128 1063.22 55.4103 1057.67 39Z" fill="#F7DA00" stroke="#F7DA00" stroke-width="6.60824" stroke-linejoin="round"/>
<path d="M1160.49 180C1149.43 211.179 1129.56 225.47 1121 228.718C1139.95 234.564 1153.91 262.009 1158.51 275C1171.15 247.718 1190.1 232.778 1198 228.718C1175.89 218.974 1163.78 192.179 1160.49 180Z" fill="#F7DA00" stroke="#F7DA00" stroke-width="6.60824" stroke-linejoin="round"/>
<defs>
<clipPath id="clip0_1751_22">
<rect x="66.9473" y="162.053" width="468.632" height="468.632" rx="234.316" fill="white"/>
</clipPath>
<clipPath id="clip1_1751_22">
<rect x="692.947" y="350.053" width="468.632" height="468.632" rx="234.316" fill="white"/>
</clipPath>
</defs>
</svg>
