<svg width="60" height="61" viewBox="0 0 60 61" fill="none" xmlns="http://www.w3.org/2000/svg">
<g clip-path="url(#clip0)">
<path d="M7.62481 59.2286H4.17549C1.86082 59.2286 0 57.867 0 56.1877V39.985C0 38.3057 1.9062 36.9442 4.17549 36.9442H7.57943C9.8941 36.9442 11.7549 38.3057 11.7549 39.985V56.1423C11.7549 57.8216 9.8941 59.2286 7.62481 59.2286Z" fill="#71D78B"/>
<path d="M23.0562 59.2286H19.6523C17.3376 59.2286 15.4768 57.9124 15.4768 56.3239V27.1863C15.4768 25.5978 17.383 24.2816 19.6523 24.2816H23.0562C25.3709 24.2816 27.2317 25.5978 27.2317 27.1863V56.2786C27.2317 57.9124 25.3255 59.2286 23.0562 59.2286Z" fill="#71D78B"/>
<path d="M38.4891 59.2284H35.0852C32.7705 59.2284 30.9097 57.5037 30.9097 55.4614V17.6096C30.9097 15.5219 32.8159 13.8426 35.0852 13.8426H38.4891C40.8038 13.8426 42.6646 15.5673 42.6646 17.6096V55.416C42.6646 57.5037 40.7584 59.2284 38.4891 59.2284Z" fill="#71D78B"/>
<path d="M54.8262 59.2285H51.4223C49.1076 59.2285 47.2468 57.05 47.2468 54.3722V5.85484C47.2468 3.17708 49.153 0.998566 51.4223 0.998566H54.8262C57.1409 0.998566 59.0017 3.17708 59.0017 5.85484V54.3269C59.0017 57.0046 57.0955 59.2285 54.8262 59.2285Z" fill="#5086EB" stroke="#5086EB" stroke-width="1.98899" stroke-miterlimit="10" stroke-linecap="round"/>
</g>
<defs>
<clipPath id="clip0">
<rect width="60" height="60.1815" fill="white"/>
</clipPath>
</defs>
</svg>
