<svg width="30" height="54" viewBox="0 0 30 54" fill="none" xmlns="http://www.w3.org/2000/svg">
<g clip-path="url(#clip0)">
<path d="M24.4789 0.716675H5.52108C2.88253 0.716675 0.75 2.8492 0.75 5.48776V48.6986C0.75 51.3372 2.88253 53.4878 5.53916 53.4878H29.2681V5.48776C29.25 2.8492 27.1175 0.716675 24.4789 0.716675ZM11.7018 6.68053H26.8645V33.8974C22.762 27.9335 14.5753 15.4094 11.7018 6.68053Z" fill="#4285F4"/>
<path d="M11.1958 50.3793H19.7621" stroke="#3DDC84" stroke-width="0.542169" stroke-miterlimit="10"/>
<path d="M11.7018 6.68051H9.4608H3.1355V44.8853C3.1355 47.0359 5.37646 47.5058 7.52706 47.5058H26.8644V36.5179V33.8974V6.68051H11.7018Z" fill="#073042"/>
<path d="M16.6897 23.6143H20.1776C20.9728 23.6143 21.6234 24.2649 21.6234 25.0601V34.8914H16.6897V23.6143Z" fill="#D7EFFE"/>
<path d="M19.5271 38.8673L23.3584 35.036C23.7199 34.6745 23.4669 34.0601 22.9428 34.0601H15.262C14.756 34.0601 14.4849 34.6745 14.8464 35.036L18.6777 38.8673C18.9126 39.1023 19.2922 39.1023 19.5271 38.8673Z" fill="#D7EFFE"/>
<path d="M13.3102 31.3312H9.82225C9.02707 31.3312 8.37646 30.6806 8.37646 29.8854V20.054H13.3102V31.3312Z" fill="#D7EFFE"/>
<path d="M10.473 16.0781L6.64166 19.9094C6.28022 20.2709 6.53323 20.8854 7.05733 20.8854H14.738C15.2441 20.8854 15.5152 20.2709 15.1537 19.9094L11.3043 16.0781C11.0694 15.8432 10.7079 15.8432 10.473 16.0781Z" fill="#D7EFFE"/>
</g>
<defs>
<clipPath id="clip0">
<rect width="28.5" height="52.7711" fill="white" transform="translate(0.75 0.716675)"/>
</clipPath>
</defs>
</svg>
