<svg width="58" height="56" viewBox="0 0 58 56" fill="none" xmlns="http://www.w3.org/2000/svg">
<g clip-path="url(#clip0)">
<path d="M36.6146 15.0919L31.9983 14.4172C31.7497 13.6005 31.4301 12.8548 31.0395 12.1091L33.8093 8.38047C34.0224 8.09639 33.9869 7.67026 33.7383 7.42169L29.8321 3.48003C29.5836 3.19594 29.1574 3.19594 28.8734 3.409L25.1448 6.17882C24.399 5.7882 23.6533 5.46861 22.8366 5.22004L22.1264 0.639188C22.0909 0.284084 21.7713 0 21.3806 0H15.841C15.4859 0 15.1663 0.284084 15.0953 0.639188L14.4206 5.22004C13.6039 5.46861 12.8581 5.7882 12.1124 6.17882L8.38381 3.409C8.09973 3.19594 7.67361 3.23145 7.42503 3.48003L3.48337 7.42169C3.2348 7.67026 3.19929 8.09639 3.41235 8.38047L6.18217 12.1091C5.79155 12.8548 5.47196 13.6005 5.22338 14.4172L0.607023 15.0919C0.251918 15.1275 -0.0321655 15.447 -0.0321655 15.8377V21.3773C-0.0321655 21.7324 0.251918 22.052 0.607023 22.123L5.22338 22.7977C5.47196 23.6145 5.79155 24.3602 6.18217 25.1059L3.41235 28.8345C3.19929 29.1186 3.2348 29.5447 3.48337 29.7933L7.42503 33.7349C7.67361 33.9835 8.09973 34.019 8.38381 33.806L12.1124 31.0361C12.8581 31.4268 13.6039 31.7464 14.4206 31.9949L15.0953 36.6113C15.1308 36.9664 15.4504 37.2505 15.841 37.2505H21.3806C21.7358 37.2505 22.0553 36.9664 22.1264 36.6113L22.8011 31.9949C23.6178 31.7464 24.3635 31.4268 25.1092 31.0361L28.8378 33.806C29.1219 34.019 29.5481 33.9835 29.7966 33.7349L33.7383 29.8288C33.9869 29.5802 34.0224 29.1541 33.8093 28.87L31.0395 25.1414C31.4301 24.3957 31.7497 23.65 31.9983 22.8332L36.6146 22.1585C36.9697 22.123 37.2538 21.8034 37.2538 21.4128V15.8377C37.2538 15.4826 36.9697 15.163 36.6146 15.0919ZM18.6108 28.0178C13.4263 28.0178 9.20056 23.792 9.20056 18.6075C9.20056 13.423 13.4263 9.19721 18.6108 9.19721C23.7954 9.19721 28.0211 13.423 28.0211 18.6075C28.0211 23.792 23.7954 28.0178 18.6108 28.0178Z" fill="#71D78B"/>
<path d="M56.8558 32.7762L53.8729 32.35C53.7308 31.8174 53.5178 31.3202 53.2692 30.8586L55.0447 28.4439C55.1868 28.2663 55.1868 27.9823 55.0092 27.8047L52.4525 25.248C52.2749 25.0704 52.0263 25.0704 51.8133 25.2124L49.3986 26.988C48.9369 26.7394 48.4398 26.5263 47.9071 26.3843L47.481 23.4014C47.4455 23.1528 47.2324 22.9753 47.0194 22.9753H43.4328C43.1842 22.9753 43.0067 23.1528 42.9712 23.4014L42.545 26.3843C42.0124 26.5263 41.5152 26.7394 41.0536 26.988L38.6389 25.2124C38.4613 25.0704 38.1772 25.1059 37.9997 25.248L35.4429 27.8047C35.2654 27.9823 35.2654 28.2308 35.4074 28.4439L37.183 30.8586C36.9344 31.3202 36.7213 31.8174 36.5793 32.35L33.5964 32.7762C33.3478 32.8117 33.1703 33.0247 33.1703 33.2378V36.8244C33.1703 37.0729 33.3478 37.2505 33.5964 37.286L36.5793 37.7121C36.7213 38.2448 36.9344 38.7419 37.183 39.2036L35.4074 41.6183C35.2654 41.7958 35.2654 42.0799 35.4429 42.2575L37.9997 44.8142C38.1772 44.9918 38.4258 44.9918 38.6389 44.8497L41.0536 43.0742C41.5152 43.3228 42.0124 43.5358 42.545 43.6779L42.9712 46.6608C43.0067 46.9093 43.2197 47.0869 43.4328 47.0869H47.0194C47.2679 47.0869 47.4455 46.9093 47.481 46.6608L47.9071 43.6779C48.4398 43.5358 48.9369 43.3228 49.3986 43.0742L51.8133 44.8497C51.9908 44.9918 52.2749 44.9918 52.4525 44.8142L55.0092 42.2575C55.1868 42.0799 55.1868 41.8313 55.0447 41.6183L53.2692 39.2036C53.5178 38.7419 53.7308 38.2448 53.8729 37.7121L56.8558 37.286C57.1043 37.2505 57.2819 37.0374 57.2819 36.8244V33.2733C57.2464 33.0247 57.1043 32.8117 56.8558 32.7762ZM45.2083 41.1566C41.8348 41.1566 39.1005 38.4223 39.1005 35.0488C39.1005 31.6753 41.8348 28.941 45.2083 28.941C48.5818 28.941 51.3161 31.6753 51.3161 35.0488C51.3161 38.4223 48.5818 41.1566 45.2083 41.1566Z" fill="#5E7EF9"/>
<path d="M34.3735 45.3825L32.1719 45.0629C32.0653 44.6723 31.8878 44.3172 31.7102 43.9621L33.0241 42.1865C33.1306 42.0445 33.1306 41.8314 32.9886 41.7249L31.1065 39.8428C30.9645 39.7008 30.787 39.7008 30.6449 39.8073L28.8694 41.1212C28.5143 40.9437 28.1592 40.7661 27.7686 40.6596L27.449 38.4579C27.4135 38.2804 27.2714 38.1383 27.0939 38.1383H24.4306C24.253 38.1383 24.111 38.2804 24.0755 38.4579L23.7559 40.6596C23.3653 40.7661 23.0102 40.9437 22.6551 41.1212L20.8795 39.8073C20.7375 39.7008 20.5244 39.7008 20.4179 39.8428L18.5358 41.7249C18.3938 41.8669 18.3938 42.0445 18.5003 42.1865L19.8142 43.9621C19.6367 44.3172 19.4591 44.6723 19.3526 45.0629L17.1509 45.3825C16.9734 45.418 16.8313 45.56 16.8313 45.7376V48.4009C16.8313 48.5784 16.9734 48.7205 17.1509 48.756L19.3526 49.0756C19.4591 49.4662 19.6367 49.8213 19.8142 50.1764L18.5003 51.9519C18.3938 52.0939 18.3938 52.307 18.5358 52.4135L20.4179 54.2956C20.5599 54.4376 20.7375 54.4376 20.8795 54.3311L22.6551 53.0172C23.0102 53.1948 23.3653 53.3723 23.7559 53.4789L24.0755 55.6805C24.111 55.8581 24.253 56.0001 24.4306 56.0001H27.0939C27.2714 56.0001 27.4135 55.8581 27.449 55.6805L27.7686 53.4789C28.1592 53.3723 28.5143 53.1948 28.8694 53.0172L30.6449 54.3311C30.787 54.4376 31 54.4376 31.1065 54.2956L32.9886 52.4135C33.1306 52.2715 33.1306 52.0939 33.0241 51.9519L31.7102 50.1764C31.8878 49.8213 32.0653 49.4662 32.1719 49.0756L34.3735 48.756C34.5511 48.7205 34.6931 48.5784 34.6931 48.4009V45.7376C34.6576 45.56 34.5511 45.418 34.3735 45.3825ZM25.709 51.5968C23.2232 51.5968 21.1991 49.5727 21.1991 47.087C21.1991 44.6012 23.2232 42.5771 25.709 42.5771C28.1947 42.5771 30.2188 44.6012 30.2188 47.087C30.2543 49.5727 28.2302 51.5968 25.709 51.5968Z" fill="#71D78B"/>
</g>
<defs>
<clipPath id="clip0">
<rect width="57.2429" height="56" fill="white"/>
</clipPath>
</defs>
</svg>
