<svg width="720" height="386" fill="none" xmlns="http://www.w3.org/2000/svg"><g clip-path="url(#clip0)"><path d="M546.37 0H173.49C154.994 0 140 14.994 140 33.49v318.06c0 18.496 14.994 33.49 33.49 33.49h372.88c18.496 0 33.49-14.994 33.49-33.49V33.49C579.86 14.994 564.866 0 546.37 0z" fill="#063143"/><path d="M280.53 236.82a59.546 59.546 0 01-19.87-3.37 55.819 55.819 0 01-17-9.46 48.607 48.607 0 01-12.09-14.61 42.823 42.823 0 01-5.05-19h32.78a18.652 18.652 0 007.57 10.93 22.849 22.849 0 0013.66 4.21c6.873 0 12.06-1.963 15.56-5.89a21.269 21.269 0 005.26-14.72 20.113 20.113 0 00-1.435-7.964 20.117 20.117 0 00-11.211-11.211 20.113 20.113 0 00-7.964-1.435c-5.6 0-10.293 1.473-14.08 4.42a23.578 23.578 0 00-8 11.14l-27.54-8.62 17.24-86h73.39v30.7h-49l-5 23.76c5.04-2.667 11.417-4 19.13-4a46.791 46.791 0 0119.24 3.79 41.249 41.249 0 0114.51 10.62 48.012 48.012 0 019.25 16.29 63.402 63.402 0 013.26 20.82 55.994 55.994 0 01-3.72 20.78 42.11 42.11 0 01-10.62 15.66 46.581 46.581 0 01-16.61 9.78 65.731 65.731 0 01-21.66 3.38zM468.1 234.5l-1.68-14.09C455.2 231.47 440.97 237 423.73 237a76.593 76.593 0 01-29.23-5.58 70.25 70.25 0 01-23.76-15.77 75.01 75.01 0 01-16-24.39 81.186 81.186 0 01-5.89-31.44 79.093 79.093 0 015.78-30.28 74.852 74.852 0 0116.09-24.49 75.535 75.535 0 0154.46-22.4 74.67 74.67 0 0141.53 12.51 69.39 69.39 0 0126.6 34.17h-38.46a35.394 35.394 0 00-13-10.72 38.48 38.48 0 00-16.62-3.57 42.575 42.575 0 00-17.34 3.46 39.685 39.685 0 00-13.46 9.57 44.986 44.986 0 00-8.73 14.2 48.005 48.005 0 00-3.15 17.55 49.802 49.802 0 003.26 18.4 43.396 43.396 0 008.83 14.2 37.754 37.754 0 0013.25 9 42.987 42.987 0 0016.5 3.15c11.22 0 20.367-2.803 27.44-8.41s11.463-13.223 13.17-22.85h-37.27v-29.23h69.18v90.42H468.1zM239.17 277.88c-4.81 0-8 3.78-8 8.64 0 4.86 3.23 8.64 8 8.64s8-3.78 8-8.64c0-4.86-3.24-8.64-8-8.64zm-1.08-5.39a10.762 10.762 0 018.64 4.15V273h5.93v27h-4.25a1.68 1.68 0 01-1.68-1.68v-1.92a10.759 10.759 0 01-8.64 4.15c-7.39 0-13-6.31-13-14s5.62-14 13-14M259.41 273h5.93v3.67a9.284 9.284 0 018.21-4.21c6.26 0 10.31 4.42 10.31 11.28V300h-4.25a1.685 1.685 0 01-1.561-1.035 1.68 1.68 0 01-.129-.645v-13.58c0-4.27-2.16-6.86-5.61-6.86-3.94 0-7 3.08-7 8.86V300h-4.25a1.68 1.68 0 01-1.68-1.68l.03-25.32zM302.64 277.88c-4.8 0-8 3.78-8 8.64 0 4.86 3.24 8.64 8 8.64s8-3.78 8-8.64c0-4.86-3.24-8.64-8-8.64zm-1.08-5.39a10.762 10.762 0 018.64 4.15v-17.11h5.94V300h-4.25a1.685 1.685 0 01-1.561-1.035 1.68 1.68 0 01-.129-.645v-1.92a10.759 10.759 0 01-8.64 4.15c-7.39 0-13-6.31-13-14s5.62-14 13-14M322.88 273h5.94v4.8a7.567 7.567 0 017.12-5.07c.778-.007 1.556.063 2.32.21v6.1a9.323 9.323 0 00-3-.48c-3.4 0-6.47 2.86-6.47 8.25V300h-4.25a1.685 1.685 0 01-1.561-1.035 1.68 1.68 0 01-.129-.645l.03-25.32zM354.27 295.05c4.75 0 8.1-3.73 8.1-8.53 0-4.8-3.37-8.52-8.1-8.52-4.73 0-8.15 3.73-8.15 8.53 0 4.8 3.35 8.53 8.15 8.53v-.01zm0 5.51a14 14 0 1114.14-14 13.912 13.912 0 01-4.126 9.974 13.924 13.924 0 01-10.014 4.026M373.23 273h5.93v27h-4.25a1.68 1.68 0 01-1.68-1.68V273zm3-5.89a4.002 4.002 0 01-4.171-5.617 4 4 0 114.171 5.617zM398.13 277.88c-4.8 0-8 3.78-8 8.64 0 4.86 3.24 8.64 8 8.64s8-3.78 8-8.64c0-4.86-3.24-8.64-8-8.64zm-1.08-5.39a10.762 10.762 0 018.64 4.15v-17.11h5.93V300h-4.25a1.68 1.68 0 01-1.68-1.68v-1.92a10.759 10.759 0 01-8.64 4.15c-7.39 0-13-6.31-13-14s5.62-14 13-14" fill="#fff"/><path d="M478.21 271.77l6-10.37a1.234 1.234 0 00-.086-1.379 1.243 1.243 0 00-2.064.129L476 270.66a37.612 37.612 0 00-30.81 0l-6.07-10.51a1.25 1.25 0 00-2.16 1.25l6 10.37a35.376 35.376 0 00-18.36 28.31h72a35.378 35.378 0 00-18.36-28.31h-.03zM444 289.83a3 3 0 11.001-6.002 3 3 0 01-.001 6.002zm33.13 0a3 3 0 11.001-6.002 3 3 0 01-.001 6.002" fill="#3DDB85"/></g><defs><clipPath id="clip0"><path fill="#fff" transform="translate(140)" d="M0 0h439.86v385.04H0z"/></clipPath></defs></svg>