<svg width="59" height="48" viewBox="0 0 59 48" fill="none" xmlns="http://www.w3.org/2000/svg">
<path d="M15.5615 28.319C17.146 24.5796 21.7093 22.0445 26.9065 22.4247C31.343 22.7416 34.9557 25.0867 36.6036 28.1923" stroke="#4285F4" stroke-width="2.53518" stroke-miterlimit="10" stroke-linecap="round"/>
<path d="M8.6543 21.9177C11.3162 15.5798 18.9218 11.3967 27.5414 12.0305C34.8934 12.5376 41.0413 16.4671 43.7032 21.7276" stroke="#4285F4" stroke-width="2.53518" stroke-miterlimit="10" stroke-linecap="round"/>
<path d="M2 15.2627C5.48588 6.8966 15.69 1.25582 27.1617 2.07975C36.9855 2.77693 45.0981 7.97406 48.7108 14.9458" stroke="#4285F4" stroke-width="2.53518" stroke-miterlimit="10" stroke-linecap="round"/>
<path d="M25.8914 38.0159C27.8166 38.0159 29.3773 36.4552 29.3773 34.53C29.3773 32.6048 27.8166 31.0441 25.8914 31.0441C23.9662 31.0441 22.4055 32.6048 22.4055 34.53C22.4055 36.4552 23.9662 38.0159 25.8914 38.0159Z" fill="#4285F4"/>
<path d="M55.6128 48H42.9157C41.49 48 40.3333 46.8433 40.3333 45.4175V32.2362C40.3333 30.8105 41.49 29.6538 42.9157 29.6538H55.6397C57.0654 29.6538 58.2221 30.8105 58.2221 32.2362V45.4175C58.2221 46.8433 57.0654 48 55.6128 48Z" fill="#D7EFFE"/>
<path d="M54.9233 35.7692L47.2974 43.3951L44.2251 40.3411" stroke="#4285F4" stroke-width="2.36261" stroke-miterlimit="10" stroke-linecap="round"/>
</svg>
