<svg xmlns="http://www.w3.org/2000/svg" width="396" height="396" fill="none"><path fill="#34A853" d="M216.125 339.524h38.018L201.765 56.383H186.49c-20.672 0-36.584 18.255-33.761 38.734l29.635 214.98c2.325 16.864 16.738 29.427 33.761 29.427"/><path fill="#fff" d="M307.428 85.564C305.165 68.638 290.725 56 273.648 56h-69.389c-20.616 0-36.511 18.162-33.779 38.596l28.842 215.74c2.263 16.926 16.703 29.564 33.78 29.564h69.389c20.616 0 36.512-18.162 33.78-38.596z"/><path stroke="#AECBFA" stroke-linecap="round" stroke-width="3.391" d="M204.619 57.61h69.258c17.046 0 31.471 12.595 33.769 29.486l28.914 212.521c2.784 20.46-13.121 38.675-33.769 38.675h-71.287"/><circle cx="4.382" cy="4.382" r="4.382" fill="#4285F4" transform="matrix(-1 0 0 1 244.445 67.475)"/><rect width="7.505" height="32.692" x="-1.449" y="1.911" stroke="#0D652D" stroke-width="3.391" rx="3.752" transform="matrix(-.99067 .13632 .13632 .99067 167.062 140.959)"/><rect width="7.505" height="60.416" x="-1.449" y="1.911" stroke="#0D652D" stroke-width="3.391" rx="3.752" transform="matrix(-.99067 .13632 .13632 .99067 173.21 185.509)"/><ellipse cx="15.58" cy="15.579" fill="#CEEAD6" rx="15.58" ry="15.579" transform="matrix(-1 0 0 1 322.044 292.612)"/><ellipse cx="15.58" cy="15.579" fill="#CEEAD6" rx="15.58" ry="15.579" transform="matrix(-1 0 0 1 285.042 292.612)"/><ellipse cx="15.58" cy="15.579" fill="#CEEAD6" rx="15.58" ry="15.579" transform="matrix(-1 0 0 1 248.047 292.612)"/><path fill="#0D652D" d="M106.549 281.189h45.289v34.459c0 12.506-10.138 22.645-22.644 22.645-12.507 0-22.645-10.139-22.645-22.645z"/><path fill="#C6FF00" fill-rule="evenodd" d="M151.834 300.067c19.718-8.704 33.48-28.427 33.48-51.366 0-30.994-25.126-56.119-56.12-56.119s-56.12 25.125-56.12 56.119c0 22.934 13.758 42.655 33.47 51.361v10.671h45.29z" clip-rule="evenodd"/><path stroke="#0D652D" stroke-width="2.921" d="M123.631 310.732c.483-31.082.708-44.858.728-74.333.001-2.44-1.977-4.431-4.417-4.431h-1.094a4.42 4.42 0 0 0-4.418 4.418v35.07a4.42 4.42 0 0 0 4.418 4.418h19.716a4.42 4.42 0 0 0 4.418-4.418v-35.07a4.42 4.42 0 0 0-4.418-4.418h-.525a4.42 4.42 0 0 0-4.418 4.418v74.346"/><path stroke="#fff" stroke-linecap="round" stroke-width="11.686" d="M138.977 211.347c8.419 1.777 16.9 6.778 22.557 16.026"/><rect width="151.853" height="151.853" x="220.121" y="111.325" fill="#CEEAD6" rx="25.575"/><mask id="a" width="152" height="153" x="220" y="111" maskUnits="userSpaceOnUse" style="mask-type:alpha"><rect width="151.853" height="151.853" x="220.121" y="111.325" fill="#CEEAD6" rx="25.575"/></mask><g clip-path="url(#b)" mask="url(#a)"><path fill="#34A853" d="M371.546 259.759q-.071-.464-.148-.923a75.518 75.518 0 0 0-4.151-15.089 76 76 0 0 0-3.437-7.556 77 77 0 0 0-5.542-9.013 76 76 0 0 0-8.369-9.83 76.488 76.488 0 0 0-13.474-10.649q.043-.074.085-.147 2.3-3.957 4.599-7.914l4.495-7.729q1.616-2.775 3.226-5.552.38-.66.607-1.358a6.96 6.96 0 0 0-.655-5.714 6.9 6.9 0 0 0-2.42-2.403 7.04 7.04 0 0 0-4.284-.941 6.97 6.97 0 0 0-5.32 3.429 3973 3973 0 0 0-3.226 5.551l-4.495 7.73c-1.532 2.639-3.067 5.274-4.599 7.913-.166.288-.337.576-.503.868q-.348-.14-.696-.273c-8.446-3.212-17.61-4.969-27.189-4.969q-.391-.001-.784.004a76.4 76.4 0 0 0-24.333 4.212q-1.325.46-2.623.97-.234-.403-.47-.808c-1.531-2.639-3.067-5.274-4.598-7.914a19491 19491 0 0 1-7.722-13.28 7 7 0 0 0-.88-1.2 6.98 6.98 0 0 0-5.753-2.24 6.9 6.9 0 0 0-2.971.952 6.95 6.95 0 0 0-2.42 2.403q-.25.421-.44.871a6.952 6.952 0 0 0 .392 6.201c1.077 1.849 2.154 3.702 3.226 5.551l4.496 7.73c1.531 2.639 3.067 5.274 4.598 7.913.011.023.026.045.037.067a76.434 76.434 0 0 0-13.603 10.734 76.7 76.7 0 0 0-8.369 9.829 75.5 75.5 0 0 0-5.542 9.014 75.518 75.518 0 0 0-7.588 22.645q-.077.461-.148.922a76 76 0 0 0-.437 3.333h151.854a76 76 0 0 0-.437-3.333z"/><path fill="#000" d="M335.551 242.246c3.038-2.016 3.479-6.682.986-10.421s-6.978-5.135-10.016-3.118-3.48 6.683-.986 10.422c2.493 3.738 6.978 5.134 10.016 3.117M266.697 239.142c2.494-3.739 2.052-8.405-.986-10.422s-7.523-.621-10.016 3.118-2.052 8.405.986 10.422 7.522.621 10.016-3.118"/></g><path stroke="#C6FF00" stroke-linecap="round" stroke-width="6.602" d="m65.438 195.54-14.856-14.855"/><path stroke="#C6FF00" stroke-linecap="round" stroke-width="3.301" d="m65.438 195.54-14.856-14.855"/><path stroke="#C6FF00" stroke-linecap="round" stroke-width="6.602" d="M92.107 179.266v-21.009"/><path stroke="#C6FF00" stroke-linecap="round" stroke-width="3.301" d="M92.107 179.266v-21.009"/><path stroke="#C6FF00" stroke-linecap="round" stroke-width="6.602" d="M52.308 221.972H31.3"/><path stroke="#C6FF00" stroke-linecap="round" stroke-width="3.301" d="M52.308 221.972H31.3"/><path fill="#4285F4" d="M102.134 111.331c0-17.756 14.394-32.15 32.15-32.15h41.337c17.756 0 32.15 14.394 32.15 32.15s-14.394 32.15-32.15 32.15h-41.337c-17.756 0-32.15-14.394-32.15-32.15"/><path fill="#fff" d="M141.827 100.546a2 2 0 0 1 1.193-1.758l7.661-3.354 3.527-1.56a1.74 1.74 0 0 1 1.407 0l3.527 1.56 7.727 3.337a2.02 2.02 0 0 1 1.194 1.735c.131 2.649.188 8.824-.254 11.195-1.516 8.105-9.256 14.533-11.962 16.563a1.56 1.56 0 0 1-1.879.013c-2.774-2.024-10.782-8.502-11.954-16.576-.345-2.38-.292-8.502-.187-11.155"/><path fill="#C6FF00" d="M356.856 57.451c.573-1.935 3.313-1.935 3.886 0l2.411 8.139a4.06 4.06 0 0 0 2.736 2.735l8.139 2.411c1.934.574 1.934 3.314 0 3.887l-8.139 2.411a4.06 4.06 0 0 0-2.736 2.735l-2.411 8.14c-.573 1.934-3.313 1.934-3.886 0l-2.412-8.14a4.05 4.05 0 0 0-2.735-2.735l-8.139-2.411c-1.935-.573-1.935-3.313 0-3.887l8.139-2.41a4.05 4.05 0 0 0 2.735-2.736z"/><defs><clipPath id="b"><path fill="#fff" d="M220.121 174.992h151.853v88.188H220.121z"/></clipPath></defs></svg>