<svg xmlns="http://www.w3.org/2000/svg" width="64" height="64" fill="none"><path fill="#A33A48" d="M23.987 61.005h-6.395A9.569 9.569 0 0 1 8 51.413v-35.09h15.987v44.682Z"/><path fill="#fff" d="M12.716 8.65 8 16.324h15.987L19.27 8.65h-6.555Z"/><path fill="#51145B" d="M15.992 3.334 12.715 8.65h6.554l-3.277-5.316Z"/><path fill="#FFD6FE" d="M39.973 16.322H23.986v44.683h15.987V16.322Z"/><path fill="#fff" d="m28.742 8.65-4.756 7.674h15.987L35.257 8.65h-6.515Z"/><path fill="#51145B" d="M31.98 3.334 28.742 8.65h6.515L31.98 3.334Z"/><path fill="#A33A48" d="M55.96 16.322H39.972v44.683h15.986V16.322Z"/><path fill="#fff" d="m44.73 8.65-4.755 7.674H56L51.245 8.65h-6.514Z"/><path fill="#51145B" d="M47.968 3.334 44.73 8.65h6.515l-3.277-5.316Z"/></svg>