<svg xmlns="http://www.w3.org/2000/svg" width="64" height="64" fill="none"><g clip-path="url(#a)"><path fill="#006A6A" d="M44.013 15.396H20.105c-6.957 0-12.607 5.497-12.607 12.281 0 6.784 5.65 12.28 12.607 12.28h23.908c6.957 0 12.608-5.496 12.608-12.28 0-6.784-5.65-12.28-12.608-12.28Z"/><path fill="#006A6A" d="m8.46 22.988-6.516 17.97c-1.306 3.42.539 7.226 4.017 8.321a8.492 8.492 0 0 0 9.379-2.998l4.766-6.342L8.46 22.989ZM55.852 23.525l6.208 17.432a6.368 6.368 0 0 1-4.017 8.321 8.492 8.492 0 0 1-9.378-2.998l-4.767-6.342 11.954-16.413Z"/><path fill="#4CDADA" fill-rule="evenodd" d="M37.762 23.792c-2.227 2.225-2.237 5.818-.032 8.025 2.204 2.208 5.797 2.203 8.025-.021 2.227-2.224 2.237-5.817.032-8.025-2.204-2.208-5.797-2.203-8.025.021Zm-.841 8.833c-2.655-2.66-2.636-6.976.034-9.641 2.67-2.666 6.986-2.68 9.641-.02 2.655 2.658 2.635 6.975-.034 9.64-2.67 2.666-6.986 2.68-9.641.02Z" clip-rule="evenodd"/><path fill="#1C314B" d="M43.36 29.398c.894-.892.901-2.334.016-3.22a2.277 2.277 0 0 0-3.22.01 2.277 2.277 0 0 0-.017 3.221 2.278 2.278 0 0 0 3.221-.01Z"/><path fill="#EFF1F0" d="M23.526 28.62h3.19c.307 0 .557-.25.557-.558v-1.307h-3.767v-3.19a.558.558 0 0 0-.557-.557h-1.307v3.767h-3.19a.558.558 0 0 0-.558.557v1.307h3.767v3.19c0 .308.25.557.558.557h1.306V28.62Z"/></g><defs><clipPath id="a"><path fill="#fff" d="M0 0h64v64H0z"/></clipPath></defs></svg>