<svg width="56" height="56" fill="none" xmlns="http://www.w3.org/2000/svg"><rect x="4.668" y="12.25" width="41.94" height="27.138" rx="2.363" fill="#410002"/><rect x="9.395" y="16.977" width="41.94" height="27.138" rx="2.363" fill="#ECBD9C"/><path fill-rule="evenodd" clip-rule="evenodd" d="M37.164 30.595v.006c0-.249-.16-.5-.474-.697a1.744 1.744 0 0 0-.069-.04l-1.896-1.071-.606-.342-2.54-1.433-4.932-2.781a1.472 1.472 0 0 0-.075-.04l-.023-.01a1.518 1.518 0 0 0-.052-.025l-.024-.01a1.327 1.327 0 0 0-.053-.02l-.02-.007a1.074 1.074 0 0 0-.217-.051h-.003a.68.68 0 0 0-.555.16l-.003.002a.75.75 0 0 0-.034.034l-.002.002-.002.002a.61.61 0 0 0-.02.024c-.005.005-.01.01-.013.015l-.015.02a.674.674 0 0 0-.027.038l-.004.005a.723.723 0 0 0-.024.04l-.004.009a.847.847 0 0 0-.022.042l-.003.006a1.031 1.031 0 0 0-.059.166l-.001.007-.014.059v.002a1.273 1.273 0 0 0-.011.065v.004l-.005.036s-.014.152-.014.175v.075l.008 6.935.003 2.666.021 1.542.015.239c.025.238.105.426.228.556l.034.033.004.004a.69.69 0 0 0 .033.026l.011.009a.616.616 0 0 0 .05.033.617.617 0 0 0 .041.022l.012.006a.682.682 0 0 0 .166.053h.003c.203.036.444-.014.702-.161l4.802-2.745h.01l2.645-1.512.553-.316.002-.001.63-.36 1.31-.75c.178-.102.311-.22.4-.345a.681.681 0 0 0 .133-.374v-.02.005-.012" fill="#fff"/></svg>