<svg xmlns="http://www.w3.org/2000/svg" width="64" height="64" fill="none"><path fill="#3E2E00" d="M5.715 13.714h52.571V52a2.857 2.857 0 0 1-2.857 2.857H8.572A2.857 2.857 0 0 1 5.715 52V13.714Z"/><path fill="#FFDF95" d="M8 10.667A2.667 2.667 0 0 1 10.668 8h18.667A2.667 2.667 0 0 1 32 10.667v38.666A2.667 2.667 0 0 1 29.334 52H10.667a2.667 2.667 0 0 1-2.666-2.667V10.667Z"/><path fill="#FFDF95" d="M32 10.667A2.667 2.667 0 0 1 34.668 8h18.667A2.667 2.667 0 0 1 56 10.667v38.666A2.667 2.667 0 0 1 53.335 52H34.667a2.667 2.667 0 0 1-2.666-2.667V10.667Z"/><path fill="#fff" fill-rule="evenodd" d="M29.334 29.333h-16v-2.666h16v2.666ZM50.667 16h-16v-2.667h16V16ZM50.667 21.333h-16v-2.666h16v2.666ZM50.667 26.667h-16V24h16v2.667ZM50.667 32h-16v-2.667h16V32ZM50.667 37.333h-16v-2.666h16v2.666ZM48 42.667H34.668V40h13.334v2.667ZM29.334 24h-16V13.333h16V24ZM29.334 34.667h-16V32h16v2.667ZM29.334 40h-16v-2.667h16V40ZM26.667 45.333H13.334v-2.666h13.333v2.666Z" clip-rule="evenodd"/></svg>