<svg width="56" height="56" fill="none" xmlns="http://www.w3.org/2000/svg"><g clip-path="url(#a)"><path d="M9.484 23.483a8.121 8.121 0 0 1 8.122-8.122h31.247v22.08a8.121 8.121 0 0 1-8.121 8.121H9.484v-22.08Z" fill="#BACE97"/><path d="M48.853 12.396v2.966H44.54c2.697-.54 4.314-1.079 4.314-2.966Z" fill="#BACE97"/><path d="M27.281 9.969v5.393h18.876a2.696 2.696 0 1 0 0-5.393H27.28Z" fill="#47680F"/><path d="M6.25 26.148v8.628h9.707a4.314 4.314 0 1 0 0-8.629H6.25Z" fill="#BCECE6"/><circle cx="15.958" cy="30.462" fill="#396662" r="2.157"/></g><defs><clipPath id="a"><path fill="#fff" transform="translate(7 7)" d="M0 0h42.058v42H0z"/></clipPath></defs></svg>